<svg width="24" height="24" viewBox="0 0 24 24" fill="none" xmlns="http://www.w3.org/2000/svg">
<path fill-rule="evenodd" clip-rule="evenodd" d="M13.1986 20.9989C13.1753 21.0016 13.1564 20.9993 13.1527 20.9934C13.1492 20.9878 13.1545 20.9774 13.1643 20.9703C13.1742 20.9632 13.2767 20.9112 13.3922 20.8549C13.5076 20.7985 13.6671 20.7163 13.7467 20.6722C13.8262 20.6281 13.95 20.5561 14.0219 20.5122C14.0937 20.4683 14.2175 20.3888 14.2971 20.3356C14.3766 20.2823 14.5221 20.1785 14.6203 20.1049C14.7186 20.0312 14.8529 19.926 14.9189 19.871C14.9848 19.8161 15.0975 19.7177 15.1693 19.6524C15.2412 19.5871 15.3763 19.4567 15.4697 19.3627C15.563 19.2686 15.6862 19.1392 15.7433 19.0751C15.8004 19.011 15.8938 18.9019 15.9507 18.8327C16.0077 18.7634 16.1076 18.6355 16.1727 18.5483C16.2378 18.4611 16.3348 18.3247 16.3882 18.2452C16.4417 18.1657 16.5213 18.042 16.5652 17.9702C16.6091 17.8984 16.6789 17.7788 16.7203 17.7044C16.7617 17.6301 16.8323 17.4958 16.8773 17.406C16.9222 17.3163 16.988 17.1778 17.0235 17.0983C17.0589 17.0189 17.1146 16.8867 17.1471 16.8046C17.1796 16.7226 17.2362 16.5673 17.2729 16.4596C17.3095 16.3519 17.3603 16.1919 17.3857 16.104C17.4112 16.0162 17.4506 15.8651 17.4733 15.7684C17.496 15.6716 17.5292 15.5148 17.5472 15.42C17.5651 15.3251 17.5905 15.1719 17.6036 15.0796C17.6167 14.9873 17.6337 14.851 17.6414 14.7766C17.649 14.7022 17.6606 14.5533 17.6671 14.4456C17.6736 14.3379 17.6789 14.1302 17.6789 13.984C17.6789 13.8379 17.6736 13.6302 17.6671 13.5225C17.6606 13.4148 17.649 13.2658 17.6413 13.1915C17.6336 13.1171 17.6165 12.9807 17.6034 12.8884C17.5903 12.7961 17.565 12.643 17.5471 12.5481C17.5292 12.4532 17.4985 12.3064 17.4788 12.2218C17.4591 12.1371 17.4197 11.9861 17.3912 11.8861C17.3627 11.7861 17.3102 11.6182 17.2746 11.5131C17.239 11.408 17.1815 11.2506 17.1467 11.1634C17.112 11.0762 17.0575 10.9462 17.0256 10.8744C16.9937 10.8026 16.9289 10.6662 16.8814 10.5713C16.834 10.4765 16.7637 10.3422 16.7251 10.273C16.6865 10.2037 16.6201 10.0896 16.5774 10.0193C16.5348 9.94905 16.4491 9.81588 16.3869 9.72337C16.3247 9.63087 16.2243 9.48905 16.1638 9.40822C16.1032 9.3274 16.0109 9.20914 15.9587 9.14543C15.9064 9.08171 15.8192 8.97891 15.7648 8.91698C15.7104 8.85505 15.5668 8.70557 15.4456 8.5848C15.3244 8.46404 15.1571 8.30565 15.0737 8.23283C14.9903 8.16002 14.8621 8.05262 14.7887 7.99416C14.7153 7.93571 14.5924 7.84234 14.5156 7.78667C14.4387 7.73101 14.3109 7.64287 14.2315 7.59082C14.1521 7.53877 14.0389 7.46697 13.9799 7.43126C13.9209 7.39555 13.8159 7.33475 13.7467 7.29614C13.6774 7.25754 13.5437 7.18749 13.4495 7.14048C13.3553 7.09347 13.2189 7.02852 13.1463 6.99615C13.0737 6.96377 12.9514 6.91193 12.8744 6.88094C12.7974 6.84995 12.6547 6.7966 12.5572 6.76238C12.4597 6.72817 12.3026 6.67734 12.208 6.64943C12.1134 6.62153 11.9602 6.57999 11.8675 6.55711C11.7748 6.53424 11.6142 6.49875 11.5107 6.47823C11.4072 6.45772 11.2351 6.42844 11.1282 6.41317C11.0214 6.39789 10.8731 6.37916 10.7987 6.37153C10.7243 6.36391 10.5815 6.35231 10.4815 6.34575C10.3814 6.3392 10.1757 6.33379 10.0244 6.33372C9.873 6.33366 9.66645 6.3388 9.56537 6.34514C9.46429 6.35148 9.31735 6.36319 9.23885 6.37117C9.16035 6.37914 9.02452 6.39587 8.93702 6.40835C8.84951 6.42082 8.70677 6.44399 8.61983 6.45983C8.53288 6.47568 8.38828 6.50548 8.29848 6.52606C8.20869 6.54665 8.06596 6.58239 7.9813 6.6055C7.89663 6.62861 7.7497 6.67276 7.65478 6.70361C7.55986 6.73446 7.40872 6.78698 7.31893 6.82032C7.22914 6.85365 7.08244 6.91224 6.99293 6.95052C6.90343 6.98879 6.7418 7.06347 6.63376 7.11647C6.52573 7.16947 6.36807 7.25159 6.28341 7.29897C6.19875 7.34634 6.06861 7.42277 5.99421 7.46882C5.91981 7.51486 5.79386 7.59671 5.71433 7.65071C5.6348 7.7047 5.51516 7.78962 5.44846 7.8394C5.38175 7.88919 5.281 7.96692 5.22456 8.01214C5.16812 8.05737 5.06111 8.14712 4.98676 8.2116C4.91242 8.27608 4.7743 8.40436 4.67983 8.49668C4.58537 8.58899 4.45393 8.72284 4.38775 8.79412C4.32157 8.8654 4.21784 8.98289 4.15724 9.0552C4.09663 9.12751 4.00951 9.23493 3.96363 9.2939C3.91775 9.35288 3.83788 9.45988 3.78615 9.53167C3.73442 9.60347 3.65238 9.72305 3.60384 9.79742C3.5553 9.87178 3.48285 9.98716 3.44285 10.0538C3.40284 10.1205 3.32899 10.2506 3.27872 10.3429C3.22845 10.4352 3.15071 10.5873 3.10597 10.6809C3.05439 10.7888 3.01953 10.8511 3.01075 10.8511C2.99937 10.8511 2.99786 10.8406 3.00234 10.7928C3.00534 10.7607 3.02086 10.6569 3.03684 10.562C3.05281 10.4671 3.08034 10.3182 3.098 10.231C3.11567 10.1438 3.14882 9.99387 3.17167 9.89779C3.19451 9.80171 3.23641 9.64204 3.26477 9.54297C3.29314 9.4439 3.35031 9.26236 3.39183 9.13956C3.43335 9.01675 3.49913 8.83445 3.53802 8.73445C3.5769 8.63444 3.64319 8.475 3.68533 8.38012C3.72747 8.28525 3.8002 8.13 3.84695 8.03512C3.8937 7.94025 3.96812 7.79568 4.01232 7.71387C4.05653 7.63205 4.14328 7.481 4.2051 7.37819C4.26693 7.27539 4.36258 7.12372 4.41766 7.04116C4.47275 6.9586 4.55664 6.83692 4.60408 6.77076C4.65153 6.7046 4.73608 6.59122 4.79196 6.51882C4.84784 6.44641 4.94191 6.32914 5.00101 6.25822C5.06011 6.1873 5.17296 6.05772 5.25179 5.97027C5.33062 5.88283 5.48898 5.7187 5.6037 5.60554C5.71843 5.49239 5.87946 5.34055 5.96155 5.26812C6.04365 5.1957 6.16539 5.09176 6.2321 5.03716C6.2988 4.98255 6.41845 4.8886 6.49798 4.82838C6.57751 4.76816 6.70555 4.67451 6.78251 4.62028C6.85948 4.56605 6.98752 4.48001 7.06705 4.42908C7.14658 4.37815 7.28041 4.29573 7.36445 4.24593C7.44849 4.19613 7.58283 4.12005 7.66298 4.07687C7.74313 4.03369 7.90317 3.95238 8.01861 3.89619C8.13406 3.84 8.30198 3.76275 8.39177 3.72452C8.48157 3.68629 8.6269 3.62748 8.71474 3.59382C8.80258 3.56016 8.96211 3.50311 9.06924 3.46702C9.17638 3.43094 9.33751 3.38012 9.4273 3.3541C9.51709 3.32807 9.66612 3.28799 9.75848 3.26503C9.85084 3.24207 10.0083 3.20669 10.1083 3.1864C10.2084 3.16612 10.3658 3.13689 10.4582 3.12146C10.5505 3.10602 10.7079 3.08307 10.808 3.07045C10.9081 3.05784 11.0634 3.04109 11.1532 3.03325C11.243 3.0254 11.3914 3.01471 11.4831 3.00949C11.5747 3.00427 11.7894 3 11.9601 3C12.1309 3 12.3456 3.00427 12.4372 3.00949C12.5289 3.01471 12.6773 3.02532 12.7671 3.03306C12.8569 3.04079 13.0122 3.05757 13.1123 3.07034C13.2123 3.08312 13.3698 3.10615 13.4621 3.12154C13.5545 3.13693 13.7132 3.16636 13.8148 3.18695C13.9165 3.20753 14.0825 3.24514 14.1838 3.27052C14.2851 3.29591 14.4527 3.34205 14.5563 3.37307C14.6599 3.40408 14.8129 3.45288 14.8964 3.48151C14.9798 3.51013 15.1194 3.56088 15.2067 3.59428C15.2939 3.62769 15.4387 3.68631 15.5285 3.72456C15.6183 3.76281 15.7988 3.8464 15.9297 3.91032C16.0605 3.97424 16.2326 4.06258 16.3121 4.10664C16.3917 4.1507 16.5302 4.23079 16.62 4.28463C16.7098 4.33846 16.8483 4.42541 16.9279 4.47784C17.0074 4.53028 17.1347 4.61772 17.2107 4.67217C17.2867 4.72661 17.4097 4.81798 17.4839 4.87521C17.5581 4.93244 17.6827 5.03266 17.7608 5.09794C17.8389 5.16321 17.9762 5.28374 18.066 5.36578C18.1558 5.44783 18.3134 5.60051 18.4162 5.70507C18.519 5.80964 18.6626 5.96233 18.7352 6.04438C18.8078 6.12644 18.9118 6.24812 18.9663 6.31479C19.0208 6.38146 19.1149 6.50104 19.1753 6.58053C19.2357 6.66002 19.3299 6.78892 19.3848 6.86698C19.4396 6.94504 19.5228 7.06882 19.5697 7.14205C19.6165 7.21528 19.6913 7.33603 19.7358 7.41039C19.7803 7.48476 19.8598 7.62449 19.9125 7.72092C19.9652 7.81735 20.0473 7.97679 20.095 8.07524C20.1428 8.17369 20.2174 8.33606 20.2609 8.43607C20.3044 8.53607 20.3682 8.69132 20.4027 8.78107C20.4371 8.87081 20.4964 9.03655 20.5343 9.14938C20.5722 9.2622 20.6266 9.43633 20.6553 9.53634C20.6839 9.63634 20.7238 9.7847 20.7439 9.86602C20.764 9.94734 20.7951 10.0858 20.8131 10.1737C20.831 10.2616 20.8559 10.3923 20.8684 10.4641C20.8809 10.5359 20.902 10.6702 20.9153 10.7625C20.9287 10.8548 20.9478 11.0079 20.958 11.1028C20.9681 11.1977 20.9817 11.3634 20.9882 11.4711C20.9947 11.5788 21 11.8369 21 12.0446C21 12.2523 20.9947 12.5103 20.9883 12.618C20.9819 12.7257 20.9661 12.9061 20.9532 13.019C20.9403 13.1318 20.9193 13.295 20.9066 13.3816C20.8939 13.4683 20.8707 13.6089 20.855 13.694C20.8394 13.7792 20.812 13.916 20.7941 13.998C20.7762 14.0801 20.741 14.2269 20.7158 14.3244C20.6906 14.4218 20.6491 14.5708 20.6234 14.6554C20.5978 14.74 20.5446 14.9036 20.5051 15.0189C20.4657 15.1343 20.3989 15.3147 20.3567 15.4199C20.3144 15.5251 20.2447 15.6887 20.2017 15.7836C20.1588 15.8785 20.0845 16.0335 20.0367 16.128C19.9888 16.2226 19.9157 16.361 19.8741 16.4357C19.8326 16.5104 19.7607 16.6345 19.7144 16.7114C19.668 16.7883 19.5904 16.9121 19.5419 16.9865C19.4934 17.0608 19.4136 17.1783 19.3646 17.2475C19.3155 17.3168 19.2262 17.4384 19.1659 17.5179C19.1057 17.5974 19.0168 17.7107 18.9685 17.7697C18.9201 17.8287 18.819 17.947 18.7437 18.0327C18.6684 18.1183 18.5366 18.2606 18.4507 18.3489C18.3648 18.4372 18.2295 18.5701 18.15 18.6442C18.0704 18.7184 17.9475 18.829 17.8768 18.89C17.8061 18.951 17.6781 19.0569 17.5923 19.1253C17.5065 19.1936 17.3656 19.3009 17.2791 19.3637C17.1927 19.4264 17.0458 19.5281 16.9526 19.5897C16.8595 19.6513 16.7062 19.7477 16.6121 19.804C16.5179 19.8602 16.3542 19.9531 16.2482 20.0102C16.1423 20.0674 15.9681 20.1554 15.8612 20.2059C15.7543 20.2563 15.5947 20.3282 15.5067 20.3657C15.4186 20.4031 15.271 20.4622 15.1787 20.497C15.0863 20.5318 14.931 20.5867 14.8335 20.6191C14.736 20.6515 14.5912 20.6969 14.5116 20.72C14.4321 20.7431 14.2936 20.7808 14.2038 20.8037C14.114 20.8267 13.9503 20.8644 13.8399 20.8875C13.7296 20.9107 13.5491 20.9442 13.4388 20.962C13.3285 20.9798 13.2204 20.9964 13.1986 20.9989ZM9.98704 20.2854C9.90238 20.2844 9.80583 20.2825 9.77248 20.281C9.73912 20.2795 9.64887 20.2738 9.5719 20.2682C9.49494 20.2627 9.37739 20.252 9.31069 20.2445C9.24398 20.237 9.12014 20.2202 9.03548 20.2071C8.95082 20.194 8.82068 20.1708 8.74628 20.1554C8.67188 20.1401 8.54509 20.111 8.46453 20.0909C8.38397 20.0707 8.24876 20.0332 8.16406 20.0075C8.07936 19.9818 7.93706 19.934 7.84784 19.9011C7.75861 19.8682 7.62371 19.8152 7.54805 19.7833C7.47239 19.7514 7.3272 19.6842 7.2254 19.634C7.12359 19.5837 6.97695 19.5066 6.89953 19.4626C6.8221 19.4186 6.69903 19.3445 6.62603 19.298C6.55304 19.2515 6.43114 19.1689 6.35515 19.1146C6.27917 19.0602 6.1589 18.9693 6.0879 18.9125C6.01689 18.8558 5.90904 18.7658 5.84823 18.7127C5.78741 18.6595 5.6495 18.5273 5.54175 18.4189C5.434 18.3105 5.29966 18.1679 5.24322 18.102C5.18678 18.036 5.0936 17.9218 5.03615 17.848C4.9787 17.7742 4.88989 17.6541 4.83878 17.5809C4.78768 17.5078 4.71424 17.3972 4.6756 17.335C4.63695 17.2729 4.57304 17.1659 4.53358 17.0973C4.49412 17.0286 4.43093 16.9116 4.39314 16.8373C4.35536 16.7629 4.29877 16.6454 4.26739 16.5762C4.23602 16.5069 4.18542 16.3874 4.15496 16.3104C4.12449 16.2335 4.0785 16.1097 4.05275 16.0354C4.027 15.961 3.987 15.8351 3.96387 15.7556C3.94074 15.6762 3.90775 15.5524 3.89055 15.4806C3.87335 15.4088 3.84655 15.285 3.831 15.2055C3.81545 15.126 3.79216 14.9876 3.77923 14.8978C3.76631 14.8081 3.74949 14.6717 3.74185 14.5947C3.73421 14.5177 3.72316 14.3489 3.71728 14.2194C3.70926 14.0426 3.70926 13.9254 3.71728 13.7487C3.72316 13.6192 3.73421 13.4503 3.74185 13.3734C3.74949 13.2964 3.7663 13.16 3.77921 13.0702C3.79212 12.9805 3.81723 12.8332 3.835 12.743C3.85278 12.6527 3.88594 12.5057 3.90869 12.4163C3.93143 12.3269 3.96954 12.1909 3.99335 12.1142C4.01717 12.0374 4.05795 11.9159 4.08396 11.8441C4.10998 11.7723 4.15742 11.6506 4.18939 11.5736C4.22137 11.4966 4.27519 11.3745 4.30901 11.3021C4.34283 11.2298 4.40271 11.1102 4.44209 11.0365C4.48146 10.9627 4.55266 10.837 4.60031 10.7571C4.64796 10.6772 4.72666 10.5527 4.7752 10.4804C4.82373 10.4082 4.9068 10.291 4.9598 10.2201C5.01279 10.1492 5.10707 10.0303 5.16931 9.95593C5.23155 9.88157 5.33699 9.76198 5.40361 9.69019C5.47024 9.61839 5.57634 9.51002 5.63939 9.44938C5.70244 9.38873 5.80384 9.29542 5.86472 9.24202C5.92559 9.18862 6.02686 9.10391 6.08975 9.05377C6.15265 9.00363 6.25869 8.92303 6.32539 8.87466C6.39209 8.82629 6.49914 8.75253 6.56328 8.71074C6.62742 8.66895 6.73867 8.59983 6.8105 8.55713C6.88233 8.51443 7.01457 8.44155 7.10436 8.39517C7.19416 8.34879 7.3264 8.284 7.39823 8.2512C7.47006 8.21839 7.58341 8.16952 7.65011 8.14259C7.71682 8.11566 7.82387 8.07475 7.88801 8.05169C7.95214 8.02862 8.06776 7.99041 8.14494 7.96678C8.22211 7.94314 8.35855 7.905 8.44813 7.88201C8.53771 7.85903 8.68447 7.8255 8.77427 7.80751C8.86406 7.78952 9.00889 7.76439 9.09612 7.75167C9.18335 7.73895 9.31978 7.72208 9.39931 7.71419C9.47884 7.7063 9.63417 7.69504 9.74449 7.68917C9.8548 7.68331 10.0053 7.6807 10.0789 7.68338C10.1526 7.68606 10.2166 7.69209 10.2213 7.69679C10.2265 7.70196 10.1793 7.73268 10.1017 7.77465C10.0312 7.81278 9.91721 7.8786 9.84835 7.92093C9.77949 7.96326 9.67232 8.03415 9.61021 8.07847C9.54809 8.12279 9.44899 8.19776 9.38998 8.24506C9.33098 8.29237 9.22813 8.38122 9.16142 8.4425C9.09472 8.50379 8.99543 8.60189 8.94078 8.66051C8.88613 8.71912 8.80426 8.81122 8.75886 8.86518C8.71346 8.91914 8.6347 9.01944 8.58384 9.08807C8.53298 9.15671 8.45897 9.26362 8.41938 9.32565C8.3798 9.38768 8.32561 9.47619 8.29898 9.52235C8.27234 9.5685 8.21813 9.6713 8.17851 9.75079C8.13888 9.83028 8.08436 9.94777 8.05733 10.0119C8.03031 10.076 7.98327 10.2012 7.9528 10.2901C7.92233 10.3791 7.88077 10.5133 7.86044 10.5885C7.84012 10.6637 7.81101 10.786 7.79576 10.8604C7.78051 10.9347 7.76121 11.0417 7.75287 11.0982C7.74453 11.1546 7.7317 11.2595 7.72436 11.3313C7.71701 11.4031 7.70821 11.5479 7.7048 11.653C7.70096 11.7714 7.70289 11.9117 7.70985 12.0213C7.71604 12.1187 7.72912 12.2614 7.73892 12.3383C7.74872 12.4152 7.76721 12.5348 7.78002 12.6041C7.79283 12.6733 7.82055 12.7986 7.84163 12.8826C7.86271 12.9665 7.89902 13.0944 7.92232 13.1669C7.94563 13.2394 7.98684 13.3553 8.01391 13.4246C8.04098 13.4938 8.08916 13.6071 8.12098 13.6763C8.1528 13.7456 8.20844 13.8567 8.24463 13.9232C8.28082 13.9898 8.33706 14.0877 8.3696 14.1408C8.40215 14.1939 8.45679 14.278 8.49103 14.3275C8.52527 14.3771 8.59003 14.4659 8.63494 14.5248C8.67985 14.5838 8.75854 14.6803 8.8098 14.7393C8.86106 14.7983 8.96744 14.9104 9.0462 14.9885C9.12497 15.0666 9.23139 15.1665 9.2827 15.2105C9.33401 15.2544 9.42427 15.3274 9.48327 15.3725C9.54228 15.4177 9.63884 15.4872 9.69784 15.5269C9.75685 15.5666 9.8576 15.6305 9.92174 15.6689C9.98588 15.7073 10.1202 15.7792 10.2203 15.8288C10.3203 15.8784 10.4589 15.9415 10.5281 15.9691C10.5974 15.9966 10.7086 16.0376 10.7753 16.0601C10.8421 16.0826 10.9491 16.1156 11.0132 16.1332C11.0774 16.1509 11.1865 16.1778 11.2558 16.1929C11.3251 16.2081 11.4342 16.2291 11.4984 16.2398C11.5625 16.2504 11.6695 16.2656 11.7362 16.2735C11.8029 16.2815 11.9751 16.2905 12.1187 16.2937C12.2866 16.2974 12.4383 16.2955 12.5432 16.2883C12.633 16.2821 12.7673 16.2686 12.8417 16.2582C12.9161 16.2479 13.04 16.2271 13.1169 16.212C13.1939 16.1969 13.3199 16.168 13.3968 16.1478C13.4738 16.1275 13.6 16.0898 13.6773 16.064C13.7545 16.0382 13.8805 15.9915 13.9571 15.9603C14.0338 15.929 14.1595 15.8725 14.2364 15.8348C14.3134 15.797 14.4288 15.7359 14.493 15.6991C14.5571 15.6622 14.6663 15.5943 14.7355 15.5482C14.8048 15.5022 14.9081 15.4293 14.9651 15.3863C15.022 15.3434 15.1165 15.2676 15.175 15.218C15.2334 15.1684 15.3488 15.0603 15.4313 14.9778C15.5139 14.8954 15.6224 14.7796 15.6727 14.7206C15.7229 14.6617 15.8049 14.5589 15.855 14.4922C15.9052 14.4255 15.9828 14.3149 16.0276 14.2464C16.0724 14.1778 16.1533 14.0422 16.2072 13.9451C16.2729 13.8268 16.3085 13.7715 16.3147 13.7778C16.3206 13.7836 16.3237 13.8849 16.323 14.0494C16.3225 14.1972 16.3156 14.3878 16.3074 14.4859C16.2993 14.5817 16.2842 14.7272 16.2738 14.8092C16.2633 14.8913 16.2429 15.0235 16.2283 15.1029C16.2137 15.1824 16.1886 15.3071 16.1726 15.3801C16.1565 15.453 16.1247 15.5803 16.1018 15.6628C16.079 15.7454 16.0387 15.8787 16.0123 15.9591C15.986 16.0395 15.9445 16.1578 15.9202 16.2219C15.8958 16.286 15.8506 16.3972 15.8197 16.469C15.7888 16.5407 15.7365 16.6561 15.7034 16.7254C15.6704 16.7946 15.6065 16.9183 15.5614 17.0002C15.5162 17.0821 15.4459 17.2038 15.4049 17.2706C15.364 17.3374 15.2904 17.4508 15.2414 17.5226C15.1924 17.5944 15.1158 17.7014 15.0713 17.7604C15.0267 17.8193 14.9525 17.9138 14.9063 17.9702C14.8602 18.0266 14.7852 18.1147 14.7397 18.166C14.6943 18.2173 14.5981 18.3195 14.5261 18.3932C14.454 18.4669 14.3363 18.5806 14.2644 18.6458C14.1926 18.711 14.0844 18.8048 14.024 18.8543C13.9637 18.9037 13.865 18.9813 13.8048 19.0267C13.7446 19.0721 13.6429 19.145 13.5787 19.1888C13.5146 19.2326 13.4117 19.2998 13.3502 19.338C13.2886 19.3763 13.1815 19.4393 13.1123 19.4781C13.043 19.517 12.9171 19.5833 12.8324 19.6256C12.7477 19.6678 12.626 19.7254 12.5619 19.7535C12.4977 19.7816 12.397 19.8234 12.338 19.8464C12.279 19.8694 12.1726 19.9087 12.1016 19.9338C12.0307 19.9589 11.9089 19.9982 11.8311 20.0211C11.7533 20.044 11.6208 20.0796 11.5368 20.1003C11.4527 20.121 11.3205 20.1503 11.2429 20.1654C11.1653 20.1805 11.0305 20.2034 10.9433 20.2162C10.856 20.229 10.7196 20.246 10.6401 20.254C10.5605 20.2619 10.4157 20.2726 10.3182 20.2778C10.2207 20.2829 10.0717 20.2864 9.98704 20.2854Z" fill="white"/>
</svg>
