<svg width="24" height="24" viewBox="0 0 24 24" fill="none" xmlns="http://www.w3.org/2000/svg">
<path d="M12 22C17.5228 22 22 17.5228 22 12C22 6.47715 17.5228 2 12 2C6.47715 2 2 6.47715 2 12C2 17.5228 6.47715 22 12 22Z" fill="white"/>
<path d="M11.25 7.70875L15.4704 15.0388H14.5954L13.6092 13.3254C13.0764 13.1664 12.5231 13.0867 11.9671 13.0892C11.6475 13.089 11.3285 13.1156 11.0133 13.1688L11.4875 12.3454C11.6475 12.3346 11.8079 12.3296 11.9671 12.3296C12.3414 12.3299 12.715 12.3599 13.0846 12.4192L11.2446 9.21833L8.17875 14.5429L7.74042 13.7821L11.2375 7.70833L11.2446 7.72083L11.25 7.70875ZM12.1458 13.6138C12.0921 13.6138 12.0379 13.6117 11.9837 13.6117C11.3171 13.6117 10.6088 13.695 10.0104 13.8746L11.6879 10.9604L11.25 10.1992L8.46375 15.0383H9.33875L9.35583 15.0092L9.34333 15.0312C10.1545 14.5948 11.0618 14.3681 11.9829 14.3717C12.6144 14.3732 13.2406 14.4861 13.8329 14.705L13.2729 13.7325C12.901 13.6629 12.5241 13.6232 12.1458 13.6138ZM20 12C20 16.4167 16.4167 20 12 20C7.58333 20 4 16.4167 4 12C4 7.58333 7.58333 4 12 4C16.4167 4 20 7.58208 20 12ZM19.2817 12C19.2817 10.0772 18.5178 8.23312 17.1582 6.87348C15.7986 5.51384 13.9545 4.75 12.0317 4.75C10.1088 4.75 8.26478 5.51384 6.90514 6.87348C5.5455 8.23312 4.78167 10.0772 4.78167 12C4.78167 13.9228 5.5455 15.7669 6.90514 17.1265C8.26478 18.4862 10.1088 19.25 12.0317 19.25C13.9544 19.25 15.7984 18.4862 17.158 17.1267C18.5177 15.7671 19.2816 13.9232 19.2817 12.0004V12ZM18.6938 12C18.6938 12.8791 18.5207 13.7495 18.1843 14.5617C17.848 15.3739 17.3549 16.1118 16.7333 16.7335C16.1118 17.3551 15.3738 17.8482 14.5617 18.1846C13.7495 18.521 12.8791 18.6942 12 18.6942C11.1209 18.6942 10.2505 18.521 9.43832 18.1846C8.62617 17.8482 7.88823 17.3551 7.26666 16.7335C6.64508 16.1118 6.15203 15.3739 5.81566 14.5617C5.47929 13.7495 5.30619 12.8791 5.30625 12C5.30625 11.121 5.47939 10.2505 5.81578 9.43841C6.15217 8.62629 6.64523 7.88838 7.2668 7.26681C8.52213 6.01148 10.2247 5.30625 12 5.30625C12.879 5.30625 13.7495 5.47939 14.5616 5.81578C15.3737 6.15217 16.1116 6.64523 16.7332 7.26681C17.3548 7.88838 17.8478 8.62629 18.1842 9.43841C18.5206 10.2505 18.6938 11.121 18.6938 12ZM17.9104 11.9842C17.9105 11.2101 17.7582 10.4436 17.462 9.72841C17.1659 9.01323 16.7318 8.36338 16.1845 7.81597C15.6372 7.26856 14.9875 6.83432 14.2723 6.53803C13.5572 6.24175 12.7907 6.08922 12.0167 6.08917C11.2426 6.08917 10.476 6.24165 9.76087 6.53791C9.04571 6.83418 8.3959 7.26841 7.84857 7.81582C7.30123 8.36324 6.86709 9.0131 6.57093 9.72831C6.27477 10.4435 6.12239 11.2101 6.1225 11.9842C6.1225 12.7582 6.27496 13.5246 6.57117 14.2397C6.86739 14.9548 7.30156 15.6045 7.84889 16.1518C8.39622 16.6991 9.04599 17.1332 9.7611 17.4294C10.4762 17.7256 11.2427 17.878 12.0167 17.8779C12.7907 17.878 13.5572 17.7257 14.2724 17.4295C14.9875 17.1334 15.6373 16.6993 16.1847 16.152C16.7321 15.6047 17.1663 14.9549 17.4625 14.2398C17.7588 13.5247 17.9113 12.7582 17.9113 11.9842H17.9104ZM11.6571 7.45917L15.7446 14.5558L16.1825 13.795L12.5346 7.45917H11.6571Z" fill="url(#paint0_linear_6919_11881)"/>
<defs>
<linearGradient id="paint0_linear_6919_11881" x1="5.5" y1="5" x2="18.5" y2="20" gradientUnits="userSpaceOnUse">
<stop stop-color="#E95749"/>
<stop offset="1" stop-color="#8567C5"/>
</linearGradient>
</defs>
</svg>
