<svg width="24" height="24" viewBox="0 0 24 24" fill="none" xmlns="http://www.w3.org/2000/svg">
<path d="M12 22C17.5228 22 22 17.5228 22 12C22 6.47715 17.5228 2 12 2C6.47715 2 2 6.47715 2 12C2 17.5228 6.47715 22 12 22Z" fill="white"/>
<path d="M15.6952 9.63508C15.6549 9.74149 13.3519 8.56184 11.9164 9.5759C11.0737 10.2717 10.7715 11.4168 11.0737 12.4233C11.2371 12.9669 11.3163 13.1894 11.5845 13.5725C11.7811 13.8534 12.0569 14.1599 12.44 14.3769C12.5273 14.4414 13.7007 15.1482 15.1256 14.9805C17.3666 14.7169 19.1029 11.7744 19.1029 11.7744C19.1029 11.7744 18.6986 12.6445 18.6612 12.724C17.5789 15.0275 15.7805 15.6415 15.7805 15.6415C14.1819 16.1873 12.582 15.4886 12.4054 15.3998C11.2509 14.819 10.7527 14.2826 10.5975 13.9912C10.3445 13.516 9.71029 11.6592 10.3181 10.2717C10.7685 9.24361 11.7462 8.81325 11.8615 8.76491C13.7219 7.98435 15.7318 9.53839 15.6952 9.63508Z" fill="black"/>
<path d="M15.696 9.63515C15.6204 9.70557 15.0773 9.05037 14.2053 8.57719C13.956 8.44195 13.0049 7.95584 11.8433 7.98079C9.91758 8.02197 8.63786 9.44184 8.40966 9.70499C7.26907 11.0202 6.73205 13.0453 7.3736 14.6212C8.20735 16.6691 11.0897 18.1008 10.7953 17.8624L10.5401 17.7655C10.2456 17.6488 6.6327 16.0393 6.50328 12.7797C6.43031 10.943 7.01786 9.45551 7.3736 9.04945C7.99517 8.33997 8.49357 7.99842 8.91373 7.77282C9.758 7.31982 11.3458 6.93165 12.5242 7.10997C13.8464 7.31011 14.6763 8.23785 15.0811 8.69027C15.4462 9.0983 15.757 9.57824 15.696 9.63515Z" fill="black"/>
<path d="M11.8622 8.76514C11.5941 8.91175 11.355 9.10615 11.1565 9.33879C10.9916 9.53424 10.6972 9.94935 10.5517 10.8862C10.427 11.6891 10.2894 12.5747 10.7094 13.5341C11.3914 15.0915 12.9981 15.6043 13.3812 15.7265C14.3609 16.0275 15.4094 16.0179 16.3833 15.6989C17.5821 15.3109 18.4203 14.5087 18.494 14.6025C18.5396 14.6608 18.231 14.9856 18.0168 15.1841C17.3631 15.7777 16.5622 16.1843 15.698 16.3615C15.0889 16.4829 14.4634 16.498 13.8491 16.4062C13.3444 16.3321 11.8434 16.1132 10.6906 14.8331C10.3677 14.4746 9.4572 13.4637 9.52836 12.0333C9.57972 11.0029 10.1145 10.2749 10.296 10.0345C10.7118 9.49444 11.2483 9.05967 11.8622 8.76514Z" fill="black"/>
<path d="M15.696 9.63518C15.7854 9.59531 15.583 8.48209 14.7943 7.5546C14.4763 7.1798 14.0934 6.86561 13.664 6.62711C11.889 5.66065 9.82643 6.48635 9.354 6.67562C8.87007 6.86942 7.82447 7.30421 6.9576 8.39075C5.98046 9.61566 5.83575 10.9298 5.78011 11.505C5.54238 13.9612 6.78676 15.8988 6.90419 15.8611C6.99409 15.8323 6.38015 14.6169 6.50334 12.7797C6.55026 12.0803 6.65125 10.8218 7.53406 9.59227C8.06883 8.86713 8.76899 8.28082 9.57604 7.88232C10.043 7.65055 11.6279 6.86389 13.3012 7.45715C13.8111 7.64161 14.2805 7.92316 14.6836 8.2863C15.412 8.95518 15.623 9.66788 15.696 9.63518Z" fill="black"/>
<path d="M12.7059 16.3968C12.664 16.4685 10.2793 15.8271 9.19171 13.7817C9.02802 13.4739 8.17143 11.85 8.66735 10.573C8.87476 10.0389 9.28309 9.44093 9.44802 9.2552C9.71443 8.95524 10.2987 8.88539 10.8726 8.64102C11.1305 8.5338 11.4193 8.50971 11.696 8.47275C11.9703 8.43882 12.2134 8.4461 12.4885 8.47275C12.8623 8.49746 14.4008 8.96976 13.8837 8.88811C13.3985 8.8115 12.3088 8.54564 11.696 8.88811C11.64 8.91941 11.5768 8.95927 11.5428 8.98077C11.0478 9.29201 10.6176 9.69629 10.2758 10.1713C10.1569 10.3402 9.65025 11.0792 9.61015 12.0337C9.56043 13.228 10.2136 14.0993 10.5991 14.6137C11.5724 15.9111 12.7362 16.3455 12.7059 16.3968Z" fill="black"/>
<path d="M11.5465 7.9288C12.0487 7.85607 12.4786 7.83099 12.9766 7.9288C13.5481 8.0441 13.8642 8.16295 14.2535 8.36293C14.9183 8.70449 15.7597 9.58031 15.6956 9.71177C15.5815 9.94609 12.8459 7.9052 10.6675 8.84077C9.4944 9.34459 8.69779 10.8326 8.58677 11.0575C8.31912 11.5535 8.30314 11.968 8.27878 12.5314C8.26046 13.2004 8.44782 13.7292 8.61874 14.2116C8.8619 14.8981 9.2533 15.6303 9.24475 15.6344C9.24434 15.6344 9.24294 15.6325 9.24253 15.6321C7.96734 13.7653 7.83126 12.885 7.83126 12.885C7.77373 12.5132 7.52811 10.9247 8.58677 9.58377C9.55192 8.36134 11.1721 7.98357 11.5465 7.9288Z" fill="black"/>
</svg>
