<svg width="24" height="24" viewBox="0 0 24 24" fill="none" xmlns="http://www.w3.org/2000/svg">
<path d="M12 22C17.5228 22 22 17.5228 22 12C22 6.47715 17.5228 2 12 2C6.47715 2 2 6.47715 2 12C2 17.5228 6.47715 22 12 22Z" fill="white"/>
<path d="M11.2802 10.8531L9.79602 12.2477C9.67104 12.3664 9.42108 12.3664 9.2961 12.2477L8.79618 11.7878L7.56201 17.5H4.5C4.5 17.5 6.34345 7.55927 6.59341 7.01031C6.84337 6.46134 8.07755 6.31297 8.56185 6.89161C8.81181 7.18835 9.45233 8.00438 10.0616 8.76106C10.6553 9.51775 11.2177 10.2151 11.2802 10.2744C11.3895 10.3931 11.3895 10.7344 11.2802 10.8531V10.8531ZM12.4675 11.5356C12.28 11.3575 11.9675 11.3575 11.7645 11.5356L10.5147 12.7225C10.3272 12.9006 10.3272 13.1973 10.5147 13.3753L11.7645 14.5623C11.9519 14.7403 12.2644 14.7403 12.4675 14.5623L13.7173 13.3753C13.9047 13.1973 13.9047 12.9006 13.7173 12.7225L12.4675 11.5356ZM18.9039 14.4733C18.9039 14.2359 17.7947 8.18242 17.5448 7.2477C17.2948 6.31297 16.0138 6.37232 15.5763 6.78776C15.2951 7.05482 14.2797 8.40498 13.5767 9.35454C13.2017 9.85899 12.9049 10.2448 12.8737 10.2893C12.7487 10.408 12.7487 10.7492 12.8737 10.8679L14.2328 12.1439C14.3578 12.2626 14.6078 12.2626 14.8421 12.1439C15.092 12.0252 15.342 11.7878 15.342 11.7878L15.9513 15.1706H18.1697C18.4196 15.1706 18.9039 14.6958 18.9039 14.4733V14.4733ZM19.1695 15.7344C19.1539 15.6751 19.107 15.6454 19.0445 15.6454H16.2325C16.1544 15.6454 16.0919 15.7196 16.1075 15.7789L16.42 17.2923C16.4356 17.3516 16.4824 17.3813 16.5449 17.3813H19.3726C19.4507 17.3813 19.5132 17.3071 19.4976 17.2478L19.1695 15.7344V15.7344Z" fill="#D56A45"/>
</svg>
