<svg width="24" height="24" viewBox="0 0 24 24" fill="none" xmlns="http://www.w3.org/2000/svg">
<path fill-rule="evenodd" clip-rule="evenodd" d="M12 20C16.4183 20 20 16.4183 20 12C20 7.58172 16.4183 4 12 4C7.58172 4 4 7.58172 4 12C4 16.4183 7.58172 20 12 20ZM12 22C17.5228 22 22 17.5228 22 12C22 6.47715 17.5228 2 12 2C6.47715 2 2 6.47715 2 12C2 17.5228 6.47715 22 12 22Z" fill="#7CE2A0"/>
<path fill-rule="evenodd" clip-rule="evenodd" d="M13.0767 6.41568C12.7755 6.62661 12.7441 6.67879 11.0016 9.85407L9.79337 12.0559L11.2081 14.6974C12.8173 17.7018 13.0565 17.9692 14.0372 17.8616C15.2293 17.3416 17.8919 12.2252 17.8919 12.0466C17.8919 11.9942 17.3047 10.8443 16.587 9.49121C15.0946 6.6773 14.7193 6.22363 13.8841 6.22363C13.5908 6.22363 13.2275 6.31009 13.0767 6.41568ZM7.42927 8.80127C7.15573 9.1132 6.88219 9.68388 6.39883 10.9505L5.97461 12.0618L6.41734 13.3337C7.10566 15.3111 7.36119 15.6537 8.02368 15.4875C8.34007 15.4081 8.90852 14.3505 9.45212 12.8296C9.72889 12.0554 9.70132 12.0559 9.70132 12.0559C9.31337 10.807 8.55622 8.83096 8.32231 8.70574C7.9797 8.52239 7.64206 8.55854 7.42927 8.80127Z" fill="#7CE2A0"/>
</svg>
