<svg width="24" height="24" viewBox="0 0 24 24" fill="none" xmlns="http://www.w3.org/2000/svg">
<path fill-rule="evenodd" clip-rule="evenodd" d="M12 2C17.5228 2 22 6.47715 22 12C22 17.5228 17.5228 22 12 22C6.47715 22 2 17.5228 2 12C2 6.47715 6.47715 2 12 2ZM13.6214 11.2879L12 9.65601L10.3786 11.2879L12 12.9051L13.6214 11.2879ZM14.9388 16.1542H17.5445L18.5 18.5H15.6626L14.9388 16.1542ZM9.36526 15.8046H16.2996C16.8497 15.8046 17.3274 15.2072 17.0379 14.2164C16.5601 12.5846 15.6336 10.2097 14.8808 8.28643C14.4755 7.23739 14.1281 6.33405 13.9254 5.75125C13.3463 4.10484 10.7116 4.06113 10.1036 5.75125C9.49555 7.44137 5.5 18.4854 5.5 18.4854H8.52561L9.36526 15.8046ZM12 8.5924C13.4332 8.5924 14.6058 9.758 14.6058 11.215C14.6058 12.672 13.4332 13.8376 12 13.8376C10.5668 13.8376 9.39421 12.672 9.39421 11.215C9.39421 9.77257 10.5668 8.5924 12 8.5924Z" fill="white"/>
</svg>
