<svg width="24" height="24" viewBox="0 0 24 24" fill="none" xmlns="http://www.w3.org/2000/svg">
<path d="M12 22C17.5228 22 22 17.5228 22 12C22 6.47715 17.5228 2 12 2C6.47715 2 2 6.47715 2 12C2 17.5228 6.47715 22 12 22Z" fill="#423F47"/>
<path d="M6 18.8991C8.16066 19.4101 10.2005 17.9297 10.556 15.5924L12 6.10088C9.83935 5.58987 7.79954 7.07034 7.44396 9.40761L6 18.8991Z" fill="url(#paint0_linear_6890_20404)"/>
<path d="M12 15.868C14.3524 16.4647 16.5759 14.9821 16.9662 12.5566L18 6.13198C15.6476 5.53534 13.4241 7.0179 13.0338 9.44339L12 15.868Z" fill="url(#paint1_linear_6890_20404)"/>
<path d="M12.0324 7L13.0405 9.8307L13.062 9.89104L13.1276 9.91562L16 10.9918L13.1276 12.068L13.0627 12.0923L13.0409 12.1519L12 15L10.9591 12.1519L10.9373 12.0923L10.8724 12.068L8 10.9918L10.8724 9.91562L10.9364 9.89162L10.9586 9.83312L12.0324 7Z" fill="#421EA9" stroke="#421EA9"/>
<defs>
<linearGradient id="paint0_linear_6890_20404" x1="9" y1="6" x2="9" y2="19" gradientUnits="userSpaceOnUse">
<stop stop-color="#FB9C9F"/>
<stop offset="1" stop-color="#B45DD6"/>
</linearGradient>
<linearGradient id="paint1_linear_6890_20404" x1="15" y1="6" x2="15" y2="16" gradientUnits="userSpaceOnUse">
<stop stop-color="#FB9C9F"/>
<stop offset="1" stop-color="#B45DD6"/>
</linearGradient>
</defs>
</svg>
