<svg width="24" height="24" viewBox="0 0 24 24" fill="none" xmlns="http://www.w3.org/2000/svg">
<path d="M13 23C18.5228 23 23 18.5228 23 13C23 7.47715 18.5228 3 13 3C7.47715 3 3 7.47715 3 13C3 18.5228 7.47715 23 13 23Z" fill="#181818"/>
<path d="M20.9797 12.4587C20.6802 8.04938 16.8642 4.7192 12.4569 5.01872C10.2614 5.16835 8.33343 6.19119 6.98782 7.72346L6.98382 7.72079C6.97422 7.73306 6.96595 7.74533 6.95769 7.7576C5.62141 9.29947 4.86941 11.3481 5.01874 13.5445C5.03261 13.7541 5.05714 13.9595 5.08727 14.1632C5.08727 14.1731 5.08994 14.1811 5.09127 14.1907C5.11181 14.3249 5.13527 14.4593 5.16114 14.5908C5.18566 14.7123 5.21305 14.8333 5.24328 14.9535C6.16755 18.6384 9.61904 21.2482 13.5428 20.9812C17.95 20.6814 21.281 16.8651 20.9813 12.456L20.9797 12.4587ZM19.2383 12.5776C19.2754 13.1201 19.241 13.6514 19.1439 14.1635C19.1439 14.1608 19.1412 14.1582 19.1412 14.1552C18.5604 12.7379 17.4132 11.7138 16.4055 11.1481C16.6095 8.7463 15.7948 7.73306 14.8721 7.56876C14.6934 7.53517 14.5096 7.53849 14.3321 7.57851C14.1547 7.61853 13.9873 7.69441 13.8402 7.80149C13.6932 7.90857 13.5695 8.04459 13.4769 8.20119C13.3843 8.3578 13.3247 8.53168 13.3017 8.71216C13.2793 8.88627 13.2913 9.0631 13.3373 9.23252C13.3832 9.40195 13.4622 9.56065 13.5695 9.69954C13.6769 9.83842 13.8106 9.95476 13.9629 10.0419C14.1153 10.129 14.2834 10.1853 14.4575 10.2074C14.5217 10.2156 14.5847 10.2183 14.6463 10.217C14.6508 10.3027 14.6531 10.3885 14.6532 10.4743C13.8001 10.2636 13.0033 10.221 12.2764 10.2868C12.003 10.3048 11.731 10.3391 11.4617 10.3895C11.5524 9.57872 11.8575 8.66682 12.4476 8.00137C13.0183 7.35646 13.8673 6.98813 14.7927 7.08255C14.9681 7.10042 15.1556 7.14416 15.3239 7.20043C15.3321 7.2031 15.3404 7.20577 15.3473 7.2071C17.4914 8.08085 19.07 10.1169 19.237 12.5776H19.2383ZM13.662 13.7992C13.662 13.7992 13.662 13.8005 13.6607 13.8019C13.4584 14.0926 13.2292 14.3636 12.9761 14.6113C12.5928 14.2064 12.2683 13.7496 12.0121 13.2543C11.9999 13.2282 11.9863 13.2049 11.9737 13.1788V13.1761C11.8236 12.8552 11.7035 12.521 11.6151 12.1778C12.1831 12.0437 12.7404 11.9943 13.2732 12.0205L13.358 12.0245H13.3607C13.6948 12.0519 14.0425 12.1136 14.4025 12.2122C14.2354 12.7742 13.9863 13.3085 13.6633 13.7978L13.662 13.7992ZM10.9292 7.09908L10.9252 7.10442C9.98731 8.31503 9.67504 9.81982 9.68891 10.9755C7.50649 11.9997 7.03822 13.2116 7.35582 14.0934C7.36382 14.1182 7.37369 14.1414 7.38329 14.1648C7.52012 14.4918 7.78113 14.751 8.10896 14.8855C8.43678 15.02 8.80459 15.0189 9.13157 14.8823C9.45843 14.7454 9.71759 14.4844 9.8521 14.1565C9.98661 13.8286 9.98546 13.4608 9.84891 13.1337C9.82406 13.0757 9.79528 13.0193 9.76278 12.9652C9.83131 12.9198 9.90518 12.875 9.98464 12.8283C10.2281 13.6733 10.5884 14.3868 11.0087 14.9837C11.1607 15.2096 11.3249 15.4272 11.5041 15.6368C10.7566 15.9641 9.81478 16.1559 8.9425 15.9777C8.0993 15.8054 7.35582 15.2549 6.97395 14.4057C6.9008 14.2391 6.84573 14.0652 6.80969 13.8869C6.78717 13.7338 6.77027 13.5799 6.75902 13.4255C6.56435 10.5594 8.3417 8.00831 10.9292 7.09908ZM13.4236 19.2409C11.722 19.3572 10.131 18.7769 8.9289 17.7441C10.446 17.9511 11.9055 17.4689 12.8996 16.8789C14.8777 18.2578 16.162 18.0578 16.7671 17.3417C16.8856 17.2035 16.9747 17.0425 17.0288 16.8686C17.0829 16.6947 17.1008 16.5116 17.0816 16.3305C17.0624 16.1494 17.0064 15.9742 16.917 15.8156C16.8276 15.6569 16.7067 15.5182 16.5618 15.408C16.4222 15.3016 16.263 15.2237 16.0933 15.1788C15.9236 15.1339 15.7467 15.1229 15.5727 15.1465C15.3988 15.17 15.2312 15.2276 15.0795 15.3159C14.9278 15.4043 14.795 15.5217 14.6887 15.6614C14.6505 15.712 14.6161 15.767 14.586 15.8217C14.5135 15.7846 14.4367 15.7435 14.3588 15.6984C14.9162 15.1233 15.373 14.4586 15.71 13.732C15.8307 13.486 15.9367 13.2332 16.0276 12.9748C16.685 13.4597 17.3228 14.1785 17.605 15.0231C17.8775 15.8393 17.7732 16.7594 17.2284 17.5142C17.1208 17.6607 16.9978 17.7952 16.8615 17.9154L16.8562 17.9207C15.8716 18.6963 14.6757 19.1561 13.4252 19.2396L13.4236 19.2409Z" fill="url(#paint0_linear_6920_12094)"/>
<path style="mix-blend-mode:overlay" opacity="0.9" d="M14.8586 8.02237C14.7492 7.99442 14.6369 7.99265 14.527 8.01714C15.0853 8.42523 15.4916 9.56291 15.2781 11.8084C15.2074 12.5387 15.0478 13.2484 14.8059 13.9091C14.5974 14.5119 14.326 15.0717 14 15.5715C14.1546 15.7279 14.3163 15.871 14.4842 16C14.8908 15.436 15.2239 14.7841 15.4698 14.0715C15.7124 13.4112 15.8719 12.7014 15.942 11.9709C16.1968 9.29817 15.5717 8.19424 14.8588 8.02342V8.02237H14.8586Z" fill="url(#paint1_radial_6920_12094)"/>
<g style="mix-blend-mode:overlay" opacity="0.8">
<path d="M15.9166 11.5132C16.2244 9.4335 15.6391 8.37837 14.8354 8C14.8037 8.00364 14.7738 8.00994 14.7418 8.01624C15.5285 8.40819 16.0947 9.46089 15.7914 11.5132C15.6896 12.1899 15.4599 12.8475 15.1115 13.4596C14.8221 13.9985 14.4481 14.5001 14 14.9503C14.0258 14.9678 14.0504 14.984 14.0762 15C14.5452 14.5366 14.9359 14.0179 15.2364 13.4594C15.5857 12.8475 15.8156 12.1898 15.9166 11.513V11.5132Z" fill="white"/>
</g>
<path style="mix-blend-mode:overlay" opacity="0.5" d="M12.6263 16.2525C12.5511 16.1713 12.48 16.0856 12.4078 16C11.2363 16.7005 9.61301 17.1397 8 16.6026C8.26269 17.0848 8.55804 17.5286 8.88173 17.9275C10.4552 18.2351 11.9689 17.5183 13 16.6414C12.8733 16.5145 12.7482 16.3842 12.625 16.2505L12.6263 16.2525Z" fill="url(#paint2_radial_6920_12094)"/>
<path style="mix-blend-mode:overlay" opacity="0.6" d="M11.9998 16.132C11.9685 16.0879 11.936 16.0441 11.9059 16C10.8631 16.6964 9.42155 17.1141 8 16.5203C8.03519 16.5979 8.07038 16.6776 8.10533 16.7532C9.52957 17.307 10.9648 16.8542 12 16.132H11.9998Z" fill="url(#paint3_linear_6920_12094)"/>
<path style="mix-blend-mode:overlay" opacity="0.9" d="M7.09767 13.6248C7.10633 13.648 7.11701 13.6701 7.1274 13.6921C7.18226 13.806 7.25328 13.908 7.33932 14C7.31564 13.1772 8.10122 12.1718 10.4045 11.3309C11.155 11.0585 11.9517 10.8959 12.7627 10.8496C13.4939 10.7927 14.2307 10.8276 14.9506 10.9532C14.9878 10.6815 15.0025 10.428 14.9996 10.204C14.1589 10.0193 13.2885 9.95938 12.4249 10.0269C11.6138 10.0732 10.817 10.2358 10.0665 10.5082C7.32315 11.5096 6.73158 12.7426 7.09796 13.626V13.6248H7.09767Z" fill="url(#paint4_radial_6920_12094)"/>
<g style="mix-blend-mode:overlay" opacity="0.8">
<path d="M10.8194 11.6275C8.70115 12.6656 7.97845 13.9062 8.00049 14.9216C8.0196 14.9487 8.04005 14.9745 8.06049 15C8.0589 13.9924 8.78957 12.7726 10.8794 11.7473C11.5695 11.4111 12.3022 11.2104 13.048 11.1533C13.6964 11.0861 14.3495 11.1238 14.9891 11.2652C14.9934 11.2302 14.997 11.195 15 11.1598C14.3379 11.0057 13.6604 10.9627 12.988 11.0323C12.2422 11.0896 11.5095 11.2902 10.8194 11.6263V11.6275Z" fill="white"/>
</g>
<path style="mix-blend-mode:overlay" opacity="0.4" d="M16.0436 11.4238C16.0323 11.5102 16.0162 11.5937 16 11.6788C17.0329 12.3876 18.1371 13.5421 18.6319 15C18.7954 14.6352 18.9187 14.2569 19 13.8704C18.3845 12.517 17.1655 11.54 16.0946 11C16.0816 11.1375 16.0655 11.2774 16.0451 11.4238H16.0436Z" fill="url(#paint5_radial_6920_12094)"/>
<path style="mix-blend-mode:overlay" opacity="0.5" d="M16.0282 12C16.0182 12.0479 16.0099 12.0975 16 12.1454C17.1558 12.9756 18.3837 14.3172 18.9113 16C18.9424 15.9358 18.9721 15.871 19 15.8068C18.4413 14.1356 17.1952 12.8138 16.0263 12H16.0282Z" fill="url(#paint6_linear_6920_12094)"/>
<path style="mix-blend-mode:overlay" opacity="0.9" d="M16.7678 17.3829C16.8665 17.254 16.945 17.1077 17 16.9501C16.2586 17.4525 14.979 17.3452 13.1483 15.7993C12.5532 15.2953 12.0374 14.6856 11.6219 13.9949C11.2331 13.3817 10.9255 12.7099 10.7084 12C10.4436 12.1256 10.2048 12.2618 10 12.3951C10.2189 13.2467 10.5649 14.0515 11.0238 14.7762C11.4333 15.4544 11.9439 16.0676 12.5502 16.5806C14.7292 18.4213 16.1288 18.2229 16.7662 17.3826H16.7678V17.3829Z" fill="url(#paint7_radial_6920_12094)"/>
<g style="mix-blend-mode:overlay" opacity="0.8">
<path d="M13.3157 15.6503C15.0528 17.1203 16.2689 17.2227 16.9727 16.7445C16.9831 16.7144 16.9922 16.6842 17 16.6553C16.2922 17.1119 15.0864 16.9921 13.3725 15.5424C12.8074 15.0629 12.3176 14.4829 11.923 13.8259C11.5674 13.2632 11.2834 12.6488 11.079 12C11.0518 12.0129 11.026 12.0244 11 12.0373C11.206 12.7127 11.498 13.3518 11.8672 13.9353C12.2561 14.5803 12.7409 15.1637 13.3167 15.6517L13.3154 15.6503H13.3157Z" fill="white"/>
</g>
<path style="mix-blend-mode:overlay" opacity="0.3" d="M10.3366 10.8262C10.4052 10.7931 10.4737 10.7629 10.5434 10.7326C10.6717 9.56643 11.1046 8.12004 12 7C11.6649 7.0564 11.3352 7.14869 11.0158 7.27892C10.2453 8.44254 9.98897 9.88893 10.0004 11C10.107 10.941 10.2185 10.8828 10.3355 10.8264H10.3366V10.8262Z" fill="url(#paint8_radial_6920_12094)"/>
<path style="mix-blend-mode:overlay" opacity="0.4" d="M10 11C10.0435 10.9847 10.0853 10.9678 10.1286 10.9525C10.3071 9.71043 10.8682 8.17737 12 7C11.9359 7.0071 11.8714 7.01556 11.8073 7.02402C10.6964 8.21804 10.1593 9.75684 10.0003 10.9986V11H10Z" fill="url(#paint9_linear_6920_12094)"/>
<path style="mix-blend-mode:multiply" opacity="0.4" d="M12.3362 5.02056C10.2054 5.18013 8.33514 6.27295 7.02924 7.91003L7 7.94651C7.25357 8.22463 8.08519 8.77175 8.42131 9C9.09108 8.20535 9.9265 7.60229 10.8554 7.24295C10.9206 7.14919 10.9894 7.05715 11.0613 6.96796C11.938 5.878 13.1349 5.30295 14.5244 5.30295C14.6786 5.30295 14.9935 5.33088 15 5.33088C14.1354 5.05697 13.2339 4.95185 12.3364 5.02027L12.3362 5.02056Z" fill="url(#paint10_linear_6920_12094)"/>
<path style="mix-blend-mode:multiply" opacity="0.4" d="M13.8702 19.2531C12.0251 19.3685 10.3 18.7926 8.99646 17.7681C8.87404 17.7534 8.75222 17.7348 8.63125 17.7122C7.18372 17.4418 6.00801 16.6483 5.23306 15.4187C5.14773 15.2828 5.06995 15.1431 5 15C6.00222 18.6566 9.7448 21.2465 13.998 20.9813C14.0174 20.5806 13.8881 19.6501 13.8688 19.2531H13.8702Z" fill="url(#paint11_linear_6920_12094)"/>
<path style="mix-blend-mode:multiply" opacity="0.4" d="M20.9846 12.0045C20.7818 11.9769 19.7944 12.0823 19.5512 12.137C19.5815 12.7409 19.5534 13.3323 19.4733 13.9024C19.5071 14.0152 19.5398 14.131 19.569 14.2483C19.9241 15.6874 19.8001 17.1767 19.2118 18.5576C19.1467 18.7097 19.076 18.8574 19 19C19 19 19.0033 18.9967 19.0044 18.9938C20.3423 17.2331 21.1209 14.7209 20.9846 12.006V12.0045Z" fill="url(#paint12_linear_6920_12094)"/>
<path style="mix-blend-mode:multiply" opacity="0.5" d="M14.7164 7.25849C14.8966 7.26863 15.0894 7.29343 15.2628 7.32534C15.271 7.32685 15.2798 7.32836 15.2866 7.32912C15.993 7.48809 16.6428 7.7147 17.206 7.99849C17.206 7.99849 17.2087 7.99924 17.2101 8C17.4805 7.83001 18 7.64293 18 7.64293C18 7.64293 17.2046 7.19407 15.9866 7.05432C15.1347 6.95648 13.2126 6.86256 12 8L12.0112 7.99395C12.1015 7.91924 12.1958 7.84634 12.3042 7.7795C12.8914 7.41381 13.7644 7.2048 14.7164 7.25849Z" fill="url(#paint13_linear_6920_12094)"/>
<path style="mix-blend-mode:multiply" opacity="0.5" d="M17.3129 17.7411C17.2067 17.8775 17.0853 18.0028 16.9508 18.1148C16.9456 18.1198 16.9387 18.125 16.9332 18.1302C16.3548 18.5534 15.7018 18.8768 15.0042 19.0855C15.0029 19.0855 15.0016 19.0855 15 19.0867C15.1271 19.4388 15.1595 20 15.1595 20C15.1595 20 16.2172 19.7451 17.0119 18.9043C17.5671 18.3163 18.6314 16.8852 17.4992 15C17.4992 15 17.5008 15.0062 17.5034 15.0139C17.5736 15.1456 17.6371 15.2805 17.6857 15.4196C17.9546 16.1799 17.8518 17.037 17.3142 17.7399L17.3129 17.7411Z" fill="url(#paint14_linear_6920_12094)"/>
<path style="mix-blend-mode:multiply" opacity="0.5" d="M6.94192 14.276C6.88042 14.1002 6.83412 13.9165 6.80381 13.7283C6.80269 13.7198 6.80045 13.7108 6.79933 13.7021C6.71427 12.9233 6.7418 12.1343 6.8741 11.3744V11.3698C6.54526 11.2888 6.09376 11 6.09376 11C6.09376 11 5.84304 12.1259 6.16158 13.3367C6.38454 14.1848 7.04758 15.9811 9 16C9 16 8.9944 15.9983 8.98746 15.9955C8.85539 15.9854 8.72332 15.9682 8.59349 15.935C7.88545 15.7529 7.26136 15.1719 6.94058 14.276H6.94192Z" fill="url(#paint15_linear_6920_12094)"/>
<path style="mix-blend-mode:multiply" opacity="0.6" d="M14.7214 9.99127C14.8162 9.9985 14.9091 10.0009 15 9.9997C15 9.9997 14.9374 9.249 14.7879 8.86305C14.6364 8.4783 14.414 8.22221 14.1716 8.07766C13.9961 7.97382 13.4444 7.84493 13.0163 8.639C12.983 8.79626 13.0008 8.956 13.0686 9.10905C13.1363 9.26211 13.2527 9.40548 13.4111 9.53096C13.5695 9.65643 13.7668 9.76155 13.9916 9.84029C14.2164 9.91903 14.4644 9.96984 14.7214 9.98983V9.99103V9.99127Z" fill="url(#paint16_linear_6920_12094)"/>
<path style="mix-blend-mode:multiply" opacity="0.5" d="M9.8829 13.1712C9.85452 13.1122 9.8217 13.055 9.78465 13C9.78465 13 8.98898 13.4595 8.62783 13.7658C8.26669 14.0723 8.07353 14.3495 8.00985 14.5763C7.96467 14.7393 8.03623 15.1405 9.06691 14.9496C9.43858 14.8104 9.73327 14.5449 9.88622 14.2114C10.0392 13.8779 10.0379 13.5038 9.88259 13.1712H9.8829Z" fill="url(#paint17_linear_6920_12094)"/>
<path style="mix-blend-mode:multiply" opacity="0.6" d="M15.0877 15.4041C15.0549 15.4431 15.0257 15.4854 15 15.5273C15 15.5273 15.6326 15.8193 15.9915 15.9151C16.3504 16.0112 16.6239 16.0196 16.8122 15.9709C16.9479 15.9363 17.2121 15.7413 16.6869 15.2104C16.5677 15.1285 16.4318 15.0686 16.2869 15.0341C16.142 14.9996 15.991 14.9912 15.8425 15.0093C15.694 15.0274 15.5509 15.0717 15.4214 15.1396C15.2918 15.2076 15.1785 15.2979 15.0877 15.4054V15.4041Z" fill="url(#paint18_linear_6920_12094)"/>
<path style="mix-blend-mode:multiply" opacity="0.3" d="M14.4016 12C14.2364 12.6411 14.0045 13.2241 13.7205 13.7376C13.7055 13.7642 13.6909 13.7911 13.6746 13.8193C13.6746 13.8193 13.6746 13.8208 13.6733 13.8224C13.4743 14.1559 13.2489 14.4669 13 14.7511C13.1805 14.9742 13.3743 15.1909 13.5886 15.3968C13.8319 15.6202 14.0893 15.8218 14.3586 16C14.9069 15.3402 15.3563 14.5776 15.6879 13.744C15.8065 13.4617 15.9107 13.1715 16 12.8749C15.7228 12.6377 15.4426 12.4477 15.1843 12.3189C14.9296 12.1915 14.6677 12.085 14.4003 12H14.4019H14.4016Z" fill="url(#paint19_linear_6920_12094)"/>
<path style="mix-blend-mode:multiply" opacity="0.3" d="M9.08905 17.9501C10.5831 18.1618 12.0208 17.6683 13 17.0639C12.8796 16.9764 12.7609 16.8866 12.6438 16.7946C12.2714 16.4983 11.9298 16.1624 11.6246 15.7922C10.8881 16.1271 9.96034 16.3234 9.10113 16.141C8.27055 15.9645 7.53822 15.4008 7.16181 14.5315C7.08973 14.3609 7.03549 14.1827 7 14C7.21723 15.5844 7.98582 16.9669 9.08773 17.9498H9.08905V17.9501Z" fill="url(#paint20_linear_6920_12094)"/>
<path style="mix-blend-mode:multiply" opacity="0.3" d="M12.9987 14.8138C12.6146 14.3456 12.2894 13.8174 12.0326 13.2448C12.0203 13.2146 12.0064 13.1878 11.9941 13.1575V13.1544C11.8436 12.7833 11.7233 12.3968 11.6346 12C11.3737 12.0712 11.1117 12.1601 10.8482 12.2742C10.5556 12.4091 10.2721 12.5689 10 12.7523C10.2443 13.7294 10.6052 14.5544 11.0265 15.2447C11.1788 15.5059 11.3438 15.7576 11.5237 16C11.8444 15.8384 12.1315 15.6469 12.3603 15.4488C12.5857 15.2535 12.7995 15.0408 13 14.8122L12.9987 14.8138Z" fill="url(#paint21_linear_6920_12094)"/>
<path style="mix-blend-mode:multiply" opacity="0.3" d="M11.0927 7.34018C10.264 8.48473 9.98814 9.9074 10.0004 11C10.1198 10.94 10.2404 10.8827 10.3621 10.828C10.7498 10.6547 11.1537 10.5258 11.5668 10.4435C11.6469 9.67693 11.9164 8.8148 12.4379 8.18567C12.9421 7.57595 13.6923 7.22747 14.5101 7.31699C14.6649 7.33388 14.8306 7.37523 14.9795 7.42844C14.9866 7.43096 14.9939 7.43348 15 7.43474C14.2238 7.09577 13.3852 6.95188 12.5488 7.01414C12.0409 7.05172 11.5545 7.16166 11.0948 7.33514C11.0937 7.3364 11.0925 7.33892 11.0913 7.34018H11.0925H11.0927Z" fill="url(#paint22_linear_6920_12094)"/>
<path style="mix-blend-mode:multiply" opacity="0.3" d="M18.9946 14.1063C18.4365 12.6423 17.3328 11.5841 16.3635 11C16.3517 11.1488 16.3373 11.3014 16.3173 11.4612C16.2585 11.9485 16.1522 12.4277 16 12.8911C16.6323 13.3919 17.2458 14.1344 17.5172 15.0072C17.7791 15.8502 17.679 16.8007 17.155 17.5801C17.0515 17.7314 16.9332 17.8703 16.8021 17.9945L16.7969 18C17.9268 17.0468 18.7258 15.672 19 14.1162C19 14.1135 18.9974 14.1104 18.9974 14.1077L18.9949 14.1063H18.9946Z" fill="url(#paint23_linear_6920_12094)"/>
<path style="mix-blend-mode:multiply" opacity="0.3" d="M11.0303 11.1194C11.0719 11.4045 11.1371 11.687 11.2256 11.9648C11.9313 11.8277 12.623 11.7773 13.2846 11.804L13.3899 11.8081H13.3932C13.8082 11.8361 14.2399 11.8991 14.6873 12C14.7823 11.7383 14.8625 11.4665 14.9201 11.1837C14.983 10.8312 15.0016 10.5049 14.9999 10.2208C13.9409 10.0054 12.9515 9.96179 12.0488 10.0291C11.7094 10.0475 11.3716 10.0825 11.0372 10.1341C10.9895 10.4896 10.9876 10.8269 11.0319 11.1183L11.0303 11.1194Z" fill="url(#paint24_linear_6920_12094)"/>
<defs>
<linearGradient id="paint0_linear_6920_12094" x1="7.54063" y1="18.4619" x2="17.7421" y2="8.26072" gradientUnits="userSpaceOnUse">
<stop stop-color="#E6007A"/>
<stop offset="0.21" stop-color="#703AC2"/>
<stop offset="0.46" stop-color="#0070EB"/>
<stop offset="0.77" stop-color="#0297FB"/>
<stop offset="1" stop-color="#0AE2FF"/>
</linearGradient>
<radialGradient id="paint1_radial_6920_12094" cx="0" cy="0" r="1" gradientUnits="userSpaceOnUse" gradientTransform="translate(15.1561 11.7627) scale(2.21854 2.98429)">
<stop stop-color="white"/>
<stop offset="1" stop-color="white" stop-opacity="0"/>
</radialGradient>
<radialGradient id="paint2_radial_6920_12094" cx="0" cy="0" r="1" gradientUnits="userSpaceOnUse" gradientTransform="translate(10.8076 16.8591) scale(1.83604 2.63169)">
<stop stop-color="white"/>
<stop offset="1" stop-color="white" stop-opacity="0"/>
</radialGradient>
<linearGradient id="paint3_linear_6920_12094" x1="8.15054" y1="16.5583" x2="9.71427" y2="16.5454" gradientUnits="userSpaceOnUse">
<stop stop-color="white" stop-opacity="0"/>
<stop offset="1" stop-color="white"/>
</linearGradient>
<radialGradient id="paint4_radial_6920_12094" cx="0" cy="0" r="1" gradientUnits="userSpaceOnUse" gradientTransform="translate(10.454 11.4897) rotate(-123.484) scale(2.98495 3.17196)">
<stop stop-color="white"/>
<stop offset="1" stop-color="white" stop-opacity="0"/>
</radialGradient>
<radialGradient id="paint5_radial_6920_12094" cx="0" cy="0" r="1" gradientUnits="userSpaceOnUse" gradientTransform="translate(17.3533 12.6802) rotate(-122.714) scale(1.7403 1.82755)">
<stop stop-color="white"/>
<stop offset="1" stop-color="white" stop-opacity="0"/>
</radialGradient>
<linearGradient id="paint6_linear_6920_12094" x1="18.8393" y1="15.8287" x2="17.9273" y2="14.1501" gradientUnits="userSpaceOnUse">
<stop stop-color="white" stop-opacity="0"/>
<stop offset="1" stop-color="white"/>
</linearGradient>
<radialGradient id="paint7_radial_6920_12094" cx="0" cy="0" r="1" gradientUnits="userSpaceOnUse" gradientTransform="translate(13.1285 15.5086) rotate(117.507) scale(3.28419 3.107)">
<stop stop-color="white"/>
<stop offset="1" stop-color="white" stop-opacity="0"/>
</radialGradient>
<radialGradient id="paint8_radial_6920_12094" cx="0" cy="0" r="1" gradientUnits="userSpaceOnUse" gradientTransform="translate(10.7671 9.1696) rotate(116.257) scale(1.64339 1.50579)">
<stop stop-color="white"/>
<stop offset="1" stop-color="white" stop-opacity="0"/>
</radialGradient>
<linearGradient id="paint9_linear_6920_12094" x1="11.8951" y1="7.13349" x2="11.0417" y2="8.65552" gradientUnits="userSpaceOnUse">
<stop stop-color="white" stop-opacity="0"/>
<stop offset="1" stop-color="white"/>
</linearGradient>
<linearGradient id="paint10_linear_6920_12094" x1="12.456" y1="6.24075" x2="9.89133" y2="6.91822" gradientUnits="userSpaceOnUse">
<stop stop-color="#231F20"/>
<stop offset="1" stop-color="white"/>
</linearGradient>
<linearGradient id="paint11_linear_6920_12094" x1="7.61573" y1="16.1375" x2="9.7625" y2="18.5857" gradientUnits="userSpaceOnUse">
<stop stop-color="#231F20"/>
<stop offset="1" stop-color="white"/>
</linearGradient>
<linearGradient id="paint12_linear_6920_12094" x1="19.6458" y1="15.6797" x2="20.7024" y2="13.3049" gradientUnits="userSpaceOnUse">
<stop stop-color="#231F20"/>
<stop offset="1" stop-color="white"/>
</linearGradient>
<linearGradient id="paint13_linear_6920_12094" x1="13.6602" y1="7.48519" x2="16.8864" y2="8.82434" gradientUnits="userSpaceOnUse">
<stop stop-color="#231F20"/>
<stop offset="1" stop-color="white"/>
</linearGradient>
<linearGradient id="paint14_linear_6920_12094" x1="17.4787" y1="16.7262" x2="15.2173" y2="19.303" gradientUnits="userSpaceOnUse">
<stop stop-color="#231F20"/>
<stop offset="1" stop-color="white"/>
</linearGradient>
<linearGradient id="paint15_linear_6920_12094" x1="7.66272" y1="15.0036" x2="6.33153" y2="11.5598" gradientUnits="userSpaceOnUse">
<stop stop-color="#231F20"/>
<stop offset="1" stop-color="white"/>
</linearGradient>
<linearGradient id="paint16_linear_6920_12094" x1="14.8304" y1="8.69344" x2="13.942" y2="10.1466" gradientUnits="userSpaceOnUse">
<stop stop-color="#231F20"/>
<stop offset="1" stop-color="white"/>
</linearGradient>
<linearGradient id="paint17_linear_6920_12094" x1="8.4271" y1="13.8344" x2="10.1156" y2="14.3414" gradientUnits="userSpaceOnUse">
<stop stop-color="#231F20"/>
<stop offset="1" stop-color="white"/>
</linearGradient>
<linearGradient id="paint18_linear_6920_12094" x1="16.1176" y1="16.0064" x2="15.8335" y2="14.8301" gradientUnits="userSpaceOnUse">
<stop stop-color="#231F20"/>
<stop offset="1" stop-color="white"/>
</linearGradient>
<linearGradient id="paint19_linear_6920_12094" x1="13.6101" y1="15.3118" x2="14.4007" y2="14.3772" gradientUnits="userSpaceOnUse">
<stop stop-color="#231F20"/>
<stop offset="1" stop-color="white"/>
</linearGradient>
<linearGradient id="paint20_linear_6920_12094" x1="11.4384" y1="14.8344" x2="10.1132" y2="15.4421" gradientUnits="userSpaceOnUse">
<stop stop-color="#231F20"/>
<stop offset="1" stop-color="white"/>
</linearGradient>
<linearGradient id="paint21_linear_6920_12094" x1="10.8482" y1="12.3658" x2="11.3641" y2="13.2946" gradientUnits="userSpaceOnUse">
<stop stop-color="#231F20"/>
<stop offset="1" stop-color="white"/>
</linearGradient>
<linearGradient id="paint22_linear_6920_12094" x1="12.698" y1="9.94497" x2="12.4143" y2="9.02959" gradientUnits="userSpaceOnUse">
<stop stop-color="#231F20"/>
<stop offset="1" stop-color="white"/>
</linearGradient>
<linearGradient id="paint23_linear_6920_12094" x1="15.7856" y1="14.3041" x2="16.5809" y2="14.4746" gradientUnits="userSpaceOnUse">
<stop stop-color="#231F20"/>
<stop offset="1" stop-color="white"/>
</linearGradient>
<linearGradient id="paint24_linear_6920_12094" x1="14.83" y1="11.3421" x2="13.5556" y2="11.0612" gradientUnits="userSpaceOnUse">
<stop stop-color="#231F20"/>
<stop offset="1" stop-color="white"/>
</linearGradient>
</defs>
</svg>
