<svg width="24" height="24" viewBox="0 0 24 24" fill="none" xmlns="http://www.w3.org/2000/svg">
<path d="M12 22C17.5228 22 22 17.5228 22 12C22 6.47715 17.5228 2 12 2C6.47715 2 2 6.47715 2 12C2 17.5228 6.47715 22 12 22Z" fill="#E40C5B"/>
<path fill-rule="evenodd" clip-rule="evenodd" d="M16.4811 13.2282L11.6412 5H12.6791L17 12.3459L16.4811 13.2282ZM11.1423 5.2886L7 12.331L7.519 13.2133L11.1504 7.03938L13.1206 10.3889C12.7571 10.3309 12.3841 10.3008 12.0039 10.3008C11.8896 10.3008 11.7761 10.3035 11.6633 10.3089L11.0655 11.3236C11.3699 11.2798 11.683 11.2578 12.0039 11.2578C12.6263 11.2578 13.2263 11.352 13.7898 11.5266L15.0299 13.6349H16.0679L11.159 5.28925L11.1509 5.30311L11.1423 5.2886ZM11.6774 9.05944L9.81611 12.224C10.5091 11.9946 11.2514 11.8703 12.0234 11.8703C12.4706 11.8701 12.9168 11.9123 13.3557 11.9964L14.0511 13.1767C13.4186 12.9506 12.7356 12.8273 12.0234 12.8273C10.9079 12.8273 9.88632 13.0928 8.99607 13.6181L8.98621 13.6349H7.94825L11.1585 8.17712L11.6774 9.05944ZM11.963 19C11.7331 19 11.5152 18.963 11.3094 18.8892C11.1036 18.8152 10.9316 18.7052 10.7933 18.5589C10.6566 18.4127 10.5746 18.2295 10.5473 18.0094H11.155C11.1936 18.1824 11.2876 18.3144 11.4372 18.4056C11.5884 18.4953 11.7732 18.5401 11.9919 18.5401C12.1189 18.5401 12.2379 18.5212 12.3489 18.4835C12.4614 18.4457 12.5523 18.3899 12.6214 18.316C12.6906 18.2406 12.7251 18.1478 12.7251 18.0378C12.7251 17.9135 12.6809 17.8168 12.5924 17.7476C12.504 17.6769 12.3762 17.6211 12.209 17.5802L11.5265 17.4222C11.2611 17.364 11.0489 17.2626 10.8898 17.1179C10.7306 16.9733 10.651 16.7665 10.651 16.4976C10.651 16.2932 10.708 16.1171 10.8222 15.9693C10.9379 15.82 11.0947 15.7044 11.2925 15.6226C11.4903 15.5409 11.713 15.5 11.9606 15.5C12.242 15.5 12.4799 15.5463 12.6745 15.6392C12.8706 15.7319 13.0194 15.8554 13.1206 16.0095C13.222 16.162 13.2734 16.3302 13.275 16.5142H12.6817C12.6608 16.3113 12.5804 16.169 12.4405 16.0872C12.3022 16.0039 12.1366 15.9623 11.9437 15.9623C11.7154 15.9623 11.5457 16.0102 11.4348 16.1061C11.3239 16.202 11.2684 16.3145 11.2684 16.4434C11.2684 16.5645 11.3086 16.6604 11.389 16.7312C11.471 16.8019 11.5972 16.8569 11.7676 16.8962L12.4164 17.0448C12.7412 17.1124 12.9727 17.2303 13.111 17.3985C13.2493 17.5652 13.3184 17.761 13.3184 17.9858C13.3184 18.184 13.2614 18.3593 13.1471 18.5117C13.033 18.6643 12.8739 18.7838 12.6696 18.8703C12.4654 18.9567 12.2299 19 11.963 19ZM8.60639 19C8.28482 19 8.02518 18.9481 7.82739 18.8444C7.63125 18.739 7.48893 18.588 7.4005 18.3916C7.31207 18.1934 7.26786 17.9544 7.26786 17.6745V15.5424H7.86839V17.7335C7.86839 17.9977 7.93432 18.1926 8.06618 18.3184C8.198 18.4442 8.37811 18.5071 8.60639 18.5071C8.83471 18.5071 9.01643 18.445 9.15146 18.3207C9.28814 18.1949 9.35646 17.9992 9.35646 17.7335V15.5424H9.94979V17.7076C9.94979 18.1116 9.84607 18.4284 9.63864 18.658C9.43125 18.886 9.08714 19 8.60639 19ZM13.9851 15.5424V18.9528H14.8871C15.5158 18.9528 15.9805 18.8027 16.2811 18.5024C16.5819 18.2005 16.7321 17.776 16.7321 17.2288C16.7321 16.7052 16.5899 16.2972 16.3052 16.0047C16.0206 15.7123 15.56 15.5598 14.9233 15.5472C14.8477 15.5456 14.7601 15.5448 14.6604 15.5448C14.5607 15.5432 14.4618 15.5424 14.3637 15.5424H14.1105H13.9851ZM14.8968 18.4788H14.5808V16.0165H14.9112C15.1621 16.0165 15.3775 16.0566 15.5576 16.1368C15.7376 16.2154 15.8759 16.3436 15.9724 16.5212C16.0689 16.6989 16.1171 16.9355 16.1171 17.2311C16.1171 17.5362 16.0649 17.7799 15.9604 17.9622C15.8575 18.1447 15.7144 18.2767 15.5311 18.3584C15.3478 18.4387 15.1364 18.4788 14.8968 18.4788Z" fill="white"/>
</svg>
