<svg width="24" height="24" viewBox="0 0 24 24" fill="none" xmlns="http://www.w3.org/2000/svg">
<path fill-rule="evenodd" clip-rule="evenodd" d="M22 12C22 17.5228 17.5228 22 12 22C6.47715 22 2 17.5228 2 12C2 6.47715 6.47715 2 12 2C17.5228 2 22 6.47715 22 12ZM17.8286 11.8932H15.9269L17.9852 16.7468C17.9968 16.7742 18.0017 16.8043 17.9994 16.8342C17.9972 16.8641 17.9878 16.893 17.9722 16.9181C17.9567 16.9433 17.9353 16.9639 17.9101 16.9783C17.8849 16.9926 17.8568 17 17.8282 17H16.2979C16.2537 16.9999 16.2105 16.9865 16.1735 16.9612C16.1364 16.9359 16.1071 16.8999 16.0892 16.8575L12 7.21399L7.91086 16.8575C7.89289 16.8999 7.86361 16.9359 7.82656 16.9612C7.78951 16.9865 7.74627 16.9999 7.70209 17H6.17181C6.14331 16.9998 6.11529 16.9922 6.09028 16.9779C6.06529 16.9635 6.04409 16.9427 6.02863 16.9177C6.01315 16.8925 6.0039 16.8637 6.00169 16.8339C5.99949 16.8041 6.00441 16.7741 6.016 16.7468L8.07314 11.8932H6.17143C6.1489 11.8932 6.12658 11.8886 6.10577 11.8796C6.08494 11.8705 6.06602 11.8573 6.05009 11.8406C6.03416 11.8239 6.02154 11.8039 6.01294 11.7821C6.00435 11.7603 5.99994 11.7368 6 11.7132V10.2732C6 10.2255 6.01806 10.1797 6.05021 10.1459C6.08235 10.1121 6.12596 10.0932 6.17143 10.0932H8.83619L10.9341 5.1424C10.952 5.10002 10.9813 5.06402 11.0184 5.03873C11.0555 5.01346 11.0987 5.00001 11.1429 5H12.8571C12.9011 5.00031 12.944 5.01392 12.9807 5.03917C13.0175 5.06442 13.0465 5.10027 13.0644 5.1424L15.1638 10.0932H17.8286C17.8741 10.0932 17.9177 10.1121 17.9498 10.1459C17.982 10.1797 18 10.2255 18 10.2732V11.7132C18.0001 11.7368 17.9957 11.7603 17.987 11.7821C17.9785 11.8039 17.9659 11.8239 17.9499 11.8406C17.934 11.8573 17.915 11.8705 17.8942 11.8796C17.8734 11.8886 17.8511 11.8932 17.8286 11.8932Z" fill="white"/>
</svg>
