<svg width="24" height="24" viewBox="0 0 24 24" fill="none" xmlns="http://www.w3.org/2000/svg">
<path d="M12 21.5981C17.5228 21.5981 22 17.121 22 11.5981C22 6.0753 17.5228 1.59814 12 1.59814C6.47715 1.59814 2 6.0753 2 11.5981C2 17.121 6.47715 21.5981 12 21.5981Z" fill="#F3BA2F"/>
<path d="M9.5725 10.6006L12 8.17315L14.4288 10.6019L15.8413 9.18939L12 5.34814L8.16 9.18814L9.5725 10.6006ZM5.75 11.5981L7.1625 10.1856L8.575 11.5981L7.1625 13.0106L5.75 11.5981ZM9.5725 12.5956L12 15.0231L14.4288 12.5944L15.8413 14.0063L12 17.8481L8.16 14.0081L8.15813 14.0063L9.5725 12.5956ZM15.425 11.5981L16.8375 10.1856L18.25 11.5981L16.8375 13.0106L15.425 11.5981ZM13.4325 11.5969H13.4338V11.5981L12 13.0319L10.5681 11.6006L10.5656 11.5981L10.5681 11.5963L10.8188 11.345L10.9406 11.2231L12 10.1644L13.4331 11.5975L13.4325 11.5969Z" fill="white"/>
</svg>
