<svg width="24" height="24" viewBox="0 0 24 24" fill="none" xmlns="http://www.w3.org/2000/svg">
<path fill-rule="evenodd" clip-rule="evenodd" d="M12 2C17.5228 2 22 6.47715 22 12C22 17.5228 17.5228 22 12 22C6.47715 22 2 17.5228 2 12C2 6.47715 6.47715 2 12 2ZM5.40271 7.7302C4.90525 7.35063 4.97631 6.34281 5.50931 6.09413C5.66328 6.02868 8.47039 5.98942 12.1421 6.00251C17.5638 6.02245 18.6569 5.99683 18.8699 6.4172C18.9366 6.54875 18.9171 6.72399 18.9171 6.95797C18.9171 7.6124 18.5499 7.92652 17.7919 7.92652H17.2115V8.64639V9.35317L18.0761 9.39244L18.9289 9.43171L18.9645 11.1594L19 12.8871L18.6684 12.9787C17.709 13.2012 17.4129 13.4106 16.9983 14.1436C16.7377 14.6017 16.6785 14.8635 16.6311 16.133C16.5838 17.0361 16.5008 17.6644 16.4061 17.7691C16.335 17.8476 15.9205 17.9523 15.5059 17.9785C14.8071 18.0309 14.7124 18.0047 14.4399 17.7037C14.1557 17.3895 14.132 17.2848 14.132 16.0938C14.132 14.5886 13.9069 13.9342 13.22 13.4237C12.8646 13.1619 12.6396 13.0965 12 13.0965C11.3604 13.0965 11.1354 13.1619 10.78 13.4237C10.0931 13.9342 9.86802 14.5886 9.86802 16.0938C9.86802 17.2848 9.84433 17.3895 9.56007 17.7037C9.28765 18.0047 9.19289 18.0309 8.49408 17.9785C8.07953 17.9523 7.66497 17.8476 7.59391 17.7691C7.49915 17.6644 7.41624 17.0361 7.36887 16.133C7.32149 14.8635 7.26227 14.6017 7.00169 14.1436C6.58714 13.4106 6.29103 13.2012 5.33164 12.9787L5 12.8871L5.03553 11.1594L5.07107 9.43171L5.9357 9.39244L6.78849 9.35317V8.64639V7.92652H6.21997C5.91201 7.92652 5.54484 7.8349 5.40271 7.7302ZM9.8088 9.36626V8.64639V7.92652H9.01523H8.20981V8.64639V9.36626H9.01523H9.8088ZM12.8291 9.36626V8.64639V7.92652H12H11.1709V8.64639V9.36626H12H12.8291ZM15.7902 9.36626V8.64639V7.92652H14.9966H14.1912V8.64639V9.36626H14.9966H15.7902Z" fill="white"/>
</svg>
