<svg width="24" height="24" viewBox="0 0 24 24" fill="none" xmlns="http://www.w3.org/2000/svg">
<path d="M11.9994 2C13.9773 1.99989 15.9108 2.58629 17.5553 3.68506C19.1999 4.78383 20.4817 6.34561 21.2387 8.17289C21.9956 10.0002 22.1937 12.0109 21.8079 13.9507C21.4221 15.8906 20.4696 17.6725 19.071 19.0711C17.6725 20.4696 15.8906 21.422 13.9508 21.8079C12.0109 22.1937 10.0002 21.9956 8.1729 21.2387C6.34561 20.4817 4.78384 19.1999 3.68506 17.5554C2.58629 15.9107 1.99989 13.9772 2 11.9994C2 10.6863 2.25864 9.38599 2.76116 8.17282C3.26368 6.95962 4.00023 5.85729 4.92876 4.92876C5.85729 4.00023 6.95962 3.26368 8.17281 2.76116C9.38599 2.25864 10.6863 2 11.9994 2ZM8.73698 11.9994C8.73698 16.8319 11.9994 20.7493 11.9994 20.7493C11.9994 20.7493 15.2618 16.8319 15.2618 11.9994C15.2618 7.16687 11.9994 3.25014 11.9994 3.25014C11.9994 3.25014 8.73698 7.16745 8.73698 11.9994Z" fill="#4FFFB0"/>
</svg>
