<svg width="24" height="24" viewBox="0 0 24 24" fill="none" xmlns="http://www.w3.org/2000/svg">
<path d="M12 22C17.5228 22 22 17.5228 22 12C22 6.47715 17.5228 2 12 2C6.47715 2 2 6.47715 2 12C2 17.5228 6.47715 22 12 22Z" fill="#F3BA2F"/>
<path fill-rule="evenodd" clip-rule="evenodd" d="M12.0008 5L13.8909 6.92955L9.44548 11.3608L7.55379 9.4752L12.0008 5ZM14.5555 7.5465L16.4455 9.47586L9.44548 16.4535L7.5536 14.5677L14.5555 7.5465ZM6.89094 10.092L8.78188 12.0223L6.89094 13.9072L5 12.0223L6.89094 10.092ZM17.11 10.093L19 12.0223L12 19L10.1081 17.1142L17.11 10.093Z" fill="white"/>
</svg>
