<svg width="24" height="24" viewBox="0 0 24 24" fill="none" xmlns="http://www.w3.org/2000/svg">
<path d="M12.0045 0.81357C9.38342 0.812293 6.83398 1.67254 4.74591 3.26284C2.65783 4.85313 1.14601 7.08598 0.441514 9.62008C-0.262975 12.1542 -0.121374 14.8502 0.844676 17.2958C1.81073 19.7415 3.54808 21.8024 5.79117 23.1635C6.24767 23.4416 6.77142 23.5886 7.30539 23.5886H7.34451C7.73466 23.5907 8.12134 23.5152 8.48219 23.3663C8.84306 23.2174 9.1709 22.9982 9.44678 22.7213C9.72265 22.4444 9.94107 22.1153 10.0894 21.7531C10.2377 21.3909 10.313 21.0028 10.3108 20.6111V15.1252C10.3102 15.0948 10.2979 15.0658 10.2765 15.0443C10.255 15.0228 10.2261 15.0104 10.1958 15.0098H8.39158C8.16467 15.0182 7.9384 14.9807 7.7263 14.8993C7.51419 14.8179 7.3206 14.6944 7.1571 14.5363C6.99361 14.3781 6.86356 14.1886 6.77474 13.9788C6.68591 13.7691 6.64013 13.5435 6.64013 13.3156C6.64013 13.0876 6.68591 12.8621 6.77474 12.6523C6.86356 12.4426 6.99361 12.253 7.1571 12.0948C7.3206 11.9366 7.51419 11.8132 7.7263 11.7318C7.9384 11.6505 8.16467 11.6129 8.39158 11.6213H15.606C15.8329 11.6129 16.0592 11.6505 16.2713 11.7318C16.4834 11.8132 16.677 11.9366 16.8405 12.0948C17.004 12.253 17.1341 12.4426 17.2228 12.6523C17.3116 12.8621 17.3574 13.0876 17.3574 13.3156C17.3574 13.5435 17.3116 13.7691 17.2228 13.9788C17.1341 14.1886 17.004 14.3781 16.8405 14.5363C16.677 14.6944 16.4834 14.8179 16.2713 14.8993C16.0592 14.9807 15.8329 15.0182 15.606 15.0098H13.8064C13.776 15.0104 13.7471 15.0228 13.7258 15.0443C13.7043 15.0658 13.6919 15.0948 13.6913 15.1252V20.6111C13.6969 21.4012 14.0122 22.1572 14.5691 22.7153C15.1261 23.2735 15.8798 23.5889 16.6669 23.5932H16.706C17.2408 23.5929 17.7651 23.4433 18.2202 23.1612C20.46 21.7987 22.1942 19.738 23.158 17.2938C24.1217 14.8494 24.2623 12.1558 23.5583 9.62377C22.8541 7.09177 21.344 4.86058 19.2583 3.27064C17.1726 1.68072 14.6259 0.819417 12.0068 0.818194L12.0045 0.81357ZM3.48992 15.2408C3.11014 15.2413 2.73875 15.1286 2.42278 14.9172C2.1068 14.7056 1.86046 14.4047 1.7149 14.0527C1.56936 13.7006 1.53115 13.3131 1.60514 12.9391C1.67912 12.5652 1.86197 12.2218 2.13051 11.9522C2.39906 11.6827 2.74125 11.4992 3.11376 11.4249C3.48627 11.3507 3.87235 11.389 4.22314 11.5351C4.57393 11.6812 4.87366 11.9284 5.08437 12.2456C5.29508 12.5627 5.40732 12.9355 5.40686 13.3167C5.40566 13.825 5.20458 14.3123 4.84732 14.6726C4.49008 15.033 4.00555 15.2371 3.49912 15.2408H3.48992ZM12.0045 9.5078C11.4155 9.50826 10.8395 9.33334 10.3495 9.0052C9.85954 8.67705 9.4775 8.21038 9.25176 7.66427C9.02603 7.11815 8.96673 6.51711 9.08137 5.93716C9.196 5.35721 9.47943 4.82443 9.89579 4.40619C10.3122 3.98796 10.8428 3.70305 11.4205 3.58755C11.9982 3.47203 12.597 3.53107 13.1413 3.75722C13.6856 3.98339 14.1507 4.36649 14.4781 4.85807C14.8053 5.34964 14.9801 5.9276 14.9801 6.51886C14.9752 7.30925 14.6602 8.06587 14.1031 8.62455C13.5461 9.18323 12.792 9.49893 12.0045 9.50317V9.5078ZM20.4847 15.2408C20.105 15.2408 19.7338 15.1278 19.4182 14.916C19.1024 14.7042 18.8565 14.4032 18.7112 14.0511C18.5661 13.6989 18.5282 13.3115 18.6024 12.9378C18.6767 12.564 18.8598 12.2207 19.1284 11.9514C19.397 11.6821 19.7392 11.4988 20.1116 11.4247C20.4841 11.3507 20.8701 11.3891 21.2208 11.5353C21.5714 11.6815 21.871 11.9287 22.0815 12.2458C22.2922 12.5629 22.4043 12.9356 22.4039 13.3167C22.4027 13.8271 22.2 14.3161 21.8403 14.6767C21.4805 15.0374 20.9931 15.2402 20.4847 15.2408Z" fill="url(#paint0_linear_1497_87)"/>
<defs>
<linearGradient id="paint0_linear_1497_87" x1="19.8367" y1="3.91838" x2="3.18368" y2="20.3265" gradientUnits="userSpaceOnUse">
<stop stop-color="#FF7B00"/>
<stop offset="0.251006" stop-color="#FF002B"/>
<stop offset="0.639887" stop-color="#FF006E"/>
<stop offset="1" stop-color="#273CFF"/>
</linearGradient>
</defs>
</svg>
