<svg width="24" height="24" viewBox="0 0 24 24" fill="none" xmlns="http://www.w3.org/2000/svg">
<path d="M12 22C17.5228 22 22 17.5228 22 12C22 6.47715 17.5228 2 12 2C6.47715 2 2 6.47715 2 12C2 17.5228 6.47715 22 12 22Z" fill="#243579"/>
<path fill-rule="evenodd" clip-rule="evenodd" d="M12.2174 9.01023C12.2196 9.00607 12.2217 9.00199 12.2238 8.99792C12.3445 8.77077 12.9795 8.46154 12.9795 8.46154C12.9795 8.46154 13.0503 9.21208 12.9288 9.43915L12.9159 9.46369C12.7946 9.69077 12.1602 10 12.1602 10C12.1602 10 12.0895 9.24953 12.2103 9.02238C12.2124 9.01831 12.2153 9.01423 12.2174 9.01023ZM11.0773 9.45131C11.0752 9.4473 11.073 9.4433 11.0709 9.43915C10.9502 9.21208 11.0202 8.46154 11.0202 8.46154C11.0202 8.46154 11.6552 8.77077 11.7766 8.99792L11.7895 9.02238C11.9102 9.24953 11.8403 10 11.8403 10C11.8403 10 11.2052 9.69077 11.0837 9.46369C11.0816 9.45961 11.0795 9.45546 11.0773 9.45131ZM11.6117 7.84615C11.6117 7.84169 11.6117 7.83723 11.6117 7.83269C11.6117 7.58293 12.0045 7 12.0045 7C12.0045 7 12.3974 7.58293 12.3974 7.83269V7.8597C12.3974 8.10946 12.0045 8.6923 12.0045 8.6923C12.0045 8.6923 11.6117 8.10946 11.6117 7.8597C11.6117 7.85515 11.6117 7.85069 11.6117 7.84615Z" fill="white"/>
<path d="M7.94577 10.3548C7.7993 10.4117 5.81681 11.2051 5.05964 12.7282C5.05506 12.7377 5.04919 12.7464 5.0433 12.7543C5.12634 13.1034 5.22312 13.6052 5.15708 13.849C5.07274 14.161 4.74973 14.3464 4.43654 14.2628C4.12268 14.1793 3.93633 13.8581 4.02002 13.5462C4.08737 13.2984 4.43261 12.9027 4.68173 12.6419C4.67454 12.5094 4.6706 12.3758 4.6706 12.2414C4.6706 8.21958 7.95492 5 11.9997 5C16.0444 5 19.3281 8.21958 19.3281 12.2414C19.3281 12.3754 19.3242 12.5085 19.317 12.6407C19.5661 12.9016 19.9126 13.2979 19.98 13.5462C20.0637 13.8581 19.8773 14.1793 19.5634 14.2628C19.2502 14.3464 18.9273 14.161 18.8429 13.849C18.7775 13.6055 18.873 13.1045 18.9567 12.7554C18.9502 12.7472 18.9436 12.7382 18.939 12.7282C18.1799 11.2015 16.1902 10.408 16.0522 10.3545C15.573 12.3768 16.5407 14.4238 18.31 15.384C18.3754 15.4199 18.4002 15.5023 18.3643 15.5678C18.3277 15.6335 18.2453 15.6576 18.1793 15.6218C17.1507 15.0635 16.3779 14.1587 15.9738 13.1018L15.9718 13.1133C15.9496 13.2368 15.9248 13.3596 15.896 13.4818C15.8437 13.704 15.7802 13.9238 15.7044 14.1392C15.6266 14.3594 15.5364 14.5752 15.4324 14.7844C15.3677 14.914 15.2984 15.0411 15.2245 15.1653L15.2193 15.173C15.5573 15.9837 16.1536 16.6699 16.9102 17.1393C16.9742 17.1788 16.9938 17.2625 16.9539 17.3259C16.9141 17.3893 16.8297 17.4087 16.7662 17.3692C16.0143 16.9028 15.4122 16.2352 15.0434 15.4468C14.5942 16.0989 14.0606 16.5601 13.5682 16.882C13.5682 16.8838 13.569 16.8855 13.5696 16.8873C13.7722 17.5905 14.1241 18.2325 14.589 18.7783C14.6374 18.8352 14.6302 18.9203 14.5726 18.9683C14.515 19.0163 14.4294 19.009 14.3803 18.9521C13.9063 18.3954 13.5441 17.7436 13.3283 17.0303C12.6306 17.4372 12.0657 17.563 12.0298 17.5708L12.0042 17.574H11.9944C11.9859 17.5737 11.9774 17.5726 11.969 17.5708C11.9336 17.5631 11.3694 17.4374 10.6723 17.0312C10.4566 17.7441 10.0943 18.3956 9.62029 18.9521C9.57189 19.009 9.48559 19.0163 9.42805 18.9683C9.37051 18.9203 9.36332 18.8352 9.41171 18.7783C9.8766 18.2325 10.2284 17.5905 10.431 16.8873C10.4318 16.8859 10.4318 16.8845 10.4324 16.883C9.93872 16.5607 9.40452 16.0987 8.95466 15.445C8.58523 16.2342 7.98304 16.9024 7.23046 17.3692C7.16703 17.4087 7.08268 17.3893 7.04279 17.3259C7.0029 17.2625 7.02252 17.1788 7.08659 17.1393C7.84376 16.6695 8.44073 15.9825 8.77813 15.1709C8.44269 14.6132 8.17069 13.9314 8.02488 13.0999C7.62537 14.1456 6.86494 15.0426 5.85409 15.6025C5.84166 15.6091 5.83054 15.6155 5.81878 15.6218C5.7985 15.6327 5.77693 15.6381 5.75535 15.6384H5.75339C5.70566 15.6385 5.65858 15.6129 5.63373 15.5678C5.61869 15.5404 5.61411 15.51 5.6187 15.4813C5.62196 15.461 5.63047 15.4414 5.64224 15.4245L5.64486 15.4214C5.65074 15.4132 5.65792 15.4057 5.66577 15.399L5.68866 15.3837C5.7037 15.3757 5.71808 15.3676 5.73246 15.3597L5.77235 15.3373L5.82792 15.3048L5.8907 15.2673C5.90378 15.2591 5.91686 15.251 5.93058 15.2426L5.95806 15.2253L6.01624 15.1873C6.02278 15.1833 6.02866 15.1792 6.03521 15.175L6.09732 15.1331C6.13198 15.1093 6.16598 15.0849 6.19998 15.06L6.2791 15.0011L6.31702 14.9716L6.3739 14.9264L6.40398 14.902C6.42162 14.8874 6.43929 14.8728 6.45694 14.858C6.49355 14.8271 6.52951 14.7955 6.56482 14.7635L6.60667 14.7251C7.53254 13.868 8.07653 12.6495 8.06737 11.3643C8.06541 11.0307 8.02554 10.6924 7.94577 10.3548ZM15.743 10.4971C15.3298 10.3754 14.8943 10.3103 14.4444 10.3103C13.8586 10.3103 13.2969 10.4206 12.7771 10.6227C12.6692 10.6923 12.562 10.8499 12.562 10.9702C12.562 11.0449 12.5221 11.0524 12.4959 11.0524C12.4404 11.0524 12.407 10.95 12.407 10.8753C12.407 10.6529 12.4489 10.5016 12.6483 10.3835C12.6581 10.3778 12.6679 10.3734 12.6784 10.3703C13.2289 10.1563 13.8239 10.0394 14.4444 10.0394C14.889 10.0394 15.3206 10.0994 15.7319 10.2121C13.2198 9.02231 12.3024 6.8533 11.9997 5.83414C11.6963 6.85337 10.7789 9.02277 8.26615 10.2125C8.67808 10.0995 9.10962 10.0394 9.55489 10.0394C10.1793 10.0394 10.7776 10.1576 11.3302 10.3738C11.3654 10.3875 11.391 10.4138 11.4053 10.4454C11.4086 10.4533 11.4112 10.4616 11.4132 10.4701C11.4831 10.7045 11.5361 10.9457 11.5701 11.1931C11.6028 11.4374 11.6178 11.6866 11.6126 11.9406C11.6067 12.193 11.5825 12.4401 11.5394 12.681C11.4949 12.9271 11.4322 13.1662 11.3517 13.3974C11.3458 13.416 11.3255 13.4265 11.3072 13.4207C11.2882 13.4149 11.2778 13.3951 11.2837 13.3765C11.3471 13.1452 11.3922 12.9074 11.419 12.6639C11.4446 12.4279 11.4524 12.1874 11.4406 11.9428C11.4295 11.6993 11.3988 11.4616 11.351 11.2301C11.3066 11.0151 11.247 10.8064 11.1738 10.6041C10.6678 10.4139 10.1231 10.3103 9.55489 10.3103H9.54379C9.27832 10.311 9.01809 10.3342 8.7644 10.3784C8.59113 10.4086 8.42112 10.4485 8.25438 10.4976C8.33154 10.8981 8.35508 11.298 8.33088 11.6899C8.32892 11.7178 8.32697 11.7457 8.32501 11.7734L8.32108 11.8193L8.31519 11.8785L8.30997 11.9314C8.30474 11.9782 8.2982 12.0248 8.29166 12.0712C8.29101 12.0772 8.28969 12.0834 8.28904 12.0893C8.28381 12.1244 8.27858 12.1593 8.27269 12.1943C8.25569 12.2911 8.23673 12.3871 8.21449 12.4823C8.21449 12.485 8.21515 12.4878 8.21515 12.4906C8.58589 16.3672 11.6702 17.2253 11.9997 17.306C12.3286 17.2253 15.4128 16.3672 15.7835 12.4906C15.7835 12.4888 15.7842 12.487 15.7842 12.4852C15.6345 11.8482 15.6135 11.1732 15.743 10.4971ZM12.6535 15.6522C12.5914 15.7864 12.4914 15.8901 12.3704 15.9448C12.2521 16.0025 12.1252 16.0319 11.9977 16.0311C11.8695 16.0318 11.7421 16.0011 11.6244 15.941C11.5034 15.8853 11.404 15.7784 11.3458 15.6409C11.4465 15.7048 11.5563 15.7482 11.6694 15.7693C11.778 15.7918 11.8878 15.803 11.9984 15.803C12.1082 15.8039 12.2181 15.7939 12.3266 15.773C12.4404 15.7541 12.5509 15.7133 12.6535 15.6522ZM12.9138 15.3607C12.9072 15.2769 12.715 15.2462 12.5535 15.1715C12.392 15.0968 12.288 15.0876 12.1553 15.1624C12.1128 15.1905 12.0638 15.2087 12.0127 15.2156C12.0127 15.2156 12.0036 15.2179 11.9997 15.2179C11.9951 15.2179 11.9859 15.2156 11.9859 15.2156C11.9343 15.2081 11.8859 15.1899 11.8434 15.1624C11.7106 15.0876 11.6041 15.0968 11.4446 15.1715C11.2857 15.2462 11.0914 15.2769 11.085 15.3607C11.0784 15.4446 11.1013 15.5009 11.3066 15.4978C11.5119 15.4948 11.6734 15.4262 11.7754 15.4757C11.8218 15.5076 11.8722 15.5348 11.9258 15.5566C11.9754 15.5688 12.0278 15.5688 12.0782 15.5566C12.1311 15.5345 12.1814 15.5075 12.2292 15.4757C12.3306 15.4262 12.4946 15.4948 12.6934 15.4978C12.8928 15.5009 12.9203 15.4452 12.9138 15.3607ZM12.2638 14.2297C12.3024 14.2789 12.3638 14.3056 12.426 14.3008C12.5482 14.2925 12.647 14.1948 12.6555 14.0731C12.6601 14.0106 12.6333 13.9499 12.5842 13.9112C12.5456 13.9413 12.5051 13.9688 12.4633 13.9935C12.439 14.0077 12.4175 14.0245 12.3972 14.0435C12.3782 14.0638 12.3613 14.0859 12.3469 14.1093C12.3207 14.151 12.2933 14.1911 12.2638 14.2297ZM11.7349 14.2297C11.6963 14.2789 11.6354 14.3056 11.5727 14.3008C11.4504 14.2925 11.3517 14.1948 11.3432 14.0731C11.3386 14.0106 11.3654 13.9499 11.4145 13.9112C11.453 13.9413 11.4936 13.9688 11.5354 13.9935C11.5596 14.0077 11.5812 14.0245 11.6014 14.0435C11.6204 14.0638 11.6374 14.0859 11.6518 14.1093C11.678 14.151 11.7054 14.1911 11.7349 14.2297ZM19.1999 12.9125C19.179 13.0055 19.1581 13.106 19.1404 13.207C19.1018 13.4259 19.0705 13.6473 19.1058 13.7789C19.1515 13.9465 19.3248 14.046 19.4929 14.0012C19.6615 13.9563 19.7616 13.7838 19.7165 13.6163C19.6812 13.4847 19.5426 13.3086 19.3994 13.138C19.3333 13.0593 19.2646 12.9827 19.1999 12.9125ZM4.80007 12.9125C4.73534 12.9827 4.66669 13.0593 4.60065 13.138C4.45746 13.3086 4.31883 13.4847 4.28353 13.6163C4.23841 13.7838 4.33844 13.9563 4.50714 14.0012C4.67518 14.046 4.84847 13.9465 4.89423 13.7789C4.92955 13.6473 4.89815 13.4259 4.85958 13.207C4.84192 13.106 4.82099 13.0055 4.80007 12.9125ZM12.1324 5.27208C12.133 5.27592 12.1337 5.27989 12.1344 5.28379C12.1487 5.37468 12.7032 8.65466 16.1458 10.0999C16.2412 10.137 18.1701 10.9008 19.0541 12.3734C19.0554 12.3295 19.0554 12.2855 19.0554 12.2414C19.0554 8.4132 15.9653 5.34263 12.1324 5.27208ZM11.8663 5.27208C8.03338 5.34263 4.94327 8.4132 4.94327 12.2414C4.94327 12.2855 4.94393 12.3295 4.94459 12.3734C5.82925 10.9008 7.75746 10.137 7.85358 10.0999C11.2954 8.65466 11.8499 5.37468 11.8643 5.28379C11.865 5.27982 11.8656 5.27592 11.8663 5.27208ZM13.8978 11.3654C14.5758 11.3445 14.6955 11.6002 14.6105 11.7292C14.4954 11.904 14.3248 12.0372 14.1241 12.108C15.4272 12.1509 15.2618 11.4016 15.2618 11.4016C15.1578 10.9012 14.5471 10.9402 14.5471 10.9402C15.0486 11.2406 14.7419 11.3347 14.7419 11.3347C13.9161 10.6403 12.9458 11.5108 12.9458 11.5108C13.2008 11.4497 13.4211 11.4102 13.6088 11.3879C13.5454 11.4091 13.4898 11.4406 13.4466 11.4794C13.4761 11.4647 13.512 11.4561 13.5506 11.4561C13.6513 11.4561 13.733 11.5153 13.733 11.5881C13.733 11.6609 13.6513 11.72 13.5506 11.72C13.4493 11.72 13.3675 11.6609 13.3675 11.5881C13.3675 11.5872 13.3675 11.5865 13.3675 11.5856C13.3545 11.6165 13.3466 11.6494 13.3466 11.6835C13.3466 11.8632 13.55 12.0091 13.7998 12.0091C14.0489 12.0091 14.2515 11.8632 14.2515 11.6835C14.2515 11.528 14.0998 11.3978 13.8978 11.3654ZM10.1009 11.3654C9.42282 11.3445 9.30317 11.6002 9.38817 11.7292C9.50325 11.904 9.67456 12.0372 9.87529 12.108C8.57151 12.1509 8.73694 11.4016 8.73694 11.4016C8.8409 10.9012 9.4516 10.9402 9.4516 10.9402C8.95009 11.2406 9.25675 11.3347 9.25675 11.3347C10.0826 10.6403 11.0529 11.5108 11.0529 11.5108C10.7979 11.4497 10.5782 11.4102 10.3899 11.3879C10.4533 11.4091 10.5089 11.4406 10.552 11.4794C10.5226 11.4647 10.4866 11.4561 10.4487 11.4561C10.3474 11.4561 10.2656 11.5153 10.2656 11.5881C10.2656 11.6609 10.3474 11.72 10.4487 11.72C10.5494 11.72 10.6311 11.6609 10.6311 11.5881C10.6311 11.5872 10.6311 11.5865 10.6311 11.5856C10.6449 11.6165 10.6521 11.6494 10.6521 11.6835C10.6521 11.8632 10.4494 12.0091 10.1996 12.0091C9.94983 12.0091 9.74714 11.8632 9.74714 11.6835C9.74714 11.528 9.89883 11.3978 10.1009 11.3654Z" fill="white"/>
</svg>
