<svg width="24" height="24" viewBox="0 0 24 24" fill="none" xmlns="http://www.w3.org/2000/svg">
<path fill-rule="evenodd" clip-rule="evenodd" d="M22 6.04001L20.91 6.95C19.9804 5.84113 18.8191 4.9495 17.5078 4.33789C16.1964 3.72628 14.767 3.40954 13.32 3.41C10.6917 3.41 8.17105 4.45409 6.31256 6.31257C4.45408 8.17106 3.40998 10.6917 3.40998 13.32C3.40591 14.7683 3.72355 16.1994 4.33997 17.51L3.04999 18.11C2.35727 16.6082 1.99903 14.9739 2 13.32C2 10.3178 3.19264 7.43847 5.31555 5.31556C7.43847 3.19265 10.3178 2.00001 13.32 2.00001C14.9741 1.99834 16.6085 2.35919 18.1081 3.05718C19.6077 3.75517 20.9362 4.77333 22 6.04001ZM13.32 5.18001C11.162 5.18265 9.09305 6.0411 7.56708 7.56708C6.04111 9.09305 5.18264 11.162 5.17999 13.32C5.17999 15.4789 6.0376 17.5493 7.56415 19.0759C9.0907 20.6024 11.1611 21.46 13.32 21.46V20.05C12.4367 20.05 11.562 19.8759 10.746 19.5375C9.93007 19.1992 9.18884 18.7033 8.5647 18.0782C7.94056 17.4532 7.44577 16.7112 7.10864 15.8947C6.77152 15.0782 6.59866 14.2033 6.59998 13.32C6.61055 11.5447 7.32324 9.84569 8.58234 8.59408C9.84144 7.34248 11.5447 6.63997 13.32 6.64001C14.302 6.63757 15.2724 6.85134 16.1624 7.26612C17.0525 7.6809 17.8403 8.28653 18.47 9.04001L19.56 8.13C18.7995 7.21115 17.8464 6.47065 16.7681 5.96088C15.6898 5.45111 14.5127 5.18453 13.32 5.18001ZM13.32 10.18C13.7856 10.1785 14.2457 10.28 14.6675 10.477C15.0894 10.6741 15.4624 10.962 15.76 11.32L16.98 10.32C16.5308 9.7869 15.9704 9.35849 15.3382 9.06483C14.7059 8.77116 14.0171 8.61934 13.32 8.62001C12.6928 8.61869 12.0714 8.7411 11.4915 8.98022C10.9116 9.21935 10.3846 9.5705 9.94061 10.0136C9.49662 10.4566 9.14439 10.9829 8.90405 11.5623C8.66371 12.1417 8.53998 12.7628 8.53998 13.39C8.53998 14.6577 9.04358 15.8735 9.94 16.77C10.8364 17.6664 12.0523 18.17 13.32 18.17C13.9654 18.1598 14.602 18.0189 15.1915 17.756C15.781 17.493 16.3112 17.1134 16.75 16.64L15.75 15.36C15.4524 15.718 15.0793 16.0059 14.6575 16.203C14.2357 16.4 13.7756 16.5015 13.31 16.5C12.8907 16.5026 12.475 16.4223 12.0869 16.2637C11.6988 16.1051 11.3459 15.8713 11.0485 15.5757C10.7511 15.2802 10.515 14.9287 10.3539 14.5416C10.1929 14.1545 10.11 13.7393 10.11 13.32C10.11 12.8999 10.1932 12.4839 10.3549 12.0961C10.5165 11.7083 10.7535 11.3564 11.0519 11.0607C11.3504 10.765 11.7045 10.5314 12.0938 10.3734C12.4831 10.2154 12.8999 10.136 13.32 10.14V10.18Z" fill="white"/>
</svg>
