<svg width="24" height="24" viewBox="0 0 24 24" fill="none" xmlns="http://www.w3.org/2000/svg">
<path d="M11.9951 21.9998C17.518 21.9998 21.9951 17.5226 21.9951 11.9998C21.9951 6.47691 17.518 1.99976 11.9951 1.99976C6.47227 1.99976 1.99512 6.47691 1.99512 11.9998C1.99512 17.5226 6.47227 21.9998 11.9951 21.9998Z" fill="url(#paint0_linear_7060_11253)"/>
<path fill-rule="evenodd" clip-rule="evenodd" d="M17.9099 7.66667C18.2947 7.66667 18.6066 7.96515 18.6066 8.33335C18.6066 8.69377 18.3077 8.98744 17.9341 8.99959L17.0829 10.2214L17.0736 10.2345C16.8819 10.5005 16.5676 10.6614 16.23 10.6665L16.2134 10.6667L15.1817 10.6666C15.2784 10.8783 15.3527 11.1014 15.4019 11.3333L17.5956 11.3333L17.6069 11.3332C17.7153 11.3298 17.816 11.2782 17.8791 11.1937L17.8855 11.1849L18.705 10.0085C18.6425 9.90852 18.6066 9.79161 18.6066 9.66667C18.6066 9.29847 18.9185 8.99999 19.3033 8.99999C19.6881 8.99999 20 9.29847 20 9.66667C20 10.0308 19.695 10.3267 19.3161 10.3332L18.4651 11.5547L18.4558 11.5679C18.2641 11.8338 17.9498 11.9948 17.6122 11.9999L17.5956 12L15.4715 12C15.4716 12.2283 15.4476 12.4513 15.4019 12.6667L17.5956 12.6667C17.9395 12.6667 18.2609 12.8285 18.4558 13.0988L18.4651 13.112L19.3161 14.3334C19.695 14.34 20 14.6359 20 15C20 15.3682 19.6881 15.6667 19.3033 15.6667C18.9185 15.6667 18.6066 15.3682 18.6066 15C18.6066 14.8751 18.6425 14.7582 18.705 14.6582L17.8855 13.4818C17.8229 13.392 17.7191 13.337 17.6069 13.3335L17.5956 13.3333L15.1817 13.3334C15.073 13.5714 14.9361 13.7949 14.7751 14.0001L16.2023 14C16.5461 14 16.8676 14.1619 17.0624 14.4321L17.0718 14.4453L17.9227 15.6668C18.3016 15.6733 18.6066 15.9692 18.6066 16.3333C18.6066 16.7015 18.2947 17 17.9099 17C17.5252 17 17.2133 16.7015 17.2133 16.3333C17.2133 16.2084 17.2492 16.0915 17.3117 15.9915L16.4921 14.8151C16.4296 14.7254 16.3257 14.6703 16.2135 14.6669L16.2023 14.6667L14.0784 14.6668C13.4962 15.0853 12.7725 15.3333 11.9882 15.3333C11.2039 15.3333 10.4801 15.0853 9.89788 14.6668L7.79774 14.6667L7.7865 14.6669C7.67805 14.6702 7.57739 14.7218 7.5143 14.8062L7.50793 14.8151L6.68834 15.9916C6.75082 16.0915 6.78672 16.2084 6.78672 16.3333C6.78672 16.7015 6.47481 17 6.09005 17C5.70528 17 5.39336 16.7015 5.39336 16.3333C5.39336 15.9692 5.6984 15.6733 6.07728 15.6668L6.92824 14.4453L6.93757 14.4321C7.12928 14.1662 7.44355 14.0053 7.78115 14.0001L7.79774 14L9.20125 14.0001C9.04017 13.7949 8.9033 13.5714 8.79464 13.3334L6.40439 13.3333L6.39315 13.3335C6.28469 13.3369 6.18401 13.3884 6.12095 13.4729L6.11456 13.4818L5.29497 14.6582C5.35745 14.7582 5.39336 14.8751 5.39336 15C5.39336 15.3682 5.08145 15.6667 4.69668 15.6667C4.31192 15.6667 4 15.3682 4 15C4 14.6359 4.30504 14.34 4.68391 14.3334L5.53488 13.112L5.54421 13.0988C5.73592 12.8329 6.05019 12.6719 6.38777 12.6668L6.40439 12.6667L8.57443 12.6667C8.53144 12.464 8.50765 12.2545 8.50501 12.0402L8.50477 12L6.40439 12C6.06053 12 5.73906 11.8382 5.54421 11.5679L5.53488 11.5547L4.68391 10.3332C4.30504 10.3267 4 10.0308 4 9.66667C4 9.29847 4.31192 8.99999 4.69668 8.99999C5.08145 8.99999 5.39336 9.29847 5.39336 9.66667C5.39336 9.79158 5.35745 9.90849 5.29497 10.0084L6.11456 11.1849C6.17708 11.2747 6.28095 11.3297 6.39315 11.3332L6.40439 11.3333L8.57443 11.3333C8.62365 11.1014 8.69798 10.8783 8.79464 10.6666L7.78657 10.6667C7.44271 10.6667 7.12126 10.5048 6.92641 10.2345L6.91708 10.2214L6.06589 8.99959C5.69231 8.98744 5.39336 8.69377 5.39336 8.33335C5.39336 7.96515 5.70528 7.66667 6.09005 7.66667C6.47481 7.66667 6.78672 7.96515 6.78672 8.33335C6.78672 8.46178 6.74877 8.58175 6.683 8.68351L7.49677 9.85156C7.55927 9.9413 7.66317 9.99637 7.77534 9.99982L7.78657 9.99999L9.20125 9.99992C9.83677 9.19033 10.8486 8.66667 11.9882 8.66667C13.1278 8.66667 14.1396 9.19033 14.7751 9.99992L16.2134 9.99999L16.2247 9.99982C16.3331 9.99647 16.4338 9.94492 16.4969 9.86043L16.5032 9.85156L17.317 8.68351C17.2512 8.58175 17.2133 8.46178 17.2133 8.33335C17.2133 7.96515 17.5252 7.66667 17.9099 7.66667ZM11.9882 9.33335C10.4491 9.33335 9.20143 10.5272 9.20143 12C9.20143 13.4728 10.4491 14.6667 11.9882 14.6667C13.5272 14.6667 14.7749 13.4728 14.7749 12C14.7749 10.5272 13.5272 9.33335 11.9882 9.33335ZM11.9882 9.99999C13.1425 9.99999 14.0782 10.8954 14.0782 12C14.0782 13.1046 13.1425 14 11.9882 14C10.8339 14 9.89812 13.1046 9.89812 12C9.89812 10.8954 10.8339 9.99999 11.9882 9.99999ZM14.4265 6L14.4496 6.00018C15.2085 6.01195 15.8199 6.60432 15.8199 7.33332C15.8199 8.06971 15.1961 8.66667 14.4265 8.66667C13.657 8.66667 13.0332 8.06971 13.0332 7.33332C13.0332 6.9715 13.1838 6.64331 13.4283 6.40309L13.4413 6.39052L14.4265 7.33332V6ZM9.54977 6V7.33332L10.535 6.39052C10.7872 6.63181 10.9431 6.96516 10.9431 7.33332C10.9431 8.06971 10.3193 8.66667 9.54977 8.66667C8.78024 8.66667 8.15642 8.06971 8.15642 7.33332C8.15642 6.60432 8.76783 6.01195 9.52675 6.00018L9.54977 6Z" fill="white"/>
<defs>
<linearGradient id="paint0_linear_7060_11253" x1="11.9951" y1="1.99976" x2="11.9951" y2="21.9998" gradientUnits="userSpaceOnUse">
<stop stop-color="#3916EA"/>
<stop offset="1" stop-color="#BD297C"/>
</linearGradient>
</defs>
</svg>
