<svg width="24" height="24" viewBox="0 0 24 24" fill="none" xmlns="http://www.w3.org/2000/svg">
<path d="M12 22C17.5228 22 22 17.5228 22 12C22 6.47715 17.5228 2 12 2C6.47715 2 2 6.47715 2 12C2 17.5228 6.47715 22 12 22Z" fill="#1F1F1F"/>
<path d="M7.31186 8.28475L12.861 5.08136C13.0508 4.97288 13.2881 4.97288 13.478 5.08136L16.9729 7.0983C17.2678 7.2678 17.3695 7.64407 17.2 7.94237C17.1729 7.98983 17.139 8.03051 17.1017 8.07119L15.9153 9.26102C15.7186 9.46102 15.4102 9.5017 15.1695 9.35932L13.4847 8.38644C13.2881 8.27458 13.0508 8.27458 12.8542 8.38644L7 11.7966V8.81695C7 8.59661 7.11864 8.39322 7.31186 8.28475Z" fill="#FA8C16"/>
<path d="M16.986 16.861L13.4775 18.8881C13.2877 18.9966 13.0504 18.9966 12.8606 18.8881L7.3114 15.6847C7.12157 15.5728 7.00293 15.3695 7.00293 15.1491V12.4474L9.86056 10.7898V13.4983C9.86056 13.7186 9.9792 13.922 10.169 14.0339L12.8572 15.5864C13.047 15.6949 13.2843 15.6949 13.4741 15.5864L15.1758 14.6034C15.4165 14.4644 15.725 14.505 15.9216 14.7017L17.1114 15.8915C17.3521 16.1322 17.3521 16.5254 17.1114 16.7661C17.0741 16.8 17.03 16.8339 16.986 16.861Z" fill="white"/>
</svg>
