<svg width="24" height="24" viewBox="0 0 24 24" fill="none" xmlns="http://www.w3.org/2000/svg">
<path d="M12 22C17.5228 22 22 17.5228 22 12C22 6.47715 17.5228 2 12 2C6.47715 2 2 6.47715 2 12C2 17.5228 6.47715 22 12 22Z" fill="white"/>
<path fill-rule="evenodd" clip-rule="evenodd" d="M8.81279 7.36895C9.53559 6.80326 10.378 6.42773 11.2051 6.42773C11.5198 6.42773 11.7749 6.6908 11.7749 7.0153C11.7749 7.33979 11.5198 7.60291 11.2051 7.60291C10.7026 7.60291 10.0967 7.83943 9.50177 8.30504C8.91303 8.76584 8.37622 9.42032 8.01165 10.1778C7.29116 11.6746 7.2539 13.5247 8.76435 15.1256C9.53341 15.9406 10.3419 16.3099 11.115 16.4089C11.897 16.509 12.6811 16.337 13.391 16.0042C14.1023 15.6708 14.7163 15.1864 15.1464 14.6991C15.3611 14.4558 15.5216 14.2212 15.6258 14.0155C15.7333 13.8032 15.7637 13.6557 15.7637 13.5767C15.7637 13.2522 16.0188 12.9891 16.3335 12.9891C16.6482 12.9891 16.9033 13.2522 16.9033 13.5767C16.9033 13.9138 16.7912 14.253 16.6361 14.5594C16.4776 14.8724 16.2553 15.1886 15.9892 15.4901C15.4578 16.0922 14.7184 16.6729 13.8626 17.074C13.0056 17.4757 12.0089 17.7076 10.9746 17.5751C9.93136 17.4415 8.88794 16.9417 7.94755 15.945C6.0391 13.9224 6.09683 11.5126 6.99084 9.65527C7.43352 8.7356 8.08379 7.93951 8.81279 7.36895Z" fill="#F3AD56"/>
<path fill-rule="evenodd" clip-rule="evenodd" d="M3.60192 8.76553C4.88474 5.49815 8.14786 3 12.9148 3C13.2295 3 13.4846 3.26307 13.4846 3.58759C13.4846 3.9121 13.2295 4.17517 12.9148 4.17517C8.56458 4.17517 5.74969 6.42666 4.65828 9.20653C3.56268 11.9971 4.16455 15.4052 6.83414 17.8368C9.48869 20.2548 12.5559 20.2519 14.9831 18.9777C17.4418 17.687 19.1829 15.1265 19.1829 12.4993C19.1829 12.1748 19.438 11.9117 19.7527 11.9117C20.0675 11.9117 20.3226 12.1748 20.3226 12.4993C20.3226 15.6501 18.2648 18.5736 15.5001 20.025C12.7039 21.4929 9.1233 21.49 6.07965 18.7176C3.05104 15.9589 2.32331 12.0222 3.60192 8.76553Z" fill="black"/>
<path fill-rule="evenodd" clip-rule="evenodd" d="M16.8448 4.89335C16.4 5.65822 15.6102 7.02569 14.8905 8.31962C14.4499 9.11171 14.0392 9.86977 13.7504 10.4433C13.7423 10.4594 13.7343 10.4752 13.7265 10.4909C13.7342 10.4889 13.742 10.4869 13.7499 10.4848C14.3513 10.3281 15.1571 10.0887 16.0036 9.82577C17.3885 9.39557 18.8622 8.90858 19.6839 8.63403C19.3523 8.02041 18.8397 7.11186 18.4478 6.59238C18.0606 6.07898 17.3403 5.36495 16.8448 4.89335ZM16.1099 3.87296C16.3585 3.44766 16.9125 3.37271 17.2622 3.69605C17.6681 4.07141 18.7808 5.11958 19.3474 5.8709C19.9127 6.62028 20.6474 7.994 20.908 8.49111C21.1302 8.91506 20.9334 9.45015 20.4784 9.60338C19.8686 9.80871 18.0357 10.4218 16.3323 10.951C15.4819 11.2151 14.6562 11.4607 14.0291 11.6241C13.7177 11.7053 13.4419 11.7697 13.2319 11.805C13.13 11.8221 13.0214 11.8364 12.9233 11.8373C12.8764 11.8377 12.8045 11.8356 12.7262 11.8172C12.6722 11.8045 12.4763 11.7545 12.3454 11.5521C12.2302 11.3739 12.2419 11.1916 12.245 11.1457C12.2498 11.0723 12.2647 11.0069 12.2768 10.9613C12.3017 10.8671 12.3402 10.7639 12.381 10.6646C12.4647 10.461 12.5898 10.1979 12.739 9.90173C13.0391 9.30579 13.4594 8.53053 13.9019 7.73493C14.7882 6.14153 15.7781 4.44074 16.1099 3.87296Z" fill="black"/>
</svg>
