<svg width="24" height="24" viewBox="0 0 24 24" fill="none" xmlns="http://www.w3.org/2000/svg">
<path d="M12 22C17.5228 22 22 17.5228 22 12C22 6.47715 17.5228 2 12 2C6.47715 2 2 6.47715 2 12C2 17.5228 6.47715 22 12 22Z" fill="#707DEF"/>
<path fill-rule="evenodd" clip-rule="evenodd" d="M14.8248 15.8857C15.4516 16.7364 15.6374 17.0007 15.642 17.0219C15.6467 17.043 15.5825 17.1126 15.4995 17.1763C15.4165 17.2401 15.2523 17.3594 15.1348 17.4415C15.0172 17.5235 14.7824 17.6684 14.6128 17.7634C14.4434 17.8584 14.1432 18.0018 13.9459 18.082C13.7486 18.1622 13.4383 18.2695 13.2564 18.3207C13.0745 18.3717 12.8175 18.4338 12.6853 18.4586C12.5532 18.4834 12.4369 18.4952 12.4271 18.485C12.4172 18.4746 12.3991 18.3659 12.3868 18.2431C12.3644 18.0198 12.3644 18.0198 12.6797 17.9546C12.8532 17.9186 13.1675 17.8329 13.3783 17.7639C13.5891 17.6951 13.9342 17.5537 14.1453 17.4499C14.3564 17.3462 14.63 17.1926 14.7534 17.1089C14.8767 17.0251 14.9729 16.9374 14.9672 16.9142C14.9614 16.8908 14.8781 16.7637 14.7821 16.6316C14.6862 16.4996 14.5631 16.343 14.5087 16.2837C14.4099 16.1758 14.4099 16.1758 14.2379 16.2893C14.1433 16.3517 13.9376 16.4691 13.7808 16.5502C13.6241 16.6313 13.3755 16.7406 13.2285 16.7931C13.0816 16.8458 12.7849 16.9258 12.5694 16.9711C12.2994 17.0278 12.0388 17.0546 11.732 17.0569C11.487 17.0588 11.1431 17.0385 10.9678 17.0118C10.7925 16.985 10.5338 16.9302 10.3929 16.8899C10.2521 16.8497 10.0428 16.778 9.92785 16.7306C9.81291 16.6834 9.60659 16.5851 9.46941 16.5123C9.33223 16.4395 9.09172 16.2918 8.93494 16.184C8.77549 16.0743 8.46786 15.7986 8.23675 15.5581C7.99538 15.307 7.74629 15.0046 7.63766 14.831C7.53538 14.6675 7.38929 14.4 7.31302 14.2365C7.23675 14.073 7.125 13.7814 7.06469 13.5884C7.00438 13.3955 6.93165 13.0862 6.90305 12.901C6.87447 12.7159 6.83892 12.5059 6.82407 12.4344C6.79706 12.3044 6.79706 12.3044 6.0488 12.2858C5.30054 12.2672 5.30054 12.2672 5.30054 12.0443C5.30054 11.8214 5.30054 11.8214 6.0488 11.8028L6.79706 11.7842L6.85719 11.3569C6.89025 11.1219 6.95138 10.8062 6.99303 10.6554C7.03468 10.5046 7.13109 10.2305 7.20728 10.0462C7.28347 9.8619 7.42129 9.57564 7.51354 9.41004C7.60579 9.24444 7.76531 9.00028 7.86803 8.86744C7.97074 8.73461 8.15261 8.52613 8.27217 8.40415C8.39173 8.28218 8.48955 8.15915 8.48955 8.13075C8.48955 8.10236 8.41202 7.97643 8.31727 7.85092C8.22252 7.72541 8.05865 7.50567 7.95311 7.36263C7.84757 7.21957 7.65653 6.95991 7.52856 6.7856C7.40059 6.61129 7.2531 6.41175 7.20079 6.34219C7.10568 6.2157 7.10568 6.2157 6.9026 6.37907C6.79092 6.46893 6.57918 6.68031 6.43209 6.84881C6.28499 7.01731 6.07224 7.28085 5.9593 7.43446C5.84635 7.58807 5.66904 7.85176 5.56528 8.02044C5.46151 8.18911 5.36971 8.36479 5.36128 8.41083C5.34739 8.48656 5.41172 8.52819 6.03586 8.84734C6.41532 9.04138 6.74985 9.21508 6.77925 9.23336C6.82508 9.26184 6.81856 9.29684 6.73346 9.4792C6.6743 9.60596 6.61674 9.68435 6.59093 9.6733C6.56713 9.66312 6.22717 9.49324 5.83548 9.2958C5.13474 8.94257 5.12239 8.93801 5.06538 9.01143C5.03352 9.05247 4.94099 9.2944 4.85978 9.54907C4.77857 9.80373 4.67313 10.2102 4.62548 10.4522C4.57781 10.6944 4.5218 11.0548 4.50101 11.2533C4.48022 11.4517 4.46321 11.8145 4.46321 12.0595C4.46321 12.3045 4.48774 12.7022 4.51773 12.9434C4.54771 13.1846 4.62001 13.5826 4.67838 13.8278C4.73675 14.073 4.80234 14.3196 4.82415 14.3758C4.85281 14.4497 4.88892 14.478 4.95443 14.478C5.00427 14.478 5.17069 14.4278 5.32423 14.3666C5.47778 14.3052 5.73284 14.2034 5.89103 14.1401C6.04922 14.0769 6.18414 14.0309 6.19085 14.0379C6.19756 14.045 6.26899 14.2093 6.34958 14.4031C6.43017 14.597 6.56274 14.8728 6.64418 15.0162C6.72563 15.1595 6.86455 15.3855 6.9529 15.5184C7.04127 15.6512 7.2107 15.875 7.32944 16.0156C7.44817 16.1562 7.67995 16.3946 7.8445 16.5453C8.00905 16.6959 8.27597 16.91 8.43764 17.021C8.59932 17.1321 8.87618 17.2986 9.05286 17.3912C9.22955 17.4838 9.55849 17.6258 9.78378 17.7067C10.0091 17.7878 10.3727 17.8913 10.5917 17.9368C10.9899 18.0195 10.9899 18.0195 10.9668 18.283C10.9541 18.428 10.9285 18.6386 10.9097 18.751C10.8911 18.8634 10.8658 19.067 10.8537 19.2035C10.8314 19.4516 10.8314 19.4516 10.9522 19.4709C11.0185 19.4815 11.2252 19.4984 11.4113 19.5085C11.5975 19.5186 11.9581 19.5124 12.2126 19.4946C12.5571 19.4707 12.6822 19.4737 12.702 19.5062C12.7166 19.5302 12.7288 19.6356 12.7291 19.7406C12.7296 19.9055 12.7189 19.9351 12.6495 19.9592C12.6054 19.9746 12.2086 19.9921 11.7677 19.998C11.2298 20.0054 10.8537 19.9923 10.6248 19.9585C10.4372 19.9307 10.0924 19.8561 9.85872 19.7925C9.62502 19.729 9.24938 19.6071 9.02402 19.5216C8.79865 19.4362 8.43213 19.269 8.20952 19.1502C7.98692 19.0314 7.67425 18.8471 7.51471 18.7405C7.35517 18.6339 7.12041 18.4645 6.99304 18.364C6.86565 18.2634 6.61583 18.0428 6.43787 17.8738C6.25993 17.7046 5.99536 17.4222 5.84996 17.2459C5.70456 17.0697 5.58075 16.9034 5.57483 16.8762C5.5689 16.8492 5.63899 16.763 5.73056 16.6847C5.89706 16.5425 5.89706 16.5425 6.04124 16.7271C6.12054 16.8286 6.36342 17.097 6.58097 17.3235C6.79853 17.5498 7.1332 17.8563 7.3247 18.0045C7.51619 18.1526 7.80926 18.3575 7.97596 18.4598C8.14265 18.5621 8.42661 18.7184 8.60699 18.8071C8.78736 18.8959 9.12735 19.0374 9.3625 19.1219C9.59765 19.2062 9.90766 19.3022 10.0514 19.3353C10.2616 19.3837 10.3182 19.3862 10.3409 19.3479C10.3564 19.3218 10.3799 19.206 10.3931 19.0907C10.4063 18.9754 10.4264 18.7796 10.4378 18.6556C10.4583 18.4303 10.4583 18.4302 10.079 18.3273C9.87042 18.2707 9.56056 18.1659 9.39041 18.0943C9.22029 18.0228 8.99208 17.9174 8.88331 17.8601C8.77453 17.8027 8.5813 17.6921 8.45392 17.6141C8.32654 17.5362 8.18223 17.4415 8.13323 17.4038C8.08424 17.3662 7.93993 17.2515 7.81256 17.149C7.68517 17.0466 7.43911 16.8175 7.26576 16.64C7.0924 16.4625 6.86514 16.2069 6.76072 16.0719C6.6563 15.937 6.49732 15.7081 6.40742 15.5632C6.31753 15.4182 6.18561 15.1775 6.11428 15.0282C6.04295 14.8789 5.96609 14.7354 5.94347 14.7095C5.91067 14.6719 5.79473 14.704 5.36985 14.8686C5.07697 14.982 4.80234 15.0933 4.75957 15.1158C4.7168 15.1382 4.65864 15.1474 4.63033 15.1361C4.60203 15.1248 4.52703 14.9678 4.46366 14.7874C4.40029 14.607 4.29428 14.2337 4.22807 13.9578C4.16185 13.6819 4.08345 13.2673 4.05384 13.0363C4.02423 12.8054 4 12.3449 4 12.0131C4 11.6813 4.02299 11.2182 4.0511 10.9839C4.0792 10.7497 4.15983 10.3244 4.23027 10.0388C4.30071 9.75328 4.43155 9.32692 4.52103 9.09136C4.61053 8.85581 4.76417 8.50424 4.86247 8.3101C4.96077 8.11596 5.12949 7.81499 5.23739 7.64129C5.34529 7.46759 5.52218 7.20843 5.63046 7.06538C5.73875 6.92232 5.97338 6.64903 6.15186 6.45805C6.33035 6.26707 6.60543 5.99735 6.76315 5.85867C6.92088 5.71999 7.21871 5.4882 7.425 5.34359C7.63128 5.19896 8.00662 4.97126 8.25908 4.83757C8.51154 4.70388 8.73039 4.5945 8.74543 4.5945C8.76047 4.5945 8.8 4.64884 8.83327 4.71526C8.86654 4.78167 8.90061 4.87206 8.90896 4.91613C8.92107 4.97995 8.8854 5.02161 8.73358 5.12099C8.62876 5.18961 8.45726 5.29343 8.35246 5.3517C8.24767 5.40998 8.03922 5.53087 7.88926 5.62034C7.73928 5.70981 7.58742 5.80671 7.55177 5.83567C7.48973 5.88607 7.49075 5.89441 7.57594 6.03098C7.62488 6.10943 7.72719 6.25723 7.8033 6.35941C7.87941 6.46159 8.10906 6.77199 8.31361 7.04918C8.51816 7.32638 8.73546 7.618 8.79649 7.69723C8.90745 7.84129 8.90745 7.84129 9.08154 7.72642C9.17729 7.66324 9.37252 7.55083 9.51529 7.47661C9.65814 7.40239 9.91469 7.29323 10.0855 7.23404C10.2561 7.17485 10.5204 7.09993 10.6727 7.06755C10.825 7.03517 11.1081 6.99171 11.3019 6.97098C11.5449 6.94497 11.7794 6.94557 12.0582 6.97292C12.2805 6.99472 12.5587 7.0356 12.6762 7.06377C12.7938 7.09194 12.9474 7.12605 13.0176 7.13957C13.145 7.16415 13.145 7.16415 13.289 6.79894C13.3683 6.59807 13.4435 6.39854 13.4563 6.35555C13.4769 6.28579 13.4534 6.26891 13.2382 6.1989C13.1055 6.15575 12.8286 6.09061 12.6228 6.05415C12.3677 6.00892 12.0615 5.98785 11.6598 5.98785C11.2031 5.98785 10.9739 6.00647 10.6399 6.07069C10.4029 6.11626 10.0426 6.21309 9.83922 6.28587C9.63581 6.35866 9.43981 6.4217 9.40372 6.42597C9.35432 6.43179 9.31996 6.38368 9.26539 6.23246C9.19804 6.04581 9.19707 6.0279 9.25211 5.98593C9.28476 5.96103 9.46711 5.88685 9.65737 5.82107C9.84763 5.75528 10.1958 5.66144 10.4312 5.61254C10.6817 5.56046 11.0685 5.51352 11.3645 5.49925C11.6694 5.48454 12.0305 5.49184 12.2744 5.51763C12.4969 5.54114 12.8306 5.59471 13.016 5.63666C13.2015 5.67861 13.504 5.76643 13.6882 5.83181C13.8724 5.89719 14.0384 5.97626 14.0572 6.00751C14.0816 6.04828 14.0441 6.1847 13.9245 6.49054C13.8328 6.72495 13.734 6.97358 13.705 7.04303C13.676 7.11249 13.6436 7.21447 13.6329 7.26966C13.6153 7.36178 13.6322 7.37995 13.8398 7.49138C13.9641 7.55813 14.1972 7.70412 14.3576 7.81581C14.5181 7.92749 14.7867 8.15278 14.9545 8.31646C15.1223 8.48014 15.2595 8.63799 15.2595 8.66724C15.2595 8.69648 15.2173 8.78693 15.1657 8.86824C15.1141 8.94955 15.0459 9.01595 15.0143 9.01582C14.9826 9.01568 14.8622 8.91475 14.7467 8.79153C14.6313 8.66831 14.5191 8.57348 14.4973 8.5808C14.4756 8.58813 14.2861 8.827 14.0761 9.11164C13.8371 9.43575 13.6707 9.62914 13.6308 9.62914C13.5957 9.62914 13.4631 9.55484 13.3361 9.46401C13.209 9.3732 12.9964 9.25122 12.8634 9.19296C12.7304 9.13469 12.499 9.05434 12.3493 9.01439C12.1555 8.96272 11.9571 8.94176 11.6618 8.94176C11.3582 8.94176 11.166 8.96281 10.946 9.02021C10.7806 9.06336 10.5294 9.15407 10.3877 9.22178C10.246 9.28949 10.0351 9.42118 9.9189 9.51441C9.80266 9.60764 9.59535 9.8122 9.45816 9.96897C9.29506 10.1554 9.15138 10.3709 9.0428 10.5918C8.9515 10.7776 8.84508 11.0466 8.80629 11.1897C8.76627 11.3374 8.72721 11.6265 8.71597 11.8585C8.70027 12.1825 8.7108 12.3408 8.76677 12.6223C8.8056 12.8177 8.89393 13.1051 8.96306 13.2611C9.03219 13.4172 9.14753 13.6372 9.21939 13.7501C9.29123 13.863 9.44104 14.0503 9.55222 14.1664C9.66349 14.2826 9.83975 14.4433 9.94391 14.5237C10.0481 14.6041 10.2486 14.7268 10.3893 14.7964C10.5301 14.866 10.7816 14.9598 10.9481 15.0049C11.1756 15.0664 11.353 15.0866 11.6607 15.0864C11.9997 15.0862 12.1291 15.0686 12.409 14.9849C12.5951 14.9292 12.8465 14.8356 12.9675 14.777C13.0885 14.7183 13.2854 14.5982 13.4053 14.5102C13.5662 14.3918 13.6366 14.3594 13.6751 14.3862C13.7037 14.406 13.8454 14.5786 13.99 14.7696C14.1347 14.9606 14.3072 15.1898 14.3732 15.279C14.4394 15.3681 14.5045 15.4375 14.5179 15.4333C14.5313 15.429 14.6186 15.3538 14.7117 15.2663C14.8048 15.1787 14.8981 15.1141 14.9189 15.1225C14.9397 15.131 15.0097 15.207 15.0745 15.2914C15.1923 15.445 15.1923 15.445 15.0086 15.6654L14.8248 15.8857ZM14.5809 19.4198C14.5632 19.4198 14.5239 19.3696 14.4934 19.3084C14.4631 19.2471 14.4289 19.1483 14.4175 19.0889C14.3972 18.983 14.4056 18.9761 14.8321 18.7494C15.0715 18.6221 15.4317 18.405 15.6326 18.2669C15.8335 18.1288 16.154 17.8782 16.3448 17.7099C16.6814 17.4131 16.6936 17.4061 16.7548 17.4737C16.7894 17.512 16.856 17.5991 16.9027 17.6672C16.9875 17.791 16.9875 17.791 16.8273 17.9366C16.7391 18.0167 16.5227 18.197 16.3463 18.3374C16.1699 18.4776 15.8973 18.677 15.7405 18.7803C15.5838 18.8837 15.2659 19.0699 15.0342 19.194C14.8025 19.3182 14.5985 19.4198 14.5809 19.4198ZM15.4249 7.19542C15.3992 7.19542 15.316 7.13929 15.2399 7.07069C15.125 6.96715 15.1074 6.93347 15.136 6.87239C15.1549 6.83191 15.3056 6.61634 15.4707 6.39333C15.6358 6.17031 15.7772 5.95389 15.7851 5.91238C15.7967 5.85062 15.732 5.79507 15.4286 5.60662C15.2247 5.47997 14.8988 5.299 14.7044 5.20448C14.51 5.10995 14.1825 4.97439 13.9768 4.90322C13.771 4.83206 13.4414 4.73546 13.2442 4.68856C13.0471 4.64166 12.7184 4.58315 12.5138 4.55856C12.3091 4.53396 11.9415 4.50272 11.6968 4.48914C11.2517 4.46445 11.2517 4.46445 11.2253 4.27867C11.2108 4.17649 11.2061 4.07199 11.2149 4.04645C11.2266 4.01254 11.3554 4 11.6919 4C11.9456 4 12.3509 4.02658 12.5928 4.05908C12.8346 4.09158 13.2478 4.17601 13.511 4.24671C13.7741 4.31741 14.1428 4.43449 14.3305 4.5069C14.5181 4.5793 14.8337 4.72073 15.0319 4.82118C15.23 4.92164 15.5292 5.09354 15.6966 5.20319C15.8641 5.31284 16.1264 5.5008 16.2795 5.62089C16.4326 5.74097 16.6545 5.92693 16.7727 6.03412C16.891 6.14132 16.993 6.25496 16.9995 6.28666C17.006 6.31835 16.9524 6.41918 16.8806 6.51071C16.7498 6.67711 16.7498 6.67711 16.5034 6.44931C16.3625 6.3191 16.2358 6.22996 16.2076 6.24125C16.1805 6.25211 16.0643 6.39133 15.9494 6.55063C15.8345 6.70992 15.68 6.92017 15.6061 7.01784C15.5321 7.11551 15.4506 7.19542 15.4249 7.19542Z" fill="white"/>
</svg>
