<svg width="24" height="24" viewBox="0 0 24 24" fill="none" xmlns="http://www.w3.org/2000/svg">
<path d="M12 2C17.5 2 22 6.5 22 12C22 17.5 17.5 22 12 22C6.5 22 2 17.5 2 12C2 6.5 6.5 2 12 2Z" fill="url(#paint0_linear_6895_11371)"/>
<path d="M17.9504 10.35H16.7504C16.1004 8.55 14.3504 7.25 12.3504 7.25H8.25039V10.35H6.90039V11.45H8.20039V12.6H6.90039V13.7H8.20039V16.75H12.3004C14.3004 16.75 16.0504 15.5 16.7004 13.7H17.9004V12.6H17.0004C17.0004 12.4 17.0504 12.2 17.0504 12C17.0504 11.8 17.0504 11.65 17.0004 11.45H17.9504V10.35ZM9.30039 8.3H12.3004C13.7504 8.3 14.9504 9.15 15.5504 10.35H9.30039V8.3ZM12.3004 15.7H9.30039V13.7H15.5004C14.9504 14.85 13.7004 15.7 12.3004 15.7ZM15.9004 11.9V12.05C15.9004 12.25 15.9004 12.4 15.8504 12.55H9.30039V11.4H15.8504C15.9004 11.6 15.9004 11.75 15.9004 11.9Z" fill="white"/>
<defs>
<linearGradient id="paint0_linear_6895_11371" x1="4.9285" y1="19.0715" x2="19.0715" y2="4.9285" gradientUnits="userSpaceOnUse">
<stop stop-color="#F9AF1A"/>
<stop offset="1" stop-color="#FBC349"/>
</linearGradient>
</defs>
</svg>
