<svg width="24" height="24" viewBox="0 0 24 24" fill="none" xmlns="http://www.w3.org/2000/svg">
<path fill-rule="evenodd" clip-rule="evenodd" d="M12 2C17.5228 2 22 6.47715 22 12C22 17.5228 17.5228 22 12 22C6.47715 22 2 17.5228 2 12C2 6.47715 6.47715 2 12 2ZM18.0763 14.4391C17.3523 16.0213 15.9992 17.2556 14.337 17.8217C14.1299 17.1177 13.4788 16.6037 12.7077 16.6037C11.8598 16.6037 11.1571 17.225 11.0301 18.0372C8.11299 17.4553 5.91476 14.8806 5.91476 11.7925C5.91476 10.491 6.30519 9.28071 6.97531 8.27237C7.17224 8.35224 7.38756 8.39623 7.61315 8.39623C8.55099 8.39623 9.31127 7.63596 9.31127 6.69811C9.31127 6.52438 9.28518 6.35674 9.2367 6.1989C10.1415 5.70515 11.1793 5.42453 12.2827 5.42453C15.676 5.42453 18.4494 8.07868 18.6401 11.4242C17.9133 11.6165 17.3774 12.2787 17.3774 13.066C17.3774 13.6303 17.6527 14.1303 18.0763 14.4391ZM18.449 14.6448C17.6634 16.3403 16.1992 17.6572 14.4049 18.2468C14.4055 18.2651 14.4058 18.2834 14.4058 18.3018C14.4058 19.2396 13.6455 19.9999 12.7077 19.9999C11.8257 19.9999 11.1007 19.3275 11.0175 18.4673C7.87074 17.8745 5.49023 15.1115 5.49023 11.7925C5.49023 10.4155 5.89993 9.13431 6.60408 8.06403C6.18606 7.7547 5.91504 7.25806 5.91504 6.69811C5.91504 5.76027 6.67531 5 7.61315 5C8.22583 5 8.76273 5.32447 9.06137 5.81095C10.0199 5.29363 11.117 5 12.2827 5C15.8915 5 18.843 7.81432 19.0621 11.3679C19.0666 11.3679 19.0711 11.3679 19.0756 11.3679C20.0134 11.3679 20.7737 12.1282 20.7737 13.066C20.7737 14.0038 20.0134 14.7641 19.0756 14.7641C18.8543 14.7641 18.6429 14.7218 18.449 14.6448ZM15.9615 11.7926C15.9615 13.8246 14.3143 15.4718 12.2823 15.4718C10.2503 15.4718 8.60303 13.8246 8.60303 11.7926C8.60303 9.76057 10.2503 8.11332 12.2823 8.11332C14.3143 8.11332 15.9615 9.76057 15.9615 11.7926Z" fill="white"/>
</svg>
