<svg width="24" height="24" viewBox="0 0 24 24" fill="none" xmlns="http://www.w3.org/2000/svg">
<path d="M12 22C17.5228 22 22 17.5228 22 12C22 6.47715 17.5228 2 12 2C6.47715 2 2 6.47715 2 12C2 17.5228 6.47715 22 12 22Z" fill="#54B198"/>
<path fill-rule="evenodd" clip-rule="evenodd" d="M8.3089 7.47238C7.60987 6.83922 7.10388 6.23927 7.10388 6.23927C7.05546 6.18247 7.05788 6.09273 7.10811 6.03885C7.15896 5.98504 7.23885 5.98742 7.28665 6.04416C7.28665 6.04416 7.85862 6.72167 8.6218 7.38898C8.62421 7.38878 8.62665 7.38871 8.62968 7.38863C9.28936 7.38707 9.94847 7.08338 9.94847 7.08338C10.0126 7.05372 10.0865 7.08849 10.1125 7.16086C10.1391 7.23325 10.1082 7.31605 10.0441 7.3457C10.0441 7.3457 9.52723 7.58314 8.93531 7.65299C8.95225 7.66682 8.96981 7.68054 8.98675 7.69423C9.59925 8.18227 10.2868 8.60834 10.8835 8.65515C11.2557 8.68426 11.703 8.70806 12.1902 8.6923C11.349 8.42486 10.7141 8.02553 10.7141 8.02553C10.6535 7.98737 10.6318 7.90091 10.6663 7.83266C10.7001 7.76442 10.777 7.74 10.8376 7.77824C10.8376 7.77824 11.3206 8.08213 11.9959 8.3301C11.7055 8.0745 11.5166 7.84546 11.5166 7.84546C11.4688 7.78809 11.4719 7.6983 11.5233 7.64516C11.5741 7.59197 11.654 7.59538 11.7012 7.65279C11.7012 7.65279 12.1854 8.2401 12.7828 8.55392C12.787 8.55602 12.7907 8.55834 12.7949 8.56085C12.8923 8.58092 12.9916 8.59807 13.0908 8.61153C13.0951 8.61215 13.0993 8.61289 13.1036 8.61392C14.0259 8.48071 15.007 8.16036 15.8507 7.46511C14.7939 7.91306 13.8074 8.02164 13.8074 8.02164C13.7385 8.02927 13.6767 7.97227 13.6701 7.89443C13.6628 7.81654 13.7137 7.74714 13.7832 7.73954C13.7832 7.73954 15.237 7.57979 16.4783 6.83943C16.4801 6.8382 16.4825 6.83705 16.4844 6.83596C16.5842 6.71657 16.6811 6.58983 16.7742 6.45533C16.8172 6.39356 16.8965 6.3824 16.9516 6.43044C17.0061 6.47846 17.0163 6.56758 16.9734 6.62935C16.3482 7.5332 15.5626 8.1011 14.7413 8.45153C15.4821 8.41554 16.0141 8.24703 16.0141 8.24703C16.0807 8.22581 16.1509 8.26969 16.1696 8.34491C16.1884 8.42025 16.1497 8.4986 16.0825 8.51982C16.0825 8.51982 15.2673 8.77922 14.2372 8.73699C13.9515 8.99693 13.647 9.21625 13.3626 9.39524C13.3366 9.41171 13.2537 9.46789 13.233 9.4749C12.6575 9.82078 12.1945 9.99281 12.1945 9.99281C12.1285 10.0174 12.0571 9.97697 12.0353 9.90274C12.0135 9.82846 12.0499 9.74826 12.1158 9.72369C12.1158 9.72369 12.1243 9.72049 12.14 9.71416C11.677 9.76633 11.3599 9.74396 11.3599 9.74396C11.2903 9.73912 11.2376 9.67177 11.2419 9.59375C11.2461 9.51565 11.306 9.45619 11.3756 9.46108C11.3756 9.46108 12.2133 9.51911 13.1393 9.21062C13.345 9.0857 13.5653 8.93787 13.782 8.76706C12.7386 9.01905 11.7151 8.99977 10.9604 8.94502C10.9428 8.96278 10.9332 8.97666 10.9156 8.9891C10.3733 9.37251 9.23189 9.5521 9.23189 9.5521C9.16288 9.5594 9.10114 9.50204 9.0945 9.42415C9.08844 9.34625 9.13927 9.27714 9.20889 9.26987C9.20889 9.26987 9.62407 9.22633 10.1325 9.04536C9.48486 9.07293 8.96255 8.94732 8.96255 8.94732C8.89416 8.93099 8.85058 8.85563 8.8651 8.77909C8.88022 8.70264 8.94681 8.6538 9.0152 8.6701C9.0152 8.6701 9.54175 8.79658 10.1809 8.75956C9.73241 8.57399 9.2688 8.26636 8.84089 7.92553C8.81426 7.90423 8.78763 7.88286 8.76101 7.86143C8.73619 7.8634 8.70289 7.86492 8.68172 7.86184C8.07527 7.77553 7.05909 7.16155 7.05909 7.16155C7.00039 7.11991 6.98223 7.03236 7.01915 6.9661C7.05667 6.8999 7.13474 6.87997 7.19346 6.92161C7.19346 6.92161 7.6734 7.26095 8.3089 7.47238Z" fill="white"/>
<path fill-rule="evenodd" clip-rule="evenodd" d="M15.2522 10.0263C14.8298 9.71111 14.4181 9.46682 14.0194 9.28201C14.1041 9.22628 14.1895 9.16755 14.2748 9.10589C14.8467 9.38932 15.4422 9.7912 16.0552 10.3419C16.0963 10.3787 16.1101 10.4368 16.0939 10.4875C16.1045 10.5202 16.1026 10.5571 16.087 10.5903C15.884 11.0178 15.7045 11.5214 15.753 11.9985C15.7861 12.3231 15.8851 12.6175 15.9631 12.9164C16.0471 13.2397 16.1082 13.5678 16.0565 13.9369C15.9892 14.4145 15.7811 14.8199 15.5519 15.2158C15.3363 15.5879 15.102 15.9513 14.9681 16.3684C14.7058 17.1824 14.9177 18.0249 15.0012 18.8501C15.0087 18.9245 14.9569 18.9913 14.8859 18.9992C14.8143 19.0071 14.7507 18.9531 14.7432 18.8787C14.6554 18.0154 14.448 17.1337 14.7215 16.282C14.8616 15.8459 15.1046 15.4644 15.3295 15.0753C15.5413 14.7101 15.7375 14.3381 15.7992 13.8975C15.8303 13.6778 15.8147 13.4746 15.7786 13.2779C15.4516 14.7194 14.3539 16.3534 12.5685 17.3403C12.3691 17.4501 12.4009 17.4419 12.1442 17.4846H12.0626C11.8458 17.4842 11.6315 17.4349 11.4359 17.3403C9.60874 16.4561 8.50172 14.7601 8.16779 13.3038C8.13479 13.4923 8.12234 13.6874 8.15162 13.8975C8.21329 14.3381 8.4095 14.7101 8.62132 15.0753C8.84622 15.4644 9.08918 15.8459 9.22935 16.282C9.50283 17.1337 9.29538 18.0154 9.20816 18.8787C9.20008 18.9531 9.13653 19.0071 9.06487 18.9992C8.99385 18.9913 8.94216 18.9245 8.94964 18.8501C9.03372 18.0249 9.24492 17.1824 8.98328 16.3684C8.84934 15.9513 8.61447 15.5879 8.39893 15.2158C8.16967 14.8199 7.96161 14.4145 7.89495 13.9369C7.84324 13.5678 7.90367 13.2397 7.98777 12.9164C8.06564 12.6175 8.1647 12.3231 8.1977 11.9985C8.24629 11.5214 8.06688 11.0178 7.8638 10.5903C7.84823 10.5571 7.84696 10.5202 7.85695 10.4874C7.8426 10.4422 7.85196 10.3904 7.88499 10.3529C7.88499 10.3529 8.27557 9.90802 8.96333 9.45724C9.00819 9.54228 9.08107 9.60799 9.16766 9.64217C8.89669 9.81485 8.67117 9.98877 8.49673 10.1368C10.4105 9.61931 11.292 10.2639 11.4147 10.3626L11.4285 10.3738C11.454 10.3976 11.4733 10.432 11.4801 10.465C11.4945 10.5536 11.8196 12.6457 11.5792 13.2988C11.5611 13.349 11.5144 13.3822 11.4627 13.3821C11.5667 13.2356 11.5474 12.644 11.5474 12.4317C11.548 12.055 11.3375 11.1407 11.2422 10.5525C11.0771 10.4332 10.1208 9.84441 8.12171 10.523C8.33476 10.9833 8.50732 11.5199 8.45625 12.0272C8.43318 12.254 8.38023 12.4669 8.32292 12.6766C8.44502 14.1685 9.54706 16.1467 11.5456 17.1125C11.7075 17.1905 11.8844 17.2311 12.0638 17.2315H12.1044V17.2315L12.1442 17.2309C12.341 17.1851 12.2969 17.1906 12.4582 17.1125C14.4611 16.1441 15.5008 14.1606 15.6198 12.6676L15.6254 12.6681C15.5693 12.4612 15.5176 12.2509 15.4952 12.0272C15.4441 11.5276 15.6111 10.9997 15.8198 10.5441C15.8035 10.5417 15.788 10.5363 15.7736 10.5282C14.3614 9.72662 13.1889 10.5816 13.0139 10.7235C12.9479 10.893 12.9229 11.0759 12.9429 11.2568C12.9429 11.2614 12.9435 11.2659 12.9435 11.2705C12.9435 11.3368 12.8924 11.3932 12.8257 11.4L12.8121 11.3961C12.7454 11.3965 12.6881 11.3458 12.6812 11.2796C12.6563 11.0446 12.6918 10.8073 12.7834 10.5894L12.7965 10.5633L12.8195 10.5438C12.8313 10.5336 13.8754 9.63938 15.2522 10.0263ZM17.4737 11.4798C17.4382 11.3644 17.4102 11.2452 17.3927 11.1209C17.3404 10.7601 17.4009 10.4394 17.4855 10.1233C17.5635 9.83216 17.6625 9.54535 17.6955 9.22941C17.7435 8.77003 17.5952 8.27516 17.3691 7.8727C17.346 7.84021 17.2077 7.64864 16.9548 7.38316C17.0171 7.32144 17.0781 7.25769 17.1386 7.19174C17.4339 7.5024 17.5833 7.71884 17.5833 7.71884L17.5896 7.72932C17.7148 7.95173 17.8183 8.19982 17.8843 8.45619C17.8905 8.46249 17.8955 8.46959 17.9004 8.47734C18.6337 9.64139 19 11.0346 19 12.5313C19 12.6061 18.9421 12.6669 18.8704 12.6669C18.7988 12.6669 18.7402 12.6061 18.7402 12.5313C18.7402 11.2918 18.4973 10.126 17.9634 9.11076C17.9615 9.1604 17.9584 9.20974 17.9534 9.25872C17.9191 9.58994 17.8176 9.89116 17.736 10.1964C17.6606 10.4767 17.6033 10.7607 17.6494 11.0807C17.7111 11.5094 17.9067 11.8715 18.1179 12.227C18.3434 12.6066 18.5864 12.979 18.7265 13.4045C19.0006 14.2358 18.7932 15.0965 18.7053 15.9391C18.6979 16.0136 18.6337 16.0674 18.5627 16.0593C18.491 16.0512 18.4399 15.9842 18.4474 15.9098C18.5309 15.1062 18.7421 14.2856 18.4811 13.4929C18.3471 13.0865 18.1129 12.7326 17.8974 12.37C17.784 12.1787 17.6756 11.985 17.5865 11.7815C17.0121 12.6615 16.9199 13.555 16.9573 14.4755C16.9978 15.4917 17.194 16.5408 17.1124 17.6412C17.1068 17.7159 17.0445 17.7718 16.9735 17.766C16.9018 17.7602 16.8483 17.6949 16.8539 17.6203C16.9342 16.5311 16.7386 15.4929 16.6975 14.487C16.6558 13.4578 16.7735 12.4623 17.4737 11.4798ZM6.42722 11.7701C6.33752 11.9776 6.22725 12.1751 6.11138 12.37C5.89584 12.7326 5.6616 13.0865 5.52766 13.4929C5.26664 14.2856 5.47782 15.1062 5.5613 15.9098C5.56939 15.9842 5.51769 16.0512 5.44667 16.0593C5.37503 16.0674 5.31086 16.0136 5.30339 15.9391C5.21555 15.0965 5.0081 14.2358 5.28221 13.4045C5.42237 12.979 5.66534 12.6066 5.89085 12.227C6.10204 11.8715 6.29765 11.5094 6.35932 11.0807C6.40542 10.7607 6.34811 10.4767 6.27336 10.1964C6.19174 9.89116 6.08958 9.58994 6.05531 9.25872C6.04971 9.20454 6.04597 9.15004 6.04472 9.09527C5.50523 10.114 5.25915 11.2854 5.25915 12.5313C5.25915 12.6061 5.20122 12.6669 5.12958 12.6669C5.05794 12.6669 5 12.6061 5 12.5313C5 11.0346 5.36568 9.64139 6.09892 8.47734C6.10515 8.46798 6.11201 8.45957 6.11948 8.45227C6.18365 8.19825 6.28705 7.95149 6.42038 7.7265C6.42225 7.7241 6.42349 7.72175 6.42535 7.71947C6.42535 7.71947 6.56116 7.51992 6.83154 7.22886C6.86019 7.27124 6.89757 7.30855 6.9418 7.3379C6.94678 7.34117 6.95177 7.3443 6.95737 7.34721C6.95737 7.34721 6.98727 7.3641 7.04085 7.39254C6.79166 7.65808 6.6571 7.84743 6.63841 7.87387C6.3967 8.28227 6.26526 8.77043 6.31323 9.22941C6.34624 9.54535 6.4453 9.83216 6.52316 10.1233C6.60789 10.4394 6.66832 10.7601 6.61662 11.1209C6.59917 11.2408 6.57238 11.356 6.53874 11.4675C7.24706 12.4538 7.36541 13.4534 7.32368 14.487C7.28319 15.4929 7.08695 16.5311 7.16731 17.6203C7.17292 17.6949 7.11934 17.7602 7.04833 17.766C6.97669 17.7718 6.91439 17.7159 6.90878 17.6412C6.82717 16.5408 7.02341 15.4917 7.06452 14.4755C7.1019 13.5509 7.00783 12.6537 6.42722 11.7701ZM12.6993 15.6191C12.6388 15.7356 12.5404 15.8256 12.422 15.873C12.3062 15.9231 12.1822 15.9486 12.0564 15.9479C11.9312 15.9486 11.8066 15.922 11.6907 15.8698C11.5723 15.8214 11.4745 15.7286 11.4172 15.6093C11.5169 15.6647 11.624 15.7024 11.7349 15.7206C11.8414 15.7402 11.9492 15.75 12.057 15.75C12.1654 15.7507 12.2732 15.7421 12.3791 15.7239C12.4906 15.7075 12.599 15.6721 12.6993 15.6191ZM12.9179 15.3039C12.9117 15.2148 12.7311 15.1822 12.5797 15.1028C12.4283 15.0233 12.3305 15.0136 12.2059 15.093C12.1667 15.1229 12.1205 15.1424 12.072 15.1497L12.0682 15.1457C12.0657 15.1464 12.0626 15.1464 12.0595 15.1457C12.057 15.1464 12.0545 15.1464 12.0514 15.1457L12.047 15.1497C11.9991 15.1417 11.953 15.1224 11.9131 15.093C11.7885 15.0136 11.6888 15.0233 11.5393 15.1028C11.3898 15.1822 11.2079 15.2148 11.2016 15.3039C11.1954 15.3932 11.2173 15.453 11.4098 15.4498C11.6023 15.4465 11.7536 15.3737 11.8496 15.4264C11.8938 15.4602 11.9411 15.4891 11.9903 15.5123C12.0377 15.5253 12.0869 15.5253 12.1336 15.5123C12.1835 15.4889 12.2308 15.4601 12.275 15.4264C12.3704 15.3737 12.5242 15.4465 12.7111 15.4498C12.898 15.453 12.9241 15.3938 12.9179 15.3039ZM12.4364 14.1684C12.4644 14.1307 12.4906 14.0913 12.5143 14.0505C12.5279 14.0271 12.5436 14.0052 12.5616 13.9854C12.5809 13.9664 12.6015 13.9498 12.6239 13.9359C12.6632 13.9111 12.7012 13.8839 12.7373 13.8545C12.7846 13.8924 12.8102 13.9529 12.8046 14.0147C12.8014 14.0733 12.7778 14.1286 12.7373 14.1697C12.6974 14.2112 12.6451 14.2362 12.5884 14.24C12.5298 14.2443 12.4725 14.2174 12.4364 14.1684ZM11.7903 14.1684C11.7542 14.217 11.6963 14.2434 11.6371 14.2387C11.5219 14.2306 11.4291 14.1339 11.421 14.0134C11.4166 13.9517 11.4422 13.8915 11.4882 13.8532C11.525 13.8831 11.563 13.9102 11.6023 13.9346C11.6247 13.9487 11.6458 13.9653 11.6646 13.9841C11.6826 14.0042 11.6982 14.026 11.7119 14.0492C11.7368 14.0904 11.763 14.1302 11.7903 14.1684ZM9.85854 11.4189L9.85357 11.4201C9.54271 11.5074 9.16205 11.4993 8.91101 11.2572C8.90541 11.2518 8.8593 11.1771 8.86803 11.1797C8.96024 11.2071 9.02128 11.2274 9.11722 11.2154C9.32715 11.1894 9.52402 11.1051 9.72896 11.0563C9.94824 11.0038 10.1619 11.0175 10.3793 11.0745C10.6466 11.1443 10.8914 11.2907 11.1013 11.4747C10.9307 11.4399 10.7469 11.4042 10.5606 11.3839C10.5961 11.4478 10.6173 11.5225 10.6173 11.6025C10.6173 11.8375 10.4385 12.0281 10.218 12.0281C9.9981 12.0281 9.8193 11.8375 9.8193 11.6025C9.8193 11.5367 9.83362 11.4745 9.85854 11.4189ZM13.7583 11.3839C13.5721 11.4042 13.3883 11.4399 13.2176 11.4747C13.4276 11.2907 13.6724 11.1443 13.9396 11.0745C14.1571 11.0175 14.3701 11.0038 14.59 11.0563C14.795 11.1051 14.9918 11.1894 15.2018 11.2154C15.2977 11.2274 15.3587 11.2071 15.4509 11.1797C15.4597 11.1771 15.4135 11.2518 15.4079 11.2572C15.1563 11.4993 14.7763 11.5074 14.4654 11.4201L14.4604 11.4189C14.4853 11.4745 14.4996 11.5367 14.4996 11.6025C14.4996 11.8375 14.3208 12.0281 14.1003 12.0281C13.8804 12.0281 13.7016 11.8375 13.7016 11.6025C13.7016 11.5225 13.7228 11.4478 13.7583 11.3839ZM14.2679 11.4184C14.3639 11.4087 14.448 11.4616 14.4548 11.5363C14.4617 11.6111 14.3888 11.6796 14.2929 11.6893C14.1963 11.6989 14.1128 11.646 14.106 11.5713C14.0991 11.4965 14.172 11.4279 14.2679 11.4184ZM10.3856 11.4184C10.4815 11.4087 10.565 11.4616 10.5718 11.5363C10.5787 11.6111 10.5064 11.6796 10.4105 11.6893C10.3139 11.6989 10.2305 11.646 10.2236 11.5713C10.2168 11.4965 10.289 11.4279 10.3856 11.4184ZM8.11299 10.4963L8.11051 10.4991L8.12108 10.5226L8.11299 10.4963ZM11.6651 5.2757C10.1345 5.33039 8.94901 5.88412 8.11423 6.46675C8.04384 6.40021 7.97781 6.33692 7.91799 6.27799C8.84747 5.61637 10.2087 4.98053 11.9934 5.00046C14.0922 4.97715 15.6117 5.85983 16.5318 6.62544C16.4452 6.67096 16.3567 6.71386 16.2689 6.75436C15.426 6.07965 14.1047 5.33924 12.3218 5.2757C12.3081 5.27973 12.2937 5.28156 12.2794 5.28077C12.1828 5.27582 12.0876 5.27283 11.9934 5.27178C11.8994 5.27283 11.8041 5.27582 11.7069 5.28077C11.6926 5.28156 11.6782 5.27973 11.6651 5.2757Z" fill="white"/>
</svg>
