<svg width="24" height="24" viewBox="0 0 24 24" fill="none" xmlns="http://www.w3.org/2000/svg">
<path d="M12 22C17.5228 22 22 17.5228 22 12C22 6.47715 17.5228 2 12 2C6.47715 2 2 6.47715 2 12C2 17.5228 6.47715 22 12 22Z" fill="white"/>
<path fill-rule="evenodd" clip-rule="evenodd" d="M9.7691 19C8.27578 19 7.05276 18.9993 7.05127 18.9983C7.04979 18.9974 7.0483 18.9943 7.04797 18.9914C7.04744 18.9867 7.04878 18.9856 7.05838 18.9825C7.06444 18.9805 7.08476 18.9749 7.10354 18.97C7.12232 18.9651 7.15008 18.9577 7.16522 18.9536C7.18037 18.9495 7.24704 18.9315 7.31338 18.9137C7.37973 18.8959 7.45729 18.875 7.48575 18.8672C7.51421 18.8594 7.55684 18.8478 7.58047 18.8413C7.60411 18.8348 7.64104 18.8246 7.66254 18.8187C7.68404 18.8128 7.72592 18.8012 7.75561 18.7929C7.78529 18.7847 7.86361 18.7628 7.92964 18.7442C7.99567 18.7257 8.06978 18.7047 8.09433 18.6976C8.11888 18.6905 8.15655 18.6797 8.17804 18.6736C8.19954 18.6675 8.24215 18.6553 8.27273 18.6465C8.30331 18.6377 8.43268 18.5998 8.56021 18.5624C8.68775 18.525 8.80201 18.4913 8.81412 18.4877C8.82624 18.484 8.84507 18.4783 8.85598 18.4749C8.86688 18.4716 8.92611 18.4537 8.98759 18.4352C9.04907 18.4166 9.12317 18.3942 9.15226 18.3853C9.18135 18.3765 9.22894 18.3619 9.25801 18.3529C9.28708 18.344 9.33887 18.328 9.37311 18.3174C9.40734 18.3068 9.46212 18.2898 9.49483 18.2795C9.52755 18.2693 9.58182 18.2522 9.61545 18.2416C9.64907 18.231 9.70432 18.2134 9.73822 18.2027C9.77212 18.1919 9.83631 18.1714 9.88086 18.1572C9.92541 18.1429 10.0412 18.1054 10.1381 18.0738C10.235 18.0422 10.3684 17.9984 10.4344 17.9765C10.5004 17.9545 10.5701 17.9313 10.5892 17.9249C10.6082 17.9185 10.6603 17.9011 10.7048 17.8861C10.7493 17.8711 10.7969 17.8551 10.8105 17.8504C10.8242 17.8458 10.8581 17.8342 10.886 17.8247C10.9139 17.8151 10.9664 17.7971 11.0027 17.7847C11.0391 17.7722 11.0795 17.7583 11.0925 17.7539C11.112 17.7472 11.1163 17.745 11.1169 17.7411C11.1175 17.7369 11.1193 17.7362 11.1323 17.7352C11.142 17.7344 11.1615 17.7292 11.1889 17.7201C11.2119 17.7124 11.2602 17.6959 11.2963 17.6833C11.3323 17.6707 11.3826 17.6531 11.4081 17.6442C11.4335 17.6353 11.4722 17.6218 11.494 17.614C11.5158 17.6063 11.553 17.5932 11.5766 17.5848C11.6002 17.5765 11.6359 17.5638 11.6559 17.5567C11.6759 17.5496 11.7071 17.5384 11.7253 17.5319C11.7435 17.5254 11.773 17.5149 11.7909 17.5084C11.8087 17.502 11.8533 17.4859 11.89 17.4727C11.9266 17.4595 11.9737 17.4425 11.9946 17.4349C12.0155 17.4273 12.0582 17.4118 12.0894 17.4004C12.1206 17.389 12.1699 17.3709 12.199 17.3601C12.228 17.3494 12.2756 17.3319 12.3047 17.3212C12.3337 17.3104 12.3719 17.2963 12.3894 17.2897C12.407 17.2832 12.4315 17.274 12.444 17.2693C12.4564 17.2647 12.4768 17.257 12.4892 17.2522C12.5017 17.2475 12.5301 17.2367 12.5525 17.2283C12.5749 17.2199 12.6133 17.2054 12.6378 17.1962C12.6624 17.1869 12.706 17.1704 12.7348 17.1595C12.7635 17.1485 12.8074 17.1318 12.8323 17.1224C12.8571 17.1129 12.8978 17.0974 12.9226 17.0878C12.9474 17.0783 12.9839 17.0643 13.0037 17.0567C13.0234 17.0492 13.0675 17.0322 13.1017 17.0189C13.1358 17.0056 13.2612 16.9564 13.3802 16.9096C13.4993 16.8628 13.6185 16.8158 13.6452 16.8051C13.6718 16.7945 13.7219 16.7744 13.7564 16.7606C13.791 16.7467 13.8326 16.73 13.8489 16.7234C13.8653 16.7168 13.8936 16.7053 13.9117 16.6979C13.9299 16.6905 13.979 16.6706 14.0208 16.6536C14.0626 16.6366 14.1067 16.6186 14.1188 16.6137C14.1309 16.6087 14.1673 16.5937 14.1997 16.5804C14.2321 16.5671 14.2879 16.5441 14.3237 16.5293C14.3594 16.5144 14.4085 16.4941 14.4328 16.484C14.457 16.474 14.5175 16.4487 14.5671 16.4278C14.6168 16.407 14.6899 16.3762 14.7296 16.3595C14.7693 16.3428 14.8126 16.3244 14.826 16.3186C14.8393 16.3129 14.8767 16.2969 14.9091 16.2831C14.9415 16.2693 14.9918 16.2478 15.0209 16.2354C15.0499 16.2229 15.0916 16.2049 15.1134 16.1955C15.1353 16.186 15.1742 16.1692 15.1999 16.1581C15.2257 16.1469 15.2819 16.1225 15.3249 16.1037C15.3679 16.0849 15.4183 16.0629 15.4367 16.0548C15.4552 16.0467 15.485 16.0336 15.5028 16.0257C15.5207 16.0179 15.5504 16.0047 15.5689 15.9965C15.5874 15.9883 15.6179 15.9748 15.6367 15.9665C15.6555 15.9582 15.6971 15.9398 15.7292 15.9254C15.7613 15.9111 15.8103 15.8892 15.8382 15.8767C15.866 15.8642 15.9126 15.8433 15.9417 15.8302C15.9708 15.8171 16.0136 15.7978 16.037 15.7873C16.0603 15.7768 16.0903 15.7632 16.1037 15.7571C16.117 15.7509 16.148 15.7368 16.1726 15.7256C16.1971 15.7144 16.2497 15.6904 16.2893 15.6723C16.329 15.6542 16.3743 15.6333 16.39 15.626C16.4058 15.6187 16.4326 15.6063 16.4495 15.5986C16.4665 15.5908 16.4933 15.5784 16.509 15.571C16.5248 15.5637 16.552 15.551 16.5696 15.5429C16.5872 15.5349 16.6174 15.5207 16.6368 15.5116C16.6562 15.5024 16.6884 15.4874 16.7084 15.4782C16.7284 15.469 16.7626 15.4529 16.7844 15.4426C16.8062 15.4322 16.8473 15.4128 16.8758 15.3994C16.9043 15.3861 16.9515 15.3637 16.9809 15.3497C17.0102 15.3357 17.0637 15.3102 17.0998 15.2931C17.1359 15.2759 17.2028 15.2438 17.2485 15.2218C17.2942 15.1997 17.3995 15.1487 17.4826 15.1085C17.5656 15.0684 17.7024 15.0013 17.7866 14.9594C17.8707 14.9176 17.976 14.8653 18.0206 14.8431C18.0652 14.821 18.1322 14.7874 18.1694 14.7686C18.2065 14.7498 18.2601 14.7228 18.2883 14.7085C18.3165 14.6943 18.3629 14.6708 18.3914 14.6562C18.4199 14.6416 18.461 14.6206 18.4828 14.6096C18.5046 14.5985 18.5379 14.5815 18.5566 14.5717C18.5754 14.562 18.6066 14.546 18.626 14.5361C18.6454 14.5262 18.6757 14.5107 18.6932 14.5015C18.7108 14.4923 18.738 14.4782 18.7538 14.4701C18.7696 14.4621 18.7948 14.4489 18.81 14.441C18.8251 14.433 18.8494 14.4204 18.8639 14.4129C18.8785 14.4054 18.9028 14.3928 18.9179 14.3848C18.9331 14.3769 18.9564 14.3647 18.9697 14.3578C18.983 14.3508 19.0043 14.3397 19.0171 14.3329C19.0298 14.3262 19.0511 14.3151 19.0644 14.3081C19.0777 14.3012 19.0981 14.2905 19.1096 14.2844C19.1211 14.2782 19.1392 14.2687 19.1498 14.2631C19.1604 14.2575 19.1785 14.2479 19.1901 14.2416C19.2017 14.2354 19.2143 14.2287 19.2182 14.2266C19.2221 14.2246 19.227 14.2229 19.2292 14.2228C19.2324 14.2228 19.2329 14.2238 19.2318 14.2276C19.231 14.2303 19.2246 14.249 19.2175 14.2692C19.2105 14.2894 19.1971 14.3268 19.1879 14.3524C19.1786 14.3779 19.1642 14.4168 19.1559 14.4388C19.1476 14.4608 19.1334 14.4977 19.1243 14.5209C19.1153 14.5441 19.0998 14.583 19.0899 14.6073C19.0799 14.6317 19.0648 14.6682 19.0562 14.6884C19.0476 14.7086 19.0334 14.7416 19.0246 14.7618C19.0158 14.782 19.0017 14.8141 18.9932 14.8331C18.9847 14.8522 18.9709 14.8823 18.9626 14.9001C18.9542 14.918 18.9376 14.9534 18.9255 14.979C18.9135 15.0045 18.8812 15.0697 18.8537 15.1238C18.8263 15.1778 18.7934 15.2413 18.7806 15.2648C18.7678 15.2883 18.7517 15.318 18.7448 15.3307C18.7378 15.3435 18.7203 15.3748 18.7058 15.4003C18.6913 15.4259 18.6716 15.4602 18.6621 15.4765C18.6526 15.4929 18.6357 15.5215 18.6245 15.5402C18.6134 15.559 18.5931 15.5925 18.5795 15.6147C18.5658 15.6369 18.5381 15.6812 18.5178 15.713C18.4976 15.7448 18.4662 15.7933 18.448 15.8206C18.4298 15.8479 18.4005 15.8912 18.383 15.9167C18.3654 15.9423 18.3397 15.9792 18.3258 15.9989C18.3119 16.0185 18.292 16.0462 18.2817 16.0604C18.2713 16.0747 18.255 16.0971 18.2453 16.1101C18.2356 16.1232 18.2193 16.1451 18.209 16.1587C18.1987 16.1724 18.1813 16.1953 18.1704 16.2095C18.1594 16.2238 18.141 16.2476 18.1294 16.2625C18.1179 16.2773 18.0979 16.3026 18.0852 16.3186C18.0724 16.3347 18.0485 16.3643 18.032 16.3845C18.0155 16.4047 17.9864 16.4397 17.9674 16.4623C17.9484 16.4849 17.9164 16.5223 17.8962 16.5455C17.876 16.5687 17.8463 16.6024 17.8301 16.6204C17.8139 16.6385 17.7901 16.6649 17.7772 16.6791C17.7642 16.6933 17.7378 16.722 17.7184 16.7428C17.699 16.7636 17.6594 16.8052 17.6303 16.8354C17.6013 16.8655 17.5467 16.9203 17.5092 16.9572C17.4716 16.9941 17.4157 17.0475 17.385 17.076C17.3543 17.1045 17.3137 17.1417 17.2947 17.1587C17.2757 17.1757 17.2429 17.2049 17.2218 17.2235C17.2007 17.2422 17.172 17.2672 17.1581 17.2791C17.1441 17.291 17.1123 17.3177 17.0874 17.3385C17.0625 17.3593 17.0228 17.3919 16.9992 17.411C16.9755 17.43 16.9389 17.4592 16.9176 17.4759C16.8964 17.4925 16.8613 17.5198 16.8394 17.5364C16.8176 17.5531 16.7814 17.5802 16.759 17.5968C16.7366 17.6133 16.7009 17.6393 16.6797 17.6545C16.6585 17.6697 16.6233 17.6947 16.6015 17.7099C16.5797 17.7251 16.544 17.7498 16.5222 17.7647C16.5004 17.7796 16.4568 17.8087 16.4253 17.8294C16.3938 17.85 16.3512 17.8775 16.3306 17.8905C16.31 17.9035 16.2787 17.923 16.2612 17.9339C16.2436 17.9447 16.2158 17.9617 16.1995 17.9716C16.1831 17.9814 16.1549 17.9983 16.1367 18.009C16.1185 18.0198 16.093 18.0347 16.0799 18.0421C16.0669 18.0496 16.0401 18.0648 16.0205 18.076C16.0008 18.0871 15.9792 18.0992 15.9726 18.1028C15.9659 18.1064 15.9501 18.1152 15.9373 18.1223C15.9246 18.1293 15.9018 18.1417 15.8867 18.1498C15.8715 18.1578 15.849 18.1697 15.8366 18.1762C15.8243 18.1827 15.795 18.1979 15.7717 18.2101C15.7483 18.2222 15.693 18.2499 15.6488 18.2715C15.6045 18.2931 15.5527 18.318 15.5335 18.3268C15.5144 18.3356 15.4876 18.3479 15.4741 18.3541C15.4605 18.3604 15.4365 18.3712 15.4207 18.3782C15.405 18.3852 15.3758 18.3981 15.3558 18.4068C15.3358 18.4156 15.2991 18.4312 15.2743 18.4417C15.2494 18.4521 15.2137 18.4668 15.1949 18.4745C15.1762 18.4821 15.1425 18.4955 15.12 18.5042C15.0976 18.513 15.0654 18.5254 15.0485 18.5319C15.0315 18.5384 15.0003 18.55 14.9791 18.5578C14.9579 18.5656 14.9227 18.5783 14.9009 18.586C14.879 18.5937 14.8369 18.6083 14.8072 18.6183C14.7775 18.6284 14.7273 18.6449 14.6957 18.6551C14.664 18.6654 14.611 18.6819 14.5778 18.692C14.5447 18.702 14.4947 18.7167 14.4669 18.7246C14.439 18.7325 14.3949 18.7446 14.3688 18.7516C14.3428 18.7586 14.2967 18.7707 14.2664 18.7784C14.2361 18.7862 14.188 18.798 14.1596 18.8047C14.1311 18.8114 14.0885 18.8211 14.0648 18.8264C14.0412 18.8317 14.0102 18.8384 13.996 18.8414C13.9818 18.8444 13.958 18.8493 13.9431 18.8522C13.9283 18.8552 13.9072 18.8595 13.8963 18.8618C13.8854 18.8641 13.8633 18.8684 13.8473 18.8713C13.8312 18.8743 13.8074 18.8788 13.7944 18.8812C13.7814 18.8836 13.7653 18.8865 13.7586 18.8878C13.752 18.889 13.7321 18.8924 13.7146 18.8954C13.697 18.8983 13.6678 18.9032 13.6496 18.9061C13.6314 18.909 13.6007 18.9138 13.5812 18.9167C13.5618 18.9197 13.5316 18.9241 13.5141 18.9265C13.4965 18.9289 13.4757 18.9319 13.4678 18.9331C13.46 18.9343 13.4337 18.9377 13.4095 18.9407C13.3852 18.9438 13.353 18.9477 13.3379 18.9495C13.3227 18.9513 13.2969 18.9542 13.2806 18.9559C13.2642 18.9577 13.2365 18.9605 13.2189 18.9623C13.2013 18.9641 13.1706 18.967 13.1506 18.9688C13.1306 18.9706 13.0969 18.9735 13.0757 18.9751C13.0545 18.9768 13.023 18.9792 13.0058 18.9805C12.9885 18.9818 12.9603 18.9838 12.943 18.985C12.9257 18.9862 12.8987 18.9877 12.883 18.9883C12.8672 18.989 12.8375 18.9904 12.8169 18.9915C12.7963 18.9926 12.7586 18.9941 12.7332 18.9948C12.7077 18.9954 12.6413 18.9969 12.5856 18.998C12.5266 18.9991 11.3487 19 9.7691 19ZM7.0462 17.4824C7.04441 17.4826 7.03453 17.4818 7.02423 17.4807C7.01131 17.4793 7.00465 17.4776 7.00275 17.4752C7.00056 17.4724 7 17.1532 7 15.8961C7 14.6382 7.00056 14.3201 7.00275 14.3184C7.00427 14.3173 7.064 14.3 7.13548 14.28C7.20697 14.26 7.27983 14.2396 7.2974 14.2345C7.31497 14.2294 7.34718 14.2202 7.36899 14.214C7.3908 14.2078 7.4317 14.1961 7.45988 14.188C7.48807 14.1798 7.53168 14.1672 7.55681 14.1599C7.58194 14.1526 7.6206 14.1414 7.64272 14.135C7.66484 14.1286 7.69161 14.1209 7.7022 14.1179C7.7128 14.1148 7.73088 14.1095 7.74239 14.106C7.7539 14.1026 7.79009 14.0919 7.8228 14.0822C7.85551 14.0726 7.89021 14.0624 7.8999 14.0595C7.9096 14.0567 7.9485 14.0451 7.98637 14.0337C8.02423 14.0224 8.07281 14.0079 8.09431 14.0014C8.11582 13.995 8.15473 13.9832 8.18078 13.9753C8.20683 13.9674 8.24202 13.9567 8.25898 13.9516C8.27594 13.9464 8.3203 13.9329 8.35755 13.9215C8.3948 13.91 8.45204 13.8924 8.48475 13.8823C8.51747 13.8722 8.56778 13.8567 8.59657 13.8477C8.62535 13.8388 8.67493 13.8233 8.70673 13.8132C8.73854 13.8032 8.78811 13.7875 8.81688 13.7785C8.84565 13.7694 8.89621 13.7534 8.92923 13.7428C8.96224 13.7323 9.03907 13.7076 9.09995 13.688C9.16084 13.6685 9.25576 13.6377 9.31089 13.6197C9.36602 13.6016 9.46044 13.5705 9.52072 13.5505C9.581 13.5304 9.66774 13.5015 9.71348 13.4862C9.75921 13.4709 9.83431 13.4455 9.88035 13.4299C9.92639 13.4142 9.9866 13.3937 10.0142 13.3842C10.0417 13.3748 10.1163 13.349 10.1799 13.327C10.2435 13.305 10.3216 13.2779 10.3534 13.2668C10.3852 13.2557 10.4502 13.2329 10.4977 13.2161C10.5452 13.1992 10.626 13.1705 10.6772 13.1523C10.7284 13.134 10.814 13.1033 10.8673 13.0841C10.9206 13.0648 11.0029 13.035 11.0501 13.0177C11.0974 13.0005 11.1407 12.9844 11.1465 12.982C11.1533 12.9791 11.157 12.9763 11.157 12.9738C11.157 12.9717 11.1591 12.9695 11.1619 12.9687C11.1646 12.968 11.1716 12.9674 11.1774 12.9674C11.1846 12.9674 11.1963 12.9642 11.2138 12.9577C11.228 12.9524 11.2584 12.9411 11.2814 12.9326C11.3044 12.9242 11.3332 12.9136 11.3453 12.9091C11.3574 12.9047 11.3832 12.8951 11.4026 12.8879C11.422 12.8807 11.4535 12.869 11.4726 12.8618C11.4917 12.8546 11.5254 12.842 11.5475 12.8337C11.5696 12.8254 11.6072 12.8112 11.6311 12.8021C11.655 12.7931 11.686 12.7813 11.6999 12.776C11.7139 12.7707 11.7404 12.7606 11.7589 12.7537C11.7774 12.7467 11.8091 12.7346 11.8294 12.7268C11.8497 12.719 11.8891 12.7038 11.917 12.693C11.9449 12.6823 11.9879 12.6657 12.0128 12.6561C12.0376 12.6466 12.1188 12.6149 12.1934 12.5858C12.2679 12.5567 12.3556 12.5222 12.3884 12.5092C12.4211 12.4962 12.4712 12.4764 12.4997 12.465C12.5281 12.4537 12.5708 12.4367 12.5944 12.4273C12.6181 12.4178 12.6617 12.4003 12.6913 12.3883C12.7209 12.3763 12.7623 12.3596 12.7832 12.3512C12.8042 12.3429 12.8361 12.3299 12.8543 12.3224C12.8725 12.3149 12.9226 12.2945 12.9656 12.2769C13.0086 12.2594 13.0634 12.237 13.0873 12.2271C13.1112 12.2172 13.1437 12.2037 13.1595 12.1972C13.1753 12.1907 13.2129 12.1751 13.2431 12.1625C13.2734 12.15 13.3505 12.1177 13.4144 12.0909C13.4783 12.0641 13.5594 12.0299 13.5945 12.015C13.6296 12.0001 13.674 11.9813 13.6931 11.9731C13.7122 11.9649 13.7394 11.9533 13.7537 11.9472C13.7679 11.9412 13.7915 11.9311 13.806 11.9248C13.8205 11.9185 13.8451 11.9079 13.8605 11.9013C13.876 11.8947 13.9134 11.8785 13.9437 11.8655C13.974 11.8524 14.029 11.8285 14.0659 11.8124C14.1028 11.7963 14.1529 11.7745 14.1772 11.7638C14.2014 11.7532 14.2443 11.7343 14.2725 11.722C14.3006 11.7096 14.3557 11.6853 14.3947 11.6679C14.4338 11.6506 14.4985 11.6218 14.5385 11.6039C14.5784 11.5861 14.6357 11.5605 14.6657 11.547C14.6957 11.5335 14.75 11.5091 14.7863 11.4926C14.8226 11.4762 14.8643 11.4573 14.8788 11.4506C14.8934 11.4439 14.937 11.4239 14.9758 11.4062C15.0145 11.3886 15.0583 11.3684 15.0731 11.3616C15.0878 11.3547 15.1126 11.3433 15.1282 11.3363C15.1437 11.3292 15.1703 11.317 15.1872 11.309C15.2042 11.301 15.2325 11.2879 15.25 11.2798C15.2676 11.2718 15.2968 11.2582 15.315 11.2496C15.3332 11.241 15.3634 11.2269 15.3822 11.2183C15.401 11.2096 15.4342 11.1941 15.456 11.1837C15.4778 11.1734 15.518 11.1545 15.5452 11.1417C15.5725 11.129 15.6188 11.1071 15.6481 11.0931C15.6774 11.0791 15.7314 11.0533 15.7681 11.0359C15.8049 11.0184 15.8718 10.9863 15.9168 10.9646C15.9619 10.9428 16.0615 10.8946 16.1382 10.8575C16.2149 10.8204 16.3408 10.7587 16.418 10.7203C16.4952 10.682 16.5948 10.6324 16.6394 10.6102C16.684 10.588 16.7509 10.5545 16.7881 10.5357C16.8253 10.5169 16.8778 10.4904 16.9049 10.4768C16.9319 10.4631 16.9776 10.4399 17.0063 10.4252C17.0351 10.4104 17.0763 10.3894 17.0978 10.3785C17.1193 10.3676 17.1527 10.3505 17.1721 10.3404C17.1915 10.3304 17.2207 10.3153 17.2371 10.307C17.2534 10.2986 17.2812 10.2843 17.2988 10.2751C17.3163 10.266 17.3436 10.2519 17.3593 10.2438C17.3751 10.2357 17.4004 10.2226 17.4155 10.2146C17.4307 10.2066 17.4549 10.194 17.4695 10.1865C17.484 10.1791 17.5073 10.1669 17.5213 10.1595C17.5352 10.1521 17.5575 10.1404 17.5708 10.1336C17.5841 10.1267 17.6045 10.1161 17.616 10.1099C17.6275 10.1037 17.6478 10.0929 17.6611 10.086C17.6745 10.0791 17.6948 10.0684 17.7063 10.0623C17.7178 10.0562 17.7371 10.046 17.7493 10.0396C17.7614 10.0333 17.7797 10.0235 17.79 10.018C17.8003 10.0124 17.8187 10.0027 17.8308 9.99638C17.8429 9.99007 17.8612 9.98034 17.8715 9.97477C17.8818 9.9692 17.8992 9.95995 17.9101 9.95422C17.921 9.94848 17.9385 9.93912 17.9491 9.93342C17.9596 9.92771 17.976 9.91896 17.9854 9.91397C17.9949 9.90898 18.0112 9.90022 18.0218 9.89452C18.0323 9.88882 18.0484 9.88017 18.0575 9.87531C18.0666 9.87045 18.0818 9.86236 18.0912 9.85734C18.1006 9.85231 18.115 9.84456 18.1232 9.84011C18.1313 9.83566 18.1462 9.82755 18.1562 9.82209C18.1662 9.81662 18.1814 9.80844 18.1898 9.8039C18.1983 9.79936 18.2268 9.78395 18.2532 9.76965C18.2796 9.75535 18.3153 9.73598 18.3325 9.7266C18.3498 9.71723 18.381 9.70019 18.4019 9.68875C18.4228 9.6773 18.4594 9.65717 18.4834 9.64401C18.5073 9.63085 18.5328 9.61686 18.5401 9.61291C18.5474 9.60896 18.5712 9.59584 18.593 9.58375C18.6148 9.57166 18.6386 9.55855 18.6459 9.55461C18.6531 9.55067 18.6732 9.53957 18.6905 9.52995C18.7078 9.52034 18.737 9.504 18.7555 9.49366C18.7739 9.48331 18.7992 9.46923 18.8117 9.46236C18.8241 9.4555 18.8395 9.44701 18.8458 9.44351C18.8522 9.44 18.8732 9.4282 18.8926 9.41727C18.912 9.40635 18.9328 9.39468 18.9388 9.39135C18.9449 9.38801 18.9593 9.37998 18.9708 9.3735C18.9823 9.36702 19.001 9.35648 19.0124 9.35008C19.0237 9.34368 19.0366 9.33524 19.041 9.33132C19.0472 9.32576 19.0506 9.32434 19.0563 9.32484C19.0629 9.32542 19.0641 9.32662 19.0691 9.33844C19.0721 9.34557 19.0768 9.35724 19.0796 9.36437C19.0824 9.3715 19.0933 9.39873 19.1039 9.42487C19.1145 9.45102 19.1336 9.49963 19.1464 9.53291C19.1591 9.56618 19.177 9.61383 19.186 9.63878C19.1951 9.66374 19.2108 9.70792 19.2211 9.73696C19.2313 9.76601 19.2491 9.819 19.2607 9.85472C19.2722 9.89045 19.2886 9.94204 19.2971 9.96937C19.3056 9.9967 19.3188 10.0409 19.3265 10.0677C19.3343 10.0944 19.3476 10.1416 19.3561 10.1725C19.3646 10.2034 19.3806 10.2641 19.3916 10.3075C19.4026 10.3509 19.4176 10.4126 19.4249 10.4445C19.4322 10.4765 19.4405 10.5135 19.4433 10.5267C19.4461 10.5398 19.451 10.5628 19.4542 10.5776C19.4574 10.5925 19.4625 10.6173 19.4655 10.6327C19.4686 10.6482 19.474 10.6761 19.4776 10.6948C19.4812 10.7135 19.4866 10.7422 19.4896 10.7586C19.4926 10.7749 19.4986 10.8087 19.5029 10.8337C19.5071 10.8586 19.5135 10.8982 19.5171 10.9217C19.5208 10.9452 19.5256 10.9773 19.528 10.993C19.5303 11.0088 19.5343 11.0367 19.5368 11.0551C19.5393 11.0736 19.5438 11.1083 19.5468 11.1324C19.5498 11.1565 19.5537 11.189 19.5555 11.2048C19.5574 11.2205 19.5604 11.2482 19.5622 11.2663C19.5641 11.2845 19.567 11.3132 19.5689 11.3301C19.5707 11.347 19.5727 11.3687 19.5733 11.3782C19.574 11.3877 19.5755 11.4047 19.5767 11.416C19.5779 11.4273 19.5793 11.4448 19.5798 11.4549C19.5803 11.465 19.5818 11.4873 19.5831 11.5046C19.5844 11.5218 19.5869 11.5612 19.5887 11.5921C19.5905 11.623 19.593 11.6692 19.5943 11.6947C19.5955 11.7203 19.5975 11.7942 19.5987 11.8589C19.5999 11.9237 19.6004 12.0253 19.5997 12.0847C19.599 12.1441 19.597 12.2287 19.5952 12.2727C19.5934 12.3167 19.5905 12.3784 19.5887 12.4099C19.5869 12.4414 19.5844 12.4803 19.5831 12.4963C19.5819 12.5124 19.5802 12.5272 19.5793 12.5292C19.5784 12.5312 19.5713 12.5363 19.5634 12.5404C19.5555 12.5445 19.5263 12.5601 19.4984 12.5752C19.4705 12.5902 19.4378 12.6077 19.4257 12.6141C19.4136 12.6205 19.3789 12.639 19.3486 12.6552C19.3183 12.6714 19.2831 12.6901 19.2704 12.6967C19.2577 12.7034 19.2378 12.7138 19.2263 12.72C19.2148 12.7261 19.1955 12.7363 19.1834 12.7427C19.1713 12.749 19.1514 12.7595 19.1393 12.766C19.1272 12.7725 19.1079 12.7827 19.0964 12.7887C19.0848 12.7947 19.065 12.8051 19.0523 12.8118C19.0396 12.8185 19.0173 12.8302 19.0027 12.8377C18.9882 12.8453 18.9649 12.8575 18.951 12.8648C18.937 12.8722 18.9137 12.8843 18.8992 12.8918C18.8847 12.8993 18.8604 12.9119 18.8452 12.9198C18.8301 12.9278 18.8038 12.9414 18.7868 12.9501C18.7699 12.9588 18.7426 12.9729 18.7263 12.9814C18.7099 12.99 18.6807 13.0051 18.6613 13.015C18.6419 13.0249 18.6097 13.0414 18.5897 13.0517C18.5697 13.062 18.5355 13.0795 18.5137 13.0906C18.4919 13.1016 18.4537 13.1211 18.4289 13.1339C18.404 13.1466 18.3592 13.1694 18.3293 13.1844C18.2993 13.1995 18.2388 13.23 18.1949 13.2522C18.1509 13.2744 18.0781 13.3109 18.033 13.3333C17.9879 13.3556 17.8903 13.404 17.816 13.4408C17.7417 13.4776 17.6168 13.5389 17.5384 13.5769C17.46 13.615 17.3534 13.6666 17.3016 13.6917C17.2497 13.7168 17.1769 13.7518 17.1396 13.7694C17.1024 13.7871 17.0493 13.8123 17.0218 13.8255C16.9942 13.8387 16.9513 13.859 16.9265 13.8706C16.9016 13.8822 16.8625 13.9006 16.8394 13.9116C16.8164 13.9225 16.7812 13.9391 16.7612 13.9484C16.7412 13.9576 16.7085 13.973 16.6885 13.9824C16.6684 13.9918 16.6295 14.0099 16.602 14.0226C16.5745 14.0353 16.534 14.054 16.5119 14.0642C16.4898 14.0744 16.4578 14.0893 16.4408 14.0972C16.4238 14.1051 16.3781 14.1261 16.3394 14.1439C16.3006 14.1616 16.2565 14.1818 16.2413 14.1888C16.2262 14.1958 16.2029 14.2064 16.1896 14.2124C16.1762 14.2183 16.1544 14.2282 16.1411 14.2344C16.1278 14.2405 16.0911 14.2571 16.0596 14.2713C16.0281 14.2855 15.9929 14.3014 15.9814 14.3066C15.9699 14.3119 15.9491 14.3212 15.9351 14.3274C15.9212 14.3336 15.8939 14.3458 15.8746 14.3545C15.8552 14.3632 15.8314 14.3739 15.8217 14.3783C15.812 14.3827 15.7956 14.39 15.7853 14.3945C15.775 14.399 15.7587 14.4063 15.749 14.4107C15.7393 14.4151 15.7123 14.4271 15.6889 14.4374C15.6656 14.4476 15.6279 14.4642 15.6052 14.4743C15.5825 14.4844 15.5461 14.5004 15.5243 14.51C15.5025 14.5196 15.4385 14.5475 15.3822 14.572C15.3259 14.5965 15.2754 14.6187 15.2701 14.6212C15.2648 14.6237 15.2607 14.6266 15.2609 14.6277C15.2611 14.6288 15.255 14.6313 15.2474 14.6332C15.2397 14.6351 15.2137 14.6453 15.1894 14.6557C15.1652 14.6662 15.1256 14.6833 15.1013 14.6938C15.0771 14.7042 15.0332 14.7231 15.0038 14.7357C14.9744 14.7482 14.9278 14.7682 14.9003 14.7799C14.8727 14.7917 14.8175 14.8152 14.7775 14.8321C14.7375 14.849 14.6738 14.8758 14.6359 14.8917C14.5981 14.9076 14.5376 14.9329 14.5016 14.9479C14.4655 14.9629 14.4261 14.9794 14.414 14.9844C14.4019 14.9895 14.3731 15.0014 14.3501 15.0109C14.3271 15.0205 14.2867 15.0371 14.2603 15.0479C14.234 15.0587 14.1889 15.0772 14.1601 15.089C14.1313 15.1009 14.0837 15.1203 14.0544 15.1322C14.025 15.1442 13.9816 15.1618 13.958 15.1713C13.9344 15.1809 13.892 15.198 13.8638 15.2094C13.8357 15.2208 13.7886 15.2397 13.7592 15.2514C13.7298 15.2632 13.6849 15.2811 13.6595 15.2912C13.6341 15.3014 13.5875 15.3199 13.556 15.3323C13.5245 15.3448 13.4442 15.3764 13.3775 15.4025C13.3109 15.4286 13.2353 15.4582 13.2095 15.4683C13.1838 15.4783 13.1434 15.494 13.1198 15.5031C13.0961 15.5122 13.0582 15.5268 13.0355 15.5355C13.0128 15.5443 12.9713 15.5602 12.9435 15.5709C12.9156 15.5815 12.8717 15.5982 12.846 15.608C12.8203 15.6177 12.7859 15.6308 12.7695 15.637C12.7531 15.6432 12.7249 15.6539 12.7067 15.6608C12.6885 15.6676 12.6588 15.6788 12.6406 15.6856C12.6225 15.6924 12.5779 15.7092 12.5415 15.7228C12.5052 15.7365 12.41 15.7717 12.33 15.8012C12.2501 15.8306 12.1529 15.8663 12.1141 15.8805C12.0754 15.8946 12.0099 15.9184 11.9687 15.9333C11.9275 15.9482 11.8586 15.973 11.8156 15.9885C11.7726 16.0039 11.7144 16.0247 11.6862 16.0347C11.658 16.0447 11.5978 16.066 11.5524 16.0821C11.507 16.0981 11.4492 16.1185 11.4241 16.1273C11.3989 16.1362 11.3491 16.1536 11.3134 16.166C11.2776 16.1784 11.2003 16.2052 11.1415 16.2254C11.0828 16.2456 10.9973 16.2749 10.9515 16.2904C10.9058 16.306 10.821 16.3347 10.7632 16.3542C10.7053 16.3737 10.6215 16.4018 10.5769 16.4165C10.5323 16.4313 10.4062 16.4727 10.2966 16.5085C10.187 16.5443 10.0609 16.5854 10.0164 16.5998C9.97186 16.6142 9.90469 16.6356 9.86713 16.6474C9.82957 16.6593 9.77653 16.6761 9.74927 16.6848C9.72201 16.6935 9.66972 16.71 9.63308 16.7214C9.59643 16.7329 9.53522 16.7519 9.49705 16.7638C9.45887 16.7756 9.40212 16.7932 9.37092 16.8029C9.33972 16.8125 9.29064 16.8276 9.26186 16.8363C9.23307 16.8451 9.18846 16.8587 9.16272 16.8665C9.13698 16.8744 9.09834 16.8861 9.07685 16.8926C9.05535 16.899 9.01843 16.9102 8.9948 16.9173C8.97117 16.9244 8.93399 16.9355 8.91217 16.9421C8.89036 16.9486 8.85615 16.9588 8.83616 16.9647C8.81616 16.9706 8.74874 16.9905 8.68632 17.0089C8.62391 17.0273 8.54783 17.0496 8.51725 17.0585C8.48667 17.0674 8.4262 17.0849 8.38287 17.0974C8.33955 17.1099 8.28181 17.1265 8.25456 17.1343C8.22732 17.1421 8.1795 17.1557 8.1483 17.1646C8.11709 17.1734 8.01027 17.2034 7.91092 17.2312C7.81156 17.259 7.69409 17.2917 7.64987 17.3039C7.60564 17.3161 7.53252 17.3361 7.48738 17.3484C7.44223 17.3607 7.38572 17.3761 7.36181 17.3826C7.33789 17.3891 7.2757 17.4058 7.2236 17.4196C7.1715 17.4334 7.11598 17.4481 7.10023 17.4523C7.08448 17.4565 7.0677 17.4611 7.06295 17.4625C7.05558 17.4648 7.05394 17.4664 7.05187 17.4737C7.05053 17.4783 7.04798 17.4823 7.0462 17.4824ZM7.0011 9.67335C7.02842 9.66438 7.05865 9.65487 7.08591 9.64644C7.11318 9.638 7.1615 9.62285 7.1933 9.61277C7.2251 9.60269 7.28458 9.58382 7.32548 9.57083C7.36637 9.55785 7.44371 9.53308 7.49733 9.5158C7.55095 9.49851 7.65107 9.46598 7.71982 9.4435C7.78858 9.42102 7.89093 9.38736 7.94727 9.36869C8.00361 9.35002 8.0782 9.32512 8.11303 9.31336C8.14787 9.30159 8.20487 9.28238 8.2397 9.27066C8.27454 9.25894 8.32757 9.24095 8.35756 9.23069C8.38755 9.22042 8.44207 9.20174 8.47872 9.18917C8.51538 9.1766 8.57585 9.15572 8.61312 9.14277C8.65039 9.12982 8.71829 9.10614 8.76402 9.09015C8.80975 9.07416 8.88855 9.04642 8.93913 9.0285C8.98971 9.01058 9.0596 8.98577 9.09444 8.97337C9.12928 8.96096 9.1848 8.94107 9.21783 8.92915C9.25086 8.91723 9.30612 8.89723 9.34063 8.8847C9.37514 8.87217 9.42296 8.85478 9.4469 8.84606C9.47084 8.83734 9.5281 8.81633 9.57414 8.79938C9.62018 8.78242 9.68239 8.75946 9.71239 8.74834C9.74239 8.73722 9.79815 8.71644 9.83631 8.70217C9.87447 8.68789 9.93541 8.66498 9.97174 8.65126C10.0081 8.63753 10.0609 8.61756 10.089 8.60688C10.1172 8.59619 10.1594 8.58014 10.1827 8.5712C10.206 8.56226 10.2441 8.54762 10.2675 8.53865C10.2908 8.52969 10.3285 8.51516 10.3512 8.50636C10.3739 8.49757 10.4166 8.48101 10.446 8.46957C10.4753 8.45813 10.5028 8.44718 10.5071 8.44524C10.5113 8.4433 10.5148 8.44026 10.5148 8.43849C10.5148 8.43612 10.5183 8.43494 10.528 8.43406C10.5384 8.43312 10.5669 8.42274 10.6624 8.38501C10.729 8.35869 10.7957 8.33225 10.8105 8.32625C10.8254 8.32026 10.8534 8.30902 10.8728 8.30128C10.8921 8.29354 10.9224 8.28142 10.94 8.27436C10.9576 8.26729 10.9906 8.25405 11.0132 8.24494C11.0359 8.23582 11.0756 8.21978 11.1014 8.20929C11.1271 8.19879 11.165 8.18334 11.1856 8.17495C11.2062 8.16656 11.2419 8.15197 11.2649 8.14253C11.288 8.13309 11.3247 8.11805 11.3465 8.10911C11.3683 8.10017 11.4049 8.08505 11.4279 8.07551C11.4509 8.06598 11.4923 8.04884 11.5199 8.03743C11.5474 8.02601 11.5774 8.01351 11.5865 8.00964C11.5956 8.00577 11.664 7.97704 11.7385 7.9458C11.813 7.91456 11.8869 7.88348 11.9026 7.87673C11.9184 7.86999 11.9526 7.85539 11.9787 7.8443C12.0047 7.8332 12.0384 7.81883 12.0536 7.81236C12.0687 7.80589 12.093 7.79545 12.1075 7.78917C12.1221 7.78288 12.1548 7.76878 12.1802 7.75782C12.2057 7.74686 12.2339 7.73477 12.243 7.73095C12.2521 7.72712 12.2937 7.70913 12.3355 7.69097C12.3773 7.6728 12.439 7.64588 12.4726 7.63115C12.5062 7.61641 12.5491 7.59761 12.5679 7.58935C12.5868 7.5811 12.6309 7.56165 12.666 7.54614C12.7011 7.53062 12.7506 7.50869 12.7761 7.49741C12.8015 7.48612 12.8404 7.4688 12.8626 7.45892C12.8847 7.44904 12.9419 7.42341 12.9898 7.40197C13.0377 7.38053 13.1147 7.34579 13.161 7.32479C13.2073 7.30378 13.2594 7.28018 13.2767 7.27235C13.294 7.26452 13.3185 7.25327 13.3313 7.24736C13.344 7.24145 13.3658 7.23151 13.3797 7.22527C13.3937 7.21903 13.417 7.20834 13.4315 7.20152C13.446 7.19469 13.4693 7.18398 13.4833 7.17772C13.4972 7.17145 13.521 7.16051 13.5361 7.15341C13.5513 7.14631 13.5766 7.13463 13.5923 7.12746C13.6081 7.12029 13.6348 7.1079 13.6518 7.09992C13.6687 7.09195 13.697 7.07884 13.7146 7.07078C13.7321 7.06273 13.7624 7.04861 13.7818 7.0394C13.8011 7.03019 13.8334 7.01514 13.8534 7.00596C13.8733 6.99677 13.9075 6.98076 13.9294 6.97037C13.9512 6.95998 13.9893 6.94199 14.0142 6.93038C14.039 6.91877 14.0821 6.89835 14.11 6.88501C14.1379 6.87166 14.1879 6.84786 14.2212 6.83212C14.2546 6.81637 14.3183 6.78588 14.3628 6.76435C14.4074 6.74283 14.4936 6.70123 14.5545 6.67192C14.6153 6.64261 14.7211 6.59116 14.7896 6.55758C14.8581 6.524 14.9629 6.47215 15.0226 6.44235C15.0823 6.41255 15.1666 6.37053 15.2099 6.34897C15.2532 6.32741 15.3158 6.29592 15.3492 6.27899C15.3825 6.26205 15.4325 6.23674 15.4604 6.22274C15.4883 6.20874 15.5304 6.18734 15.554 6.17519C15.5777 6.16304 15.6148 6.14406 15.6366 6.133C15.6584 6.12195 15.6917 6.10495 15.7104 6.09522C15.7292 6.0855 15.7595 6.06995 15.7776 6.06068C15.7958 6.0514 15.8241 6.03681 15.8404 6.02825C15.8568 6.0197 15.884 6.00557 15.901 5.99687C15.918 5.98816 15.9487 5.97229 15.9693 5.9616C15.9899 5.9509 16.0111 5.93932 16.0165 5.93585C16.0231 5.93158 16.0282 5.92982 16.0323 5.93041C16.0356 5.93089 16.0422 5.93377 16.0468 5.93682C16.0514 5.93987 16.0683 5.94975 16.0843 5.95877C16.1002 5.96779 16.1282 5.98399 16.1464 5.99475C16.1647 6.00552 16.1922 6.0219 16.2077 6.03115C16.2232 6.0404 16.2562 6.06059 16.281 6.07601C16.3058 6.09143 16.3514 6.1204 16.3823 6.14038C16.4132 6.16037 16.4603 6.19135 16.487 6.20924C16.5136 6.22713 16.5553 6.25553 16.5795 6.27235C16.6037 6.28917 16.6444 6.31786 16.6698 6.3361C16.6953 6.35434 16.7339 6.38246 16.7557 6.3986C16.7775 6.41473 16.8063 6.43613 16.8196 6.44617C16.8329 6.4562 16.8555 6.47346 16.8697 6.48452C16.884 6.49558 16.9078 6.51415 16.9226 6.52579C16.9375 6.53743 16.9595 6.55485 16.9716 6.5645C16.9837 6.57415 17.0135 6.59825 17.0377 6.61804C17.0619 6.63784 17.0941 6.66443 17.1091 6.67712C17.1241 6.68982 17.157 6.71805 17.1822 6.73985C17.2073 6.76166 17.2407 6.79083 17.2564 6.80467C17.2721 6.81852 17.3118 6.85441 17.3447 6.88443C17.3775 6.91445 17.4515 6.98531 17.5092 7.04189C17.5669 7.09848 17.638 7.17006 17.6673 7.20095C17.6966 7.23185 17.7345 7.27214 17.7515 7.2905C17.7684 7.30885 17.7924 7.33507 17.8047 7.34876C17.817 7.36245 17.8507 7.40066 17.8796 7.43368C17.9085 7.4667 17.9402 7.50332 17.9501 7.51506C17.96 7.5268 17.9759 7.54565 17.9854 7.55695C17.9948 7.56825 18.0161 7.59402 18.0325 7.61421C18.0489 7.6344 18.0752 7.66697 18.0909 7.68657C18.1066 7.70618 18.1418 7.7514 18.1691 7.78705C18.1964 7.8227 18.2355 7.87472 18.2559 7.90265C18.2763 7.93057 18.3055 7.97092 18.3207 7.99232C18.3358 8.01371 18.3615 8.05049 18.3778 8.07406C18.394 8.09763 18.4078 8.11868 18.4084 8.12082C18.4092 8.12393 18.4035 8.12802 18.38 8.14103C18.3639 8.15 18.3122 8.17827 18.2652 8.20384C18.2183 8.22941 18.1581 8.26208 18.1315 8.27645C18.1049 8.29082 18.0511 8.31984 18.012 8.34094C17.9729 8.36204 17.9325 8.38373 17.9222 8.38915C17.9119 8.39456 17.8945 8.40385 17.8836 8.40979C17.8727 8.41572 17.8559 8.42476 17.8462 8.42987C17.8365 8.43497 17.8191 8.44423 17.8076 8.45044C17.7961 8.45664 17.7775 8.46659 17.7662 8.47255C17.7549 8.47851 17.7213 8.49638 17.6914 8.51226C17.6615 8.52814 17.6249 8.54759 17.6099 8.55549C17.5949 8.56338 17.5545 8.58463 17.5202 8.60272C17.4858 8.6208 17.4464 8.64145 17.4327 8.6486C17.419 8.65575 17.3949 8.66839 17.3792 8.67668C17.3634 8.68498 17.3391 8.69765 17.3252 8.70485C17.3113 8.71204 17.2875 8.72443 17.2723 8.73237C17.2572 8.7403 17.2309 8.75392 17.2139 8.76262C17.197 8.77131 17.1697 8.78545 17.1534 8.79404C17.137 8.80262 17.1088 8.81721 17.0906 8.82647C17.0724 8.83572 17.0422 8.85126 17.0234 8.861C17.0046 8.87074 16.9724 8.88727 16.9518 8.89772C16.9312 8.90817 16.896 8.92617 16.8736 8.93773C16.8512 8.94928 16.811 8.9697 16.7844 8.98311C16.7577 8.99651 16.7067 9.0223 16.6709 9.04042C16.6352 9.05853 16.5675 9.09245 16.5206 9.11579C16.4737 9.13913 16.3815 9.18503 16.3157 9.21779C16.25 9.25054 16.1382 9.3058 16.0673 9.34058C15.9964 9.37535 15.8867 9.42876 15.8234 9.45926C15.7601 9.48976 15.6709 9.53283 15.6251 9.55497C15.5794 9.57711 15.5146 9.6081 15.4813 9.62383C15.448 9.63956 15.3989 9.66286 15.3723 9.6756C15.3456 9.68835 15.3035 9.70828 15.2787 9.7199C15.2538 9.73151 15.2166 9.74898 15.196 9.75872C15.1754 9.76847 15.1432 9.78354 15.1245 9.79222C15.1057 9.80089 15.0744 9.81548 15.0551 9.82463C15.0357 9.83378 15.0054 9.84789 14.9879 9.85597C14.9703 9.86406 14.943 9.87671 14.9273 9.88408C14.9115 9.89145 14.8863 9.90313 14.8711 9.91004C14.856 9.91694 14.8319 9.92802 14.8177 9.93465C14.8035 9.94128 14.7804 9.95198 14.7665 9.95843C14.752 9.96512 14.7411 9.97144 14.7411 9.97316C14.7411 9.97511 14.7367 9.97701 14.7285 9.97854C14.7215 9.97984 14.7044 9.98623 14.6905 9.99273C14.6765 9.99923 14.6518 10.0106 14.6354 10.018C14.619 10.0255 14.5923 10.0376 14.5759 10.045C14.5596 10.0524 14.5313 10.0652 14.5131 10.0735C14.495 10.0818 14.4568 10.0992 14.4283 10.112C14.3998 10.1249 14.3592 10.1432 14.338 10.1527C14.3168 10.1621 14.2895 10.1744 14.2774 10.18C14.2653 10.1856 14.2371 10.1982 14.2146 10.2081C14.1922 10.218 14.1558 10.2342 14.1337 10.2441C14.1115 10.254 14.0783 10.2688 14.0599 10.277C14.0414 10.2851 13.9973 10.3046 13.9619 10.3203C13.9264 10.3359 13.8831 10.355 13.8655 10.3627C13.8479 10.3704 13.8201 10.3825 13.8038 10.3896C13.7874 10.3968 13.7607 10.4085 13.7443 10.4156C13.728 10.4227 13.7014 10.4343 13.6854 10.4413C13.6693 10.4483 13.6383 10.4618 13.6165 10.4712C13.5947 10.4807 13.5571 10.4969 13.5328 10.5073C13.5086 10.5177 13.4769 10.5314 13.4623 10.5376C13.4478 10.5439 13.4243 10.5541 13.41 10.5601C13.3958 10.5662 13.3717 10.5765 13.3566 10.583C13.3414 10.5895 13.3179 10.5996 13.3042 10.6054C13.2906 10.6113 13.254 10.6268 13.2227 10.64C13.1915 10.6532 13.1174 10.6844 13.0581 10.7094C12.9987 10.7343 12.9244 10.7655 12.8929 10.7786C12.8614 10.7917 12.8218 10.8082 12.8048 10.8153C12.7877 10.8223 12.756 10.8355 12.7343 10.8445C12.7125 10.8535 12.6843 10.8652 12.6715 10.8704C12.6587 10.8756 12.6341 10.8858 12.6169 10.8929C12.5997 10.9001 12.5699 10.9123 12.5509 10.92C12.5318 10.9278 12.4983 10.9414 12.4765 10.9503C12.4547 10.9592 12.4259 10.9709 12.4126 10.9763C12.3993 10.9817 12.373 10.9923 12.3542 11C12.3354 11.0076 12.2883 11.0266 12.2496 11.0421C12.2109 11.0577 12.1574 11.0791 12.1307 11.0898C12.104 11.1004 12.0601 11.118 12.0332 11.1287C12.0062 11.1395 11.9547 11.1599 11.9186 11.1741C11.8826 11.1883 11.8258 11.2106 11.7925 11.2237C11.7592 11.2367 11.7032 11.2586 11.668 11.2723C11.6329 11.286 11.5789 11.3069 11.548 11.3189C11.5171 11.3308 11.4733 11.3477 11.4505 11.3565C11.4278 11.3653 11.3951 11.3779 11.3778 11.3845C11.3605 11.3911 11.3328 11.4017 11.3161 11.4082C11.2995 11.4146 11.271 11.4254 11.2528 11.4323C11.2346 11.4391 11.2064 11.4498 11.19 11.456C11.1736 11.4622 11.1454 11.4729 11.1272 11.4798C11.109 11.4867 11.0857 11.4954 11.0754 11.4993C11.0651 11.5031 11.0451 11.5107 11.0308 11.5161C11.0165 11.5215 10.9784 11.5358 10.946 11.5479C10.9136 11.56 10.8787 11.573 10.8684 11.5769C10.8581 11.5808 10.8353 11.5893 10.8177 11.5959C10.8001 11.6025 10.718 11.6328 10.6352 11.6632C10.5523 11.6937 10.4398 11.7347 10.3851 11.7544C10.3304 11.7742 10.2688 11.7964 10.2482 11.8038C10.2276 11.8112 10.1885 11.8253 10.1612 11.8351C10.134 11.8449 10.0938 11.8592 10.072 11.8669C10.0502 11.8746 10.019 11.8856 10.0026 11.8914C9.98625 11.8971 9.92703 11.918 9.871 11.9377C9.81497 11.9574 9.73839 11.9842 9.70082 11.9972C9.66326 12.0103 9.60749 12.0297 9.57689 12.0403C9.5463 12.0509 9.47987 12.0737 9.42927 12.091C9.37867 12.1083 9.30581 12.1331 9.26735 12.1461C9.2289 12.1592 9.14787 12.1866 9.08729 12.2069C9.02671 12.2273 8.85273 12.2847 8.70067 12.3344C8.54861 12.3841 8.36869 12.4425 8.30084 12.464C8.23299 12.4856 8.1512 12.5115 8.11909 12.5215C8.08699 12.5316 8.03792 12.5471 8.01005 12.5559C7.98218 12.5647 7.93882 12.5782 7.91368 12.586C7.88855 12.5938 7.84615 12.6069 7.81947 12.6151C7.7928 12.6234 7.74718 12.6374 7.71811 12.6463C7.68904 12.6553 7.638 12.6709 7.6047 12.681C7.5714 12.6912 7.50399 12.7116 7.4549 12.7264C7.40582 12.7412 7.33816 12.7616 7.30454 12.7717C7.27093 12.7817 7.2117 12.7993 7.17293 12.8107C7.13416 12.8221 7.09104 12.8351 7.0771 12.8394C7.05177 12.8474 7.05177 12.8474 7.05067 12.855C7.04957 12.8626 7.04957 12.8626 7.03635 12.8626C7.02908 12.8626 7.01843 12.8623 7.01268 12.8619C7.00402 12.8614 7.00203 12.8604 7.00106 12.8565C7.00042 12.8539 7.00017 12.1366 7.0005 11.2626L7.0011 9.67335ZM7.03745 8.19606C7.03563 8.19584 7.02723 8.19531 7.01879 8.19489C7.01006 8.19445 7.0027 8.193 7.00175 8.19153C7.00082 8.19011 7.00005 7.47266 7.00003 6.59721C7.00002 5.72176 7.00051 5.00418 7.00113 5.0026C7.00206 5.00021 7.47608 4.99978 9.82475 5.00008C11.7922 5.00034 12.6686 5.00115 12.7177 5.00278C12.7565 5.00406 12.7996 5.00558 12.8136 5.00616C12.8275 5.00674 12.8587 5.00825 12.883 5.00952C12.9072 5.01079 12.9463 5.0132 12.97 5.01488C12.9936 5.01656 13.0219 5.01849 13.0328 5.01917C13.0437 5.01984 13.0625 5.02131 13.0746 5.02243C13.0867 5.02355 13.109 5.0255 13.1242 5.02678C13.1393 5.02805 13.1621 5.02999 13.1748 5.03109C13.1876 5.03219 13.2069 5.03409 13.2178 5.03532C13.2287 5.03655 13.2473 5.03855 13.2591 5.03976C13.2709 5.04097 13.2932 5.04338 13.3087 5.04511C13.3241 5.04684 13.3487 5.04969 13.3632 5.05145C13.3777 5.05321 13.401 5.0561 13.415 5.05788C13.4289 5.05966 13.4517 5.06262 13.4656 5.06445C13.4796 5.06628 13.5108 5.07065 13.535 5.07417C13.5593 5.0777 13.5949 5.08304 13.6143 5.08605C13.6337 5.08906 13.6635 5.09395 13.6804 5.09691C13.6974 5.09987 13.7197 5.10377 13.73 5.10558C13.7403 5.10738 13.768 5.11234 13.7917 5.11659C13.8153 5.12083 13.8564 5.12858 13.8831 5.13379C13.9097 5.13901 13.9454 5.14614 13.9624 5.14963C13.9794 5.15313 14.023 5.16251 14.0593 5.17048C14.0957 5.17845 14.1665 5.19503 14.2167 5.20732C14.2669 5.21961 14.3108 5.23081 14.3143 5.23221C14.3177 5.23361 14.3202 5.23584 14.3198 5.23716C14.3194 5.23848 14.2958 5.25092 14.2674 5.2648C14.239 5.27868 14.1729 5.3106 14.1205 5.33573C14.0682 5.36085 13.9928 5.39706 13.9531 5.41618C13.9134 5.4353 13.8566 5.46234 13.8269 5.47629C13.7972 5.49023 13.7531 5.51111 13.7289 5.52269C13.7047 5.53427 13.6665 5.55227 13.6441 5.56269C13.6217 5.57311 13.5865 5.58963 13.5659 5.5994C13.5453 5.60917 13.5131 5.62425 13.4943 5.63291C13.4755 5.64156 13.4454 5.6556 13.4274 5.66409C13.4094 5.67259 13.3811 5.68572 13.3646 5.69325C13.3481 5.70079 13.3207 5.71348 13.3037 5.72144C13.2868 5.72941 13.2572 5.74307 13.2381 5.75181C13.219 5.76055 13.1838 5.77665 13.1599 5.7876C13.136 5.79856 13.1051 5.81279 13.0911 5.81924C13.0772 5.82568 13.0502 5.83807 13.031 5.84677C13.0119 5.85547 12.9623 5.87787 12.9209 5.89655C12.8794 5.91524 12.8386 5.93406 12.8301 5.93838C12.8216 5.9427 12.8149 5.94742 12.8152 5.94887C12.8156 5.95055 12.813 5.95152 12.8083 5.95152C12.804 5.95152 12.7905 5.95608 12.7769 5.96211C12.7637 5.96793 12.7416 5.97795 12.7277 5.98438C12.7137 5.99081 12.657 6.01626 12.6016 6.04093C12.5462 6.0656 12.4867 6.09209 12.4694 6.09979C12.4521 6.10748 12.4204 6.12152 12.3989 6.13099C12.3774 6.14045 12.3452 6.15464 12.3273 6.16253C12.3094 6.17041 12.2809 6.18289 12.2639 6.19027C12.247 6.19765 12.2016 6.21745 12.1632 6.23427C12.1247 6.25109 12.0719 6.27408 12.0458 6.28535C12.0198 6.29662 11.9819 6.31304 11.9616 6.32183C11.9413 6.33063 11.9049 6.34633 11.8806 6.35673C11.8564 6.36712 11.8244 6.38083 11.8096 6.38718C11.7947 6.39353 11.7712 6.40358 11.7572 6.40952C11.7433 6.41546 11.7205 6.42518 11.7066 6.43112C11.6926 6.43706 11.6594 6.45116 11.6328 6.46245C11.6061 6.47374 11.5427 6.50052 11.4918 6.52197C11.4409 6.54341 11.3619 6.5766 11.3161 6.59572C11.2704 6.61484 11.2156 6.63758 11.1944 6.64626C11.1732 6.65494 11.1385 6.66927 11.1173 6.67812C11.0961 6.68696 11.055 6.70398 11.0259 6.71593C10.9968 6.72789 10.9514 6.74646 10.9251 6.7572C10.8987 6.76794 10.861 6.78324 10.8413 6.79119C10.8217 6.79914 10.7957 6.80976 10.7836 6.8148C10.7714 6.81983 10.732 6.83577 10.696 6.85022C10.66 6.86467 10.6137 6.88327 10.5931 6.89156C10.5724 6.89984 10.5387 6.91337 10.5181 6.92161C10.4974 6.92986 10.4608 6.94446 10.4366 6.95406C10.4124 6.96366 10.3683 6.98115 10.3385 6.99293C10.3088 7.00471 10.2362 7.03329 10.1771 7.05644C10.1181 7.07959 10.0482 7.10688 10.0219 7.11707C9.99554 7.12727 9.95267 7.14389 9.92663 7.15401C9.90059 7.16412 9.86514 7.1778 9.84787 7.18439C9.8306 7.19099 9.80308 7.20157 9.78672 7.2079C9.77037 7.21423 9.7431 7.22473 9.72614 7.23123C9.70918 7.23772 9.67795 7.24965 9.65675 7.25774C9.63555 7.26582 9.60481 7.27748 9.58846 7.28364C9.5721 7.28979 9.54385 7.30044 9.52567 7.3073C9.5075 7.31415 9.48395 7.32304 9.47335 7.32705C9.46274 7.33106 9.44366 7.33826 9.43096 7.34304C9.41825 7.34783 9.39745 7.35565 9.38473 7.36041C9.37201 7.36518 9.35044 7.37329 9.3368 7.37843C9.32315 7.38358 9.29441 7.3943 9.27293 7.40225C9.25145 7.4102 9.2145 7.42391 9.19083 7.4327C9.16716 7.4415 9.11064 7.46238 9.06524 7.47909C9.01983 7.4958 8.95739 7.51869 8.92649 7.52996C8.89558 7.54122 8.84751 7.55874 8.81965 7.56888C8.7918 7.57902 8.7519 7.59349 8.73099 7.60103C8.71007 7.60857 8.65975 7.62664 8.61916 7.64118C8.57857 7.65571 8.52926 7.67334 8.50957 7.68034C8.48988 7.68735 8.45618 7.69927 8.43467 7.70683C8.41316 7.71439 8.36905 7.72996 8.33665 7.74143C8.30425 7.75291 8.2532 7.77091 8.2232 7.78144C8.1932 7.79198 8.14313 7.80944 8.11192 7.82024C8.0807 7.83104 8.02989 7.84862 7.99899 7.8593C7.96809 7.86999 7.92175 7.886 7.89602 7.89488C7.87029 7.90376 7.82594 7.91895 7.79747 7.92864C7.76899 7.93832 7.70109 7.96134 7.64656 7.9798C7.59204 7.99825 7.4934 8.03133 7.42737 8.05331C7.36134 8.0753 7.25229 8.11122 7.18505 8.13314C7.1178 8.15506 7.05941 8.17464 7.05529 8.17665C7.0505 8.17898 7.04653 8.18321 7.04428 8.18838C7.04222 8.19309 7.03937 8.19629 7.03745 8.19606Z" fill="url(#paint0_linear_6922_11676)"/>
<path fill-rule="evenodd" clip-rule="evenodd" d="M11.1087 17.7347C11.0929 17.7351 11.0609 17.7347 11.0374 17.7337C11.014 17.7327 10.9649 17.7313 10.9284 17.7306C10.8918 17.7299 10.8387 17.7284 10.8102 17.7271C10.7817 17.7259 10.724 17.7239 10.6819 17.7228C10.6398 17.7216 10.5743 17.7198 10.5365 17.7186C10.4986 17.7175 10.4478 17.7155 10.4236 17.7142C10.3993 17.713 10.3518 17.711 10.3178 17.7099C10.2839 17.7087 10.2299 17.7069 10.1978 17.7057C10.1657 17.7045 10.1215 17.7026 10.0997 17.7013C10.0779 17.7 10.036 17.6981 10.0067 17.6969C9.97728 17.6958 9.93068 17.6939 9.90312 17.6927C9.87556 17.6916 9.83615 17.6896 9.81555 17.6883C9.79495 17.687 9.75704 17.685 9.73129 17.6839C9.70554 17.6828 9.66341 17.6809 9.63766 17.6797C9.61192 17.6786 9.57747 17.6767 9.56111 17.6755C9.54475 17.6743 9.51799 17.6728 9.50163 17.6721C9.48527 17.6714 9.45752 17.6699 9.43995 17.6688C9.42238 17.6677 9.39561 17.6663 9.38047 17.6657C9.36532 17.665 9.34004 17.6635 9.32429 17.6623C9.30854 17.6611 9.27781 17.6592 9.256 17.6581C9.23419 17.6569 9.19949 17.655 9.1789 17.6538C9.1583 17.6526 9.12658 17.6506 9.1084 17.6494C9.09023 17.6481 9.0595 17.6462 9.04011 17.6451C9.02072 17.644 8.989 17.6421 8.96961 17.6409C8.95023 17.6396 8.91305 17.6371 8.887 17.6354C8.86095 17.6337 8.82527 17.6313 8.8077 17.6301C8.79013 17.6289 8.76634 17.6273 8.75483 17.6267C8.74332 17.626 8.71605 17.6241 8.69424 17.6224C8.67244 17.6208 8.63849 17.6184 8.6188 17.6171C8.59911 17.6158 8.56987 17.6137 8.55381 17.6125C8.53775 17.6113 8.50578 17.609 8.48276 17.6073C8.45974 17.6057 8.42653 17.6033 8.40896 17.602C8.39139 17.6008 8.36562 17.5987 8.35168 17.5975C8.33775 17.5963 8.31297 17.5943 8.29661 17.5932C8.28025 17.5921 8.25349 17.5902 8.23713 17.589C8.22077 17.5878 8.19698 17.5858 8.18426 17.5846C8.17154 17.5834 8.14774 17.5814 8.13139 17.5802C8.11503 17.5791 8.0838 17.5767 8.06199 17.575C8.04018 17.5732 8.00474 17.5703 7.98324 17.5685C7.96173 17.5667 7.92703 17.5638 7.90613 17.562C7.88523 17.5603 7.85574 17.5578 7.8406 17.5566C7.82545 17.5553 7.7967 17.5528 7.77671 17.5511C7.75672 17.5493 7.72946 17.5469 7.71613 17.5457C7.7028 17.5444 7.6805 17.5424 7.66656 17.5413C7.65263 17.5401 7.62512 17.5377 7.60543 17.5359C7.58574 17.5342 7.55352 17.5313 7.53383 17.5295C7.51415 17.5278 7.48193 17.5248 7.46224 17.523C7.44255 17.5212 7.41133 17.5183 7.39285 17.5166C7.37437 17.5149 7.34364 17.512 7.32455 17.5101C7.30547 17.5083 7.27424 17.5053 7.25516 17.5034C7.23608 17.5016 7.20559 17.4987 7.18742 17.497C7.16924 17.4953 7.14 17.4925 7.12243 17.4907C7.10486 17.489 7.08008 17.4864 7.06736 17.4851C7.05463 17.4837 7.04392 17.4823 7.04355 17.482C7.04317 17.4816 7.04466 17.4776 7.04686 17.473C7.05029 17.4658 7.05255 17.4642 7.06296 17.461C7.06962 17.4589 7.13554 17.4412 7.20945 17.4217C7.28336 17.4021 7.40777 17.3686 7.48592 17.3472C7.56407 17.3259 7.69468 17.2899 7.77617 17.2672C7.85766 17.2445 7.98802 17.2081 8.06586 17.1862C8.1437 17.1642 8.27183 17.1277 8.35058 17.105C8.42934 17.0823 8.54384 17.0491 8.60502 17.0312C8.66621 17.0133 8.76534 16.984 8.82532 16.9662C8.8853 16.9484 8.9874 16.9179 9.05223 16.8983C9.11705 16.8787 9.21618 16.8486 9.27252 16.8314C9.32886 16.8141 9.41387 16.7879 9.46143 16.7731C9.50899 16.7584 9.59424 16.7317 9.65088 16.714C9.70753 16.6962 9.80938 16.6641 9.87724 16.6425C9.94509 16.621 10.1339 16.5598 10.2969 16.5065C10.4599 16.4532 10.644 16.3925 10.7061 16.3716C10.7682 16.3507 10.8688 16.3166 10.9297 16.296C10.9906 16.2753 11.089 16.2416 11.1483 16.2212C11.2077 16.2007 11.3059 16.1667 11.3664 16.1455C11.427 16.1244 11.5252 16.0898 11.5845 16.0688C11.6439 16.0478 11.7381 16.0143 11.7938 15.9943C11.8495 15.9744 11.9412 15.9413 11.9976 15.9209C12.0539 15.9004 12.1449 15.8672 12.1997 15.8471C12.2545 15.827 12.3338 15.7978 12.3759 15.7823C12.418 15.7667 12.4835 15.7424 12.5213 15.7283C12.5592 15.7142 12.6226 15.6904 12.6623 15.6755C12.702 15.6605 12.7692 15.6351 12.8116 15.619C12.854 15.603 12.9177 15.5787 12.9531 15.5651C12.9885 15.5515 13.0438 15.5303 13.0759 15.5179C13.1081 15.5055 13.1653 15.4833 13.2032 15.4686C13.241 15.4539 13.328 15.4199 13.3965 15.393C13.4649 15.3662 13.5576 15.3296 13.6024 15.3118C13.6473 15.2941 13.7253 15.2629 13.7759 15.2426C13.8265 15.2223 13.9073 15.1898 13.9555 15.1703C14.0036 15.1508 14.079 15.1201 14.1229 15.1021C14.1668 15.0842 14.2401 15.054 14.2859 15.0352C14.3316 15.0163 14.4077 14.9848 14.455 14.9652C14.5022 14.9455 14.5796 14.9132 14.6268 14.8934C14.6741 14.8735 14.7529 14.8403 14.802 14.8195C14.851 14.7987 14.9261 14.7667 14.9688 14.7484C15.0115 14.7302 15.075 14.7029 15.1098 14.6878C15.1447 14.6727 15.187 14.6546 15.204 14.6475C15.2319 14.6359 15.2369 14.6345 15.2569 14.6329C15.269 14.6319 15.2933 14.6301 15.3108 14.6288C15.3284 14.6275 15.3601 14.6256 15.3813 14.6245C15.4025 14.6233 15.4357 14.6214 15.4551 14.6202C15.4745 14.619 15.5048 14.617 15.5223 14.6157C15.5399 14.6145 15.5696 14.6126 15.5884 14.6115C15.6072 14.6104 15.6374 14.6086 15.6556 14.6073C15.6738 14.6061 15.702 14.604 15.7184 14.6028C15.7347 14.6016 15.763 14.5996 15.7812 14.5985C15.7993 14.5974 15.8281 14.5955 15.8451 14.5943C15.862 14.5931 15.8883 14.5911 15.9034 14.5898C15.9186 14.5885 15.9449 14.5866 15.9618 14.5855C15.9788 14.5845 16.006 14.5826 16.0224 14.5813C16.0388 14.5801 16.064 14.578 16.0786 14.5768C16.0931 14.5755 16.1179 14.5736 16.1336 14.5726C16.1494 14.5715 16.1747 14.5696 16.1898 14.5684C16.205 14.5672 16.2288 14.5651 16.2427 14.5639C16.2566 14.5627 16.2804 14.5608 16.2956 14.5597C16.3107 14.5586 16.3355 14.5567 16.3506 14.5554C16.3658 14.5542 16.3886 14.5521 16.4013 14.5509C16.414 14.5497 16.4363 14.5478 16.4509 14.5467C16.4654 14.5456 16.4892 14.5436 16.5037 14.5424C16.5183 14.5412 16.5401 14.5392 16.5522 14.538C16.5643 14.5367 16.5856 14.5348 16.5996 14.5337C16.6135 14.5326 16.6363 14.5307 16.6502 14.5295C16.6642 14.5283 16.6855 14.5263 16.6976 14.525C16.7097 14.5238 16.7305 14.5218 16.7439 14.5207C16.7572 14.5196 16.7837 14.5173 16.8028 14.5154C16.8219 14.5136 16.8534 14.5106 16.8727 14.5088C16.8921 14.507 16.9224 14.5041 16.9399 14.5024C16.9575 14.5007 16.987 14.4978 17.0055 14.496C17.024 14.4942 17.0534 14.4913 17.071 14.4895C17.0886 14.4878 17.1176 14.4849 17.1354 14.483C17.1533 14.4812 17.1823 14.4782 17.1999 14.4764C17.2174 14.4746 17.2457 14.4717 17.2627 14.4699C17.2796 14.4681 17.3069 14.4653 17.3233 14.4635C17.3396 14.4618 17.3671 14.4589 17.3844 14.4571C17.4016 14.4554 17.4252 14.4529 17.4367 14.4516C17.4482 14.4504 17.4656 14.4484 17.4753 14.4472C17.4849 14.446 17.5023 14.444 17.5138 14.4429C17.5253 14.4418 17.5476 14.4394 17.5634 14.4376C17.5791 14.4359 17.6014 14.4334 17.6129 14.4322C17.6244 14.431 17.6413 14.429 17.6504 14.4277C17.6595 14.4265 17.6758 14.4246 17.6867 14.4235C17.6976 14.4224 17.7192 14.4201 17.7347 14.4182C17.7501 14.4164 17.7754 14.4135 17.7908 14.4118C17.8063 14.41 17.8278 14.4075 17.8387 14.4063C17.8496 14.405 17.8655 14.4031 17.874 14.4019C17.8825 14.4007 17.8983 14.3988 17.9092 14.3976C17.9201 14.3964 17.9407 14.3941 17.955 14.3923C17.9692 14.3905 17.9932 14.3876 18.0084 14.3857C18.0235 14.3839 18.0478 14.3809 18.0623 14.3791C18.0769 14.3773 18.1002 14.3745 18.1141 14.3727C18.1281 14.371 18.1513 14.3681 18.1659 14.3663C18.1804 14.3644 18.2035 14.3615 18.2171 14.3598C18.2307 14.3581 18.2535 14.3552 18.2678 14.3534C18.282 14.3515 18.305 14.3485 18.319 14.3467C18.3329 14.345 18.355 14.3421 18.368 14.3404C18.381 14.3388 18.3996 14.3363 18.4093 14.3351C18.419 14.3338 18.4339 14.3318 18.4424 14.3305C18.4508 14.3293 18.4657 14.3274 18.4754 14.3262C18.4851 14.3251 18.5034 14.3227 18.5162 14.3209C18.5289 14.3191 18.5504 14.3161 18.5641 14.3143C18.5777 14.3124 18.599 14.3096 18.6114 14.308C18.6238 14.3063 18.6424 14.3039 18.6527 14.3025C18.663 14.3012 18.6811 14.2987 18.6929 14.297C18.7048 14.2953 18.7248 14.2924 18.7376 14.2907C18.7503 14.2889 18.7711 14.286 18.7838 14.2842C18.7965 14.2824 18.8176 14.2795 18.8306 14.2776C18.8437 14.2758 18.8637 14.2729 18.8752 14.2712C18.8867 14.2695 18.9068 14.2666 18.9198 14.2648C18.9329 14.2629 18.9534 14.2599 18.9656 14.2582C18.9777 14.2564 18.9977 14.2535 19.0102 14.2517C19.0226 14.2498 19.0459 14.2464 19.0619 14.2441C19.078 14.2418 19.1013 14.2383 19.1137 14.2364C19.1261 14.2345 19.1492 14.2312 19.1649 14.2292C19.1854 14.2265 19.194 14.2261 19.1952 14.2277C19.1961 14.229 19.1968 14.2311 19.1968 14.2324C19.1969 14.2337 19.1738 14.247 19.1456 14.262C19.1175 14.277 19.0612 14.3067 19.0206 14.328C18.98 14.3493 18.9129 14.3843 18.8714 14.4059C18.8299 14.4275 18.7622 14.4626 18.721 14.4839C18.6798 14.5052 18.6213 14.5354 18.591 14.5509C18.5608 14.5665 18.5031 14.5961 18.4628 14.6167C18.4225 14.6374 18.3479 14.6753 18.2971 14.701C18.2464 14.7268 18.1735 14.7635 18.1352 14.7828C18.097 14.802 18.0309 14.835 17.9885 14.8562C17.9461 14.8773 17.8651 14.9175 17.8085 14.9455C17.7519 14.9735 17.6719 15.0129 17.6307 15.0331C17.5895 15.0533 17.5094 15.0924 17.4528 15.12C17.3961 15.1476 17.3148 15.1869 17.2721 15.2075C17.2294 15.228 17.1582 15.2622 17.1139 15.2834C17.0696 15.3046 17.0146 15.3308 16.9916 15.3417C16.9687 15.3526 16.9294 15.3712 16.9042 15.3832C16.879 15.3951 16.8349 15.4159 16.8061 15.4294C16.7773 15.443 16.7235 15.4682 16.6866 15.4854C16.6496 15.5027 16.5892 15.5309 16.5522 15.5481C16.5152 15.5653 16.4523 15.5944 16.4123 15.6129C16.3723 15.6314 16.3099 15.6601 16.2735 15.6767C16.2372 15.6933 16.1735 15.7224 16.132 15.7413C16.0905 15.7602 16.0251 15.7899 15.9866 15.8072C15.9481 15.8246 15.8763 15.8568 15.8269 15.879C15.7775 15.9011 15.7012 15.9351 15.6573 15.9546C15.6134 15.9741 15.542 16.0057 15.4987 16.0248C15.4553 16.0439 15.3842 16.0752 15.3406 16.0942C15.297 16.1132 15.2323 16.1414 15.1969 16.1567C15.1614 16.172 15.1111 16.1938 15.0851 16.205C15.059 16.2163 14.9794 16.2504 14.9082 16.2808C14.8371 16.3112 14.7164 16.3624 14.64 16.3945C14.5637 16.4267 14.4594 16.4703 14.4082 16.4916C14.357 16.5128 14.2742 16.5471 14.2242 16.5677C14.1743 16.5883 14.0902 16.6227 14.0375 16.6442C13.9848 16.6657 13.8956 16.7019 13.8393 16.7246C13.7829 16.7474 13.6942 16.783 13.6421 16.8038C13.59 16.8246 13.4413 16.8832 13.3117 16.9341C13.182 16.985 13.0348 17.0424 12.9845 17.0617C12.9342 17.081 12.8485 17.1138 12.794 17.1345C12.7394 17.1553 12.646 17.1907 12.5864 17.2132C12.5267 17.2357 12.438 17.2691 12.3892 17.2873C12.3404 17.3055 12.2591 17.3356 12.2085 17.3542C12.158 17.3729 12.0836 17.4001 12.0433 17.4148C12.003 17.4295 11.9264 17.4573 11.8731 17.4765C11.8198 17.4957 11.7311 17.5276 11.676 17.5472C11.6208 17.5669 11.5316 17.5985 11.4777 17.6175C11.4238 17.6365 11.3365 17.6671 11.2838 17.6854C11.2311 17.7037 11.1766 17.7222 11.1627 17.7264C11.1403 17.7331 11.134 17.7341 11.1087 17.7347ZM11.1858 12.9661C10.677 12.9661 10.4755 12.9655 10.4098 12.9647C10.3441 12.9639 10.1988 12.9622 10.0871 12.9609C9.97529 12.9596 9.84469 12.9576 9.79683 12.9564C9.74897 12.9551 9.65107 12.9532 9.57929 12.952C9.5075 12.9508 9.40291 12.949 9.34687 12.9479C9.29083 12.9468 9.1917 12.9444 9.12657 12.9425C9.06145 12.9407 8.97173 12.9382 8.92721 12.9369C8.88268 12.9357 8.82345 12.9343 8.79558 12.9337C8.76771 12.9331 8.72211 12.9316 8.69424 12.9304C8.66638 12.9291 8.60962 12.9272 8.56812 12.9261C8.52663 12.9249 8.46021 12.9231 8.42053 12.9219C8.38085 12.9207 8.32855 12.9188 8.30432 12.9176C8.28009 12.9164 8.24043 12.9149 8.2162 12.9142C8.19197 12.9136 8.15033 12.9121 8.12368 12.911C8.09702 12.9098 8.05687 12.9084 8.03446 12.9078C8.01204 12.9072 7.97536 12.9057 7.95295 12.9045C7.93053 12.9032 7.88592 12.9013 7.85381 12.9002C7.82171 12.899 7.77016 12.8972 7.73926 12.896C7.70836 12.8948 7.66475 12.8928 7.64233 12.8916C7.61991 12.8903 7.57754 12.8884 7.54815 12.8872C7.51877 12.886 7.47168 12.8841 7.44351 12.883C7.41534 12.8818 7.37544 12.8798 7.35484 12.8786C7.33425 12.8773 7.29509 12.8754 7.26783 12.8742C7.24056 12.8731 7.19744 12.8712 7.172 12.87C7.14655 12.8689 7.1073 12.8668 7.08477 12.8654C7.04381 12.8628 7.04381 12.8628 7.04517 12.8561C7.04615 12.8513 7.04862 12.8484 7.05418 12.8458C7.0584 12.8437 7.08985 12.8338 7.12408 12.8236C7.1583 12.8134 7.23216 12.7914 7.2882 12.7747C7.34424 12.758 7.43668 12.7303 7.49363 12.713C7.55058 12.6958 7.64301 12.6676 7.69903 12.6504C7.75506 12.6332 7.84279 12.6062 7.894 12.5903C7.9452 12.5744 8.03963 12.5449 8.10385 12.5246C8.16807 12.5044 8.26522 12.4736 8.31974 12.4562C8.37426 12.4388 8.54477 12.3835 8.69865 12.3331C8.85253 12.2828 9.02105 12.2273 9.07315 12.2099C9.12525 12.1924 9.20333 12.166 9.24665 12.1513C9.28997 12.1366 9.36085 12.1125 9.40416 12.0977C9.44747 12.083 9.51834 12.0587 9.56165 12.0437C9.60496 12.0287 9.66965 12.0062 9.70541 11.9938C9.74116 11.9814 9.80511 11.959 9.8475 11.9441C9.8899 11.9292 9.95507 11.9063 9.99233 11.8932C10.0296 11.8801 10.098 11.8557 10.1443 11.8392C10.1907 11.8226 10.2514 11.8008 10.2793 11.7907C10.3072 11.7807 10.3714 11.7575 10.4219 11.7391C10.4725 11.7208 10.5669 11.6864 10.6317 11.6626C10.6966 11.6387 10.8021 11.5997 10.8664 11.5757C10.9306 11.5517 11.0322 11.5136 11.0922 11.491C11.1521 11.4684 11.2503 11.4312 11.3103 11.4083C11.3702 11.3853 11.4709 11.3467 11.5339 11.3223C11.5969 11.2979 11.6995 11.258 11.7619 11.2336C11.8243 11.2092 11.9145 11.1737 11.9623 11.1547C12.0102 11.1358 12.0873 11.1051 12.1336 11.0865C12.18 11.068 12.2563 11.0373 12.3032 11.0184C12.3502 10.9995 12.4456 10.9608 12.5153 10.9323C12.585 10.9038 12.693 10.8594 12.7554 10.8336C12.8178 10.8078 12.9541 10.7508 13.0583 10.707C13.1625 10.6632 13.2763 10.6152 13.3111 10.6003C13.3459 10.5854 13.4027 10.561 13.4373 10.5462C13.4718 10.5314 13.5454 10.4996 13.6008 10.4757C13.6562 10.4518 13.7301 10.4197 13.7649 10.4044C13.7998 10.3891 13.8649 10.3605 13.9097 10.3408C13.9545 10.3212 14.0185 10.293 14.0518 10.2782C14.0852 10.2634 14.1496 10.2347 14.195 10.2145C14.2404 10.1942 14.3031 10.1661 14.3343 10.1521C14.3656 10.1381 14.4419 10.1036 14.504 10.0754C14.566 10.0472 14.6371 10.0149 14.6619 10.0036C14.6867 9.99238 14.7132 9.98179 14.7209 9.9801C14.7285 9.97841 14.7462 9.97596 14.7601 9.97464C14.774 9.97333 14.7973 9.97134 14.8119 9.97023C14.8264 9.96911 14.8552 9.96674 14.8758 9.96496C14.8964 9.96318 14.9296 9.96028 14.9496 9.95852C14.9695 9.95675 14.9973 9.95433 15.0112 9.95314C15.0252 9.95194 15.046 9.94993 15.0575 9.94867C15.069 9.94741 15.0893 9.9455 15.1027 9.94443C15.116 9.94337 15.1378 9.94147 15.1511 9.94023C15.1645 9.93898 15.1848 9.93691 15.1963 9.93564C15.2078 9.93436 15.2276 9.93242 15.2403 9.93133C15.2531 9.93024 15.2781 9.92786 15.296 9.92604C15.3138 9.92422 15.3426 9.92132 15.3599 9.9196C15.3771 9.91787 15.4059 9.91495 15.4237 9.91309C15.4416 9.91124 15.4699 9.90832 15.4865 9.9066C15.5032 9.90489 15.5262 9.90248 15.5377 9.90125C15.5493 9.90003 15.5671 9.89803 15.5774 9.8968C15.5877 9.89558 15.6055 9.89364 15.6171 9.89251C15.6286 9.89137 15.6511 9.88896 15.6672 9.88714C15.6832 9.88533 15.7092 9.88238 15.725 9.8806C15.7407 9.87881 15.7663 9.87592 15.7817 9.87417C15.7972 9.87242 15.8222 9.86955 15.8373 9.86779C15.8525 9.86602 15.8738 9.86355 15.8847 9.86228C15.8956 9.86101 15.9164 9.85854 15.931 9.85678C15.9455 9.85502 15.9648 9.8526 15.9739 9.8514C15.983 9.85019 15.9984 9.84832 16.0081 9.84723C16.0178 9.84614 16.0378 9.84372 16.0527 9.84185C16.0675 9.83998 16.0908 9.83707 16.1045 9.83538C16.1181 9.83369 16.1377 9.83125 16.148 9.82996C16.1583 9.82867 16.1736 9.82664 16.1821 9.82544C16.1906 9.82424 16.205 9.82239 16.2141 9.82132C16.2231 9.82025 16.239 9.81828 16.2493 9.81694C16.2596 9.8156 16.2784 9.8131 16.2912 9.81139C16.3039 9.80968 16.3217 9.80727 16.3308 9.80603C16.3399 9.80479 16.3543 9.80289 16.3628 9.80181C16.3712 9.80073 16.3886 9.79839 16.4013 9.79661C16.414 9.79483 16.4329 9.7923 16.4432 9.79097C16.4535 9.78965 16.4716 9.78716 16.4834 9.78546C16.4952 9.78375 16.5153 9.7809 16.528 9.77912C16.5407 9.77734 16.5615 9.77443 16.5742 9.77265C16.587 9.77087 16.608 9.76792 16.6211 9.76611C16.6341 9.76429 16.6542 9.76142 16.6657 9.75971C16.6772 9.75801 16.6972 9.75509 16.7103 9.75323C16.7233 9.75136 16.7439 9.74837 16.756 9.74658C16.7681 9.74479 16.7879 9.74187 16.8 9.74009C16.8121 9.7383 16.8322 9.73536 16.8446 9.73354C16.8571 9.73173 16.8762 9.72885 16.8871 9.72716C16.898 9.72546 16.9166 9.72261 16.9284 9.72081C16.9402 9.71902 16.9593 9.7161 16.9708 9.71431C16.9823 9.71253 17.0014 9.70962 17.0132 9.70785C17.025 9.70608 17.0406 9.70365 17.0479 9.70246C17.0551 9.70127 17.0735 9.69835 17.0886 9.69598C17.1038 9.69361 17.1375 9.6882 17.1635 9.68397C17.1896 9.67974 17.2201 9.67483 17.2313 9.67306C17.2425 9.6713 17.2603 9.66847 17.2709 9.66678C17.2815 9.66509 17.3167 9.65926 17.3491 9.65382C17.3815 9.64839 17.4256 9.64099 17.4472 9.63738C17.4687 9.63377 17.4942 9.62948 17.5039 9.62785C17.5136 9.62622 17.5304 9.6233 17.5413 9.62135C17.5522 9.61941 17.5691 9.61647 17.5788 9.61483C17.5885 9.61319 17.6078 9.60984 17.6217 9.60739C17.6357 9.60493 17.655 9.60151 17.6647 9.59978C17.6744 9.59806 17.6937 9.59465 17.7077 9.59221C17.7216 9.58977 17.7461 9.58536 17.7622 9.58241C17.7782 9.57947 17.8025 9.57504 17.8162 9.57259C17.8298 9.57013 17.8484 9.56676 17.8575 9.5651C17.8666 9.56344 17.8869 9.55968 17.9026 9.55676C17.9184 9.55383 17.9427 9.54936 17.9566 9.54682C17.9705 9.54427 17.9896 9.54077 17.999 9.53903C18.0084 9.5373 18.0307 9.53304 18.0486 9.52958C18.0664 9.52612 18.1096 9.51785 18.1444 9.5112C18.1792 9.50454 18.235 9.49374 18.2683 9.4872C18.3016 9.48065 18.3502 9.471 18.3763 9.46575C18.4023 9.4605 18.4452 9.45185 18.4716 9.44654C18.4979 9.44122 18.5338 9.43387 18.5514 9.4302C18.569 9.42653 18.5923 9.42168 18.6032 9.41943C18.6141 9.41717 18.6349 9.4128 18.6494 9.40972C18.664 9.40665 18.6848 9.40227 18.6957 9.4C18.7066 9.39773 18.7413 9.39038 18.7728 9.38366C18.8043 9.37694 18.8363 9.3701 18.8439 9.36845C18.8514 9.36681 18.8646 9.36395 18.873 9.3621C18.8815 9.36026 18.8949 9.35734 18.9028 9.35562C18.9107 9.3539 18.9241 9.35099 18.9325 9.34914C18.941 9.34729 18.9541 9.34444 18.9617 9.3428C18.9693 9.34115 18.9852 9.3377 18.9972 9.33511C19.0091 9.33253 19.0192 9.33076 19.0196 9.33118C19.02 9.3316 19.021 9.33356 19.0218 9.33553C19.0228 9.33817 19.0201 9.34106 19.0114 9.34663C19.005 9.35077 18.9648 9.37368 18.922 9.39754C18.8793 9.4214 18.808 9.46122 18.7634 9.48602C18.7189 9.51082 18.647 9.55067 18.6037 9.57458C18.5604 9.59849 18.487 9.63883 18.4407 9.66422C18.3943 9.68962 18.3185 9.73097 18.2722 9.75612C18.2259 9.78127 18.1485 9.82309 18.1004 9.84906C18.0522 9.87502 17.9726 9.91769 17.9236 9.94387C17.8745 9.97005 17.778 10.0212 17.7093 10.0575C17.6405 10.0938 17.5599 10.1362 17.5303 10.1517C17.5006 10.1672 17.4533 10.1919 17.4251 10.2066C17.397 10.2212 17.3519 10.2446 17.325 10.2585C17.298 10.2724 17.2415 10.3016 17.1994 10.3233C17.1573 10.345 17.0886 10.3802 17.0469 10.4015C17.0051 10.4228 16.9429 10.4545 16.9085 10.4719C16.8742 10.4893 16.809 10.5222 16.7636 10.5449C16.7183 10.5677 16.6279 10.6129 16.5627 10.6454C16.4976 10.6779 16.3674 10.7422 16.2735 10.7883C16.1796 10.8343 16.0404 10.9021 15.964 10.9389C15.8877 10.9757 15.7752 11.0297 15.714 11.0588C15.6528 11.0879 15.5616 11.1311 15.5113 11.1548C15.461 11.1785 15.3644 11.2238 15.2965 11.2554C15.2287 11.287 15.1397 11.3282 15.0988 11.347C15.0579 11.3658 14.9883 11.3978 14.9441 11.418C14.8998 11.4382 14.8238 11.4728 14.775 11.4949C14.7262 11.517 14.6474 11.5525 14.5998 11.5738C14.5523 11.5951 14.4765 11.6289 14.4313 11.649C14.3862 11.669 14.3002 11.707 14.2402 11.7334C14.1802 11.7598 14.088 11.8002 14.0353 11.8231C13.9826 11.846 13.8949 11.8839 13.8404 11.9074C13.7858 11.9308 13.7001 11.9675 13.6498 11.9889C13.5995 12.0103 13.5101 12.0481 13.451 12.0729C13.3919 12.0977 13.3101 12.132 13.2692 12.1491C13.2284 12.1661 13.1582 12.1952 13.1134 12.2137C13.0686 12.2322 12.9778 12.2694 12.9118 12.2963C12.8458 12.3233 12.7751 12.352 12.7548 12.3602C12.7345 12.3683 12.6803 12.3901 12.6342 12.4086C12.5882 12.4271 12.5102 12.4583 12.4608 12.478C12.4114 12.4977 12.3244 12.532 12.2674 12.5544C12.2105 12.5767 12.1334 12.6068 12.0962 12.6213C12.059 12.6358 11.9972 12.6596 11.959 12.6744C11.9208 12.6891 11.8655 12.7104 11.8362 12.7217C11.8068 12.733 11.7558 12.7525 11.7227 12.765C11.6897 12.7775 11.6238 12.8024 11.5762 12.8204C11.5287 12.8384 11.4551 12.866 11.4127 12.8818C11.3703 12.8976 11.3019 12.923 11.2607 12.9383L11.1858 12.9661ZM10.4966 8.43373C10.4807 8.43356 10.4533 8.43262 10.4357 8.43166C10.4181 8.43069 10.3738 8.42887 10.3371 8.42762C10.3005 8.42636 10.2444 8.42443 10.2126 8.42332C10.1808 8.42222 10.1365 8.42026 10.1141 8.41899C10.0916 8.41771 10.049 8.41572 10.0193 8.41457C9.98964 8.41342 9.94255 8.41153 9.91469 8.41036C9.88682 8.40919 9.84766 8.4072 9.82767 8.40594C9.80768 8.40467 9.77001 8.40272 9.74396 8.4016C9.71791 8.40047 9.67577 8.3986 9.65033 8.39744C9.62489 8.39627 9.5887 8.39428 9.56992 8.39301C9.55114 8.39175 9.51694 8.3898 9.49392 8.38868C9.4709 8.38756 9.43472 8.38567 9.41351 8.38447C9.39231 8.38327 9.35811 8.38125 9.33751 8.37997C9.31691 8.3787 9.28345 8.37675 9.26316 8.37563C9.24286 8.37452 9.20222 8.37217 9.17284 8.3704C9.14346 8.36864 9.10306 8.36621 9.08307 8.36499C9.06308 8.36377 9.03284 8.36177 9.01588 8.36054C8.99891 8.3593 8.96967 8.35739 8.95089 8.3563C8.93211 8.3552 8.90088 8.3533 8.8815 8.35207C8.86211 8.35085 8.83386 8.34889 8.81871 8.34772C8.80357 8.34655 8.78126 8.34504 8.76915 8.34437C8.75703 8.34371 8.72852 8.34178 8.7058 8.34009C8.68308 8.3384 8.64937 8.33598 8.6309 8.33471C8.61243 8.33344 8.58393 8.33141 8.56757 8.3302C8.55122 8.32899 8.51826 8.32657 8.49433 8.32483C8.4704 8.32309 8.43149 8.32021 8.40786 8.31843C8.38424 8.31664 8.34681 8.31379 8.3247 8.31209C8.30259 8.31039 8.27061 8.30793 8.25365 8.30663C8.23669 8.30532 8.20497 8.30283 8.18316 8.30109C8.16135 8.29935 8.1321 8.29694 8.11817 8.29573C8.10424 8.29452 8.07995 8.29252 8.0642 8.29129C8.04845 8.29006 8.01871 8.28768 7.99811 8.286C7.97751 8.28432 7.94306 8.28144 7.92156 8.2796C7.90005 8.27776 7.8656 8.2748 7.84501 8.27303C7.82441 8.27126 7.79095 8.26838 7.77065 8.26663C7.75036 8.26488 7.71715 8.26196 7.69685 8.26016C7.67656 8.25835 7.6436 8.25539 7.62361 8.25358C7.60362 8.25177 7.57165 8.24886 7.55256 8.24713C7.53348 8.24539 7.50225 8.24251 7.48316 8.24073C7.46408 8.23895 7.43285 8.23605 7.41377 8.23427C7.39469 8.23249 7.36347 8.22953 7.34439 8.22768C7.32531 8.22583 7.29532 8.22291 7.27774 8.22119C7.26017 8.21947 7.23043 8.21655 7.21165 8.2147C7.19288 8.21286 7.16314 8.20994 7.14557 8.20822C7.12799 8.2065 7.0985 8.20364 7.08002 8.20185C7.06155 8.20007 7.04378 8.19787 7.04054 8.19695C7.03465 8.19529 7.03465 8.19529 7.04064 8.18665C7.04559 8.1795 7.04945 8.17698 7.06305 8.17205C7.07208 8.16877 7.14044 8.14605 7.21496 8.12156C7.28947 8.09707 7.41091 8.05683 7.48482 8.03213C7.55873 8.00744 7.67224 7.96924 7.73706 7.94724C7.80188 7.92524 7.90894 7.88858 7.97498 7.86576C8.04101 7.84294 8.13667 7.80973 8.18756 7.79195C8.23845 7.77417 8.31702 7.74658 8.36216 7.73063C8.4073 7.71469 8.48958 7.68547 8.54501 7.66571C8.60043 7.64595 8.69089 7.61348 8.74601 7.59356C8.80114 7.57364 8.89681 7.53887 8.9586 7.51629C9.02039 7.49371 9.13043 7.45315 9.20313 7.42616C9.27583 7.39917 9.40331 7.35144 9.48643 7.32009C9.56955 7.28874 9.69099 7.24261 9.7563 7.21758C9.8216 7.19255 9.91641 7.15601 9.96697 7.1364C10.0175 7.11678 10.1134 7.07935 10.1801 7.05321C10.2467 7.02707 10.3332 6.99301 10.3723 6.97751C10.4114 6.96202 10.4773 6.93578 10.5188 6.9192C10.5603 6.90262 10.6364 6.87205 10.6879 6.85128C10.7394 6.8305 10.82 6.79787 10.8669 6.77877C10.9139 6.75966 10.9887 6.72903 11.0332 6.71069C11.0778 6.69236 11.1491 6.66289 11.1918 6.64523C11.2346 6.62755 11.3069 6.59742 11.3527 6.57825C11.3984 6.55908 11.4817 6.52407 11.5377 6.50044C11.5938 6.47681 11.6857 6.43782 11.742 6.41379C11.7984 6.38976 11.8896 6.35065 11.9447 6.32689C11.9998 6.30313 12.094 6.26228 12.154 6.23612C12.214 6.20995 12.3022 6.17129 12.3501 6.1502C12.3979 6.12911 12.4738 6.09555 12.5186 6.07563C12.5634 6.05571 12.6358 6.02333 12.6794 6.00368C12.723 5.98403 12.7666 5.96458 12.7762 5.96044C12.7929 5.95325 12.7947 5.95294 12.818 5.95325C12.8315 5.95342 12.8618 5.95455 12.8854 5.95575C12.909 5.95695 12.9601 5.95937 12.9988 5.96113C13.0376 5.96288 13.105 5.96577 13.1486 5.96755C13.1923 5.96932 13.2572 5.97182 13.2929 5.97311C13.3287 5.9744 13.3921 5.97629 13.4339 5.97731C13.4757 5.97833 13.5506 5.98023 13.6002 5.98153C13.6499 5.98283 13.7565 5.98484 13.8371 5.98598C13.9176 5.98713 14.044 5.98863 14.1179 5.98933C14.1918 5.99002 14.3321 5.98957 14.4297 5.98833C14.5272 5.98709 14.6452 5.98553 14.6918 5.98487C14.7385 5.9842 14.8302 5.98225 14.8956 5.98053C14.961 5.9788 15.0592 5.97593 15.1137 5.97414C15.1682 5.97234 15.2366 5.96986 15.2657 5.96861C15.2948 5.96736 15.3423 5.96547 15.3714 5.96439C15.4005 5.96332 15.4461 5.9614 15.4728 5.96013C15.4994 5.95885 15.5485 5.95639 15.5818 5.95465C15.6151 5.95292 15.6607 5.95046 15.6831 5.9492C15.7056 5.94794 15.7407 5.94604 15.7613 5.94499C15.7819 5.94393 15.8157 5.94202 15.8362 5.94074C15.8568 5.93946 15.8873 5.93743 15.904 5.93623C15.9207 5.93503 15.9497 5.93343 15.9684 5.93267C16.0021 5.93131 16.0026 5.93135 16.0026 5.93583C16.0026 5.93932 15.9977 5.94304 15.9811 5.95207C15.9693 5.9585 15.9376 5.97511 15.9106 5.98898C15.8837 6.00284 15.8282 6.0315 15.7873 6.05265C15.7464 6.07381 15.6859 6.10489 15.6528 6.12172C15.6198 6.13855 15.5641 6.16696 15.529 6.18483C15.4939 6.20271 15.4242 6.23805 15.3742 6.26337C15.3242 6.28868 15.2439 6.32905 15.1958 6.35308C15.1477 6.3771 15.0565 6.42257 14.9931 6.45412C14.9298 6.48567 14.8236 6.53804 14.7572 6.57048C14.6909 6.60293 14.5962 6.64899 14.5469 6.67283C14.4975 6.69667 14.4205 6.73382 14.3757 6.75539C14.3309 6.77695 14.2617 6.81002 14.222 6.82888C14.1823 6.84774 14.1204 6.87721 14.0843 6.89437C14.0483 6.91153 13.9915 6.93838 13.9582 6.95404C13.9249 6.9697 13.8677 6.99651 13.831 7.01363C13.7944 7.03074 13.7341 7.05883 13.6972 7.07603C13.6602 7.09324 13.5962 7.12288 13.5551 7.1419C13.5139 7.16092 13.4437 7.19317 13.3992 7.21358C13.3547 7.23398 13.2908 7.26316 13.2571 7.27843C13.2235 7.29369 13.1702 7.31785 13.1387 7.3321C13.1072 7.34636 13.0569 7.36908 13.0269 7.3826C12.9969 7.39612 12.9228 7.4293 12.8622 7.45633C12.8017 7.48337 12.6976 7.52953 12.6309 7.55892C12.5643 7.5883 12.4493 7.63865 12.3754 7.67079C12.3015 7.70294 12.2004 7.74672 12.1507 7.76809C12.101 7.78946 12.0192 7.82446 11.9689 7.84589C11.9187 7.86731 11.8076 7.9142 11.7222 7.9501C11.6368 7.986 11.5188 8.0353 11.4601 8.05965C11.4013 8.084 11.3022 8.1248 11.2398 8.15032C11.1774 8.17584 11.0953 8.20926 11.0575 8.22459C11.0196 8.23992 10.9594 8.26416 10.9236 8.27848C10.8879 8.29279 10.8257 8.31767 10.7854 8.33378C10.7451 8.34988 10.6801 8.37562 10.641 8.39099C10.6019 8.40635 10.5599 8.42232 10.5477 8.42648C10.5265 8.43375 10.5244 8.43404 10.4966 8.43373Z" fill="#221F20"/>
<defs>
<linearGradient id="paint0_linear_6922_11676" x1="13.3" y1="5" x2="13.3" y2="19" gradientUnits="userSpaceOnUse">
<stop stop-color="#6C179F"/>
<stop offset="1" stop-color="#56BCF9"/>
</linearGradient>
</defs>
</svg>
