<svg width="24" height="24" viewBox="0 0 24 24" fill="none" xmlns="http://www.w3.org/2000/svg">
<path fill-rule="evenodd" clip-rule="evenodd" d="M12 22C17.5228 22 22 17.5228 22 12C22 6.47715 17.5228 2 12 2C6.47715 2 2 6.47715 2 12C2 17.5228 6.47715 22 12 22ZM14.0001 8.46775C14.0001 9.27862 13.3283 9.93605 12.5 9.93605C11.6717 9.93605 10.9999 9.27862 10.9999 8.46775C10.9999 7.65743 11.6717 7 12.5 7C13.3283 7 14.0001 7.65743 14.0001 8.46775ZM15.25 13.8255C15.25 14.9607 14.0191 15 12.5 15C10.9814 15 9.75 14.9607 9.75 13.826C9.75 12.6903 10.4372 10.8168 12.5 10.8168C14.5622 10.8168 15.25 12.6908 15.25 13.8255ZM8.49963 12.064C9.32842 12.064 9.99977 11.4071 9.99977 10.5962C9.99977 9.78588 9.32791 9.12846 8.49963 9.12846C7.67134 9.12846 7 9.78588 7 10.5962C7 11.4071 7.67186 12.064 8.49963 12.064ZM18 10.5962C18 11.4071 17.3281 12.064 16.4999 12.064C15.6716 12.064 15.0002 11.4071 15.0002 10.5962C15.0002 9.78588 15.6721 9.12846 16.4999 9.12846C17.3287 9.12846 18 9.78588 18 10.5962ZM20 11.9998C20 15.866 16.4184 19 12.0003 19C7.58209 19 4 15.866 4 11.9998C4 9.81947 5.13983 7.87163 6.92601 6.5877C8.27908 5.59957 10.0555 5 12.0003 5C13.945 5 15.7209 5.59957 17.0745 6.5877C18.8607 7.87163 20 9.81947 20 11.9998ZM19.3859 11.3688C19.3859 14.6863 16.1259 17.4512 12.0003 17.4512C7.87459 17.4512 4.61415 14.6858 4.61415 11.3688C4.61415 8.0517 7.87459 5.28681 12.0003 5.28681C16.1259 5.28681 19.3859 8.0517 19.3859 11.3688Z" fill="white"/>
</svg>
