<svg width="24" height="24" viewBox="0 0 24 24" fill="none" xmlns="http://www.w3.org/2000/svg">
<path d="M12 22C17.5228 22 22 17.5228 22 12C22 6.47715 17.5228 2 12 2C6.47715 2 2 6.47715 2 12C2 17.5228 6.47715 22 12 22Z" fill="#FF0066"/>
<path d="M12.0008 8.13014C13.4128 8.13014 14.5575 7.50406 14.5575 6.73176C14.5575 5.95945 13.4128 5.33337 12.0008 5.33337C10.5887 5.33337 9.44402 5.95945 9.44402 6.73176C9.44402 7.50406 10.5887 8.13014 12.0008 8.13014Z" fill="white"/>
<path d="M12.0008 18.6667C13.4128 18.6667 14.5575 18.0406 14.5575 17.2683C14.5575 16.496 13.4128 15.8699 12.0008 15.8699C10.5887 15.8699 9.44402 16.496 9.44402 17.2683C9.44402 18.0406 10.5887 18.6667 12.0008 18.6667Z" fill="white"/>
<path d="M8.43776 10.0658C9.14379 8.91587 9.13921 7.67038 8.42752 7.28397C7.71584 6.89755 6.56655 7.51654 5.86052 8.6665C5.15449 9.81647 5.15908 11.062 5.87076 11.4484C6.58244 11.8348 7.73173 11.2158 8.43776 10.0658Z" fill="white"/>
<path d="M18.1399 15.3335C18.846 14.1835 18.8418 12.9383 18.1306 12.5521C17.4194 12.1659 16.2705 12.7851 15.5644 13.9351C14.8584 15.0851 14.8626 16.3303 15.5738 16.7165C16.285 17.1026 17.4339 16.4835 18.1399 15.3335Z" fill="white"/>
<path d="M8.42788 16.7162C9.13956 16.3298 9.14415 15.0843 8.43812 13.9343C7.73209 12.7843 6.5828 12.1654 5.87112 12.5518C5.15944 12.9382 5.15486 14.1837 5.86089 15.3336C6.56692 16.4836 7.7162 17.1026 8.42788 16.7162Z" fill="white"/>
<path d="M18.1312 11.4487C18.8424 11.0625 18.8466 9.81726 18.1405 8.66729C17.4345 7.51732 16.2856 6.89813 15.5744 7.28428C14.8632 7.67043 14.859 8.9157 15.565 10.0657C16.2711 11.2156 17.42 11.8348 18.1312 11.4487Z" fill="white"/>
</svg>
