<svg width="24" height="24" viewBox="0 0 24 24" fill="none" xmlns="http://www.w3.org/2000/svg">
<path d="M14.3438 10.8458C14.3771 11.1375 14.3771 11.1375 14.0854 11.1375H9.84792C9.67917 11.1375 9.67917 11.1042 9.70208 10.8562C9.7125 10.5979 9.73542 10.3292 9.80208 10.0708C9.925 9.6 10.2167 9.29792 10.6979 9.1625C11.1583 9.02708 11.6396 8.99375 12.1104 8.98333C12.525 9.00625 12.9396 9.05 13.3438 9.1625C13.825 9.29792 14.1167 9.6 14.2396 10.0708C14.2979 10.3292 14.3312 10.5979 14.3438 10.8458ZM14.1646 12.8625H9.9375C9.64583 12.8625 9.64583 12.8625 9.67917 13.1542C9.68958 13.4125 9.7125 13.6812 9.77917 13.9396C9.90208 14.4104 10.1937 14.7125 10.675 14.8479C11.0792 14.9604 11.4937 15.0042 11.9083 15.0271C12.3792 15.0167 12.8604 14.9812 13.3208 14.8479C13.8021 14.7125 14.0938 14.4104 14.2167 13.9396C14.2833 13.6812 14.3062 13.4125 14.3167 13.1542C14.3437 12.9083 14.3438 12.875 14.1646 12.8625ZM22 12C22 17.5167 17.5271 22 12 22C6.48333 22 2 17.5167 2 12C2 6.48333 6.48333 2 12 2C17.5271 2 22 6.48333 22 12ZM18.5687 15.2729C18.4125 15.0479 18.1875 15.0271 17.9521 15.0271H15.9688C16.0688 14.8021 16.1479 14.5458 16.1937 14.2542C16.2396 13.9625 16.2729 13.6708 16.3062 13.3687V12.8646H17.875C17.9979 12.8646 18.1104 12.8646 18.2229 12.8417C18.4917 12.7958 18.6604 12.6396 18.6708 12.3813V11.6292C18.6604 11.3708 18.4917 11.2146 18.2229 11.1687C18.1104 11.1458 17.9979 11.1458 17.875 11.1458H16.3271V10.6292C16.2937 10.3271 16.2604 10.0354 16.2146 9.74375C16.1583 9.45208 16.0917 9.20625 15.9688 8.98125H17.9312C18.1667 8.98125 18.3917 8.95833 18.5375 8.73542C18.7729 8.35417 18.65 7.87292 18.2792 7.6375C18.2333 7.59167 18.1896 7.57083 18.1229 7.55833C17.7187 7.4125 17.2937 7.38958 16.8562 7.37917C15.3875 7.34583 13.425 7.32292 11.9687 7.32292C10.7354 7.32292 8.90833 7.33333 7.125 7.36875C6.7 7.39167 6.27292 7.41458 5.85833 7.54792C5.80208 7.55833 5.74583 7.59375 5.70208 7.62708C5.33125 7.8625 5.20833 8.35625 5.44375 8.725C5.6 8.95 5.825 8.97083 6.06042 8.97083H8.04167C7.94167 9.19583 7.8625 9.45208 7.81667 9.74375C7.77083 10.0354 7.7375 10.3271 7.70417 10.6292V11.1333H6.13542C6.0125 11.1333 5.9 11.1333 5.7875 11.1562C5.51875 11.2021 5.35 11.3583 5.33958 11.6167V12.3687C5.35 12.6271 5.51875 12.7833 5.7875 12.8292C5.9 12.8521 6.0125 12.8521 6.13542 12.8521H7.70417V13.3687C7.7375 13.6708 7.77083 13.9625 7.81667 14.2542C7.8625 14.5354 7.93958 14.7917 8.02917 15.0167H6.06667C5.83125 15.0167 5.60625 15.0396 5.46042 15.2625C5.225 15.6437 5.34792 16.125 5.71875 16.3604C5.76458 16.4062 5.80833 16.4271 5.875 16.4396C6.27917 16.5854 6.70417 16.6083 7.14167 16.6187C8.62083 16.6521 10.5729 16.675 12.0292 16.675C13.2625 16.675 15.0896 16.6646 16.8729 16.6292C17.3104 16.6062 17.7354 16.5833 18.15 16.45C18.2062 16.4396 18.2625 16.4042 18.3062 16.3708C18.6812 16.1375 18.8042 15.6437 18.5687 15.2729Z" fill="#516CD4"/>
</svg>
