<svg width="24" height="24" viewBox="0 0 24 24" fill="none" xmlns="http://www.w3.org/2000/svg">
<path d="M18.6703 8.00586L15.3295 10.0117L18.6703 12.0235L21.9999 10.0117L18.6703 8.01174V8.00586ZM5.32957 8.00586L2 10.0117L5.32957 12.0235L8.67038 10.0117L5.32957 8.01174V8.00586Z" fill="#C9EEFF"/>
<path d="M8.6709 18.0176V21.9999L12.0005 19.9999V16.0117L8.6709 18.0117V18.0176Z" fill="#5178E5"/>
<path d="M15.33 10.0235V14.0059L12.0005 12.0059V8.01764L15.33 10.0176V10.0235ZM8.67089 6.01176V9.99411L5.33008 7.99411V4L8.67089 6V6.01176ZM15.33 18V21.9823L12.0005 19.9823V16L15.33 18V18ZM8.67089 10.0353V14.0235L5.33008 12.0176V8.0294L8.67089 10.0353Z" fill="#59A8FE"/>
<path d="M8.67089 14.0235V17.9999L5.33008 15.9999V12.0176L8.67089 14.0176V14.0235Z" fill="#59A8FE"/>
<path d="M5.32957 12.0176V15.9999L2 13.9999V10.0117L5.32957 12.0176V12.0176ZM11.9999 16.0117V19.9941L8.67038 17.9941V14.0117L11.9999 16.0117ZM8.67038 17.9999V21.9823L5.32957 19.9823V15.9999L8.67038 17.9999Z" fill="#59A8FE"/>
<path d="M15.33 6.01176V9.99411L18.6708 7.99411V4L15.33 6V6.01176ZM8.6709 10.0235V14.0059L12.0005 12.0059V8.01764L8.6709 10.0176V10.0235Z" fill="#5176E6"/>
<path d="M12.0005 12L8.67089 14L12.0005 16.0117L15.33 14.0059L12.0005 12ZM8.67089 6.01764L5.33008 8.02352L8.67089 10.0353L12.0005 8.02352L8.67089 6.02352V6.01764ZM12.0005 4L8.67089 6.01764L12.0005 8.02352L15.33 6.02352L12.0005 4.00588V4ZM15.33 2L12.0005 4L15.33 6.01764L18.6708 4.00588L15.33 2Z" fill="#C9EEFF"/>
<path d="M8.67089 2L5.33008 4L8.67089 6.01764L12.0005 4.00588L8.67089 2ZM15.33 5.99411L12.0005 8.00587L15.33 10.0059L18.6708 8.00587L15.33 5.99999V5.99411Z" fill="#C9EEFF"/>
<path d="M5.32957 4V8.00587L2 10.0117V13.9941L5.32957 16V19.9882L8.67038 21.9882L11.9999 19.9882L15.3295 21.9882L18.6703 19.9882V16L21.9999 14V10.0117L18.6703 8.01175V4L15.3295 2L11.9999 4L8.67038 2L5.32957 4Z" stroke="#002445" stroke-width="0.43" stroke-miterlimit="10" stroke-linejoin="round"/>
<path d="M2 10.0117L5.32957 12.0411M8.67038 18.0176V21.9823" stroke="white" stroke-width="0.43" stroke-miterlimit="10" stroke-linecap="round" stroke-linejoin="round"/>
<path d="M8.67089 14.0235V18.0176M5.33008 8.00586V16.0058M15.33 18V14" stroke="#002445" stroke-width="0.43" stroke-miterlimit="10" stroke-linejoin="round"/>
<path d="M15.33 21.9823V18M22.0004 9.99999L18.6708 12.0235M18.6708 4L15.33 6.04117M5.33008 4L8.67089 6.03529" stroke="white" stroke-width="0.43" stroke-miterlimit="10" stroke-linecap="round" stroke-linejoin="round"/>
<path d="M18.6708 16.0939V8.10571M5.34133 12.0175L8.67089 14.0175M5.33008 15.9998L12.0005 20.0175" stroke="#002445" stroke-width="0.43" stroke-miterlimit="10" stroke-linejoin="round"/>
<path d="M15.3301 10.0235V14.0058L18.6709 12.0058V8.01758L15.3357 10.0176L15.3301 10.0235Z" fill="#5176E6"/>
<path d="M15.3301 14.0058V17.9882L18.6709 15.9882V12L15.3357 14.0058H15.3301ZM18.6709 12.0176V15.9999L22.0005 13.9999V10.0117L18.6709 12.0117V12.0176Z" fill="#5176E6"/>
<path d="M12 16V19.9882L15.3352 17.9882V14.0059L12 16.0059V16Z" fill="#5176E6"/>
<path d="M15.3301 17.9883V21.9765L18.6709 19.9706V15.9824L15.3357 17.9883H15.3301Z" fill="#5176E6"/>
<path d="M18.609 16L11.9442 20.0235M18.6708 12.0235L15.3356 14.0059M15.4425 6.04117L12.0005 8.01176M12.0005 4L18.8902 8.14117M15.2738 13.9647L12.0005 11.9647V8.01764L8.67089 6.01176M12.0005 4L5.33008 7.99999M12.0005 11.947L8.64839 13.9706" stroke="#002445" stroke-width="0.43" stroke-miterlimit="10" stroke-linejoin="round"/>
<path d="M5.33008 8.00586L8.67089 10.0353V14.0117L12.0005 16.0117V19.9882M18.6708 8.00586L15.33 10.0353V14.0117L12.0005 16.0117" stroke="white" stroke-width="0.43" stroke-miterlimit="10" stroke-linecap="round" stroke-linejoin="round"/>
<path d="M8.6709 10.0352L12.0005 8.02344L15.33 10.0352" stroke="white" stroke-width="0.43" stroke-miterlimit="10" stroke-linecap="round" stroke-linejoin="round"/>
</svg>
