<svg width="24" height="24" viewBox="0 0 24 24" fill="none" xmlns="http://www.w3.org/2000/svg">
<path d="M12 22C17.5228 22 22 17.5228 22 12C22 6.47715 17.5228 2 12 2C6.47715 2 2 6.47715 2 12C2 17.5228 6.47715 22 12 22Z" fill="#4D8BED"/>
<path fill-rule="evenodd" clip-rule="evenodd" d="M12.1695 6.68555C12.4523 6.68555 12.6816 6.90833 12.6816 7.18321V8.17854C12.6816 8.45337 12.4523 8.67616 12.1695 8.67616C11.8866 8.67616 11.6572 8.45337 11.6572 8.17854V7.18321C11.6572 6.90833 11.8866 6.68555 12.1695 6.68555Z" fill="white"/>
<path d="M12.1681 15.4773C9.76325 15.4773 9.26855 14.3715 9.26855 13.4315C9.26855 13.3485 9.33726 13.2656 9.43345 13.2656H10.148C10.2305 13.2656 10.2992 13.3209 10.2992 13.4039C10.4091 14.1365 10.7252 14.4959 12.1819 14.4959C13.3361 14.4959 13.8308 14.2332 13.8308 13.6112C13.8308 13.2518 13.6935 12.9891 11.8932 12.8094C10.3954 12.6573 9.46094 12.3255 9.46094 11.1229C9.46094 10.0032 10.3954 9.3396 11.962 9.3396C13.7209 9.3396 14.5867 9.94785 14.6966 11.2749C14.6966 11.3164 14.6829 11.3579 14.6554 11.3994C14.6279 11.427 14.5867 11.4546 14.5454 11.4546H13.8171C13.7484 11.4546 13.6797 11.3994 13.666 11.3303C13.501 10.5699 13.0751 10.3211 11.9482 10.3211C10.684 10.3211 10.5328 10.7635 10.5328 11.0952C10.5328 11.4961 10.7115 11.6205 12.4155 11.8417C14.1057 12.0629 14.9027 12.3809 14.9027 13.5697C14.9027 14.7863 13.8995 15.4773 12.1681 15.4773Z" fill="white"/>
<path fill-rule="evenodd" clip-rule="evenodd" d="M11.4876 4.68025C11.9231 4.43382 12.463 4.4405 12.892 4.69765L18.3514 7.97014C18.7545 8.21183 19 8.63925 19 9.09957V15.438C19 15.897 18.7559 16.3234 18.3546 16.5656L14.1828 19.082C13.9425 19.227 13.6267 19.1552 13.4775 18.9217C13.3283 18.6882 13.4021 18.3814 13.6425 18.2364L17.8143 15.7199C17.9147 15.6594 17.9757 15.5528 17.9757 15.438V9.09957C17.9757 8.98452 17.9143 8.87764 17.8135 8.81723L12.3541 5.54473C12.2469 5.48044 12.1119 5.47877 12.003 5.54038L6.19403 8.82683C6.089 8.88627 6.02439 8.99547 6.02439 9.11355V15.4084C6.02439 15.5295 6.09232 15.641 6.2016 15.6993L11.4225 18.4826C11.5362 18.5432 11.6754 18.4633 11.6754 18.3372V16.7709C11.6754 16.496 11.9047 16.2733 12.1875 16.2733C12.4704 16.2733 12.6997 16.496 12.6997 16.7709V18.3372C12.6997 19.2199 11.7262 19.7798 10.9297 19.3552L5.70884 16.5719C5.27171 16.3388 5 15.8929 5 15.4084V9.11355C5 8.64117 5.25843 8.2044 5.67857 7.96669L11.4876 4.68025Z" fill="white"/>
</svg>
