<svg width="24" height="24" viewBox="0 0 24 24" fill="none" xmlns="http://www.w3.org/2000/svg">
<path d="M12 22C17.5228 22 22 17.5228 22 12C22 6.47715 17.5228 2 12 2C6.47715 2 2 6.47715 2 12C2 17.5228 6.47715 22 12 22Z" fill="#F9FAFB"/>
<path fill-rule="evenodd" clip-rule="evenodd" d="M14.5243 6.46487C14.5243 7.27389 13.3422 7.92974 11.8842 7.92974C10.426 7.92974 9.24404 7.27389 9.24404 6.46487C9.24404 5.65584 10.426 5 11.8842 5C13.3422 5 14.5243 5.65584 14.5243 6.46487ZM13.2063 16.5854C12.147 16.165 11.5429 16.0906 11.1606 16.0931C10.0543 16.2676 9.24404 16.8325 9.24404 17.5023C9.24404 18.3113 10.426 18.9672 11.8842 18.9672C13.287 18.9672 14.4344 18.36 14.5192 17.5935C14.1581 17.0758 13.8039 16.8614 13.2063 16.5854ZM15.058 15.3272C15.9832 15.4186 16.8938 15.6911 17.6279 16.2445C17.8447 16.0254 18.0477 15.7667 18.2239 15.4755C18.9529 14.2708 18.9486 12.9664 18.2142 12.5619C17.4798 12.1574 16.2935 12.806 15.5644 14.0106C15.297 14.4525 15.1283 14.9077 15.058 15.3272ZM8.20494 9.95736C8.93398 8.75273 8.92925 7.44803 8.19437 7.04325C7.45949 6.63846 6.27275 7.28688 5.5437 8.49151C4.81466 9.69618 4.81939 11.0009 5.55427 11.4056C6.28915 11.8104 7.47589 11.162 8.20494 9.95736ZM8.19437 16.9239C8.92925 16.5191 8.93399 15.2145 8.20494 14.0098C7.4759 12.8052 6.28915 12.1567 5.55427 12.5615C4.81939 12.9663 4.81466 14.271 5.5437 15.4756C6.27275 16.6803 7.45949 17.3287 8.19437 16.9239ZM18.2239 8.49257C18.9529 9.69721 18.9486 11.0017 18.2142 11.4062C17.4798 11.8107 16.2935 11.1621 15.5644 9.95742C14.8354 8.7528 14.8397 7.44832 15.5741 7.04381C16.3085 6.6393 17.4948 7.28793 18.2239 8.49257ZM13.6211 16.0808C14.6156 15.7858 16.7364 15.7409 17.5535 17.2868C18.442 18.9679 19.0893 19.3512 19.8013 19.0444C19.9137 18.996 20.0561 19.1289 19.9772 19.2192C19.4304 19.8446 19.0036 19.9208 18.5194 19.9801C17.2617 20.1339 16.4093 19.3655 15.9572 18.8001C15.7647 18.6118 15.6133 18.2844 15.4525 17.9371C15.2354 17.4681 15.0016 16.9628 14.6277 16.7148C14.1389 16.4367 13.8358 16.3268 13.6282 16.2651C13.5208 16.2332 13.5137 16.1127 13.6211 16.0808Z" fill="url(#paint0_linear_7068_11230)"/>
<defs>
<linearGradient id="paint0_linear_7068_11230" x1="16.8738" y1="15.9065" x2="14.5904" y2="18.5381" gradientUnits="userSpaceOnUse">
<stop stop-color="#549EFD"/>
<stop offset="1" stop-color="#6EBDFF"/>
</linearGradient>
</defs>
</svg>
