<svg width="24" height="24" viewBox="0 0 24 24" fill="none" xmlns="http://www.w3.org/2000/svg">
<path d="M12 22C17.5229 22 22 17.5229 22 12C22 6.47715 17.5229 2 12 2C6.47715 2 2 6.47715 2 12C2 17.5229 6.47715 22 12 22Z" fill="#627EEA"/>
<path d="M11.998 4.72412V10.1022L16.5436 12.1334L11.998 4.72412Z" fill="white" fill-opacity="0.6"/>
<path d="M11.9983 4.72412L7.45215 12.1334L11.9983 10.1022V4.72412Z" fill="white"/>
<path d="M11.998 15.6182V19.2725L16.5466 12.9795L11.998 15.6182Z" fill="white" fill-opacity="0.6"/>
<path d="M11.9983 19.2725V15.6176L7.45215 12.9795L11.9983 19.2725Z" fill="white"/>
<path d="M11.998 14.7728L16.5436 12.1335L11.998 10.1035V14.7728Z" fill="white" fill-opacity="0.2"/>
<path d="M7.45215 12.1335L11.9983 14.7728V10.1035L7.45215 12.1335Z" fill="white" fill-opacity="0.6"/>
</svg>
