<svg width="24" height="24" viewBox="0 0 24 24" fill="none" xmlns="http://www.w3.org/2000/svg">
<path fill-rule="evenodd" clip-rule="evenodd" d="M22 12C22 17.5228 17.5228 22 12 22C6.47715 22 2 17.5228 2 12C2 6.47715 6.47715 2 12 2C17.5228 2 22 6.47715 22 12ZM11.9756 18.9937C11.9995 19 12.0251 19 12.0807 19C12.1639 18.9999 12.1914 18.9967 12.2226 18.9832C12.2439 18.9741 12.2883 18.9498 12.3212 18.9294C12.3542 18.9089 12.4256 18.866 12.4798 18.834C12.5341 18.8021 12.6168 18.7523 12.6637 18.7235C12.7106 18.6946 12.7905 18.6464 12.8414 18.6163C12.8923 18.5862 12.95 18.552 12.9695 18.5403L13.1325 18.4432C13.2027 18.4015 13.2863 18.3514 13.3184 18.3319C13.3505 18.3124 13.4009 18.282 13.4305 18.2644L13.583 18.1736L13.7399 18.0798L13.8969 17.986L14.0705 17.8823L14.1961 17.807C14.2239 17.7902 14.2971 17.7464 14.3588 17.7097C14.4204 17.673 14.5035 17.6229 14.5433 17.5982C14.5832 17.5736 14.6296 17.546 14.6465 17.5369C14.6633 17.5278 14.6981 17.5073 14.7237 17.4915C14.7493 17.4757 14.7896 17.4516 14.8134 17.438C14.8371 17.4244 14.8767 17.4009 14.9014 17.3857C14.926 17.3704 14.9745 17.3411 15.009 17.3205C15.0435 17.2998 15.1162 17.2568 15.1704 17.2248C15.2247 17.1928 15.2792 17.1596 15.2915 17.1509C15.3038 17.1422 15.3372 17.1229 15.3658 17.108C15.3943 17.0931 15.4415 17.0567 15.4708 17.027C15.5096 16.9876 15.5277 16.9611 15.5378 16.9288C15.5491 16.8924 15.5516 16.8283 15.5516 16.5677C15.5516 16.2931 15.5496 16.2448 15.5364 16.2061C15.5268 16.1779 15.5057 16.1452 15.4792 16.1178C15.4532 16.0907 15.402 16.0544 15.3442 16.0222C15.293 15.9936 15.2203 15.9536 15.1826 15.9333C15.1449 15.913 15.0683 15.8709 15.0122 15.8399C14.9562 15.8088 14.8881 15.7718 14.861 15.7575C14.8339 15.7433 14.7976 15.7231 14.7803 15.7126C14.763 15.7022 14.6884 15.6609 14.6144 15.6209L14.4081 15.5096C14.3686 15.4883 14.3081 15.455 14.2736 15.4354C14.239 15.4159 14.1926 15.3906 14.1704 15.3793C14.1482 15.368 14.1149 15.3496 14.0964 15.3384C14.0779 15.3272 14.0433 15.308 14.0195 15.2957C13.9957 15.2835 13.9261 15.2459 13.8648 15.2124C13.8035 15.1788 13.707 15.1256 13.6502 15.0943C13.5935 15.0629 13.5168 15.0211 13.4798 15.0013L13.3677 14.9412C13.3431 14.928 13.3088 14.909 13.2915 14.899C13.2742 14.8891 13.248 14.8744 13.2332 14.8665C13.2184 14.8585 13.1238 14.8069 13.023 14.7518C12.9222 14.6967 12.8112 14.6364 12.7764 14.6178C12.7145 14.5848 12.711 14.584 12.6233 14.5837C12.545 14.5834 12.5281 14.5861 12.4897 14.6047C12.4655 14.6164 12.43 14.6394 12.4108 14.6558C12.3915 14.6722 12.3629 14.7072 12.3471 14.7336C12.3313 14.76 12.2861 14.8343 12.2467 14.8988C12.2072 14.9633 12.1655 15.0318 12.154 15.0511C12.1425 15.0703 12.1243 15.0994 12.1134 15.1158C12.1026 15.1322 12.0822 15.1667 12.0682 15.1925C12.0541 15.2183 12.0299 15.2584 12.0146 15.2817C11.9992 15.305 11.9765 15.3416 11.9642 15.363C11.9518 15.3844 11.9216 15.4362 11.8969 15.4782C11.8529 15.553 11.852 15.5561 11.849 15.6369C11.8462 15.7118 11.8482 15.7241 11.8704 15.7711C11.8845 15.801 11.9104 15.8364 11.9317 15.8549C11.952 15.8726 12.0191 15.9144 12.0807 15.9478C12.1424 15.9812 12.2433 16.0364 12.305 16.0703L12.4577 16.1542C12.4801 16.1664 12.5265 16.1913 12.5609 16.2096C12.5952 16.2278 12.6415 16.2533 12.6637 16.2663C12.6859 16.2793 12.7323 16.3044 12.7668 16.3221C12.8014 16.3399 12.8525 16.3691 12.8804 16.387C12.91 16.4061 12.9428 16.4368 12.959 16.4608C12.9743 16.4834 12.9932 16.5225 13.0011 16.5476C13.0095 16.5747 13.0138 16.6113 13.0115 16.6372C13.0094 16.6614 12.9967 16.7026 12.9832 16.7287C12.9696 16.7552 12.9405 16.7915 12.9179 16.8104C12.8955 16.8291 12.8413 16.8656 12.7973 16.8916L12.648 16.9798C12.6098 17.0024 12.5442 17.0419 12.5023 17.0676C12.4603 17.0933 12.3877 17.1368 12.3408 17.1643L12.2096 17.241C12.1843 17.2558 12.1403 17.2728 12.1118 17.2789C12.0708 17.2876 12.0497 17.2877 12.0094 17.2796C11.9816 17.274 11.9362 17.2573 11.9086 17.2425C11.881 17.2278 11.8268 17.198 11.788 17.1765C11.7492 17.1549 11.6838 17.1182 11.6426 17.0949L11.4743 17.0001L11.3071 16.906L11.1099 16.7951L10.8633 16.6564C10.7954 16.6182 10.7036 16.567 10.6592 16.5425C10.6148 16.518 10.5442 16.4786 10.5023 16.455C10.4603 16.4314 10.4018 16.3981 10.3722 16.381C10.3426 16.3638 10.2639 16.3192 10.1973 16.2818C10.1307 16.2444 10.0621 16.2007 10.0449 16.1848C10.0276 16.1688 10.0034 16.1382 9.99106 16.1168C9.99017 16.1152 9.98932 16.1137 9.98849 16.1122C9.96864 16.0758 9.96864 16.0286 9.96864 14.8408C9.96864 13.6538 9.96864 13.6058 9.98809 13.5677C9.98892 13.5661 9.98977 13.5645 9.99066 13.5628C10.0028 13.5403 10.027 13.5075 10.0445 13.4899C10.062 13.4724 10.1287 13.43 10.1929 13.3958C10.257 13.3615 10.3458 13.3135 10.3902 13.289C10.4346 13.2646 10.5121 13.2226 10.5625 13.1958L10.7957 13.0718C10.8736 13.0304 10.9695 12.9788 11.009 12.9572C11.0485 12.9356 11.1191 12.8975 11.1659 12.8726L11.3588 12.7697C11.418 12.738 11.5068 12.69 11.5561 12.663C11.6054 12.636 11.688 12.5913 11.7395 12.5636C11.7911 12.536 11.8577 12.505 11.8875 12.4948C11.9173 12.4845 11.9573 12.4759 11.9762 12.4756C11.9952 12.4753 12.0324 12.481 12.0588 12.4883C12.0853 12.4956 12.1424 12.521 12.1858 12.5448C12.2291 12.5685 12.2767 12.5942 12.2915 12.6018C12.3063 12.6094 12.3325 12.6239 12.3498 12.634C12.3671 12.644 12.3963 12.6604 12.4147 12.6703L12.5403 12.7379C12.5909 12.7652 12.7332 12.8422 12.8565 12.9091C12.9798 12.976 13.1009 13.0423 13.1256 13.0565C13.1502 13.0706 13.1886 13.0919 13.2108 13.1037C13.233 13.1156 13.3167 13.1611 13.3968 13.2049C13.477 13.2487 13.6001 13.3157 13.6704 13.3538C13.7407 13.3919 13.8271 13.4399 13.8625 13.4606C13.9077 13.487 13.9363 13.5113 13.9592 13.5429C13.9833 13.5762 13.9952 13.6051 14.0053 13.6554C14.0156 13.7062 14.0195 13.793 14.0207 14.0041C14.0224 14.2803 14.0228 14.2859 14.0432 14.3223C14.0547 14.3426 14.0818 14.3762 14.1035 14.3968C14.1253 14.4175 14.1617 14.443 14.1846 14.4535C14.1879 14.455 14.191 14.4565 14.1941 14.4578C14.2298 14.4727 14.2717 14.4727 14.7935 14.4727C15.2976 14.4727 15.3642 14.4711 15.3912 14.4589C15.4079 14.4513 15.4422 14.4275 15.4674 14.4059C15.4934 14.3837 15.5246 14.3455 15.5392 14.3181C15.5411 14.3145 15.5429 14.3111 15.5446 14.3076C15.565 14.2653 15.565 14.2131 15.565 13.5193V13.5192C15.565 12.769 15.565 12.769 15.5437 12.7281C15.5319 12.7056 15.5057 12.6705 15.4854 12.6502C15.4651 12.6299 15.4061 12.5903 15.3543 12.5622C15.3025 12.5341 15.2117 12.4852 15.1525 12.4535C15.0933 12.4219 15.0307 12.3873 15.0135 12.3768C14.9962 12.3663 14.9579 12.3452 14.9283 12.3299C14.8987 12.3147 14.8422 12.2841 14.8027 12.2619C14.7632 12.2397 14.7102 12.2105 14.6849 12.1971C14.6596 12.1837 14.5123 12.1039 14.3576 12.0199C14.2029 11.9359 14.0419 11.8458 14 11.8197C13.933 11.778 13.9195 11.7652 13.8884 11.7137C13.8546 11.6578 13.8531 11.6519 13.8539 11.584C13.8546 11.5158 13.8562 11.5104 13.8927 11.4543C13.9216 11.4099 13.944 11.3873 13.9856 11.361C14.0157 11.3419 14.106 11.2915 14.1861 11.2489C14.2662 11.2064 14.3934 11.1387 14.4686 11.0984L14.7175 10.9651C14.7792 10.9321 14.8688 10.8837 14.9167 10.8574C14.9646 10.8312 15.0332 10.7939 15.0691 10.7746L15.2467 10.6793C15.3083 10.6462 15.4233 10.5847 15.5023 10.5428C15.5812 10.5009 15.6841 10.4457 15.731 10.4201L15.8924 10.3323C15.9343 10.3096 15.9956 10.278 16.0286 10.2623C16.065 10.2448 16.108 10.2316 16.1382 10.2287C16.1675 10.2258 16.2054 10.2283 16.2307 10.2348C16.2543 10.2409 16.2877 10.2526 16.3049 10.2608C16.3222 10.2691 16.3511 10.2905 16.3692 10.3085C16.3873 10.3265 16.4103 10.3565 16.4205 10.3752C16.4306 10.394 16.4435 10.4361 16.4491 10.4689C16.4567 10.513 16.4588 11.2194 16.4572 13.1822C16.4551 15.6614 16.4559 15.8392 16.4702 15.8858C16.4817 15.9235 16.497 15.9474 16.532 15.9828C16.5594 16.0106 16.5987 16.0389 16.6278 16.052C16.6327 16.0542 16.637 16.0561 16.6415 16.0579C16.6823 16.0742 16.7295 16.0744 17.2103 16.0766C17.7294 16.079 17.7451 16.0786 17.8052 16.0613C17.8497 16.0484 17.8783 16.0335 17.9079 16.0077C17.9314 15.9872 17.9598 15.9502 17.9744 15.9208C17.9748 15.92 17.9752 15.9192 17.9756 15.9184C18 15.8687 18 15.8071 18 11.8897C18 7.96376 18 7.91032 17.9795 7.86644C17.9792 7.86584 17.979 7.86523 17.9787 7.86462C17.9669 7.83989 17.9397 7.80358 17.9181 7.78394C17.8966 7.76429 17.8567 7.73846 17.8296 7.72652C17.7894 7.70882 17.7666 7.7048 17.706 7.70474C17.6391 7.70466 17.625 7.70771 17.563 7.73567C17.5251 7.75272 17.4738 7.77893 17.4489 7.7939C17.424 7.80887 17.3765 7.8349 17.3434 7.85173C17.3103 7.86857 17.2587 7.89601 17.2287 7.91271C17.1986 7.92942 17.1531 7.9542 17.1274 7.9678C17.1017 7.98139 17.0363 8.01631 16.9821 8.04539L16.7713 8.15832C16.7097 8.19135 16.633 8.23283 16.6009 8.25051C16.5688 8.26819 16.5223 8.29348 16.4974 8.30671L16.3584 8.38094L16.1614 8.48624C16.1047 8.51656 16.0321 8.55586 16 8.57357C15.968 8.59128 15.8816 8.63781 15.8082 8.67697C15.7347 8.71614 15.652 8.76012 15.6243 8.77472C15.5967 8.78931 15.5244 8.82844 15.4638 8.86167C15.4032 8.8949 15.3281 8.93522 15.2968 8.95126C15.2655 8.9673 15.2122 8.99581 15.1783 9.0146C15.1444 9.0334 15.0952 9.06027 15.069 9.07432L14.8254 9.20432C14.7176 9.26176 14.5997 9.32485 14.5636 9.3445C14.5274 9.36415 14.4493 9.40615 14.3902 9.43783L14.1794 9.55103L13.9776 9.65981L13.7534 9.78075C13.6843 9.81802 13.6056 9.86027 13.5785 9.87463C13.5514 9.88899 13.4989 9.91718 13.4619 9.93726C13.4249 9.95734 13.3684 9.98766 13.3363 10.0046L13.2254 10.0635C13.1964 10.0789 13.1522 10.103 13.1271 10.1171C13.102 10.1312 13.055 10.1562 13.0228 10.1729C12.9905 10.1895 12.942 10.2155 12.9148 10.2307C12.8877 10.2459 12.8171 10.2843 12.7579 10.3159C12.6987 10.3476 12.6003 10.3999 12.5392 10.4323C12.4781 10.4646 12.3712 10.5222 12.3015 10.5601C12.2319 10.5981 12.1456 10.6424 12.1099 10.6586C12.0563 10.6829 12.0347 10.688 11.9878 10.6878C11.9445 10.6875 11.9172 10.6815 11.8735 10.6626C11.842 10.649 11.7899 10.6225 11.7579 10.6039C11.7258 10.5852 11.6733 10.5562 11.6413 10.5395C11.6092 10.5228 11.5568 10.494 11.5247 10.4755C11.4926 10.457 11.4442 10.4304 11.4171 10.4162C11.3899 10.4021 11.3455 10.3779 11.3184 10.3626C11.2913 10.3472 11.2489 10.324 11.2242 10.3111C11.1996 10.2982 11.0695 10.2278 10.9351 10.1546L10.4485 9.88961C10.3153 9.81709 10.1245 9.71303 10.0247 9.65836C9.92479 9.6037 9.81405 9.5433 9.77856 9.52414L9.62609 9.44182C9.57772 9.41572 9.44129 9.34139 9.3229 9.27666C9.20452 9.21193 9.07739 9.14184 9.04039 9.1209C9.0034 9.09996 8.94892 9.07032 8.91932 9.05505C8.88972 9.03977 8.7969 8.98983 8.71304 8.94407C8.62919 8.89831 8.52425 8.84077 8.47986 8.81621C8.43546 8.79165 8.33255 8.73532 8.25116 8.69104L8.05761 8.58565C8.03255 8.57197 7.95587 8.53046 7.88721 8.49342C7.81855 8.45637 7.71192 8.39828 7.65026 8.36432C7.58861 8.33035 7.42717 8.24247 7.29152 8.16902C7.15587 8.09557 7.00595 8.01406 6.95836 7.98787L6.78347 7.89183L6.58749 7.78482C6.5283 7.7526 6.45607 7.71515 6.42698 7.70159C6.39269 7.6856 6.3544 7.67543 6.31804 7.67266C6.27642 7.66949 6.24586 7.67304 6.19938 7.68645C6.14714 7.70152 6.12803 7.71263 6.08399 7.75356C6.04698 7.78796 6.02654 7.81534 6.01558 7.84521C6.00081 7.88547 5.99996 8.10561 6 11.8635C6.00005 15.7874 6.00005 15.8386 6.01785 15.8826C6.01809 15.8831 6.01833 15.8837 6.01857 15.8843C6.02929 15.9104 6.05479 15.9466 6.07911 15.9702C6.10222 15.9926 6.14206 16.0204 6.16765 16.0319C6.21418 16.0529 6.21418 16.0529 6.76988 16.0529C7.32557 16.0529 7.32557 16.0529 7.37805 16.0268C7.40692 16.0124 7.44314 15.9891 7.45855 15.975C7.47396 15.9609 7.49797 15.928 7.5119 15.9018C7.53519 15.8581 7.5379 15.8429 7.54549 15.7129C7.55028 15.631 7.55273 14.5029 7.55132 13.0281C7.54998 11.6292 7.55176 10.4641 7.55528 10.4389C7.55946 10.409 7.57293 10.3758 7.59427 10.343C7.61233 10.3152 7.64308 10.2825 7.66323 10.2696C7.68323 10.2568 7.72164 10.2375 7.74859 10.2267C7.78707 10.2113 7.80834 10.208 7.84768 10.2114C7.87967 10.2142 7.92031 10.2264 7.96012 10.2452C7.99441 10.2615 8.0608 10.296 8.10766 10.322C8.15452 10.348 8.23625 10.3927 8.28927 10.4212C8.3423 10.4498 8.43817 10.5019 8.50232 10.537L8.85434 10.7294C8.9838 10.8002 9.11192 10.8698 9.13905 10.8843C9.16618 10.8987 9.22572 10.9309 9.27136 10.9559L9.47315 11.0666C9.5385 11.1025 9.62425 11.1491 9.66371 11.17C9.70317 11.191 9.76573 11.2254 9.80272 11.2464C9.83972 11.2675 9.89373 11.2967 9.92274 11.3113C9.95176 11.3259 9.99629 11.3557 10.0217 11.3775C10.0488 11.4007 10.077 11.4356 10.09 11.462C10.1083 11.499 10.1121 11.5196 10.1118 11.5799C10.1115 11.634 10.107 11.6619 10.0942 11.6871C10.0848 11.7058 10.0564 11.7403 10.0311 11.7638C9.99985 11.7928 9.93158 11.8348 9.81651 11.8958C9.72371 11.945 9.61404 12.0035 9.5728 12.0257C9.53156 12.048 9.46049 12.0858 9.41485 12.1098C9.36921 12.1338 9.30778 12.1671 9.27833 12.1839C9.24889 12.2006 9.19844 12.2282 9.16623 12.2451C9.13401 12.262 9.08546 12.2877 9.05833 12.3022C9.0312 12.3167 8.97874 12.345 8.94174 12.3651C8.90474 12.3851 8.84715 12.4161 8.81376 12.4338L8.69268 12.4976C8.65949 12.515 8.60391 12.5456 8.56918 12.5656C8.53445 12.5856 8.49288 12.6175 8.47679 12.6365C8.46071 12.6555 8.43977 12.6873 8.43027 12.7072C8.41336 12.7426 8.41298 12.7881 8.41279 14.8225C8.41262 16.6592 8.41418 16.9061 8.4262 16.9394C8.43369 16.9602 8.45891 16.9973 8.48225 17.022C8.5109 17.0522 8.55969 17.0865 8.63232 17.1274C8.69152 17.1607 8.77829 17.2088 8.82515 17.2343C8.87201 17.2598 8.9386 17.2969 8.97313 17.3168C9.00766 17.3367 9.08527 17.3807 9.1456 17.4145C9.20592 17.4484 9.31489 17.5097 9.38775 17.5509L9.66284 17.7061C9.74129 17.7502 9.8263 17.7979 9.85177 17.812L9.96474 17.8746C10.0014 17.8949 10.0516 17.9233 10.0763 17.9377C10.1009 17.952 10.163 17.9871 10.2143 18.0156L10.3309 18.0805L10.3991 18.1179C10.4238 18.1313 10.4601 18.1522 10.4799 18.1643C10.4996 18.1764 10.534 18.196 10.5564 18.2079C10.5787 18.2197 10.6473 18.2577 10.7088 18.2923C10.7703 18.3269 10.859 18.377 10.9059 18.4037C10.9527 18.4303 11.0415 18.4802 11.1032 18.5146C11.1648 18.5489 11.2577 18.6009 11.3094 18.63L11.613 18.8012C11.7282 18.8662 11.8574 18.9375 11.9 18.9597C11.9358 18.9783 11.9551 18.9883 11.9756 18.9937ZM14.5516 6.53034C14.5281 6.5181 14.4738 6.51577 13.7265 6.50779L13.7155 6.43112C13.7095 6.38896 13.696 6.31995 13.6854 6.27779C13.6749 6.23562 13.6543 6.16662 13.6396 6.12445C13.6248 6.08229 13.5876 5.99795 13.5568 5.93704C13.526 5.87614 13.4741 5.7878 13.4414 5.74074C13.4087 5.69368 13.3434 5.61275 13.2963 5.56089C13.2492 5.50903 13.1673 5.43207 13.1143 5.38987C13.0613 5.34766 12.9812 5.29028 12.9363 5.26235C12.8914 5.23442 12.8147 5.19234 12.7659 5.16885C12.7171 5.14535 12.6388 5.11244 12.592 5.09572C12.5451 5.079 12.4785 5.05755 12.444 5.04806C12.4094 5.03857 12.3431 5.02387 12.2965 5.0154C12.2271 5.00278 12.1656 5 11.9557 5C11.7428 5 11.6875 5.00256 11.6278 5.01519C11.5884 5.02354 11.5238 5.03851 11.4843 5.04847C11.4449 5.05842 11.3682 5.0835 11.3139 5.10419C11.2597 5.12489 11.1729 5.16323 11.1211 5.18941C11.0693 5.21558 11.0007 5.25436 10.9686 5.27558C10.9366 5.2968 10.8781 5.33972 10.8386 5.37095C10.7991 5.40219 10.7403 5.45279 10.7078 5.48341C10.6754 5.51402 10.6185 5.57495 10.5814 5.6188C10.5443 5.66265 10.4925 5.73111 10.4663 5.77093C10.44 5.81076 10.4072 5.86442 10.3934 5.89019C10.3796 5.91596 10.3565 5.96196 10.3421 5.99242C10.3277 6.02287 10.3055 6.07654 10.2928 6.11168C10.2801 6.14682 10.2595 6.21277 10.2471 6.25824C10.2347 6.30372 10.2203 6.3765 10.2151 6.41998C10.2099 6.46347 10.2027 6.50181 10.1992 6.5052C10.1956 6.50858 10.0172 6.51247 9.80264 6.51383C9.41528 6.51629 9.4123 6.51645 9.37033 6.53608C9.34484 6.54801 9.32022 6.56791 9.3083 6.58624C9.29393 6.60831 9.28853 6.62998 9.28853 6.66547C9.28853 6.69852 9.29419 6.72353 9.30603 6.74279C9.31566 6.75845 9.33714 6.77881 9.35376 6.78803C9.37038 6.79725 9.39849 6.80751 9.41622 6.81082C9.43396 6.81414 10.5886 6.81631 11.9821 6.81565C14.436 6.8145 14.5169 6.81396 14.5541 6.79853C14.5752 6.78976 14.5964 6.77564 14.6012 6.76714C14.6068 6.75709 14.6068 6.74386 14.6009 6.72928C14.596 6.71695 14.5919 6.6908 14.5919 6.67116C14.5919 6.65152 14.5959 6.6223 14.6008 6.60622C14.608 6.58241 14.6067 6.57396 14.5941 6.56068C14.5855 6.55172 14.5664 6.53806 14.5516 6.53034Z" fill="url(#paint0_linear_6922_11715)"/>
<defs>
<linearGradient id="paint0_linear_6922_11715" x1="12" y1="2" x2="12" y2="22" gradientUnits="userSpaceOnUse">
<stop stop-color="#F7D64D"/>
<stop offset="1" stop-color="#DD5943"/>
</linearGradient>
</defs>
</svg>
