<svg width="24" height="24" viewBox="0 0 24 24" fill="none" xmlns="http://www.w3.org/2000/svg">
<path fill-rule="evenodd" clip-rule="evenodd" d="M22 12C22 6.47715 17.5228 2 12 2C6.47715 2 2 6.47715 2 12C2 17.5228 6.47715 22 12 22C17.5228 22 22 17.5228 22 12ZM8.05964 8.47079C8.05964 8.34084 7.95273 8.2355 7.82084 8.2355C7.68895 8.2355 7.58203 8.34084 7.58203 8.47079V15.7648C7.58203 15.8947 7.68895 16.0001 7.82084 16.0001C7.95273 16.0001 8.05964 15.8947 8.05964 15.7648V8.47079ZM9.49271 9.41177C9.6246 9.41177 9.73152 9.51711 9.73152 9.64706V14.3529C9.73152 14.4828 9.6246 14.5882 9.49271 14.5882C9.36082 14.5882 9.25391 14.4828 9.25391 14.3529V9.64706C9.25391 9.51711 9.36082 9.41177 9.49271 9.41177ZM11.4034 8.23529C11.4034 8.10534 11.2965 8 11.1646 8C11.0327 8 10.9258 8.10534 10.9258 8.23529V15.7646C10.9258 15.8945 11.0327 15.9999 11.1646 15.9999C11.2965 15.9999 11.4034 15.8945 11.4034 15.7646V8.23529ZM12.8365 9.88228C12.9684 9.88228 13.0753 9.98762 13.0753 10.1176V13.8822C13.0753 14.0122 12.9684 14.1175 12.8365 14.1175C12.7046 14.1175 12.5977 14.0122 12.5977 13.8822V10.1176C12.5977 9.98762 12.7046 9.88228 12.8365 9.88228ZM14.9854 9.4118C14.9854 9.28186 14.8785 9.17651 14.7466 9.17651C14.6147 9.17651 14.5078 9.28186 14.5078 9.4118V14.8235C14.5078 14.9534 14.6147 15.0588 14.7466 15.0588C14.8785 15.0588 14.9854 14.9534 14.9854 14.8235V9.4118ZM16.4185 8C16.5504 8 16.6573 8.10534 16.6573 8.23529V15.7646C16.6573 15.8945 16.5504 15.9999 16.4185 15.9999C16.2866 15.9999 16.1797 15.8945 16.1797 15.7646V8.23529C16.1797 8.10534 16.2866 8 16.4185 8ZM18.3282 10.8236C18.3282 10.6936 18.2213 10.5883 18.0894 10.5883C17.9575 10.5883 17.8506 10.6936 17.8506 10.8236V13.4118C17.8506 13.5417 17.9575 13.6471 18.0894 13.6471C18.2213 13.6471 18.3282 13.5417 18.3282 13.4118V10.8236ZM19.7613 11.5293C19.8932 11.5293 20.0001 11.6346 20.0001 11.7646V12.4705C20.0001 12.6004 19.8932 12.7058 19.7613 12.7058C19.6294 12.7058 19.5225 12.6004 19.5225 12.4705V11.7646C19.5225 11.6346 19.6294 11.5293 19.7613 11.5293ZM6.38777 10.3531C6.38777 10.2231 6.28085 10.1178 6.14896 10.1178C6.01707 10.1178 5.91016 10.2231 5.91016 10.3531V13.6471C5.91016 13.7771 6.01707 13.8824 6.14896 13.8824C6.28085 13.8824 6.38777 13.7771 6.38777 13.6471V10.3531ZM4.23881 11.5293C4.37069 11.5293 4.47761 11.6346 4.47761 11.7646V12.4705C4.47761 12.6004 4.37069 12.7058 4.23881 12.7058C4.10692 12.7058 4 12.6004 4 12.4705V11.7646C4 11.6346 4.10692 11.5293 4.23881 11.5293Z" fill="white"/>
</svg>
