<svg width="24" height="24" viewBox="0 0 24 24" fill="none" xmlns="http://www.w3.org/2000/svg">
<path fill-rule="evenodd" clip-rule="evenodd" d="M12 22C17.5229 22 22 17.5229 22 12C22 6.47716 17.5229 2 12 2C6.47716 2 2 6.47716 2 12C2 17.5229 6.47716 22 12 22ZM15.6626 5.2108C14.7234 4.67031 13.738 4.34188 12.7512 4.24059C12.4771 4.21246 11.7122 4.21758 11.4202 4.24954C10.5923 4.3401 9.83989 4.56083 9.06529 4.94028C8.82564 5.05768 8.35488 5.31618 8.31937 5.34992C8.31322 5.35572 8.46258 5.64113 8.76554 6.20239L8.97036 6.58177C9.10503 6.83126 9.50416 7.57458 10.3861 9.21873C10.5932 9.6048 10.77 9.93456 10.7789 9.95144C10.7933 9.97878 10.8133 9.975 10.9577 9.91733C11.1977 9.82144 11.4861 9.76284 11.8401 9.73812C12.3578 9.70186 12.7223 9.75806 13.0893 9.93067C13.154 9.96122 13.2082 9.98411 13.2099 9.98178C13.2116 9.97945 13.2991 9.82822 13.4043 9.64558C13.5942 9.31667 14.3988 7.93661 14.7096 7.40706C14.7983 7.25571 14.9727 6.95691 15.0972 6.74301C15.2217 6.52911 15.4408 6.15349 15.5843 5.9083C15.7278 5.66312 15.8583 5.43713 15.8744 5.40606L15.9037 5.34964L15.6626 5.2108ZM13.3399 10.9167C13.0546 10.6159 12.6523 10.4196 12.2172 10.3687C11.6566 10.303 11.0773 10.5022 10.6823 10.8966C10.174 11.4039 10.0143 12.2154 10.2893 12.8928C10.3849 13.1281 10.4958 13.292 10.6916 13.487C11.0362 13.8303 11.417 13.9981 11.9064 14.0223C12.6396 14.0587 13.3006 13.6926 13.6313 13.0668C13.7948 12.7577 13.859 12.4621 13.8411 12.1023C13.8272 11.8254 13.7801 11.6334 13.6684 11.3991C13.5657 11.183 13.4971 11.0826 13.3399 10.9167ZM19.7322 13.7996C19.7673 13.5211 19.7903 12.7106 19.7704 12.4476L19.7566 12.2637H17.1273H14.4981L14.489 12.3253C14.4142 12.837 14.363 13.0178 14.1909 13.3776C13.988 13.8014 13.7701 14.0837 13.4808 14.297C13.41 14.3492 13.3521 14.3987 13.3521 14.4068C13.3521 14.4184 15.7137 18.1869 15.8966 18.4672C15.9204 18.5037 15.9977 18.6253 16.0684 18.7374C16.1391 18.8497 16.2014 18.9414 16.207 18.9414C16.2306 18.9414 16.5476 18.741 16.7946 18.57C17.5844 18.0229 18.1869 17.4194 18.659 16.7023C19.2359 15.8263 19.6012 14.838 19.7322 13.7996ZM9.54466 12.5861C9.52847 12.4349 9.51195 12.3003 9.50798 12.2873C9.50224 12.2686 8.95984 12.2637 6.87894 12.2637C5.35691 12.2637 4.2527 12.2708 4.24656 12.2807C4.22149 12.321 4.21302 13.0873 4.2344 13.3829C4.30372 14.34 4.50212 15.0926 4.90206 15.9156C5.249 16.6294 5.58611 17.1103 6.12373 17.6584C6.43461 17.9753 6.72159 18.2219 7.08697 18.4857C7.32983 18.661 7.76712 18.9417 7.79677 18.9412C7.80497 18.9411 7.8874 18.8194 7.97993 18.6709C8.07241 18.5223 8.43574 17.944 8.78732 17.3858C9.13891 16.8277 9.70563 15.9271 10.0468 15.3849L10.667 14.3989L10.6228 14.3699C10.2373 14.1179 9.94544 13.7982 9.76518 13.4311C9.64833 13.1931 9.5827 12.9418 9.54466 12.5861Z" fill="white"/>
</svg>
