<svg width="24" height="24" viewBox="0 0 24 24" fill="none" xmlns="http://www.w3.org/2000/svg">
<path d="M12 22C17.5228 22 22 17.5228 22 12C22 6.47715 17.5228 2 12 2C6.47715 2 2 6.47715 2 12C2 17.5228 6.47715 22 12 22Z" fill="white"/>
<path d="M4.5176 14.9876C4.46103 14.9876 4.40573 15.0044 4.35869 15.0359C4.31166 15.0673 4.275 15.1121 4.25335 15.1644C4.2317 15.2167 4.22604 15.2743 4.23708 15.3299C4.24811 15.3854 4.27535 15.4365 4.31535 15.4765C4.35535 15.5166 4.40632 15.5439 4.4618 15.5549C4.51728 15.566 4.57479 15.5603 4.62705 15.5386C4.67932 15.5169 4.72398 15.4802 4.75541 15.4331C4.78684 15.386 4.80362 15.3306 4.80362 15.274C4.80362 15.198 4.77348 15.1252 4.71984 15.0715C4.6662 15.0178 4.59345 14.9876 4.5176 14.9876ZM7.17667 13.6913C7.12805 13.6913 7.08026 13.7039 7.03797 13.7279C6.99569 13.7519 6.96035 13.7865 6.93543 13.8283C6.9105 13.8701 6.89684 13.9177 6.89578 13.9664C6.89472 14.015 6.9063 14.0632 6.92938 14.106L6.93385 14.1149C6.958 14.1596 6.99371 14.1968 7.03723 14.2228C7.08075 14.2488 7.13047 14.2626 7.18114 14.2626H16.7404C16.7911 14.2626 16.8408 14.2488 16.8843 14.2228C16.9278 14.1968 16.9635 14.1596 16.9877 14.1149L16.9922 14.106C17.0154 14.0633 17.0272 14.0153 17.0263 13.9666C17.0254 13.918 17.0119 13.8704 16.9871 13.8286C16.9623 13.7868 16.9271 13.7521 16.8849 13.7281C16.8427 13.704 16.7949 13.6913 16.7464 13.6913H7.17667ZM6.89661 11.4075C6.90036 11.4793 6.93152 11.5469 6.98365 11.5963C7.03578 11.6457 7.10488 11.6732 7.17667 11.673H18.0156C18.0873 11.6732 18.1565 11.6457 18.2086 11.5963C18.2607 11.5469 18.2919 11.4793 18.2956 11.4075V11.3986C18.2982 11.3604 18.2929 11.322 18.2801 11.2859C18.2672 11.2499 18.2471 11.2168 18.221 11.1888C18.1949 11.1609 18.1633 11.1386 18.1282 11.1233C18.0931 11.1081 18.0553 11.1002 18.017 11.1002H7.17667C7.13839 11.1003 7.10053 11.1082 7.06541 11.1235C7.0303 11.1388 6.99866 11.161 6.97244 11.189C6.94622 11.2169 6.92597 11.2499 6.91293 11.2859C6.89989 11.322 6.89434 11.3603 6.89661 11.3986V11.4075ZM13.9353 17.5787H9.05068C8.75424 17.5787 8.66039 17.9785 8.92555 18.1127L8.94343 18.1217C8.98228 18.1411 9.02511 18.1514 9.06856 18.1515H13.9175C13.9609 18.1514 14.0037 18.1411 14.0426 18.1217L14.0605 18.1127C14.3256 17.9785 14.2318 17.5787 13.9353 17.5787ZM16.9206 16.2824H12.036C11.7395 16.2824 11.6457 16.6822 11.9109 16.8164L11.9287 16.8254C11.9676 16.8449 12.0104 16.8551 12.0539 16.8552H16.9028C16.9462 16.8551 16.9891 16.8449 17.0279 16.8254L17.0458 16.8164C17.3109 16.6822 17.2171 16.2824 16.9206 16.2824ZM18.385 14.9876H10.4554C10.2111 14.9876 10.083 15.2815 10.2499 15.4605L10.2588 15.4694C10.2854 15.4976 10.3175 15.5201 10.3531 15.5355C10.3887 15.5509 10.4271 15.5589 10.4659 15.5589H18.3761C18.4146 15.5587 18.4527 15.5507 18.488 15.5353C18.5234 15.5199 18.5552 15.4975 18.5816 15.4694L18.5906 15.4605C18.7589 15.2815 18.6308 14.9876 18.385 14.9876ZM9.43055 15.5306L9.44843 15.5216C9.71359 15.3874 9.61974 14.9876 9.32329 14.9876H5.53654C5.24009 14.9876 5.14624 15.3874 5.4114 15.5216L5.42928 15.5306C5.46813 15.5501 5.51096 15.5603 5.55441 15.5604H9.30542C9.34887 15.5603 9.3917 15.5501 9.43055 15.5306ZM6.15773 11.673C6.2143 11.673 6.2696 11.6562 6.31663 11.6248C6.36367 11.5933 6.40033 11.5486 6.42198 11.4962C6.44363 11.4439 6.44929 11.3863 6.43825 11.3308C6.42722 11.2752 6.39998 11.2242 6.35998 11.1841C6.31998 11.1441 6.26901 11.1168 6.21353 11.1057C6.15805 11.0947 6.10054 11.1003 6.04828 11.122C5.99601 11.1437 5.95134 11.1804 5.91992 11.2275C5.88849 11.2746 5.87171 11.33 5.87171 11.3866C5.87171 11.4626 5.90185 11.5354 5.95549 11.5891C6.00913 11.6429 6.08188 11.673 6.15773 11.673ZM13.1711 12.759C13.1726 12.756 13.1726 12.753 13.1741 12.75C13.1853 12.7084 13.1868 12.6648 13.1784 12.6225C13.17 12.5802 13.152 12.5404 13.1258 12.5062C13.0996 12.472 13.0658 12.4443 13.0272 12.4253C12.9885 12.4063 12.946 12.3964 12.903 12.3965H4.97195C4.92888 12.3964 4.88637 12.4062 4.84772 12.4252C4.80907 12.4443 4.77532 12.4719 4.74909 12.5061C4.72286 12.5403 4.70486 12.5801 4.69649 12.6224C4.68812 12.6647 4.6896 12.7084 4.70083 12.75C4.70232 12.753 4.70232 12.756 4.70381 12.759C4.7199 12.8187 4.75515 12.8715 4.80414 12.9093C4.85312 12.947 4.91313 12.9676 4.97493 12.9678H12.9C12.9619 12.9679 13.022 12.9474 13.0711 12.9096C13.1201 12.8718 13.1553 12.8189 13.1711 12.759ZM3.95301 12.3965C3.89644 12.3965 3.84114 12.4133 3.79411 12.4448C3.74707 12.4762 3.71041 12.521 3.68876 12.5733C3.66712 12.6256 3.66145 12.6832 3.67249 12.7388C3.68352 12.7943 3.71076 12.8454 3.75077 12.8854C3.79077 12.9255 3.84173 12.9528 3.89721 12.9638C3.95269 12.9749 4.0102 12.9692 4.06246 12.9475C4.11473 12.9258 4.1594 12.8891 4.19083 12.842C4.22225 12.7949 4.23903 12.7396 4.23903 12.6829C4.23903 12.607 4.20889 12.5341 4.15526 12.4804C4.10162 12.4267 4.02887 12.3965 3.95301 12.3965ZM5.87171 13.9777C5.87171 14.0344 5.88849 14.0897 5.91992 14.1368C5.95134 14.1839 5.99601 14.2206 6.04828 14.2423C6.10054 14.264 6.15805 14.2697 6.21353 14.2586C6.26901 14.2476 6.31998 14.2203 6.35998 14.1802C6.39998 14.1402 6.42722 14.0891 6.43825 14.0336C6.44929 13.978 6.44363 13.9204 6.42198 13.8681C6.40033 13.8158 6.36367 13.771 6.31663 13.7396C6.2696 13.7081 6.2143 13.6913 6.15773 13.6913C6.08188 13.6913 6.00913 13.7215 5.95549 13.7752C5.90185 13.8289 5.87171 13.9018 5.87171 13.9777ZM11.3016 16.5688C11.3016 16.5121 11.2848 16.4568 11.2534 16.4097C11.222 16.3626 11.1773 16.3259 11.125 16.3042C11.0728 16.2825 11.0152 16.2768 10.9598 16.2879C10.9043 16.2989 10.8533 16.3262 10.8133 16.3663C10.7733 16.4063 10.7461 16.4574 10.735 16.5129C10.724 16.5685 10.7297 16.6261 10.7513 16.6784C10.773 16.7307 10.8096 16.7755 10.8567 16.8069C10.9037 16.8384 10.959 16.8552 11.0156 16.8552C11.0914 16.8552 11.1642 16.825 11.2178 16.7713C11.2715 16.7176 11.3016 16.6448 11.3016 16.5688ZM8.03025 17.5787C7.97369 17.5787 7.91839 17.5955 7.87135 17.6269C7.82432 17.6584 7.78766 17.7031 7.76601 17.7555C7.74436 17.8078 7.7387 17.8654 7.74973 17.921C7.76077 17.9765 7.78801 18.0275 7.82801 18.0676C7.86801 18.1077 7.91897 18.1349 7.97446 18.146C8.02994 18.157 8.08745 18.1514 8.13971 18.1297C8.19197 18.108 8.23664 18.0713 8.26807 18.0242C8.2995 17.9771 8.31627 17.9217 8.31627 17.8651C8.31627 17.7891 8.28614 17.7163 8.2325 17.6626C8.17886 17.6089 8.10611 17.5787 8.03025 17.5787Z" fill="#E1147B"/>
<path d="M7.9082 10.0292V10.0471C7.91156 10.1061 7.93737 10.1616 7.98032 10.2021C8.02327 10.2426 8.0801 10.2651 8.1391 10.2649H17.0563C17.1153 10.2651 17.1721 10.2426 17.2151 10.2021C17.258 10.1616 17.2839 10.1061 17.2872 10.0471V10.0292C17.2872 7.43518 15.1883 5.33337 12.5977 5.33337C10.0072 5.33337 7.9082 7.43667 7.9082 10.0292Z" fill="#53CBC8"/>
</svg>
