<svg width="24" height="24" viewBox="0 0 24 24" fill="none" xmlns="http://www.w3.org/2000/svg">
<path d="M19.0594 4.86043C17.1692 3.01288 14.6268 1.98513 11.9836 2.00016C9.34049 2.0152 6.80988 3.0718 4.94087 4.94073C3.07185 6.80965 2.0152 9.34014 2.00016 11.9832C1.98513 14.6262 3.01293 17.1685 4.86056 19.0586C5.79071 19.9939 6.89711 20.7354 8.11575 21.2403C9.3344 21.7452 10.6411 22.0034 11.9602 22C13.9459 21.9998 15.887 21.4108 17.5381 20.3075C19.1891 19.2043 20.4759 17.6362 21.2358 15.8017C21.9957 13.9672 22.1945 11.9485 21.8071 10.001C21.4197 8.05348 20.4635 6.26456 19.0594 4.86043ZM13.9751 9.9441C14.3738 10.3427 14.6452 10.8505 14.7553 11.4034C14.8653 11.9563 14.8088 12.5294 14.5931 13.0502C14.3774 13.571 14.0121 14.0161 13.5433 14.3293C13.0746 14.6425 12.5235 14.8097 11.9598 14.8097C11.3961 14.8097 10.845 14.6425 10.3762 14.3293C9.90752 14.0161 9.54219 13.571 9.32647 13.0502C9.11075 12.5294 9.05433 11.9563 9.16433 11.4034C9.27434 10.8505 9.54583 10.3427 9.94448 9.9441C10.4794 9.41041 11.2042 9.11069 11.9598 9.11069C12.7154 9.11069 13.4402 9.41041 13.9751 9.9441ZM9.06014 9.05981C8.63756 9.48242 8.31248 9.99229 8.10766 10.5537C7.90284 11.1152 7.82323 11.7146 7.87441 12.31C7.92559 12.9054 8.10632 13.4825 8.40394 14.0007C8.70157 14.519 9.10889 14.9659 9.59739 15.3102C10.0859 15.6545 10.6438 15.8879 11.2319 15.994C11.8201 16.1001 12.4243 16.0763 13.0023 15.9243C13.5803 15.7724 14.1182 15.4959 14.5781 15.1143C15.038 14.7327 15.409 14.2551 15.665 13.7151C15.735 14.8928 15.4453 16.064 14.8341 17.0732C14.223 18.0824 13.3194 18.8819 12.2432 19.3656C11.1671 19.8493 9.96929 19.9943 8.80881 19.7813C7.64833 19.5684 6.58004 19.0076 5.74572 18.1734C4.91141 17.3392 4.35052 16.271 4.13751 15.1106C3.92449 13.9502 4.06942 12.7524 4.55305 11.6763C5.03669 10.6001 5.83616 9.69653 6.84536 9.08536C7.85457 8.47418 9.02578 8.18435 10.2036 8.25432C9.77889 8.455 9.39207 8.7275 9.06014 9.05981ZM14.8591 19.0529C15.6122 18.3004 16.1855 17.3875 16.5363 16.3823C16.887 15.3772 17.0061 14.3057 16.8846 13.2481C16.7632 12.1905 16.4043 11.1739 15.8348 10.2744C15.2653 9.37493 14.4999 8.61573 13.5959 8.05353C12.6918 7.49133 11.6723 7.14066 10.6137 7.02772C9.55504 6.91478 8.48456 7.04248 7.48221 7.40129C6.47985 7.7601 5.57152 8.34074 4.82507 9.09984C4.07862 9.85894 3.51334 10.7769 3.17146 11.7851C3.2054 10.0617 3.74535 8.38638 4.72412 6.96749C5.7029 5.5486 7.07729 4.44881 8.67631 3.80495C10.2753 3.16109 12.0284 3.00159 13.7173 3.34628C15.4063 3.69098 16.9566 4.52466 18.1754 5.74359C19.3936 6.96153 20.227 8.51054 20.5721 10.1981C20.9172 11.8857 20.7588 13.6376 20.1166 15.2359C19.4744 16.8342 18.3766 18.2087 16.9598 19.1884C15.5429 20.1681 13.8694 20.7099 12.1472 20.7465C13.1691 20.3976 14.097 19.8183 14.8591 19.0533" fill="white"/>
</svg>
