<svg width="24" height="24" viewBox="0 0 24 24" fill="none" xmlns="http://www.w3.org/2000/svg">
<path d="M10.91 12C10.91 12 8.77004 14.86 6.10004 15C6.88133 14.1868 7.35204 13.125 7.42999 12C7.34789 10.876 6.87779 9.81555 6.10004 9C8.77004 9.12 10.91 12 10.91 12ZM22 12L12 22L2 12L12 2L22 12ZM18.38 14.92C18.7828 14.5457 19.1041 14.0923 19.3239 13.5881C19.5436 13.084 19.6569 12.5399 19.6569 11.99C19.6569 11.4401 19.5436 10.8961 19.3239 10.392C19.1041 9.88784 18.7828 9.43431 18.38 9.05994L16.18 6.84998C15.1291 7.98395 13.7134 8.71306 12.18 8.91003C12.9577 8.09448 13.4279 7.03399 13.51 5.91003C13.4321 4.78505 12.9613 3.72321 12.18 2.91003L11.98 2.68005L11.78 2.91003C11.0059 3.72703 10.5394 4.78736 10.46 5.91003C10.5442 7.03151 11.0101 8.09029 11.78 8.91003C10.2447 8.71204 8.82835 7.97901 7.78003 6.83997L5.64001 9.02002C5.21439 9.39539 4.87351 9.85702 4.64001 10.3743C4.40652 10.8915 4.28577 11.4525 4.28577 12.02C4.28577 12.5875 4.40652 13.1485 4.64001 13.6658C4.87351 14.183 5.21439 14.6447 5.64001 15.02L7.79999 17.1801C8.84353 16.0792 10.2354 15.3727 11.74 15.1801C11.3241 15.5613 10.9921 16.0248 10.7649 16.5413C10.5377 17.0577 10.4205 17.6159 10.4205 18.1801C10.4205 18.7443 10.5377 19.3023 10.7649 19.8187C10.9921 20.3352 11.3241 20.7988 11.74 21.1801L11.94 21.39L12.14 21.1801C12.5656 20.8047 12.9065 20.343 13.14 19.8258C13.3735 19.3086 13.4943 18.7476 13.4943 18.1801C13.4943 17.6126 13.3735 17.0515 13.14 16.5343C12.9065 16.0171 12.5656 15.5554 12.14 15.1801C13.6645 15.3641 15.0781 16.0709 16.14 17.1801L18.35 14.97L18.38 14.92ZM13.11 11.99C13.11 11.99 15.24 14.85 17.91 14.99C17.1359 14.173 16.6694 13.1127 16.59 11.99C16.6742 10.8685 17.1401 9.80973 17.91 8.98999C15.24 9.11999 13.11 12 13.11 12V11.99Z" fill="white"/>
</svg>
