<svg width="24" height="24" viewBox="0 0 24 24" fill="none" xmlns="http://www.w3.org/2000/svg">
<path d="M12 22C17.5228 22 22 17.5228 22 12C22 6.47715 17.5228 2 12 2C6.47715 2 2 6.47715 2 12C2 17.5228 6.47715 22 12 22Z" fill="#2E2E34"/>
<path fill-rule="evenodd" clip-rule="evenodd" d="M11.9065 19.9997C11.7194 19.9973 11.4253 19.9844 11.253 19.9711C11.0808 19.9578 10.747 19.9101 10.5114 19.8651C10.2758 19.8201 9.92213 19.7345 9.72557 19.6749C9.529 19.6153 9.22692 19.5105 9.05427 19.442C8.88162 19.3736 8.57651 19.2349 8.37625 19.134C8.17599 19.033 7.89546 18.8774 7.75286 18.7881C7.61026 18.6988 7.38166 18.542 7.24487 18.4397C7.10807 18.3374 6.88291 18.158 6.74449 18.0409C6.60608 17.9239 6.38917 17.7194 6.26247 17.5864C6.13577 17.4534 5.9329 17.2256 5.81166 17.0802C5.69041 16.9347 5.50641 16.6898 5.40276 16.5358C5.29911 16.3818 5.14974 16.1464 5.07082 16.0127C4.99191 15.879 4.87359 15.662 4.80789 15.5306C4.74219 15.3991 4.63659 15.1597 4.57321 14.9985C4.50983 14.8373 4.41714 14.5793 4.36724 14.4252C4.31733 14.2712 4.24114 13.9874 4.19793 13.7946C4.15472 13.6019 4.09876 13.2973 4.07359 13.1179C4.04841 12.9384 4.01875 12.6737 4.00767 12.5295C3.99182 12.3231 3.9992 12.2302 4.04237 12.0929C4.07253 11.997 4.14401 11.8638 4.20122 11.7969C4.25843 11.73 4.37207 11.6438 4.45376 11.6053C4.56624 11.5522 4.66061 11.5348 4.84266 11.5335C5.05783 11.532 5.10446 11.543 5.2874 11.6386C5.4682 11.7331 5.80794 12.0618 8.23367 14.4889C10.8433 17.1001 10.9861 17.2374 11.1932 17.3352C11.3983 17.432 11.4305 17.4379 11.7528 17.4378C12.077 17.4378 12.1066 17.4322 12.3215 17.3315C12.4883 17.2533 12.5956 17.1746 12.7276 17.0334C12.8263 16.9278 12.9384 16.7747 12.9767 16.6931C13.015 16.6115 13.0616 16.469 13.0802 16.3763C13.0988 16.2836 13.1061 16.1025 13.0964 15.9738C13.0835 15.804 13.0521 15.6827 12.9817 15.5313C12.8899 15.3341 12.6929 15.1309 9.38078 11.8173C6.6882 9.12364 5.85091 8.26827 5.7645 8.12297C5.70265 8.01898 5.63384 7.84803 5.61157 7.74307C5.57886 7.58884 5.57854 7.51617 5.60991 7.36421C5.63126 7.2608 5.67502 7.12462 5.70716 7.06159C5.73929 6.99857 5.89662 6.80184 6.05677 6.62443C6.21692 6.44701 6.46582 6.19565 6.60988 6.06583C6.75393 5.93601 6.95315 5.76424 7.05258 5.68412C7.15201 5.60399 7.37585 5.44283 7.55001 5.32599C7.72416 5.20914 8.02038 5.03144 8.20827 4.93111C8.39617 4.83077 8.66898 4.69748 8.81452 4.6349C8.96005 4.57232 9.22603 4.47068 9.40557 4.40904C9.58511 4.34739 9.90688 4.25534 10.1206 4.20448C10.3344 4.15362 10.6833 4.0868 10.8961 4.056C11.1802 4.01487 11.4734 4 12.0002 4C12.5345 4 12.8203 4.01477 13.1205 4.05789C13.3422 4.08973 13.6848 4.15557 13.8818 4.2042C14.0788 4.25283 14.4008 4.34747 14.5975 4.41452C14.7941 4.48158 15.084 4.59244 15.2416 4.66089C15.3992 4.72933 15.686 4.87257 15.8789 4.9792C16.0718 5.08582 16.3626 5.26489 16.525 5.37714C16.6874 5.4894 16.9393 5.67934 17.0846 5.79924C17.23 5.91915 17.5174 6.18747 17.7235 6.39552C17.9295 6.60356 18.2237 6.94056 18.3772 7.14439C18.5308 7.34823 18.7436 7.65665 18.8501 7.82978C18.9567 8.0029 19.128 8.32197 19.2309 8.5388C19.3338 8.75564 19.4867 9.13485 19.5707 9.38149C19.6548 9.62813 19.7589 9.98796 19.8022 10.1811C19.8455 10.3743 19.9103 10.7563 19.9462 11.03C19.9826 11.3079 20.0058 11.6238 19.9987 11.7454C19.9914 11.87 19.9593 12.0231 19.9237 12.1032C19.8894 12.1802 19.8236 12.2879 19.7773 12.3426C19.7311 12.3974 19.6198 12.4781 19.5299 12.5221C19.4317 12.5702 19.2852 12.6096 19.162 12.6212C19.0003 12.6363 18.9093 12.6258 18.7283 12.5715C18.4992 12.5028 18.4992 12.5028 15.8668 9.86891C14.419 8.42028 13.1529 7.16795 13.0532 7.08595C12.9536 7.00394 12.7998 6.90262 12.7115 6.86079C12.6232 6.81896 12.4525 6.76784 12.3322 6.7472C12.1432 6.71477 12.082 6.71711 11.8813 6.76445C11.7536 6.79457 11.5675 6.86741 11.4678 6.92631C11.3681 6.98521 11.2263 7.09976 11.1528 7.18088C11.0792 7.262 10.9791 7.41235 10.9303 7.515C10.8815 7.61765 10.8273 7.7953 10.8099 7.90977C10.7855 8.07003 10.7883 8.16648 10.8224 8.32916C10.8467 8.44535 10.9034 8.61765 10.9485 8.71205C11.0184 8.85853 11.5411 9.39496 14.5161 12.3735C16.4332 14.2929 18.0394 15.9166 18.0854 15.9818C18.1314 16.047 18.1928 16.1873 18.2218 16.2937C18.2582 16.4266 18.2696 16.5507 18.2584 16.6905C18.2478 16.8218 18.212 16.9552 18.1574 17.0669C18.0986 17.1872 17.9577 17.3563 17.6953 17.6216C17.4877 17.8315 17.1849 18.1091 17.0224 18.2385C16.86 18.3678 16.5872 18.567 16.4162 18.681C16.2452 18.7949 15.8535 19.0129 15.5457 19.1653C15.1936 19.3396 14.8131 19.4996 14.5197 19.5966C14.2633 19.6814 13.8436 19.7927 13.5871 19.8439C13.3306 19.8951 12.9241 19.9521 12.6837 19.9706C12.4434 19.989 12.0936 20.0021 11.9065 19.9997Z" fill="url(#paint0_linear_6920_11942)"/>
<defs>
<linearGradient id="paint0_linear_6920_11942" x1="12" y1="4" x2="12" y2="20" gradientUnits="userSpaceOnUse">
<stop stop-color="#E25061"/>
<stop offset="1" stop-color="#CC3474"/>
</linearGradient>
</defs>
</svg>
