<svg width="24" height="24" viewBox="0 0 24 24" fill="none" xmlns="http://www.w3.org/2000/svg">
<path fill-rule="evenodd" clip-rule="evenodd" d="M22 12C22 17.5228 17.5228 22 12 22C6.47715 22 2 17.5228 2 12C2 6.47715 6.47715 2 12 2C17.5228 2 22 6.47715 22 12ZM6.5 17.7774C6.5 18.4526 7.05295 19 7.73502 19C8.41722 19 8.97017 18.4526 8.97017 17.7774V14.8444C8.97017 13.7706 9.84958 12.9 10.9345 12.9H13.0655C14.1504 12.9 15.0298 13.7706 15.0298 14.8444V17.7774C15.0298 18.4526 15.5828 19 16.265 19C16.9471 19 17.5 18.4526 17.5 17.7774V6.22264C17.5 5.54738 16.9471 5 16.265 5C15.5828 5 15.0298 5.54738 15.0298 6.22264V8.87556C15.0298 9.94948 14.1504 10.82 13.0655 10.82H10.9345C9.84958 10.82 8.97017 9.94948 8.97017 8.87556V6.22264C8.97017 5.54738 8.41722 5 7.73502 5C7.05295 5 6.5 5.54738 6.5 6.22264V17.7774Z" fill="white"/>
</svg>
