<svg width="24" height="24" viewBox="0 0 24 24" fill="none" xmlns="http://www.w3.org/2000/svg">
<path d="M22 12C22 6.47715 17.5228 2 12 2C6.47715 2 2 6.47715 2 12C2 17.5228 6.47715 22 12 22C17.5228 22 22 17.5228 22 12Z" fill="black"/>
<path fill-rule="evenodd" clip-rule="evenodd" d="M15.6063 8.48999C15.4399 8.26179 15.3353 8.03059 15.3353 8.03059C15.3304 8.02134 15.3255 8.01294 15.3193 8.00549C15.3124 7.90844 15.3013 7.46654 15.6112 6.94239C15.9675 6.33909 16.7418 5.63779 18.3959 5.20099C18.4194 5.37028 18.4326 5.73359 18.2226 6.14434C18.0229 6.53588 17.6222 6.96594 16.85 7.32164C16.7973 7.34614 16.7737 7.40939 16.798 7.46269C16.8229 7.51594 16.886 7.53929 16.9394 7.51469C17.5106 7.25139 17.8905 6.94734 18.1428 6.64599L18.6441 6.46291C18.6503 6.66998 18.6253 7.08331 18.3737 7.43456C18.3598 7.44546 18.3501 7.45936 18.3432 7.47491C18.1935 7.66666 17.9723 7.83621 17.6458 7.93791C17.5896 7.95541 17.5584 8.01501 17.5758 8.07101C17.5931 8.12711 17.6527 8.15836 17.7089 8.14096C18.086 8.02351 18.3411 7.82741 18.5123 7.60601L18.617 7.57396C18.5664 7.79246 18.425 8.19301 18.0416 8.50196C17.6784 8.79481 17.1016 9.00136 16.19 8.91041L16.1013 8.90076C16.0008 8.87961 15.9058 8.81611 15.8191 8.73506L15.6063 8.48999ZM8.99234 8.73499C8.90569 8.81604 8.81139 8.87954 8.71089 8.90069C8.68799 8.90339 8.66514 8.90594 8.64224 8.90824L8.62214 8.91034C7.71084 9.00129 7.13389 8.79474 6.77059 8.50189C6.38737 8.19294 6.24574 7.79239 6.19479 7.57389L6.29968 7.60594C6.47125 7.82734 6.72622 8.02344 7.10318 8.14089C7.15919 8.15829 7.21881 8.12704 7.23628 8.07094C7.25375 8.01494 7.22241 7.95534 7.1664 7.93784C6.83975 7.83614 6.61835 7.66659 6.46885 7.47484C6.46219 7.45929 6.45193 7.44539 6.43869 7.43449C6.1867 7.08324 6.1616 6.66994 6.16777 6.46284L6.66947 6.64593C6.92125 6.94728 7.30142 7.25133 7.87287 7.51463C7.92617 7.53923 7.98932 7.51588 8.01417 7.46263C8.03842 7.40933 8.01487 7.34608 7.96187 7.32158C7.19017 6.96592 6.78937 6.53583 6.58917 6.14428C6.37919 5.73354 6.39285 5.37023 6.41642 5.20093C8.07032 5.63774 8.84472 6.33903 9.20102 6.94233C9.51092 7.46653 9.49982 7.90843 9.49287 8.00543C9.48662 8.01288 9.48107 8.02128 9.47692 8.03053C9.47692 8.03053 9.37227 8.26173 9.20517 8.48993L8.99234 8.73499Z" fill="url(#paint0_linear_7081_11251)"/>
<path fill-rule="evenodd" clip-rule="evenodd" d="M14.2138 14.2715V19.2144L17.1926 17.2282C17.9219 16.7518 18.3621 15.9395 18.3621 15.0684V8.49393C18.482 8.36513 18.5735 8.22988 18.6428 8.10068C18.6442 8.10933 18.6449 8.11813 18.6449 8.12703V15.0685C18.6449 16.0353 18.1569 16.9368 17.3479 17.4656C16.0175 18.3345 14.1493 19.5951 14.1493 19.5951C14.1056 19.6235 14.0502 19.6258 14.0044 19.6011C13.9586 19.5763 13.9302 19.5284 13.9302 19.4764V17.9511C13.2127 18.4263 12.5694 18.5214 12.0488 18.46C11.5233 18.398 11.1199 18.1746 10.8821 18.0072V19.4764C10.8821 19.5284 10.8537 19.5763 10.8079 19.6011C10.7621 19.6258 10.7067 19.6235 10.663 19.5951C10.663 19.5951 8.79474 18.3345 7.46439 17.4656C6.65494 16.9368 6.16699 16.0353 6.16699 15.0685V8.12703L6.17233 8.10673C6.24117 8.23428 6.33171 8.36743 6.45046 8.49438V15.0684C6.45046 15.9395 6.89011 16.7517 7.61976 17.2281L10.5986 19.2144V14.2704C7.08751 14.1997 7.86656 10.1747 7.86656 10.1747C7.86791 10.168 7.86931 10.1616 7.87141 10.1554C7.84991 10.0772 7.89636 9.99568 7.97746 9.97113C8.51401 9.80878 9.08246 9.72158 9.67101 9.72158C10.3976 9.72158 11.0942 9.85473 11.7383 10.0983C11.8201 10.1291 11.8596 10.2174 11.8284 10.2957V10.3053L11.7667 13.4869L12.4398 13.9123C12.4412 13.9132 12.4433 13.9142 12.4447 13.9152C12.4461 13.9142 12.4474 13.9132 12.4488 13.9123L13.122 13.4869L13.0603 10.3053C13.0603 10.2942 13.0616 10.2834 13.0637 10.273C13.0485 10.2011 13.0859 10.1261 13.1552 10.0983C13.7639 9.85473 14.4218 9.72158 15.1088 9.72158C15.664 9.72158 16.2013 9.80878 16.7081 9.97113C16.7698 9.99083 16.81 10.047 16.8127 10.1087C16.8294 10.1276 16.8412 10.1511 16.846 10.1777C16.846 10.1777 17.0228 11.1888 16.7774 12.2C16.6256 12.8221 16.315 13.4421 15.7188 13.8402C15.3431 14.0912 14.8529 14.2554 14.2138 14.2715ZM14.0945 13.99C14.0994 13.9895 14.1042 13.9893 14.1091 13.9893C14.7316 13.9893 15.2044 13.843 15.5614 13.6046C16.0945 13.2484 16.3662 12.6896 16.5014 12.1331C16.7136 11.2619 16.5922 10.3907 16.5701 10.2471C16.1056 10.1036 15.6155 10.0268 15.1087 10.0268C14.4897 10.0268 13.8949 10.1414 13.343 10.3521L13.2807 13.53C13.2807 13.5576 13.2668 13.5832 13.2425 13.5976L12.5133 14.0195C12.4911 14.0329 12.464 14.0308 12.4446 14.0166C12.4245 14.0308 12.3975 14.0329 12.3753 14.0195L11.646 13.5976C11.6224 13.5832 11.6079 13.5576 11.6079 13.53L11.5462 10.3541C10.9597 10.1422 10.3282 10.0268 9.67099 10.0268C9.14069 10.0268 8.62839 10.1017 8.14174 10.2418C8.09874 10.4763 7.50104 13.988 10.6928 13.988C10.7011 13.988 10.7095 13.9887 10.7171 13.9901C10.7247 13.9888 10.7323 13.9881 10.7407 13.9881C10.819 13.9881 10.8821 14.0516 10.8821 14.1298V17.6479C11.0089 17.76 11.4443 18.1032 12.0821 18.1784C12.5888 18.2382 13.221 18.1261 13.9302 17.6054V14.1298C13.9302 14.0516 13.9933 13.9881 14.0716 13.9881C14.08 13.9881 14.0876 13.9888 14.0945 13.99ZM12.7711 16.5319C12.7524 16.5373 12.7323 16.5404 12.7122 16.5409L12.4474 16.548L12.1826 16.5409C12.1625 16.5404 12.1424 16.5373 12.1237 16.5319L11.9587 16.4848L12.0328 16.5793C12.0904 16.6523 12.1812 16.6954 12.2782 16.6954H12.6165C12.7136 16.6954 12.8044 16.6523 12.862 16.5793L12.9361 16.4848L12.7711 16.5319ZM13.4422 16.0722C13.4082 16.1101 13.3146 16.1954 13.1697 16.1954H11.725C11.5393 16.1954 11.4374 16.0544 11.4374 16.0544C11.4374 16.0544 11.4873 16.0982 11.6564 16.0812C11.8256 16.0643 12.0453 16.0079 12.1978 16.0305C12.3496 16.0531 12.4474 16.1048 12.4474 16.1048C12.4474 16.1048 12.5985 16.0531 12.751 16.0305C12.9035 16.0079 13.1233 16.0643 13.2924 16.0812C13.3833 16.0904 13.4242 16.0819 13.4422 16.0722C13.4526 16.0613 13.4574 16.0544 13.4574 16.0544C13.4574 16.0544 13.4581 16.0637 13.4422 16.0722ZM12.8904 14.7782C12.9229 14.7359 12.9541 14.6916 12.9819 14.6457C12.9978 14.6193 13.0165 14.5947 13.0373 14.5725C13.0595 14.551 13.0838 14.5324 13.1108 14.5168C13.1566 14.4889 13.2009 14.4584 13.2439 14.4252C13.2994 14.4678 13.3292 14.5359 13.323 14.6054C13.3195 14.6713 13.2911 14.7334 13.2439 14.7797C13.1968 14.8264 13.1351 14.8545 13.0692 14.8588C12.9999 14.8637 12.9327 14.8334 12.8904 14.7782ZM12.1306 14.7782C12.0876 14.833 12.0197 14.8627 11.9503 14.8573C11.8152 14.8482 11.7063 14.7394 11.6966 14.6039C11.6911 14.5345 11.7209 14.4668 11.7757 14.4238C11.8179 14.4572 11.863 14.4879 11.9094 14.5153C11.9358 14.5311 11.9607 14.5498 11.9829 14.571C12.0037 14.5936 12.0224 14.6181 12.0384 14.6442C12.0675 14.6906 12.098 14.7353 12.1306 14.7782ZM10.0689 11.0752C10.1119 11.0756 10.1549 11.0783 10.1985 11.0836C10.2353 11.0854 10.8987 11.1258 11.3805 11.7771C11.3944 11.7965 11.3916 11.8235 11.3743 11.8397C11.3576 11.8557 11.3313 11.8569 11.3126 11.8426L11.3133 11.8427L11.3001 11.833C11.1635 11.7328 10.8738 11.5499 10.4897 11.4758C10.5161 11.5373 10.5313 11.6053 10.5313 11.6767C10.5313 11.9535 10.3067 12.1783 10.0294 12.1783C9.75279 12.1783 9.52819 11.9535 9.52819 11.6767C9.52819 11.6261 9.53584 11.5772 9.54969 11.5311C9.33409 11.5895 9.05334 11.6923 8.77259 11.8713C8.75249 11.8842 8.72684 11.8809 8.71089 11.8633C8.69494 11.8455 8.69494 11.8187 8.71089 11.8C8.88974 11.6008 9.42489 11.0745 10.0613 11.0752L10.0689 11.0752ZM14.8612 11.0752C14.9035 11.0756 14.9472 11.0783 14.9902 11.0836C15.0269 11.0854 15.6903 11.1258 16.1721 11.7771C16.1721 11.7772 16.1728 11.7773 16.1728 11.7775C16.1867 11.7969 16.1839 11.8235 16.1666 11.8397C16.1493 11.8557 16.1229 11.8569 16.1049 11.8426C15.9746 11.7448 15.6779 11.5523 15.2813 11.4758C15.3084 11.5373 15.3236 11.6053 15.3236 11.6767C15.3236 11.9535 15.0983 12.1783 14.8217 12.1783C14.5451 12.1783 14.3205 11.9535 14.3205 11.6767C14.3205 11.6261 14.3274 11.5772 14.3413 11.5311C14.1264 11.5895 13.845 11.6923 13.5642 11.8713C13.5448 11.8842 13.5184 11.8809 13.5032 11.8633C13.4872 11.8455 13.4866 11.8187 13.5025 11.8C13.682 11.6008 14.2172 11.0745 14.8529 11.0752L14.8612 11.0752ZM15.1094 11.5057C15.178 11.5057 15.2335 11.5471 15.2335 11.5981C15.2335 11.649 15.178 11.6905 15.1094 11.6905C15.0408 11.6905 14.9853 11.649 14.9853 11.5981C14.9853 11.5471 15.0408 11.5057 15.1094 11.5057ZM10.3594 11.5057C10.428 11.5057 10.4835 11.5471 10.4835 11.5981C10.4835 11.649 10.428 11.6905 10.3594 11.6905C10.2907 11.6905 10.2353 11.649 10.2353 11.5981C10.2353 11.5471 10.2907 11.5057 10.3594 11.5057ZM10.0405 10.7577C10.0772 10.7558 10.5764 10.7409 11.1136 11.244C11.1136 11.2442 11.1143 11.2444 11.1143 11.2447C11.1316 11.2619 11.133 11.2896 11.1178 11.3085C11.1018 11.3274 11.0741 11.3312 11.054 11.3175C10.8474 11.1774 10.4308 10.9324 10.0412 10.9401C10.0391 10.9402 10.037 10.94 10.0342 10.9396C10.0342 10.9396 9.53724 10.8523 8.77604 11.4207C8.75734 11.435 8.73029 11.4331 8.71364 11.4163C8.69704 11.3995 8.69494 11.3729 8.70949 11.354L8.71019 11.3527C8.87034 11.1631 9.32369 10.7197 10.0405 10.7577ZM14.8321 10.7577C14.8695 10.7558 15.368 10.7409 15.9052 11.244C15.9059 11.2442 15.9059 11.2444 15.9059 11.2447C15.924 11.2619 15.9247 11.2896 15.9094 11.3085C15.8935 11.3274 15.8664 11.3312 15.8463 11.3175C15.6397 11.1774 15.2231 10.9324 14.8328 10.9401C14.8307 10.9402 14.8287 10.94 14.8266 10.9396C14.8266 10.9396 14.3295 10.8523 13.5677 11.4207C13.5489 11.435 13.5226 11.4331 13.506 11.4163C13.4886 11.3995 13.4872 11.3729 13.5018 11.354L13.5025 11.3527C13.6626 11.1631 14.1153 10.7197 14.8321 10.7577ZM9.84224 5.27568C9.41034 5.4494 8.95974 5.67103 8.51814 5.95333C8.44189 5.89475 8.35939 5.83666 8.27209 5.7794C10.2429 4.4791 12.4363 4.3667 12.4363 4.3667L12.4661 4.36718C12.4661 4.36718 13.5677 4.42451 14.907 4.93448C14.9118 4.93594 14.9167 4.93767 14.9215 4.93968L14.9257 4.94155C15.4484 5.1419 16.0071 5.41129 16.5499 5.7731C16.4619 5.83015 16.3794 5.88804 16.3025 5.94648C15.8484 5.6529 15.3846 5.42538 14.9437 5.24908L14.0363 7.38458C14.0252 7.41063 14.0065 7.43278 13.9829 7.44818L12.4925 8.41223L12.4897 8.41398C12.4883 8.41453 12.4876 8.41513 12.4869 8.41578L12.4834 8.41753L12.4821 8.41828L12.4814 8.41888L12.4807 8.41933C12.4599 8.43018 12.4377 8.43568 12.4162 8.43603L12.4155 8.43608H12.4134C12.3919 8.43608 12.3691 8.43103 12.349 8.42043L12.3483 8.42008L12.3469 8.41953L12.3455 8.41873L12.3427 8.41703C12.3413 8.41648 12.3406 8.41583 12.3399 8.41528L12.3372 8.41363L10.846 7.48668C10.8225 7.47173 10.803 7.44973 10.7913 7.42368L9.84224 5.27568ZM14.6789 5.14798C13.4463 4.70085 12.4536 4.65038 12.455 4.65045L12.4453 4.65017C12.3635 4.65488 11.3431 4.72157 10.107 5.17392L11.0332 7.26907L12.412 8.12647L13.7923 7.23367L14.6789 5.14798Z" fill="white"/>
<defs>
<linearGradient id="paint0_linear_7081_11251" x1="12.1698" y1="6.02339" x2="12.1818" y2="8.39999" gradientUnits="userSpaceOnUse">
<stop stop-color="#ECB067"/>
<stop offset="1" stop-color="#825A34"/>
</linearGradient>
</defs>
</svg>
