<svg width="24" height="24" viewBox="0 0 24 24" fill="none" xmlns="http://www.w3.org/2000/svg">
<g clip-path="url(#clip0_6990_11340)">
<g clip-path="url(#clip1_6990_11340)">
<circle cx="12" cy="12" r="12" fill="#F2AE7F"/>
<path d="M18.563 10.2363C18.8459 8.34496 17.4058 7.32821 15.4367 6.64993L16.0755 4.08783L14.5159 3.69916L13.8941 6.19374C13.4841 6.09158 13.063 5.99519 12.6445 5.89969L13.2709 3.38867L11.7122 3L11.073 5.56121C10.7336 5.48392 10.4005 5.40752 10.0771 5.32712L10.0789 5.31913L7.92811 4.7821L7.51324 6.44782C7.51324 6.44782 8.67036 6.713 8.64593 6.72944C9.27757 6.88713 9.39173 7.30511 9.37263 7.63648L8.64504 10.5553C8.68857 10.5664 8.74498 10.5824 8.80717 10.6072C8.7552 10.5944 8.69968 10.5801 8.64238 10.5664L7.62251 14.6552C7.54522 14.847 7.34933 15.1349 6.90781 15.0256C6.92335 15.0483 5.77423 14.7427 5.77423 14.7427L5 16.5279L7.02951 17.0338C7.40708 17.1284 7.77709 17.2275 8.14133 17.3208L7.49592 19.9122L9.0537 20.3008L9.69289 17.737C10.1184 17.8525 10.5315 17.9591 10.9357 18.0594L10.2988 20.6113L11.8583 21L12.5037 18.4135C15.1631 18.9167 17.1629 18.7137 18.0046 16.3084C18.6829 14.3718 17.9709 13.2546 16.5717 12.5261C17.5906 12.2912 18.3582 11.6209 18.563 10.2363Z" fill="#E67817"/>
<g clip-path="url(#clip2_6990_11340)">
<path d="M13.5238 6.42381L13.4236 6.66264L12.3961 13.8615L12.4505 13.9436L15.7015 12.3921L13.5238 6.42381Z" fill="white"/>
<path d="M13.5237 6.42377L9.76331 11.5446L12.4504 13.9436L12.9491 10.4495L13.5237 6.42377Z" fill="white"/>
<path d="M12.3602 14.5761L12.3165 14.6211L11.9505 17.1855L11.9699 17.3108L15.6128 13.0259L12.3602 14.5761Z" fill="white"/>
<path d="M11.9698 17.3109L12.3601 14.5762L9.67285 12.1782L11.9698 17.3109Z" fill="white"/>
<path d="M9.76271 11.5445L12.4498 13.9435L12.9485 10.4494L9.76271 11.5445Z" fill="white"/>
</g>
</g>
</g>
<defs>
<clipPath id="clip0_6990_11340">
<rect width="24" height="24" fill="white"/>
</clipPath>
<clipPath id="clip1_6990_11340">
<rect width="24" height="24" rx="12" fill="white"/>
</clipPath>
<clipPath id="clip2_6990_11340">
<rect width="6" height="11" fill="white" transform="translate(10.5547 6) rotate(8.12293)"/>
</clipPath>
</defs>
</svg>
