<svg width="24" height="24" viewBox="0 0 24 24" fill="none" xmlns="http://www.w3.org/2000/svg">
<circle cx="12" cy="12" r="10" fill="#F2AE7F"/>
<path d="M17.4695 10.5303C17.7053 8.95414 16.5052 8.10684 14.8643 7.54161L15.3966 5.40652L14.0969 5.08263L13.5787 7.16145C13.2371 7.07631 12.8861 6.99599 12.5374 6.91641L13.0594 4.82389L11.7605 4.5L11.2278 6.63434C10.945 6.56994 10.6674 6.50627 10.3979 6.43927L10.3994 6.43261L8.60709 5.98508L8.26136 7.37318C8.26136 7.37318 9.22563 7.59417 9.20527 7.60786C9.73163 7.73927 9.82677 8.08759 9.81085 8.36373L9.20453 10.7961C9.2408 10.8053 9.28781 10.8186 9.33963 10.8394C9.29633 10.8286 9.25006 10.8168 9.2023 10.8053L8.35242 14.2126C8.28801 14.3725 8.12477 14.6124 7.75683 14.5213C7.76979 14.5402 6.81218 14.2856 6.81218 14.2856L6.16699 15.7732L7.85825 16.1948C8.17289 16.2737 8.48123 16.3562 8.78476 16.434L8.24692 18.5935L9.54507 18.9174L10.0777 16.7808C10.4323 16.877 10.7766 16.9659 11.1134 17.0495L10.5826 19.1761L11.8823 19.5L12.4201 17.3446C14.6363 17.7639 16.3027 17.5948 17.0042 15.5904C17.5694 13.9765 16.976 13.0455 15.81 12.4385C16.6592 12.2426 17.2988 11.6841 17.4695 10.5303Z" fill="#E67817"/>
<path d="M13.2689 7.35317L13.1853 7.5522L12.3291 13.5512L12.3745 13.6197L15.0836 12.3268L13.2689 7.35317Z" fill="white"/>
<path d="M13.2701 7.35314L10.1364 11.6205L12.3757 13.6197L12.7913 10.7079L13.2701 7.35314Z" fill="white"/>
<path d="M12.2995 14.1469L12.2631 14.1843L11.9581 16.3213L11.9743 16.4258L15.01 12.855L12.2995 14.1469Z" fill="white"/>
<path d="M11.9737 16.4257L12.2989 14.1468L10.0596 12.1484L11.9737 16.4257Z" fill="white"/>
<path d="M10.1358 11.6205L12.375 13.6196L12.7906 10.7079L10.1358 11.6205Z" fill="white"/>
</svg>
