<svg width="24" height="24" viewBox="0 0 24 24" fill="none" xmlns="http://www.w3.org/2000/svg">
<path fill-rule="evenodd" clip-rule="evenodd" d="M22 12C22 17.5228 17.5228 22 12 22C6.47715 22 2 17.5228 2 12C2 6.47715 6.47715 2 12 2C17.5228 2 22 6.47715 22 12ZM10.0677 9.47568L9.83139 9.07824L8.24824 8.59323C8.08511 8.54323 8.13445 8.37136 8.30586 8.39386L9.59196 8.56311C9.60366 8.49415 9.66266 8.46892 9.74029 8.50198L10.1816 7.41702C10.2392 7.27515 10.4376 7.31827 10.4114 7.4667L10.1499 8.96384L10.1492 8.96421L10.3968 9.29192L10.5911 8.81461C10.6252 8.72992 10.7437 8.75554 10.7279 8.84429L10.6022 9.56386L11.2448 10.4144C11.3115 10.3335 11.3543 10.2366 11.3628 10.1312L11.5467 7.25152L10.581 6.27037C10.4597 6.14694 10.6131 6.00913 10.7593 6.11069L11.583 6.68299L11.6427 5.74935L10.9286 5.02389C10.8398 4.93327 10.9521 4.83233 11.0594 4.90671L11.6694 5.33051L11.722 4.50729C11.7652 3.82981 12.273 3.83137 12.3108 4.50916L12.3501 5.21026L12.7922 4.88265C12.8966 4.80546 13.0129 4.90327 12.9272 4.99639L12.3718 5.59854L12.4275 6.59356L13.1229 6.07819C13.2652 5.97257 13.4237 6.106 13.3069 6.23287L12.4588 7.15241L12.6277 10.1677C12.6431 10.2557 12.6797 10.3337 12.7315 10.3997L13.3708 9.53782L13.2284 8.84148C13.2104 8.75305 13.3278 8.72492 13.3646 8.80867L13.5683 9.27153L13.8246 8.926L13.5256 7.4641C13.4953 7.31598 13.6919 7.26879 13.7539 7.4091L14.2237 8.47668C14.2976 8.4484 14.3534 8.47518 14.3641 8.54367L15.6577 8.34438C15.8284 8.31814 15.8828 8.48907 15.7211 8.5425L14.1202 9.0731L13.8949 9.45973L14.5003 9.36646C14.6022 9.35084 14.6346 9.45271 14.5378 9.4849L13.723 9.75488L13.2065 10.6415C13.2862 10.6483 13.368 10.6424 13.4476 10.6227L16.5655 9.24098L17.0371 8.11579C17.1009 7.96329 17.3147 8.01142 17.2849 8.17172L17.1329 8.98952L18.2352 8.50106L18.6102 7.60624C18.6574 7.49436 18.814 7.52968 18.792 7.64717L18.6691 8.30877L19.3208 8.01998C19.495 7.94279 19.6413 7.90873 19.7529 7.90686C19.8642 7.90498 19.9409 7.93529 19.975 7.98686C20.0093 8.03841 20.0014 8.11123 19.9438 8.19403C19.8865 8.27684 19.7792 8.36997 19.6154 8.46246L19.0872 8.76016L19.6699 8.944C19.7988 8.98462 19.7582 9.12087 19.6224 9.10181L18.7081 8.97389L17.5275 9.63937L18.4822 9.94072C18.6579 9.99603 18.6025 10.1817 18.4181 10.1557L16.9705 9.95332L14.167 11.5336C14.0733 11.5919 14.0047 11.6641 13.9597 11.7431L15.1216 11.7879L15.7597 11.3131C15.8379 11.255 15.9257 11.3284 15.8613 11.3985L15.4903 11.8021L16.0445 11.8235L17.3414 10.8586C17.4732 10.7608 17.6201 10.8839 17.5121 11.0015L16.6636 11.9251C16.6826 11.95 16.683 11.9772 16.6648 12.0025L17.551 12.8998C17.6637 13.0139 17.5218 13.1414 17.3864 13.0477L16.0366 12.1137L15.4999 12.1414L15.8844 12.5306C15.9513 12.5987 15.8667 12.675 15.7868 12.6187L15.1249 12.1608L13.951 12.2215C13.9876 12.2928 14.0414 12.3583 14.1113 12.4124L16.9529 14.0204L18.42 13.7832C18.604 13.7535 18.6649 13.9376 18.4905 13.997L17.504 14.3322L18.658 14.9853L19.6321 14.8278C19.7668 14.8059 19.8114 14.9409 19.6836 14.9843L19.0417 15.2024L19.6207 15.53C20.2758 15.9006 20.0208 16.2816 19.3251 15.9722L18.7138 15.7001L18.8424 16.2993C18.8672 16.4162 18.7117 16.455 18.6624 16.3443L18.2857 15.5096L17.177 15.0162L17.3433 15.7906C17.3775 15.9503 17.1654 16.0029 17.0966 15.8519L16.6046 14.7615L13.4685 13.3657C13.3869 13.3426 13.3055 13.3343 13.2271 13.3387L13.7621 14.2384L14.5632 14.4838C14.6608 14.5138 14.6313 14.6163 14.5289 14.6029L13.9322 14.5245L14.1686 14.9221L15.7524 15.4073C15.9155 15.4573 15.8662 15.6292 15.6947 15.6066L14.4078 15.4373C14.396 15.5058 14.3375 15.5309 14.2604 15.4985L13.8191 16.5835C13.7614 16.7254 13.563 16.6823 13.5893 16.5338L13.8507 15.0367L13.8511 15.0365L13.6038 14.7091L13.4098 15.1856C13.3756 15.2704 13.2571 15.2448 13.2729 15.156L13.3984 14.4373L12.745 13.5724C12.6994 13.6271 12.6647 13.6892 12.6438 13.7564L12.4526 16.7483L13.4188 17.73C13.5401 17.8534 13.3867 17.9912 13.2405 17.8896L12.4163 17.317L12.3566 18.2513L13.0703 18.9764C13.1593 19.067 13.0469 19.168 12.9396 19.0936L12.3299 18.67L12.2773 19.4927C12.2341 20.1702 11.7263 20.1686 11.6885 19.4908L11.6492 18.7898L11.2068 19.1176C11.1024 19.1948 10.9861 19.097 11.0717 19.0039L11.6275 18.4014L11.5719 17.4071L10.8769 17.9221C10.7346 18.0278 10.5761 17.8943 10.6929 17.7674L11.5406 16.8482L11.3677 13.7579C11.3482 13.6949 11.3173 13.638 11.2778 13.588L10.6293 14.4623L10.7717 15.1588C10.7897 15.2472 10.6723 15.2754 10.6356 15.1916L10.4317 14.7286L10.1757 15.0737L10.4749 16.5363C10.5052 16.6844 10.3086 16.7316 10.2466 16.5913L9.77678 15.5236C9.70249 15.5523 9.64645 15.5255 9.63567 15.4569L8.34279 15.656C8.1721 15.6823 8.11773 15.5114 8.27941 15.4579L9.87957 14.9276L10.105 14.5406L9.49982 14.6338C9.39792 14.6494 9.36551 14.5476 9.46237 14.5154L10.277 14.2454L10.8001 13.3474C10.7308 13.342 10.66 13.346 10.5906 13.3604L7.43454 14.7591L6.96286 15.8844C6.89912 16.0369 6.68523 15.9887 6.71511 15.8284L6.86707 15.0106L5.76503 15.499L5.38992 16.3942C5.34275 16.506 5.1861 16.4707 5.20807 16.3532L5.33103 15.6913L4.67959 15.98C3.98316 16.2884 3.7293 15.9072 4.38503 15.5375L4.91263 15.2401L4.33016 15.0563C4.20124 15.0158 4.24193 14.8798 4.37768 14.8986L5.29168 15.0265L6.47258 14.3608L5.51779 14.0594C5.34206 14.0042 5.39751 13.8185 5.58188 13.8444L7.02953 14.0468L9.88155 12.4392C9.9531 12.3861 10.0069 12.3241 10.0439 12.2574L8.87867 12.2125L8.24064 12.6871C8.1625 12.7453 8.07464 12.6719 8.1391 12.6018L8.51006 12.1982L7.95562 12.1769L6.65867 13.1417C6.52687 13.2396 6.37995 13.1164 6.48799 12.999L7.3367 12.0751C7.31789 12.0502 7.31746 12.0232 7.33545 11.9981L6.44909 11.1006C6.33638 10.9865 6.47826 10.859 6.61366 10.9528L7.96354 11.8867L8.50056 11.859L8.11605 11.4697C8.04908 11.4016 8.13369 11.3253 8.21364 11.3816L8.87559 11.8396L10.0471 11.779C10.006 11.7007 9.9441 11.6297 9.86318 11.5733L7.04689 9.97972L5.57936 10.217C5.39535 10.2466 5.3345 10.0626 5.50878 10.0032L6.49572 9.66785L5.34222 9.01515L4.36864 9.17253C4.23397 9.1944 4.18931 9.05941 4.31715 9.01597L4.95858 8.79807L4.37927 8.47027C3.72426 8.09966 3.9792 7.71874 4.67491 8.02841L5.28672 8.30065L5.15797 7.70102C5.13313 7.58415 5.28868 7.5454 5.33838 7.65602L5.71536 8.49139L6.8223 8.98396L6.65605 8.20953C6.62184 8.04985 6.83393 7.99735 6.90271 8.14828L7.39463 9.23863L10.4228 10.5861C10.4473 10.5968 10.4714 10.6055 10.4958 10.6137C10.5016 10.6155 10.507 10.6174 10.5124 10.619C10.5315 10.6249 10.551 10.6296 10.5704 10.6337C10.5794 10.6355 10.5881 10.6377 10.597 10.6393C10.6089 10.6414 10.621 10.6428 10.633 10.6442L10.6438 10.6455L10.6561 10.6469C10.6639 10.6479 10.6716 10.6488 10.6792 10.6492C10.6914 10.6499 10.7033 10.6499 10.7152 10.6499L10.7296 10.65C10.7392 10.6502 10.7488 10.6503 10.7584 10.6499L10.7655 10.6492L10.2377 9.76157L9.43765 9.51645C9.34006 9.48645 9.36959 9.38396 9.47186 9.3974L10.0677 9.47568Z" fill="white"/>
</svg>
