<svg width="24" height="24" viewBox="0 0 24 24" fill="none" xmlns="http://www.w3.org/2000/svg">
<path d="M12 22C17.5228 22 22 17.5228 22 12C22 6.47715 17.5228 2 12 2C6.47715 2 2 6.47715 2 12C2 17.5228 6.47715 22 12 22Z" fill="black"/>
<path fill-rule="evenodd" clip-rule="evenodd" d="M12.7823 5.31151L11.218 8.02204C11.1412 8.15491 11.0308 8.26524 10.8978 8.34196C10.7649 8.41866 10.6141 8.45905 10.4606 8.45905C10.3071 8.45905 10.1563 8.41866 10.0234 8.34196C9.8904 8.26524 9.78 8.15491 9.70316 8.02204L9.67804 7.97829C10.5499 6.46777 10.8632 5.92538 11.5727 4.69721L11.9755 4H12.0249C12.1784 3.99988 12.3293 4.0402 12.4623 4.11691C12.5953 4.19361 12.7057 4.30399 12.7825 4.43694C12.8593 4.56989 12.8997 4.72072 12.8997 4.87425C12.8996 5.02778 12.8592 5.1786 12.7823 5.31151ZM9.33386 5.81622V8.94556C9.33378 9.09909 9.29335 9.24993 9.21655 9.38291C9.13975 9.51585 9.02927 9.62629 8.89629 9.70302C8.76331 9.77978 8.61244 9.82018 8.45887 9.82018C8.30531 9.82018 8.15447 9.77975 8.02149 9.70298L7.97855 9.67785V5.08391L8.02149 5.0588C8.15447 4.98203 8.30531 4.9416 8.45887 4.94159C8.61244 4.94158 8.76331 4.98198 8.89629 5.05874C9.02927 5.13549 9.13975 5.2459 9.21655 5.37887C9.29335 5.51183 9.33378 5.66267 9.33386 5.81622ZM16.0217 6.59873L13.316 8.16298C13.1831 8.24102 13.0318 8.28247 12.8776 8.28316C12.7235 8.28385 12.5718 8.24375 12.4381 8.16691C12.3045 8.09007 12.1935 7.97924 12.1165 7.84567C12.0395 7.71211 11.9992 7.56055 11.9996 7.40636V7.35615L15.978 5.05877L16.0217 5.08389C16.1548 5.16054 16.2654 5.27091 16.3422 5.40388C16.4191 5.53685 16.4596 5.68772 16.4596 5.84131C16.4596 5.99489 16.4191 6.14577 16.3422 6.27874C16.2654 6.41171 16.1548 6.52208 16.0217 6.59873ZM16.0216 9.67767L15.9779 9.7028C15.845 9.77964 15.7347 9.89004 15.658 10.023C15.5813 10.1559 15.5409 10.3067 15.5409 10.4602C15.5409 10.6137 15.5813 10.7645 15.658 10.8975C15.7347 11.0304 15.845 11.1408 15.9779 11.2176L18.6885 12.7819C18.8214 12.8587 18.9722 12.8992 19.1257 12.8992C19.2793 12.8993 19.4301 12.8589 19.5631 12.7821C19.696 12.7053 19.8064 12.5949 19.8831 12.4619C19.9598 12.3289 20.0001 12.178 20 12.0245V11.9743L16.0216 9.67767ZM5.31154 11.2176L8.02211 12.7819C8.15498 12.8587 8.26531 12.9691 8.34204 13.1021C8.41873 13.235 8.45913 13.3858 8.45913 13.5393C8.45913 13.6928 8.41873 13.8436 8.34204 13.9765C8.26531 14.1095 8.15498 14.2199 8.02211 14.2967L7.97836 14.3219L4 12.0245V11.9751C3.99988 11.8215 4.0402 11.6707 4.11691 11.5377C4.19361 11.4047 4.304 11.2942 4.43695 11.2175C4.5699 11.1407 4.72073 11.1003 4.87427 11.1003C5.0278 11.1003 5.17861 11.1408 5.31154 11.2176ZM14.6664 15.0543V18.1836C14.6665 18.337 14.707 18.4877 14.7838 18.6206C14.8605 18.7534 14.9709 18.8637 15.1038 18.9405C15.2367 19.0172 15.3873 19.0577 15.5408 19.0577C15.6942 19.0579 15.845 19.0176 15.978 18.941L16.0217 18.9159V14.322L15.978 14.2968C15.8451 14.22 15.6942 14.1795 15.5407 14.1795C15.3872 14.1795 15.2363 14.2199 15.1034 14.2967C14.9704 14.3735 14.86 14.4839 14.7833 14.6169C14.7066 14.7499 14.6663 14.9007 14.6664 15.0543ZM7.97815 17.4012L10.6879 15.837C10.8208 15.7602 10.9715 15.7197 11.125 15.7197C11.2784 15.7196 11.4292 15.7599 11.5621 15.8366C11.6951 15.9133 11.8055 16.0236 11.8823 16.1565C11.959 16.2894 11.9994 16.4401 11.9995 16.5936V16.6438L8.02109 18.9412L7.97815 18.9161C7.84506 18.8395 7.73455 18.7291 7.65767 18.5961C7.5808 18.4631 7.54033 18.3123 7.54033 18.1587C7.54033 18.0051 7.5808 17.8542 7.65767 17.7212C7.73455 17.5883 7.84506 17.4779 7.97815 17.4012ZM15.8363 13.3158L17.4014 16.0255C17.4781 16.1586 17.5884 16.2691 17.7214 16.346C17.8544 16.4228 18.0053 16.4633 18.1589 16.4633C18.3124 16.4633 18.4633 16.4228 18.5963 16.346C18.7293 16.2691 18.8396 16.1586 18.9163 16.0255L18.9414 15.9817C18.0031 14.3581 17.7113 13.8527 16.8789 12.4104L16.644 12.0035H16.5937C16.4402 12.0035 16.2894 12.044 16.1564 12.1208C16.0234 12.1976 15.913 12.308 15.8363 12.441C15.7595 12.574 15.7191 12.7248 15.7191 12.8784C15.7191 13.032 15.7596 13.1828 15.8363 13.3158ZM18.1841 9.33375H15.0547C14.9011 9.33367 14.7503 9.29324 14.6173 9.21644C14.4844 9.13964 14.374 9.02916 14.2972 8.89618C14.2204 8.7632 14.18 8.61233 14.18 8.4588C14.1801 8.30524 14.2205 8.1544 14.2973 8.02142L14.3224 7.97847H18.9164L18.9415 8.02142C19.0183 8.1544 19.0587 8.30524 19.0587 8.4588C19.0587 8.61233 19.0183 8.7632 18.9416 8.89618C18.8648 9.02916 18.7544 9.13964 18.6215 9.21644C18.4885 9.29324 18.3376 9.33367 18.1841 9.33375ZM14.3224 16.0217L14.2973 15.978C14.2205 15.8451 14.1101 15.7348 13.9771 15.6581C13.8442 15.5813 13.6934 15.541 13.5399 15.541C13.3864 15.541 13.2356 15.5813 13.1027 15.6581C12.9697 15.7348 12.8593 15.8451 12.7825 15.978L11.2182 18.6885C11.1413 18.8214 11.1009 18.9722 11.1008 19.1257C11.1008 19.2793 11.1412 19.4301 11.218 19.5631C11.2948 19.696 11.4052 19.8064 11.5382 19.8831C11.6712 19.9598 11.8221 20.0001 11.9756 20H12.025L12.429 19.3007C13.1376 18.074 13.4511 17.5314 14.3224 16.0217ZM8.94596 14.6661H5.81659C5.66315 14.6663 5.51244 14.7068 5.37959 14.7835C5.24674 14.8603 5.13641 14.9706 5.05967 15.1035C4.98294 15.2364 4.9425 15.3871 4.94241 15.5405C4.94231 15.694 4.98258 15.8447 5.05915 15.9777L5.08427 16.0214H9.67829L9.70338 15.9777C9.77996 15.8447 9.82025 15.694 9.82015 15.5405C9.82007 15.3871 9.7796 15.2364 9.70287 15.1035C9.62615 14.9706 9.51582 14.8603 9.38295 14.7835C9.25011 14.7068 9.09942 14.6663 8.94596 14.6661ZM6.59903 7.97844L8.16331 10.6881C8.24011 10.821 8.28058 10.9717 8.28066 11.1252C8.28073 11.2787 8.2404 11.4294 8.16371 11.5624C8.08702 11.6953 7.97669 11.8057 7.84378 11.8824C7.71091 11.9592 7.56015 11.9996 7.40669 11.9996H7.35647L5.05905 8.02135L5.08416 7.97844C5.16082 7.84535 5.27119 7.7348 5.40416 7.65793C5.53713 7.58109 5.68801 7.54062 5.8416 7.54062C5.99518 7.54062 6.14606 7.58109 6.27903 7.65793C6.412 7.7348 6.52238 7.84535 6.59903 7.97844Z" fill="#C3FD51"/>
</svg>
