<svg width="24" height="24" viewBox="0 0 24 24" fill="none" xmlns="http://www.w3.org/2000/svg">
<path fill-rule="evenodd" clip-rule="evenodd" d="M22 12C22 17.5228 17.5228 22 12 22C6.47715 22 2 17.5228 2 12C2 6.47715 6.47715 2 12 2C17.5228 2 22 6.47715 22 12ZM15.4133 15.4369L18.8955 17.5413V17.5182C18.9245 17.5372 18.9488 17.5624 18.9667 17.592C18.9846 17.6216 18.9956 17.6548 18.9989 17.6891C19.0023 17.7235 18.9978 17.7582 18.986 17.7907C18.9741 17.8231 18.955 17.8525 18.9303 17.8767C18.9092 17.913 18.8787 17.9429 18.8419 17.9633C18.8051 17.9837 18.7634 17.9937 18.7213 17.9923H9.22657C9.18463 18.0026 9.14084 18.0026 9.0989 17.9923L5.67473 15.8879C5.64661 15.8734 5.62174 15.8533 5.60169 15.8289C5.58163 15.8045 5.56682 15.7763 5.55812 15.746C5.54942 15.7156 5.54702 15.6839 5.5511 15.6526C5.55519 15.6213 5.56565 15.5912 5.58185 15.5641C5.60325 15.5247 5.63517 15.492 5.67409 15.4695C5.71302 15.4471 5.75743 15.4358 5.80239 15.4369H15.2856C15.3266 15.4208 15.3723 15.4208 15.4133 15.4369ZM6.7078 15.9226L9.34261 17.5413H17.9088L15.274 15.9226H6.7078ZM18.3469 9.53246C18.3084 9.55261 18.2657 9.56312 18.2222 9.56307H8.5417L5.1176 7.45866C5.09005 7.44206 5.06605 7.42019 5.04704 7.39431C5.02802 7.36843 5.01435 7.33905 5.0068 7.30787C4.99924 7.2767 4.99797 7.24433 5.00304 7.21266C5.00811 7.18099 5.01943 7.15063 5.03634 7.12334C5.05737 7.08701 5.08788 7.05705 5.12469 7.03669C5.16149 7.01632 5.20319 7.0063 5.24526 7.00772H14.74C14.782 6.99743 14.8258 6.99743 14.8677 7.00772L18.3499 9.11213C18.3784 9.12776 18.4035 9.14892 18.4237 9.17436C18.4438 9.19981 18.4587 9.22902 18.4674 9.26027C18.476 9.29152 18.4783 9.32419 18.4741 9.35634C18.4699 9.38848 18.4592 9.41945 18.4428 9.44744C18.4182 9.48313 18.3853 9.51231 18.3469 9.53246ZM17.3168 9.07743L14.682 7.45866H6.11581L8.7507 9.07743H17.3168ZM13.324 11.4478C13.0459 11.1737 12.6705 11.02 12.2793 11.02H12.2677C11.8724 11.0438 11.5027 11.2227 11.2395 11.5174C10.9763 11.8121 10.841 12.1986 10.8632 12.5925C10.8857 12.9602 11.0441 13.3065 11.3077 13.5648C11.5712 13.8231 11.9215 13.9751 12.2909 13.9916C12.4876 13.9901 12.682 13.95 12.8631 13.8736C13.0441 13.7973 13.2083 13.6861 13.3463 13.5465C13.4843 13.407 13.5933 13.2417 13.6671 13.0601C13.7409 12.8786 13.7781 12.6843 13.7766 12.4884C13.762 12.0973 13.6005 11.7259 13.324 11.4478Z" fill="white"/>
</svg>
