<svg width="24" height="24" viewBox="0 0 24 24" fill="none" xmlns="http://www.w3.org/2000/svg">
<path fill-rule="evenodd" clip-rule="evenodd" d="M22 12C22 17.5228 17.5228 22 12 22C6.47715 22 2 17.5228 2 12C2 6.47715 6.47715 2 12 2C17.5228 2 22 6.47715 22 12ZM14.9481 6.89489L17 8.10865L16.9996 10.5627L14.1568 12.2808L16.9997 13.9605L16.998 16.4123L14.9661 17.6402L14.9457 17.6526L12.1028 15.9728L12.1031 17.7597L10.0508 19L8.00019 17.7885L8 16.0017L8.00047 15.3793L8.00059 14.4269L8.01359 12.5094L8.00563 11.7171L8.00043 10.2275L8.0012 8.63947L8.00338 5.24029L10.0556 4L12.1075 5.21377L12.1053 8.61295L14.9481 6.89489ZM8.00048 14.4428L8.00066 13.8569L8.00059 14.4269L8.00048 14.4428ZM8.00048 14.4428L8 16.0017L8.00043 14.4506L8.00048 14.4428ZM11.5866 8.92643L11.5888 5.52727L10.3172 4.77656L10.3136 9.6958L11.5866 8.92643ZM9.79469 4.77977L8.52164 5.54914L8.51939 13.5434L8.51966 17.162L9.79267 16.3926L9.7924 12.7741L9.79259 12.1211L14.9294 9.05059L14.9498 9.03824L16.4811 9.94458L16.4836 8.42076L14.9522 7.51447L9.79306 10.5468L9.79259 12.1211L9.79469 4.77977ZM10.0525 18.38L11.5861 17.4532L11.5856 13.1303L16.2209 10.4113L14.948 9.65826L10.3132 12.444V16.7001L8.77968 17.6269L10.0525 18.38ZM12.1024 15.3542L14.9453 17.0339L16.2183 16.2646L12.1025 13.8318L12.1024 15.3542ZM16.4795 15.7941L16.481 14.274L13.6367 12.5919L12.3637 13.3613L16.4795 15.7941Z" fill="white"/>
</svg>
