<svg width="24" height="24" viewBox="0 0 24 24" fill="none" xmlns="http://www.w3.org/2000/svg">
<path d="M11.8426 14.7407H6.58301C7.13347 15.7334 7.64577 16.0155 7.64577 16.0155C8.44417 16.3278 11.2001 16.3799 11.2001 16.3799L12.7674 19.1592C12.9555 18.5406 13.2092 17.8878 13.5393 17.2306L11.8426 14.7407Z" fill="url(#paint0_linear_6921_11523)"/>
<path d="M14.5225 7.55537L14.5217 7.55987C14.3636 7.20205 14.0407 7.56765 14.0407 7.56765C13.7541 8.40089 13.1745 9.3654 13.1745 9.3654C13.4837 9.43699 14.0132 9.32441 14.2104 9.3232L14.1103 9.76801C12.7711 9.76801 9.80916 10.6531 9.80916 10.6531C9.44863 11.6424 8.36688 12.0588 8.36688 12.0588L5.71484 12.3711C5.89228 13.1278 6.1048 13.7346 6.32297 14.2203H11.9385C11.9473 14.2203 11.9547 14.2244 11.9634 14.2253C12.0486 14.2209 12.1345 14.255 12.1872 14.3309L13.8143 16.7172C14.1644 16.0993 14.5853 15.4836 15.1016 14.8939L13.1261 12.0521H11.6613C11.5617 12.2416 11.3669 12.372 11.1399 12.372C10.8127 12.372 10.5477 12.1039 10.5477 11.7733C10.5477 11.4426 10.8127 11.1746 11.1399 11.1746C11.3818 11.1746 11.589 11.3216 11.6813 11.5315H13.2221C13.231 11.5315 13.2384 11.5357 13.2471 11.5365C13.3323 11.5322 13.418 11.5663 13.4709 11.6424L15.4601 14.5044C16.0215 13.9235 16.6758 13.3732 17.446 12.8803C15.4974 11.132 14.5225 7.55537 14.5225 7.55537Z" fill="url(#paint1_linear_6921_11523)"/>
<path d="M22 3.29517C22 2.58109 21.4249 2 20.7187 2C20.012 2 19.4375 2.58092 19.4375 3.29517C19.4375 3.82628 19.7556 4.28337 20.2093 4.48294V7.93714C18.6281 4.7555 15.3705 2.56552 11.6143 2.56552C6.31299 2.56552 2 6.92473 2 12.2827C2 17.6406 6.31282 22 11.6143 22C16.9153 22 21.2285 17.6406 21.2285 12.2827C21.2285 12.2721 21.2276 12.2619 21.2276 12.2514C21.2276 12.2493 21.2285 12.2476 21.2285 12.2455V4.48277C21.6816 4.28319 22 3.82628 22 3.29517ZM11.614 20.9587C6.88057 20.9587 3.02991 17.0666 3.02991 12.2828C3.02991 7.4989 6.88057 3.60699 11.614 3.60699C16.3469 3.60699 20.1977 7.4989 20.1977 12.2828C20.1977 17.0666 16.3469 20.9587 11.614 20.9587ZM20.7186 2.83307C20.9704 2.83307 21.1758 3.04025 21.1758 3.29517C21.1758 3.54992 20.9704 3.75727 20.7186 3.75727C20.4662 3.75727 20.2614 3.54992 20.2614 3.29517C20.2614 3.04025 20.4663 2.83307 20.7186 2.83307Z" fill="url(#paint2_linear_6921_11523)"/>
<path d="M8.57754 6.3939C8.86199 6.3939 9.09258 6.16084 9.09258 5.87334C9.09258 5.58585 8.86199 5.35278 8.57754 5.35278C8.29309 5.35278 8.0625 5.58585 8.0625 5.87334C8.0625 6.16084 8.29309 6.3939 8.57754 6.3939Z" fill="url(#paint3_linear_6921_11523)"/>
<path d="M9.77001 4.92164C9.27961 5.01244 9.45568 5.77287 9.94437 5.68242C12.9515 5.12537 16.2152 6.28703 17.5935 9.15633C17.8111 9.60944 18.4906 9.23692 18.2733 8.78467C16.7419 5.59595 13.108 4.3032 9.77001 4.92164Z" fill="url(#paint4_linear_6921_11523)"/>
<defs>
<linearGradient id="paint0_linear_6921_11523" x1="6.58308" y1="16.95" x2="13.5395" y2="16.95" gradientUnits="userSpaceOnUse">
<stop stop-color="#4AB0D5"/>
<stop offset="0.0898" stop-color="#44A3CF"/>
<stop offset="0.2628" stop-color="#3C8EC4"/>
<stop offset="0.4395" stop-color="#377EBD"/>
<stop offset="0.6191" stop-color="#3374B8"/>
<stop offset="0.8036" stop-color="#306EB6"/>
<stop offset="1" stop-color="#2F6CB5"/>
</linearGradient>
<linearGradient id="paint1_linear_6921_11523" x1="5.71496" y1="12.0601" x2="17.4462" y2="12.0601" gradientUnits="userSpaceOnUse">
<stop stop-color="#4AB0D5"/>
<stop offset="0.0898" stop-color="#44A3CF"/>
<stop offset="0.2628" stop-color="#3C8EC4"/>
<stop offset="0.4395" stop-color="#377EBD"/>
<stop offset="0.6191" stop-color="#3374B8"/>
<stop offset="0.8036" stop-color="#306EB6"/>
<stop offset="1" stop-color="#2F6CB5"/>
</linearGradient>
<linearGradient id="paint2_linear_6921_11523" x1="1.99979" y1="12.0001" x2="21.9999" y2="12.0001" gradientUnits="userSpaceOnUse">
<stop stop-color="#4AB0D5"/>
<stop offset="0.0898" stop-color="#44A3CF"/>
<stop offset="0.2628" stop-color="#3C8EC4"/>
<stop offset="0.4395" stop-color="#377EBD"/>
<stop offset="0.6191" stop-color="#3374B8"/>
<stop offset="0.8036" stop-color="#306EB6"/>
<stop offset="1" stop-color="#2F6CB5"/>
</linearGradient>
<linearGradient id="paint3_linear_6921_11523" x1="8.06231" y1="5.87334" x2="9.09256" y2="5.87334" gradientUnits="userSpaceOnUse">
<stop stop-color="#4AB0D5"/>
<stop offset="0.0898" stop-color="#44A3CF"/>
<stop offset="0.2628" stop-color="#3C8EC4"/>
<stop offset="0.4395" stop-color="#377EBD"/>
<stop offset="0.6191" stop-color="#3374B8"/>
<stop offset="0.8036" stop-color="#306EB6"/>
<stop offset="1" stop-color="#2F6CB5"/>
</linearGradient>
<linearGradient id="paint4_linear_6921_11523" x1="9.47851" y1="7.06681" x2="18.3155" y2="7.06681" gradientUnits="userSpaceOnUse">
<stop stop-color="#4AB0D5"/>
<stop offset="0.0898" stop-color="#44A3CF"/>
<stop offset="0.2628" stop-color="#3C8EC4"/>
<stop offset="0.4395" stop-color="#377EBD"/>
<stop offset="0.6191" stop-color="#3374B8"/>
<stop offset="0.8036" stop-color="#306EB6"/>
<stop offset="1" stop-color="#2F6CB5"/>
</linearGradient>
</defs>
</svg>
