<svg width="24" height="24" viewBox="0 0 24 24" fill="none" xmlns="http://www.w3.org/2000/svg">
<path d="M12 22C17.5228 22 22 17.5228 22 12C22 6.47715 17.5228 2 12 2C6.47715 2 2 6.47715 2 12C2 17.5228 6.47715 22 12 22Z" fill="white"/>
<path d="M14.3433 7L11.0297 9.98377C10.6866 10.2926 10.2402 10.4645 9.77664 10.4661L8.789 10.4684L8.78563 7.00033H7V16.9116H7.97383C8.51851 16.9116 9.02648 16.6256 9.29292 16.1556C9.29528 16.1523 9.29629 16.1489 9.29831 16.1469C9.47516 15.8321 9.56375 15.2103 9.54657 14.7857C9.50817 13.815 9.35052 13.5627 9.35052 13.5627C9.31751 14.2279 8.6162 14.264 8.6162 14.264C9.11507 13.792 8.84323 13.4348 8.84323 13.4348C7.96002 14.058 7.73938 13.3928 7.72254 13.3324C7.75016 13.3557 8.00145 13.5637 8.4791 12.9151C8.98403 12.2299 9.65739 11.0873 10.0859 10.7936C10.515 10.4988 10.9223 10.5232 10.9223 10.5232C10.9223 10.5232 11.1567 10.2084 11.7768 9.94672C12.3966 9.68669 12.7941 10.0682 12.7941 10.0682C12.1602 10.5749 11.2995 11.4071 11.2514 12.5997C11.213 13.5647 13.3122 15.2206 12.9433 17.6667C13.164 17.1112 13.2526 16.5548 13.1768 15.8662C13.1161 15.3104 12.7547 14.1498 12.7547 14.1498L14.7707 16.9103H17L12.6429 10.9788L17 7H14.3433Z" fill="url(#paint0_linear_6897_11460)"/>
<defs>
<linearGradient id="paint0_linear_6897_11460" x1="12" y1="7" x2="12" y2="17.6667" gradientUnits="userSpaceOnUse">
<stop stop-color="#E70B5C"/>
<stop offset="1" stop-color="#F9413F"/>
</linearGradient>
</defs>
</svg>
