<svg width="24" height="24" viewBox="0 0 24 24" fill="none" xmlns="http://www.w3.org/2000/svg">
<path d="M12 22C17.5228 22 22 17.5228 22 12C22 6.47715 17.5228 2 12 2C6.47715 2 2 6.47715 2 12C2 17.5228 6.47715 22 12 22Z" fill="white"/>
<path fill-rule="evenodd" clip-rule="evenodd" d="M11.1973 7.54551L14.2608 5H16.717L12.6887 8.39441L16.717 13.4547H14.6559L12.7921 11.0997C12.7921 11.0997 13.1263 12.0898 13.1823 12.5639C13.2524 13.1514 13.1704 13.6262 12.9665 14.1C13.1822 12.7798 12.4847 11.7294 11.9521 10.9274C11.6428 10.4616 11.3891 10.0797 11.4022 9.77725C11.4467 8.75977 12.2424 8.04987 12.8285 7.61758C12.8285 7.61758 12.4611 7.29208 11.8881 7.51391C11.3147 7.73717 11.0979 8.00569 11.0979 8.00569C11.0979 8.00569 10.7214 7.98494 10.3247 8.23638C10.0472 8.41191 9.65864 8.94275 9.2903 9.44594C9.13279 9.66112 8.97898 9.87123 8.83917 10.0463C8.39755 10.5996 8.16524 10.4222 8.1397 10.4023C8.15529 10.4538 8.35924 11.0214 9.17581 10.4897C9.17581 10.4897 9.42713 10.7944 8.96592 11.1971C8.96592 11.1971 9.6143 11.1663 9.64483 10.5988C9.64483 10.5988 9.79056 10.8141 9.82608 11.6422C9.84196 12.0044 9.76004 12.5349 9.59656 12.8035C9.59551 12.8044 9.59476 12.8057 9.59392 12.8072C9.59324 12.8084 9.59253 12.8096 9.59159 12.8108C9.34524 13.2118 8.87559 13.4559 8.37204 13.4559H7.4717V5.00029H9.12256L9.12566 7.959L10.0388 7.95701C10.4673 7.95561 10.8801 7.80899 11.1973 7.54551ZM11.9609 19C11.7179 19 11.4878 18.963 11.2703 18.8892C11.0529 18.8153 10.8711 18.7052 10.725 18.5589C10.5806 18.4127 10.4939 18.2295 10.465 18.0094H11.1072C11.148 18.1824 11.2474 18.3144 11.4054 18.4056C11.5651 18.4953 11.7604 18.5401 11.9915 18.5401C12.1257 18.5401 12.2514 18.5212 12.3686 18.4835C12.4876 18.4457 12.5836 18.3899 12.6566 18.316C12.7296 18.2406 12.7661 18.1478 12.7661 18.0378C12.7661 17.9135 12.7194 17.8168 12.626 17.7476C12.5326 17.6769 12.3975 17.6211 12.2209 17.5802L11.4996 17.4222C11.2193 17.364 10.9951 17.2626 10.8269 17.1179C10.6587 16.9733 10.5746 16.7665 10.5746 16.4976C10.5746 16.2932 10.6349 16.1171 10.7556 15.9693C10.8779 15.82 11.0435 15.7044 11.2524 15.6226C11.4614 15.5409 11.6967 15.5 11.9584 15.5C12.2556 15.5 12.5071 15.5463 12.7126 15.6392C12.9199 15.7319 13.0771 15.8554 13.1841 16.0095C13.2911 16.162 13.3455 16.3302 13.3471 16.5142H12.7203C12.6982 16.3113 12.6133 16.169 12.4655 16.0872C12.3194 16.0039 12.1444 15.9623 11.9405 15.9623C11.6993 15.9623 11.5201 16.0102 11.4029 16.1061C11.2856 16.202 11.227 16.3145 11.227 16.4434C11.227 16.5645 11.2695 16.6604 11.3544 16.7312C11.4411 16.8019 11.5744 16.8569 11.7545 16.8962L12.44 17.0448C12.7831 17.1124 13.0278 17.2303 13.1739 17.3985C13.32 17.5652 13.3931 17.761 13.3931 17.9858C13.3931 18.184 13.3328 18.3593 13.2121 18.5117C13.0915 18.6643 12.9233 18.7838 12.7076 18.8703C12.4918 18.9567 12.2429 19 11.9609 19ZM8.4143 19C8.07453 19 7.80019 18.9481 7.59121 18.8444C7.38396 18.739 7.23359 18.588 7.14015 18.3916C7.04671 18.1934 7 17.9544 7 17.6745V15.5424H7.63453V17.7335C7.63453 17.9977 7.70419 18.1926 7.84351 18.3184C7.98279 18.4442 8.17309 18.5071 8.4143 18.5071C8.65555 18.5071 8.84755 18.445 8.99023 18.3207C9.13464 18.1949 9.20683 17.9992 9.20683 17.7335V15.5424H9.83374V17.7076C9.83374 18.1116 9.72415 18.4284 9.50498 18.658C9.28585 18.886 8.92226 19 8.4143 19ZM14.0975 15.5424V18.9528H15.0505C15.7148 18.9528 16.2058 18.8027 16.5235 18.5024C16.8411 18.2005 17 17.7759 17 17.2288C17 16.7052 16.8496 16.2972 16.5489 16.0047C16.2483 15.7123 15.7615 15.5597 15.0888 15.5472C15.0089 15.5456 14.9164 15.5448 14.811 15.5448C14.7056 15.5432 14.6011 15.5424 14.4976 15.5424H14.2299H14.0975ZM15.0607 18.4788H14.7269V16.0165H15.076C15.3411 16.0165 15.5687 16.0566 15.759 16.1368C15.9492 16.2154 16.0954 16.3436 16.1973 16.5212C16.2992 16.6989 16.3502 16.9355 16.3502 17.2311C16.3502 17.5362 16.295 17.7798 16.1845 17.9622C16.0758 18.1447 15.9246 18.2767 15.7309 18.3584C15.5373 18.4387 15.3139 18.4788 15.0607 18.4788Z" fill="#EA1458"/>
</svg>
