<svg width="24" height="24" viewBox="0 0 24 24" fill="none" xmlns="http://www.w3.org/2000/svg">
<path fill-rule="evenodd" clip-rule="evenodd" d="M22 12C22 17.5228 17.5228 22 12 22C6.47715 22 2 17.5228 2 12C2 6.47715 6.47715 2 12 2C17.5228 2 22 6.47715 22 12ZM7.97405 8.63892C7.66779 8.64128 7.36162 8.62595 7.05708 8.59298C6.42567 8.5178 6.09795 8.35828 6.0271 8.08961C5.91318 7.66836 6.52118 7.31411 6.98872 7.08288C8.76778 6.20828 12.6692 5.30064 15.6864 5.05965C16.6193 4.98509 17.403 4.98037 17.9561 5.04581C18.5875 5.121 18.9152 5.2805 18.9861 5.54918C19.1 5.97044 18.492 6.32469 18.0244 6.55592C16.2454 7.43051 12.3439 8.33815 9.32678 8.57914C8.8302 8.61911 8.37512 8.63892 7.97405 8.63892ZM17.03 5.37992C16.6714 5.37992 16.2379 5.39659 15.7151 5.43844C12.7369 5.67754 8.89543 6.56756 7.15196 7.42486C6.40288 7.79328 6.38697 7.99115 6.38759 7.99115C6.41225 8.083 6.98061 8.38788 9.29773 8.20254C12.276 7.96473 16.1174 7.07343 17.8609 6.21614C18.6099 5.84774 18.6259 5.65143 18.6252 5.64985C18.6059 5.57875 18.2617 5.37992 17.03 5.37992ZM7.96125 18.9998C7.65499 19.0021 7.34882 18.9868 7.04427 18.9538C6.41286 18.8786 6.08514 18.7191 6.01429 18.4504C5.89881 18.0304 6.50712 17.6762 6.97529 17.4462C8.75433 16.5716 12.6558 15.664 15.6729 15.423C16.6059 15.3484 17.3896 15.3437 17.9427 15.4091C18.574 15.4843 18.9018 15.6438 18.9741 15.9125C19.0881 16.3338 18.4801 16.688 18.0126 16.9192C16.2335 17.7938 12.3321 18.7015 9.3149 18.9425C8.81676 18.9796 8.36171 18.9998 7.96125 18.9998ZM17.0166 15.7407C16.658 15.7407 16.2244 15.7574 15.7017 15.7992C12.7235 16.0371 8.88199 16.9283 7.13853 17.7857C6.38945 18.1541 6.37353 18.3504 6.37416 18.3519C6.39913 18.4438 6.96562 18.7487 9.28429 18.5634C12.2625 18.3252 16.104 17.4343 17.8475 16.5769C18.5965 16.2085 18.6125 16.0107 18.6118 16.0107C18.5925 15.9396 18.2482 15.7407 17.0166 15.7407ZM12.008 9.00001C12.7913 8.99831 13.5437 9.30657 14.1016 9.85772C14.5245 10.2729 14.8149 10.8045 14.9364 11.3851C15.0578 11.9658 15.0046 12.5696 14.7838 13.12C14.5628 13.6704 14.184 14.1427 13.6953 14.4774C13.2065 14.8121 12.6297 14.9939 12.0379 15H12.008C11.2142 15.004 10.4513 14.6917 9.88723 14.1319C9.32315 13.5721 9.004 12.8106 9.00004 12.0149C8.9961 11.2193 9.30765 10.4546 9.86613 9.88925C10.4246 9.32384 11.1844 9.00396 11.9782 9.00001H12.008ZM11.9181 13.6011V14.1578H12.2951V13.6052C13.2964 13.6052 13.8031 13.1754 13.8031 12.5338C13.8031 12.0623 13.4114 11.858 13.1284 11.7877C13.3614 11.7055 13.6323 11.3684 13.5229 10.9668C13.4306 10.6271 13.1084 10.3259 12.2951 10.2991V9.73661H11.9181V10.2893H11.7296V9.73661H11.3525V10.2893H10.4101V10.8419H10.7182C10.8841 10.8419 10.9756 10.9471 10.9756 11.1006V12.738C10.9756 12.8958 10.8802 13.0525 10.7135 13.0525H10.5102L10.4159 13.6011H11.3525V14.1578H11.7296V13.6011H11.9181ZM11.7296 13.0525V12.1303C12.4365 12.1303 12.9902 12.1661 12.9902 12.589C12.9902 12.9834 12.4777 13.0525 11.7296 13.0525ZM12.781 11.3025C12.781 11.7343 12.1463 11.763 11.7296 11.763V10.8419C12.3893 10.8419 12.781 10.934 12.781 11.3025ZM7 13V15H7.45872V14.5882L7.85744 14.3284L8.52412 15H9L8.15112 14.1454L8.95284 13.6084H8.43837L7.45872 14.2719V13H7Z" fill="white"/>
</svg>
