<svg width="24" height="24" viewBox="0 0 24 24" fill="none" xmlns="http://www.w3.org/2000/svg">
<path d="M12 22C17.5228 22 22 17.5228 22 12C22 6.47715 17.5228 2 12 2C6.47715 2 2 6.47715 2 12C2 17.5228 6.47715 22 12 22Z" fill="white"/>
<path d="M12.4894 7.22938L10.4304 8.6738L8.69434 7.44813V5.98982C8.69967 5.92259 8.73088 5.86005 8.78139 5.81536C8.83191 5.77068 8.89779 5.74733 8.96517 5.75024H10.3888L12.4894 7.22938ZM15.7324 9.50017L14.5519 8.6738L12.4894 10.1147L14.3366 11.4064L15.7255 12.3855L15.7324 9.50017ZM10.3644 11.6043L9.36099 12.2987C9.03103 12.5596 8.80358 12.9284 8.71864 13.3404L10.4304 14.5383L12.4894 13.0939L10.3644 11.6043ZM14.5519 14.5383L12.4894 15.9792L14.0658 17.0799H15.4546C15.4949 17.0804 15.535 17.0733 15.5727 17.0591C15.6018 17.049 15.6289 17.0337 15.6525 17.0139C15.6782 16.9943 15.6991 16.9691 15.7135 16.9403C15.728 16.9114 15.7356 16.8796 15.7359 16.8473V15.3612L14.5519 14.5383Z" fill="#F96943"/>
<path d="M15.0104 10.9342L8.68066 15.3647V18.2501L15.7326 13.3127V9.49329C15.7334 9.77324 15.6685 10.0495 15.5431 10.2997C15.4176 10.55 15.2352 10.7673 15.0104 10.9342Z" fill="#8C175B"/>
<path d="M15.7328 5.94135V7.44826L9.36142 11.91C9.14853 12.0742 8.97549 12.2844 8.85524 12.5249C8.73499 12.7654 8.67064 13.03 8.66699 13.2989V9.47948L14.0315 5.75038H15.4655C15.5248 5.74851 15.5831 5.76619 15.6314 5.80069C15.6797 5.83519 15.7154 5.88461 15.7328 5.94135Z" fill="#8C175B"/>
</svg>
