<svg width="24" height="24" viewBox="0 0 24 24" fill="none" xmlns="http://www.w3.org/2000/svg">
<path d="M15.4749 8.76217C14.5774 7.93537 13.3679 7.47258 12.1104 7.47708C12.0961 7.47708 12.0769 7.47708 12.0624 7.47708C9.40357 7.513 7.28224 9.553 7.31582 12.0423C7.34941 14.5001 9.48516 16.4772 12.1104 16.4862H12.1584C14.8173 16.4637 16.9483 14.4282 16.9243 11.9389C16.9099 10.7392 16.3916 9.59791 15.4749 8.76217Z" fill="url(#paint0_linear_7106_11260)"/>
<path d="M14.1646 8.2185C13.5983 8.08371 13.1471 8.19604 12.7776 8.54654C12.7344 8.59146 12.6912 8.63637 12.648 8.68583C12.552 8.79816 12.4704 8.897 12.2832 8.93746C12.0336 8.98237 11.7745 8.99587 11.5201 8.96887C11.4481 8.95991 11.3857 8.94641 11.3329 8.93296C11.141 8.8925 11.0306 8.86554 10.8002 9.06775C10.7282 9.13516 10.6658 9.20704 10.6082 9.28791C10.5074 9.41821 10.4114 9.53954 10.2578 9.59795C10.1859 9.62491 10.1091 9.63841 10.0323 9.64287C10.0275 9.63841 10.0179 9.63841 10.0131 9.63391L10.0083 9.64287C9.89789 9.64737 9.78751 9.63841 9.67714 9.62041C9.59072 9.60695 9.50434 9.60245 9.41797 9.59795C9.53793 9.4362 9.63872 9.26546 9.72514 9.09021C9.88351 9.06775 10.0179 8.96887 10.1523 8.87454C10.2195 8.82062 10.2963 8.77121 10.3731 8.73075C10.637 8.59596 10.7618 8.48362 10.9922 8.24546C11.2081 8.02529 11.4385 7.886 11.7217 7.74671C11.8609 7.67929 11.9857 7.58496 12.0816 7.46362C13.0223 7.46812 13.9006 7.67483 14.6733 8.15112C14.5918 8.20954 14.419 8.27691 14.1646 8.2185Z" fill="#DADADA"/>
<path d="M16.771 11.3503C16.7038 11.3278 16.6414 11.2964 16.579 11.2649C16.4831 11.2065 16.3774 11.1706 16.2671 11.1481L15.9887 11.0178C15.5471 10.9459 15.3648 10.9998 14.9184 10.883C14.7121 10.8246 14.4961 10.8021 14.2801 10.8066L14.2705 10.7976L14.2609 10.8066C14.1073 10.8156 13.9537 10.8336 13.7809 10.856L13.661 10.8695C13.613 10.874 13.5602 10.883 13.4978 10.892C13.1186 10.9504 12.4803 11.0447 12.2595 10.8111L12.2451 10.8201C11.9044 10.6314 11.5204 10.5325 11.1269 10.5325C10.5125 10.5325 10.3206 10.3752 9.97019 10.0966C9.9126 10.0472 9.84544 9.99781 9.77344 9.9394C9.80702 9.9394 9.83581 9.9394 9.8694 9.9394C10.0278 9.99331 10.1958 10.0203 10.3638 10.0203C10.3974 10.0203 10.4261 10.0203 10.4597 10.0158C10.5461 10.0068 10.6277 9.97085 10.6901 9.91244C10.7189 9.88998 10.7477 9.86748 10.7765 9.84952C10.8437 9.81356 10.9205 9.7956 11.0021 9.8001C11.0357 9.8001 11.0741 9.79561 11.1077 9.79111C11.2756 9.77315 11.3909 9.68327 11.506 9.6024C11.6116 9.52602 11.7124 9.4496 11.8468 9.43165C11.8804 9.42715 11.914 9.42265 11.9524 9.42265C12.0436 9.42265 12.1299 9.40469 12.2115 9.36423C12.2547 9.33727 12.2931 9.30581 12.3267 9.2699C12.3651 9.22494 12.4179 9.19348 12.4707 9.16652C12.6483 9.10811 12.7251 8.97331 12.8211 8.85648C12.8643 8.80706 13.0611 8.78011 13.1139 8.73069C13.5122 8.34427 13.8338 8.20948 14.4481 8.35323C14.7601 8.42515 14.88 8.43861 14.9856 8.36673C16.0271 9.09015 16.7086 10.1775 16.8814 11.3772C16.8382 11.3728 16.8046 11.3638 16.771 11.3503Z" fill="#DADADA"/>
<path d="M10.6801 15.2461C10.6753 15.2191 10.6705 15.1877 10.6705 15.1607C10.6705 15.0933 10.6609 15.0304 10.6465 14.963C10.6129 14.8102 10.5649 14.7832 10.5073 14.7428C10.4593 14.7114 10.4161 14.6754 10.3825 14.6305C10.3249 14.5496 10.2817 14.4552 10.2577 14.3609L10.2529 14.3474C10.2961 14.3699 10.3393 14.3923 10.3825 14.4148C10.4065 14.4238 10.4305 14.4372 10.4641 14.4552C10.5889 14.5182 10.7617 14.6035 10.8481 14.599C10.9248 14.59 10.9921 14.5541 11.0353 14.5002C11.0736 14.4642 11.2032 14.5361 11.2608 14.5226C11.3616 14.5047 11.4816 14.4777 11.6352 14.5361C11.6976 14.5586 11.7552 14.581 11.7983 14.5945C11.88 14.617 11.9616 14.6485 12.0383 14.6799C12.1679 14.7383 12.3023 14.7787 12.4463 14.8057C12.5231 14.8147 12.6047 14.8192 12.6815 14.8192C12.8254 14.8102 12.9742 14.8417 13.1038 14.9046C13.4062 15.0439 13.4686 15.0573 13.7997 15.0259C14.0445 15.0034 14.3613 14.981 14.5964 15.0169C14.822 15.0528 15.0284 15.1472 15.23 15.273C15.23 15.291 15.2588 15.3539 15.2636 15.3719C14.4285 16.0863 13.339 16.4817 12.2111 16.4817C12.1103 16.4817 12.0143 16.4772 11.9136 16.4727C11.8703 16.4278 11.8176 16.3874 11.7648 16.3514C11.7024 16.3155 11.6352 16.284 11.5632 16.266C11.4672 16.2346 11.3712 16.2031 11.3184 16.1447C11.2416 16.0683 11.2512 15.983 11.2608 15.8976C11.2704 15.8392 11.2656 15.7807 11.2464 15.7268C11.2032 15.6415 11.1072 15.5875 11.0016 15.5336C10.9393 15.5022 10.8817 15.4662 10.8289 15.4258C10.7761 15.3854 10.7281 15.3404 10.6945 15.2865C10.7041 15.2775 10.6801 15.2461 10.6801 15.2461Z" fill="#DADADA"/>
<path d="M9.49971 8.42517C9.49009 8.53751 9.49971 8.65434 9.51888 8.76667C9.54288 8.91492 9.56209 9.05871 9.49971 9.22051L9.49488 9.23846H9.49009V9.24746C9.4085 9.44067 9.22134 9.71476 9.13013 9.84055C8.92855 9.81359 8.83259 9.6743 8.7318 9.52155C8.67421 9.41821 8.59259 9.32834 8.50142 9.24746C8.45342 9.21601 8.40542 9.18455 8.35742 9.15759C8.70301 8.75767 9.11575 8.41167 9.58609 8.14209C9.53809 8.23196 9.5093 8.3263 9.49971 8.42517Z" fill="#DADADA"/>
<path d="M15.5176 15.111C15.508 15.0212 15.508 14.9268 15.5032 14.8325C15.4984 14.3382 15.4744 14.1765 15.1192 13.8979C14.8457 13.6822 14.5337 13.5788 14.4329 13.2553C14.3753 13.0756 14.3753 12.8509 14.3753 12.6127C14.3753 12.5094 14.3753 12.4016 14.3705 12.2982C14.3945 12.1949 14.4377 12.096 14.4857 12.0062C14.5433 11.8848 14.6393 11.759 14.6201 11.6287C14.6057 11.5164 14.6201 11.5973 14.5673 11.449C14.5241 11.3187 14.4377 11.2468 14.3369 11.1704C14.5241 11.1704 14.7161 11.1929 14.8985 11.2423C15.3448 11.3636 15.7672 11.2064 16.2087 11.2782L16.2519 11.2872C16.3575 11.3052 16.4583 11.3457 16.5495 11.3996C16.6119 11.4355 16.679 11.4625 16.7462 11.4895C16.7895 11.5029 16.8374 11.5164 16.8806 11.5254C16.9046 11.6782 16.9142 11.8309 16.919 11.9837C16.919 13.161 16.4295 14.2933 15.5464 15.1335L15.5176 15.111Z" fill="#DADADA"/>
<path d="M7.82382 13.3004C7.86703 13.3139 7.90545 13.3274 7.94382 13.3408C8.11182 13.3948 8.2702 13.4667 8.41899 13.5565C8.57257 13.6554 8.69732 13.7588 8.78853 13.916C8.88453 14.0868 8.95649 14.1991 9.14849 14.2934L9.20607 14.3204C9.44603 14.4372 9.61403 14.5181 9.73882 14.7428C9.81562 14.8776 9.94999 14.936 10.0844 14.9899C10.1564 15.0169 10.2236 15.0528 10.2907 15.0888L10.3147 15.1067L10.3627 15.1382C10.3819 15.2011 10.4299 15.2595 10.5451 15.3539C10.6075 15.4033 10.6747 15.4437 10.7467 15.4797C10.8523 15.5381 10.9531 15.592 10.9963 15.6729C11.0154 15.7268 11.0203 15.7807 11.0059 15.8346C10.9963 15.9335 10.9867 16.0458 11.0874 16.1492C11.1547 16.2211 11.2698 16.257 11.3802 16.293C11.457 16.3154 11.5242 16.3424 11.5914 16.3828C11.6298 16.4098 11.6682 16.4413 11.7066 16.4727C9.68124 16.3109 7.98703 14.9764 7.46387 13.1387C7.55508 13.215 7.69908 13.26 7.82382 13.3004Z" fill="#DADADA"/>
<path d="M8.58713 9.63827C8.66872 9.76406 8.75509 9.88989 8.90388 9.94831C8.76472 9.97077 8.72151 9.93481 8.57751 10.0516C8.50072 10.1146 8.33276 10.1011 8.26555 10.173C8.14559 10.2898 8.11676 10.4965 7.96801 10.5684C7.80959 10.6448 7.64163 10.7076 7.47363 10.7571C7.64642 10.1819 7.85759 9.75506 8.24155 9.30127C8.28476 9.32373 8.32797 9.35069 8.37113 9.38215C8.45755 9.44952 8.53434 9.5394 8.58713 9.63827Z" fill="#DADADA"/>
<path d="M14.6732 13.9203L14.7068 13.9473C15.0188 14.1944 15.1052 14.2618 15.11 14.6842C15.11 14.7606 15.1148 14.8325 15.1195 14.9044C14.9228 14.7875 14.7212 14.6932 14.5004 14.6617C14.2557 14.6258 13.9389 14.6482 13.6893 14.6707C13.3725 14.7022 13.4398 14.6213 13.147 14.482C12.9598 14.3921 12.7102 14.464 12.5806 14.464C12.5038 14.464 12.427 14.4595 12.3503 14.4505C12.2159 14.4236 12.0815 14.3831 11.9567 14.3292C11.8751 14.2977 11.9135 14.2349 11.8271 14.2124C11.7888 14.1989 11.616 14.2079 11.5488 14.1854C11.3808 14.1225 11.1744 14.0416 11.0544 14.0641C10.992 14.0776 10.9344 14.1135 10.896 14.1585C10.8576 14.2079 10.8 14.2393 10.7377 14.2483C10.6657 14.2528 10.4977 14.1675 10.3825 14.109C10.3489 14.0911 10.3201 14.0776 10.3009 14.0686C10.2385 14.0416 10.1809 14.0102 10.1281 13.9742C10.1281 13.9697 10.1281 13.9652 10.1233 13.9607L10.1138 13.9652C9.98417 13.8754 9.85455 13.781 9.73938 13.6732C9.49942 13.4665 9.21626 13.3092 8.9043 13.2194C9.10105 13.1924 9.26426 13.107 9.43221 13.0172C9.57138 12.9363 9.72496 12.8689 9.87855 12.8195C10.0705 12.7655 10.2913 12.7655 10.5025 12.7655C10.728 12.7655 10.9584 12.761 11.1648 12.6981C11.376 12.6307 11.5344 12.4915 11.688 12.3522C11.8511 12.2084 12.0527 12.1859 12.2783 12.1275C12.4607 12.0825 12.691 11.9387 12.9742 11.9253C13.3198 11.9073 13.6797 11.8848 13.9101 11.804C14.0397 11.9567 14.0781 12.1769 14.0925 12.4106C14.0925 12.4106 14.0925 12.4106 14.0925 12.415C14.0973 12.5094 14.0973 12.6038 14.0973 12.6981C14.0973 12.9183 14.1021 13.125 14.15 13.2867C14.2413 13.5788 14.4284 13.7316 14.6732 13.9203Z" fill="#DADADA"/>
<path d="M7.42589 13.0308C7.33947 12.7072 7.2963 12.3747 7.2963 12.0377C7.29147 11.6828 7.32989 11.3323 7.41147 10.9863C7.58905 10.9413 7.75701 10.8784 7.92501 10.8066C8.06901 10.7391 8.17939 10.7167 8.28976 10.6043C8.35218 10.5414 8.41455 10.483 8.48176 10.4246C8.75051 10.2134 8.9953 10.2404 9.24964 10.2718C9.31205 10.2808 9.37443 10.2853 9.43684 10.2898C9.52322 10.3527 9.60001 10.3258 9.66722 10.3797C9.97918 10.6313 10.1663 10.8874 10.7375 10.8874C11.1502 10.8874 11.4718 10.8919 11.7981 11.0761C11.8078 11.0806 11.8173 11.0851 11.827 11.0896C11.9133 11.1391 11.9997 11.193 12.0861 11.2514L12.1437 11.2873C12.3261 11.4086 12.4989 11.5255 12.7388 11.5614C12.8204 11.5704 12.902 11.5749 12.9884 11.5704C13.1468 11.5659 13.2812 11.5659 13.4012 11.6783C13.1804 11.7546 12.8348 11.7726 12.4989 11.7906C12.2157 11.8086 11.9517 11.8221 11.7646 11.867C11.5246 11.9254 11.3518 12.0826 11.1838 12.2309C11.0254 12.3702 10.8815 12.505 10.6799 12.5679C10.4783 12.6308 10.2576 12.6308 10.0368 12.6308C9.81597 12.6308 9.60001 12.6308 9.39843 12.6893C9.23526 12.7387 9.08168 12.8061 8.94251 12.8915C8.73609 13.0038 8.53934 13.1071 8.28018 13.0936C8.20339 13.0757 8.13139 13.0622 8.05459 13.0532L8.03539 13.0487V13.0532C7.82422 13.0308 7.62743 13.0218 7.42589 13.0308Z" fill="#DADADA"/>
<path d="M5.04123 7.19846C4.57088 7.20291 4.10054 7.18046 3.6302 7.13104C2.66071 7.02321 2.15677 6.79404 2.04638 6.41212C1.8688 5.81001 2.80469 5.30226 3.52461 4.97425C6.26028 3.72511 12.2596 2.42654 16.9006 2.08505C18.3356 1.97721 19.5403 1.97271 20.3898 2.06707C21.3593 2.17491 21.8633 2.40407 21.9784 2.786C22.156 3.38811 21.2201 3.89585 20.5002 4.22387C17.7645 5.47301 11.7652 6.77158 7.1242 7.11308C6.35628 7.1715 5.65556 7.19846 5.04123 7.19846ZM16.9438 2.62874C12.3604 2.97023 6.45707 4.24184 3.77418 5.46402C2.62232 5.98974 2.59832 6.27283 2.59832 6.27283C2.63671 6.40312 3.51021 6.83896 7.0714 6.57387C11.6501 6.23237 17.5581 4.96077 20.241 3.73859C21.3929 3.21287 21.4169 2.92979 21.4169 2.92979C21.3785 2.79948 20.505 2.36363 16.9438 2.62874Z" fill="#DADADA"/>
<path d="M5.01681 21.9995C4.54647 22.0039 4.07613 21.9815 3.60578 21.9321C2.6363 21.8242 2.13235 21.5951 2.02197 21.2131C1.84439 20.611 2.78028 20.1033 3.50019 19.7753C6.23587 18.5261 12.2352 17.2276 16.8762 16.8861C18.3112 16.7782 19.5159 16.7737 20.3654 16.8681C21.3349 16.9759 21.8388 17.2051 21.9492 17.587C22.1268 18.1891 21.1909 18.6969 20.471 19.0249C17.7353 20.274 11.736 21.5726 7.09496 21.9141C6.33187 21.968 5.63594 21.9995 5.01681 21.9995ZM16.9242 17.4253C12.3455 17.7668 6.43746 19.0384 3.75457 20.2606C2.6027 20.7863 2.5787 21.0694 2.5787 21.0694C2.6171 21.1996 3.49059 21.6355 7.05179 21.3704C11.6305 21.0289 17.5385 19.7573 20.2214 18.5351C21.3733 18.0094 21.3973 17.7263 21.3973 17.7263C21.3589 17.596 20.4854 17.1601 16.9242 17.4253Z" fill="#DADADA"/>
<defs>
<linearGradient id="paint0_linear_7106_11260" x1="12.12" y1="16.4828" x2="12.12" y2="7.47504" gradientUnits="userSpaceOnUse">
<stop stop-color="#603211"/>
<stop offset="0.17" stop-color="#DD7D26"/>
<stop offset="0.35" stop-color="#603211"/>
<stop offset="0.54" stop-color="#9C3520"/>
<stop offset="0.77" stop-color="#DD7D26"/>
<stop offset="1" stop-color="#603211"/>
</linearGradient>
</defs>
</svg>
