<svg width="24" height="24" viewBox="0 0 24 24" fill="none" xmlns="http://www.w3.org/2000/svg">
<path fill-rule="evenodd" clip-rule="evenodd" d="M21 12C21 16.9706 16.9706 21 12 21C7.02944 21 3 16.9706 3 12C3 7.02944 7.02944 3 12 3C16.9706 3 21 7.02944 21 12ZM15.6866 10.3004C15.8599 9.49512 16.72 9.10153 17.3834 9.51679C18.2701 10.0476 18.1901 11.5172 17.2101 11.8458C17.1367 11.8675 17.12 11.9072 17.0934 11.9866C17.0786 12.0306 17.0623 12.0796 17.0448 12.1322C16.9288 12.4819 16.7598 12.9912 16.6033 13.236C15.9567 14.2435 14.7832 14.7671 13.6698 14.5865C13.6088 14.5776 13.5788 14.5722 13.5644 14.5847C13.5497 14.5975 13.5514 14.6291 13.5531 14.6948C13.5731 15.3953 13.4231 16.0453 13.0797 16.6375C12.8397 17.0491 12.5263 17.3922 12.1463 17.6522C11.7463 17.9266 11.3029 18.0927 10.8296 18.1396C10.7529 18.1469 10.7162 18.1794 10.6862 18.2552C10.4362 18.8979 9.70947 19.1832 9.13276 18.8762C7.94934 18.2444 8.3727 16.3234 9.71614 16.4534C10.1162 16.5075 10.4462 16.7061 10.6162 17.1141C10.6586 17.2126 10.745 17.1888 10.813 17.1701C10.8198 17.1682 10.8265 17.1663 10.8329 17.1647C11.293 17.0491 11.963 16.7458 12.3063 16.1645C12.6764 15.5362 12.7464 14.796 12.553 14.0774C12.5064 13.904 12.4963 13.7163 12.6697 13.5285C12.8486 13.3348 13.0978 13.4215 13.3471 13.5081C13.4277 13.5361 13.5083 13.5642 13.5865 13.5827C14.4098 13.7849 15.2599 13.4599 15.7966 12.7594C15.9933 12.4777 16.1366 12.1672 16.2099 11.8205C16.2233 11.7628 16.23 11.7195 16.1666 11.6689C15.7566 11.3439 15.5732 10.8275 15.6866 10.3004ZM9.6228 18.183C9.06943 18.1686 9.03609 17.273 9.60947 17.2622C10.1428 17.2694 10.2062 18.1469 9.6228 18.183ZM16.4066 10.6289C16.4033 10.8817 16.5967 11.0875 16.8367 11.0912C17.0634 11.0948 17.2434 10.9034 17.25 10.6578C17.2534 10.044 16.42 9.99703 16.4066 10.6289ZM6.51256 13.153C7.33596 14.6262 9.02609 15.0993 10.5229 15.1245C11.1563 15.121 11.1129 14.1749 10.5529 14.1459C9.50613 14.1388 8.38604 13.904 7.60264 13.1024C6.75591 12.1961 6.85592 10.9142 7.01927 9.74066C7.03235 9.64308 7.04565 9.54549 7.05894 9.44789C7.16421 8.67508 7.26966 7.901 7.27262 7.11552C7.27262 7.04087 7.30494 7.04321 7.35366 7.04675L7.35596 7.04692C7.98268 7.10831 8.60606 7.09025 9.23277 7.06136C9.30336 7.05796 9.37394 7.05437 9.44453 7.05077C9.97399 7.02378 10.5035 6.99679 11.0329 7.05414C13.1364 7.26719 13.6031 9.34707 13.4598 11.3042C13.4598 11.3128 13.4594 11.3213 13.459 11.3297C13.4583 11.3462 13.4575 11.3621 13.4598 11.3764C13.4798 11.6075 13.6765 11.8061 13.8931 11.8133C14.1398 11.8241 14.3332 11.64 14.3565 11.3692C14.4031 10.8275 14.3999 10.2823 14.3365 9.74427C14.1998 8.30351 13.3931 6.92054 12.1197 6.32113C11.3332 5.9526 9.62299 6.03135 8.43699 6.08596C8.20527 6.09663 7.99356 6.10638 7.81266 6.11169C7.51597 6.12253 7.21928 6.07197 6.92593 6.0142C6.60923 5.93476 6.31255 6.19835 6.35921 6.56306C6.38922 6.96387 6.37588 7.36468 6.34255 7.76549C6.31159 8.19969 6.24837 8.64597 6.18458 9.09631C5.98735 10.4886 5.78462 11.9197 6.51256 13.153ZM10.0162 12.9508C10.8196 12.9291 10.8029 11.6906 10.0062 11.6508C9.67614 11.6472 9.41611 11.9216 9.41611 12.2719C9.41279 12.6438 9.67947 12.9471 10.0162 12.9508ZM11.833 11.1778C12.6263 11.1489 12.6097 9.89954 11.8063 9.87427C11.4729 9.87065 11.2196 10.1559 11.2196 10.5278C11.2229 10.8781 11.5029 11.1778 11.833 11.1778Z" fill="white"/>
</svg>
