<svg width="24" height="24" viewBox="0 0 24 24" fill="none" xmlns="http://www.w3.org/2000/svg">
<path d="M12 2C13.9778 2 15.9112 2.58649 17.5557 3.6853C19.2002 4.78412 20.4819 6.3459 21.2388 8.17316C21.9957 10.0004 22.1937 12.0111 21.8078 13.9509C21.422 15.8907 20.4696 17.6725 19.0711 19.0711C17.6725 20.4696 15.8907 21.422 13.9509 21.8078C12.0111 22.1937 10.0004 21.9957 8.17316 21.2388C6.3459 20.4819 4.78412 19.2002 3.6853 17.5557C2.58649 15.9112 2 13.9778 2 12C2 9.34783 3.05357 6.8043 4.92893 4.92893C6.8043 3.05357 9.34783 2 12 2Z" fill="white"/>
<path d="M12.0438 21.0352C11.4352 21.0354 10.8281 20.9742 10.2318 20.8526C9.08172 20.617 7.98927 20.1573 7.01681 19.4997C5.57121 18.5238 4.43966 17.1496 3.75927 15.5436C3.52937 14.9997 3.3539 14.4343 3.23541 13.8558C2.99184 12.6601 2.99184 11.4275 3.23541 10.2317C3.47095 9.0817 3.93063 7.98932 4.58821 7.0169C5.56399 5.57138 6.93802 4.43984 8.54383 3.75935C9.08773 3.52943 9.65306 3.35393 10.2315 3.23541C11.4273 2.99184 12.6599 2.99184 13.8557 3.23541C15.0058 3.47095 16.0982 3.93066 17.0707 4.5883C18.5163 5.56422 19.6478 6.93844 20.3282 8.54444C20.5581 9.08834 20.7336 9.65367 20.8522 10.2322C21.1099 11.4972 21.0948 12.8028 20.8077 14.0615C20.6606 14.7024 20.4433 15.3251 20.1597 15.9184C20.0044 15.6596 19.7847 15.4455 19.522 15.2969C19.2593 15.1483 18.9626 15.0702 18.6608 15.0703C18.3305 15.07 18.0069 15.1633 17.7274 15.3394C17.448 15.5155 17.2241 15.7672 17.0818 16.0653C16.9395 16.3634 16.8846 16.6957 16.9234 17.0237C16.9623 17.3518 17.0932 17.6621 17.3012 17.9187C17.5489 18.2243 17.8921 18.4378 18.2757 18.525C17.4611 19.309 16.5062 19.9325 15.4608 20.363C14.9281 20.582 14.3755 20.7489 13.8108 20.8616C13.2289 20.9772 12.6371 21.0353 12.0438 21.0352Z" fill="#493B2A"/>
<path d="M8.83623 6.96549C8.83623 7.05768 8.83623 9.14706 8.83623 9.14706C8.83623 9.14706 15.0994 9.13882 15.2827 9.14706C15.466 9.15531 15.6349 9.37978 15.6396 9.72706C15.6442 10.0743 15.5218 10.374 15.2827 10.3817C15.0436 10.3894 8.83623 10.3817 8.83623 10.3817C8.83623 10.3817 8.7928 11.7601 8.83623 13.5266C8.87965 15.2931 9.85508 16.1933 11.1739 16.1797C12.4928 16.1661 14.9666 16.1747 15.1684 16.1797C15.3703 16.1847 15.6554 16.4861 15.6443 16.8064C15.6332 17.1268 15.4024 17.4623 15.2105 17.4623C15.0187 17.4623 14.3872 17.4589 11.1739 17.4623C7.9607 17.4657 7.3514 15.2762 7.3514 13.5266C7.3514 11.7771 7.34517 7.15864 7.3514 6.96522C7.35763 6.7718 7.51912 6.37891 8.1228 6.37891C8.72649 6.37891 8.83631 6.87329 8.83623 6.96549Z" fill="#FF1F66"/>
<path d="M11.0653 18.1186C9.72872 18.1186 8.67056 17.7257 7.92047 16.9509C7.62126 16.6381 7.37587 16.2779 7.19424 15.885C7.03633 15.5449 6.91685 15.1883 6.83802 14.8218C6.77915 14.5531 6.73986 14.2804 6.72047 14.006C6.7067 13.8043 6.71038 13.6814 6.71047 13.6799C6.71047 13.6161 6.72731 7.29645 6.71924 6.89338C6.72077 6.76784 6.74831 6.64397 6.80012 6.52961C6.86229 6.38664 6.95008 6.25625 7.05916 6.14487C7.18337 6.01916 7.33199 5.9202 7.49589 5.85408C7.65978 5.78796 7.83547 5.75608 8.01214 5.7604H8.03845C8.24472 5.76219 8.44909 5.80004 8.64231 5.87224C8.80571 5.93356 8.95676 6.02374 9.08828 6.13847C9.20132 6.23667 9.29506 6.3551 9.36468 6.48768C9.42413 6.59886 9.45669 6.72243 9.45977 6.84847C9.46038 7.29215 9.45977 8.46654 9.45977 8.51627H9.51109C10.2366 8.51496 12.0772 8.51206 13.4963 8.51206C14.5037 8.51206 15.1156 8.51355 15.3149 8.51645C15.4666 8.51613 15.616 8.55325 15.7499 8.62452C15.8695 8.69119 15.9715 8.7854 16.0475 8.89934C16.1265 9.01837 16.1842 9.15017 16.2182 9.28891C16.2553 9.4368 16.2736 9.5888 16.2726 9.74127C16.2729 9.89647 16.2525 10.051 16.212 10.2008C16.1741 10.3449 16.1131 10.4819 16.0313 10.6064C15.9544 10.7247 15.8522 10.8243 15.732 10.8981C15.6058 10.9734 15.4621 11.0142 15.3152 11.0164C14.9917 11.0237 13.4468 11.0251 12.2083 11.0251C10.8311 11.0251 9.5153 11.0233 9.45995 11.0232C9.45995 11.0314 9.45995 12.9406 9.45995 13.4309C9.46229 13.6114 9.48137 13.7912 9.51696 13.9681C9.56271 14.2139 9.64168 14.4524 9.7517 14.6769C9.86805 14.921 10.0421 15.1331 10.2589 15.2948C10.3765 15.3792 10.5068 15.4443 10.6449 15.4878C10.8034 15.5365 10.9684 15.5606 11.1342 15.5593H11.154C11.5942 15.5549 12.1083 15.5527 12.7259 15.5527C13.3832 15.5527 14.0093 15.5551 14.5125 15.5571H14.5144C14.8249 15.5584 15.07 15.5593 15.2303 15.5593C15.3805 15.5595 15.5282 15.5983 15.6591 15.672C15.7885 15.7453 15.9019 15.8439 15.9924 15.962C16.0851 16.0814 16.158 16.215 16.2083 16.3577C16.2578 16.4956 16.2838 16.6409 16.2851 16.7875C16.2817 16.9403 16.2507 17.0912 16.1936 17.233C16.1338 17.387 16.0529 17.532 15.9533 17.6637C15.8597 17.7904 15.7454 17.9003 15.6152 17.9888C15.5561 18.0281 15.4924 18.0598 15.4255 18.0833C15.3628 18.1053 15.2968 18.1168 15.2304 18.1173C15.0988 18.1173 15.0556 18.1173 14.9904 18.1173H14.9889C14.8036 18.1177 14.4193 18.1186 11.0653 18.1186ZM13.6042 17.4607C14.4675 17.4607 14.8712 17.4616 15.0652 17.4621H15.0664H15.2088C15.2627 17.4591 15.3143 17.4389 15.3559 17.4046C15.4097 17.3624 15.4562 17.3116 15.4934 17.2542C15.5368 17.1887 15.5716 17.118 15.597 17.0436C15.6237 16.9671 15.6391 16.887 15.6425 16.806C15.6447 16.7177 15.6272 16.6299 15.5913 16.5492C15.5572 16.4709 15.5099 16.3991 15.4514 16.3369C15.3797 16.2503 15.278 16.1939 15.1666 16.179C15.0499 16.1761 14.127 16.1718 13.0909 16.1718C12.5407 16.1718 11.7613 16.173 11.1721 16.179H11.1434C10.4815 16.179 9.9188 15.9477 9.51591 15.51C9.29917 15.2694 9.13381 14.987 9.02995 14.6802C8.90487 14.308 8.83889 13.9185 8.83442 13.5258C8.81205 12.6136 8.81319 11.8065 8.81819 11.2909C8.82354 10.732 8.83433 10.3843 8.83442 10.3809C8.84986 10.3809 11.5976 10.3843 13.5033 10.3843C14.6122 10.3843 15.2103 10.3832 15.2809 10.3809C15.3402 10.3764 15.3969 10.3552 15.4447 10.3198C15.4924 10.2844 15.5292 10.2363 15.5508 10.1809C15.6146 10.0381 15.6443 9.88251 15.6378 9.72627C15.6373 9.64657 15.6265 9.56727 15.6058 9.49031C15.5888 9.42619 15.5619 9.36509 15.5263 9.30917C15.497 9.26269 15.4585 9.22266 15.4133 9.19154C15.3741 9.1646 15.3283 9.14894 15.2809 9.14627C15.227 9.14382 14.6372 9.14259 13.5283 9.14259C11.6756 9.14259 8.95065 9.1461 8.8353 9.14627H8.83416C8.83416 9.1375 8.83416 8.75259 8.83416 8.30715C8.83416 7.70189 8.83416 7.01671 8.83416 6.96505C8.82304 6.84572 8.77796 6.73208 8.70424 6.63759C8.64669 6.56177 8.57247 6.50021 8.48731 6.45768C8.37311 6.40312 8.24771 6.37609 8.12117 6.37873C7.99346 6.37639 7.86645 6.39827 7.74688 6.4432C7.65797 6.4777 7.57763 6.53113 7.51144 6.59978C7.4583 6.65543 7.41639 6.72081 7.38802 6.79233C7.36563 6.84749 7.35271 6.90603 7.34977 6.96548C7.34547 7.09891 7.34705 9.32812 7.34854 11.295C7.34916 12.1634 7.34977 12.9843 7.34977 13.5267C7.34977 14.62 7.58661 15.5026 8.05451 16.1501C8.19597 16.3464 8.36183 16.5238 8.5481 16.6781C8.75145 16.845 8.97579 16.9846 9.21538 17.0933C9.49178 17.2175 9.78185 17.3088 10.0796 17.3652C10.4371 17.4323 10.8003 17.4649 11.1641 17.4626H11.1722C12.1205 17.4613 12.9387 17.4607 13.6047 17.4607H13.6042Z" fill="#5CFFD9"/>
<path d="M18.6563 15.728C18.8711 15.728 19.081 15.7917 19.2596 15.911C19.4382 16.0304 19.5774 16.2 19.6596 16.3984C19.7418 16.5968 19.7633 16.8152 19.7214 17.0259C19.6795 17.2365 19.576 17.43 19.4242 17.5819C19.2723 17.7338 19.0788 17.8372 18.8681 17.8791C18.6575 17.921 18.4391 17.8995 18.2407 17.8173C18.0423 17.7351 17.8727 17.5959 17.7533 17.4173C17.634 17.2387 17.5703 17.0288 17.5703 16.814C17.5703 16.526 17.6847 16.2498 17.8884 16.0461C18.092 15.8424 18.3683 15.728 18.6563 15.728Z" fill="#FF1F66"/>
</svg>
