<svg width="24" height="24" viewBox="0 0 24 24" fill="none" xmlns="http://www.w3.org/2000/svg">
<path d="M12 22C17.5228 22 22 17.5228 22 12C22 6.47715 17.5228 2 12 2C6.47715 2 2 6.47715 2 12C2 17.5228 6.47715 22 12 22Z" fill="#F4F4F4"/>
<path d="M18.1544 7.90509C17.9294 7.73509 17.66 7.50321 17.1694 7.44509C16.7094 7.38696 16.2406 7.68134 15.9237 7.87634C15.6069 8.07071 15.0081 8.64321 14.7606 8.81696C14.5131 8.99134 13.8794 9.15321 12.8594 9.73759C11.8394 10.322 7.8375 12.7751 7.8375 12.7751L8.87937 12.7876L4.23562 15.072H4.69937L4.03125 15.557C4.03125 15.557 4.62125 15.7063 5.11625 15.4076V15.5445C5.11625 15.5445 10.6456 13.4632 11.7137 14.0026L11.0625 14.1845C11.1188 14.1845 12.1688 14.2513 12.1688 14.2513C12.1688 14.2513 12.2037 14.877 12.8375 15.2788C13.4713 15.677 13.4844 15.897 13.4844 15.897C13.4844 15.897 13.1544 16.0251 13.1544 16.187C13.1544 16.187 13.6406 16.0457 14.0919 16.0582C14.5431 16.0707 14.9381 16.187 14.9381 16.187C14.9381 16.187 14.9038 16.0126 14.465 15.897C14.0225 15.7763 13.5931 15.3245 13.38 15.0757C13.2506 14.9201 13.1658 14.7323 13.1346 14.5324C13.1033 14.3324 13.1268 14.1278 13.2025 13.9401C13.3544 13.5632 13.8837 13.3557 14.9775 12.817C16.2662 12.1782 16.5619 11.7057 16.7437 11.337C16.9263 10.9682 17.195 10.2345 17.3475 9.89009C17.5381 9.44634 17.7725 9.21009 17.9681 9.06946C18.1587 8.92821 19.0312 8.61759 19.0312 8.61759C19.0312 8.61759 18.3669 8.06634 18.1544 7.90509Z" fill="black"/>
</svg>
