<svg width="24" height="24" viewBox="0 0 24 24" fill="none" xmlns="http://www.w3.org/2000/svg">
<path d="M12 22C17.5228 22 22 17.5228 22 12C22 6.47715 17.5228 2 12 2C6.47715 2 2 6.47715 2 12C2 17.5228 6.47715 22 12 22Z" fill="black"/>
<path d="M4.16433 12.6239C4.20403 12.4266 4.38765 12.2345 4.57126 12.276C4.5663 12.3332 4.54645 12.3747 4.53653 12.3954C4.50179 12.4629 4.54645 12.4837 4.59608 12.4629C4.64074 12.4474 4.74496 12.411 4.74496 12.3228C4.73999 12.2709 4.69533 12.2086 4.63082 12.1722C4.5663 12.1359 4.50179 12.1255 4.4472 12.1255C4.33802 12.1255 4.24869 12.1722 4.17922 12.2293C4.06508 12.328 4.00553 12.4681 4.00056 12.6135C3.98568 12.951 4.26855 13.1534 4.55638 13.1534C5.16182 13.1171 5.48935 12.707 5.56875 12.5512C5.60349 12.4837 5.56875 12.3954 5.53898 12.4162C5.24122 12.6914 4.88391 12.9665 4.47201 12.9977C4.24869 12.9977 4.11967 12.8471 4.16433 12.6239Z" fill="white"/>
<path d="M6.91422 12.468C7.03332 12.4265 7.06806 12.359 6.92414 12.3642C6.87948 12.3642 6.68592 12.3849 6.4527 12.3849C6.33855 12.3849 6.20952 12.3797 6.08545 12.3642C6.01102 12.2707 5.90184 12.2032 5.76785 12.1825C5.66859 12.1773 5.63386 12.2344 5.61401 12.3071C5.60408 12.3071 5.59912 12.3122 5.58919 12.3122C5.47505 12.3538 5.34602 12.603 5.38076 12.821C5.40557 12.9664 5.52964 13.1273 5.71326 13.1377C5.94154 13.1533 6.145 13.0235 6.18967 12.7639C6.20456 12.686 6.19959 12.6082 6.17974 12.5407C6.48247 12.5563 6.80504 12.5095 6.91422 12.468ZM5.68844 12.4265L5.69837 12.4161C5.76785 12.4628 5.86214 12.4939 5.97628 12.5147C6.05568 12.7016 5.9465 12.9975 5.72814 13.0079C5.63386 13.0131 5.57927 12.956 5.55445 12.8054C5.52964 12.6601 5.62393 12.4784 5.68844 12.4265Z" fill="white"/>
<path d="M6.99332 12.8887C7.00822 12.951 7.13724 13.0548 7.17693 13.0185C7.37049 12.842 7.50943 12.5668 7.76252 12.3955C7.80719 12.598 7.83696 12.7174 7.88659 12.8316C7.91636 12.8887 8.01067 12.9406 8.05036 12.9198C8.18435 12.8264 8.30842 12.7226 8.53172 12.5305C8.54662 12.5772 8.57144 12.6343 8.60618 12.6862C8.65085 12.7485 8.70046 12.8108 8.77489 12.8627C8.88407 12.9354 9.00319 12.9666 9.10739 12.9666C9.39028 12.9666 9.71283 12.7122 9.78729 12.572C9.84683 12.4578 9.78232 12.4163 9.76742 12.4422C9.69796 12.5668 9.15703 12.8212 8.99822 12.8212C8.92873 12.8212 8.8692 12.7953 8.81461 12.7589C8.71536 12.6707 8.69054 12.4838 8.6409 12.3799C8.60618 12.3228 8.51188 12.2709 8.47714 12.2969L7.99577 12.707C7.95111 12.5253 7.94613 12.4163 7.89154 12.2813C7.85185 12.2242 7.7675 12.1723 7.72778 12.193C7.5144 12.3021 7.34567 12.5097 7.17198 12.707C7.16701 12.5357 7.18685 12.4422 7.1819 12.3072C7.19678 12.2398 7.03301 12.1255 7.01814 12.2138C6.99827 12.3436 6.9834 12.4941 6.9834 12.6603C6.9834 12.7329 6.98835 12.8108 6.99332 12.8887Z" fill="white"/>
<path d="M9.61009 14.8925C9.62002 14.9911 9.78378 15.043 9.78875 14.9548C9.75401 14.6952 9.75401 14.3993 9.74409 14.0878C9.75899 13.5479 9.76891 13.2 9.8235 12.9612L9.86319 12.9871C9.95252 13.0443 10.156 13.0962 10.3198 13.0495H10.3446C10.7217 13.065 11.1039 12.8574 11.3569 12.5874C11.4066 12.5303 11.4661 12.3486 11.4066 12.3953C11.2329 12.5563 10.821 12.8107 10.5083 12.8781C10.5778 12.7899 10.6473 12.6653 10.6572 12.5459C10.692 12.2551 10.3793 12.1461 10.1808 12.2032C10.0369 12.2448 9.88303 12.3538 9.75401 12.5614C9.76891 12.2084 9.77883 11.9644 9.78875 11.8346C9.79373 11.7983 9.75899 11.7516 9.70935 11.7256C9.66468 11.6997 9.62002 11.6997 9.61507 11.736C9.57535 12.0267 9.56543 12.9145 9.56543 14.093C9.58033 14.3733 9.59025 14.6744 9.61009 14.8925ZM10.2056 12.8937C10.1262 12.8833 9.88801 12.8729 9.83342 12.8418V12.8262C9.86319 12.6809 10.2155 12.2188 10.4389 12.3538C10.5977 12.4524 10.3793 12.8418 10.2056 12.8937Z" fill="white"/>
<path d="M12.7052 12.468C12.8243 12.4265 12.8591 12.359 12.7152 12.3642C12.6705 12.3642 12.477 12.3849 12.2437 12.3849C12.1296 12.3849 12.0005 12.3797 11.8765 12.3642C11.802 12.2707 11.6929 12.2032 11.5589 12.1825C11.4596 12.1773 11.4249 12.2344 11.405 12.3071C11.3951 12.3071 11.3901 12.3122 11.3802 12.3122C11.2661 12.3538 11.137 12.603 11.1718 12.821C11.1966 12.9664 11.3206 13.1273 11.5043 13.1377C11.7326 13.1533 11.936 13.0235 11.9807 12.7639C11.9956 12.686 11.9906 12.6082 11.9707 12.5407C12.2735 12.5563 12.5961 12.5095 12.7052 12.468ZM11.4795 12.4265L11.4894 12.4161C11.5589 12.4628 11.6531 12.4939 11.7673 12.5147C11.8467 12.7016 11.7375 12.9975 11.5191 13.0079C11.4249 13.0131 11.3703 12.956 11.3455 12.8054C11.3206 12.6601 11.4149 12.4784 11.4795 12.4265Z" fill="white"/>
<path d="M12.7159 13.1065C12.7904 13.1377 12.9095 13.1533 13.0336 13.1533C13.1626 13.1533 13.2916 13.1377 13.3809 13.1117C13.5099 13.0754 13.6043 12.93 13.4951 12.8314C13.3958 12.7483 13.2469 12.6705 13.0583 12.5614C12.9591 12.4991 12.845 12.4472 12.8747 12.3745C12.9293 12.2395 13.3809 12.1513 13.5645 12.0838C13.6042 12.0319 13.505 11.9332 13.4256 11.9436C13.1725 11.98 12.6316 12.1461 12.6713 12.4213C12.6911 12.577 12.8301 12.6289 12.9591 12.7068C13.0583 12.7639 13.2469 12.8625 13.371 12.93C13.242 12.9612 13.0435 12.9871 12.8847 12.9871C12.8202 12.9871 12.7656 12.9819 12.7209 12.9716C12.6117 12.9456 12.6564 13.0754 12.7159 13.1065Z" fill="white"/>
<path d="M14.0239 13.0029C14.0785 13.0393 14.138 13.0549 14.2025 13.0549C14.4655 13.0549 14.7931 12.7901 14.932 12.6603C14.9965 12.8472 15.1206 12.9458 15.2844 12.9874C15.4928 13.0393 15.8352 12.8731 15.9593 12.7434C16.2322 12.4578 16.1578 12.328 16.0735 12.4163C15.8948 12.624 15.468 12.8887 15.2149 12.8368C15.1256 12.8109 15.1008 12.707 15.1057 12.6188C15.1156 12.5201 15.1603 12.4267 15.1851 12.3488C15.2199 12.2865 15.0511 12.1723 15.0214 12.2294L14.937 12.3488H14.932C14.808 12.2917 14.669 12.2605 14.5301 12.2605C14.3564 12.2605 14.1877 12.3073 14.0537 12.4007C13.9296 12.489 13.875 12.6032 13.875 12.7174C13.875 12.8264 13.9246 12.9251 14.0239 13.0029ZM14.1132 12.8887C14.0388 12.8835 14.009 12.8264 14.0239 12.7641C14.0785 12.5253 14.406 12.4267 14.6541 12.4267C14.7286 12.4267 14.798 12.4371 14.8477 12.4526C14.674 12.6447 14.3514 12.8576 14.1132 12.8887Z" fill="white"/>
<path d="M16.1641 13.2364C16.2137 13.2623 16.2385 13.2467 16.2435 13.2467C16.2534 13.2415 16.2584 13.2312 16.2634 13.2312C16.2683 13.2156 16.2782 13.1896 16.2733 13.1533L16.303 13.0079L16.3179 12.956L16.3279 12.9612C16.437 13.0391 16.7249 13.0547 16.8043 13.0391L16.8241 13.0339H16.8638C17.3005 13.0287 17.6529 12.8314 17.8365 12.5718C17.8812 12.5043 17.9109 12.3434 17.8613 12.3953C17.6876 12.5563 17.2906 12.7899 17.0475 12.8314L17.0822 12.7483C17.102 12.686 17.1169 12.6134 17.1169 12.5355C17.1169 12.4161 17.0822 12.2915 16.978 12.1928L16.9531 12.1721C16.9135 12.1305 16.8539 12.1046 16.8092 12.0994C16.5909 12.0579 16.2733 12.4888 16.1889 12.7016C16.1641 12.4369 16.1591 12.1046 16.1591 11.7671C16.1591 11.087 16.179 10.4018 16.2385 10.2201C16.2534 10.1889 16.2236 10.137 16.1839 10.1058C16.1343 10.0747 16.0847 10.0747 16.0698 10.1007C16.0053 10.2875 15.9805 10.9001 15.9805 11.5179V11.6841C15.9805 12.0215 15.9904 12.3538 16.0003 12.6185L16.04 12.9508C16.0549 13.0339 16.0648 13.1014 16.0847 13.1377C16.0847 13.1429 16.0847 13.1533 16.0996 13.1689C16.0996 13.174 16.1294 13.2104 16.1641 13.2364ZM16.3576 12.8522L16.3477 12.847C16.5661 12.5147 16.6951 12.3071 16.8638 12.25H16.8737L16.8886 12.2707C16.9184 12.3019 16.9333 12.3538 16.9333 12.4265C16.9333 12.6705 16.7348 12.8833 16.5065 12.8833C16.4569 12.8833 16.4073 12.8729 16.3576 12.8522Z" fill="white"/>
<path d="M18.3093 13.4181C18.6219 13.4181 19.0189 12.8574 19.1082 12.5979C19.1281 12.5356 19.1182 12.4058 19.0685 12.4785C18.9941 12.5771 18.3936 13.4233 18.1355 13.2572C18.0264 13.1793 17.9867 12.8107 17.9867 12.3487C17.9867 11.4505 18.1306 10.2045 18.1604 10.1059C18.1604 10.0799 18.1207 10.0384 18.071 10.0125C18.0214 9.99169 17.9917 9.99689 17.9867 10.028C17.9222 10.2461 17.7832 11.3623 17.7832 12.2241C17.7832 12.655 17.8179 13.0236 17.9122 13.1793C18.0115 13.3247 18.1504 13.4181 18.3093 13.4181Z" fill="white"/>
<path d="M19.8116 13.1585C20.154 13.1377 20.4716 12.8834 20.6106 12.5823C20.6801 12.4369 20.6999 12.3175 20.5858 12.4421C20.3773 12.6705 20.0299 13.0339 19.5635 13.0339C19.3898 13.0339 19.2161 12.8678 19.2012 12.7691C19.3749 12.7691 19.5883 12.6445 19.6528 12.4784C19.7074 12.3279 19.5635 12.1721 19.4096 12.1721C19.1665 12.1825 19.0176 12.4161 19.0176 12.6445C19.0176 12.6965 19.0275 12.7484 19.0424 12.7951C19.1417 13.117 19.5188 13.1741 19.8116 13.1585ZM19.489 12.3486C19.5436 12.4057 19.4047 12.5459 19.1962 12.6445C19.1913 12.5148 19.3848 12.2396 19.489 12.3486Z" fill="white"/>
</svg>
