<svg width="24" height="24" viewBox="0 0 24 24" fill="none" xmlns="http://www.w3.org/2000/svg">
<path d="M12 22C17.5228 22 22 17.5228 22 12C22 6.47715 17.5228 2 12 2C6.47715 2 2 6.47715 2 12C2 17.5228 6.47715 22 12 22Z" fill="#FF0066"/>
<path d="M14.1537 6.4324C14.1537 7.2235 13.0177 7.86481 11.6164 7.86481C10.2151 7.86481 9.0791 7.2235 9.0791 6.4324C9.0791 5.64131 10.2151 5 11.6164 5C13.0177 5 14.1537 5.64131 14.1537 6.4324Z" fill="white"/>
<path d="M13.6449 18.086C13.1819 18.4333 12.4456 18.6578 11.6164 18.6578C10.2151 18.6578 9.0791 18.0165 9.0791 17.2254C9.0791 16.4343 10.2151 15.793 11.6164 15.793C11.865 15.793 12.1053 15.8132 12.3325 15.8508C12.4135 16.7718 12.9127 17.5768 13.6449 18.086Z" fill="white"/>
<path d="M18.1892 13.9898C18.3167 13.2673 18.153 12.6487 17.699 12.3943C17.3063 12.1741 16.7789 12.273 16.2676 12.6071C17.0789 12.8076 17.765 13.3128 18.1892 13.9898Z" fill="white"/>
<path d="M8.08014 9.84747C8.7808 8.66951 8.77623 7.39375 8.06997 6.99793C7.36371 6.60211 6.22319 7.23617 5.52253 8.41409C4.82187 9.59205 4.82642 10.8678 5.53268 11.2636C6.23895 11.6595 7.3795 11.0254 8.08014 9.84747Z" fill="white"/>
<path d="M8.06998 16.6599C8.77624 16.2641 8.78081 14.9883 8.08014 13.8103C7.37948 12.6324 6.23895 11.9984 5.53269 12.3942C4.82642 12.79 4.82188 14.0658 5.52253 15.2437C6.22319 16.4217 7.36373 17.0557 8.06998 16.6599Z" fill="white"/>
<path d="M17.7085 8.41516C18.4092 9.59312 18.405 10.8687 17.6992 11.2643C16.9934 11.6598 15.8533 11.0255 15.1527 9.84759C14.452 8.66963 14.4562 7.39407 15.162 6.99851C15.8677 6.60296 17.0079 7.2372 17.7085 8.41516Z" fill="white"/>
<path fill-rule="evenodd" clip-rule="evenodd" d="M15.4844 12.5503C13.7585 12.5503 12.3594 13.9092 12.3594 15.5855C12.3594 17.2619 13.7585 18.6208 15.4844 18.6208C17.2103 18.6208 18.6094 17.2619 18.6094 15.5855C18.6094 13.9092 17.2103 12.5503 15.4844 12.5503ZM11.9688 15.5855C11.9688 13.6997 13.5428 12.1709 15.4844 12.1709C17.4261 12.1709 19.0001 13.6997 19.0001 15.5855C19.0001 17.4714 17.4261 19.0002 15.4844 19.0002C13.5428 19.0002 11.9688 17.4714 11.9688 15.5855Z" fill="white"/>
<path d="M15.559 13.8782C15.8046 13.8782 16.0232 13.9287 16.2146 14.0298C16.4075 14.1294 16.5628 14.2657 16.6803 14.4389C16.7994 14.6119 16.8695 14.8073 16.8906 15.0248H16.1988C16.1777 14.9099 16.1392 14.8081 16.0835 14.7192C16.0277 14.6288 15.9546 14.5583 15.8642 14.5078C15.7738 14.4557 15.6653 14.4296 15.5386 14.4296C15.3864 14.4296 15.2553 14.4672 15.1452 14.5423C15.0352 14.6173 14.9508 14.7383 14.892 14.9053C14.8332 15.0723 14.8038 15.2929 14.8038 15.5672C14.8038 15.9807 14.8686 16.2802 14.9983 16.4656C15.1294 16.6494 15.3095 16.7413 15.5386 16.7413C15.6653 16.7413 15.7738 16.7122 15.8642 16.654C15.9546 16.5943 16.0277 16.5162 16.0835 16.4196C16.1392 16.3216 16.1777 16.2144 16.1988 16.098H16.8906C16.871 16.2557 16.8334 16.4066 16.7776 16.5506C16.7218 16.6931 16.6427 16.8202 16.5402 16.9321C16.4377 17.0439 16.3058 17.132 16.1445 17.1964C15.9833 17.2607 15.7881 17.2928 15.559 17.2928C15.2545 17.2928 14.9915 17.2209 14.7699 17.0768C14.5483 16.9328 14.3772 16.7306 14.2567 16.4702C14.1376 16.2098 14.0781 15.9057 14.0781 15.5579C14.0781 15.2087 14.1376 14.9091 14.2567 14.6595C14.3758 14.4082 14.5461 14.2152 14.7676 14.0804C14.9892 13.9456 15.253 13.8782 15.559 13.8782Z" fill="white"/>
</svg>
