<svg width="24" height="24" viewBox="0 0 24 24" fill="none" xmlns="http://www.w3.org/2000/svg">
<path d="M12 22C17.5228 22 22 17.5228 22 12C22 6.47715 17.5228 2 12 2C6.47715 2 2 6.47715 2 12C2 17.5228 6.47715 22 12 22Z" fill="#FF0066"/>
<path d="M14.1537 6.4324C14.1537 7.2235 13.0177 7.86481 11.6164 7.86481C10.2151 7.86481 9.0791 7.2235 9.0791 6.4324C9.0791 5.64131 10.2151 5 11.6164 5C13.0177 5 14.1537 5.64131 14.1537 6.4324Z" fill="white"/>
<path d="M13.6449 18.086C13.1819 18.4333 12.4456 18.6578 11.6164 18.6578C10.2151 18.6578 9.0791 18.0165 9.0791 17.2254C9.0791 16.4343 10.2151 15.793 11.6164 15.793C11.865 15.793 12.1053 15.8132 12.3325 15.8508C12.4135 16.7718 12.9127 17.5768 13.6449 18.086Z" fill="white"/>
<path d="M18.1892 13.9898C18.3167 13.2673 18.153 12.6487 17.699 12.3943C17.3063 12.1741 16.7789 12.273 16.2676 12.6071C17.0789 12.8076 17.765 13.3128 18.1892 13.9898Z" fill="white"/>
<path d="M8.08014 9.84747C8.7808 8.66951 8.77623 7.39375 8.06997 6.99793C7.36371 6.60211 6.22319 7.23617 5.52253 8.41409C4.82187 9.59205 4.82642 10.8678 5.53268 11.2636C6.23895 11.6595 7.3795 11.0254 8.08014 9.84747Z" fill="white"/>
<path d="M8.06998 16.6599C8.77624 16.2641 8.78081 14.9883 8.08014 13.8103C7.37948 12.6324 6.23895 11.9984 5.53269 12.3942C4.82642 12.79 4.82188 14.0658 5.52253 15.2437C6.22319 16.4217 7.36373 17.0557 8.06998 16.6599Z" fill="white"/>
<path d="M17.7085 8.41516C18.4092 9.59312 18.405 10.8687 17.6992 11.2643C16.9934 11.6598 15.8533 11.0255 15.1527 9.84759C14.452 8.66963 14.4562 7.39407 15.162 6.99851C15.8677 6.60296 17.0079 7.2372 17.7085 8.41516Z" fill="white"/>
<path fill-rule="evenodd" clip-rule="evenodd" d="M15.4844 12.5503C13.7585 12.5503 12.3594 13.9092 12.3594 15.5855C12.3594 17.2619 13.7585 18.6208 15.4844 18.6208C17.2103 18.6208 18.6094 17.2619 18.6094 15.5855C18.6094 13.9092 17.2103 12.5503 15.4844 12.5503ZM11.9688 15.5855C11.9688 13.6997 13.5428 12.1709 15.4844 12.1709C17.4261 12.1709 19.0001 13.6997 19.0001 15.5855C19.0001 17.4714 17.4261 19.0002 15.4844 19.0002C13.5428 19.0002 11.9688 17.4714 11.9688 15.5855Z" fill="white"/>
<path d="M14.6387 13.8367H15.3622V16.7026H16.9077V17.293H14.6387V13.8367Z" fill="white"/>
</svg>
