<svg width="24" height="24" viewBox="0 0 24 24" fill="none" xmlns="http://www.w3.org/2000/svg">
<path d="M12 22C17.5228 22 22 17.5228 22 12C22 6.47715 17.5228 2 12 2C6.47715 2 2 6.47715 2 12C2 17.5228 6.47715 22 12 22Z" fill="#1C1C25"/>
<path d="M20.9997 12.4256L19.7925 11.2937L18.219 13.0469C18.0275 13.2597 17.7444 13.3703 17.4697 13.3448L16.1792 13.2171C15.9877 13.2001 15.8045 13.2682 15.6796 13.4129L10.7842 18.8767L11.9914 20.0001L17.5945 13.7533C17.7444 13.5916 17.9609 13.515 18.1773 13.5746L19.3096 13.8554C19.5178 13.9065 19.7426 13.8384 19.8924 13.6767L20.9997 12.4256Z" fill="url(#paint0_linear_6921_11435)"/>
<path d="M18.4109 9.99153L17.2036 8.85962L14.4062 11.983C14.2147 12.1958 13.9317 12.3064 13.6569 12.2809L12.3665 12.1532C12.175 12.1362 11.9918 12.2043 11.8669 12.349L8.19531 16.4426L9.40253 17.5745L13.7735 12.6979C13.9233 12.5362 14.1398 12.4596 14.3563 12.5192L15.4886 12.8C15.6967 12.8511 15.9215 12.783 16.0714 12.6213L18.4109 9.99153Z" fill="url(#paint1_linear_6921_11435)"/>
<path d="M15.8132 7.566L14.606 6.43408L10.5764 10.9192C10.3849 11.132 10.1018 11.2426 9.82707 11.2171L8.5366 11.0894C8.34511 11.0724 8.16195 11.1405 8.03706 11.2851L5.59766 14.0086L6.80487 15.1405L9.94363 11.6341C10.0935 11.4724 10.31 11.3958 10.5264 11.4554L11.6587 11.7362C11.8669 11.7873 12.0916 11.7192 12.2415 11.5575L15.8132 7.566Z" fill="url(#paint2_linear_6921_11435)"/>
<path d="M13.2239 5.13192L12.0167 4L6.75486 9.86383C6.56337 10.0766 6.2803 10.1872 6.00555 10.1617L4.71508 10.034C4.52359 10.017 4.34043 10.0851 4.21554 10.2298L3 11.5745L4.20722 12.7064L6.12211 10.5702C6.27197 10.4085 6.48844 10.3319 6.7049 10.3915L7.83719 10.6723C8.04533 10.7234 8.27012 10.6553 8.41998 10.4936L13.2239 5.13192Z" fill="url(#paint3_linear_6921_11435)"/>
<defs>
<linearGradient id="paint0_linear_6921_11435" x1="19.7948" y1="11.2931" x2="11.8018" y2="19.8221" gradientUnits="userSpaceOnUse">
<stop offset="0.2097" stop-color="#02C86A"/>
<stop offset="0.3359" stop-color="#14EA85"/>
</linearGradient>
<linearGradient id="paint1_linear_6921_11435" x1="17.2012" y1="8.86203" x2="9.20826" y2="17.391" gradientUnits="userSpaceOnUse">
<stop offset="0.3216" stop-color="#02C86A"/>
<stop offset="0.5064" stop-color="#11ED85"/>
</linearGradient>
<linearGradient id="paint2_linear_6921_11435" x1="14.607" y1="6.43104" x2="6.61414" y2="14.96" gradientUnits="userSpaceOnUse">
<stop offset="0.5012" stop-color="#1FD17D"/>
<stop offset="0.6414" stop-color="#2CE28C"/>
</linearGradient>
<linearGradient id="paint3_linear_6921_11435" x1="12.013" y1="4" x2="4.02005" y2="12.529" gradientUnits="userSpaceOnUse">
<stop offset="0.6496" stop-color="#1BC675"/>
<stop offset="0.7967" stop-color="#0FD879"/>
</linearGradient>
</defs>
</svg>
