<svg width="24" height="24" viewBox="0 0 24 24" fill="none" xmlns="http://www.w3.org/2000/svg">
<g clip-path="url(#clip0_6921_11237)">
<path d="M12 22C17.5228 22 22 17.5228 22 12C22 6.47715 17.5228 2 12 2C6.47715 2 2 6.47715 2 12C2 17.5228 6.47715 22 12 22Z" fill="black"/>
<g filter="url(#filter0_d_6921_11237)">
<path d="M12 15.5C13.933 15.5 15.5 13.933 15.5 12C15.5 10.067 13.933 8.5 12 8.5C10.067 8.5 8.5 10.067 8.5 12C8.5 13.933 10.067 15.5 12 15.5Z" fill="#6530F0"/>
</g>
<g filter="url(#filter1_d_6921_11237)">
<path fill-rule="evenodd" clip-rule="evenodd" d="M10.9992 5.23488L10.9088 5.15171L10.8976 5.0291L11.2134 5L10.9992 5.23488ZM5.5258 10.1021C5.53712 10.1044 5.54911 10.1066 5.56176 10.1088C5.65916 10.1256 5.79618 10.1389 5.9571 10.1255C6.28127 10.0987 6.69801 9.96393 7.07708 9.54377C7.43231 9.15005 8.41269 8.07297 9.30455 7.09402C9.75042 6.60461 10.1741 6.13982 10.4862 5.79739C10.6423 5.62617 10.7706 5.48554 10.8598 5.38772L10.9991 5.23492C10.9992 5.23489 10.9992 5.23488 10.9088 5.15171C10.8976 5.0291 10.8975 5.0291 10.8974 5.02911L10.8973 5.02913L10.8967 5.02918L10.8951 5.02934C10.8937 5.02948 10.8917 5.02967 10.8893 5.02993C10.8843 5.03046 10.8772 5.03125 10.868 5.03236C10.8497 5.03458 10.823 5.03808 10.7887 5.0433C10.7201 5.05373 10.6209 5.07104 10.4962 5.09874C10.2468 5.15412 9.89551 5.25112 9.48388 5.41796C8.66052 5.7517 7.59528 6.36521 6.6242 7.48405C5.7726 8.46523 5.36754 9.60731 5.17488 10.5C5.07843 10.9469 5.03483 11.333 5.01535 11.6078C5.0056 11.7453 5.00188 11.855 5.0006 11.9308C4.99996 11.9687 4.99993 11.9982 5.00007 12.0183C5.00014 12.0284 5.00025 12.0362 5.00034 12.0415C5.00039 12.0442 5.00044 12.0463 5.00047 12.0477L5.00051 12.0495L5.00053 12.0502C5.00053 12.0502 5.00053 12.0503 5.12306 12.0467L5.00053 12.0503L5.01041 12.394L5.21998 12.1221L5.22004 12.122L5.2203 12.1217L5.22145 12.1202C5.2225 12.1188 5.22411 12.1168 5.22625 12.114C5.23053 12.1086 5.23694 12.1004 5.24535 12.0898C5.26217 12.0685 5.28694 12.0376 5.31847 11.9991C5.38156 11.9221 5.47155 11.815 5.5789 11.695C5.79479 11.4537 6.07629 11.1656 6.34816 10.9637C6.46386 10.8778 6.60464 10.8218 6.85798 10.8086C7.11639 10.7951 7.48378 10.8266 8.0465 10.9126C8.3978 10.9663 8.79794 10.9267 9.14502 10.8372C9.48722 10.749 9.80257 10.6058 9.96761 10.4328C10.5327 9.8405 11.6492 8.6204 12.6234 7.54953C13.1108 7.01383 13.5628 6.51509 13.8931 6.15028C14.0582 5.96788 14.1929 5.81895 14.2863 5.71562C14.3234 5.67451 14.354 5.64062 14.3775 5.61471C14.6665 5.72162 15.0711 5.94253 15.4539 6.17717C15.7961 6.38694 16.11 6.60094 16.2948 6.74204L16.2277 6.81587C16.1285 6.9251 15.9863 7.08161 15.8145 7.27073C15.4709 7.64896 15.0089 8.15764 14.5354 8.67939C13.5891 9.72224 12.5951 10.8192 12.4104 11.0295C12.3207 11.1317 12.1236 11.2518 11.8713 11.3308C11.622 11.4088 11.3377 11.4405 11.0819 11.3846C10.8725 11.3389 10.6959 11.2868 10.5314 11.2382C10.4783 11.2225 10.4265 11.2072 10.3753 11.1926C10.1678 11.1335 9.97041 11.0863 9.75653 11.0863C9.32094 11.0863 8.87329 11.2807 8.39083 11.8164C8.15859 12.0742 7.46671 12.8245 6.83206 13.5112C6.51492 13.8544 6.21233 14.1815 5.98902 14.4227C5.87737 14.5433 5.78554 14.6425 5.72162 14.7115L5.62173 14.8193C5.62171 14.8193 5.6217 14.8193 5.71144 14.9032L5.62173 14.8193L5.57456 14.8702L5.59357 14.937C5.63536 15.084 5.73678 15.2779 5.86564 15.4851C5.99627 15.6953 6.16122 15.9289 6.33779 16.1576C6.68829 16.6116 7.09545 17.0605 7.37996 17.2683L7.46738 17.3322L7.54139 17.253C7.82606 16.9487 8.44639 16.2623 9.12634 15.5101C9.35623 15.2558 9.59292 14.9939 9.82577 14.7367C10.287 14.2273 10.7333 13.7359 11.0826 13.3566C11.2574 13.1669 11.4075 13.0055 11.5229 12.8841C11.6408 12.7601 11.717 12.6837 11.7472 12.6584C12.0166 12.4329 12.3535 12.3191 12.7402 12.342C12.8731 12.3498 13.0604 12.3726 13.268 12.3979C13.3801 12.4115 13.4981 12.4259 13.6166 12.4389C13.7829 12.4573 13.9484 12.473 14.0934 12.4794C14.2353 12.4858 14.3689 12.484 14.4656 12.4624C14.7845 12.3912 15.3829 12.235 15.7788 11.8108C15.959 11.6177 16.4209 11.1057 16.9159 10.5569C17.3644 10.0598 17.84 9.53254 18.1581 9.18489C18.3941 9.71005 18.7215 10.7501 18.7526 11.7773C18.6187 11.9194 18.5066 12.0412 18.4092 12.1472C18.1789 12.3975 18.0302 12.5591 17.8682 12.6893C17.6485 12.8659 17.2452 13.0251 16.7719 12.9119L16.7233 12.9003C16.4796 12.842 16.217 12.7792 15.9946 12.7299C15.8761 12.7036 15.7679 12.6809 15.6795 12.6647C15.5947 12.6492 15.5182 12.6377 15.4687 12.6377H15.4668C15.3141 12.6377 14.7315 12.6377 14.2788 13.0924C14.0677 13.3045 13.0777 14.3978 12.0377 15.5468L11.9413 15.6534C10.9283 16.7726 9.88613 17.9242 9.47134 18.3646L9.33784 18.5064L9.52273 18.5664C11.1363 19.09 12.4022 19.0588 13.2613 18.8902C14.5792 18.6315 17.6763 17.6131 18.7491 13.8288L18.7831 13.7091L18.6635 13.6763C18.3678 13.5953 18.0566 13.618 17.7888 13.6942C17.5229 13.7698 17.2862 13.9023 17.144 14.0561C16.8252 14.4009 15.7464 15.5716 14.7475 16.6559C14.248 17.1981 13.7684 17.7187 13.4136 18.1038L12.8592 18.7058C12.0941 18.8036 11.0585 18.7764 9.78358 18.3902C10.2626 17.8743 11.2044 16.8336 12.1201 15.8219L12.2191 15.7125C13.263 14.5591 14.2465 13.4731 14.4522 13.2665C14.8311 12.8859 15.3243 12.884 15.4687 12.884C15.4927 12.884 15.5481 12.891 15.6356 12.907C15.7196 12.9224 15.8244 12.9443 15.9418 12.9703C16.162 13.0192 16.4228 13.0816 16.6671 13.14L16.7151 13.1515C17.2715 13.2846 17.7508 13.099 18.0214 12.8816C18.1984 12.7394 18.3654 12.5579 18.6052 12.2972C18.7092 12.1841 18.827 12.0561 18.9653 11.9099L19 11.8732L18.9989 11.8225C18.974 10.6192 18.5514 9.39394 18.2984 8.91125L18.2177 8.75722L18.1 8.88494C17.7859 9.22568 17.2404 9.83045 16.7314 10.3947C16.2394 10.9402 15.7815 11.4478 15.5999 11.6424C15.2603 12.0062 14.731 12.1509 14.4125 12.222C14.3498 12.236 14.2444 12.2397 14.1043 12.2335C13.9674 12.2273 13.8081 12.2124 13.6434 12.1942C13.5333 12.182 13.4198 12.1682 13.3096 12.1548C13.0959 12.1289 12.8947 12.1045 12.7547 12.0962C12.3079 12.0698 11.9093 12.2022 11.5903 12.4693C11.5469 12.5055 11.46 12.5938 11.3456 12.714C11.2289 12.8369 11.0777 12.9993 10.9027 13.1894C10.5526 13.5695 10.1056 14.0616 9.6444 14.571C9.41064 14.8292 9.17327 15.0918 8.94297 15.3466C8.31946 16.0365 7.74766 16.669 7.43904 17.0024C7.18742 16.7928 6.84291 16.41 6.53151 16.0067C6.35873 15.7829 6.19884 15.5563 6.0736 15.3548C5.96886 15.1862 5.89235 15.0416 5.85092 14.9334L5.90111 14.8792C5.96504 14.8102 6.05689 14.711 6.16856 14.5904C6.3919 14.3491 6.69454 14.022 7.01174 13.6788C7.64578 12.9927 8.33906 12.2409 8.57261 11.9816C9.02175 11.483 9.40765 11.3326 9.75653 11.3326C9.9349 11.3326 10.1053 11.3716 10.3084 11.4295C10.3559 11.443 10.4053 11.4576 10.4568 11.4728C10.6228 11.5219 10.8109 11.5775 11.0298 11.6253C11.3379 11.6925 11.6665 11.6528 11.9443 11.5659C12.2191 11.4798 12.4633 11.3414 12.5942 11.1924C12.7772 10.9841 13.7691 9.88941 14.7166 8.84529C15.19 8.32357 15.652 7.81493 15.9956 7.43672C16.1674 7.24761 16.3095 7.09111 16.4088 6.98189L16.5642 6.81091L16.5643 6.81077C16.5643 6.81074 16.5644 6.81073 16.4739 6.72771L16.5644 6.81073L16.6502 6.71631L16.553 6.63372C16.3863 6.49203 15.9999 6.22338 15.5816 5.96697C15.1647 5.71138 14.7001 5.45799 14.3783 5.35457L14.3032 5.33041L14.2502 5.38913L14.341 5.47183C14.2502 5.38913 14.2501 5.38915 14.2501 5.38917L14.25 5.3893L14.2125 5.43088C14.1878 5.45821 14.1514 5.49845 14.1048 5.5501C14.0114 5.65339 13.8768 5.80227 13.7117 5.98462C13.3815 6.34933 12.9296 6.84791 12.4425 7.3834C11.4677 8.45492 10.3532 9.67266 9.79061 10.2624C9.67371 10.3849 9.41296 10.5139 9.08405 10.5987C8.75999 10.6823 8.39401 10.7166 8.0834 10.6691C7.51839 10.5828 7.13014 10.5478 6.84525 10.5627C6.55529 10.5778 6.36511 10.6449 6.20244 10.7657C5.91044 10.9825 5.61582 11.2853 5.39656 11.5304C5.34537 11.5876 5.29803 11.642 5.25551 11.6917C5.2568 11.6704 5.25826 11.6483 5.25989 11.6253C5.2787 11.3599 5.32092 10.9857 5.41447 10.5522C5.4456 10.408 5.48238 10.2573 5.5258 10.1021ZM5.59644 9.86491C5.59867 9.86529 5.60092 9.8657 5.60321 9.86609C5.68446 9.88009 5.80044 9.89144 5.93696 9.88012C6.20767 9.85772 6.56355 9.74626 6.89542 9.37841C7.25116 8.98412 8.23203 7.9065 9.1237 6.92778C9.5696 6.43834 9.99326 5.97353 10.3055 5.63108C10.4095 5.51693 10.5012 5.41636 10.5772 5.33302C10.568 5.33501 10.5586 5.33706 10.5491 5.33918C10.3112 5.39203 9.97302 5.48525 9.57565 5.64632C8.78099 5.96842 7.75014 6.56153 6.80899 7.64588C6.19714 8.35084 5.82384 9.14544 5.59644 9.86491ZM13.2531 18.6408C14.5391 18.3804 17.4196 17.4008 18.4765 13.8875C18.2685 13.8541 18.0516 13.8753 17.8556 13.9311C17.619 13.9984 17.4267 14.1122 17.3237 14.2236C17.0051 14.5683 15.9265 15.7387 14.9274 16.8232C14.4279 17.3654 13.9483 17.886 13.5936 18.2711L13.2531 18.6408Z" fill="white"/>
</g>
</g>
<defs>
<filter id="filter0_d_6921_11237" x="0.5" y="0.5" width="23" height="23" filterUnits="userSpaceOnUse" color-interpolation-filters="sRGB">
<feFlood flood-opacity="0" result="BackgroundImageFix"/>
<feColorMatrix in="SourceAlpha" type="matrix" values="0 0 0 0 0 0 0 0 0 0 0 0 0 0 0 0 0 0 127 0" result="hardAlpha"/>
<feOffset/>
<feGaussianBlur stdDeviation="4"/>
<feComposite in2="hardAlpha" operator="out"/>
<feColorMatrix type="matrix" values="0 0 0 0 0.384314 0 0 0 0 0.168627 0 0 0 0 0.945098 0 0 0 1 0"/>
<feBlend mode="normal" in2="BackgroundImageFix" result="effect1_dropShadow_6921_11237"/>
<feBlend mode="normal" in="SourceGraphic" in2="effect1_dropShadow_6921_11237" result="shape"/>
</filter>
<filter id="filter1_d_6921_11237" x="0" y="0" width="24" height="24" filterUnits="userSpaceOnUse" color-interpolation-filters="sRGB">
<feFlood flood-opacity="0" result="BackgroundImageFix"/>
<feColorMatrix in="SourceAlpha" type="matrix" values="0 0 0 0 0 0 0 0 0 0 0 0 0 0 0 0 0 0 127 0" result="hardAlpha"/>
<feOffset/>
<feGaussianBlur stdDeviation="2.5"/>
<feComposite in2="hardAlpha" operator="out"/>
<feColorMatrix type="matrix" values="0 0 0 0 1 0 0 0 0 1 0 0 0 0 1 0 0 0 1 0"/>
<feBlend mode="normal" in2="BackgroundImageFix" result="effect1_dropShadow_6921_11237"/>
<feBlend mode="normal" in="SourceGraphic" in2="effect1_dropShadow_6921_11237" result="shape"/>
</filter>
<clipPath id="clip0_6921_11237">
<rect width="24" height="24" fill="white"/>
</clipPath>
</defs>
</svg>
