<svg width="24" height="24" viewBox="0 0 24 24" fill="none" xmlns="http://www.w3.org/2000/svg">
<path d="M22 12C22 6.47715 17.5228 2 12 2C6.47715 2 2 6.47715 2 12C2 17.5228 6.47715 22 12 22C17.5228 22 22 17.5228 22 12Z" fill="#9DDBF4"/>
<path d="M10.5138 4.10008C7.35275 4.69411 4.74027 7.27441 4.12666 10.4116C3.93142 11.3676 3.95931 12.8991 4.18244 13.8366C4.87042 16.7696 7.02735 18.9786 10.0396 19.8047C10.7462 19.9903 12.5591 20.0646 13.3215 19.9346C16.5569 19.3777 19.2344 16.7417 19.8574 13.5395C20.4059 10.6808 19.2995 7.6364 17.0403 5.78007C16.278 5.13963 14.9578 4.48063 13.9909 4.23003C13.0147 3.9887 11.4156 3.92373 10.5138 4.10008ZM13.5446 5.07466C16.4174 5.7615 18.5093 7.97982 19.002 10.8479C19.0671 11.2006 18.9462 11.3212 18.7324 11.117C18.5929 10.9871 9.7514 5.90073 9.36093 5.72438L9.00764 5.56659L9.31444 5.41808C9.63054 5.26957 10.4673 5.01897 10.8764 4.954C11.5364 4.84262 12.8287 4.89831 13.5446 5.07466ZM7.86409 6.43906C7.8362 6.53188 7.78972 9.09362 7.76182 12.1287C7.72464 15.1638 7.68745 17.6606 7.66885 17.6792C7.65026 17.6977 7.37135 17.4471 7.03665 17.1223C5.95819 16.0734 5.25161 14.7462 4.9634 13.2611C4.52643 10.9871 5.34458 8.51816 7.09243 6.85674C7.70604 6.28128 7.95706 6.14205 7.86409 6.43906ZM10.9972 7.68281C11.9827 8.25827 12.838 8.75948 12.9031 8.81517C12.9868 8.88014 12.5033 9.19572 11.1367 9.98466C10.0954 10.588 9.1378 11.1449 8.99834 11.2377L8.73802 11.4048V9.09362C8.73802 7.82203 8.76591 6.74536 8.8031 6.71751C8.96115 6.55973 9.34233 6.7268 10.9972 7.68281ZM15.6923 10.4023C16.3431 10.7829 17.0868 11.2006 17.3378 11.3398C18.5372 11.9988 18.5744 12.1659 17.6632 12.6856C17.3285 12.8713 16.4639 13.3632 15.7387 13.7809C15.0136 14.1985 14.4 14.542 14.3721 14.542C14.3442 14.542 14.3163 13.456 14.3163 12.1287C14.3163 10.4673 14.3442 9.71549 14.4185 9.71549C14.4743 9.71549 15.0508 10.0218 15.6923 10.4023ZM13.368 12.1102C13.3866 14.1336 13.3773 14.2635 13.2192 14.2635C13.1356 14.2635 12.4755 13.9294 11.7596 13.5117C9.72351 12.3329 9.48179 12.1844 9.48179 12.1102C9.48179 12.0173 9.66773 11.906 11.5086 10.82C12.3639 10.3188 13.1263 9.91969 13.2006 9.92897C13.3215 9.94753 13.3401 10.2724 13.368 12.1102ZM9.06342 13.0012C9.16569 13.0662 10.0675 13.5952 11.0623 14.1614C12.0571 14.7369 12.9124 15.2381 12.9496 15.2752C12.9961 15.3216 12.8009 15.4794 12.5312 15.6372C12.2616 15.7857 11.4156 16.2776 10.6439 16.7139C8.97974 17.6792 8.86818 17.7163 8.73802 17.3729C8.63575 17.113 8.60786 13.6416 8.70083 13.159C8.76591 12.8341 8.8031 12.8156 9.06342 13.0012ZM18.9462 13.4467C18.8719 14.0222 18.3605 15.2845 17.9422 15.9064C16.8916 17.4657 15.3018 18.5609 13.4888 18.96C12.336 19.2199 10.1512 19.0529 9.42601 18.6445C9.31444 18.5795 9.60265 18.3753 10.6625 17.772C11.4156 17.3357 13.1077 16.3612 14.4093 15.6094C15.7108 14.8575 17.1333 14.0408 17.5703 13.7994C18.0072 13.5488 18.4442 13.2797 18.5465 13.2054C18.8812 12.9455 18.9927 13.0198 18.9462 13.4467Z" fill="#2A125E"/>
</svg>
