<svg width="24" height="24" viewBox="0 0 24 24" fill="none" xmlns="http://www.w3.org/2000/svg">
<path d="M4.19308 5.75142C7.64408 1.43978 13.9369 0.742088 18.2486 4.19308C22.5602 7.64408 23.2579 13.9369 19.8069 18.2486C16.3559 22.5602 10.0631 23.2579 5.75142 19.8069C1.43978 16.3559 0.742088 10.0631 4.19308 5.75142Z" fill="url(#paint0_linear_6922_11623)"/>
<path d="M6.83892 5.61534C9.35962 2.46598 14.1437 2.10654 17.5245 4.8125C20.9054 7.51846 21.6026 12.2651 19.0819 15.4145C16.5612 18.5638 11.777 18.9233 8.39625 16.2173C5.01544 13.5114 4.3182 8.76471 6.83892 5.61534Z" fill="url(#paint1_linear_6922_11623)"/>
<path d="M9.34207 5.95811C11.1672 3.67782 14.6218 3.41008 17.0581 5.36009C19.4944 7.31009 19.9899 10.7394 18.1648 13.0197C16.3397 15.3 12.8851 15.5678 10.4487 13.6178C8.01244 11.6677 7.51694 8.23838 9.34207 5.95811Z" fill="url(#paint2_linear_6922_11623)"/>
<path d="M12.0705 6.40496C13.1756 5.02421 15.1909 4.80078 16.5716 5.90593C17.9524 7.01109 18.1758 9.0263 17.0707 10.4071C15.9655 11.7878 13.9503 12.0113 12.5695 10.9061C11.1887 9.80096 10.9653 7.78575 12.0705 6.40496Z" fill="white"/>
<defs>
<linearGradient id="paint0_linear_6922_11623" x1="5.7514" y1="19.807" x2="18.2485" y2="4.19312" gradientUnits="userSpaceOnUse">
<stop stop-color="#03345A"/>
<stop offset="0.557292" stop-color="#00457A"/>
</linearGradient>
<linearGradient id="paint1_linear_6922_11623" x1="8.39625" y1="16.2174" x2="17.5245" y2="4.81253" gradientUnits="userSpaceOnUse">
<stop stop-color="#0A7EA3"/>
<stop offset="1" stop-color="#075886"/>
</linearGradient>
<linearGradient id="paint2_linear_6922_11623" x1="10.4488" y1="13.6178" x2="17.0581" y2="5.3601" gradientUnits="userSpaceOnUse">
<stop stop-color="#10C5C5"/>
<stop offset="1" stop-color="#146F8C"/>
</linearGradient>
</defs>
</svg>
