<svg width="24" height="24" viewBox="0 0 24 24" fill="none" xmlns="http://www.w3.org/2000/svg">
<path d="M12 22C17.5228 22 22 17.5228 22 12C22 6.47715 17.5228 2 12 2C6.47715 2 2 6.47715 2 12C2 17.5228 6.47715 22 12 22Z" fill="white"/>
<path d="M14.583 13.6482C13.8661 13.6482 13.1807 13.4575 12.6644 13.1096L11.671 12.4407C11.1951 12.1194 10.5563 11.9424 9.87341 11.9424C9.19054 11.9424 8.55167 12.1185 8.07615 12.4407L7.43339 12.8728C7.37229 12.9126 7.2977 12.9272 7.22574 12.9134C7.15379 12.8996 7.09024 12.8586 7.04882 12.7992C7.0074 12.7398 6.99144 12.6667 7.00439 12.5958C7.01733 12.525 7.05814 12.4619 7.118 12.4203L7.76076 11.9882C8.32879 11.6068 9.07862 11.3949 9.87341 11.3949C10.6682 11.3949 11.418 11.6053 11.9864 11.9882L12.9798 12.6571C13.4623 12.9473 14.017 13.1008 14.5828 13.1008C15.1485 13.1008 15.7033 12.9473 16.1858 12.6571L16.5633 12.4029C16.6243 12.3618 16.6995 12.3462 16.7722 12.3595C16.845 12.3729 16.9093 12.4141 16.9512 12.474C16.993 12.534 17.0088 12.6078 16.9953 12.6793C16.9817 12.7507 16.9397 12.814 16.8787 12.8551L16.5012 13.1093C15.9827 13.4582 15.2998 13.6482 14.583 13.6482Z" fill="#53CBC8"/>
<path d="M9.85271 15.6111V12.9707C9.85066 12.9151 9.85314 12.8594 9.86015 12.8042C9.86849 12.7315 9.90378 12.6645 9.95927 12.6158C10.0148 12.567 10.0866 12.5401 10.161 12.5401C10.2332 12.5419 10.3023 12.5699 10.3548 12.6186C10.4073 12.6673 10.4397 12.7334 10.4457 12.8042C10.4571 12.8959 10.4604 12.9884 10.4557 13.0806V18.3462C10.4395 18.5416 10.315 18.67 10.1474 18.6665C9.97984 18.663 9.85885 18.5292 9.85788 18.3312V16.5758L9.85271 15.6111Z" fill="#53CBC8"/>
<path d="M9.28757 14.2822V15.5943C9.28757 15.8186 9.16562 15.9673 8.99256 15.9622C8.8195 15.9572 8.68881 15.8056 8.68784 15.5914V12.9679C8.68784 12.7381 8.82403 12.5834 9.00161 12.5919C9.1792 12.6005 9.28466 12.74 9.28563 12.9698C9.28822 13.407 9.28757 13.8446 9.28757 14.2822Z" fill="#53CBC8"/>
<path d="M11.023 14.2802V13.3587C11.023 13.1448 11.1385 13.0066 11.3106 13.0066C11.4827 13.0066 11.6153 13.1493 11.6169 13.3508C11.6239 13.9787 11.6239 14.6063 11.6169 15.2336C11.6169 15.4474 11.4876 15.5761 11.3126 15.5742C11.1376 15.5723 11.023 15.4414 11.0214 15.2221V14.2796L11.023 14.2802Z" fill="#53CBC8"/>
<path d="M7.523 14.4722V13.5506C7.523 13.3368 7.6388 13.1985 7.81089 13.1985C7.98298 13.1985 8.11528 13.3412 8.11723 13.5427C8.12305 14.1706 8.12305 14.7982 8.11723 15.4255C8.11723 15.6393 7.98784 15.768 7.81251 15.7661C7.63719 15.7642 7.52138 15.6333 7.52138 15.414V14.4712L7.523 14.4722Z" fill="#53CBC8"/>
<path d="M12.4826 13.687H12.4816C12.3189 13.687 12.1869 13.8166 12.1869 13.9765V14.4786C12.1869 14.6385 12.3189 14.7681 12.4816 14.7681H12.4826C12.6453 14.7681 12.7773 14.6385 12.7773 14.4786V13.9765C12.7773 13.8166 12.6453 13.687 12.4826 13.687Z" fill="#53CBC8"/>
<path d="M13.651 14.1265H13.65C13.4873 14.1265 13.3553 14.2561 13.3553 14.4159V17.2301C13.3553 17.39 13.4873 17.5196 13.65 17.5196H13.651C13.8138 17.5196 13.9457 17.39 13.9457 17.2301V14.4159C13.9457 14.2561 13.8138 14.1265 13.651 14.1265Z" fill="#53CBC8"/>
<path d="M14.8113 14.2354H14.8104C14.6476 14.2354 14.5157 14.365 14.5157 14.5249V16.9168C14.5157 17.0767 14.6476 17.2063 14.8104 17.2063H14.8113C14.9741 17.2063 15.106 17.0767 15.106 16.9168V14.5249C15.106 14.365 14.9741 14.2354 14.8113 14.2354Z" fill="#53CBC8"/>
<path d="M15.9878 13.9625H15.9869C15.8241 13.9625 15.6922 14.0921 15.6922 14.252V15.2838C15.6922 15.4437 15.8241 15.5733 15.9869 15.5733H15.9878C16.1506 15.5733 16.2825 15.4437 16.2825 15.2838V14.252C16.2825 14.0921 16.1506 13.9625 15.9878 13.9625Z" fill="#53CBC8"/>
<path d="M11.9091 6.16663C10.6473 6.16663 9.43713 6.65904 8.54488 7.53556C7.65263 8.41207 7.15137 9.60087 7.15137 10.8404C7.15135 11.1358 7.17951 11.4305 7.23547 11.7207L7.85008 11.3076C8.93051 10.5799 10.6831 10.5799 11.7642 11.3076L12.4092 11.7417L12.7586 11.9774C13.7326 12.6333 15.3105 12.6333 16.2845 11.9774L16.5714 11.7849C16.7128 11.1057 16.6987 10.4041 16.5303 9.7309C16.3618 9.05769 16.0432 8.42967 15.5974 7.89224C15.1517 7.35481 14.5899 6.9214 13.9528 6.62335C13.3156 6.3253 12.619 6.17006 11.9133 6.16885L11.9091 6.16663Z" fill="#F2B705"/>
</svg>
