<svg width="24" height="24" viewBox="0 0 24 24" fill="none" xmlns="http://www.w3.org/2000/svg">
<path fill-rule="evenodd" clip-rule="evenodd" d="M22 12C22 17.5228 17.5228 22 12 22C6.47715 22 2 17.5228 2 12C2 6.47715 6.47715 2 12 2C17.5228 2 22 6.47715 22 12ZM12.4669 11.6738L11.4502 11.6587L11.4169 12.2807H12.4669V11.6738ZM18.8 13.024C19.7 12.2958 19.9833 11.3401 20 10.354C20 9.18584 19.55 8.09355 18.6834 7.35019C17.7334 6.45512 16.3334 6 14.6002 6C13.4669 6 12.8002 6.30341 12.2336 6.91024C11.6669 7.53224 11.5336 8.33628 11.5336 8.8976L11.5169 10.5057L12.5002 10.5209L12.5169 8.8976C12.5169 8.47282 12.6835 8.07838 12.9335 7.77497C13.2169 7.47156 13.5669 7.30468 13.9835 7.30468H14.0002C14.4835 7.30468 14.8335 7.41087 15.0668 7.59292C15.3335 7.79014 15.4668 8.09355 15.4501 8.48799C15.4501 8.88243 15.2668 9.24652 14.9501 9.5196C14.6335 9.80784 14.2168 9.94437 13.7668 9.9292L12.8169 9.91403V10.4753L13.7835 10.5057H13.8335C15.0668 10.5057 16.0668 9.62579 16.0834 8.50316C16.0834 8.23009 16.0334 7.95702 15.9168 7.71429L15.8668 7.6536L15.9335 7.72946C16.2501 8.07838 16.4168 8.5335 16.4168 8.98862C16.4001 10.0202 15.4668 10.8698 14.2835 10.8698H14.2335L12.4669 10.8546L11.4669 10.8394L8.71699 10.7939H8.65033C7.70036 10.7939 6.78372 11.1125 6.08374 11.7193C5.35042 12.3413 4.9671 13.1757 4.9671 14.1011C4.9671 14.6169 5.0671 15.1176 5.33376 15.5879L5.31709 15.603C4.85044 15.0417 4.63378 14.359 4.65044 13.6308C4.66711 12.7661 5.05043 11.9621 5.73375 11.3552C6.41706 10.7484 7.30037 10.4298 8.25034 10.445L11.1336 10.4905V9.9292L8.25034 9.88369H8.18368C7.10037 9.88369 6.06707 10.263 5.30043 10.9608C4.48378 11.6587 4.01713 12.6144 4.00046 13.6308C3.9838 14.9052 4.41712 16.0126 5.26709 16.756C6.1504 17.5904 7.4337 18 9.10032 18C10.2003 18 11.0669 17.6966 11.6836 17.0746C12.1336 16.574 12.4169 15.8609 12.4336 15.1024L12.4502 13.4943L11.4669 13.4791L11.4502 15.0872C11.4502 15.512 11.2836 15.9064 11.0336 16.2099C10.7336 16.5284 10.4003 16.6802 9.96696 16.6802C9.48364 16.6802 9.13365 16.574 8.90032 16.3919C8.63366 16.1947 8.50033 15.8913 8.517 15.4968C8.53367 14.6928 9.26698 14.0556 10.1503 14.0556H10.167H11.0836V13.4943L10.1336 13.4791H10.0836C8.85032 13.4791 7.85035 14.359 7.83369 15.4817C7.83369 15.7547 7.88368 16.0278 8.00035 16.2705L8.05035 16.3464L7.98368 16.2705C7.66702 15.9216 7.50036 15.4665 7.50036 15.0114C7.51703 13.9798 8.45033 13.1302 9.63363 13.1302H9.68363L11.4502 13.1454L12.4502 13.1606L15.2001 13.2061H15.2668C17.2667 13.2061 18.9334 11.7193 18.9667 9.88369C18.9667 9.36789 18.8667 8.86726 18.6 8.39697L18.6167 8.3818C19.0834 8.94311 19.3 9.62579 19.2834 10.354C19.2667 11.2187 18.8834 12.0228 18.2001 12.6296C17.5167 13.2364 16.6168 13.555 15.6835 13.5398L12.8002 13.4943V14.0556L15.6835 14.1011H15.7501C16.8501 14.1011 17.9667 13.7067 18.8 13.024ZM17.7334 8.15424C18.1334 8.65487 18.3334 9.24652 18.3167 9.86852C18.3167 11.3856 16.9334 12.6296 15.2168 12.6144H15.1668L12.4169 12.5689L11.4169 12.5537L9.6503 12.5386H9.6003C8.88366 12.5386 8.21701 12.7813 7.71702 13.2364C7.20037 13.6915 6.90038 14.3439 6.88371 14.981C6.88371 15.33 6.95038 15.6941 7.08371 15.9975L7.13371 16.1037L7.05037 15.9975C6.68372 15.5727 6.50039 15.0721 6.50039 14.5107C6.53372 13.2212 7.70036 12.1896 9.11698 12.1896H9.16698L11.0836 12.2048V11.6435L9.16698 11.6283H9.11698C7.36703 11.6283 5.93374 12.9178 5.91707 14.5107C5.91707 14.9355 6.01707 15.3603 6.21707 15.7699L6.28373 15.8913L6.2004 15.7699C5.80041 15.2693 5.60042 14.6776 5.61708 14.0556C5.63375 12.5234 7.01704 11.2794 8.70033 11.2794H8.75033L11.5169 11.3249L12.5002 11.3401H12.5336L14.2835 11.3552H14.3335C15.0501 11.3552 15.7168 11.1125 16.2168 10.6574C16.7334 10.2023 17.0334 9.54994 17.0501 8.91277C17.0501 8.56384 16.9834 8.19975 16.8501 7.89633L16.7834 7.79014L16.8668 7.89633C17.2334 8.32111 17.4167 8.82174 17.4167 9.38306C17.4167 10.0051 17.1167 10.5967 16.6168 11.0367C16.1334 11.4766 15.5001 11.7193 14.8002 11.7193H14.7502L12.8335 11.7042V12.2655L14.7502 12.2958H14.8002C15.6501 12.2958 16.4501 11.9924 17.0334 11.4614C17.6501 10.9305 18.0001 10.2023 18.0167 9.4134C18.0167 8.98862 17.9167 8.56384 17.7167 8.15424L17.6501 8.03287L17.7334 8.15424Z" fill="white"/>
</svg>
