<svg width="24" height="24" viewBox="0 0 24 24" fill="none" xmlns="http://www.w3.org/2000/svg">
<path d="M12 22C17.5228 22 22 17.5228 22 12C22 6.47715 17.5228 2 12 2C6.47715 2 2 6.47715 2 12C2 17.5228 6.47715 22 12 22Z" fill="url(#paint0_linear_6897_11558)"/>
<path d="M17.8327 12.0001L15.6731 11.834C13.7776 11.6882 12.2349 10.2287 12.095 8.33277C12.0396 7.58174 11.9993 6.81393 11.9993 6.16675L11.8456 8.16494C11.6943 10.1321 10.1313 11.6951 8.16421 11.8464L6.16602 12.0001L8.16421 12.1538C10.1313 12.3051 11.6943 13.8681 11.8456 15.8352L11.9993 17.8334L12.1531 15.8352C12.3044 13.8681 13.8674 12.3051 15.8345 12.1538L17.8327 12.0001Z" fill="white"/>
<path fill-rule="evenodd" clip-rule="evenodd" d="M11.9993 17.0001C15.221 17.0001 17.8327 16.2539 17.8327 15.3334C17.8327 14.4129 15.221 13.6667 11.9993 13.6667C8.77769 13.6667 6.16602 14.4129 6.16602 15.3334C6.16602 16.2539 8.77769 17.0001 11.9993 17.0001ZM11.9993 16C14.5307 16 16.5827 15.5337 16.5827 14.9584C16.5827 14.3831 14.5307 13.9167 11.9993 13.9167C9.46804 13.9167 7.41602 14.3831 7.41602 14.9584C7.41602 15.5337 9.46804 16 11.9993 16Z" fill="white"/>
<defs>
<linearGradient id="paint0_linear_6897_11558" x1="5.75" y1="3.66667" x2="17.4167" y2="20.3333" gradientUnits="userSpaceOnUse">
<stop stop-color="#C5ECFF"/>
<stop offset="0.516698" stop-color="#A0A7FF"/>
<stop offset="1" stop-color="#ED94FE"/>
</linearGradient>
</defs>
</svg>
