<svg width="24" height="24" viewBox="0 0 24 24" fill="none" xmlns="http://www.w3.org/2000/svg">
<path d="M12 22C17.5228 22 22 17.5228 22 12C22 6.47715 17.5228 2 12 2C6.47715 2 2 6.47715 2 12C2 17.5228 6.47715 22 12 22Z" fill="white"/>
<path fill-rule="evenodd" clip-rule="evenodd" d="M12 7.97897C9.7794 7.97897 7.97895 9.77913 7.97895 12C7.97895 14.2206 9.7794 16.0207 12 16.0207C13.2343 16.0207 14.3384 15.4644 15.076 14.589L18.1202 17.1513C16.6527 18.893 14.4558 20 12 20C7.58157 20 4 16.4182 4 12C4 7.58158 7.58157 4 12 4V7.97897ZM18.9126 16.0284L15.4742 14.0247C15.5916 13.8238 15.692 13.6119 15.7735 13.3908L19.5082 14.7673C19.346 15.2072 19.146 15.6288 18.9126 16.0284ZM16.0208 12H20C20 11.5261 19.9585 11.0619 19.8795 10.6106L15.9602 11.3017C15.9999 11.5285 16.0208 11.7618 16.0208 12ZM18.1495 6.8832L15.0908 9.42825C14.941 9.24837 14.7758 9.08193 14.5972 8.93065L17.1674 5.89327C17.5227 6.19423 17.8514 6.52539 18.1495 6.8832Z" fill="#6344DF"/>
</svg>
