<svg width="24" height="24" viewBox="0 0 24 24" fill="none" xmlns="http://www.w3.org/2000/svg">
<path d="M12 22C17.5228 22 22 17.5228 22 12C22 6.47715 17.5228 2 12 2C6.47715 2 2 6.47715 2 12C2 17.5228 6.47715 22 12 22Z" fill="black"/>
<path d="M19.4934 15.7059L14.6416 17.8511C14.4153 17.9492 14.1704 18 13.9226 18C13.6749 18 13.4299 17.9492 13.2037 17.8511L5.5335 14.5518C5.38195 14.4825 5.2538 14.3727 5.16405 14.2352C5.07429 14.0977 5.02663 13.9382 5.02663 13.7753C5.02663 13.6124 5.07429 13.4529 5.16405 13.3154C5.2538 13.1778 5.38195 13.068 5.5335 12.9987L8.62098 11.643L13.1728 13.6122C13.3991 13.7104 13.644 13.7612 13.8918 13.7612C14.1395 13.7612 14.3845 13.7104 14.6107 13.6122L16.4147 12.8143L19.5022 14.1571C19.6521 14.2277 19.7784 14.3382 19.8665 14.4757C19.9546 14.6132 20.0009 14.7722 20 14.9342C19.9991 15.0963 19.951 15.2547 19.8613 15.3913C19.7717 15.5279 19.6441 15.6369 19.4934 15.7059Z" fill="url(#paint0_linear_6920_12093)"/>
<path d="M5.5335 9.87112L13.1861 13.1832C13.4123 13.2814 13.6573 13.3322 13.905 13.3322C14.1527 13.3322 14.3977 13.2814 14.6239 13.1832L19.4757 11.0381C19.6273 10.9688 19.7554 10.859 19.8452 10.7215C19.9349 10.5839 19.9826 10.4244 19.9826 10.2615C19.9826 10.0986 19.9349 9.93913 19.8452 9.80162C19.7554 9.66411 19.6273 9.55429 19.4757 9.48499L11.929 6.15144C11.7032 6.05164 11.4581 6 11.2101 6C10.962 6 10.7169 6.05164 10.4911 6.15144L5.52908 8.29658C5.37145 8.36355 5.23738 8.47388 5.14337 8.61401C5.04937 8.75414 4.99953 8.91794 5 9.08526C5.00047 9.25258 5.05122 9.41611 5.14601 9.55574C5.24079 9.69537 5.37548 9.80499 5.5335 9.87112Z" fill="url(#paint1_linear_6920_12093)"/>
<defs>
<linearGradient id="paint0_linear_6920_12093" x1="7" y1="13.5" x2="14" y2="16" gradientUnits="userSpaceOnUse">
<stop stop-color="#F1C486"/>
<stop offset="1" stop-color="#DD3FA6"/>
</linearGradient>
<linearGradient id="paint1_linear_6920_12093" x1="7" y1="9" x2="20" y2="10.5" gradientUnits="userSpaceOnUse">
<stop stop-color="#64CBF9"/>
<stop offset="1" stop-color="#4C19E7"/>
</linearGradient>
</defs>
</svg>
