<svg width="24" height="24" viewBox="0 0 24 24" fill="none" xmlns="http://www.w3.org/2000/svg">
<path d="M12 22C17.5228 22 22 17.5228 22 12C22 6.47715 17.5228 2 12 2C6.47715 2 2 6.47715 2 12C2 17.5228 6.47715 22 12 22Z" fill="white"/>
<path fill-rule="evenodd" clip-rule="evenodd" d="M10.4671 6.53026L8.97279 8.04129V9.58261V11.0976H7.48646H6L7.48646 12.5964L8.97279 14.0686V15.5684V17.0681L10.4367 18.534L11.9005 20V17.0317V14.0635L13.3949 14.0633L14.8893 14.063L16.4446 12.5131L18 10.9634V9.54157V8.11968L16.4429 6.55991L14.8859 5H13.44H12L10.4671 6.53026ZM15 9.53418V11.0976L13.4559 11.0971H11.88V9.63414V7.92682H13.56H15V9.53418Z" fill="#AE4071"/>
</svg>
