<svg width="24" height="24" viewBox="0 0 24 24" fill="none" xmlns="http://www.w3.org/2000/svg">
<path d="M12 22C17.5228 22 22 17.5228 22 12C22 6.47715 17.5228 2 12 2C6.47715 2 2 6.47715 2 12C2 17.5228 6.47715 22 12 22Z" fill="#1C1C25"/>
<path d="M19.0004 17.1334V15.0815L15.504 11.5334H13.4004L19.0004 17.1334Z" fill="white"/>
<path d="M5 6.8667V8.91834L8.49497 12.4667H10.6L5 6.8667Z" fill="white"/>
<path d="M6.86621 5H8.73707L11.9721 8.49481L15.1781 5H17.1329L11.9724 10.6L6.86621 5Z" fill="white"/>
<path d="M6.86621 18.9999H8.73682L11.9718 15.5051L15.1779 18.9999H17.1329L11.9721 13.3999L6.86621 18.9999Z" fill="white"/>
<path d="M12.0332 13.0002C12.5672 13.0002 13 12.5674 13 12.0334C13 11.4995 12.5672 11.0667 12.0332 11.0667C11.4993 11.0667 11.0664 11.4995 11.0664 12.0334C11.0664 12.5674 11.4993 13.0002 12.0332 13.0002Z" fill="#D32D79"/>
</svg>
