<svg width="24" height="24" viewBox="0 0 24 24" fill="none" xmlns="http://www.w3.org/2000/svg">
<path d="M12.2815 0.00134509C7.57382 -0.0831218 3.54708 3.82163 3.43118 8.59401C3.3524 11.8331 4.99678 14.6875 7.50047 16.285C7.62 16.3612 7.77755 16.3163 7.84094 16.1886L9.79317 12.2297C10.0802 11.6476 10.0367 10.9572 9.68816 10.411C9.39026 9.94452 9.21908 9.38635 9.22545 8.78772C9.24083 7.24986 10.4479 5.96635 11.9628 5.88279C13.7131 5.78733 15.1483 7.26642 15.0134 9.04937C14.9056 10.4789 13.7683 11.632 12.3584 11.7468C12.3485 11.7468 12.3394 11.7486 12.3295 11.7486C11.6884 11.7945 11.117 12.1728 10.8291 12.7549L8.87593 16.7147C8.81343 16.8424 8.8723 16.9975 9.00357 17.048C9.98786 17.4318 11.059 17.6393 12.1783 17.6319C16.9366 17.6016 20.813 13.6491 20.8176 8.82534C20.8239 4.00617 17.0136 0.0867301 12.2815 0.00134509Z" fill="#8D809E"/>
<path d="M6.32695 23.5109C7.92774 23.5109 9.22545 22.1951 9.22545 20.572C9.22545 18.9488 7.92774 17.6331 6.32695 17.6331C4.72616 17.6331 3.42847 18.9488 3.42847 20.572C3.42847 22.1951 4.72616 23.5109 6.32695 23.5109Z" fill="#8D809E"/>
</svg>
