<svg width="24" height="24" viewBox="0 0 24 24" fill="none" xmlns="http://www.w3.org/2000/svg">
<path d="M12 22C17.5228 22 22 17.5228 22 12C22 6.47715 17.5228 2 12 2C6.47715 2 2 6.47715 2 12C2 17.5228 6.47715 22 12 22Z" fill="black"/>
<path fill-rule="evenodd" clip-rule="evenodd" d="M15.5999 6H8.40062H8.05558H6V10.8002V11.5666V11.9999H8.40062V11.5666V10.8002V8.40011H15.5999V6ZM18 8.40011H15.5999V12H8.40062V14.4001H15.5999V12H18V8.40011ZM6 14.4001H8.40062V15.6004H8.40013V18H6V15.6004V15.0003V14.4001Z" fill="#DAFE6F"/>
</svg>
