<svg width="24" height="24" viewBox="0 0 24 24" fill="none" xmlns="http://www.w3.org/2000/svg">
<path d="M12 22C17.5228 22 22 17.5228 22 12C22 6.47715 17.5228 2 12 2C6.47715 2 2 6.47715 2 12C2 17.5228 6.47715 22 12 22Z" fill="#181818"/>
<path fill-rule="evenodd" clip-rule="evenodd" d="M13.1646 8.52363C13.0856 7.80959 12.7067 6.97898 12.454 6.93526C12.3119 6.90611 12.0277 7.15384 11.7908 7.489C11.4276 7.92617 10.7328 9.33967 10.4328 10.2286C10.3854 10.3597 10.3065 10.52 10.2907 10.5637C10.2433 10.6657 10.2591 10.6803 10.5591 10.6949H10.5749C10.7644 10.6949 11.1276 10.6657 11.3487 10.6512C12.0908 10.6074 12.6593 10.3451 12.9751 9.92256C13.1172 9.74769 13.1646 9.63111 13.1962 9.26681V9.00451C13.1646 8.8005 13.1804 8.62563 13.1646 8.52363ZM11.7276 5.09916C11.9487 5.0263 12.0908 5.01173 12.2014 5.01173C12.3435 4.98259 12.5172 5.01173 12.754 5.05545C13.2278 5.12831 13.3225 5.14288 13.6383 5.34689C14.6174 6.06093 15.17 7.44529 15.0911 9.01908C15.0121 10.214 14.6331 10.9135 13.7331 11.5401C12.8962 12.1084 11.7908 12.3415 10.4486 12.225C10.0854 12.1812 9.78537 12.1958 9.738 12.225C9.59588 12.3853 9.35902 14.9645 9.37481 16.5966C9.37481 17.9373 9.32744 18.2578 9.10637 18.5347C8.91688 18.7824 8.74318 18.8844 8.41157 18.9573C8.07997 19.0447 7.90627 19.001 7.59045 18.797C7.27464 18.593 7.11673 18.287 7.03778 17.8498C7.00619 17.5584 6.9904 16.1012 7.00619 14.5565C7.00619 13.8716 7.62204 10.316 8.0168 8.59649C8.23788 7.6493 8.25367 7.489 8.1905 7.35785C8.06418 7.13927 8.1905 6.76039 8.52211 6.23579C8.7116 5.94435 8.90109 5.66748 8.98004 5.58005C9.12216 5.37604 9.48535 5.24489 9.76958 5.2886C10.0538 5.31775 10.3696 5.5509 10.3854 5.72577C10.417 5.84235 10.4644 5.8132 10.8434 5.5509C11.1276 5.33232 11.4118 5.1866 11.7276 5.09916ZM16.6386 11.7587C16.8123 11.6712 17.0018 11.6421 17.1913 11.6421C17.4755 11.6712 17.7913 11.8169 17.9018 12.0647C18.2808 12.7204 17.4913 13.5219 16.7491 13.1722C16.4807 13.041 16.2438 12.735 16.2438 12.4873C16.2596 12.2104 16.4333 11.9044 16.6386 11.7587Z" fill="white"/>
</svg>
