<svg width="24" height="24" viewBox="0 0 24 24" fill="none" xmlns="http://www.w3.org/2000/svg">
<path fill-rule="evenodd" clip-rule="evenodd" d="M22 12C22 17.5228 17.5228 22 12 22C6.47715 22 2 17.5228 2 12C2 6.47715 6.47715 2 12 2C17.5228 2 22 6.47715 22 12ZM5 17L5.00006 12.0518V7.02581L8.20694 8.62779L11.1354 10.1474L10.1617 10.6023L6.24198 8.65618L6.17988 11.9094L6.1992 15.3038L11.5864 12.6823L16.8548 10.0274V13.9883L15.3919 13.2524L13.9578 12.6086L9.55658 14.7125L5 17ZM10.0807 11.5231L14.2581 9.38898L19 7V12.0518L18.9999 16.9533L15.9451 15.4745L12.9032 13.945L14.021 13.4897L15.8529 14.4121L17.758 15.4233L17.7581 8.64809L12.5646 11.2771L7.0323 14.0825V11.937V9.9501L10.0807 11.5231ZM7.93553 12.536L9.10362 12.0714L7.93553 11.4604V12.536ZM14.8965 12.0714L16.0645 12.536V11.4231L14.8965 12.0714Z" fill="white"/>
</svg>
