<svg width="24" height="24" viewBox="0 0 24 24" fill="none" xmlns="http://www.w3.org/2000/svg">
<path d="M12 2C6.45455 2 2 6.45455 2 12C2 17.5455 6.45455 22 12 22C17.5455 22 22 17.5455 22 12C22 6.45455 17.5455 2 12 2Z" fill="#FF0066"/>
<path d="M16.5458 7.54532C17.1822 8.18168 17.1822 9.09078 16.5458 9.72714C15.9094 10.3635 12.5458 11.5453 12.5458 11.5453C12.5458 11.5453 13.8185 8.09078 14.364 7.54532C14.9094 6.99987 15.9094 6.90896 16.5458 7.54532ZM12.0004 3.63623C12.8185 3.63623 13.5458 4.3635 13.5458 5.18168C13.5458 6.09078 12.0004 11.0908 12.0004 11.0908C12.0004 11.0908 10.4549 6.09078 10.4549 5.18168C10.4549 4.3635 11.1822 3.63623 12.0004 3.63623ZM7.54581 7.54532C8.18217 6.90896 9.09126 6.90896 9.72763 7.54532C10.364 8.18168 11.5458 11.5453 11.5458 11.5453C11.5458 11.5453 8.09126 10.2726 7.54581 9.72714C6.90945 9.09078 6.90945 8.09078 7.54581 7.54532ZM3.63672 11.9999C3.63672 11.1817 4.36399 10.4544 5.18217 10.4544C6.00036 10.4544 11.0913 11.9999 11.0913 11.9999C11.0913 11.9999 6.09126 13.5453 5.18217 13.5453C4.27308 13.5453 3.63672 12.818 3.63672 11.9999ZM7.54581 16.4544C6.90945 15.818 6.90945 14.909 7.54581 14.2726C8.18217 13.6362 11.5458 12.4544 11.5458 12.4544C11.5458 12.4544 10.2731 15.909 9.72763 16.4544C9.09126 17.0908 8.18217 17.0908 7.54581 16.4544ZM12.0004 20.3635C11.1822 20.3635 10.4549 19.6362 10.4549 18.818C10.4549 17.9999 12.0004 12.909 12.0004 12.909C12.0004 12.909 13.5458 17.909 13.5458 18.818C13.5458 19.7271 12.8185 20.3635 12.0004 20.3635ZM16.5458 16.4544C15.9094 17.0908 15.0004 17.0908 14.364 16.4544C13.7276 15.818 12.5458 12.4544 12.5458 12.4544C12.5458 12.4544 16.0004 13.7271 16.5458 14.2726C17.0913 14.909 17.0913 15.909 16.5458 16.4544ZM18.8185 13.5453C17.9094 13.5453 12.9094 11.9999 12.9094 11.9999C12.9094 11.9999 17.9094 10.4544 18.8185 10.4544C19.6367 10.4544 20.364 11.1817 20.364 11.9999C20.364 12.818 19.6367 13.5453 18.8185 13.5453Z" fill="white"/>
</svg>
