<svg width="24" height="24" viewBox="0 0 24 24" fill="none" xmlns="http://www.w3.org/2000/svg">
<path d="M12 22C17.5228 22 22 17.5228 22 12C22 6.47715 17.5228 2 12 2C6.47715 2 2 6.47715 2 12C2 17.5228 6.47715 22 12 22Z" fill="white"/>
<path d="M17.3481 17.3833C17.3772 17.4563 17.3918 17.5292 17.3772 17.6021C17.3627 17.6751 17.3335 17.748 17.2897 17.8064L16.8085 18.4773C16.7648 18.5357 16.7065 18.5794 16.6335 18.594L15.7878 18.8274C15.7148 18.842 15.6419 18.842 15.569 18.8274C15.4961 18.7983 15.4378 18.7691 15.3795 18.7107L12.1859 15.137L12.1567 15.1078V15.0349C12.1567 15.0057 12.1567 14.9911 12.1713 14.9765L12.1859 14.9473L12.2151 14.9328L12.2442 14.9182L13.9358 14.466C13.965 14.4514 14.0087 14.4368 14.0233 14.4076L15.1024 13.0365L15.1316 12.9927H15.2774L15.3065 13.0511L17.3481 17.3833ZM18.9667 11.3007C18.8063 9.65236 18.0626 8.12075 16.8669 6.9684C15.6711 5.81605 14.1108 5.13047 12.463 5.01378C10.8152 4.91167 9.16736 5.37845 7.84036 6.37034C6.51336 7.34766 5.5655 8.77716 5.18636 10.3817C4.80722 11.9862 5.01137 13.6929 5.75508 15.1662C6.49878 16.6394 7.75286 17.8064 9.28401 18.4482C10.8152 19.09 12.5213 19.1775 14.0962 18.6816C14.14 18.667 14.1691 18.6524 14.1983 18.6086C14.242 18.5649 14.2712 18.5065 14.2712 18.4336C14.2712 18.3752 14.242 18.3023 14.1983 18.2585L12.7255 16.6102C12.6817 16.5665 12.6234 16.5227 12.5651 16.5081C12.5067 16.479 12.4484 16.479 12.3755 16.479C12.3172 16.479 12.2442 16.479 12.1859 16.4935C12.1276 16.4935 12.0693 16.5081 12.0109 16.5081C11.0631 16.5081 10.1298 16.2164 9.37151 15.6475C8.59864 15.0932 8.02993 14.3055 7.73828 13.4012C7.44663 12.4968 7.44663 11.5195 7.73828 10.6151C8.02993 9.71071 8.59864 8.92302 9.37151 8.36873C10.1444 7.81443 11.0631 7.50811 12.0109 7.50811C12.9588 7.50811 13.892 7.81443 14.6503 8.36873C15.4232 8.92302 15.9919 9.7253 16.2836 10.6151C16.5752 11.5195 16.5752 12.4968 16.2836 13.4012C16.2544 13.5033 16.2544 13.6054 16.2836 13.6929L17.3189 15.9392C17.3335 15.983 17.3627 16.0122 17.4064 16.0414C17.4502 16.0705 17.4793 16.0851 17.5376 16.0851C17.5814 16.0851 17.6251 16.0851 17.6689 16.0559C17.7126 16.0414 17.7418 16.0122 17.771 15.9684C18.7042 14.6119 19.1271 12.949 18.9667 11.3007ZM12.2005 14.6119L13.7171 14.218C13.79 14.2034 13.8629 14.1451 13.9212 14.0867L14.8837 12.8469L14.8982 12.8323V12.701L14.8837 12.6281H14.7962L12.9004 12.3509C12.813 12.3363 12.74 12.3509 12.6671 12.3947C12.638 12.4093 12.5942 12.4384 12.5796 12.4822C12.5505 12.5114 12.5359 12.5551 12.5359 12.5989L12.0547 14.4368V14.5097L12.0693 14.5973L12.2005 14.6119Z" fill="#EC5B6D"/>
</svg>
