<svg width="24" height="24" viewBox="0 0 24 24" fill="none" xmlns="http://www.w3.org/2000/svg">
<path fill-rule="evenodd" clip-rule="evenodd" d="M22 12C22 17.5228 17.5228 22 12 22C6.47715 22 2 17.5228 2 12C2 6.47715 6.47715 2 12 2C17.5228 2 22 6.47715 22 12ZM8.74895 9.72897C8.74895 9.33645 8.39749 9 7.98745 9C7.57741 9 7.28452 9.33645 7.28452 9.72897C7.28452 10.0654 7.46025 10.3458 7.69456 10.4019V14.1589H6.23013V10.4019C6.52301 10.2897 6.75732 10.0654 6.75732 9.72897C6.75732 9.33645 6.40586 9 5.99582 9C5.58577 9 5.23431 9.33645 5.23431 9.72897C5.23431 10.0654 5.46862 10.3458 5.70293 10.4019V14.1589H5.23431C5.11715 14.1589 5 14.271 5 14.3832C5 14.4953 5.11715 14.6075 5.23431 14.6075H8.22176H8.28033C9.97908 14.6075 11.4435 13.9346 12.0879 12.8131H12.205C12.6736 12.8131 13.0837 12.4206 13.0837 11.972C13.0837 11.7477 12.9665 11.5234 12.7908 11.3551C13.0837 10.9626 13.4937 10.6262 13.9623 10.3458V12.9813C13.6695 13.0935 13.4351 13.3178 13.4351 13.6542C13.4351 14.0467 13.7866 14.3832 14.1967 14.3832C14.6067 14.3832 14.9582 14.0467 14.9582 13.6542C14.9582 13.3738 14.7238 13.0935 14.431 12.9813V10.1215C14.841 9.95327 15.3682 9.84112 15.8954 9.84112V13.5981C15.6025 13.7103 15.3682 13.9346 15.3682 14.271C15.3682 14.6636 15.7197 15 16.1297 15C16.5397 15 16.8912 14.6636 16.8912 14.271C16.8912 13.9907 16.6569 13.7103 16.364 13.5981V9.84112H17.8285V13.5981C17.5356 13.7103 17.3013 13.9346 17.3013 14.271C17.3013 14.6636 17.6527 15 18.0628 15C18.4728 15 18.8243 14.6636 18.8243 14.271C18.8243 13.9907 18.59 13.7103 18.2971 13.5981V9.84112H18.7657C18.8828 9.84112 19 9.72897 19 9.61682C19 9.50467 18.8828 9.39252 18.7657 9.39252H16.0126H15.954C14.2552 9.39252 12.7908 10.0654 12.1464 11.1869H12.0293C11.5607 11.1869 11.1506 11.5794 11.1506 12.028C11.1506 12.2523 11.2678 12.4766 11.4435 12.6449C11.1506 13.0374 10.7406 13.3738 10.272 13.6542V11.0187C10.5649 10.9065 10.7992 10.6822 10.7992 10.3458C10.7992 9.95327 10.4477 9.61682 10.0377 9.61682C9.62762 9.61682 9.27615 9.95327 9.27615 10.3458C9.27615 10.6822 9.45188 10.9065 9.68619 11.0187V13.8785C9.27615 14.0467 8.74895 14.1589 8.22176 14.1589V10.4019C8.51464 10.2897 8.74895 10.0654 8.74895 9.72897Z" fill="white"/>
</svg>
