<svg width="24" height="24" viewBox="0 0 24 24" fill="none" xmlns="http://www.w3.org/2000/svg">
<path d="M22 12C22 6.47715 17.5228 2 12 2C6.47715 2 2 6.47715 2 12C2 17.5228 6.47715 22 12 22C17.5228 22 22 17.5228 22 12Z" fill="white"/>
<path d="M11.9995 4.99998L9.30469 7.69482L11.9995 10.3897L14.6944 7.69482L11.9995 4.99998Z" fill="#002060"/>
<path d="M11.9995 13.6103L9.30469 16.3052L11.9995 19L14.6944 16.3052L11.9995 13.6103Z" fill="#002060"/>
<path d="M16.3052 9.3264L13.6104 12.0212L16.3052 14.7161L19 12.0212L16.3052 9.3264Z" fill="#002060"/>
<path d="M12.7939 12.0186L14.6917 10.1208L16.5895 12.0186L14.6917 13.9164L12.7939 12.0186Z" fill="#4E87F7"/>
<path d="M7.69484 9.3264L5 12.0212L7.69484 14.7161L10.3897 12.0212L7.69484 9.3264Z" fill="#002060"/>
<path d="M7.4043 12.0186L9.30208 10.1208L11.1999 12.0186L9.30208 13.9164L7.4043 12.0186Z" fill="#4E87F7"/>
<path d="M10.0996 9.32405L11.9974 7.42627L13.8952 9.32405L11.9974 11.2218L10.0996 9.32405Z" fill="#4E87F7"/>
<path d="M10.0996 14.7132L11.9974 12.8154L13.8952 14.7132L11.9974 16.611L10.0996 14.7132Z" fill="#4E87F7"/>
</svg>
