<svg width="24" height="24" viewBox="0 0 24 24" fill="none" xmlns="http://www.w3.org/2000/svg">
<path d="M10 21C15.5228 21 20 16.5228 20 11C20 5.47715 15.5228 1 10 1C4.47715 1 0 5.47715 0 11C0 16.5228 4.47715 21 10 21Z" fill="#392B73"/>
<path d="M14.0496 12.8557H13.3874L13.3441 12.7667C13.3441 12.7667 12.9841 11.958 12.0914 11.7502C12.9481 11.4905 13.5314 10.9266 13.8193 10.2737H14.4816C14.6121 9.98021 14.6809 9.66161 14.6832 9.33882C14.6856 9.02457 14.6543 8.71109 14.5896 8.40395C14.3089 7.10551 13.3801 6.1929 11.5515 6.01483H11.5371L11.3426 6H5.66236V10.2811H5V12.8631H5.66236V15H8.16774V13.1599V12.8557H10.0612C10.8819 12.8557 11.1411 13.3528 11.6666 14.5845C11.7243 14.7081 11.7819 14.8417 11.8394 14.9851H15C14.6689 14.1467 14.1936 13.1525 14.0496 12.8557ZM8.16774 8.40395H10.7019C11.2203 8.40395 11.7026 8.80464 11.7026 9.33882C11.7026 9.87299 11.2203 10.2737 10.7019 10.2737H8.16774V8.40395Z" fill="#D83F89"/>
<path d="M11.5602 5V4.44606H12V2H10.4398V4.43886H10V4.94245H10.9006C11.121 4.94638 11.3412 4.96558 11.5602 5Z" fill="#D83F89"/>
<path d="M9.34036 5V4.67136H10V4H7.65971V4.66667H7V5H8.7199H9.34036Z" fill="#D83F89"/>
<path d="M9 11H10V10H9V11Z" fill="#D83F89"/>
<path d="M10.9888 15.1121L10.927 14.9052C10.4326 13.1897 10.3371 13 9.95505 13H8.87639V15.4828H8V16.0603H9.67418V13.8794H10.3259V18H12V15.4742H11.0899L10.9888 15.1121Z" fill="#D83F89"/>
</svg>
