<svg width="24" height="24" viewBox="0 0 24 24" fill="none" xmlns="http://www.w3.org/2000/svg">
<path fill-rule="evenodd" clip-rule="evenodd" d="M22 12C22 17.5228 17.5228 22 12 22C6.47715 22 2 17.5228 2 12C2 6.47715 6.47715 2 12 2C17.5228 2 22 6.47715 22 12ZM12.534 6H8V18H10.5908V14.1848H12.4707L14.9984 18H18L15.0458 13.7445C15.7304 13.4511 16.2622 13.0163 16.6414 12.4402C17.0311 11.8533 17.2259 11.125 17.2259 10.2554V9.99457C17.2259 8.66847 16.8047 7.67391 15.9621 7.01087C15.1195 6.33696 13.9768 6 12.534 6ZM10.5908 8.2663H12.7393C13.2975 8.2663 13.7452 8.44565 14.0822 8.80435C14.4297 9.15218 14.6035 9.6087 14.6035 10.1739C14.6035 10.75 14.4297 11.2119 14.0822 11.5598C13.7452 11.9076 13.2975 12.0815 12.7393 12.0815H10.5908V8.2663Z" fill="white"/>
</svg>
