<svg width="24" height="24" viewBox="0 0 24 24" fill="none" xmlns="http://www.w3.org/2000/svg">
<path d="M12 22C17.5228 22 22 17.5228 22 12C22 6.47715 17.5228 2 12 2C6.47715 2 2 6.47715 2 12C2 17.5228 6.47715 22 12 22Z" fill="white"/>
<path d="M15.291 7.35183C14.1328 7.70688 12.4239 8.4495 10.8585 9.97172C9.28533 11.565 10.3533 12.9859 10.3644 13C10.3644 13 9.78784 11.8558 11.1822 10.4461C11.2 10.4294 12.98 8.77517 15.5687 7.98165C15.8987 7.88046 16.2324 7.79624 16.5604 7.73135L16.5832 7.72687L17 7L16.8977 7.00777C16.8912 7.00837 16.2408 7.06066 15.291 7.35183Z" fill="#392B73"/>
<path d="M17.9076 5.41209C17.612 5.18884 17.3167 5.01218 17.3137 5.01042L17.2959 5L17.275 5.00222C17.267 5.00315 16.4703 5.09109 15.3732 5.37156C13.4101 5.8732 10.77 6.90207 9.34045 8.95331C8.6614 9.88511 9.20793 11 9.20793 11L9.19145 10.7162C9.18966 10.6862 9.09588 7.68028 15.9631 5.92492C16.5642 5.77124 17.2098 5.62966 17.8822 5.50372L18 5.48172L17.9076 5.41209Z" fill="#392B73"/>
<path d="M17.8932 6.00962C17.8843 6.01045 16.975 6.09576 15.7083 6.41382C14.3676 6.75059 12.4155 7.40359 10.7297 8.60157C9.73577 9.28234 9.10666 10.1036 9.00367 10.855C8.95315 11.2217 9.4406 12 9.4406 12L9.33812 11.7235C9.33344 11.7109 8.89785 10.4517 11.1052 8.99057C12.3421 8.1717 13.631 7.61127 15.1612 7.227C15.9501 7.02887 16.7061 6.89872 17.5417 6.76104L17.5711 6.75619L17.5839 6.73218C17.647 6.61285 17.948 6.09031 17.9511 6.08508L18 6L17.8932 6.00962Z" fill="#392B73"/>
<path d="M8.61075 9.66162C8.69515 8.4071 9.72231 7.24797 11.6661 6.21531C12.6904 5.62379 13.8354 5.15905 15.0691 4.83393C16.1155 4.55818 17 4.47585 17 4.47585L16.2887 4C16.2822 4.00072 15.6265 4.07524 14.6896 4.32215C8.68186 5.90517 7.93736 8.63265 8.00382 9.72905C8.12019 11.6405 10.5538 13 10.5538 13C10.5538 13 8.48516 11.5308 8.61075 9.66162Z" fill="#392B73"/>
<path d="M8.70896 15.6481C9.86713 15.2931 11.5761 14.5505 13.1415 13.0283C14.7146 11.4351 13.6467 10.0141 13.6357 10C13.6357 10 14.2122 11.1442 12.8177 12.554C12.8001 12.5706 11.02 14.2248 8.43132 15.0183C8.10124 15.1195 7.76757 15.2038 7.43955 15.2686L7.41676 15.2731L7 16L7.1023 15.9922C7.10879 15.9916 7.75919 15.9394 8.70896 15.6481Z" fill="#392B73"/>
<path d="M7.0821 17.5879C7.34487 17.8111 7.60734 17.9878 7.60997 17.9896L7.62582 18L7.64445 17.9978C7.65151 17.9969 8.35966 17.9089 9.33494 17.6284C11.0799 17.1268 13.4266 16.0979 14.6974 14.0467C15.301 13.1149 14.8151 12 14.8151 12L14.8298 12.2838C14.8314 12.3138 14.9148 15.3197 8.81054 17.0751C8.27621 17.2287 7.70237 17.3703 7.10464 17.4962L7 17.5183L7.0821 17.5879Z" fill="#392B73"/>
<path d="M6.10675 16.9904C6.11568 16.9896 7.02495 16.9042 8.29172 16.5862C9.63242 16.2494 11.5846 15.5964 13.2702 14.3984C14.2642 13.7177 14.8933 12.8964 14.9963 12.145C15.0468 11.7783 14.5594 11 14.5594 11L14.6619 11.2764C14.6666 11.289 15.1022 12.5483 12.8948 14.0094C11.658 14.8283 10.369 15.3887 8.83873 15.773C8.04982 15.9711 7.29391 16.1013 6.45829 16.239L6.42886 16.2438L6.4161 16.2678C6.35299 16.3872 6.05198 16.9097 6.04883 16.915L6 17L6.10675 16.9904Z" fill="#392B73"/>
<path d="M15.4571 13.3383C15.3821 14.5929 14.4691 15.752 12.7413 16.7847C11.8308 17.3762 10.8131 17.841 9.71635 18.1661C8.78623 18.4418 8 18.5241 8 18.5241L8.63229 19C8.63811 18.9993 9.22092 18.9248 10.0537 18.6778C15.3939 17.0948 16.0557 14.3673 15.9966 13.2709C15.8932 11.3594 13.73 10 13.73 10C13.73 10 15.5688 11.4691 15.4571 13.3383Z" fill="#392B73"/>
</svg>
