<svg width="24" height="24" viewBox="0 0 24 24" fill="none" xmlns="http://www.w3.org/2000/svg">
<g clip-path="url(#clip0_1412_129)">
<path d="M17.5729 2.11144C16.9483 2.729 16.3761 3.39834 15.8674 4.11205L15.7066 4.06028C14.779 3.76074 13.8178 3.57584 12.8492 3.51298C12.5574 3.49079 11.4691 3.49079 11.1138 3.51298C10.0404 3.58324 9.21757 3.74225 8.28255 4.06398C8.24515 4.07877 8.21149 4.08986 8.17783 4.10096C7.65048 3.39094 7.06329 2.7253 6.41626 2.11513C9.52051 0.543486 13.1521 0.354888 16.4022 1.59372C16.7501 1.72315 17.0904 1.87476 17.4233 2.03748L17.5729 2.11144Z" fill="#F00500"/>
<path d="M23.3625 16.1379C22.8912 17.4655 22.1844 18.6969 21.268 19.7694C20.7706 20.3463 20.2208 20.8751 19.6299 21.3558C18.2461 22.4578 16.6304 23.2455 14.9062 23.6597C12.9988 24.1145 11.009 24.1145 9.10161 23.6597C7.3737 23.2455 5.76173 22.4578 4.37791 21.3558C3.78698 20.8751 3.23719 20.3463 2.73976 19.7694C0.10301 16.6889 -0.697364 12.4584 0.645319 8.6458C0.899644 7.93948 1.21755 7.25905 1.59904 6.6119C1.77482 6.31606 1.99174 5.98324 2.09647 5.84641C2.45551 7.37368 2.89684 8.71606 3.0614 9.20049C3.05018 9.22638 3.03522 9.25596 3.02026 9.28185C2.14883 11.0273 1.67758 12.7099 1.56538 14.4997C1.56538 14.5219 1.56164 14.5478 1.56164 14.57C1.53171 15.1062 1.54668 15.3614 1.63644 15.6979C1.91694 16.7518 2.7809 17.913 4.1348 19.052C6.35266 20.9157 9.35967 22.2618 11.6374 22.4171C14.0123 22.5762 17.5168 21.2042 19.8506 19.1999C20.2171 18.8782 20.5612 18.5379 20.8828 18.1755C21.1147 17.9093 21.4588 17.4507 21.4326 17.4507C21.4251 17.4507 21.4326 17.4433 21.4476 17.4359C21.4588 17.4285 21.47 17.4174 21.4625 17.41C21.4588 17.4064 21.4663 17.3953 21.4775 17.3916C21.4887 17.3879 21.4962 17.3805 21.4924 17.3731C21.4887 17.3657 21.4924 17.3583 21.5074 17.3546C21.5186 17.3509 21.5224 17.3398 21.5186 17.3324C21.5149 17.325 21.5186 17.3176 21.5261 17.3176C21.5336 17.3176 21.5411 17.3065 21.5411 17.2991C21.5411 17.2917 21.5485 17.2806 21.556 17.2806C21.5635 17.2806 21.571 17.2732 21.571 17.2658C21.5822 17.2362 21.6009 17.2067 21.6196 17.1808C21.6757 17.0957 21.9001 16.7 21.93 16.6335C22.1432 16.1564 22.2779 15.7312 22.3414 15.3059C22.3714 15.1025 22.3901 14.729 22.3751 14.6402C22.3714 14.6255 22.3714 14.5996 22.3676 14.5589C22.3601 14.4849 22.3564 14.374 22.3489 14.2631C22.3414 14.0966 22.3265 13.8637 22.3153 13.749C22.1544 12.0701 21.7206 10.6982 20.8978 9.24487C20.8641 9.1894 20.8342 9.13393 20.8155 9.08955C20.808 9.07846 20.8043 9.06737 20.8005 9.05997C20.9165 8.71606 21.3915 7.27754 21.7692 5.63193L21.7767 5.63932L21.8328 5.71328C21.93 5.84271 22.1881 6.22731 22.304 6.41221C22.8314 7.26274 23.2428 8.17615 23.5345 9.13023C24.2115 11.4267 24.1554 13.8748 23.3625 16.1379Z" fill="#F00500"/>
<path d="M18.5079 11.7188C18.4967 11.778 18.3209 11.9555 18.1451 12.0849C17.629 12.4584 16.7052 12.8061 15.7664 12.9725C15.2316 13.0686 14.6968 13.0834 14.5359 13.0057C14.4312 12.954 14.4163 12.9133 14.4537 12.7802C14.5322 12.5028 14.7865 12.1996 15.183 11.9148C15.3849 11.7706 16.204 11.2788 16.5855 11.0717C17.2138 10.7315 17.7225 10.5281 18.0666 10.48C18.175 10.4652 18.3059 10.4615 18.3471 10.48C18.4144 10.5059 18.4892 10.7019 18.5191 10.9386C18.5341 11.0643 18.5266 11.619 18.5079 11.7188Z" fill="black"/>
<path d="M9.69628 12.9429C9.67384 12.9872 9.56164 13.0353 9.43448 13.0538C9.30731 13.0723 8.91835 13.0612 8.69769 13.0353C7.90479 12.9318 7.06328 12.6914 6.44991 12.3956C6.10582 12.2292 5.85897 12.0627 5.67571 11.8815L5.57099 11.7743L5.55977 11.6338C5.54107 11.3897 5.54481 11.0051 5.57473 10.8683C5.59343 10.7537 5.63457 10.6427 5.69067 10.5429C5.72059 10.5059 5.72059 10.5059 5.85524 10.5059C6.0198 10.5059 6.15818 10.5318 6.38258 10.602C6.84261 10.7426 7.52705 11.0828 8.36108 11.5783C9.04925 11.9851 9.30732 12.1848 9.50554 12.4584C9.64018 12.6285 9.72994 12.8689 9.69628 12.9429Z" fill="black"/>
<path d="M14.9922 18.0905C14.9922 18.1016 14.9474 18.2791 14.8913 18.4899C14.8352 18.7007 14.7903 18.8708 14.7903 18.8782C14.7491 18.8819 14.7117 18.8856 14.6706 18.8819H14.5509L14.3863 19.2665C14.2966 19.4772 14.2143 19.6732 14.2031 19.7028L14.1806 19.7546L14.1021 19.6289L14.0236 19.5031V18.4788L13.9936 18.4862C13.9301 18.501 13.4775 18.5601 13.2793 18.5786C12.4602 18.66 11.6374 18.6415 10.8221 18.5269C10.6912 18.5084 10.579 18.4936 10.5752 18.4973C10.5715 18.501 10.5752 18.7376 10.5827 19.0298L10.5939 19.5549L10.5303 19.651C10.4967 19.7028 10.463 19.7472 10.463 19.7509C10.4518 19.762 10.4144 19.7028 10.3284 19.5327C10.2349 19.3552 10.1676 19.1666 10.1189 18.9706L10.0927 18.8634L9.97681 18.8708L9.86087 18.8819L9.83094 18.745C9.81598 18.6711 9.79728 18.5564 9.7898 18.4936L9.77859 18.3752L9.68134 18.2902C9.62524 18.2421 9.56914 18.194 9.55792 18.1866C9.53922 18.1718 9.53174 18.146 9.53174 18.1238V18.0794L9.99925 18.0831L10.4668 18.0868L10.4817 18.1349L10.4967 18.1829L10.6575 18.1903C10.7473 18.194 11.0315 18.2014 11.2858 18.2088L11.7533 18.2199L11.873 18.035L11.9964 17.8501H12.1535L12.1498 17.4655L12.146 17.0809L11.9403 16.9922C11.2783 16.7037 10.8894 16.3746 10.7435 15.9752C10.7136 15.8939 10.7136 15.8643 10.7061 15.4945C10.7024 15.1284 10.7024 15.0951 10.7286 15.0138C10.7809 14.8289 10.9268 14.6846 11.1138 14.6366C11.1774 14.6181 11.3457 14.6181 12.2283 14.6181L13.2681 14.6218L13.384 14.6772C13.5224 14.7438 13.586 14.7919 13.6645 14.8954C13.7543 15.0138 13.7805 15.1062 13.7805 15.3318C13.7805 15.6535 13.758 15.9309 13.7244 16.0418C13.6757 16.1934 13.6009 16.3376 13.5074 16.4671C13.3204 16.7037 12.9801 16.9404 12.6697 17.0477L12.5799 17.0809L12.5836 17.4692L12.5874 17.8575L12.6697 17.8649L12.7519 17.8723L12.8641 18.0387L12.9726 18.2051H13.4738C13.7505 18.2051 13.9936 18.2088 14.0161 18.2125C14.0535 18.2199 14.061 18.2162 14.0984 18.1534L14.1432 18.0868H14.5733C14.895 18.072 14.9922 18.0794 14.9922 18.0905Z" fill="black"/>
<path d="M13.0175 19.1518C12.9465 19.1925 12.8978 19.211 12.8866 19.2036C12.8754 19.1999 12.823 19.1555 12.7669 19.1148L12.666 19.0335L12.5612 19.1444C12.3331 19.3885 12.3256 19.3996 12.2583 19.4033C12.1536 19.4144 12.1311 19.3959 12.004 19.2073C11.9366 19.1111 11.8843 19.0298 11.8843 19.0298C11.8843 19.0298 11.8357 19.0224 11.7796 19.0187L11.6748 19.0076L11.6262 19.1074L11.5776 19.2073L11.4916 19.1814C11.4243 19.1592 11.3569 19.1333 11.2934 19.1037L11.1812 19.0482V18.8375L12.176 18.8412L13.1709 18.8449L13.1746 18.9447C13.1783 19.063 13.1821 19.0593 13.0175 19.1518Z" fill="black"/>
<path d="M22.3676 14.6402C22.3639 14.6254 22.3639 14.5996 22.3601 14.5589C21.4625 14.4627 18.9006 14.4036 16.5219 16.345C16.5219 16.345 15.7552 12.8689 12.1647 12.8689C8.57423 12.8689 7.24277 16.345 7.24277 16.345C5.23062 14.2039 2.53777 14.3592 1.56535 14.4997C1.56535 14.5219 1.56161 14.5478 1.56161 14.57C1.53169 15.1062 1.54665 15.3613 1.63641 15.6979C1.91692 16.7518 2.78087 17.913 4.13478 19.0519C6.35264 20.9157 9.35965 22.2618 11.6373 22.4171C14.0123 22.5761 17.5167 21.2042 19.8505 19.1999C20.2171 18.8781 20.5611 18.5379 20.8828 18.1755C21.1147 17.9093 21.4588 17.4507 21.4326 17.4507C21.4251 17.4507 21.4326 17.4433 21.4475 17.4359C21.4588 17.4285 21.47 17.4174 21.4625 17.41C21.4588 17.4063 21.4662 17.3952 21.4775 17.3915C21.4887 17.3878 21.4962 17.3805 21.4924 17.3731C21.4887 17.3657 21.4924 17.3583 21.5074 17.3546C21.5186 17.3509 21.5223 17.3398 21.5186 17.3324C21.5149 17.325 21.5186 17.3176 21.5261 17.3176C21.5336 17.3176 21.541 17.3065 21.541 17.2991C21.541 17.2917 21.5485 17.2806 21.556 17.2806C21.5635 17.2806 21.571 17.2732 21.571 17.2658C21.5822 17.2362 21.6009 17.2066 21.6196 17.1808C21.6757 17.0957 21.9001 16.7 21.93 16.6335C22.1432 16.1564 22.2778 15.7311 22.3414 15.3059C22.3639 15.1025 22.3826 14.729 22.3676 14.6402ZM13.0174 19.1518C12.9464 19.1925 12.8978 19.211 12.8865 19.2036C12.8753 19.1999 12.8229 19.1555 12.7668 19.1148L12.6659 19.0335L12.5611 19.1444C12.333 19.3885 12.3255 19.3996 12.2582 19.4033C12.1535 19.4144 12.131 19.3959 12.0039 19.2073C11.9366 19.1111 11.8842 19.0298 11.8842 19.0298C11.8842 19.0298 11.8356 19.0224 11.7795 19.0187L11.6747 19.0076L11.6261 19.1074L11.5775 19.2073L11.4915 19.1814C11.4242 19.1592 11.3568 19.1333 11.2933 19.1037L11.1811 19.0482V18.8375L12.1759 18.8412L13.1708 18.8449L13.1745 18.9447C13.1783 19.063 13.182 19.0593 13.0174 19.1518ZM14.8875 18.4862C14.8314 18.6969 14.7865 18.867 14.7865 18.8744C14.7453 18.8781 14.7079 18.8818 14.6668 18.8781H14.5471L14.3863 19.2664C14.2965 19.4772 14.2143 19.6732 14.203 19.7028L14.1806 19.7546L14.1021 19.6288L14.0235 19.5031V18.4788L13.9936 18.4862C13.93 18.5009 13.4775 18.5601 13.2792 18.5786C12.4602 18.66 11.6373 18.6415 10.822 18.5268C10.6911 18.5083 10.5789 18.4936 10.5752 18.4972C10.5714 18.5009 10.5752 18.7376 10.5827 19.0298L10.5939 19.5549L10.5303 19.651C10.4966 19.7028 10.463 19.7472 10.463 19.7509C10.4517 19.762 10.4143 19.7028 10.3283 19.5327C10.2348 19.3552 10.1675 19.1666 10.1189 18.9706L10.0927 18.8633L9.97676 18.8707L9.86082 18.8818L9.8309 18.745C9.81594 18.6711 9.79724 18.5564 9.78976 18.4935L9.77854 18.3752L9.68129 18.2902C9.62519 18.2421 9.56909 18.194 9.55787 18.1866C9.53917 18.1718 9.53169 18.1459 9.53169 18.1237V18.0794L9.9992 18.0831L10.4667 18.0868L10.4817 18.1348L10.4966 18.1829L10.6575 18.1903C10.7472 18.194 11.0315 18.2014 11.2858 18.2088L11.7533 18.2199L11.873 18.035L11.9964 17.8501H12.1535L12.1497 17.4655L12.146 17.0809L11.9403 16.9922C11.2783 16.7037 10.8893 16.3746 10.7435 15.9752C10.7136 15.8939 10.7136 15.8643 10.7061 15.4945C10.7023 15.1284 10.7023 15.0951 10.7285 15.0137C10.7809 14.8288 10.9267 14.6846 11.1137 14.6365C11.1773 14.618 11.3456 14.618 12.2283 14.618L13.268 14.6217L13.384 14.6772C13.5223 14.7438 13.5859 14.7919 13.6645 14.8954C13.7542 15.0137 13.7804 15.1062 13.7804 15.3318C13.7804 15.6535 13.758 15.9308 13.7243 16.0418C13.6757 16.1934 13.6009 16.3376 13.5074 16.467C13.3204 16.7037 12.98 16.9404 12.6696 17.0476L12.5798 17.0809L12.5836 17.4692L12.5873 17.8575L12.6696 17.8649L12.7519 17.8723L12.8641 18.0387L12.9726 18.2051H13.4737C13.7505 18.2051 13.9936 18.2088 14.016 18.2125C14.0534 18.2199 14.0609 18.2162 14.0983 18.1533L14.1432 18.0868H14.5733C14.9062 18.0868 15.0034 18.0905 15.0034 18.1016C14.9922 18.0979 14.9436 18.2791 14.8875 18.4862Z" fill="white"/>
<path d="M22.3377 14.263C22.3302 14.0966 22.3152 13.8636 22.304 13.749C22.1432 12.0701 21.7093 10.6982 20.8865 9.24485C20.8529 9.18938 20.8229 9.13391 20.8042 9.08953C20.7968 9.07844 20.793 9.06735 20.7893 9.05995C20.9052 8.71604 21.3802 7.27752 21.758 5.63191C22.2703 3.39832 22.5957 0.787531 21.6009 0.00355607C21.6009 0.00355607 19.8804 -0.122176 17.5766 2.11141C16.952 2.72898 16.3797 3.39832 15.8711 4.11203L15.7103 4.06026C14.7827 3.76072 13.8215 3.57582 12.8529 3.51295C12.5611 3.49077 11.4728 3.49077 11.1175 3.51295C10.0441 3.58322 9.22126 3.74223 8.28624 4.06396C8.24884 4.07875 8.21518 4.08984 8.18152 4.10094C7.65417 3.39092 7.06698 2.72528 6.41995 2.11511C4.02256 -0.129572 2.23855 -0.000142155 2.23855 -0.000142155C1.18386 0.809719 1.5429 3.53884 2.08895 5.84639C2.448 7.37366 2.88932 8.71604 3.05389 9.20047C3.04267 9.22636 3.02771 9.25594 3.01275 9.28183C2.14131 11.0273 1.67006 12.7099 1.55786 14.4997C2.53402 14.3592 5.22313 14.2002 7.23902 16.345C7.23902 16.345 8.57048 12.8689 12.1609 12.8689C15.7514 12.8689 16.5181 16.345 16.5181 16.345C18.8968 14.4036 21.4587 14.4664 22.3564 14.5589C22.3526 14.4849 22.3451 14.374 22.3377 14.263ZM3.76076 7.80633C3.76076 7.80633 2.36197 4.3487 2.72102 2.37397C2.78086 2.04115 2.89307 1.74901 3.06885 1.52713C3.06885 1.52713 4.65463 1.68245 7.21284 4.49292C7.21284 4.49292 6.72663 4.7259 6.07586 5.22143C6.07586 5.22143 6.07212 5.22513 6.06838 5.22513C5.36151 5.76134 4.45641 6.61188 3.76076 7.80633ZM9.69624 12.9428C9.6738 12.9872 9.5616 13.0353 9.43444 13.0538C9.30728 13.0723 8.91831 13.0612 8.69765 13.0353C7.90475 12.9318 7.06324 12.6914 6.44987 12.3955C6.10578 12.2291 5.85894 12.0627 5.67567 11.8815L5.57095 11.7743L5.55973 11.6338C5.54103 11.3897 5.54477 11.0051 5.57469 10.8683C5.59339 10.7536 5.63453 10.6427 5.69063 10.5428C5.72055 10.5059 5.72055 10.5059 5.8552 10.5059C6.01976 10.5059 6.15814 10.5318 6.38255 10.602C6.84257 10.7425 7.52701 11.0828 8.36104 11.5783C9.04921 11.9851 9.30728 12.1848 9.5055 12.4584C9.64014 12.6285 9.7299 12.8689 9.69624 12.9428ZM18.5078 11.7188C18.4966 11.778 18.3208 11.9555 18.1451 12.0849C17.6289 12.4584 16.7051 12.806 15.7664 12.9724C15.2315 13.0686 14.6967 13.0834 14.5359 13.0057C14.4312 12.9539 14.4162 12.9133 14.4536 12.7801C14.5321 12.5028 14.7865 12.1995 15.1829 11.9148C15.3849 11.7706 16.204 11.2787 16.5854 11.0717C17.2138 10.7314 17.7224 10.5281 18.0665 10.48C18.175 10.4652 18.3059 10.4615 18.347 10.48C18.4143 10.5059 18.4891 10.7019 18.5191 10.9385C18.534 11.0643 18.5265 11.619 18.5078 11.7188ZM17.887 5.22143L17.8795 5.21773C17.2512 4.7222 16.7799 4.48923 16.7799 4.48923C19.2521 1.67875 20.7818 1.52343 20.7818 1.52343C20.9501 1.74901 21.0586 2.03745 21.1184 2.37027C21.4662 4.345 20.1161 7.80633 20.1161 7.80633C19.5513 6.81157 18.7921 5.93145 17.887 5.22143Z" fill="#FFA409"/>
<path d="M21.1222 2.37028C20.8305 2.3333 19.4504 2.3259 17.8871 5.22143L17.8796 5.21774C17.2513 4.7222 16.78 4.48923 16.78 4.48923C19.2522 1.67875 20.7819 1.52344 20.7819 1.52344C20.9539 1.74902 21.0624 2.03746 21.1222 2.37028Z" fill="#FF9300"/>
<path d="M20.12 7.80635C19.5515 6.80789 18.796 5.93146 17.8872 5.22145C19.4506 2.32592 20.8269 2.33331 21.1224 2.37029C21.4702 4.34872 20.12 7.80635 20.12 7.80635Z" fill="#FF8300"/>
<path d="M21.1784 2.38149C21.1597 2.37775 21.141 2.37401 21.1223 2.37027L21.1784 2.38149Z" fill="#FF8300"/>
<path d="M7.21284 4.48923C7.21284 4.48923 6.72664 4.7222 6.07587 5.21774C6.07587 5.21774 6.07212 5.22143 6.06838 5.22143C4.44893 2.3222 3.02397 2.3333 2.71729 2.37028C2.77713 2.03746 2.88933 1.74532 3.06511 1.52344C3.06885 1.52344 4.65464 1.67875 7.21284 4.48923Z" fill="#FF9300"/>
<path d="M6.07214 5.22145C5.36153 5.76135 4.45644 6.6082 3.76079 7.80635C3.76079 7.80635 2.362 4.34872 2.72105 2.37029C3.02399 2.33331 4.4527 2.32592 6.07214 5.22145Z" fill="#FF8300"/>
<path d="M2.72097 2.37027C2.70227 2.37401 2.67983 2.37775 2.66113 2.38149L2.72097 2.37027Z" fill="#FF8300"/>
<path d="M16.3348 9.7256C16.3348 9.7256 15.138 9.79956 15.2876 8.87506C15.4372 7.95056 16.3722 7.83962 16.634 7.8766C16.8958 7.91358 17.943 8.28338 17.756 9.05996C17.569 9.83654 17.3072 9.68862 17.1576 9.7256C17.008 9.76258 16.3348 9.7256 16.3348 9.7256Z" fill="white"/>
<path d="M7.5084 9.7256C7.5084 9.7256 6.31158 9.79956 6.46118 8.87506C6.61079 7.95056 7.5458 7.83962 7.80761 7.8766C8.06941 7.91358 9.11663 8.28338 8.92963 9.05996C8.74262 9.83654 8.48082 9.68862 8.33122 9.7256C8.18161 9.76258 7.5084 9.7256 7.5084 9.7256Z" fill="white"/>
</g>
<defs>
<clipPath id="clip0_1412_129">
<rect width="24" height="24" fill="white"/>
</clipPath>
</defs>
</svg>
