<svg width="24" height="24" viewBox="0 0 24 24" fill="none" xmlns="http://www.w3.org/2000/svg">
<g clip-path="url(#clip0_6990_11344)">
<path d="M8.4748 15.525C6.52481 17.475 3.3748 17.475 1.4498 15.525C-0.500195 13.575 -0.500195 10.425 1.4498 8.50005C3.3998 6.55005 6.5498 6.55005 8.4748 8.50005C10.4248 10.425 10.4248 13.575 8.4748 15.525ZM15.5248 8.47505C17.4748 6.52505 17.4748 3.37505 15.5248 1.45005C13.5748 -0.499951 10.4248 -0.499951 8.4998 1.45005C6.5498 3.40005 6.5498 6.55005 8.4998 8.47505C10.4248 10.425 13.5748 10.425 15.5248 8.47505ZM8.4748 15.525C6.52481 17.475 6.52481 20.625 8.4748 22.55C10.4248 24.5 13.5748 24.5 15.4998 22.55C17.4498 20.6 17.4498 17.45 15.4998 15.525C13.5748 13.575 10.4248 13.575 8.4748 15.525ZM22.5498 8.47505C20.5998 6.52505 17.4498 6.52505 15.5248 8.47505C13.5748 10.425 13.5748 13.575 15.5248 15.5C17.4748 17.45 20.6248 17.45 22.5498 15.5C24.4748 13.575 24.4748 10.425 22.5498 8.47505Z" fill="#FF009A"/>
</g>
<defs>
<clipPath id="clip0_6990_11344">
<rect width="24" height="24" fill="white"/>
</clipPath>
</defs>
</svg>
