<svg width="24" height="24" viewBox="0 0 24 24" fill="none" xmlns="http://www.w3.org/2000/svg">
<path d="M9.07108 14.9344C7.4465 16.5578 4.82218 16.5578 3.21843 14.9344C1.59386 13.3111 1.59386 10.6889 3.21843 9.08637C4.84301 7.46306 7.46733 7.46306 9.07108 9.08637C10.6957 10.6889 10.6957 13.3111 9.07108 14.9344ZM14.9445 9.06556C16.5691 7.44225 16.5691 4.81998 14.9445 3.21748C13.32 1.59417 10.6957 1.59417 9.0919 3.21748C7.46733 4.84079 7.46733 7.46306 9.0919 9.06556C10.6957 10.6889 13.32 10.6889 14.9445 9.06556V9.06556ZM9.07108 14.9344C7.4465 16.5578 7.4465 19.18 9.07108 20.7825C10.6957 22.4058 13.32 22.4058 14.9237 20.7825C16.5483 19.1592 16.5483 16.5369 14.9237 14.9344C13.32 13.3111 10.6957 13.3111 9.07108 14.9344ZM20.7972 9.06556C19.1726 7.44225 16.5483 7.44225 14.9445 9.06556C13.32 10.6889 13.32 13.3111 14.9445 14.9136C16.5691 16.5369 19.1934 16.5369 20.7972 14.9136C22.4009 13.3111 22.4009 10.6889 20.7972 9.06556Z" fill="#FF009A"/>
</svg>
