<svg width="24" height="24" viewBox="0 0 24 24" fill="none" xmlns="http://www.w3.org/2000/svg">
<path fill-rule="evenodd" clip-rule="evenodd" d="M22 12C22 6.47715 17.5228 2 12 2C6.47715 2 2 6.47715 2 12C2 17.5228 6.47715 22 12 22C17.5228 22 22 17.5228 22 12ZM7.5 6C6.67157 6 6 6.67157 6 7.5V16.5C6 17.3284 6.67157 18 7.5 18H16.5C17.3284 18 18 17.3284 18 16.5V7.5C18 6.67157 17.3284 6 16.5 6H7.5ZM10.875 10.125C10.4608 10.125 10.125 10.4608 10.125 10.875V13.125C10.125 13.5392 10.4608 13.875 10.875 13.875H13.125C13.5392 13.875 13.875 13.5392 13.875 13.125V10.875C13.875 10.4608 13.5392 10.125 13.125 10.125H10.875ZM8.25 8.25V15.75H15.75V8.25H8.25Z" fill="white"/>
</svg>
