<svg width="24" height="24" viewBox="0 0 24 24" fill="none" xmlns="http://www.w3.org/2000/svg">
<path fill-rule="evenodd" clip-rule="evenodd" d="M12 22C17.5455 22 22 17.5455 22 12C22 6.45455 17.5455 2 12 2C6.45455 2 2 6.45455 2 12C2 17.5455 6.45455 22 12 22ZM6.77966 13.0588C10.861 6.97058 12 4 12 4L6.77966 13.0588ZM12 4L12.0088 4.0153C12.0038 4.00509 12.001 4 12 4ZM12.0088 4.0153L17.2203 13.0588C13.6368 7.68196 12.3297 4.73674 12.0568 4.1219C12.0336 4.0694 12.0178 4.03388 12.0088 4.0153ZM6.35254 14.0588C11.0271 8.88239 12 6.35292 12 6.35292C12 6.35292 12.9729 8.88239 17.6475 14.0588L12 6.35292L6.35254 14.0588ZM5.9017 15C11.1932 11.9705 12 8.67649 12 8.67649L5.9017 15ZM18.0983 15L12 8.67649C12 8.67649 12.8068 11.9705 18.0983 15ZM5.45084 16C11.3356 14.5 12 11.0294 12 11.0294C12 11.0294 12.6644 14.5 18.5491 16L12 11.0294L5.45084 16ZM5 17C11.5017 17 12 13.3823 12 13.3823L5 17ZM19 17L12 13.3823C12 13.3823 12.4983 17 19 17Z" fill="white"/>
</svg>
