<svg width="24" height="24" viewBox="0 0 24 24" fill="none" xmlns="http://www.w3.org/2000/svg">
<path fill-rule="evenodd" clip-rule="evenodd" d="M12 22C17.5228 22 22 17.5228 22 12C22 6.47715 17.5228 2 12 2C6.47715 2 2 6.47715 2 12C2 17.5228 6.47715 22 12 22ZM9.01695 17.1809C11.3492 14.371 12 13 12 13L9.01695 17.1809ZM12.0051 13.0071C12.0023 13.0024 12.0006 13 12 13L12.0051 13.0071ZM12.0051 13.0071C12.0102 13.0157 12.0192 13.032 12.0325 13.0563L12.0326 13.0564C12.1887 13.3404 12.9356 14.6997 14.9831 17.1809L12.0051 13.0071ZM8.77287 17.6425C11.4441 15.2534 12 14.086 12 14.086L8.77287 17.6425ZM15.2271 17.6425L12 14.086C12 14.086 12.5559 15.2534 15.2271 17.6425ZM8.51527 18.0769C11.539 16.6788 12 15.1584 12 15.1584L8.51527 18.0769ZM12 15.1584C12 15.1584 12.461 16.6788 15.4847 18.0769L12 15.1584ZM8.25764 18.5384C11.6204 17.8462 12 16.2443 12 16.2443L8.25764 18.5384ZM15.7424 18.5384L12 16.2443C12 16.2443 12.3796 17.8462 15.7424 18.5384ZM8 19C11.7152 19 12 17.3303 12 17.3303L8 19ZM12 17.3303C12 17.3303 12.2848 19 16 19L12 17.3303ZM16.2557 5.34147C16.2702 5.35258 16.2845 5.36347 16.2986 5.37406C16.4688 5.50339 17 5.94446 17 5.94446C17 5.94446 16.3056 6.19318 16.1493 6.30594C15.9931 6.41869 15.8055 6.60772 15.6528 6.96256C15.6049 7.07102 15.5424 7.22788 15.4754 7.39622C15.3724 7.65509 15.2585 7.9411 15.1701 8.11993C15.0243 8.4151 14.7882 8.79317 13.757 9.30387C13.6339 9.36451 13.5197 9.41991 13.4141 9.47117C12.7687 9.78431 12.4412 9.94325 12.3368 10.2026C12.276 10.3528 12.2571 10.5156 12.282 10.6749C12.307 10.8342 12.3749 10.9845 12.4792 11.1112C12.6493 11.3102 12.9965 11.675 13.3472 11.7679C13.6979 11.8607 13.7257 12 13.7257 12C13.5051 11.94 13.2778 11.9055 13.0486 11.8972C12.6875 11.8872 12.2986 12 12.2986 12C12.2986 11.8707 12.5625 11.7679 12.5625 11.7679C12.5625 11.7679 12.5521 11.5921 12.0451 11.2737C11.8982 11.1826 11.7741 11.0616 11.6817 10.9195C11.5893 10.7773 11.5308 10.6175 11.5104 10.4513C11.5104 10.4513 10.6701 10.3982 10.625 10.3982L11.1458 10.2523C10.2917 9.8212 5.86805 11.4859 5.86805 11.4859V11.3765C5.47222 11.6153 5 11.4959 5 11.4959L5.53472 11.1079H5.16319L8.87847 9.28063L8.04514 9.2707C8.04514 9.2707 11.2466 7.30747 12.0625 6.83986C12.5509 6.56001 12.9285 6.40132 13.1955 6.28915C13.3746 6.21389 13.5039 6.15957 13.5833 6.10365C13.6653 6.04593 13.7956 5.93355 13.9382 5.81062C14.1396 5.6369 14.3654 5.44213 14.5139 5.35085L14.527 5.34275C14.7802 5.18698 15.1486 4.96033 15.5104 5.00595C15.8722 5.04877 16.0835 5.21001 16.2557 5.34147Z" fill="#F4F4F4"/>
</svg>
