<svg width="24" height="24" viewBox="0 0 24 24" fill="none" xmlns="http://www.w3.org/2000/svg">
<path d="M22 12C22 17.525 17.525 22 12 22C6.475 22 2 17.525 2 12C2 6.475 6.475 2 12 2C17.525 2 22 6.475 22 12Z" fill="url(#paint0_linear_7081_11243)"/>
<path d="M21.8546 12C21.8546 12.42 21.8296 12.84 21.7746 13.245C21.1646 18.1 17.0196 21.855 11.9996 21.855C6.97965 21.855 2.83465 18.1 2.21965 13.245C2.16965 12.835 2.13965 12.42 2.13965 12C2.14465 6.55502 6.55465 2.14502 11.9996 2.14502C17.4446 2.14502 21.8546 6.55502 21.8546 12Z" fill="#85BB65"/>
<path opacity="0.2" d="M21.8545 12C21.8543 12.5022 21.8159 13.0037 21.7395 13.5C17.1995 6.20002 6.79953 6.20002 2.25953 13.5C2.18321 13.0037 2.14476 12.5022 2.14453 12C2.14453 6.56002 6.55453 2.14502 11.9995 2.14502C17.4445 2.14502 21.8545 6.56002 21.8545 12Z" fill="white"/>
<path opacity="0.5" d="M21.0051 16.0049C19.4701 19.4499 16.0151 21.8549 12.0001 21.8549C7.98512 21.8549 4.53012 19.4549 2.99512 16.0049H21.0051Z" fill="url(#paint1_linear_7081_11243)"/>
<mask id="mask0_7081_11243" style="mask-type:luminance" maskUnits="userSpaceOnUse" x="2" y="2" width="20" height="20">
<path d="M21.8556 12C21.8556 12.42 21.8306 12.84 21.7756 13.245C21.1656 18.1 17.0206 21.855 12.0006 21.855C6.98062 21.855 2.83562 18.1 2.22063 13.245C2.17063 12.835 2.14062 12.42 2.14062 12C2.14562 6.55502 6.55562 2.14502 12.0006 2.14502C17.4456 2.14502 21.8556 6.55502 21.8556 12Z" fill="white"/>
</mask>
<g mask="url(#mask0_7081_11243)">
<path d="M16.2951 7.21514L13.6851 6.16014L16.1301 7.55014L13.6101 6.30014L15.9401 7.88014L13.5251 6.43014L15.7251 8.18514L13.4351 6.55514L15.4901 8.48014L13.3351 6.67514L15.2301 8.75514L13.2201 6.78514L14.9451 9.00514L13.1001 6.87514L14.6501 9.22514L12.9751 6.96514L14.3351 9.43014L12.8451 7.04514L14.0051 9.61014L12.7051 7.11514L13.6601 9.76014L12.5601 7.17014L13.3051 9.88514L12.4101 7.22014L12.9401 9.98514L12.2601 7.25514L12.5701 10.0501L12.1051 7.27514L12.1951 10.0901L11.9501 7.28514L11.8201 10.0951L11.7951 7.28014L11.4451 10.0701L11.6401 7.26514L11.0751 10.0201L11.4901 7.23514L10.7101 9.94014L11.3401 7.20014L10.3501 9.83514L11.1951 7.15014L10.0001 9.70014L11.0501 7.09014L9.66012 9.53514L10.9151 7.01514L9.33512 9.34514L10.7851 6.93014L9.03012 9.13014L10.6601 6.84014L8.73512 8.89514L10.5401 6.74014L8.46012 8.63514L10.4301 6.62514L8.21012 8.35514L10.3301 6.50514L7.98012 8.05514L10.2401 6.38014L7.77512 7.74014L10.1601 6.25014L7.59512 7.41014L10.0901 6.11014L7.45512 7.05014L10.0451 5.95014L7.33012 6.69514L10.0001 5.80514L7.23512 6.33514L9.96512 5.65014L7.17012 5.96014L9.94512 5.49514L7.13012 5.58514L9.93012 5.34014L7.12012 5.21014L9.93512 5.18514L7.14512 4.83514L9.95012 5.03014L7.19512 4.46514L9.98012 4.88014L7.27512 4.10014L10.0201 4.73014L7.38512 3.74014L10.0701 4.58514L7.52012 3.39014L10.1301 4.44514L7.68512 3.05014L10.2051 4.30514L7.87512 2.72514L10.2901 4.17514L8.09012 2.42014L10.3801 4.05514L8.32512 2.13014L10.4801 3.93514L8.58512 1.86014L10.5951 3.83014L8.86512 1.61014L10.7101 3.73014L9.16012 1.38014L10.8351 3.64014L9.47512 1.17514L10.9651 3.56014L9.81512 1.00014L11.1151 3.49514L10.1551 0.850137L11.2551 3.44014L10.5101 0.725137L11.4051 3.39514L10.8751 0.630137L11.5551 3.36014L11.2451 0.565137L11.7101 3.34014L11.6201 0.525137L11.8651 3.32514L11.9951 0.515137L12.0201 3.33014L12.3701 0.540137L12.1751 3.35014L12.7401 0.595137L12.3251 3.38014L13.1051 0.675137L12.4751 3.41514L13.4651 0.780137L12.6201 3.46514L13.8151 0.915137L12.7651 3.52514L14.1551 1.08014L12.9051 3.60014L14.4851 1.27014L13.0351 3.68014L14.7901 1.48014L13.1601 3.77014L15.0851 1.71514L13.2751 3.87014L15.3501 1.98014L13.3801 3.99014L15.6001 2.26514L13.4751 4.11014L15.8251 2.56014L13.5651 4.23514L16.0301 2.87514L13.6451 4.36514L16.2101 3.20514L13.7151 4.50514L16.3601 3.55014L13.7701 4.65014L16.4851 3.90514L13.8151 4.80014L16.5801 4.27014L13.8501 4.95514L16.6451 4.64514L13.8701 5.11014L16.6851 5.02014L13.8851 5.26514L16.6951 5.39514L13.8801 5.42014L16.6701 5.77014L13.8601 5.57514L16.6151 6.14014L13.8301 5.72514L16.5351 6.50514L13.7951 5.87514L16.4301 6.86514L13.7451 6.02014L16.2951 7.21514Z" fill="white"/>
<path d="M9.89062 7.0449L12.0356 3.0249L13.8906 7.0449H9.89062Z" fill="#6D8954"/>
<path d="M9.09473 8.27002H13.7147L14.5497 8.52002H9.79973L9.09473 8.27002Z" fill="#ABC993"/>
<path d="M14.5553 8.52002L18.7203 18.57H5.82031L9.79531 8.52002H14.5553Z" fill="#C2D3B4"/>
<path d="M9.09527 8.27002L9.79527 8.52002L5.82027 18.57L4.15527 17.535L9.09527 8.27002Z" fill="#6D8954"/>
<path d="M13.0652 6.06007C12.9252 6.42507 12.4302 6.70507 11.9252 6.70507C11.4452 6.70507 10.9152 6.39007 10.7852 6.06007C10.9152 5.72507 11.2952 5.38507 11.9252 5.38507C12.5552 5.38007 12.9252 5.69507 13.0652 6.06007Z" fill="white"/>
<path d="M11.9249 6.12011L12.1849 6.50511C12.1049 6.54511 12.0199 6.57011 11.9249 6.57011C11.8299 6.57011 11.7399 6.54511 11.6649 6.50511L11.9249 6.12011ZM11.9249 5.48511C11.6249 5.48511 11.3799 5.72511 11.3799 6.03011C11.3799 6.20511 11.4599 6.36011 11.5899 6.46011L11.8799 6.03011H11.5949V5.94011H11.8849V5.85011H11.5949V5.76011H12.2599V5.85011H11.9699V5.94011H12.2599V6.03011H11.9699L12.2599 6.46011C12.3899 6.36011 12.4699 6.20511 12.4699 6.03011C12.4699 5.72511 12.2249 5.48511 11.9249 5.48511Z" fill="#6D8954"/>
<path opacity="0.5" d="M18.3303 17.66C18.3253 17.645 18.3203 17.635 18.3153 17.62C18.3103 17.605 18.3053 17.595 18.3003 17.58H17.2003C17.1953 17.33 17.1953 17.085 17.1903 16.835H17.9903C17.9853 16.82 17.9803 16.81 17.9753 16.795C17.9703 16.78 17.9653 16.77 17.9603 16.755H16.3953L16.3803 16.01H17.6503C17.6453 15.995 17.6403 15.985 17.6353 15.97C17.6303 15.955 17.6253 15.945 17.6203 15.93H17.1653C17.1603 15.68 17.1503 15.435 17.1453 15.185H17.3053C17.3003 15.17 17.2953 15.16 17.2903 15.145C17.2853 15.13 17.2803 15.12 17.2753 15.105H16.3503L16.3353 14.36H16.9503C16.9453 14.345 16.9403 14.335 16.9353 14.32C16.9303 14.305 16.9253 14.295 16.9203 14.28H15.5353C15.5303 14.03 15.5253 13.785 15.5253 13.535H16.6303C16.6253 13.52 16.6203 13.51 16.6153 13.495C16.6103 13.48 16.6053 13.47 16.6003 13.455H16.3153C16.3153 13.225 16.3203 12.995 16.3203 12.76C16.3053 12.725 16.2953 12.705 16.2803 12.665C16.2753 12.65 16.2703 12.64 16.2653 12.625H15.5153C15.5103 12.375 15.5003 12.13 15.4953 11.88H15.9553C15.9503 11.865 15.9453 11.855 15.9403 11.84L15.9253 11.8H14.7103L14.6903 11.055H15.6103C15.6053 11.04 15.6003 11.03 15.5953 11.015C15.5903 11 15.5853 10.99 15.5803 10.975H13.9003L13.8853 10.23H15.2503C15.2453 10.215 15.2403 10.205 15.2353 10.19C15.2303 10.175 15.2253 10.165 15.2203 10.15H14.6703C14.6653 9.90004 14.6553 9.65504 14.6503 9.40504H14.9153C14.9103 9.39004 14.9053 9.38004 14.9003 9.36504C14.8953 9.35004 14.8903 9.34004 14.8853 9.32504H13.8903C13.8853 9.07504 13.8853 8.83004 13.8803 8.58004H14.5953C14.5903 8.56504 14.5853 8.55504 14.5803 8.54004H9.80031C9.79531 8.55504 9.79031 8.56504 9.78531 8.58004H10.6653V9.32504H9.50031C9.49531 9.34004 9.49031 9.35004 9.48531 9.36504C9.48031 9.38004 9.47531 9.39004 9.47031 9.40504H9.89531C9.89531 9.65504 9.89531 9.90004 9.89031 10.15H9.18031C9.17531 10.165 9.17031 10.175 9.16531 10.19C9.15031 10.23 9.14031 10.25 9.12531 10.295L9.11031 10.98H8.85031C8.84531 10.995 8.84031 11.005 8.83531 11.02C8.83031 11.035 8.82531 11.045 8.82031 11.06H9.87031L9.86031 11.805H8.52031C8.51531 11.82 8.51031 11.83 8.50531 11.845C8.50031 11.86 8.49531 11.87 8.49031 11.885H9.09031C9.09031 12.135 9.08531 12.38 9.08531 12.63H8.19531C8.19031 12.645 8.18531 12.655 8.18031 12.67C8.17531 12.685 8.17031 12.695 8.16531 12.71H8.29531C8.29531 12.96 8.29531 13.205 8.30031 13.455H7.88031C7.87531 13.47 7.87031 13.48 7.86531 13.495C7.86031 13.51 7.85531 13.52 7.85031 13.535H9.10031V14.28H7.55531C7.55031 14.295 7.54531 14.305 7.54031 14.32C7.53531 14.335 7.53031 14.345 7.52531 14.36H8.30031L8.29531 15.105H7.22531C7.22031 15.12 7.21531 15.13 7.21031 15.145C7.20531 15.16 7.20031 15.17 7.19531 15.185H7.49531C7.49531 15.435 7.49031 15.68 7.49031 15.93H6.88031C6.87531 15.945 6.87031 15.955 6.86531 15.97C6.86031 15.985 6.85531 15.995 6.85031 16.01H8.30031V16.755H6.55031C6.54531 16.77 6.54031 16.78 6.53531 16.795C6.53031 16.81 6.52531 16.82 6.52031 16.835H7.49031V17.58H6.22531C6.22031 17.595 6.21531 17.605 6.21031 17.62C6.20531 17.635 6.20031 17.645 6.19531 17.66H18.3303ZM14.5853 10.135H13.1103C13.1053 9.88504 13.1053 9.64004 13.1003 9.39004H14.5653C14.5753 9.63504 14.5803 9.88504 14.5853 10.135ZM12.2553 12.615H10.7353L10.7303 11.87H12.2503L12.2553 12.615ZM12.2653 13.525L12.2703 14.27H10.7503V13.525H12.2653ZM13.8753 15.925H12.3553L12.3503 15.18H13.8703C13.8703 15.425 13.8753 15.675 13.8753 15.925ZM11.5503 15.095C11.5503 14.845 11.5453 14.6 11.5453 14.35H13.0653C13.0653 14.6 13.0703 14.845 13.0753 15.095H11.5503ZM11.4703 15.095H9.95531V14.35H11.4653C11.4653 14.6 11.4653 14.845 11.4703 15.095ZM12.2653 15.18L12.2703 15.925H10.7503C10.7503 15.675 10.7503 15.43 10.7453 15.18H12.2653ZM13.1053 16.75H11.5803C11.5803 16.5 11.5753 16.255 11.5753 16.005H13.1003L13.1053 16.75ZM14.7053 16.75H13.1803C13.1803 16.5 13.1753 16.255 13.1703 16.005H14.6903C14.7003 16.255 14.7053 16.505 14.7053 16.75ZM13.1503 15.095C13.1503 14.845 13.1453 14.6 13.1403 14.35H14.6503C14.6553 14.6 14.6553 14.845 14.6603 15.095H13.1503ZM12.3503 14.27L12.3453 13.525H13.8603C13.8603 13.775 13.8653 14.02 13.8703 14.27H12.3503ZM11.5353 13.44C11.5353 13.19 11.5303 12.945 11.5253 12.695H13.0503C13.0503 12.945 13.0553 13.19 13.0553 13.44H11.5353ZM11.5203 11.785C11.5203 11.535 11.5153 11.29 11.5153 11.04H13.0303C13.0353 11.29 13.0353 11.535 13.0403 11.785H11.5203ZM10.7303 10.215H12.2303L12.2353 10.96H10.7303V10.215ZM11.4503 12.695C11.4503 12.945 11.4553 13.19 11.4603 13.44H9.95031C9.95031 13.19 9.94531 12.945 9.94531 12.695H11.4503ZM10.6653 15.18L10.6703 15.925H9.15031C9.15031 15.675 9.15531 15.43 9.15531 15.18H10.6653ZM11.4903 16.005C11.4903 16.255 11.4953 16.5 11.4953 16.75H9.97031L9.96531 16.005H11.4903ZM12.3053 17.58H10.7803C10.7803 17.33 10.7753 17.085 10.7753 16.835H12.3003L12.3053 17.58ZM13.9103 17.58H12.3853L12.3803 16.835H13.9003C13.9053 17.08 13.9103 17.33 13.9103 17.58ZM15.5153 17.58H13.9903L13.9853 16.835H15.5103C15.5103 17.08 15.5103 17.33 15.5153 17.58ZM14.7853 16.75L14.7753 16.005H16.2953L16.3103 16.75H14.7853ZM13.9553 15.925L13.9453 15.18H15.4603L15.4753 15.925H13.9553ZM13.9453 14.27C13.9453 14.02 13.9403 13.775 13.9353 13.525H15.4403C15.4453 13.775 15.4453 14.02 15.4503 14.27H13.9453ZM13.1353 13.44C13.1353 13.19 13.1303 12.945 13.1303 12.695H14.6353C14.6403 12.945 14.6403 13.19 14.6403 13.44H13.1353ZM12.3353 12.615L12.3303 11.87H13.8353C13.8403 12.12 13.8453 12.365 13.8453 12.615H12.3353ZM12.3153 10.96L12.3103 10.215H13.8053L13.8203 10.96H12.3153ZM11.4353 11.04C11.4353 11.29 11.4353 11.535 11.4403 11.785H9.93531C9.93531 11.535 9.94031 11.29 9.94531 11.04H11.4353ZM10.6553 12.615H9.15531C9.15531 12.365 9.15531 12.12 9.16031 11.87H10.6503L10.6553 12.615ZM10.6703 13.525V14.27H9.16531V13.525H10.6703ZM9.87531 15.095H8.36531L8.37031 14.35H9.87531V15.095ZM9.89031 16.005V16.75H8.37031V16.005H9.89031ZM10.6953 16.83C10.6953 17.08 10.7003 17.325 10.7003 17.575H9.17531C9.17531 17.325 9.17031 17.08 9.17031 16.83H10.6953ZM15.5953 17.58C15.5953 17.33 15.5903 17.085 15.5853 16.835H17.1103C17.1153 17.085 17.1203 17.33 17.1203 17.58H15.5953ZM15.5553 15.925L15.5403 15.18H17.0553C17.0603 15.43 17.0703 15.675 17.0753 15.925H15.5553ZM14.7453 15.095C14.7403 14.845 14.7353 14.6 14.7353 14.35H16.2453L16.2603 15.095H14.7453ZM16.2253 13.44H14.7203C14.7203 13.19 14.7153 12.945 14.7103 12.695H16.2253C16.2303 12.945 16.2303 13.195 16.2253 13.44ZM13.9253 12.615C13.9203 12.365 13.9203 12.12 13.9153 11.87H15.4053C15.4153 12.12 15.4203 12.365 15.4253 12.615H13.9253ZM13.1203 11.785C13.1153 11.535 13.1153 11.29 13.1103 11.04H14.5953L14.6153 11.785H13.1203ZM13.0353 10.135H11.5203V9.39004H13.0253C13.0303 9.63504 13.0303 9.88504 13.0353 10.135ZM11.4403 10.135H9.96531V9.39004H11.4403V10.135ZM10.6653 10.96H9.18531C9.19031 10.71 9.19531 10.465 9.19531 10.215H10.6653V10.96ZM9.86031 12.695C9.86031 12.945 9.86531 13.19 9.86531 13.44H8.36031C8.36031 13.19 8.35531 12.945 8.35531 12.695H9.86031ZM9.07531 15.18C9.07531 15.43 9.07031 15.675 9.07031 15.925H7.55531C7.55531 15.675 7.56031 15.43 7.56031 15.18H9.07531ZM9.09031 16.83L9.09531 17.575H7.57031V16.83H9.09031ZM13.7953 8.56004C13.7953 8.81004 13.8003 9.05504 13.8003 9.30504H12.3153L12.3103 8.56004H13.7953ZM12.2303 8.56004L12.2353 9.30504H10.7353V8.56004H12.2303Z" fill="#6D8954"/>
</g>
<path opacity="0.75" d="M5.10442 11.9749C5.15942 11.9499 4.94442 11.6099 5.07942 11.4099C5.14942 11.3049 5.25942 11.3199 5.31942 11.1899C5.37442 11.0699 5.32942 10.9649 5.35442 10.9599C5.38442 10.9549 5.49442 11.1249 5.46942 11.3049C5.45442 11.4249 5.39442 11.4249 5.36442 11.5449C5.33442 11.6849 5.40442 11.7299 5.44442 12.0199C5.45942 12.1399 5.44942 12.1349 5.46942 12.2849C5.49442 12.5049 5.53442 12.5999 5.54942 12.6999C5.60942 13.0699 5.40442 13.5799 5.12442 13.6549C5.02442 13.6799 4.90942 13.6549 4.82442 13.7449C4.77442 13.7999 4.75942 13.8699 4.75442 13.8949C4.73442 14.0149 4.77942 14.1499 4.85942 14.2199C5.03942 14.3749 5.29942 14.0899 5.59942 14.1949C5.88442 14.2999 6.09442 14.7199 6.01442 15.0149C5.96442 15.1999 5.80442 15.3049 5.85442 15.4499C5.87442 15.5149 5.92442 15.5399 6.00442 15.5999C6.45942 15.9349 6.54942 16.2299 6.54442 16.2849C6.53942 16.3399 6.50942 16.3599 6.50942 16.3599C6.50442 16.3649 6.49942 16.3649 6.49442 16.3699C6.44942 16.3949 6.43442 16.4549 6.46942 16.4899C6.51442 16.5399 6.57442 16.6049 6.63442 16.6699C9.49442 20.0549 14.7694 19.8599 17.5544 16.6549C17.5694 16.6349 17.5294 16.5999 17.5194 16.5349C17.4944 16.3099 17.7044 16.0949 17.9194 15.9349C18.0644 15.8099 18.1344 15.6849 18.1744 15.6099C18.2094 15.5349 18.2244 15.4799 18.2094 15.4299C18.1894 15.3749 18.1444 15.3549 18.1044 15.3249C17.9594 15.2099 17.9744 14.8949 18.0694 14.6899C18.0944 14.6299 18.1594 14.4849 18.3094 14.4149C18.3844 14.3799 18.4544 14.3749 18.5394 14.3699C18.7794 14.3549 18.8494 14.4349 18.9894 14.3799C19.0794 14.3449 19.1294 14.2799 19.1494 14.2549C19.2494 14.1299 19.3044 13.9149 19.2194 13.7999C19.1094 13.6499 18.8644 13.8249 18.6194 13.6549C18.4844 13.5649 18.4244 13.4249 18.3644 13.2999C18.2794 13.1099 18.2694 12.9449 18.2594 12.8499C18.2344 12.4949 18.3344 12.1249 18.4444 11.9149C18.4594 11.8849 18.4994 11.8149 18.5244 11.7099C18.5444 11.6299 18.5694 11.5299 18.5494 11.4199C18.5044 11.2249 18.3244 11.1299 18.3494 11.0949C18.3694 11.0649 18.5294 11.1499 18.5494 11.1199C18.5794 11.0749 18.3094 10.8699 18.3294 10.8449C18.3444 10.8199 18.6344 10.9149 18.7794 11.1699C18.7994 11.2099 18.8744 11.3399 18.8694 11.5149C18.8644 11.7649 18.7044 11.8849 18.7794 12.0199C18.8044 12.0699 18.8544 12.1099 18.9044 12.1099C18.9944 12.1099 19.0844 11.9749 19.0744 11.8599V11.8399C19.0594 11.7499 19.0244 11.3299 19.2744 11.1149C19.3594 11.0399 19.4844 10.9899 19.5144 11.0249C19.5644 11.0749 19.3494 11.2449 19.3744 11.4849C19.3894 11.6299 19.4794 11.6599 19.4994 11.8749C19.5144 11.9949 19.4944 12.0699 19.4894 12.0949C19.4594 12.2149 19.4044 12.2549 19.3644 12.3349C19.2444 12.5599 19.3044 12.8549 19.3744 12.8749C19.4344 12.8899 19.4794 12.7449 19.6294 12.7249C19.7294 12.7099 19.8094 12.7599 19.8494 12.7849C19.9944 12.8749 20.0744 13.0349 20.1394 13.2899C20.2144 13.5849 20.2944 13.8999 20.2094 14.3249C20.1794 14.4749 20.0444 15.1499 19.7344 15.1999C19.5594 15.2299 19.3794 15.0499 19.2544 15.1399C19.2494 15.1449 19.1794 15.1949 19.1844 15.2549C19.1844 15.2649 19.1894 15.2949 19.2344 15.3299C19.3344 15.4199 19.4644 15.3349 19.6194 15.3899C19.6344 15.3949 19.7444 15.4349 19.8044 15.5399C19.9044 15.7149 19.8094 15.9999 19.6444 16.1299C19.5394 16.2099 19.4894 16.1949 19.4244 16.2899C19.3744 16.3649 19.3744 16.4349 19.2994 16.5649C19.2744 16.6049 19.2544 16.6349 19.2394 16.6549C19.2394 16.6549 19.2394 16.6599 19.2344 16.6649C18.0094 19.0449 15.0194 20.4599 12.9244 20.6349C9.71942 21.0199 6.10442 19.3399 4.57442 16.3499C4.55942 16.3249 4.56942 16.2949 4.56942 16.2949C4.57442 16.2599 4.58942 16.2299 4.61442 16.2049C4.62942 16.1799 4.67442 16.0799 4.63942 15.9849C4.58942 15.8649 4.41442 15.7949 4.22442 15.8599C4.08442 15.7699 4.01442 15.6299 4.03942 15.5049C4.06942 15.3699 4.19942 15.3049 4.21442 15.2999C4.40442 15.2049 4.55442 15.3549 4.67442 15.2649C4.77942 15.1849 4.78942 14.9799 4.71942 14.9299C4.65942 14.8849 4.57942 14.9799 4.38442 14.9899C4.37442 14.9899 4.22442 14.9949 4.10942 14.9449C3.92442 14.8649 3.84942 14.6549 3.78442 14.4699C3.71442 14.2699 3.59942 13.9299 3.70442 13.4999C3.83442 12.9649 4.22942 12.5749 4.36442 12.6099C4.46942 12.6399 4.49942 12.7099 4.49942 12.7099C4.50942 12.7249 4.50442 12.7349 4.51442 12.7499C4.53942 12.8249 4.63442 12.8849 4.68942 12.8749C4.81442 12.8499 4.94942 12.3649 4.76942 12.0099C4.69942 11.8699 4.61442 11.8199 4.59442 11.6649C4.57442 11.5099 4.64442 11.4599 4.61942 11.3099C4.58442 11.1099 4.43442 11.0149 4.45942 10.9849C4.48442 10.9599 4.67942 11.0199 4.78442 11.1799C4.90942 11.3699 4.79442 11.5349 4.93442 11.7799C4.99442 11.9099 5.07942 11.9899 5.10442 11.9749Z" fill="white"/>
<path d="M6.02989 16.535C6.03989 16.585 6.03489 16.635 6.01489 16.68C5.99489 16.725 5.96489 16.765 5.91989 16.795L5.79989 16.625C5.81489 16.615 5.82489 16.6 5.83489 16.585C5.83989 16.57 5.84489 16.55 5.83989 16.53C5.83489 16.51 5.82989 16.49 5.81489 16.47C5.79989 16.45 5.78489 16.44 5.76989 16.43C5.75489 16.42 5.73989 16.415 5.72489 16.42C5.70989 16.42 5.69489 16.425 5.67989 16.435C5.66489 16.45 5.64989 16.465 5.64989 16.485C5.64489 16.505 5.65489 16.53 5.66989 16.56L5.69989 16.605C5.72989 16.66 5.75489 16.71 5.76489 16.765C5.77489 16.815 5.77489 16.865 5.75989 16.91C5.74489 16.955 5.71489 16.995 5.66989 17.025C5.62489 17.055 5.57989 17.075 5.52989 17.075C5.47989 17.075 5.42989 17.06 5.37989 17.035C5.32989 17.005 5.28489 16.96 5.24489 16.905C5.19989 16.84 5.16989 16.78 5.15989 16.725C5.14989 16.67 5.14989 16.615 5.16989 16.57C5.18989 16.525 5.21989 16.485 5.26489 16.45L5.38489 16.62C5.36989 16.63 5.35489 16.645 5.34989 16.665C5.34489 16.685 5.34489 16.705 5.34989 16.73C5.35489 16.755 5.36989 16.78 5.38989 16.805C5.40489 16.83 5.42489 16.85 5.44489 16.86C5.46489 16.875 5.47989 16.88 5.49989 16.88C5.51489 16.88 5.53489 16.875 5.54989 16.865C5.56989 16.85 5.57989 16.83 5.57989 16.805C5.57989 16.78 5.56489 16.745 5.53989 16.705L5.50989 16.66C5.46489 16.585 5.44489 16.515 5.45489 16.445C5.46489 16.375 5.49989 16.32 5.55989 16.275C5.60489 16.245 5.64989 16.225 5.69489 16.225C5.73989 16.225 5.78489 16.235 5.82989 16.26C5.87489 16.285 5.91489 16.325 5.95489 16.375C5.99489 16.425 6.01489 16.48 6.02989 16.535ZM6.97989 17.57C7.00489 17.625 7.01489 17.685 7.01489 17.74C7.01489 17.795 7.00489 17.85 6.98489 17.9C6.96489 17.95 6.93489 17.995 6.89989 18.035L6.88489 18.055C6.85489 18.09 6.80989 18.12 6.76489 18.145C6.71489 18.17 6.66489 18.185 6.60489 18.19C6.54489 18.195 6.48989 18.19 6.42989 18.17C6.36989 18.15 6.31489 18.115 6.25989 18.06C6.20489 18.005 6.16489 17.95 6.13989 17.895C6.11489 17.835 6.10489 17.78 6.10989 17.72C6.10989 17.66 6.12489 17.61 6.14489 17.56C6.16489 17.51 6.19489 17.47 6.22489 17.435L6.23989 17.415C6.27489 17.375 6.31989 17.345 6.36989 17.32C6.41989 17.295 6.46989 17.28 6.52989 17.28C6.58489 17.275 6.64489 17.285 6.69989 17.305C6.75989 17.325 6.81489 17.365 6.86989 17.415C6.91489 17.46 6.95489 17.515 6.97989 17.57ZM6.79989 17.725C6.79989 17.695 6.79489 17.665 6.77989 17.635C6.76489 17.605 6.74489 17.58 6.71989 17.555C6.69489 17.53 6.66489 17.51 6.63489 17.5C6.60489 17.49 6.57489 17.485 6.54489 17.485C6.51489 17.485 6.48489 17.495 6.45489 17.51C6.42489 17.525 6.39989 17.545 6.37489 17.57C6.34989 17.595 6.33489 17.62 6.31989 17.65C6.30489 17.68 6.29989 17.71 6.29989 17.74C6.29989 17.77 6.30489 17.8 6.31989 17.83C6.33489 17.86 6.34989 17.885 6.37989 17.91C6.40489 17.935 6.43489 17.955 6.46489 17.965C6.49489 17.975 6.52489 17.98 6.55489 17.98C6.58489 17.98 6.61489 17.97 6.64489 17.955C6.67489 17.94 6.69989 17.92 6.72489 17.895C6.74989 17.87 6.76989 17.84 6.77989 17.81C6.79489 17.785 6.80489 17.755 6.79989 17.725ZM8.10989 18.43C8.13989 18.475 8.15989 18.525 8.15989 18.58C8.15989 18.63 8.14489 18.685 8.10989 18.735L8.09989 18.75C8.06489 18.805 8.02489 18.84 7.97989 18.86C7.93489 18.88 7.88989 18.885 7.83489 18.875L7.84989 19.235L7.64489 19.1L7.63989 18.79L7.53489 18.725L7.39489 18.945L7.21489 18.83L7.67489 18.115L7.85489 18.23L7.96989 18.305C8.02989 18.34 8.07489 18.385 8.10989 18.43ZM7.93989 18.565C7.93989 18.545 7.93489 18.525 7.92489 18.505C7.91489 18.485 7.89989 18.47 7.87989 18.455L7.75489 18.375L7.61989 18.58L7.74489 18.66C7.76489 18.675 7.78989 18.68 7.80989 18.685C7.82989 18.685 7.84989 18.685 7.86989 18.67C7.88989 18.66 7.90489 18.645 7.91989 18.625C7.93489 18.61 7.93989 18.59 7.93989 18.565ZM9.04489 18.885L9.36489 19.015L9.30989 19.9L9.10489 19.815L9.11989 19.61L8.80989 19.485L8.67989 19.645L8.47989 19.565L9.04489 18.885ZM9.13489 19.43L9.15989 19.12L9.11989 19.105L8.92489 19.35L9.13489 19.43ZM11.5049 19.475L11.7099 20.335L11.4899 20.315L11.4449 20.115L11.1099 20.085L11.0349 20.275L10.8199 20.255L11.1649 19.44L11.5049 19.475ZM11.4049 19.94L11.3399 19.635L11.2949 19.63L11.1749 19.92L11.4049 19.94ZM13.0949 20.03C13.0999 20.08 13.0899 20.125 13.0699 20.165C13.0499 20.205 13.0149 20.235 12.9749 20.255C12.9299 20.28 12.8749 20.295 12.8099 20.3L12.6549 20.315L12.4499 20.335L12.3699 19.485L12.5549 19.47L12.6999 19.455C12.7999 19.445 12.8749 19.46 12.9349 19.495C12.9949 19.53 13.0249 19.585 13.0299 19.665V19.68C13.0349 19.735 13.0249 19.775 12.9999 19.81C12.9899 19.825 12.9799 19.835 12.9699 19.845C12.9999 19.855 13.0249 19.87 13.0449 19.89C13.0749 19.92 13.0899 19.96 13.0949 20.015V20.03ZM12.5899 19.62L12.6049 19.8L12.7349 19.79C12.7649 19.79 12.7899 19.775 12.7999 19.76C12.8099 19.745 12.8149 19.72 12.8149 19.69C12.8149 19.66 12.8049 19.64 12.7849 19.625C12.7699 19.61 12.7449 19.605 12.7149 19.61L12.5899 19.62ZM12.8849 20.03C12.8849 20 12.8699 19.975 12.8549 19.965C12.8399 19.95 12.8149 19.945 12.7799 19.95L12.6199 19.965L12.6349 20.15L12.7949 20.135C12.8249 20.135 12.8499 20.12 12.8649 20.105C12.8799 20.085 12.8849 20.06 12.8849 20.03ZM15.1649 19.36C15.1749 19.405 15.1649 19.445 15.1399 19.48C15.1149 19.52 15.0799 19.545 15.0249 19.565C14.9949 19.58 14.9649 19.585 14.9349 19.585C14.9049 19.585 14.8799 19.58 14.8549 19.565C14.8299 19.55 14.8049 19.535 14.7849 19.51C14.7649 19.485 14.7499 19.455 14.7349 19.42C14.7199 19.385 14.7149 19.35 14.7099 19.32C14.7049 19.29 14.7099 19.26 14.7199 19.235C14.7299 19.21 14.7449 19.185 14.7649 19.165C14.7849 19.145 14.8099 19.13 14.8399 19.115C14.8699 19.1 14.9049 19.095 14.9349 19.095C14.9649 19.095 14.9949 19.105 15.0149 19.115C15.0399 19.13 15.0599 19.145 15.0749 19.175L15.2749 19.095C15.2449 19.035 15.1999 18.985 15.1499 18.95C15.0949 18.915 15.0399 18.895 14.9699 18.89C14.9049 18.885 14.8349 18.895 14.7649 18.925C14.6999 18.95 14.6449 18.985 14.5999 19.03C14.5599 19.075 14.5299 19.12 14.5099 19.17C14.4949 19.22 14.4849 19.275 14.4849 19.33C14.4849 19.385 14.4999 19.435 14.5199 19.485L14.5299 19.51C14.5449 19.555 14.5749 19.595 14.6099 19.64C14.6449 19.68 14.6849 19.715 14.7349 19.745C14.7849 19.775 14.8399 19.79 14.8999 19.79C14.9599 19.795 15.0249 19.785 15.0949 19.755C15.1699 19.725 15.2299 19.685 15.2749 19.635C15.3199 19.585 15.3499 19.53 15.3599 19.465C15.3749 19.405 15.3699 19.34 15.3549 19.28L15.1649 19.36ZM16.1649 18.22L16.3399 18.495L16.0699 18.67L15.8949 18.395L15.7149 18.51L16.1699 19.22L16.3499 19.105L16.1699 18.825L16.4399 18.65L16.6199 18.93L16.7999 18.815L16.3449 18.105L16.1649 18.22ZM17.2599 17.33L18.0399 17.75L17.8799 17.9L17.6999 17.8L17.4549 18.03L17.5449 18.21L17.3899 18.36L17.0099 17.56L17.2599 17.33ZM17.5399 17.715L17.2649 17.56L17.2349 17.59L17.3749 17.87L17.5399 17.715ZM18.8549 16.71C18.8449 16.77 18.8149 16.835 18.7699 16.895C18.7249 16.955 18.6749 17.005 18.6199 17.035C18.5649 17.065 18.5099 17.085 18.4499 17.09C18.3899 17.095 18.3399 17.09 18.2849 17.075C18.2349 17.06 18.1899 17.04 18.1499 17.01L18.1299 16.995C18.0849 16.965 18.0499 16.925 18.0199 16.88C17.9899 16.835 17.9699 16.785 17.9599 16.73C17.9499 16.675 17.9499 16.615 17.9649 16.555C17.9799 16.495 18.0049 16.435 18.0499 16.375C18.0949 16.315 18.1399 16.27 18.1949 16.24C18.2499 16.21 18.2999 16.19 18.3599 16.18C18.4149 16.175 18.4699 16.175 18.5249 16.19C18.5799 16.205 18.6249 16.225 18.6699 16.26L18.6899 16.275C18.7299 16.305 18.7649 16.34 18.7949 16.385C18.8249 16.43 18.8449 16.48 18.8599 16.535C18.8649 16.585 18.8649 16.645 18.8549 16.71ZM18.6499 16.595C18.6449 16.565 18.6349 16.535 18.6149 16.51C18.5999 16.485 18.5749 16.46 18.5449 16.44C18.5149 16.42 18.4849 16.405 18.4549 16.395C18.4249 16.385 18.3949 16.385 18.3649 16.39C18.3349 16.395 18.3049 16.405 18.2799 16.42C18.2549 16.435 18.2299 16.46 18.2099 16.49C18.1899 16.52 18.1749 16.55 18.1649 16.58C18.1549 16.61 18.1549 16.64 18.1599 16.67C18.1649 16.7 18.1749 16.73 18.1949 16.755C18.2149 16.78 18.2349 16.805 18.2649 16.825C18.2949 16.845 18.3249 16.86 18.3549 16.87C18.3849 16.88 18.4149 16.88 18.4449 16.875C18.4749 16.87 18.5049 16.86 18.5299 16.845C18.5599 16.83 18.5799 16.805 18.6049 16.775C18.6249 16.745 18.6399 16.715 18.6499 16.685C18.6549 16.65 18.6599 16.62 18.6499 16.595Z" fill="#6D8954"/>
<defs>
<linearGradient id="paint0_linear_7081_11243" x1="12" y1="2" x2="12" y2="22" gradientUnits="userSpaceOnUse">
<stop stop-color="#6B8068"/>
<stop offset="0.994" stop-color="#85BB65"/>
</linearGradient>
<linearGradient id="paint1_linear_7081_11243" x1="12.0001" y1="16.0056" x2="12.0001" y2="21.8546" gradientUnits="userSpaceOnUse">
<stop stop-color="#6B8068"/>
<stop offset="1" stop-color="#32442E"/>
</linearGradient>
</defs>
</svg>
