<svg width="24" height="24" viewBox="0 0 24 24" fill="none" xmlns="http://www.w3.org/2000/svg">
<path d="M12 22C17.5228 22 22 17.5228 22 12C22 6.47715 17.5228 2 12 2C6.47715 2 2 6.47715 2 12C2 17.5228 6.47715 22 12 22Z" fill="#FF0066"/>
<path d="M12 7C13.6569 7 15 6.32842 15 5.5C15 4.67158 13.6569 4 12 4C10.3432 4 9 4.67158 9 5.5C9 6.32842 10.3432 7 12 7Z" fill="white"/>
<path d="M12 20C13.6569 20 15 19.3284 15 18.5C15 17.6716 13.6569 17 12 17C10.3432 17 9 17.6716 9 18.5C9 19.3284 10.3432 20 12 20Z" fill="white"/>
<path d="M7.41984 9.29609C8.19777 7.98765 8.19272 6.57052 7.40857 6.13085C6.62441 5.69119 5.35809 6.39547 4.58016 7.70392C3.80223 9.01236 3.80728 10.4295 4.59144 10.8692C5.3756 11.3088 6.64191 10.6045 7.41984 9.29609Z" fill="white"/>
<path d="M19.4193 16.2956C20.1976 14.987 20.1929 13.5701 19.4091 13.1307C18.6252 12.6913 17.3588 13.3959 16.5807 14.7044C15.8024 16.0129 15.8071 17.4299 16.5909 17.8693C17.3748 18.3087 18.6412 17.6041 19.4193 16.2956Z" fill="white"/>
<path d="M7.40857 17.8691C8.19272 17.4295 8.19777 16.0124 7.41984 14.7039C6.64191 13.3955 5.37559 12.6912 4.59143 13.1308C3.80728 13.5705 3.80223 14.9877 4.58016 16.2961C5.35809 17.6046 6.62441 18.3088 7.40857 17.8691Z" fill="white"/>
<path d="M19.4091 10.8693C20.1929 10.4299 20.1976 9.01292 19.4193 7.70439C18.6412 6.39586 17.3748 5.69129 16.5909 6.13069C15.8071 6.57009 15.8024 7.98706 16.5807 9.29559C17.3588 10.6041 18.6252 11.3087 19.4091 10.8693Z" fill="white"/>
<path fill-rule="evenodd" clip-rule="evenodd" d="M12.0089 16C11.9698 15.9995 11.8801 15.9425 11.8094 15.8732C11.7388 15.804 11.6324 15.6653 11.573 15.565C11.5136 15.4647 11.4334 15.2933 11.3947 15.1841C11.356 15.0749 11.3104 14.8651 11.2932 14.7178C11.2702 14.5205 11.2699 14.3792 11.2919 14.1809C11.3111 14.0083 11.3572 13.8162 11.4205 13.6454C11.4781 13.4896 11.5777 13.2999 11.6603 13.1885C11.738 13.0838 11.8476 12.9658 11.9038 12.9263C12.0052 12.8552 12.0069 12.8552 12.1043 12.9253C12.1584 12.9641 12.2687 13.0842 12.3496 13.1922C12.4387 13.3113 12.5352 13.4928 12.5949 13.654C12.6598 13.8296 12.7033 14.0135 12.7231 14.1965C12.7456 14.405 12.7447 14.5385 12.7198 14.7368C12.7015 14.8816 12.6508 15.0984 12.6069 15.2185C12.5631 15.3386 12.4822 15.5071 12.4271 15.5929C12.3721 15.6788 12.2714 15.8057 12.2035 15.875C12.1342 15.9457 12.0488 16.0005 12.0089 16ZM12.0283 15.6197C12.0535 15.607 12.1194 15.5378 12.1746 15.4661C12.2299 15.3944 12.3118 15.2437 12.3566 15.1313C12.4015 15.0189 12.4526 14.8163 12.4703 14.6811C12.4938 14.5008 12.4946 14.3762 12.4732 14.2142C12.4572 14.0927 12.415 13.9087 12.3794 13.8052C12.3439 13.7018 12.2551 13.5387 12.182 13.4428C12.1036 13.3399 12.0292 13.2727 12.0004 13.279C11.9735 13.2849 11.8945 13.3634 11.8247 13.4534C11.7549 13.5435 11.666 13.7073 11.6271 13.8174C11.5634 13.9975 11.5564 14.0604 11.5564 14.4459C11.5564 14.8603 11.5593 14.8819 11.6472 15.1082C11.6971 15.2368 11.793 15.4098 11.8602 15.4925C11.9429 15.5944 11.9972 15.6354 12.0283 15.6197ZM10.5329 14.2513C10.4488 14.2528 10.3671 14.2347 10.3489 14.2104C10.3307 14.1861 10.3171 14.077 10.3183 13.9647C10.3194 13.8537 10.3348 13.7106 10.3524 13.6469C10.3699 13.5832 10.4219 13.4603 10.4678 13.3739C10.5176 13.2801 10.6093 13.1748 10.6957 13.1123C10.794 13.0412 10.8943 13.0019 11.0091 12.9896C11.1477 12.9747 11.1867 12.9833 11.2273 13.0375C11.2678 13.0916 11.2741 13.1423 11.2623 13.3169C11.2539 13.4407 11.2167 13.6152 11.1737 13.7325C11.1235 13.8695 11.0607 13.9714 10.9787 14.0488C10.9122 14.1117 10.8187 14.1823 10.771 14.2058C10.7232 14.2293 10.6161 14.2498 10.5329 14.2513ZM13.4792 14.2513C13.396 14.2498 13.2889 14.2293 13.2412 14.2058C13.1935 14.1823 13.1014 14.113 13.0367 14.0517C12.9664 13.9852 12.8875 13.8626 12.8407 13.7473C12.7875 13.6161 12.7581 13.4821 12.7489 13.3289C12.7378 13.1438 12.7441 13.0917 12.7848 13.0375C12.8254 12.9833 12.8644 12.9747 13.003 12.9896C13.1171 13.0018 13.2177 13.041 13.3132 13.1104C13.391 13.1669 13.4907 13.2739 13.5347 13.3482C13.5787 13.4225 13.633 13.5523 13.6554 13.6367C13.6777 13.7211 13.6959 13.8748 13.6959 13.9784C13.6959 14.082 13.6812 14.1864 13.6632 14.2104C13.645 14.2347 13.5633 14.2528 13.4792 14.2513ZM10.139 12.9771C10.0791 12.9755 9.96219 12.9547 9.87928 12.9309C9.79638 12.907 9.65911 12.8421 9.57423 12.7867C9.48936 12.7313 9.35888 12.6126 9.28428 12.5231C9.20968 12.4335 9.11175 12.2859 9.06666 12.195C8.9937 12.0479 8.98796 12.0171 9.01453 11.9153C9.03094 11.8524 9.12583 11.6922 9.22536 11.5593C9.34103 11.4049 9.46969 11.2765 9.5819 11.2036C9.67846 11.1408 9.84676 11.0703 9.95589 11.0468C10.105 11.0147 10.2081 11.0143 10.371 11.045C10.4978 11.069 10.6472 11.1259 10.7313 11.1824C10.8103 11.2354 10.9317 11.334 11.001 11.4015C11.0703 11.4689 11.1789 11.6158 11.2422 11.7278C11.3224 11.8697 11.3537 11.9569 11.3453 12.0156C11.3386 12.0619 11.2877 12.1826 11.2321 12.2838C11.1763 12.3851 11.0836 12.5178 11.026 12.5788C10.9683 12.6398 10.8419 12.7392 10.745 12.7997C10.6482 12.8602 10.4968 12.9255 10.4085 12.9448C10.3203 12.9641 10.199 12.9786 10.139 12.9771ZM13.924 12.9589C13.8061 12.9684 13.6489 12.9617 13.5747 12.9439C13.5005 12.9261 13.3495 12.8519 13.2391 12.779C13.1185 12.6995 12.9817 12.5707 12.8969 12.4571C12.8191 12.353 12.7313 12.207 12.7017 12.1328C12.6482 11.9989 12.6482 11.9966 12.7007 11.8665C12.7298 11.7943 12.8198 11.647 12.9006 11.539C12.9892 11.4207 13.1257 11.2912 13.2445 11.2129C13.3646 11.1336 13.5175 11.0672 13.6369 11.0426C13.7834 11.0123 13.8854 11.013 14.0436 11.0453C14.1691 11.071 14.3264 11.1351 14.4318 11.2036C14.5453 11.2774 14.6744 11.4058 14.7913 11.5613C14.8916 11.6947 14.9818 11.8475 14.9919 11.9008C15.0019 11.9541 15.0028 12.0367 14.9938 12.0843C14.9848 12.1319 14.9192 12.2575 14.8479 12.3634C14.7766 12.4693 14.6519 12.6126 14.5708 12.6819C14.4897 12.7512 14.3593 12.8379 14.2809 12.8747C14.2026 12.9114 14.042 12.9493 13.924 12.9589ZM12.6094 11.9977C12.5839 12.1045 12.5371 12.1576 12.4889 12.1845C12.4407 12.2115 12.3511 12.2323 12.2899 12.2306C12.1786 12.2276 12.1786 12.2276 12.1786 12.3765C12.1784 12.4584 12.1577 12.5786 12.1324 12.6437C12.0959 12.7376 12.0694 12.762 12.0038 12.762C11.9318 12.762 11.914 12.7404 11.8655 12.5938C11.8305 12.4882 11.8156 12.387 11.8253 12.322C11.8399 12.224 11.8365 12.2195 11.7623 12.2393C11.7192 12.2508 11.6397 12.2408 11.5858 12.217C11.5318 12.1933 11.4694 12.1494 11.4471 12.1196C11.4247 12.0897 11.4064 12.0247 11.4064 11.9752C11.4064 11.9044 11.4313 11.8699 11.5222 11.8148C11.586 11.7762 11.6779 11.7442 11.7267 11.7438C11.8048 11.7431 11.8153 11.7312 11.8159 11.6429C11.8162 11.5879 11.8401 11.4732 11.869 11.3882C11.914 11.2558 11.9335 11.2335 12.004 11.2335C12.0677 11.2335 12.0958 11.2579 12.128 11.3409C12.1509 11.3999 12.1696 11.5186 12.1696 11.6047C12.1696 11.7612 12.1696 11.7612 12.2854 11.7616C12.3491 11.7618 12.4407 11.7841 12.4889 11.811C12.5371 11.8379 12.5839 11.891 12.593 11.9289L12.6094 11.9977ZM10.2079 12.6072C10.4685 12.599 10.5112 12.5875 10.6713 12.482C10.7683 12.418 10.8963 12.2991 10.9558 12.2177C11.0152 12.1363 11.0638 12.0373 11.0638 11.9977C11.0638 11.9582 11.0165 11.8612 10.9588 11.7822C10.9009 11.7032 10.7848 11.5895 10.7006 11.5296C10.6165 11.4697 10.4678 11.4021 10.3703 11.3795C10.2439 11.3501 10.1429 11.349 10.0178 11.3759C9.92146 11.3967 9.77609 11.4571 9.69481 11.5102C9.61352 11.5633 9.49624 11.6785 9.4342 11.7663C9.37214 11.854 9.31738 11.9504 9.31249 11.9805C9.3076 12.0106 9.33697 12.0882 9.37775 12.1529C9.41854 12.2177 9.49955 12.3175 9.55777 12.3747C9.61599 12.4319 9.72154 12.5096 9.79231 12.5474C9.89507 12.6023 9.97881 12.6144 10.2079 12.6072ZM13.873 12.6066C14.1551 12.597 14.1831 12.589 14.3453 12.4725C14.4401 12.4043 14.5597 12.2831 14.611 12.203C14.6623 12.1229 14.7043 12.0215 14.7043 11.9776C14.7043 11.9299 14.656 11.8383 14.5842 11.7499C14.518 11.6685 14.4001 11.5588 14.3222 11.506C14.2442 11.4533 14.106 11.3941 14.0151 11.3745C13.906 11.3511 13.7896 11.3515 13.6732 11.3757C13.5762 11.3959 13.4318 11.4548 13.3524 11.5067C13.273 11.5585 13.1523 11.6765 13.084 11.7689C13.0158 11.8613 12.9605 11.9629 12.9611 11.9946C12.9617 12.0264 12.9955 12.1026 13.036 12.164C13.0767 12.2254 13.1552 12.3208 13.2106 12.376C13.2659 12.4311 13.3702 12.5079 13.4422 12.5466C13.5495 12.6041 13.6277 12.615 13.873 12.6066ZM12.0202 11.1153C11.9833 11.1247 11.9097 11.0768 11.8147 10.9815C11.7334 10.8999 11.625 10.7635 11.5738 10.6785C11.5227 10.5934 11.4446 10.4215 11.4002 10.2964C11.3558 10.1713 11.3062 9.95423 11.29 9.814C11.2681 9.62501 11.2688 9.48709 11.2928 9.28096C11.3117 9.1185 11.3604 8.90744 11.4098 8.77334C11.4564 8.6471 11.5362 8.47868 11.5872 8.39908C11.6383 8.31948 11.7305 8.20092 11.7923 8.13561C11.854 8.0703 11.9387 8.01018 11.9804 8.002C12.0333 7.99165 12.0933 8.0211 12.1781 8.09906C12.2452 8.16062 12.3508 8.28808 12.4129 8.3823C12.475 8.47651 12.5621 8.65517 12.6065 8.7793C12.6508 8.90343 12.7017 9.12966 12.7194 9.28202C12.7432 9.48613 12.744 9.62548 12.7224 9.81149C12.7063 9.95033 12.6607 10.1587 12.6209 10.2745C12.5812 10.3904 12.5003 10.5707 12.4411 10.6754C12.382 10.78 12.2761 10.9185 12.2057 10.9831C12.1354 11.0477 12.052 11.1072 12.0202 11.1153ZM11.0569 11.0135C10.9868 11.0127 10.8851 10.9908 10.8308 10.9649C10.7766 10.939 10.6874 10.8809 10.6327 10.8357C10.5779 10.7905 10.5029 10.7007 10.4661 10.6362C10.4292 10.5716 10.3804 10.4483 10.3576 10.3621C10.3348 10.2759 10.3162 10.1206 10.3162 10.017C10.3162 9.91348 10.3309 9.80909 10.3489 9.78507C10.3671 9.76079 10.4488 9.74263 10.5329 9.74416C10.6161 9.74569 10.7232 9.76616 10.771 9.78966C10.8187 9.81315 10.9122 9.88379 10.9787 9.94663C11.0607 10.0241 11.1235 10.126 11.1737 10.263C11.2167 10.3803 11.2539 10.5547 11.2623 10.6785C11.2738 10.8485 11.2674 10.9045 11.2306 10.9535C11.2 10.9945 11.1417 11.0146 11.0569 11.0135ZM13.003 11.0048C12.885 11.0167 12.8224 11.0064 12.7853 10.9691C12.7399 10.9233 12.7354 10.8861 12.7504 10.6728C12.7619 10.5081 12.7921 10.3681 12.8433 10.242C12.8877 10.1325 12.9678 10.009 13.0367 9.94376C13.1014 9.8825 13.1935 9.81315 13.2412 9.78966C13.2889 9.76616 13.396 9.74569 13.4792 9.74416C13.5633 9.74263 13.645 9.76079 13.6632 9.78507C13.6812 9.80909 13.6959 9.91262 13.6959 10.0151C13.6959 10.1177 13.6756 10.2811 13.6507 10.3784C13.6243 10.4822 13.5595 10.6168 13.4941 10.7041C13.4326 10.7859 13.3343 10.8833 13.2755 10.9205C13.2167 10.9577 13.0941 10.9956 13.003 11.0048ZM12.0283 10.7431C12.0535 10.7304 12.1194 10.6612 12.1746 10.5895C12.2299 10.5178 12.3118 10.3671 12.3566 10.2547C12.4015 10.1423 12.4526 9.93971 12.4703 9.80446C12.4938 9.62417 12.4946 9.49962 12.4732 9.33763C12.4572 9.21611 12.4138 9.02846 12.3769 8.92063C12.3399 8.8128 12.2524 8.65039 12.1826 8.55972C12.1127 8.46906 12.0343 8.39488 12.0084 8.39488C11.9825 8.39488 11.9058 8.46588 11.838 8.55266C11.7701 8.63944 11.679 8.8073 11.6355 8.92568C11.5618 9.12624 11.5564 9.17015 11.5564 9.5693C11.5564 9.98372 11.5738 10.0016 11.6472 10.2316C11.6971 10.3603 11.793 10.5332 11.8602 10.6159C11.9429 10.7178 11.9972 10.7588 12.0283 10.7431Z" fill="white"/>
</svg>
