<svg width="24" height="24" viewBox="0 0 24 24" fill="none" xmlns="http://www.w3.org/2000/svg">
<path fill-rule="evenodd" clip-rule="evenodd" d="M22 12C22 17.5228 17.5228 22 12 22C6.47715 22 2 17.5228 2 12C2 6.47715 6.47715 2 12 2C17.5228 2 22 6.47715 22 12ZM10.5562 9.36317C10.5562 9.26471 10.5271 9.16624 10.4688 9.08184C10.3813 8.94118 10.2208 8.85678 10.0458 8.85678H5.48125C5.21875 8.85678 5 9.06777 5 9.32097C5 9.57417 5.21875 9.78517 5.48125 9.78517H9.50625V12.922H5.97708C5.72917 12.922 5.525 13.133 5.525 13.3721V13.4143C5.525 13.6535 5.72917 13.8504 5.97708 13.8504H9.52083V17.0716H5.51042C5.24792 17.0716 5.02917 17.2826 5.02917 17.5358C5.02917 17.789 5.24792 18 5.51042 18H10.0604C10.25 18 10.4104 17.8875 10.4833 17.7468C10.5271 17.6765 10.5562 17.578 10.5562 17.4795V9.36317ZM14.4937 17.0575H18.4896C18.7521 17.0575 18.9708 17.2685 18.9854 17.5217C18.9854 17.7749 18.7667 17.9859 18.5042 17.9859H13.9542C13.7646 17.9859 13.6042 17.8734 13.5312 17.7327C13.4875 17.6483 13.4583 17.5639 13.4583 17.4655V9.3491C13.4583 9.25064 13.4875 9.15217 13.5458 9.06777C13.6187 8.94118 13.7792 8.84271 13.9542 8.84271H18.5187C18.7812 8.84271 19 9.05371 19 9.30691C19 9.5601 18.7812 9.7711 18.5187 9.7711H14.4937V12.9361H18.0229C18.2708 12.9361 18.475 13.133 18.475 13.3721V13.4143C18.475 13.6535 18.2708 13.8504 18.0229 13.8504H14.4937V17.0575ZM18.475 7C18.7375 7 18.9562 7.211 18.9562 7.46419C18.9562 7.71739 18.7521 7.92839 18.4896 7.92839H12.4958V17.578C12.4958 17.8171 12.2917 18 12.0583 18H11.9562C11.7083 18 11.5187 17.8031 11.5187 17.578V7.92839H5.51042C5.24792 7.92839 5.02917 7.71739 5.02917 7.46419C5.02917 7.211 5.24792 7 5.51042 7H18.475Z" fill="white"/>
</svg>
