<svg width="24" height="24" viewBox="0 0 24 24" fill="none" xmlns="http://www.w3.org/2000/svg">
<path fill-rule="evenodd" clip-rule="evenodd" d="M18.3893 6.52874L20.1627 6.29207L21.1681 8.1759L20.0428 9.50617C20.1796 9.91558 20.2873 10.335 20.3652 10.761L22 11.3786L21.969 13.5361L20.3568 14.1005C20.2785 14.5254 20.1707 14.9439 20.0344 15.3525L21.1565 16.7442L20.0982 18.597L18.4345 18.243C18.1628 18.5707 17.8684 18.8769 17.5536 19.1593L17.8592 20.9487L16.0568 21.9999L15.2063 21.213V17.8048C15.9451 17.3245 16.5765 16.6839 17.0579 15.9262C17.5392 15.1685 17.859 14.3115 17.9959 13.4132C18.1327 12.515 18.0832 11.5965 17.8508 10.72C17.6184 9.84343 17.2085 9.02939 16.6488 8.333L18.39 6.52942L18.3893 6.52874ZM7.29761 8.40381C6.75251 9.10263 6.35612 9.91489 6.13485 10.7865C5.91358 11.6581 5.87251 12.5689 6.01438 13.4584C6.15625 14.3479 6.4778 15.1955 6.9576 15.9448C7.4374 16.6942 8.06444 17.328 8.79693 17.8041V21.1577L7.85993 21.983L6.08783 20.8766L6.42574 19.1377C6.11236 18.8539 5.81945 18.5463 5.54937 18.2174L3.83724 18.537L2.83188 16.6525L3.95717 15.3222C3.82032 14.9126 3.71255 14.493 3.63474 14.0668L2 13.4492L2.03031 11.2916L3.64248 10.7272C3.72079 10.3023 3.82855 9.8838 3.96492 9.47517L2.84349 8.08354L3.90108 6.23071L5.55323 6.58199L7.29761 8.40381Z" fill="url(#paint0_linear_6900_11782)"/>
<path fill-rule="evenodd" clip-rule="evenodd" d="M6.17642 3.92091L7.97883 2.86975L9.25052 4.04632C9.64229 3.9032 10.0436 3.79052 10.4512 3.7092L11.0419 2L13.1055 2.03169L13.6446 3.71729C14.0511 3.7993 14.4513 3.91197 14.8421 4.05441L16.1725 2.88189L17.944 3.98834L17.6061 5.72719C17.7282 5.83731 17.8472 5.95171 17.9633 6.07038L16.2364 7.876C15.945 7.58349 15.6266 7.32196 15.2858 7.09524L14.2792 6.42503V12.7568L13.1558 13.4351L12.0324 14.1134L10.9091 13.4351L9.78575 12.7568V6.42503L8.77911 7.09524C8.41322 7.34012 8.07339 7.62513 7.76538 7.94544L6.03906 6.1405C6.18093 5.99352 6.32861 5.85103 6.48209 5.71303L6.17642 3.92091Z" fill="white"/>
<defs>
<linearGradient id="paint0_linear_6900_11782" x1="12" y1="6.23071" x2="12" y2="21.9999" gradientUnits="userSpaceOnUse">
<stop stop-color="#B938C5"/>
<stop offset="1" stop-color="#5FB9CD"/>
</linearGradient>
</defs>
</svg>
