<svg width="24" height="24" viewBox="0 0 24 24" fill="none" xmlns="http://www.w3.org/2000/svg">
<path fill-rule="evenodd" clip-rule="evenodd" d="M12.2214 20.9963C12.0069 20.9952 11.8061 20.9927 11.775 20.9907C11.7439 20.9887 11.6448 20.9817 11.5546 20.975C11.4645 20.9684 11.3018 20.953 11.193 20.9409C11.0842 20.9287 10.9113 20.9058 10.8088 20.89C10.7062 20.8741 10.5359 20.8435 10.4302 20.8219C10.3246 20.8003 10.1442 20.7599 10.0294 20.732C9.91459 20.7041 9.7366 20.6564 9.63386 20.6258C9.53111 20.5952 9.35551 20.5389 9.24364 20.5007C9.13176 20.4624 8.95886 20.3989 8.85941 20.3595C8.75997 20.3202 8.60486 20.2554 8.51474 20.2155C8.42462 20.1757 8.2568 20.0967 8.14182 20.0401C8.02683 19.9834 7.84158 19.8856 7.73015 19.8228C7.61872 19.7599 7.44582 19.6574 7.34593 19.595C7.24603 19.5325 7.09056 19.4303 7.00044 19.3679C6.91032 19.3055 6.75575 19.1931 6.65696 19.1181C6.55817 19.0431 6.4107 18.9261 6.32924 18.8581C6.24778 18.79 6.12774 18.6863 6.06248 18.6276C5.99722 18.5688 5.85573 18.4337 5.74806 18.3272C5.64039 18.2207 5.48746 18.0624 5.40821 17.9754C5.32896 17.8884 5.20855 17.7507 5.14064 17.6694C5.07273 17.5881 4.96323 17.4508 4.89732 17.3643C4.8314 17.2778 4.72774 17.1363 4.66696 17.0499C4.60617 16.9636 4.51144 16.8225 4.45644 16.7365C4.40143 16.6505 4.31406 16.5076 4.26227 16.4189C4.21047 16.3303 4.12709 16.1814 4.07696 16.0882C4.02683 15.995 3.94197 15.8258 3.88839 15.7123C3.83482 15.5987 3.75813 15.4278 3.71799 15.3325C3.67785 15.2371 3.61492 15.0783 3.57815 14.9795C3.54138 14.8807 3.48556 14.7211 3.4541 14.6248C3.42264 14.5284 3.37171 14.3606 3.34092 14.2518C3.31014 14.1431 3.2644 13.9651 3.23927 13.8563C3.21415 13.7475 3.17801 13.5772 3.15895 13.4777C3.1399 13.3783 3.1119 13.2124 3.09673 13.1092C3.08157 13.0059 3.05885 12.8177 3.04625 12.691C3.03365 12.5643 3.01809 12.3768 3.01168 12.2742C3.00527 12.1717 3.00001 11.9363 3 11.7511C2.99999 11.566 3.0052 11.327 3.01158 11.22C3.01796 11.113 3.03331 10.9238 3.0457 10.7995C3.0581 10.6752 3.07849 10.5023 3.09102 10.4152C3.10355 10.3282 3.12867 10.1756 3.14683 10.0761C3.165 9.97664 3.20047 9.80374 3.22565 9.69191C3.25084 9.58008 3.29158 9.41484 3.3162 9.32472C3.34081 9.23459 3.38615 9.07949 3.41696 8.98004C3.44777 8.8806 3.50388 8.71371 3.54164 8.60918C3.57941 8.50465 3.63762 8.35209 3.671 8.27016C3.70438 8.18822 3.76215 8.05254 3.79939 7.96863C3.83663 7.88472 3.91127 7.72787 3.96527 7.62006C4.01927 7.51226 4.10185 7.35461 4.14879 7.26974C4.19572 7.18486 4.27533 7.04677 4.32569 6.96286C4.37604 6.87895 4.479 6.71807 4.55449 6.60533C4.62997 6.4926 4.74418 6.32987 4.80829 6.24371C4.8724 6.15755 4.98577 6.01165 5.06023 5.9195C5.1347 5.82734 5.25856 5.68117 5.33548 5.59468C5.4124 5.50818 5.54006 5.37047 5.61917 5.28865C5.69828 5.20683 5.83421 5.07379 5.92122 4.99301C6.00824 4.91223 6.13287 4.79987 6.19818 4.74333C6.26349 4.68679 6.39063 4.58147 6.4807 4.50929C6.57077 4.43711 6.72087 4.32269 6.81424 4.25504C6.90761 4.18738 7.07797 4.07038 7.19281 3.99503C7.30766 3.91968 7.48223 3.81098 7.58076 3.75348C7.67929 3.69597 7.84456 3.60386 7.94803 3.54879C8.05151 3.49371 8.24041 3.40062 8.36783 3.34192C8.49525 3.28322 8.69381 3.1972 8.80909 3.15076C8.92437 3.10433 9.06748 3.04982 9.12713 3.02965C9.19463 3.00681 9.2435 2.9961 9.25656 3.00128C9.27545 3.00878 9.27404 3.01234 9.24242 3.03706C9.22311 3.05216 9.14683 3.10571 9.07291 3.15606C8.999 3.20641 8.86224 3.30486 8.76901 3.37484C8.67578 3.44482 8.53084 3.55942 8.44694 3.6295C8.36303 3.69959 8.21555 3.82922 8.11921 3.91756C8.02288 4.00591 7.88035 4.14395 7.8025 4.22431C7.72464 4.30468 7.60676 4.43121 7.54053 4.5055C7.47431 4.57978 7.36801 4.70413 7.30432 4.78182C7.24063 4.85951 7.13167 4.99936 7.06219 5.09259C6.99271 5.18582 6.88321 5.34092 6.81884 5.43726C6.75448 5.5336 6.66017 5.68154 6.60928 5.76602C6.55838 5.85049 6.47226 6.00051 6.41789 6.09939C6.36352 6.19827 6.28121 6.35799 6.23498 6.45433C6.18875 6.55067 6.12021 6.70069 6.08267 6.7877C6.04513 6.87472 5.98526 7.02219 5.94962 7.11542C5.91398 7.20865 5.85618 7.37138 5.82117 7.47705C5.78616 7.58271 5.73492 7.74906 5.70731 7.84672C5.6797 7.94438 5.63654 8.11303 5.61141 8.22149C5.58628 8.32995 5.55067 8.50196 5.53229 8.60375C5.5139 8.70553 5.48602 8.88015 5.47033 8.99178C5.45463 9.10342 5.4327 9.30409 5.42159 9.43772C5.40652 9.61898 5.40139 9.79693 5.40139 10.1384C5.40139 10.4797 5.40648 10.6564 5.42142 10.8334C5.43244 10.9639 5.44903 11.1292 5.45828 11.2006C5.46754 11.2721 5.49059 11.4247 5.50951 11.5397C5.52843 11.6546 5.56445 11.8425 5.58954 11.9572C5.61464 12.0719 5.66021 12.2575 5.69081 12.3697C5.72142 12.4819 5.77223 12.6525 5.80374 12.7488C5.83524 12.8452 5.88925 13.0003 5.92375 13.0935C5.95826 13.1867 6.02345 13.3495 6.06862 13.4551C6.1138 13.5608 6.18604 13.721 6.22917 13.8111C6.2723 13.9012 6.34726 14.0487 6.39577 14.1388C6.44427 14.229 6.52962 14.379 6.58543 14.4722C6.64125 14.5654 6.73912 14.7205 6.80293 14.8169C6.86674 14.9132 6.9813 15.0759 7.0575 15.1785C7.1337 15.281 7.25123 15.432 7.31868 15.5139C7.38612 15.5958 7.49518 15.723 7.56102 15.7964C7.62687 15.8699 7.75016 16.0003 7.835 16.0863C7.91984 16.1723 8.06299 16.3097 8.15312 16.3917C8.24324 16.4736 8.37546 16.5894 8.44694 16.649C8.51841 16.7085 8.6333 16.8006 8.70225 16.8535C8.77119 16.9064 8.90341 17.0033 8.99607 17.0687C9.08872 17.1341 9.24081 17.2358 9.33404 17.2947C9.42727 17.3536 9.56966 17.4398 9.65046 17.4862C9.73126 17.5325 9.86603 17.6066 9.94993 17.6507C10.0338 17.6949 10.1813 17.7675 10.2777 17.8121C10.374 17.8568 10.5309 17.9258 10.6263 17.9656C10.7217 18.0053 10.8946 18.0718 11.0105 18.1132C11.1264 18.1547 11.3026 18.2132 11.4021 18.2433C11.5015 18.2734 11.6948 18.3258 11.8315 18.3597C11.9682 18.3937 12.1767 18.439 12.2948 18.4604C12.4129 18.4818 12.5807 18.5096 12.6678 18.5222C12.7548 18.5349 12.8997 18.5528 12.9898 18.5621C13.08 18.5714 13.263 18.5851 13.3967 18.5926C13.5556 18.6016 13.7764 18.6038 14.0351 18.5991C14.2527 18.5951 14.512 18.5842 14.6115 18.5747C14.7109 18.5653 14.8686 18.5475 14.9618 18.5351C15.055 18.5227 15.2076 18.4995 15.3008 18.4835C15.3941 18.4675 15.539 18.4398 15.6229 18.4221C15.7068 18.4043 15.8467 18.3717 15.9337 18.3497C16.0207 18.3277 16.1783 18.2843 16.284 18.2533C16.3897 18.2222 16.5498 18.1708 16.64 18.1391C16.7301 18.1073 16.8725 18.0543 16.9564 18.0212C17.0403 17.9881 17.1725 17.9331 17.2502 17.899C17.3279 17.8649 17.4601 17.8042 17.544 17.7642C17.6279 17.7242 17.7703 17.6516 17.8604 17.6028C17.9506 17.554 18.1031 17.4671 18.1995 17.4096C18.2958 17.3522 18.4544 17.2519 18.5519 17.1867C18.6495 17.1215 18.7995 17.016 18.8853 16.9521C18.9711 16.8883 19.1004 16.7886 19.1726 16.7307C19.2447 16.6727 19.3719 16.5655 19.4551 16.4924C19.5383 16.4193 19.6847 16.2832 19.7803 16.1899C19.876 16.0967 20.0234 15.9439 20.108 15.8504C20.1926 15.7569 20.311 15.6218 20.371 15.5501C20.431 15.4785 20.5431 15.3363 20.62 15.2342C20.6969 15.1321 20.8079 14.9786 20.8668 14.8932C20.9256 14.8078 20.9807 14.7378 20.9892 14.7378C21.0008 14.7378 21.0026 14.748 20.9967 14.7801C20.9923 14.8035 20.9581 14.9039 20.9206 15.0033C20.8831 15.1028 20.8146 15.2731 20.7684 15.3819C20.7222 15.4907 20.624 15.7017 20.5502 15.8509C20.4765 16.0001 20.3682 16.206 20.3096 16.3086C20.251 16.4111 20.1535 16.5739 20.0929 16.6702C20.0324 16.7665 19.9317 16.9191 19.8692 17.0092C19.8067 17.0993 19.6995 17.2468 19.631 17.3369C19.5625 17.4271 19.4472 17.572 19.3748 17.659C19.3024 17.746 19.1718 17.896 19.0846 17.9924C18.9973 18.0887 18.8374 18.254 18.7292 18.3597C18.621 18.4653 18.4579 18.617 18.3668 18.6967C18.2757 18.7765 18.1434 18.8883 18.0728 18.9453C18.0022 19.0024 17.876 19.1004 17.7923 19.1632C17.7086 19.226 17.5535 19.3362 17.4477 19.408C17.3419 19.4798 17.1741 19.5881 17.0748 19.6486C16.9755 19.7092 16.823 19.7983 16.736 19.8466C16.649 19.895 16.4659 19.9897 16.3292 20.0571C16.1925 20.1246 15.989 20.2187 15.8772 20.2663C15.7653 20.3139 15.5915 20.3832 15.4909 20.4204C15.3903 20.4576 15.2301 20.5136 15.1349 20.5448C15.0397 20.5759 14.8728 20.6266 14.764 20.6574C14.6553 20.6882 14.4773 20.7339 14.3685 20.759C14.2598 20.7841 14.0919 20.82 13.9956 20.8388C13.8993 20.8576 13.7314 20.8859 13.6227 20.9016C13.5139 20.9173 13.3257 20.9401 13.2045 20.9523C13.0833 20.9645 12.9003 20.9799 12.7977 20.9864C12.6952 20.993 12.4358 20.9974 12.2214 20.9963ZM16.3405 16.2801C16.2348 16.2825 16.0986 16.28 16.0377 16.2745C15.9768 16.269 15.8827 16.2563 15.8286 16.2463C15.7745 16.2363 15.6815 16.2158 15.622 16.2008C15.5625 16.1858 15.4608 16.1553 15.396 16.1329C15.3312 16.1106 15.2118 16.0601 15.1306 16.0207C15.0494 15.9813 14.9222 15.9084 14.8481 15.8587C14.7739 15.8091 14.6725 15.7337 14.6228 15.6914C14.5731 15.649 14.4947 15.576 14.4486 15.5292C14.4025 15.4824 14.3345 15.4061 14.2975 15.3597C14.2605 15.3133 14.2001 15.2305 14.1633 15.1758C14.1265 15.121 14.0689 15.0242 14.0353 14.9607C14.0017 14.8971 13.9515 14.7864 13.9238 14.7146C13.8961 14.6428 13.8555 14.5129 13.8336 14.4258C13.8118 14.3388 13.7871 14.2145 13.7789 14.1496C13.7707 14.0846 13.7639 13.9247 13.7639 13.7942C13.7639 13.5988 13.7686 13.5289 13.7902 13.3986C13.8046 13.3116 13.8359 13.1641 13.8597 13.0709C13.8835 12.9777 13.9273 12.8354 13.9571 12.7546C13.9868 12.6739 14.0458 12.5385 14.0882 12.4538C14.1306 12.369 14.2056 12.2393 14.2548 12.1655C14.3041 12.0916 14.3879 11.9796 14.4411 11.9165C14.4942 11.8534 14.5823 11.7601 14.6367 11.7093C14.6912 11.6585 14.7917 11.5746 14.8601 11.523C14.9285 11.4714 15.0302 11.4013 15.0861 11.3673C15.1421 11.3332 15.2438 11.2773 15.3122 11.243C15.3805 11.2088 15.5076 11.1527 15.5946 11.1184C15.6817 11.0841 15.8178 11.0375 15.8971 11.0149C15.9765 10.9923 16.1112 10.959 16.1966 10.9409C16.282 10.9229 16.423 10.8977 16.51 10.885C16.597 10.8722 16.7572 10.8558 16.866 10.8485C16.9952 10.8398 17.1862 10.8378 17.4169 10.8426C17.7135 10.8488 17.77 10.8475 17.77 10.8344C17.77 10.8258 17.753 10.8038 17.7322 10.7855C17.7113 10.7672 17.6516 10.7243 17.5994 10.6901C17.5472 10.6559 17.4409 10.5895 17.3632 10.5426C17.2855 10.4957 17.1508 10.4166 17.0637 10.3669C16.9767 10.3172 16.8343 10.2375 16.7473 10.1898C16.6603 10.142 16.4213 10.0193 16.2162 9.9171C15.8433 9.73123 15.8433 9.73123 15.8341 9.64946C15.8291 9.60448 15.8152 9.51115 15.8032 9.44207C15.7913 9.37298 15.7639 9.25554 15.7425 9.18109C15.7211 9.10664 15.6836 8.99535 15.6591 8.93378C15.6347 8.87221 15.5841 8.76081 15.5466 8.68622C15.5091 8.61164 15.4417 8.49468 15.3968 8.42631C15.3518 8.35794 15.2764 8.25369 15.2292 8.19464C15.1821 8.1356 15.0942 8.03825 15.0339 7.97832C14.9737 7.9184 14.8769 7.83129 14.8188 7.78476C14.7607 7.73823 14.6573 7.66339 14.5889 7.61844C14.5205 7.57349 14.4036 7.50606 14.329 7.4686C14.2544 7.43115 14.1375 7.37804 14.0693 7.35059C14.001 7.32314 13.884 7.28289 13.8093 7.26116C13.7346 7.23943 13.5998 7.20682 13.5097 7.18869C13.4195 7.17057 13.2709 7.14794 13.1794 7.1384C13.0837 7.12843 12.9082 7.12107 12.766 7.12107C12.63 7.12107 12.4379 7.12872 12.339 7.13806C12.2401 7.1474 12.0804 7.16804 11.9841 7.18393C11.8877 7.19983 11.7403 7.22821 11.6563 7.24701C11.5724 7.26581 11.4402 7.29892 11.3625 7.32059C11.2848 7.34226 11.1526 7.38291 11.0687 7.41093C10.9848 7.43895 10.85 7.48887 10.7692 7.52185C10.6884 7.55484 10.5664 7.60765 10.498 7.63921C10.4296 7.67077 10.3051 7.73285 10.2212 7.77717C10.1372 7.82148 10.0152 7.88988 9.94993 7.92917C9.88467 7.96846 9.77279 8.0399 9.70132 8.08792C9.62984 8.13594 9.51298 8.21891 9.44162 8.2723C9.37026 8.3257 9.24729 8.42405 9.16834 8.49087C9.08939 8.5577 8.9626 8.67221 8.88658 8.74535C8.81056 8.81849 8.69273 8.93934 8.62473 9.01391C8.55672 9.08847 8.4514 9.21065 8.39067 9.28541C8.32995 9.36018 8.23442 9.48479 8.17838 9.56232C8.12235 9.63985 8.03596 9.76686 7.9864 9.84455C7.93684 9.92224 7.85069 10.0679 7.79497 10.1682C7.73924 10.2686 7.65893 10.4262 7.61651 10.5186C7.57409 10.6109 7.51408 10.75 7.48315 10.8277C7.45222 10.9054 7.40211 11.044 7.3718 11.1358C7.34149 11.2275 7.29677 11.38 7.27241 11.4748C7.24806 11.5695 7.21492 11.7182 7.19876 11.8052C7.1826 11.8922 7.16367 11.9929 7.1567 12.029C7.14972 12.0651 7.14004 12.0905 7.13519 12.0855C7.13034 12.0805 7.11134 12.0256 7.09297 11.9634C7.0746 11.9013 7.044 11.7818 7.02497 11.6979C7.00594 11.614 6.9778 11.4741 6.96243 11.3871C6.94707 11.3001 6.9263 11.1679 6.91627 11.0933C6.90624 11.0187 6.89044 10.889 6.88116 10.8051C6.87188 10.7212 6.86103 10.4949 6.85706 10.3022C6.85251 10.0815 6.85467 9.87038 6.86292 9.73154C6.87011 9.61034 6.88627 9.425 6.89883 9.31967C6.91138 9.21434 6.9345 9.0516 6.95021 8.95804C6.96591 8.86448 6.99626 8.70911 7.01765 8.61277C7.03904 8.51643 7.07921 8.35565 7.10693 8.25549C7.13464 8.15532 7.18086 8.00276 7.20963 7.91647C7.23839 7.83017 7.30329 7.65532 7.35384 7.5279C7.40439 7.40048 7.51054 7.16656 7.58972 7.00807C7.6689 6.84957 7.78135 6.64088 7.83959 6.54431C7.89784 6.44774 7.99258 6.29904 8.05013 6.21387C8.10768 6.1287 8.20612 5.99158 8.2689 5.90917C8.33168 5.82676 8.43221 5.70085 8.49232 5.62938C8.55242 5.5579 8.67278 5.42314 8.75979 5.32991C8.84681 5.23668 8.99635 5.08834 9.09212 5.00028C9.18788 4.91221 9.31963 4.79567 9.3849 4.74129C9.45016 4.68691 9.57983 4.58542 9.67306 4.51575C9.7663 4.44609 9.92394 4.33565 10.0234 4.27034C10.1228 4.20503 10.2754 4.11089 10.3624 4.06114C10.4494 4.0114 10.6179 3.92209 10.7368 3.86268C10.8557 3.80328 11.0337 3.72068 11.1324 3.67914C11.231 3.6376 11.388 3.576 11.4812 3.54226C11.5744 3.50852 11.727 3.45808 11.8202 3.43018C11.9134 3.40227 12.0584 3.36225 12.1423 3.34123C12.2262 3.32021 12.3582 3.28973 12.4356 3.2735C12.5131 3.25728 12.6532 3.2316 12.7471 3.21646C12.8409 3.20131 13.0166 3.17833 13.1374 3.1654C13.2794 3.1502 13.477 3.13946 13.6961 3.13502C13.9056 3.13077 14.1237 3.13319 14.2668 3.14137C14.3942 3.14864 14.5849 3.1648 14.6906 3.17728C14.7963 3.18975 14.9564 3.21276 15.0466 3.2284C15.1367 3.24405 15.2892 3.27444 15.3856 3.29593C15.4819 3.31742 15.637 3.35556 15.7303 3.38068C15.8235 3.4058 15.9837 3.45458 16.0862 3.48909C16.1888 3.5236 16.3439 3.57994 16.4309 3.61428C16.5179 3.64863 16.6679 3.7122 16.7643 3.75555C16.8606 3.7989 17.0081 3.87045 17.092 3.91454C17.1759 3.95864 17.3041 4.02937 17.3769 4.07171C17.4496 4.11406 17.5735 4.1897 17.652 4.2398C17.7306 4.2899 17.8592 4.37716 17.9379 4.43371C18.0165 4.49026 18.1535 4.59475 18.2424 4.66591C18.3313 4.73707 18.461 4.8464 18.5306 4.90887C18.6002 4.97134 18.7121 5.07638 18.7793 5.14228C18.8465 5.20818 18.9639 5.33075 19.04 5.41466C19.1162 5.49857 19.2246 5.62316 19.2809 5.69153C19.3371 5.7599 19.4309 5.87953 19.4894 5.95738C19.5478 6.03523 19.6394 6.16495 19.6929 6.24565C19.7464 6.32634 19.8257 6.45112 19.869 6.52292C19.9124 6.59473 19.9892 6.72958 20.0397 6.8226C20.0902 6.91562 20.1692 7.07295 20.2152 7.17223C20.2612 7.27151 20.3332 7.43919 20.3752 7.54485C20.4172 7.65051 20.4839 7.8349 20.5233 7.95461C20.5627 8.07432 20.6255 8.29498 20.6628 8.44496C20.7 8.59495 20.748 8.82247 20.7693 8.95056C20.7906 9.07865 20.8162 9.25719 20.8261 9.34732C20.836 9.43744 20.8491 9.58237 20.8552 9.66939C20.8613 9.7564 20.8662 9.96745 20.8662 10.1384C20.8662 10.3093 20.8613 10.5203 20.8552 10.6073C20.8491 10.6944 20.836 10.8393 20.8261 10.9294C20.8162 11.0195 20.7906 11.1981 20.7693 11.3262C20.748 11.4543 20.7 11.6818 20.6628 11.8318C20.6255 11.9818 20.5627 12.2024 20.5233 12.3221C20.4839 12.4418 20.4174 12.6258 20.3756 12.7309C20.3338 12.836 20.2642 12.9987 20.2209 13.0925C20.1776 13.1863 20.0984 13.3444 20.0449 13.4438C19.9913 13.5433 19.9071 13.6908 19.8577 13.7716C19.8083 13.8524 19.727 13.9795 19.677 14.0541C19.6269 14.1287 19.5364 14.2558 19.4757 14.3366C19.4151 14.4174 19.3125 14.5471 19.2478 14.6248C19.1831 14.7025 19.0619 14.8394 18.9784 14.9291C18.895 15.0188 18.7619 15.1521 18.6827 15.2253C18.6036 15.2985 18.479 15.4063 18.4059 15.4648C18.3328 15.5233 18.2166 15.6097 18.1478 15.6568C18.0789 15.7039 17.971 15.7731 17.9079 15.8106C17.8448 15.848 17.742 15.9044 17.6794 15.9358C17.6168 15.9672 17.5035 16.0185 17.4276 16.0497C17.3518 16.081 17.2313 16.1244 17.1598 16.1462C17.0883 16.168 16.9764 16.1979 16.9112 16.2127C16.8459 16.2274 16.734 16.2476 16.6626 16.2576C16.5911 16.2676 16.4462 16.2777 16.3405 16.2801ZM14.0182 9.24796C13.9902 9.25108 13.9405 9.24932 13.9078 9.24404C13.8751 9.23876 13.83 9.22681 13.8077 9.21749C13.7854 9.20817 13.7427 9.18258 13.7128 9.16062C13.6828 9.13866 13.6404 9.09362 13.6184 9.06053C13.5965 9.02745 13.5699 8.96958 13.5595 8.93195C13.5462 8.88435 13.5421 8.83809 13.5458 8.77991C13.5495 8.72293 13.5605 8.6759 13.5805 8.63229C13.5966 8.59709 13.6331 8.54336 13.6616 8.51289C13.6923 8.48011 13.7445 8.44198 13.7895 8.41951C13.8597 8.38448 13.874 8.3815 13.973 8.38131C14.0608 8.38114 14.0924 8.38605 14.1463 8.40823C14.1826 8.42317 14.2396 8.46037 14.2731 8.49104C14.3123 8.5268 14.3471 8.5731 14.3703 8.62038C14.3999 8.68052 14.4075 8.71127 14.4115 8.78801C14.4152 8.85807 14.4113 8.89846 14.3961 8.94665C14.3849 8.9822 14.3546 9.04011 14.3286 9.07534C14.3027 9.11056 14.2554 9.15612 14.2235 9.17659C14.1916 9.19705 14.1438 9.2202 14.1173 9.22804C14.0908 9.23587 14.0462 9.24484 14.0182 9.24796Z" fill="url(#paint0_linear_6900_11790)"/>
<defs>
<linearGradient id="paint0_linear_6900_11790" x1="8" y1="3" x2="15.5" y2="22.5" gradientUnits="userSpaceOnUse">
<stop stop-color="#5DCBD0"/>
<stop offset="0.921882" stop-color="#A439B8"/>
<stop offset="1" stop-color="#AA2DB6"/>
</linearGradient>
</defs>
</svg>
