<svg width="24" height="24" viewBox="0 0 24 24" fill="none" xmlns="http://www.w3.org/2000/svg">
<path d="M18.6064 5.63352C18.6064 7.15592 17.7044 8.45938 16.4252 9C15.5335 7.41004 15.0377 6.19221 14.9931 6.08113C14.9739 6.03439 14.9298 6.00384 14.8803 6.00384H11.6246C11.6126 5.88209 11.6064 5.75852 11.6064 5.63355C11.6064 3.627 13.1736 2 15.1064 2C17.0392 1.99997 18.6064 3.62697 18.6064 5.63352Z" fill="#D33D2A"/>
<path d="M21.3907 13.5742C21.3585 13.5538 21.3268 13.532 21.2949 13.5102C20.4798 12.9548 19.7335 12.2992 19.0612 11.6058C19.0591 11.6036 19.0567 11.6011 19.0544 11.5989C18.9015 11.4413 18.7525 11.2814 18.607 11.1205C18.6041 11.1172 18.6017 11.1144 18.6002 11.1128L18.5982 11.1103C18.4146 10.9063 18.2372 10.7006 18.0663 10.4947L18.0642 10.4928C17.3632 9.64673 16.7695 8.7946 16.2908 8.03855C16.2731 8.01066 16.2553 7.98251 16.2379 7.95491C15.3917 6.60564 14.9213 5.58155 14.8782 5.48633C14.8589 5.44548 14.8155 5.4187 14.7667 5.4187H9.12074C9.07254 5.4187 9.02939 5.44548 9.01075 5.48661C8.93713 5.65057 7.61287 8.57131 5.29221 11.163C5.18105 11.287 5.06808 11.4098 4.95279 11.5318C4.94983 11.5351 4.94657 11.5384 4.94334 11.5418C4.32748 12.1915 3.64804 12.8101 2.90889 13.3468C2.86424 13.3788 2.8193 13.4108 2.77436 13.4425L2.77289 13.4436C2.71019 13.4878 2.64723 13.5314 2.58365 13.5742C2.56414 13.5874 2.54522 13.6004 2.5257 13.6134L2.53072 13.6198C2.35865 13.7423 2.18154 13.8629 2 13.9794L7.85587 19.4466L9.57365 21.0506L9.60321 21.0782C10.1523 21.5908 10.8571 21.9047 11.6185 21.9809C11.6457 21.9836 11.6731 21.9861 11.7 21.9883H11.7018C11.7204 21.99 11.7394 21.9916 11.758 21.9925C11.776 21.9941 11.794 21.9947 11.8124 21.9955C11.8343 21.9969 11.8564 21.998 11.8783 21.9983C11.8949 21.9991 11.9108 21.9996 11.9274 21.9996C11.9469 21.9999 11.9667 21.9999 11.9868 21.9999C12.2207 21.9999 12.4501 21.9778 12.6737 21.9347C13.3126 21.8122 13.8995 21.5185 14.371 21.0782L20.5042 15.3521L22 13.9556C21.7922 13.8328 21.5896 13.7036 21.3942 13.5708L21.3907 13.5742Z" fill="#3C7EB2"/>
<path d="M17.3589 9.94772L14.9721 7.53916C14.9704 7.53758 14.9683 7.53561 14.9628 7.53718C14.9573 7.53916 14.9573 7.54192 14.9573 7.5447V8.64305C14.9573 8.73001 14.901 8.80667 14.8138 8.8383C14.7266 8.86952 14.6301 8.84819 14.5674 8.78376L13.918 8.11701C13.9163 8.11543 13.9146 8.11345 13.9095 8.11463C13.9045 8.11621 13.904 8.11899 13.9036 8.12096L13.6987 9.29836C13.6831 9.39005 13.606 9.46001 13.5078 9.47265C13.4096 9.4849 13.3156 9.43668 13.2737 9.3525L12.3923 7.56327C12.3911 7.5609 12.3893 7.55892 12.3843 7.55892C12.3788 7.55932 12.3775 7.5617 12.3767 7.56445L12.1667 8.17667C12.165 8.18221 12.1629 8.18734 12.1603 8.19247C12.1586 8.19643 12.1569 8.20038 12.1548 8.20394C12.1518 8.21027 12.1485 8.21619 12.1447 8.22212C12.1375 8.23359 12.129 8.24465 12.1193 8.25414L12.1176 8.25612C12.1125 8.26125 12.107 8.26639 12.1015 8.27074C12.0951 8.27627 12.0879 8.28141 12.0808 8.28576C12.0753 8.28932 12.0698 8.29247 12.0638 8.29565L12.0621 8.29683C12.0558 8.29961 12.0494 8.30236 12.0431 8.30512L12.041 8.30592L12.0718 8.16561L12.0579 5.62109H14.7972C14.9157 5.87443 15.2917 6.85818 16.0821 8.10947C16.3298 8.50194 16.6087 8.9209 16.9178 9.3517C17.0583 9.54814 17.2056 9.74732 17.3589 9.94772Z" fill="white"/>
<path d="M12.0723 8.16559L12.0414 8.3059C12.0414 8.3059 12.0414 8.3063 12.041 8.3059C12.0346 8.30867 12.0283 8.31063 12.0219 8.31261C12.016 8.31459 12.0101 8.31576 12.0042 8.31696C11.9893 8.32052 11.9741 8.3221 11.958 8.3225C11.8589 8.32368 11.7755 8.26994 11.7425 8.18376L11.5372 7.65099C11.5359 7.64783 11.5351 7.64545 11.5287 7.64625C11.5228 7.64665 11.522 7.64903 11.5211 7.65219L11.1211 9.3011C11.0978 9.39754 11.008 9.46432 10.9026 9.46432H10.8997C10.7926 9.46274 10.7033 9.39397 10.6825 9.29594L10.3802 7.88614C10.3798 7.88416 10.3794 7.88141 10.3743 7.88021C10.3692 7.87863 10.3675 7.88139 10.3658 7.88299L9.60979 8.71694C9.54926 8.78334 9.45443 8.80548 9.36805 8.77345C9.28127 8.74183 9.22793 8.66516 9.233 8.57861C9.23849 8.4711 9.23385 8.33396 9.22833 8.1889C9.22367 8.0565 9.21817 7.9071 9.22029 7.7585C9.22029 7.75572 9.22029 7.75336 9.21562 7.75179C9.21012 7.74981 9.20758 7.75179 9.20546 7.75376C8.62126 8.31659 7.18108 9.3671 6.77637 9.65999C6.84832 9.56157 6.91904 9.46317 6.98761 9.36594C8.27117 7.55576 9.03275 5.95507 9.18599 5.62109H12.0583L12.0723 8.16559Z" fill="white"/>
<path d="M12.8951 13.4155C12.8951 13.5632 12.8735 13.7119 12.8294 13.8568L12.7428 14.142C12.4122 15.2298 11.8319 16.2376 11.0419 17.095C10.8973 17.2521 10.8216 17.4489 10.8216 17.6487C10.8216 17.7594 10.845 17.8712 10.8928 17.9772L12.6736 21.9347C12.4501 21.9778 12.2207 21.9999 11.9868 21.9999H11.951C11.943 21.9999 11.9354 21.9999 11.9274 21.9996C11.9108 21.9996 11.8948 21.9991 11.8783 21.9983C11.8564 21.998 11.8342 21.9969 11.8123 21.9955C11.794 21.9947 11.776 21.9941 11.7579 21.9925C11.7393 21.9916 11.7204 21.99 11.7018 21.9883H11.7C11.6731 21.9861 11.6456 21.9836 11.6184 21.9809C10.8479 21.9 10.1265 21.5668 9.57365 21.0506L7.85587 19.4466L2 13.9794C2.18154 13.8629 2.35863 13.7423 2.53072 13.6198L2.52569 13.6134C2.54521 13.6004 2.56414 13.5874 2.58366 13.5742C2.64723 13.5314 2.71021 13.4878 2.77288 13.4436C2.77317 13.4434 2.77376 13.4431 2.77436 13.4425C2.8193 13.4108 2.86423 13.3788 2.90888 13.3468C3.64804 12.8101 4.32748 12.1915 4.94333 11.5418C4.94659 11.5384 4.94983 11.5351 4.95278 11.5318C5.06808 11.4098 5.18105 11.287 5.2922 11.163C7.61285 8.57133 8.93713 5.65059 9.01075 5.48661C9.02936 5.44548 9.07254 5.4187 9.12074 5.4187H12.0566L12.0578 5.62104H9.18548C9.03234 5.95504 8.27072 7.55577 6.98725 9.36573C6.91865 9.46317 6.84799 9.56144 6.77584 9.65997C7.1806 9.36711 8.62077 8.31651 9.205 7.75366C9.20707 7.75173 9.20974 7.7498 9.21507 7.75173C9.21978 7.7534 9.21978 7.75559 9.21978 7.75835C9.21771 7.90713 9.22333 8.05646 9.22775 8.18868C9.23337 8.33388 9.23811 8.47106 9.23249 8.57844C9.22747 8.66511 9.28069 8.74186 9.36762 8.77333C9.45395 8.80535 9.54887 8.78326 9.60918 8.71675L10.3654 7.88284C10.3669 7.88117 10.3687 7.87842 10.3737 7.88008C10.379 7.88119 10.3793 7.88422 10.3796 7.88615L10.6821 9.29586C10.7028 9.39386 10.7921 9.4626 10.8991 9.46424H10.9021C11.0076 9.46424 11.0972 9.39744 11.1205 9.30111L11.5206 7.65206C11.5214 7.64902 11.5223 7.64655 11.5282 7.64626C11.5345 7.64544 11.5353 7.64764 11.5368 7.65095L11.742 8.18371C11.7751 8.26984 11.8585 8.32366 11.9575 8.32228C11.9735 8.32202 11.9889 8.32035 12.0036 8.31677C12.0096 8.31566 12.0155 8.31457 12.0214 8.31264C12.0276 8.31044 12.0341 8.30851 12.0403 8.30573C12.0409 8.30628 12.0409 8.30573 12.0409 8.30573L11.9398 8.66237C11.5658 9.98126 11.8097 11.3863 12.6112 12.5269C12.7987 12.7938 12.8951 13.1027 12.8951 13.4155Z" fill="#448AB9"/>
</svg>
