<svg width="24" height="24" viewBox="0 0 24 24" fill="none" xmlns="http://www.w3.org/2000/svg">
<path d="M12 22C17.5228 22 22 17.5228 22 12C22 6.47715 17.5228 2 12 2C6.47715 2 2 6.47715 2 12C2 17.5228 6.47715 22 12 22Z" fill="#0D1633"/>
<path fill-rule="evenodd" clip-rule="evenodd" d="M13.4208 18.6542C13.4208 18.846 13.5966 18.9896 13.7811 18.9406C16.7845 18.1431 19 15.3765 19 12.086C19 8.17251 15.866 5 12 5C8.13402 5 5 8.17251 5 12.086C5 15.4521 7.31857 18.27 10.4272 18.9925C10.6097 19.0349 10.7792 18.892 10.7792 18.7039V17.0251C10.7792 16.8895 10.689 16.7713 10.5607 16.7295C9.57613 16.4083 8.77985 15.8397 8.17182 15.0236C7.52396 14.148 7.20003 13.1333 7.20003 11.9797C7.20003 10.4554 7.76576 9.20676 8.89722 8.23382C9.83709 7.42766 10.907 7.02458 12.1069 7.02458C13.6535 7.02458 14.9013 7.59213 15.8503 8.72723C16.6168 9.64458 17 10.7033 17 11.9032C17 13.08 16.6601 14.1341 15.9803 15.0653C15.4102 15.8517 14.6297 16.4064 13.639 16.7294C13.5107 16.7712 13.4208 16.8893 13.4208 17.0247V18.6542ZM13.3319 13.0466C13.3319 12.8796 13.1971 12.7442 13.0308 12.7442H11.1761C11.0098 12.7442 10.875 12.8796 10.875 13.0466V13.1614C10.875 13.4178 10.5856 13.5448 10.4411 13.3334C10.1829 12.9556 10.0538 12.509 10.0538 11.9936C10.0538 11.4052 10.2568 10.8955 10.6629 10.4647C11.0689 10.0338 11.5502 9.81833 12.1069 9.81833C12.6589 9.81833 13.138 10.0338 13.544 10.4647C13.9501 10.8955 14.1531 11.4052 14.1531 11.9936C14.1531 12.4933 14.0255 12.9337 13.7704 13.3147C13.6263 13.5298 13.3319 13.4038 13.3319 13.1446V13.0466Z" fill="#65BAF9"/>
</svg>
