<svg width="24" height="24" viewBox="0 0 24 24" fill="none" xmlns="http://www.w3.org/2000/svg">
<path d="M12 22C17.5228 22 22 17.5228 22 12C22 6.47715 17.5228 2 12 2C6.47715 2 2 6.47715 2 12C2 17.5228 6.47715 22 12 22Z" fill="#3E73C4"/>
<path d="M15 4.3551C15 4.09077 15.1967 3.94134 15.4372 4.02177C18.6637 5.10081 21 8.2648 21 12C21 15.7352 18.6637 18.8992 15.4372 19.9782C15.1967 20.0586 15 19.9092 15 19.6449V18.9949C15 18.8005 15.1122 18.6217 15.2866 18.5549C17.8397 17.576 19.6666 15.0073 19.6666 12C19.6666 8.99268 17.8397 6.42396 15.2866 5.44514C15.1276 5.38414 15 5.18242 15 5.00518V4.3551Z" fill="white"/>
<path d="M8.56279 4.02177C8.80332 3.94134 9 4.09077 9 4.3551V5.00518C9 5.18242 8.87235 5.38414 8.71338 5.44514C6.16033 6.42396 4.33333 8.99268 4.33333 12C4.33333 15.0073 6.16033 17.576 8.71338 18.5549C8.87235 18.6158 9 18.8176 9 18.9949V19.6449C9 19.9092 8.80332 20.0586 8.56279 19.9782C5.33632 18.8992 3 15.7352 3 12C3 8.2648 5.33632 5.10081 8.56279 4.02177Z" fill="white"/>
<path d="M11.719 6H12.3906C12.5762 6 12.7266 6.16783 12.7266 6.37496V7.56976C13.8078 7.786 14.4975 8.47165 14.7212 9.61425C14.7632 9.82921 14.6099 10.0314 14.4129 10.0314H13.7063C13.5556 10.0314 13.4262 9.9173 13.3836 9.75595C13.1924 9.03294 12.7297 8.71936 11.925 8.71936C11.0354 8.71936 10.5743 9.19776 10.5743 9.87198C10.5743 10.5832 10.8377 10.9389 12.1994 11.1596C14.0445 11.4415 15 12.0302 15 13.7835C15 15.1161 14.1137 16.1943 12.7266 16.4403V17.625C12.7266 17.8321 12.5762 18 12.3906 18H11.719C11.5334 18 11.3831 17.8321 11.3831 17.625V16.4409C9.91768 16.219 9.1997 15.3031 9.00459 14.0548C8.97143 13.8426 9.12232 13.6485 9.31531 13.6485H10.0815C10.2424 13.6485 10.3771 13.777 10.4108 13.9526C10.5532 14.6942 10.9391 15.2672 12.1118 15.2672C12.9791 15.2672 13.5944 14.7276 13.5944 13.9184C13.5944 13.109 13.2318 12.8027 11.9579 12.5697C10.0802 12.2876 9.19056 11.65 9.19056 10.007C9.19056 8.73759 10.0514 7.74812 11.3831 7.53674V6.37496C11.3831 6.16783 11.5334 6 11.719 6Z" fill="white"/>
</svg>
