<svg width="24" height="24" viewBox="0 0 24 24" fill="none" xmlns="http://www.w3.org/2000/svg">
<path d="M12 22C17.5228 22 22 17.5228 22 12C22 6.47715 17.5228 2 12 2C6.47715 2 2 6.47715 2 12C2 17.5228 6.47715 22 12 22Z" fill="#26A17B"/>
<path fill-rule="evenodd" clip-rule="evenodd" d="M13.2013 12.8647V12.8635C13.1325 12.8685 12.7781 12.8897 11.9875 12.8897C11.3562 12.8897 10.9119 12.871 10.7556 12.8635V12.8653C8.32562 12.7585 6.51187 12.3353 6.51187 11.8291C6.51187 11.3235 8.32562 10.9003 10.7556 10.7916V12.4441C10.9144 12.4553 11.3694 12.4822 11.9981 12.4822C12.7525 12.4822 13.1306 12.451 13.2013 12.4447V10.7928C15.6263 10.901 17.4356 11.3241 17.4356 11.8291C17.4356 12.3353 15.6263 12.7572 13.2013 12.8647V12.8647ZM13.2013 10.621V9.14221H16.585V6.88721H7.37188V9.14221H10.7556V10.6203C8.00562 10.7466 5.9375 11.2916 5.9375 11.9441C5.9375 12.5966 8.00562 13.141 10.7556 13.2678V18.0066H13.2013V13.2666C15.9469 13.1403 18.01 12.596 18.01 11.9441C18.01 11.2922 15.9469 10.7478 13.2013 10.621" fill="white"/>
</svg>
