<svg width="24" height="24" viewBox="0 0 24 24" fill="none" xmlns="http://www.w3.org/2000/svg">
<g clip-path="url(#clip0_7039_11223)">
<path d="M12 24C18.6274 24 24 18.6274 24 12C24 5.37258 18.6274 0 12 0C5.37258 0 0 5.37258 0 12C0 18.6274 5.37258 24 12 24Z" fill="#26A17B"/>
<path fill-rule="evenodd" clip-rule="evenodd" d="M13.4411 13.0375V13.036C13.3586 13.042 12.9334 13.0675 11.9846 13.0675C11.2271 13.0675 10.6939 13.045 10.5064 13.036V13.0383C7.59036 12.91 5.41386 12.4023 5.41386 11.7948C5.41386 11.188 7.59036 10.6803 10.5064 10.5498V12.5328C10.6969 12.5463 11.2429 12.5785 11.9974 12.5785C12.9026 12.5785 13.3564 12.541 13.4411 12.5335V10.5513C16.3511 10.681 18.5224 11.1888 18.5224 11.7948C18.5224 12.4023 16.3511 12.9085 13.4411 13.0375V13.0375ZM13.4411 10.345V8.5705H17.5016V5.8645H6.44586V8.5705H10.5064V10.3443C7.20636 10.4958 4.72461 11.1498 4.72461 11.9328C4.72461 12.7158 7.20636 13.369 10.5064 13.5213V19.2078H13.4411V13.5198C16.7359 13.3683 19.2116 12.715 19.2116 11.9328C19.2116 11.1505 16.7359 10.4973 13.4411 10.345" fill="white"/>
</g>
<defs>
<clipPath id="clip0_7039_11223">
<rect width="24" height="24" rx="12" fill="white"/>
</clipPath>
</defs>
</svg>
