<svg width="24" height="24" viewBox="0 0 24 24" fill="none" xmlns="http://www.w3.org/2000/svg">
<g clip-path="url(#clip0_6990_11263)">
<g clip-path="url(#clip1_6990_11263)">
<circle cx="12" cy="12" r="12" fill="white"/>
<path d="M1 -3.5L12.3098 24.0001L22.5 -3.5" stroke="#F3C15B" stroke-width="5.09735"/>
<circle cx="12" cy="12" r="10" fill="white" fill-opacity="0.8"/>
<path d="M12.5872 3C8.95515 3.01432 6.0143 5.88913 6 9.44003C6.00037 10.1512 6.11813 10.8576 6.34873 11.532C6.43146 11.7531 6.59768 11.9348 6.81322 12.0398C7.02876 12.1447 7.27724 12.165 7.50756 12.0963C7.72986 12.0127 7.91125 11.8494 8.01489 11.6398C8.11853 11.4301 8.13663 11.1897 8.06553 10.9675C7.8704 10.4421 7.7833 9.88419 7.80922 9.32582C7.83675 8.42533 8.1315 7.5521 8.65757 6.81245C9.18364 6.0728 9.91833 5.49864 10.7722 5.1599C11.626 4.82116 12.5622 4.73244 13.4667 4.90455C14.3712 5.07666 15.205 5.50217 15.8666 6.12927C16.5282 6.75637 16.989 7.558 17.1929 8.43656C17.3968 9.31511 17.3351 10.2327 17.0151 11.0775C16.6952 11.9224 16.1309 12.6581 15.391 13.195C14.6511 13.7319 13.7675 14.047 12.8477 14.1017C12.8477 14.1017 11.9232 14.1566 11.4632 14.2118C11.2936 14.2355 11.1253 14.2681 10.9593 14.3097C10.9479 14.3208 10.9324 14.3271 10.9162 14.3271C10.9001 14.3271 10.8846 14.3208 10.8732 14.3097C10.8652 14.2993 10.8609 14.2866 10.8609 14.2736C10.8609 14.2605 10.8652 14.2478 10.8732 14.2374L11.0165 13.474L11.8848 9.65551C11.935 9.42656 11.89 9.18751 11.7599 8.99097C11.6297 8.79442 11.425 8.65647 11.1909 8.60746C10.9567 8.55845 10.7122 8.6024 10.5111 8.72963C10.3101 8.85687 10.169 9.05698 10.1189 9.28593C10.1189 9.28593 8.05333 18.6321 8.05333 18.7174C7.99667 18.9356 8.03096 19.1668 8.14868 19.3603C8.26639 19.5538 8.45789 19.6936 8.68105 19.7491C8.68608 19.7505 8.6912 19.7517 8.69639 19.7525H8.74451C8.96737 19.8087 9.20395 19.7761 9.40223 19.6619C9.60051 19.5476 9.74426 19.3611 9.80187 19.1432C9.80413 19.1356 9.806 19.1278 9.80745 19.12C9.80605 19.106 9.80605 19.0918 9.80745 19.0778C9.8329 18.968 10.0934 17.7242 10.0934 17.7242C10.1897 17.266 10.4272 16.8475 10.7739 16.5252C11.1207 16.2028 11.5601 15.992 12.033 15.921C12.2325 15.891 13.0705 15.8361 13.0705 15.8361C16.6883 15.4849 19.3282 12.3316 18.9669 8.79429C18.8075 7.23464 18.0715 5.78545 16.8969 4.71864C15.7223 3.65183 14.1899 3.04072 12.5872 3Z" fill="#293943"/>
<path d="M12.9869 17.8492C12.8458 17.8205 12.7003 17.8192 12.5586 17.8454C12.417 17.8717 12.2821 17.925 12.1615 18.0022C12.0409 18.0795 11.9371 18.1792 11.856 18.2957C11.7748 18.4122 11.718 18.5431 11.6886 18.6811C11.6886 18.6866 11.6865 18.692 11.6851 18.6975C11.6546 18.8347 11.652 18.9765 11.6776 19.1147C11.7031 19.253 11.7563 19.3849 11.834 19.503C11.9117 19.6212 12.0125 19.7232 12.1306 19.8032C12.2486 19.8833 12.3817 19.9398 12.5221 19.9695C12.5224 19.9694 12.5228 19.9693 12.5231 19.9693C12.5235 19.9693 12.5238 19.9694 12.5242 19.9695H12.5545C12.8319 20.035 13.1246 19.9901 13.3681 19.8446C13.6117 19.6992 13.7862 19.4651 13.8532 19.1939C13.8532 19.1898 13.8553 19.185 13.8567 19.1809V19.122C13.9058 18.8413 13.8429 18.5529 13.6812 18.3162C13.5194 18.0794 13.2709 17.9123 12.9869 17.8492Z" fill="#293943"/>
</g>
</g>
<defs>
<clipPath id="clip0_6990_11263">
<rect width="24" height="24" fill="white"/>
</clipPath>
<clipPath id="clip1_6990_11263">
<rect width="24" height="24" rx="12" fill="white"/>
</clipPath>
</defs>
</svg>
