<svg width="24" height="24" viewBox="0 0 24 24" fill="none" xmlns="http://www.w3.org/2000/svg">
<g clip-path="url(#clip0_6990_11263)">
<circle cx="12" cy="12" r="10" fill="white"/>
<path d="M2.83301 -0.916748L12.2578 22L20.7497 -0.916748" stroke="#F3C15B" stroke-width="4.24779"/>
<circle cx="12.0003" cy="12.0001" r="8.33333" fill="white" fill-opacity="0.8"/>
<path d="M12.4893 4.5C9.46262 4.51193 7.01191 6.90761 7 9.8667C7.00031 10.4593 7.09844 11.048 7.29061 11.61C7.35955 11.7943 7.49807 11.9457 7.67769 12.0331C7.8573 12.1206 8.06437 12.1375 8.2563 12.0803C8.44155 12.0106 8.59271 11.8745 8.67908 11.6998C8.76544 11.5251 8.78053 11.3248 8.72128 11.1395C8.55867 10.7017 8.48608 10.2368 8.50768 9.77152C8.53063 9.02111 8.77625 8.29341 9.21464 7.67704C9.65303 7.06066 10.2653 6.5822 10.9768 6.29992C11.6884 6.01763 12.4685 5.9437 13.2223 6.08712C13.976 6.23055 14.6708 6.58514 15.2222 7.10773C15.7735 7.63031 16.1575 8.29834 16.3274 9.03046C16.4974 9.76259 16.4459 10.5272 16.1793 11.2313C15.9127 11.9353 15.4425 12.5484 14.8259 12.9958C14.2093 13.4433 13.4729 13.7058 12.7064 13.7514C12.7064 13.7514 11.936 13.7972 11.5527 13.8432C11.4113 13.8629 11.2711 13.8901 11.1328 13.9247C11.1232 13.934 11.1103 13.9392 11.0969 13.9392C11.0834 13.9392 11.0705 13.934 11.061 13.9247C11.0543 13.9161 11.0507 13.9055 11.0507 13.8946C11.0507 13.8838 11.0543 13.8732 11.061 13.8645L11.1804 13.2284L11.904 10.0463C11.9458 9.85546 11.9083 9.65626 11.7999 9.49247C11.6914 9.32868 11.5209 9.21372 11.3257 9.17288C11.1306 9.13204 10.9268 9.16866 10.7593 9.27469C10.5917 9.38073 10.4742 9.54748 10.4324 9.73827C10.4324 9.73827 8.71111 17.5268 8.71111 17.5978C8.66389 17.7796 8.69247 17.9724 8.79057 18.1336C8.88866 18.2948 9.04824 18.4113 9.2342 18.4576C9.2384 18.4588 9.24267 18.4597 9.24699 18.4604H9.2871C9.4728 18.5073 9.66995 18.4801 9.83519 18.3849C10.0004 18.2897 10.1202 18.1342 10.1682 17.9527C10.1701 17.9463 10.1717 17.9399 10.1729 17.9334C10.1717 17.9216 10.1717 17.9098 10.1729 17.8981C10.1941 17.8066 10.4112 16.7702 10.4112 16.7702C10.4914 16.3883 10.6893 16.0396 10.9783 15.771C11.2672 15.5023 11.6334 15.3266 12.0275 15.2675C12.1938 15.2425 12.8921 15.1967 12.8921 15.1967C15.9069 14.9041 18.1068 12.2763 17.8057 9.32858C17.6729 8.02887 17.0596 6.8212 16.0807 5.9322C15.1019 5.04319 13.8249 4.53394 12.4893 4.5Z" fill="#293943"/>
<path d="M12.8224 16.8743C12.7048 16.8503 12.5836 16.8492 12.4655 16.8711C12.3475 16.893 12.2351 16.9374 12.1346 17.0018C12.0341 17.0661 11.9476 17.1492 11.88 17.2463C11.8124 17.3434 11.765 17.4525 11.7405 17.5675C11.7405 17.5721 11.7388 17.5766 11.7376 17.5812C11.7122 17.6955 11.71 17.8137 11.7313 17.9289C11.7526 18.0441 11.7969 18.154 11.8617 18.2525C11.9264 18.3509 12.0104 18.4359 12.1088 18.5026C12.2072 18.5693 12.3181 18.6164 12.4351 18.6412C12.4353 18.6411 12.4356 18.641 12.4359 18.641C12.4362 18.641 12.4365 18.6411 12.4368 18.6412H12.4621C12.6933 18.6958 12.9372 18.6583 13.1401 18.5371C13.3431 18.4159 13.4885 18.2208 13.5443 17.9948C13.5443 17.9914 13.5461 17.9874 13.5472 17.984V17.9349C13.5881 17.701 13.5358 17.4607 13.401 17.2634C13.2661 17.0661 13.0591 16.9268 12.8224 16.8743Z" fill="#293943"/>
</g>
<defs>
<clipPath id="clip0_6990_11263">
<rect x="2" y="2" width="20" height="20" rx="10" fill="white"/>
</clipPath>
</defs>
</svg>
