<svg width="24" height="24" viewBox="0 0 24 24" fill="none" xmlns="http://www.w3.org/2000/svg">
<path fill-rule="evenodd" clip-rule="evenodd" d="M22 12C22 17.5228 17.5228 22 12 22C6.47715 22 2 17.5228 2 12C2 6.47715 6.47715 2 12 2C17.5228 2 22 6.47715 22 12ZM17.1315 6.41849L17.1817 6.45857C17.3802 6.61713 18 7.15782 18 7.15782C18 7.15782 17.1898 7.46273 17.0076 7.60096C16.8252 7.73919 16.6065 7.97091 16.4282 8.40592C16.3724 8.53876 16.2996 8.73089 16.2215 8.93706C16.1013 9.25454 15.9683 9.60541 15.8652 9.82477C15.731 10.1102 15.5313 10.4587 14.8627 10.9004H14.85C14.4534 10.9004 14.0722 10.9664 13.7168 11.088C13.9686 11.0304 14.2307 11 14.5 11C16.433 11 18 12.567 18 14.5C18 16.433 16.433 18 14.5 18C12.567 18 11 16.433 11 14.5C11 13.8322 11.187 13.2081 11.5115 12.6772C11.273 12.6615 10.6057 12.6177 10.5625 12.6177L11.1701 12.4389C10.1736 11.9103 5.01273 13.9512 5.01273 13.9512V13.8171C4.55093 14.1098 4 13.9634 4 13.9634L4.62384 13.4878H4.1904L8.52487 11.2477L7.55267 11.2355C7.55267 11.2355 11.2876 8.82872 12.2396 8.25552C12.8093 7.91244 13.2499 7.7179 13.5614 7.58037L13.5615 7.58034C13.7704 7.48811 13.9212 7.4215 14.0139 7.35296C14.1096 7.28222 14.2616 7.14445 14.4279 6.99376C14.6628 6.7808 14.9264 6.54201 15.0996 6.43011L15.1148 6.42024C15.4102 6.22926 15.8401 5.95134 16.2621 6.00731C16.6841 6.05977 16.9306 6.25736 17.1315 6.41848L17.1315 6.41849ZM14.5 11.3889C12.7818 11.3889 11.3889 12.7818 11.3889 14.5C11.3889 16.2182 12.7818 17.6111 14.5 17.6111C16.2182 17.6111 17.6111 16.2182 17.6111 14.5C17.6111 12.7818 16.2182 11.3889 14.5 11.3889ZM14.1207 16H14.8702L16 13H15.3683L14.4966 15.2967L13.6317 13H13L14.1207 16Z" fill="#F4F4F4"/>
</svg>
