<svg width="24" height="24" viewBox="0 0 24 24" fill="none" xmlns="http://www.w3.org/2000/svg">
<path d="M15.0765 4.04627C15.0765 5.17639 13.4536 6.09254 11.4518 6.09254C9.44996 6.09254 7.82715 5.17639 7.82715 4.04627C7.82715 2.91615 9.44996 2 11.4518 2C13.4536 2 15.0765 2.91615 15.0765 4.04627Z" fill="#FF009A"/>
<path d="M14.3487 20.6939C13.6872 21.19 12.6354 21.5108 11.4508 21.5108C9.44898 21.5108 7.82617 20.5946 7.82617 19.4645C7.82617 18.3344 9.44898 17.4182 11.4508 17.4182C11.8061 17.4182 12.1493 17.4471 12.4738 17.5008C12.5895 18.8165 13.3027 19.9665 14.3487 20.6939Z" fill="#FF009A"/>
<path d="M20.8419 14.8426C21.024 13.8105 20.7901 12.9268 20.1416 12.5633C19.5804 12.2488 18.827 12.3901 18.0967 12.8673C19.2557 13.1539 20.2358 13.8755 20.8419 14.8426Z" fill="#FF009A"/>
<path d="M6.40015 8.92505C7.40109 7.24227 7.39456 5.41978 6.38563 4.85432C5.3767 4.28888 3.74739 5.19466 2.74647 6.87739C1.74554 8.56017 1.75204 10.3827 2.76097 10.9481C3.76991 11.5136 5.39925 10.6078 6.40015 8.92505Z" fill="#FF009A"/>
<path d="M6.38564 18.6566C7.39458 18.0912 7.40111 16.2687 6.40016 14.5859C5.39921 12.9031 3.76992 11.9974 2.76098 12.5628C1.75203 13.1283 1.74554 14.9508 2.74646 16.6335C3.74739 18.3163 5.37671 19.2221 6.38564 18.6566Z" fill="#FF009A"/>
<path d="M20.1558 6.8786C21.1568 8.56138 21.1508 10.3836 20.1426 10.9487C19.1343 11.5137 17.5056 10.6076 16.5046 8.9249C15.5037 7.24212 15.5096 5.41992 16.5179 4.85484C17.5262 4.28977 19.1549 5.19582 20.1558 6.8786Z" fill="#FF009A"/>
<path fill-rule="evenodd" clip-rule="evenodd" d="M16.9774 12.7859C14.5118 12.7859 12.5131 14.7272 12.5131 17.1219C12.5131 19.5167 14.5118 21.458 16.9774 21.458C19.4429 21.458 21.4417 19.5167 21.4417 17.1219C21.4417 14.7272 19.4429 12.7859 16.9774 12.7859ZM11.9551 17.1219C11.9551 14.4279 14.2037 12.2439 16.9774 12.2439C19.7511 12.2439 21.9997 14.4279 21.9997 17.1219C21.9997 19.816 19.7511 22 16.9774 22C14.2037 22 11.9551 19.816 11.9551 17.1219Z" fill="#FF009A"/>
<path d="M17 19.5C16.3615 19.5 15.8701 19.369 15.5258 19.1071C15.1815 18.8393 15.0063 18.4821 15 18.0357H15.6573C15.6698 18.2619 15.7762 18.4673 15.9765 18.6518C16.1831 18.8363 16.5243 18.9286 17 18.9286C17.4444 18.9286 17.7762 18.8423 17.9953 18.6696C18.2207 18.4911 18.3333 18.2768 18.3333 18.0268C18.3333 17.7946 18.2394 17.6161 18.0516 17.4911C17.8701 17.3601 17.6041 17.2768 17.2535 17.2411L16.6901 17.1875C16.2394 17.1399 15.8732 17.0089 15.5915 16.7946C15.3161 16.5744 15.1784 16.2738 15.1784 15.8929C15.1784 15.6131 15.2535 15.369 15.4038 15.1607C15.554 14.9524 15.7637 14.7917 16.0329 14.6786C16.3083 14.5595 16.6307 14.5 17 14.5C17.5321 14.5 17.964 14.619 18.2958 14.8571C18.6338 15.0952 18.8059 15.4345 18.8122 15.875H18.1549C18.1487 15.6488 18.0485 15.4583 17.8545 15.3036C17.6604 15.1488 17.3756 15.0714 17 15.0714C16.6119 15.0714 16.3208 15.1518 16.1268 15.3125C15.939 15.4732 15.8451 15.6696 15.8451 15.9018C15.8451 16.0982 15.9171 16.2619 16.061 16.3929C16.205 16.5179 16.4304 16.5952 16.7371 16.625L17.3005 16.6786C17.8013 16.7321 18.2081 16.869 18.5211 17.0893C18.8404 17.3095 19 17.625 19 18.0357C19 18.3155 18.9155 18.5685 18.7465 18.7946C18.5837 19.0149 18.3521 19.1875 18.0516 19.3125C17.7512 19.4375 17.4006 19.5 17 19.5Z" fill="#FF009A"/>
</svg>
