<svg width="24" height="24" viewBox="0 0 24 24" fill="none" xmlns="http://www.w3.org/2000/svg">
<path fill-rule="evenodd" clip-rule="evenodd" d="M22 12C22 17.5228 17.5228 22 12 22C6.47715 22 2 17.5228 2 12C2 6.47715 6.47715 2 12 2C17.5228 2 22 6.47715 22 12ZM16.1936 7.36618L16.2401 7.40124C16.4245 7.53999 17 8.01309 17 8.01309C17 8.01309 16.2477 8.27989 16.0784 8.40084C15.9091 8.52179 15.706 8.72454 15.5405 9.10518C15.4887 9.22142 15.4211 9.38953 15.3486 9.56993C15.2369 9.84772 15.1134 10.1547 15.0176 10.3467C14.8931 10.5964 14.7076 10.9013 14.0868 11.2879H14.075C12.7558 11.2879 11.6202 12.0286 11.1109 13.0927C11.0828 13.0133 11.0633 12.9311 11.053 12.8474C11.053 12.8474 10.1427 12.7905 10.0937 12.7905L10.658 12.634C9.73261 12.1715 4.94039 13.9573 4.94039 13.9573V13.8399C4.51157 14.0961 4 13.968 4 13.968L4.57928 13.5518H4.1768L8.20166 11.5917L7.29891 11.581C7.29891 11.581 10.7671 9.47513 11.6511 8.97358C12.1801 8.67339 12.5892 8.50317 12.8784 8.38284L12.8784 8.38283L12.8784 8.38283L12.8785 8.3828C13.0725 8.3021 13.2126 8.24381 13.2986 8.18384C13.3875 8.12194 13.5286 8.00139 13.683 7.86954C13.9012 7.6832 14.1459 7.47426 14.3068 7.37634L14.3209 7.36771C14.5952 7.2006 14.9944 6.95742 15.3863 7.00639C15.7781 7.0523 16.0069 7.22519 16.1936 7.36617L16.1936 7.36618ZM14 12.3333C12.5272 12.3333 11.3333 13.5272 11.3333 15C11.3333 16.4728 12.5272 17.6667 14 17.6667C15.4728 17.6667 16.6667 16.4728 16.6667 15C16.6667 13.5272 15.4728 12.3333 14 12.3333ZM11 15C11 13.3432 12.3432 12 14 12C15.6568 12 17 13.3432 17 15C17 16.6568 15.6568 18 14 18C12.3432 18 11 16.6568 11 15ZM13.5019 16.8564C13.6562 16.9521 13.834 17 14.0353 17C14.2444 17 14.4209 16.9485 14.5646 16.8453C14.7084 16.7385 14.817 16.5986 14.8902 16.4254C14.9634 16.2523 15 16.0645 15 15.8619C15 15.6335 14.9659 15.4475 14.898 15.3038C14.8301 15.1566 14.7398 15.0386 14.6274 14.9503C14.515 14.8619 14.3908 14.7846 14.2548 14.7182C14.1268 14.6594 14.013 14.604 13.9137 14.5525C13.8144 14.5009 13.7359 14.4382 13.6784 14.3646C13.6209 14.2873 13.5921 14.1842 13.5921 14.0552C13.5921 13.9042 13.6288 13.7901 13.7019 13.7127C13.7777 13.6317 13.8706 13.593 13.9804 13.5966C14.1085 13.5966 14.2078 13.6501 14.2784 13.7569C14.3516 13.8601 14.3895 13.9798 14.3922 14.116H14.9294C14.9241 13.8877 14.881 13.6906 14.8 13.5248C14.7216 13.359 14.6118 13.2302 14.4706 13.1381C14.332 13.046 14.1712 13 13.9882 13C13.8078 13 13.6484 13.046 13.5098 13.1381C13.3712 13.2265 13.2615 13.3536 13.1804 13.5194C13.1019 13.6814 13.064 13.8766 13.0666 14.105C13.0666 14.3738 13.1216 14.5893 13.2314 14.7514C13.3438 14.9134 13.5058 15.046 13.7176 15.1491L14.0862 15.326C14.2013 15.3812 14.2927 15.453 14.3608 15.5414C14.4313 15.6298 14.4666 15.7532 14.4666 15.9116C14.4666 16.0626 14.4274 16.1842 14.349 16.2762C14.2706 16.3646 14.1647 16.4088 14.0313 16.4088C13.8772 16.4088 13.7555 16.3481 13.6667 16.2265C13.5804 16.1013 13.5346 15.9484 13.5294 15.7679H13C13.0026 16.0294 13.0484 16.2523 13.1373 16.4364C13.2261 16.617 13.3477 16.7569 13.5019 16.8564Z" fill="#F4F4F4"/>
</svg>
