<svg width="24" height="24" viewBox="0 0 24 24" fill="none" xmlns="http://www.w3.org/2000/svg">
<path d="M22 12C22 17.5455 17.5455 22 12 22C6.45455 22 2 17.5455 2 12C2 6.45455 6.45455 2 12 2C17.5455 2 22 6.45455 22 12Z" fill="#EE2233"/>
<path d="M7.27282 20.8182C8.81827 18.4545 10.4546 16.0909 12.091 13.7273L16.8183 20.8182C17.091 20.7273 17.2728 20.5455 17.5455 20.3636C17.8183 20.1818 18.0001 20.0909 18.1819 19.9091C16.4546 17.2727 14.6365 14.6364 12.9092 12H18.1819V10.3636H12.9092V8.63636H18.1819V7H5.90918V8.63636H11.1819V10.3636H5.90918V12H11.1819L5.90918 19.9091C6.091 20.0909 6.27282 20.1818 6.54554 20.3636C6.81827 20.5455 7.00009 20.7273 7.27282 20.8182Z" fill="white"/>
</svg>
