<svg width="24" height="24" viewBox="0 0 24 24" fill="none" xmlns="http://www.w3.org/2000/svg">
<path fill-rule="evenodd" clip-rule="evenodd" d="M22 13C22 18.5228 17.5228 23 12 23C6.47715 23 2 18.5228 2 13C2 7.47715 6.47715 3 12 3C17.5228 3 22 7.47715 22 13ZM11.9157 5C11.48 5 11.1298 5.34936 11.1298 5.784C11.1298 6.00129 11.2173 6.19727 11.3593 6.33893L4.84818 17.4344C4.82765 17.4328 4.8069 17.432 4.78596 17.432C4.35189 17.432 4 17.783 4 18.216C4 18.649 4.35189 19 4.78596 19C5.12114 19 5.40732 18.7907 5.52031 18.496H18.4797C18.5927 18.7907 18.8788 19 19.214 19C19.6481 19 20 18.649 20 18.216C20 17.783 19.6481 17.432 19.214 17.432C19.1649 17.432 19.1169 17.4365 19.0704 17.4451L12.5869 6.24945C12.6893 6.11914 12.7578 5.96007 12.7578 5.784C12.7578 5.5467 12.639 5.34806 12.4855 5.21541C12.3329 5.08345 12.1283 5 11.9157 5ZM12.1173 6.55813L12.1169 6.55819C12.0475 6.56807 11.9739 6.56803 11.9231 6.56801H11.9157C11.9024 6.56801 11.8891 6.56768 11.8759 6.56703L5.35648 17.6767C5.42695 17.7509 5.48304 17.8388 5.52031 17.936H18.4797C18.5072 17.8641 18.5451 17.7974 18.5914 17.7375L12.1173 6.55813ZM8.49112 16.0881H15.5086L11.9718 10.0401L8.49112 16.0881Z" fill="white"/>
</svg>
