<svg width="24" height="24" viewBox="0 0 24 24" fill="none" xmlns="http://www.w3.org/2000/svg">
<path d="M22 12C22 17.5222 17.5222 22 12 22C6.47778 22 2 17.5222 2 12C2 6.47778 6.47778 2 12 2C17.5222 2 22 6.47778 22 12Z" fill="#EE2233"/>
<path d="M18.6779 5.32209C16.8946 3.53875 14.5223 2.55542 12.0001 2.55542H11.8501C9.38344 2.59431 7.07233 3.57209 5.32789 5.32209C3.539 7.10542 2.55566 9.47764 2.55566 11.9999C2.55566 14.5221 3.539 16.8943 5.32233 18.6776C7.07233 20.4276 9.38344 21.4054 11.8501 21.4443H12.0001C14.5223 21.4443 16.8946 20.461 18.6779 18.6776C20.4612 16.8943 21.4446 14.5221 21.4446 11.9999C21.4446 9.47764 20.4612 7.10542 18.6779 5.32209ZM2.99455 12.2165H7.01678C7.04455 13.6665 7.32789 15.0665 7.86122 16.3943H4.139C3.44455 15.1499 3.03344 13.7276 2.99455 12.2165ZM12.0668 7.16653V3.22209C13.4057 4.31098 14.4557 5.66098 15.1723 7.17209H12.0668V7.16653ZM15.3668 7.60542C15.9112 8.90542 16.2168 10.3221 16.2446 11.7832H12.0723V7.60542H15.3668ZM11.6334 7.16653H8.52233C9.23344 5.65542 10.289 4.30542 11.6334 3.21653V7.16653ZM11.6334 7.60542V11.7832H7.45566C7.48344 10.3221 7.78344 8.90542 8.33344 7.60542H11.6334ZM7.01678 11.7776H2.99455C3.03344 10.2665 3.44455 8.84431 4.139 7.59986H7.86122C7.32789 8.92764 7.04455 10.3276 7.01678 11.7776ZM7.45566 12.2165H11.6334V16.3943H8.33344C7.78344 15.0888 7.48344 13.6776 7.45566 12.2165ZM11.6334 16.8276V20.7776C10.289 19.6888 9.239 18.3388 8.52789 16.8276H11.6334ZM12.0668 16.8276H15.1723C14.4612 18.3388 13.4112 19.6832 12.0723 20.7721V16.8276H12.0668ZM12.0668 16.3943V12.2165H16.239C16.2112 13.6776 15.9112 15.0943 15.3612 16.3943H12.0668ZM16.6779 12.2165H21.0057C20.9668 13.7276 20.5557 15.1499 19.8612 16.3943H15.8279C16.3668 15.0665 16.6501 13.6665 16.6779 12.2165ZM16.6779 11.7776C16.6501 10.3276 16.3668 8.92764 15.8334 7.59986H19.8668C20.5612 8.83875 20.9779 10.261 21.0112 11.7776H16.6779ZM19.6001 7.16653H15.639C15.5612 6.99431 15.4834 6.82764 15.3946 6.66098C14.6834 5.26653 13.6834 4.01653 12.4834 3.00542C15.4779 3.16098 18.0834 4.78875 19.6001 7.16653ZM11.1723 3.02764C9.98344 4.0332 8.99455 5.27764 8.289 6.66098C8.20566 6.82764 8.12233 6.99431 8.04455 7.16653H4.40011C5.86122 4.87764 8.32789 3.28875 11.1723 3.02764ZM4.40011 16.8276H8.05011C8.12789 16.9999 8.20566 17.1665 8.29455 17.3332C9.00011 18.7165 9.989 19.961 11.1779 20.9665C8.32789 20.711 5.86122 19.1221 4.40011 16.8276ZM12.489 20.9943C13.689 19.9832 14.689 18.7276 15.4001 17.3332C15.4834 17.1665 15.5668 16.9999 15.6446 16.8276H19.6057C18.0834 19.211 15.4779 20.8332 12.489 20.9943Z" fill="url(#paint0_linear_6900_11707)"/>
<path d="M12 2C17.5222 2 22 6.47778 22 12C22 17.5222 17.5222 22 12 22C6.47778 22 2 17.5222 2 12C2 6.47778 6.47778 2 12 2Z" fill="#888888" fill-opacity="0.25"/>
<path d="M15.3993 18.9278L11.9993 13.5055L8.57713 18.9278L4.91602 18.9222L9.82157 11.2333H5.5549V5.06665H18.4438V11.2333H14.1771L19.0993 18.9222L15.3993 18.9278Z" fill="white"/>
<path d="M11.2383 10.4556H6.33277V8.93337H11.2383V7.3667H6.33277V5.84448H17.6661V7.3667H12.7605V8.93337H17.6661V10.4556H12.7605L17.6828 18.1778H15.8494L11.9994 12.0445L8.14388 18.1723H6.31055L11.2383 10.4556Z" fill="#EE2233"/>
<defs>
<linearGradient id="paint0_linear_6900_11707" x1="2.55616" y1="11.9983" x2="21.4451" y2="11.9983" gradientUnits="userSpaceOnUse">
<stop stop-color="#FF8000"/>
<stop offset="0.2" stop-color="#FFFF00"/>
<stop offset="0.4" stop-color="#00FF05"/>
<stop offset="0.6" stop-color="#06FFFF"/>
<stop offset="0.8" stop-color="#0000FF"/>
<stop offset="1" stop-color="#FF00FF"/>
</linearGradient>
</defs>
</svg>
