<svg width="24" height="24" viewBox="0 0 24 24" fill="none" xmlns="http://www.w3.org/2000/svg">
<path d="M12 2C14.6522 2 17.1957 3.05357 19.0711 4.92893C20.9464 6.8043 22 9.34783 22 12C22 14.6522 20.9464 17.1957 19.0711 19.0711C17.1957 20.9464 14.6522 22 12 22C9.34783 22 6.8043 20.9464 4.92893 19.0711C3.05357 17.1957 2 14.6522 2 12H2C2 9.34783 3.05357 6.8043 4.92893 4.92893C6.8043 3.05357 9.34783 2 12 2V2Z" fill="#003399"/>
<path d="M11.5449 4.59373L10.7922 4.05206L11.7222 4.05539L12.0066 3.1665L12.2905 4.05539H13.2199L12.4661 4.59706L12.7483 5.47261L12.0049 4.92761L11.2627 5.46928L11.5449 4.59373ZM7.42273 6.49984L8.16661 5.95928L8.90661 6.49984L8.62439 5.62428L9.37773 5.08262H8.44884L8.16439 4.19373L7.87995 5.08262H6.95161L7.70495 5.62428L7.42273 6.49984ZM5.35495 7.01261L5.0705 7.9015H4.14217L4.8955 8.44428L4.61106 9.31706L5.35495 8.77761L6.09717 9.31928L5.81495 8.44428L6.56773 7.90261H5.63939L5.35495 7.01261ZM4.32439 12.6109L5.06606 13.1526L4.78384 12.2776L5.53717 11.7359H4.61106L4.32661 10.8471L4.04217 11.7359H3.11328L3.86495 12.2776L3.58217 13.1532L4.32439 12.6109ZM5.63939 15.5821L5.35495 14.6932L5.0705 15.5821H4.14217L4.8955 16.1237L4.61106 16.9998L5.35273 16.4576L6.09717 16.9998L5.81495 16.1243L6.56773 15.5826L5.63939 15.5821ZM8.45439 18.3971L8.16995 17.5109L7.88606 18.3998H6.95717L7.7105 18.9415L7.42884 19.8171L8.1705 19.2759L8.91217 19.8171L8.6305 18.9415L9.38328 18.3998L8.45439 18.3971ZM12.2877 19.4171L12.0038 18.5282L11.7199 19.4171H10.7911L11.5438 19.9587L11.2638 20.8332L12.0055 20.2921L12.7472 20.8332L12.4649 19.9576L13.2188 19.4159L12.2877 19.4171ZM16.1211 18.3971L15.8372 17.5109L15.5522 18.3998H14.6244L15.3766 18.9415L15.0949 19.8171L15.8372 19.2759L16.5788 19.8171L16.2961 18.9415L17.0555 18.3965L16.1211 18.3971ZM18.9366 15.5821L18.6522 14.6932L18.3672 15.5821H17.4394L18.1927 16.1237L17.9138 16.9998L18.6561 16.4576L19.3977 16.9998L19.1149 16.1243L19.8688 15.5826L18.9366 15.5821ZM20.8888 11.7221H19.9599L19.6749 10.8332L19.3911 11.7221H18.4622L19.2161 12.2637L18.9338 13.1393L19.6749 12.5965L20.4172 13.1393L20.1349 12.2637L20.8888 11.7221ZM17.9138 9.30539L18.6561 8.76373L19.3977 9.30539L19.1149 8.42984L19.8688 7.88873H18.9405L18.6561 6.99984L18.3711 7.88873H17.4444L18.1977 8.42928L17.9138 9.30539ZM15.8516 4.19762L15.5677 5.0865H14.6388L15.3916 5.62873L15.1111 6.49984L15.8544 5.95706L16.5938 6.49984L16.3116 5.62373L17.0655 5.0815H16.1355L15.8516 4.19762Z" fill="#FFCC00"/>
<path d="M12 2C13.9778 2 15.9112 2.58649 17.5557 3.6853C19.2002 4.78412 20.4819 6.3459 21.2388 8.17316C21.9957 10.0004 22.1937 12.0111 21.8078 13.9509C21.422 15.8907 20.4696 17.6725 19.0711 19.0711C17.6725 20.4696 15.8907 21.422 13.9509 21.8078C12.0111 22.1937 10.0004 21.9957 8.17316 21.2388C6.3459 20.4819 4.78412 19.2002 3.6853 17.5557C2.58649 15.9112 2 13.9778 2 12C2 9.34783 3.05357 6.80429 4.92893 4.92893C6.80429 3.05357 9.34783 2 12 2V2Z" fill="#888888" fill-opacity="0.25"/>
<path d="M15.3973 18.929L11.9995 13.509L8.57504 18.929L4.91504 18.9229L9.82004 11.2329H5.55504V5.06787H18.4439V11.2329H14.18L19.1045 18.9229L15.3973 18.929Z" fill="white"/>
<path d="M6.31348 18.1774H8.14626L12.0001 12.0479L15.854 18.1774H17.6868L12.7618 10.4551H17.6668V8.93348H12.7618V7.36737H17.6668V5.8457H6.33348V7.36737H11.239V8.93348H6.33348V10.4551H11.239L6.31348 18.1774Z" fill="#EE2233"/>
</svg>
