<svg width="24" height="24" viewBox="0 0 24 24" fill="none" xmlns="http://www.w3.org/2000/svg">
<path d="M22 12C22 13.9778 21.4135 15.9112 20.3147 17.5557C19.2159 19.2002 17.6541 20.4819 15.8268 21.2388C13.9996 21.9957 11.9889 22.1937 10.0491 21.8078C8.10929 21.422 6.32746 20.4696 4.92894 19.0711C3.53041 17.6725 2.578 15.8907 2.19215 13.9509C1.8063 12.0111 2.00433 10.0004 2.76121 8.17316C3.51809 6.3459 4.79981 4.78412 6.4443 3.6853C8.08879 2.58649 10.0222 2 12 2C14.6522 2 17.1957 3.05357 19.0711 4.92893C20.9464 6.80429 22 9.34783 22 12Z" fill="white"/>
<path d="M3.585 6.61106C3.58385 6.61103 3.58273 6.61069 3.58174 6.61009C3.58076 6.60949 3.57995 6.60865 3.57939 6.60764C3.57883 6.60663 3.57854 6.6055 3.57855 6.60434C3.57856 6.60319 3.57887 6.60206 3.57944 6.60106C3.93012 6.05622 4.33274 5.54662 4.78167 5.0794C4.78244 5.07901 4.7833 5.0788 4.78417 5.0788C4.78503 5.0788 4.78589 5.07901 4.78667 5.0794H19.2122C19.213 5.07901 19.2138 5.0788 19.2147 5.0788C19.2156 5.0788 19.2164 5.07901 19.2172 5.0794C19.6663 5.54732 20.0689 6.05767 20.4194 6.60329C20.42 6.60428 20.4203 6.60541 20.4203 6.60657C20.4203 6.60772 20.4201 6.60885 20.4195 6.60986C20.4189 6.61087 20.4181 6.61171 20.4171 6.61231C20.4162 6.61291 20.415 6.61325 20.4139 6.61329L3.585 6.61106ZM17.3033 3.53606C17.3047 3.53599 17.3061 3.53548 17.3072 3.5346C17.3083 3.53372 17.3091 3.53252 17.3094 3.53116C17.3098 3.52981 17.3097 3.52837 17.3092 3.52705C17.3087 3.52574 17.3078 3.52462 17.3067 3.52384C15.7156 2.52806 13.8764 2 11.9994 2C10.1224 2 8.28331 2.52806 6.69222 3.52384C6.69105 3.52462 6.69015 3.52574 6.68965 3.52705C6.68916 3.52837 6.68909 3.52981 6.68946 3.53116C6.68983 3.53252 6.69062 3.53372 6.69171 3.5346C6.69281 3.53548 6.69415 3.53599 6.69555 3.53606H17.3033ZM2.27722 9.69051H21.7217C21.7226 9.69052 21.7236 9.69032 21.7245 9.68992C21.7254 9.68952 21.7262 9.68892 21.7268 9.68818C21.7275 9.68744 21.7279 9.68657 21.7282 9.68562C21.7284 9.68468 21.7285 9.68369 21.7283 9.68273C21.605 9.16222 21.4397 8.65259 21.2339 8.15884C21.2334 8.15757 21.2326 8.15646 21.2315 8.15567C21.2304 8.15488 21.2291 8.15443 21.2278 8.1544H2.77056C2.76921 8.15443 2.7679 8.15488 2.76681 8.15567C2.76572 8.15646 2.76489 8.15757 2.76444 8.15884C2.55866 8.65259 2.3933 9.16222 2.27 9.68273C2.26982 9.68374 2.26988 9.68478 2.27018 9.68577C2.27047 9.68675 2.27098 9.68766 2.27168 9.68841C2.27238 9.68916 2.27325 9.68974 2.27421 9.69011C2.27517 9.69047 2.2762 9.69061 2.27722 9.69051ZM3.585 17.3888C3.58385 17.3889 3.58273 17.3892 3.58174 17.3898C3.58076 17.3904 3.57995 17.3913 3.57939 17.3923C3.57883 17.3933 3.57854 17.3944 3.57855 17.3956C3.57856 17.3967 3.57887 17.3978 3.57944 17.3988C3.93 17.9445 4.33263 18.4548 4.78167 18.9227C4.78244 18.9231 4.7833 18.9233 4.78417 18.9233C4.78503 18.9233 4.78589 18.9231 4.78667 18.9227H19.2122C19.213 18.9231 19.2138 18.9233 19.2147 18.9233C19.2156 18.9233 19.2164 18.9231 19.2172 18.9227C19.6663 18.4548 20.0689 17.9445 20.4194 17.3988C20.42 17.3978 20.4203 17.3967 20.4203 17.3956C20.4203 17.3944 20.4201 17.3933 20.4195 17.3923C20.4189 17.3913 20.4181 17.3904 20.4171 17.3898C20.4162 17.3892 20.415 17.3889 20.4139 17.3888H3.585ZM21.9994 11.2316H2.00667C2.00494 11.2317 2.00332 11.2325 2.0021 11.2337C2.00087 11.2349 2.00013 11.2366 2 11.2383V12.7677H21.9994V11.2316ZM21.7217 14.3088H2.27722C2.27619 14.3088 2.27516 14.309 2.27422 14.3094C2.27328 14.3099 2.27245 14.3105 2.2718 14.3113C2.27116 14.3121 2.27071 14.3131 2.27049 14.3141C2.27027 14.3151 2.2703 14.3162 2.27056 14.3172C2.39386 14.8377 2.55922 15.3473 2.765 15.8411C2.76545 15.8423 2.76627 15.8434 2.76736 15.8442C2.76846 15.845 2.76976 15.8455 2.77111 15.8455H21.2283C21.2297 15.8455 21.231 15.845 21.2321 15.8442C21.2332 15.8434 21.234 15.8423 21.2344 15.8411C21.4402 15.3473 21.6056 14.8377 21.7289 14.3172C21.7292 14.3161 21.7292 14.315 21.7289 14.314C21.7287 14.3129 21.7282 14.3119 21.7275 14.3111C21.7268 14.3103 21.7259 14.3096 21.7248 14.3092C21.7238 14.3089 21.7227 14.3087 21.7217 14.3088ZM6.69555 20.4638C6.69415 20.4639 6.69281 20.4644 6.69171 20.4653C6.69062 20.4662 6.68983 20.4674 6.68946 20.4687C6.68909 20.4701 6.68916 20.4715 6.68965 20.4728C6.69015 20.4742 6.69105 20.4753 6.69222 20.4761C8.28331 21.4718 10.1224 21.9999 11.9994 21.9999C13.8764 21.9999 15.7156 21.4718 17.3067 20.4761C17.3078 20.4753 17.3087 20.4742 17.3092 20.4728C17.3097 20.4715 17.3098 20.4701 17.3094 20.4687C17.3091 20.4674 17.3083 20.4662 17.3072 20.4653C17.3061 20.4644 17.3047 20.4639 17.3033 20.4638H6.69555Z" fill="#B32235"/>
<path d="M12.02 12H2C2 9.34783 3.05357 6.8043 4.92893 4.92893C6.80429 3.05357 9.34783 2 12 2L12.02 2V12Z" fill="#3C3B6E"/>
<path d="M7.8767 9.7917L7.54336 10.0345L7.67114 10.4323L7.33114 10.1845L6.99781 10.4323L7.12614 10.0345L6.79281 9.7917H7.20836L7.33614 9.39393L7.46892 9.7917H7.8767ZM7.33781 7.40282L7.21003 7.79559H6.79447L7.12781 8.04282L7.00003 8.43559L7.33336 8.19282L7.6667 8.43559L7.53892 8.04226L7.87225 7.79504H7.46614L7.33781 7.40282ZM8.13725 5.45837L8.47058 5.21559L8.80392 5.45837L8.67558 5.06115L9.00892 4.81782H8.59392L8.46558 4.42504L8.33781 4.81782H7.92281L8.25614 5.06115L8.13725 5.45837ZM8.62781 10.7917L8.50003 10.3967L8.37225 10.79H7.9567L8.29003 11.0373L8.16225 11.43L8.49558 11.1873L8.82892 11.43L8.70114 11.0373L9.04114 10.79L8.62781 10.7917ZM6.29114 10.7917L6.16281 10.3984L6.03059 10.7917H5.61503L5.95114 11.0389L5.82281 11.4317L6.16281 11.1889L6.49614 11.4317L6.36336 11.0389L6.70336 10.7917H6.29114ZM6.9667 4.45837L7.30003 4.21059L7.63336 4.45837L7.50503 4.06059L7.83836 3.81782H7.43058L7.30281 3.42004L7.17447 3.81782H6.75947L7.09281 4.06059L6.9667 4.45837ZM6.18892 8.39782L6.06059 8.79559H5.64614L5.97947 9.03837L5.8517 9.43615L6.18503 9.18893L6.51836 9.43615L6.39059 9.03837L6.72392 8.79559H6.31781L6.18892 8.39782ZM5.79614 5.45837L6.12947 5.21559L6.46281 5.45837L6.33947 5.06115L6.67281 4.81782H6.26003L6.13225 4.42504L6.00392 4.81782H5.58892L5.92225 5.06115L5.79614 5.45837ZM8.53058 8.39559L8.40225 8.79337H7.98725L8.32058 9.03615L8.19281 9.43393L8.52614 9.1867L8.85947 9.43393L8.73114 9.03615L9.06447 8.79337H8.64892L8.53058 8.39559ZM11 8.79337L10.8723 8.39559L10.7439 8.79337H10.3289L10.6623 9.03615L10.5339 9.43393L10.87 9.1867L11.2034 9.43393L11.075 9.03615L11.4111 8.79337H11ZM10.4789 5.46004L10.8123 5.21726L11.1456 5.46004L11.0178 5.06282L11.3511 4.81948H10.9445L10.8161 4.42671L10.6884 4.81948H10.2728L10.6061 5.06282L10.4789 5.46004ZM10.9689 10.7934L10.8411 10.4L10.7128 10.7934H10.2978L10.6311 11.0406L10.5034 11.4334L10.8367 11.1906L11.17 11.4334L11.0423 11.0406L11.3756 10.7934H10.9689ZM9.79892 9.79337L9.67059 9.39559L9.54225 9.79337H9.12725L9.46058 10.0361L9.33281 10.4339L9.66614 10.1861L9.99947 10.4339L9.8717 10.0361L10.2117 9.79337H9.79892ZM9.30836 4.46004L9.6417 4.21226L9.97503 4.46004L9.8467 4.06226L10.18 3.81948H9.76503L9.6367 3.42171L9.50892 3.81948H9.10003L9.43336 4.06226L9.30836 4.46004ZM9.67947 7.40448L9.55114 7.79726H9.13614L9.46947 8.04448L9.3417 8.43782L9.67503 8.19504L10.0084 8.43782L9.88058 8.04448L10.2139 7.79726H9.79892L9.67947 7.40448ZM9.79892 5.82726L9.67059 5.43004L9.54225 5.82726H9.12725L9.46058 6.07059L9.33336 6.46559L9.6667 6.21837L10 6.46559L9.87225 6.06837L10.2123 5.82504L9.79892 5.82726ZM10.9778 6.82115L10.85 6.42837L10.7223 6.81893H10.3073L10.6406 7.06171L10.5128 7.45948L10.8461 7.21226L11.1795 7.45948L11.0556 7.06171L11.3889 6.81893L10.9778 6.82115ZM10.4778 3.45559L10.8111 3.20837L11.1445 3.45559L11.0217 3.05559L11.355 2.81282H10.9445L10.8161 2.41504L10.6884 2.81282H10.2728L10.6061 3.05559L10.4778 3.45559ZM2.77781 9.7917L2.65003 9.39393L2.5217 9.7917H2.24392L2.22559 9.87726L2.44447 10.0345L2.31614 10.4323L2.65225 10.1845L2.98559 10.4323L2.85725 10.0345L3.19336 9.7917H2.77781ZM2.72781 8.24559L2.99003 8.43559L2.8617 8.04226L3.19781 7.79504H2.92503C2.85614 7.94448 2.79114 8.09393 2.72947 8.24559H2.72781ZM8.13558 3.45337L8.46892 3.20615L8.80225 3.45337L8.68058 3.05559L9.01392 2.81282H8.59892L8.53558 2.61615C8.48614 2.63393 8.43725 2.65282 8.38836 2.67171C8.27225 2.71615 8.15781 2.76337 8.04392 2.81226L7.97114 2.84393L8.26336 3.05504L8.13558 3.45337ZM3.49059 7.45948L3.82392 7.21226L4.16003 7.45948L4.0317 7.06171L4.36503 6.81893H3.95447L3.82614 6.42615L3.69836 6.81893H3.44447L3.39614 6.90115L3.61836 7.06171L3.49059 7.45948ZM4.9967 7.40393L4.86892 7.7967H4.45392L4.78725 8.04393L4.65892 8.43726L4.99225 8.19448L5.33336 8.43559L5.20503 8.04226L5.53836 7.79504H5.12503L4.9967 7.40393ZM3.95003 10.7928L3.82225 10.3995L3.69392 10.7928H3.27447L3.61447 11.04L3.4817 11.4328L3.82225 11.19L4.15559 11.4328L4.02725 11.04L4.36059 10.7928H3.95003ZM3.84836 8.39837L3.72225 8.79337H3.30503L3.64114 9.03615L3.51281 9.43393L3.84614 9.1867L4.17947 9.43393L4.05559 9.03615L4.38892 8.79337H3.9767L3.84836 8.39837ZM5.12059 9.79448L4.99225 9.3967L4.86447 9.79448H4.44447L4.77781 10.0373L4.64947 10.435L4.98947 10.1873L5.32281 10.435L5.19447 10.0373L5.52781 9.79448H5.12059ZM7.4617 5.82782L7.32892 5.42782L7.20114 5.82504H6.78558L7.11892 6.06837L6.99059 6.46559L7.32392 6.21837L7.6667 6.46559L7.53892 6.06837L7.87225 5.82504L7.4617 5.82782ZM8.6367 6.82171L8.50836 6.42893L8.38003 6.82171H7.96503L8.29836 7.06448L8.17058 7.46226L8.50392 7.21504L8.83725 7.46226L8.70947 7.06448L9.04281 6.82171H8.6367ZM6.29559 6.82171L6.1667 6.42615L6.03892 6.81893H5.62392L5.95725 7.06171L5.83336 7.45948L6.1667 7.21226L6.50003 7.45948L6.3717 7.06171L6.70503 6.81893L6.29559 6.82171ZM4.65225 6.46559L4.99225 6.21837L5.32559 6.46559L5.20003 6.06837L5.53336 5.82504H5.12059L4.99225 5.42782L4.86447 5.82504H4.44447L4.77781 6.06837L4.65225 6.46559Z" fill="white"/>
<path d="M12 2C13.9778 2 15.9112 2.58649 17.5557 3.6853C19.2002 4.78412 20.4819 6.3459 21.2388 8.17316C21.9957 10.0004 22.1937 12.0111 21.8078 13.9509C21.422 15.8907 20.4696 17.6725 19.0711 19.0711C17.6725 20.4696 15.8907 21.422 13.9509 21.8078C12.0111 22.1937 10.0004 21.9957 8.17316 21.2388C6.3459 20.4819 4.78412 19.2002 3.6853 17.5557C2.58649 15.9112 2 13.9778 2 12C2 9.34783 3.05357 6.80429 4.92893 4.92893C6.80429 3.05357 9.34783 2 12 2V2Z" fill="#888888" fill-opacity="0.25"/>
<path d="M15.3982 18.929L12.0005 13.509L8.57601 18.929L4.91602 18.9229L9.82101 11.2329H5.55602V5.06787H18.4449V11.2329H14.181L19.1055 18.9229L15.3982 18.929Z" fill="white"/>
<path d="M6.31348 18.1774H8.14626L12.0001 12.0479L15.854 18.1774H17.6868L12.7618 10.4551H17.6668V8.93348H12.7618V7.36737H17.6668V5.8457H6.33348V7.36737H11.239V8.93348H6.33348V10.4551H11.239L6.31348 18.1774Z" fill="white"/>
<path d="M6.31348 18.1774H8.14626L12.0001 12.0479L15.854 18.1774H17.6868L12.7618 10.4551H17.6668V8.93348H12.7618V7.36737H17.6668V5.8457H6.33348V7.36737H11.239V8.93348H6.33348V10.4551H11.239L6.31348 18.1774Z" fill="#EE2233"/>
</svg>
