<svg width="24" height="24" viewBox="0 0 24 24" fill="none" xmlns="http://www.w3.org/2000/svg">
<path d="M22 12C22 6.47715 17.5228 2 12 2C6.47715 2 2 6.47715 2 12C2 17.5228 6.47715 22 12 22C17.5228 22 22 17.5228 22 12Z" fill="white"/>
<path d="M10.7776 11.9225L10.0465 11.196C10.0409 11.1906 10.0334 11.1876 10.0255 11.1876C10.0218 11.1876 10.018 11.1884 10.0145 11.1898C10.011 11.1912 10.0078 11.1933 10.0051 11.196L7.9398 13.2466V8.08991C7.93975 8.08411 7.93802 8.07845 7.93483 8.07359C7.93164 8.06874 7.92712 8.06489 7.92179 8.0625H7.91039C7.90258 8.06257 7.89509 8.06555 7.88938 8.07084L4.009 11.9225C4.00344 11.9278 4.00021 11.935 4 11.9427C4.00018 11.9506 4.0034 11.958 4.009 11.9636L4.74006 12.6894C4.74279 12.6922 4.74607 12.6944 4.74969 12.6958C4.7533 12.6972 4.75718 12.6979 4.76107 12.6978C4.76487 12.6979 4.76865 12.6972 4.77217 12.6958C4.77569 12.6943 4.77886 12.6922 4.78148 12.6894L6.84681 10.6388V15.7961C6.84683 15.8018 6.84855 15.8074 6.85175 15.8122C6.85495 15.817 6.8595 15.8207 6.86482 15.8229C6.86857 15.8238 6.87247 15.8238 6.87622 15.8229C6.88007 15.823 6.88388 15.8222 6.8874 15.8206C6.89092 15.8191 6.89407 15.8168 6.89663 15.814L10.7776 11.9612C10.7824 11.9558 10.785 11.949 10.785 11.9418C10.785 11.9347 10.7824 11.9278 10.7776 11.9225Z" fill="#00ADEE"/>
<path d="M12.7516 4.7348L12.0205 4.00834C12.0151 4.00304 12.0077 4.00005 12.0001 4C11.9923 4.00007 11.9848 4.00305 11.9791 4.00834L8.6179 7.34565C8.61244 7.35112 8.60938 7.35851 8.60938 7.36621C8.60938 7.37391 8.61244 7.3813 8.6179 7.38677L9.34896 8.11323C9.35467 8.11852 9.36216 8.1215 9.36997 8.12157C9.3776 8.12153 9.38492 8.11854 9.39038 8.11323L12.7516 4.77592C12.7544 4.7733 12.7567 4.77012 12.7583 4.76658C12.7598 4.76304 12.7606 4.75922 12.7606 4.75536C12.7606 4.7515 12.7598 4.74768 12.7583 4.74414C12.7567 4.74061 12.7544 4.73743 12.7516 4.7348Z" fill="#EC297B"/>
<path d="M15.3844 7.34798L14.6533 6.62211C14.6478 6.61691 14.6405 6.61393 14.6329 6.61377C14.6251 6.61384 14.6176 6.61682 14.6119 6.62211L11.2507 9.95942C11.2453 9.96489 11.2422 9.97228 11.2422 9.97998C11.2422 9.98768 11.2453 9.99507 11.2507 10.0005L11.9818 10.727C11.9875 10.7323 11.995 10.7353 12.0028 10.7353C12.0104 10.7353 12.0177 10.7323 12.0232 10.727L15.3844 7.38969C15.3872 7.38697 15.3894 7.38373 15.3909 7.38015C15.3924 7.37657 15.3932 7.37272 15.3932 7.36884C15.3932 7.36495 15.3924 7.3611 15.3909 7.35752C15.3894 7.35394 15.3872 7.3507 15.3844 7.34798Z" fill="#EC297B"/>
<path d="M14.0684 6.04109L13.3379 5.31523C13.3324 5.30992 13.3251 5.30693 13.3175 5.30688C13.3097 5.30696 13.3022 5.30994 13.2965 5.31523L9.93528 8.65253C9.92982 8.658 9.92676 8.66539 9.92676 8.67309C9.92676 8.6808 9.92982 8.68819 9.93528 8.69365L10.6663 9.42011C10.672 9.42541 10.6795 9.42838 10.6874 9.42846C10.695 9.42841 10.7023 9.42542 10.7078 9.42011L14.069 6.08281C14.0717 6.08005 14.0739 6.07677 14.0753 6.07317C14.0768 6.06957 14.0775 6.06571 14.0775 6.06182C14.0774 6.05794 14.0766 6.0541 14.075 6.05054C14.0735 6.04698 14.0712 6.04377 14.0684 6.04109Z" fill="#EC297B"/>
<path d="M14.8208 16.3011H12.2176V12.9906C12.2176 12.9849 12.2159 12.9793 12.2127 12.9745C12.2095 12.9697 12.205 12.966 12.1996 12.9638C12.1959 12.9629 12.192 12.9629 12.1882 12.9638C12.1843 12.9638 12.1804 12.9646 12.1768 12.9661C12.1732 12.9677 12.1699 12.9699 12.1672 12.9727L8.28685 16.8255C8.28138 16.831 8.27832 16.8384 8.27832 16.8461C8.27832 16.8538 8.28138 16.8612 8.28685 16.8666L9.0161 17.5907C9.02174 17.5961 9.02928 17.5991 9.03711 17.599C9.0409 17.5991 9.04465 17.5983 9.04815 17.5969C9.05165 17.5955 9.05484 17.5934 9.05752 17.5907L11.1229 15.54V19.9709C11.1229 19.9787 11.126 19.9861 11.1315 19.9916C11.137 19.997 11.1445 20.0001 11.1523 20.0001H12.1864C12.1942 20.0001 12.2017 19.997 12.2072 19.9916C12.2127 19.9861 12.2158 19.9787 12.2158 19.9709V17.3863H14.819C14.8268 17.3863 14.8342 17.3832 14.8398 17.3777C14.8453 17.3723 14.8484 17.3648 14.8484 17.3571V16.3303C14.8484 16.3228 14.8455 16.3157 14.8404 16.3102C14.8353 16.3048 14.8283 16.3015 14.8208 16.3011Z" fill="#37B34A"/>
<path d="M19.9916 11.9225L16.6304 8.58226C16.6247 8.57694 16.6172 8.57397 16.6094 8.57397C16.6015 8.57397 16.594 8.57694 16.5883 8.58226L13.2272 11.9225C13.2245 11.9252 13.2224 11.9284 13.2209 11.9318C13.2195 11.9353 13.2187 11.939 13.2188 11.9428C13.2187 11.9506 13.2217 11.9581 13.2272 11.9637L16.5883 15.301C16.594 15.3063 16.6015 15.3093 16.6094 15.3093C16.6172 15.3093 16.6247 15.3063 16.6304 15.301L19.9916 11.9637C19.997 11.9582 20.0001 11.9508 20.0001 11.9431C20.0001 11.9354 19.997 11.928 19.9916 11.9225ZM16.607 13.7896L14.7463 11.9422L16.607 10.0948L18.4676 11.9422L16.607 13.7896Z" fill="#F6921E"/>
</svg>
