<svg width="24" height="24" viewBox="0 0 24 24" fill="none" xmlns="http://www.w3.org/2000/svg">
<path d="M12.0016 2.00002C9.65105 1.9962 7.37445 2.82168 5.5725 4.33116H18.4291C16.628 2.82142 14.3518 1.99587 12.0016 2.00002ZM12.0016 22C14.3301 22.0043 16.5867 21.1939 18.3803 19.7093H5.62135C7.4158 21.1937 9.6728 22.004 12.0016 22ZM16.7751 7.07665H20.7199C20.3949 6.5041 20.0147 5.9648 19.5846 5.4664H4.42546C3.79296 6.19535 3.26984 7.01235 2.87249 7.89185H16.194L16.7751 7.07665ZM11.9057 12.5878H2.00168C2.04918 13.4117 2.19912 14.2265 2.44804 15.0133H10.9792L11.5671 14.1863H21.7759C21.8937 13.6604 21.9686 13.1259 22 12.5878H11.9057ZM14.1341 10.6307H21.9242C21.8505 10.0848 21.731 9.5462 21.5671 9.0204H2.43457C2.18975 9.80775 2.04377 10.6225 2 11.4459H13.5547L14.1341 10.6307ZM4.45409 18.574H8.42075L9.00015 17.7588H20.1893C20.5485 17.2524 20.8592 16.7133 21.1174 16.1486H2.88597C3.28828 17.0288 3.81652 17.8459 4.45409 18.574Z" fill="white"/>
</svg>
