<svg width="400" height="400" viewBox="0 0 400 400" fill="none" xmlns="http://www.w3.org/2000/svg">
<circle cx="200" cy="200" r="200" fill="#120901"/>
<path d="M197.577 130.341C200.893 130.944 205.716 142.398 206.62 152.043C206.921 154.153 206.62 158.674 206.62 161.99C206.318 167.114 205.716 168.621 203.907 171.032C199.989 176.759 192.755 180.376 183.411 180.979C180.698 181.28 176.177 181.582 173.766 181.582C169.847 181.28 169.546 181.28 170.149 179.773C170.45 179.17 171.354 177.06 171.957 175.252C175.876 163.195 184.617 143.905 189.138 137.877C192.152 133.355 195.769 130.04 197.577 130.341ZM194.563 104.118C193.056 104.118 191.248 104.42 188.535 105.324C184.617 106.53 181 108.639 177.684 111.352C172.861 114.969 172.259 115.271 171.957 113.763C171.656 111.352 167.737 108.037 164.12 107.735C160.503 107.132 155.982 108.941 154.174 111.654C153.27 112.859 150.858 116.778 148.447 120.696C144.227 127.93 142.72 133.054 144.227 136.068C145.131 137.877 144.83 139.986 142.117 152.947C137.295 176.458 129.458 224.985 129.458 234.329C129.156 255.428 129.458 275.321 129.759 279.24C130.664 285.268 132.773 289.488 136.692 292.201C140.61 294.913 142.72 295.516 146.94 294.31C151.16 293.406 153.27 291.899 155.681 288.584C158.394 284.665 158.996 280.445 158.996 262.059C158.695 239.755 161.709 204.489 163.518 202.379C164.12 202.078 168.039 201.776 172.56 202.379C189.439 203.886 203.304 200.872 213.854 193.035C225.307 184.596 230.13 174.951 231.034 158.674C231.939 137.274 225.006 118.285 212.648 108.639C208.73 105.927 207.524 105.625 201.496 104.721C198.482 104.118 196.372 103.817 194.563 104.118Z" fill="white"/>
<path d="M260.365 194.844C257.953 194.844 255.542 195.145 253.432 196.351C250.72 198.159 248.61 202.379 248.61 206.297C248.61 209.613 251.624 213.833 254.939 215.641C264.283 220.464 274.23 209.613 269.407 200.571C267.9 197.255 263.982 195.145 260.365 194.844Z" fill="#FF8500"/>
</svg>