<svg version="1.1" xmlns="http://www.w3.org/2000/svg" x="0px" y="0px" viewBox="0 0 24 24">
<path fill="#FFFFFF" d="M10.9,5.6l6.3,11h-1.3L14.4,14c-0.8-0.2-1.6-0.4-2.5-0.4c-0.5,0-1,0-1.4,0.1l0.7-1.2c0.2,0,0.5,0,0.7,0
	c0.6,0,1.1,0,1.7,0.1l-2.8-4.8l-4.6,8l-0.7-1.1L10.9,5.6L10.9,5.6L10.9,5.6z M12.2,14.4c-0.1,0-0.2,0-0.2,0c-1,0-2.1,0.1-3,0.4
	l2.5-4.4l-0.7-1.1l-4.2,7.3H8l0,0l0,0c1.2-0.7,2.6-1,4-1c0.9,0,1.9,0.2,2.8,0.5l-0.8-1.5C13.4,14.5,12.8,14.4,12.2,14.4z M24,12
	c0,6.6-5.4,12-12,12C5.4,24,0,18.6,0,12C0,5.4,5.4,0,12,0C18.6,0,24,5.4,24,12z M22.9,12c0-2.9-1.1-5.7-3.2-7.7S14.9,1.1,12,1.1
	S6.4,2.3,4.4,4.3S1.2,9.1,1.2,12s1.1,5.7,3.2,7.7c2,2,4.8,3.2,7.7,3.2c2.9,0,5.7-1.1,7.7-3.2C21.8,17.7,22.9,14.9,22.9,12z M22,12
	c0,1.3-0.3,2.6-0.8,3.8s-1.2,2.3-2.2,3.3c-0.9,0.9-2,1.7-3.3,2.2C14.6,21.8,13.3,22,12,22s-2.6-0.3-3.8-0.8
	c-1.2-0.5-2.3-1.2-3.3-2.2c-0.9-0.9-1.7-2-2.2-3.3S2,13.3,2,12c0-1.3,0.3-2.6,0.8-3.8C3.2,6.9,4,5.8,4.9,4.9C6.8,3,9.3,2,12,2
	c1.3,0,2.6,0.3,3.8,0.8c1.2,0.5,2.3,1.2,3.3,2.2c0.9,0.9,1.7,2,2.2,3.3C21.8,9.4,22,10.7,22,12z M20.9,12c0-1.2-0.2-2.3-0.7-3.4
	c-0.4-1.1-1.1-2-1.9-2.9c-0.8-0.8-1.8-1.5-2.9-1.9c-1.1-0.4-2.2-0.7-3.4-0.7c-1.2,0-2.3,0.2-3.4,0.7c-1.1,0.4-2,1.1-2.9,1.9
	C5,6.5,4.3,7.5,3.9,8.6C3.4,9.7,3.2,10.8,3.2,12c0,1.2,0.2,2.3,0.7,3.4c0.4,1.1,1.1,2,1.9,2.9c0.8,0.8,1.8,1.5,2.9,1.9
	c1.1,0.4,2.2,0.7,3.4,0.7c1.2,0,2.3-0.2,3.4-0.7c1.1-0.4,2-1.1,2.9-1.9c0.8-0.8,1.5-1.8,1.9-2.9C20.6,14.3,20.9,13.1,20.9,12
	L20.9,12z M11.5,5.2l6.1,10.6l0.7-1.1l-5.5-9.5H11.5z"/>
</svg>
