<svg width="24" height="25" viewBox="0 0 24 25" fill="none" xmlns="http://www.w3.org/2000/svg">
<path d="M16.0241 16.2693C15.6326 16.2937 15.2407 16.2311 14.8746 16.0857C14.5086 15.9403 14.1769 15.7154 13.9019 15.4263C13.3661 14.7655 13.0964 13.9171 13.1486 13.0564C13.1466 12.685 13.1826 12.3145 13.2562 11.951C13.3303 11.5997 13.4492 11.2602 13.6099 10.9414C13.7914 10.5854 14.0077 10.2495 14.2556 9.93922C14.5604 9.55695 14.8837 9.19077 15.2241 8.84207L16.4695 7.56932L18.0378 9.31882L16.5154 10.7823C16.2084 11.0791 15.9498 11.3388 15.7396 11.5614C15.5564 11.7522 15.3842 11.9541 15.2241 12.1659C15.1095 12.3157 15.0115 12.4784 14.9321 12.6508C14.874 12.7778 14.8425 12.916 14.8395 13.0564C14.8395 13.6082 15.1829 13.8839 15.8697 13.8834H18.2222V12.8657H19.9906V13.9313C20.0189 14.2527 19.983 14.5767 19.8851 14.8831C19.7872 15.1896 19.6295 15.472 19.4217 15.7127C18.9641 16.1123 18.3741 16.3119 17.7767 16.2693L16.0241 16.2693Z" fill="white"/>
<path d="M9.2046 16.0863C9.09392 15.964 9.00776 15.8201 8.95106 15.6632C8.89436 15.5062 8.86826 15.3391 8.87425 15.1717V14.8537C8.8683 14.6863 8.89442 14.5192 8.95111 14.3623C9.00781 14.2053 9.09395 14.0615 9.2046 13.9391C9.34232 13.8102 9.50416 13.712 9.68008 13.6505C9.856 13.5889 10.0423 13.5654 10.2273 13.5814C10.4124 13.5654 10.5987 13.5888 10.7746 13.6504C10.9505 13.7119 11.1124 13.8101 11.25 13.9391C11.3607 14.0615 11.4468 14.2053 11.5035 14.3623C11.5602 14.5192 11.5863 14.6863 11.5804 14.8537V15.1717C11.5864 15.3391 11.5603 15.5062 11.5036 15.6632C11.4469 15.8201 11.3607 15.964 11.25 16.0863C11.1124 16.2153 10.9506 16.3137 10.7746 16.3753C10.5987 16.4369 10.4124 16.4604 10.2273 16.4444C10.0422 16.4603 9.85596 16.4368 9.68004 16.3752C9.50411 16.3136 9.34229 16.2153 9.2046 16.0863V16.0863Z" fill="white"/>
<path d="M7.64376 20.5H4V19.1004H5.13781C5.84521 19.1004 6.19891 18.9254 6.19891 18.5753C6.19751 18.5152 6.18206 18.4563 6.15388 18.4038C6.12569 18.3512 6.08562 18.3064 6.03707 18.2733C5.91371 18.1834 5.76488 18.1387 5.61414 18.1461C5.45557 18.1468 5.2988 18.181 5.15348 18.2467C5.00816 18.3124 4.87736 18.4081 4.7691 18.5279L4.03084 17.4623C4.23573 17.2396 4.48127 17.0612 4.75325 16.9373C5.02395 16.8114 5.31737 16.7464 5.61414 16.7466C6.05575 16.7276 6.48764 16.8841 6.82122 17.184C6.97291 17.3215 7.09354 17.4917 7.17455 17.6828C7.25557 17.8738 7.29499 18.0809 7.29003 18.2894C7.29653 18.6008 7.18656 18.9028 6.98305 19.1324L6.99806 19.2118H7.64373L7.64376 20.5ZM6.92135 16.2693H5.07611V4.5H6.92135V16.2693Z" fill="white"/>
</svg>
