<svg width="24" height="24" viewBox="0 0 24 24" fill="none" xmlns="http://www.w3.org/2000/svg">
<path d="M4.51624 7.9L2 15.1002H3.65114L4.19187 13.4585H6.82411L7.36377 15.1002H9.01491L6.50243 7.9H4.51624ZM4.58332 12.27L5.4807 9.54546H5.53792L6.43349 12.27L4.58332 12.27Z" fill="white"/>
<path d="M14.1603 12.2738C14.5363 12.1076 14.8523 11.8322 15.066 11.4843C15.283 11.1097 15.3913 10.6834 15.3793 10.252C15.3899 9.8181 15.2836 9.38921 15.0713 9.00925C14.8633 8.65386 14.5519 8.36845 14.1776 8.19004C13.7367 7.98583 13.2534 7.88649 12.7666 7.9H9.8905V15.1002H11.4317V12.5478H12.5568L13.9374 15.1002H15.639L14.0888 12.2962C14.1109 12.2868 14.1387 12.2837 14.1603 12.2738ZM11.4317 9.14461H12.4715C12.724 9.13658 12.9755 9.18026 13.2101 9.2729C13.3931 9.3477 13.5466 9.47909 13.6476 9.64736C13.7492 9.83265 13.7991 10.0413 13.7921 10.252C13.7995 10.4594 13.7495 10.6648 13.6476 10.8462C13.5462 11.0099 13.3929 11.1359 13.2116 11.2047C12.9774 11.2914 12.7283 11.3321 12.4783 11.3244H11.4317V9.14461Z" fill="white"/>
<path d="M21.834 12.2454C21.7268 12.0149 21.5722 11.809 21.38 11.6408C21.1739 11.4622 20.941 11.3163 20.6896 11.2083C20.4079 11.0861 20.1145 10.9918 19.814 10.9268L19.6026 10.8769L19.6191 9.1265C19.7759 9.15787 19.9246 9.22014 20.0564 9.3096C20.1627 9.38664 20.2505 9.48578 20.3137 9.60002C20.3769 9.71426 20.414 9.84081 20.4223 9.97075H21.8995C21.9004 9.5674 21.779 9.17302 21.5509 8.83846C21.3135 8.50277 20.9864 8.23875 20.606 8.07578C20.2958 7.94696 19.9668 7.86783 19.6314 7.84137L19.6393 7H18.7998L18.7918 7.83733C18.4384 7.86228 18.0914 7.94278 17.7638 8.07578C17.3723 8.23802 17.0324 8.50149 16.7797 8.83846C16.5391 9.17124 16.4149 9.57239 16.4258 9.98117C16.4137 10.2183 16.455 10.4551 16.5466 10.6745C16.6383 10.894 16.778 11.0906 16.9559 11.2503C17.3762 11.596 17.8764 11.8339 18.412 11.9431L18.7518 12.0273L18.734 13.8846C18.6333 13.8666 18.5343 13.8398 18.4383 13.8046C18.2401 13.7323 18.0662 13.6069 17.9361 13.4424C17.8063 13.2669 17.7326 13.0569 17.7246 12.8396H16.2331C16.2284 13.3016 16.3617 13.7547 16.6163 14.1423C16.8688 14.5001 17.2231 14.776 17.6343 14.935C17.9831 15.0651 18.3497 15.1428 18.7219 15.1658L18.7139 16H19.5542L19.5621 15.1704C19.9486 15.1523 20.3298 15.0733 20.6911 14.9365C21.0804 14.7847 21.4167 14.5247 21.6594 14.1879C21.8883 13.8496 22.0071 13.4503 21.9997 13.0434C22.0022 12.7688 21.9457 12.4969 21.834 12.2454V12.2454ZM18.7109 10.6439C18.5809 10.5985 18.4566 10.5383 18.3405 10.4646C18.2395 10.4013 18.1539 10.3168 18.0898 10.217C18.0275 10.1156 17.9983 9.9977 18.0062 9.87934C18.0042 9.72986 18.0524 9.58393 18.1432 9.46434C18.2459 9.33426 18.3833 9.23508 18.54 9.178C18.6177 9.14932 18.6979 9.12774 18.7796 9.11352L18.7649 10.6593C18.7477 10.6534 18.7278 10.6499 18.7109 10.6438V10.6439ZM20.2837 13.5005C20.1647 13.6427 20.0092 13.7508 19.8335 13.8136C19.7492 13.8439 19.6624 13.867 19.5741 13.8827L19.5896 12.2461C19.695 12.2796 19.7928 12.3144 19.8802 12.3511C20.0399 12.4119 20.1833 12.5081 20.2996 12.6322C20.3972 12.7458 20.4487 12.8912 20.4441 13.0401C20.4463 13.2073 20.3896 13.37 20.2838 13.5004L20.2837 13.5005Z" fill="white"/>
</svg>
