<svg width="24" height="24" viewBox="0 0 24 24" fill="none" xmlns="http://www.w3.org/2000/svg">
<path d="M14.86 8.96234C14.8346 8.68519 14.7434 8.41716 14.5934 8.17846C14.4434 7.93976 14.2384 7.73662 13.994 7.58436C13.4221 7.23992 12.754 7.06882 12.0779 7.09366C11.5887 7.08272 11.1022 7.16678 10.6481 7.34072C10.2784 7.48134 9.95548 7.71458 9.71354 8.01575C9.494 8.29629 9.37735 8.63779 9.38156 8.98769C9.37412 9.26558 9.45287 9.5394 9.60798 9.77487C9.76212 9.99876 9.96599 10.1877 10.2052 10.3283C10.4563 10.4781 10.7237 10.6017 11.0026 10.697C11.2715 10.7904 11.5452 10.8707 11.8226 10.9376L13.1343 11.2625C13.5832 11.3687 14.0239 11.5045 14.4531 11.6689C14.9011 11.8385 15.3226 12.0654 15.7061 12.3435C16.0911 12.6229 16.4099 12.9765 16.6416 13.3812C16.8908 13.838 17.0138 14.3477 16.9988 14.8623C17.0111 15.5477 16.8064 16.2207 16.4116 16.7937C15.9884 17.3814 15.3991 17.843 14.712 18.1249C13.8639 18.47 12.9475 18.6362 12.0256 18.6121C11.1318 18.6323 10.2431 18.4771 9.41493 18.1563C8.72407 17.8857 8.12635 17.4365 7.68926 16.8594C7.26364 16.2703 7.02444 15.5771 7.00006 14.8623H9.03423C9.05681 15.2857 9.22372 15.6906 9.50964 16.0155C9.79722 16.3282 10.1663 16.5631 10.5795 16.6966C11.0403 16.8488 11.5253 16.924 12.0129 16.9187C12.5363 16.9274 13.0565 16.8392 13.5447 16.6592C13.9583 16.5102 14.3236 16.2602 14.6038 15.9343C14.8616 15.6245 14.9984 15.2391 14.9908 14.8438C15.0056 14.5039 14.8851 14.1712 14.6534 13.9123C14.3988 13.6515 14.0876 13.4468 13.7414 13.3124C13.3212 13.1421 12.8882 13.0021 12.446 12.8935L10.8583 12.481C9.91653 12.2681 9.04088 11.8463 8.30263 11.25C7.9906 10.9786 7.74463 10.6456 7.58194 10.2742C7.41926 9.90278 7.3438 9.50197 7.36085 9.09984C7.34597 8.40824 7.56692 7.73068 7.99055 7.16885C8.42968 6.60432 9.01838 6.1611 9.69641 5.88453C10.4621 5.56883 11.2897 5.41223 12.1239 5.42518C12.9528 5.40954 13.7754 5.56507 14.5352 5.88107C15.1913 6.15355 15.7603 6.58588 16.1852 7.13453C16.5883 7.66721 16.8082 8.30576 16.8148 8.96239L14.86 8.96234ZM11.396 20L11.4483 4H12.6815L12.6292 20H11.396Z" fill="white"/>
</svg>
