<svg width="24" height="24" viewBox="0 0 24 24" fill="none" xmlns="http://www.w3.org/2000/svg">
<g clip-path="url(#clip0_5854_18840)">
<path d="M0 12C0 5.37258 5.37258 0 12 0V0C18.6274 0 24 5.37258 24 12V12C24 18.6274 18.6274 24 12 24V24C5.37258 24 0 18.6274 0 12V12Z" fill="white"/>
<mask id="mask0_5854_18840" style="mask-type:alpha" maskUnits="userSpaceOnUse" x="-4" y="0" width="32" height="24">
<rect x="-4" width="32" height="24" fill="white"/>
</mask>
<g mask="url(#mask0_5854_18840)">
<path fill-rule="evenodd" clip-rule="evenodd" d="M-4 0V24H28V0H-4Z" fill="#2E42A5"/>
<mask id="mask1_5854_18840" style="mask-type:alpha" maskUnits="userSpaceOnUse" x="-4" y="0" width="32" height="24">
<path fill-rule="evenodd" clip-rule="evenodd" d="M-4 0V24H28V0H-4Z" fill="white"/>
</mask>
<g mask="url(#mask1_5854_18840)">
<rect x="-4" width="18" height="14" fill="#2B409A"/>
<mask id="mask2_5854_18840" style="mask-type:alpha" maskUnits="userSpaceOnUse" x="-4" y="0" width="18" height="14">
<rect x="-4" width="18" height="14" fill="white"/>
</mask>
<g mask="url(#mask2_5854_18840)">
<path d="M-6.00415 12.9998L-2.0432 14.737L14.09 1.88875L16.1793 -0.69278L11.9436 -1.2734L5.3633 4.26329L0.0667939 7.99372L-6.00415 12.9998Z" fill="#F7FCFF"/>
<path d="M-5.46191 14.217L-3.44399 15.2251L15.429 -0.932632H12.5956L-5.46191 14.217Z" fill="#F50100"/>
<path d="M16.0044 12.9998L12.0434 14.737L-4.08975 1.88875L-6.17906 -0.69278L-1.9434 -1.2734L4.63695 4.26329L9.93345 7.99372L16.0044 12.9998Z" fill="#F7FCFF"/>
<path d="M15.8691 13.8733L13.8512 14.8815L5.81489 7.96351L3.43229 7.19059L-6.3802 -0.683947H-3.54681L6.26018 7.00368L8.86513 7.9305L15.8691 13.8733Z" fill="#F50100"/>
<mask id="path-11-outside-1_5854_18840" maskUnits="userSpaceOnUse" x="-6" y="-2" width="22" height="18" fill="black">
<rect fill="white" x="-6" y="-2" width="22" height="18"/>
<path fill-rule="evenodd" clip-rule="evenodd" d="M5.98451 0H3.98451V6H-4V8H3.98451V14H5.98451V8H14V6H5.98451V0Z"/>
</mask>
<path fill-rule="evenodd" clip-rule="evenodd" d="M5.98451 0H3.98451V6H-4V8H3.98451V14H5.98451V8H14V6H5.98451V0Z" fill="#F50100"/>
<path d="M3.98451 0V-1.5H2.48451V0H3.98451ZM5.98451 0H7.48451V-1.5H5.98451V0ZM3.98451 6V7.5H5.48451V6H3.98451ZM-4 6V4.5H-5.5V6H-4ZM-4 8H-5.5V9.5H-4V8ZM3.98451 8H5.48451V6.5H3.98451V8ZM3.98451 14H2.48451V15.5H3.98451V14ZM5.98451 14V15.5H7.48451V14H5.98451ZM5.98451 8V6.5H4.48451V8H5.98451ZM14 8V9.5H15.5V8H14ZM14 6H15.5V4.5H14V6ZM5.98451 6H4.48451V7.5H5.98451V6ZM3.98451 1.5H5.98451V-1.5H3.98451V1.5ZM5.48451 6V0H2.48451V6H5.48451ZM-4 7.5H3.98451V4.5H-4V7.5ZM-2.5 8V6H-5.5V8H-2.5ZM3.98451 6.5H-4V9.5H3.98451V6.5ZM5.48451 14V8H2.48451V14H5.48451ZM5.98451 12.5H3.98451V15.5H5.98451V12.5ZM4.48451 8V14H7.48451V8H4.48451ZM14 6.5H5.98451V9.5H14V6.5ZM12.5 6V8H15.5V6H12.5ZM5.98451 7.5H14V4.5H5.98451V7.5ZM4.48451 0V6H7.48451V0H4.48451Z" fill="#F7FCFF" mask="url(#path-11-outside-1_5854_18840)"/>
</g>
</g>
<path d="M5 20.5L3.69835 21.7029L3.82725 19.9352L2.07522 19.6676L3.53761 18.6662L2.65451 17.1295L4.34917 17.6485L5 16L5.65083 17.6485L7.34549 17.1295L6.46239 18.6662L7.92478 19.6676L6.17275 19.9352L6.30165 21.7029L5 20.5Z" fill="#F7FCFF"/>
<path d="M18 13L17.1322 13.8019L17.2182 12.6235L16.0501 12.445L17.0251 11.7775L16.4363 10.753L17.5661 11.099L18 10L18.4339 11.099L19.5637 10.753L18.9749 11.7775L19.9499 12.445L18.7818 12.6235L18.8678 13.8019L18 13Z" fill="#F7FCFF"/>
<path d="M20 5L19.1322 5.80194L19.2182 4.62349L18.0501 4.44504L19.0251 3.77748L18.4363 2.75302L19.5661 3.09903L20 2L20.4339 3.09903L21.5637 2.75302L20.9749 3.77748L21.9499 4.44504L20.7818 4.62349L20.8678 5.80194L20 5Z" fill="#F7FCFF"/>
<path d="M25 9L24.1322 9.80194L24.2182 8.62349L23.0501 8.44504L24.0251 7.77748L23.4363 6.75302L24.5661 7.09903L25 6L25.4339 7.09903L26.5637 6.75302L25.9749 7.77748L26.9499 8.44504L25.7818 8.62349L25.8678 9.80194L25 9Z" fill="#F7FCFF"/>
<path d="M21 22L20.1322 22.8019L20.2182 21.6235L19.0501 21.445L20.0251 20.7775L19.4363 19.753L20.5661 20.099L21 19L21.4339 20.099L22.5637 19.753L21.9749 20.7775L22.9499 21.445L21.7818 21.6235L21.8678 22.8019L21 22Z" fill="#F7FCFF"/>
<path d="M24.5 14.25L23.6183 14.7135L23.7867 13.7318L23.0734 13.0365L24.0592 12.8932L24.5 12L24.9408 12.8932L25.9266 13.0365L25.2133 13.7318L25.3817 14.7135L24.5 14.25Z" fill="#F7FCFF"/>
</g>
</g>
<defs>
<clipPath id="clip0_5854_18840">
<path d="M0 12C0 5.37258 5.37258 0 12 0V0C18.6274 0 24 5.37258 24 12V12C24 18.6274 18.6274 24 12 24V24C5.37258 24 0 18.6274 0 12V12Z" fill="white"/>
</clipPath>
</defs>
</svg>
