<svg width="24" height="24" viewBox="0 0 24 24" fill="none" xmlns="http://www.w3.org/2000/svg">
<g clip-path="url(#clip0_5854_18849)">
<path d="M0 12C0 5.37258 5.37258 0 12 0V0C18.6274 0 24 5.37258 24 12V12C24 18.6274 18.6274 24 12 24V24C5.37258 24 0 18.6274 0 12V12Z" fill="white"/>
<mask id="mask0_5854_18849" style="mask-type:alpha" maskUnits="userSpaceOnUse" x="-4" y="0" width="32" height="24">
<rect x="-4" width="32" height="24" fill="white"/>
</mask>
<g mask="url(#mask0_5854_18849)">
<rect x="-4" width="32" height="24" fill="#E31D1C"/>
<path fill-rule="evenodd" clip-rule="evenodd" d="M-4 0H2.79999L8 2L2.79999 4L8 6L2.79999 8L8 10L2.79999 12L8 14L2.79999 16L8 18L2.79999 20L8 22L2.79999 24H-4V0Z" fill="#F7FCFF"/>
</g>
</g>
<defs>
<clipPath id="clip0_5854_18849">
<path d="M0 12C0 5.37258 5.37258 0 12 0V0C18.6274 0 24 5.37258 24 12V12C24 18.6274 18.6274 24 12 24V24C5.37258 24 0 18.6274 0 12V12Z" fill="white"/>
</clipPath>
</defs>
</svg>
