<svg width="24" height="24" viewBox="0 0 24 24" fill="none" xmlns="http://www.w3.org/2000/svg">
<g clip-path="url(#clip0_5854_18843)">
<path d="M0 12C0 5.37258 5.37258 0 12 0V0C18.6274 0 24 5.37258 24 12V12C24 18.6274 18.6274 24 12 24V24C5.37258 24 0 18.6274 0 12V12Z" fill="white"/>
<mask id="mask0_5854_18843" style="mask-type:alpha" maskUnits="userSpaceOnUse" x="-4" y="0" width="32" height="24">
<rect x="-4" width="32" height="24" fill="white"/>
</mask>
<g mask="url(#mask0_5854_18843)">
<path fill-rule="evenodd" clip-rule="evenodd" d="M-4 0V24H28V0H-4Z" fill="#AF0100"/>
<mask id="mask1_5854_18843" style="mask-type:alpha" maskUnits="userSpaceOnUse" x="-4" y="0" width="32" height="24">
<path fill-rule="evenodd" clip-rule="evenodd" d="M-4 0V24H28V0H-4Z" fill="white"/>
</mask>
<g mask="url(#mask1_5854_18843)">
<path fill-rule="evenodd" clip-rule="evenodd" d="M17.0298 11.0427L25.9185 11.0427V20.0326C25.9185 20.0326 25.6426 21.2702 23.9315 22.0874C22.2205 22.9045 21.4742 22.9045 21.4742 22.9045C21.4742 22.9045 18.7487 22.2349 18.1852 21.6078C17.6217 20.9806 17.0298 20.7487 17.0298 19.6525C17.0298 18.5562 17.0298 11.0427 17.0298 11.0427Z" fill="white"/>
<mask id="mask2_5854_18843" style="mask-type:alpha" maskUnits="userSpaceOnUse" x="17" y="11" width="9" height="12">
<path fill-rule="evenodd" clip-rule="evenodd" d="M17.0298 11.0427L25.9185 11.0427V20.0326C25.9185 20.0326 25.6426 21.2702 23.9315 22.0874C22.2205 22.9045 21.4742 22.9045 21.4742 22.9045C21.4742 22.9045 18.7487 22.2349 18.1852 21.6078C17.6217 20.9806 17.0298 20.7487 17.0298 19.6525C17.0298 18.5562 17.0298 11.0427 17.0298 11.0427Z" fill="white"/>
</mask>
<g mask="url(#mask2_5854_18843)">
<path fill-rule="evenodd" clip-rule="evenodd" d="M21.4554 11.57C21.4888 11.5219 21.5063 11.4758 21.5063 11.4758L21.5032 11.6262C21.535 11.6557 21.574 11.6778 21.6199 11.6778L21.8169 11.5611C21.8169 11.5611 21.7716 11.819 21.8311 11.8117C21.8311 11.8117 22.0148 11.6903 22.0877 11.7558C22.0877 11.7558 21.8738 12.0008 22.1313 12.0024C22.1313 12.0024 22.455 11.9503 22.427 12.1006C22.427 12.1006 22.1844 12.546 22.2863 12.5743L22.6868 12.5625C22.6868 12.5625 22.4184 12.7959 22.4256 12.8942L22.5593 12.9992C22.5593 12.9992 22.6343 12.8146 22.6974 12.9656C22.6974 12.9656 22.7056 13.2398 22.6636 13.2398L22.3076 13.3538C22.3076 13.3538 22.2845 13.4878 22.4118 13.4878C22.4118 13.4878 22.7064 13.3631 22.7148 13.4898C22.7148 13.4898 22.676 13.6362 22.6589 13.7599C22.6589 13.7599 22.6401 14.2084 22.6373 14.2471C22.6373 14.2471 22.6606 14.2303 22.8847 14.4943C22.8847 14.4943 23.4502 14.8516 23.5538 14.7694C23.5824 14.7467 23.6011 14.7002 23.6222 14.6477C23.6777 14.5098 23.75 14.3299 24.0627 14.427L24.0655 14.4279C24.4951 14.5611 24.5995 14.5936 24.4909 14.7694C24.382 14.9455 23.9685 15.3653 23.9685 15.3653L23.61 16.8034H24.3779C24.6096 16.8034 24.8224 16.8932 24.8632 17.0853C24.9041 17.2773 24.9147 17.6506 24.9147 17.6951C24.9147 17.7012 24.9137 17.7095 24.9126 17.7193C24.9053 17.7816 24.8907 17.9053 25.0741 17.9053C25.0741 17.9053 25.4414 17.9528 25.3653 17.9795C25.3653 17.9795 25.105 17.9293 25.1032 18.1584C25.1032 18.1584 25.0032 18.1879 25.0516 18.4708C25.0516 18.4708 25.2535 19.0905 25.1195 18.9628C25.1195 18.9628 24.845 18.6406 24.845 18.5033C24.845 18.5033 24.649 18.5806 24.6551 18.7825C24.6551 18.7825 24.4696 19.0307 24.4752 18.7881C24.4752 18.7881 24.7894 18.192 24.6138 18.327C24.6138 18.327 24.3863 18.8193 24.3565 18.7446L23.5125 18.5164L23.191 19.9311C23.191 19.9311 23.2766 20.1966 23.5125 20.1966C23.598 20.1966 23.6739 20.1632 23.7432 20.1327C23.865 20.0792 23.9662 20.0347 24.0627 20.1966C24.2141 20.4506 24.2815 20.4743 24.3565 20.4743C24.4314 20.4743 24.519 20.5717 24.4752 20.7207C24.4314 20.8697 24.2347 20.9818 24.1487 20.9818C24.1171 20.9818 24.1255 21.0087 24.136 21.0427C24.1542 21.1011 24.1789 21.1805 24.0187 21.1805C23.8917 21.1805 23.8282 21.1653 23.7648 21.1501C23.7016 21.135 23.6384 21.1199 23.5125 21.1199C23.483 21.1199 23.4537 21.1202 23.4249 21.1205C23.2082 21.123 23.024 21.1251 23.024 20.9818C23.024 20.8428 22.857 20.7197 22.7092 20.6107C22.6844 20.5925 22.6601 20.5746 22.6373 20.5571C22.4783 20.4354 22.1313 19.0592 22.1313 19.0592L21.475 14.926L21.4554 13.9667L21.4358 14.926L20.7796 19.0592C20.7796 19.0592 20.4326 20.4354 20.2735 20.5571C20.2507 20.5746 20.2265 20.5925 20.2017 20.6107C20.0538 20.7197 19.8868 20.8428 19.8868 20.9818C19.8868 21.1251 19.7026 21.123 19.4859 21.1205C19.4572 21.1202 19.4279 21.1199 19.3984 21.1199C19.2725 21.1199 19.2093 21.135 19.146 21.1501C19.0826 21.1653 19.0191 21.1805 18.8922 21.1805C18.7319 21.1805 18.7566 21.1011 18.7748 21.0427C18.7854 21.0087 18.7938 20.9818 18.7621 20.9818C18.6761 20.9818 18.4794 20.8697 18.4356 20.7207C18.3919 20.5717 18.4794 20.4743 18.5544 20.4743C18.6294 20.4743 18.6967 20.4506 18.8481 20.1966C18.9446 20.0347 19.0459 20.0792 19.1677 20.1327C19.2369 20.1632 19.3129 20.1966 19.3984 20.1966C19.6343 20.1966 19.7199 19.9311 19.7199 19.9311L19.3984 18.5164L18.5544 18.7446C18.5245 18.8193 18.297 18.327 18.297 18.327C18.1214 18.192 18.4356 18.7881 18.4356 18.7881C18.4413 19.0307 18.2558 18.7825 18.2558 18.7825C18.2618 18.5806 18.0659 18.5033 18.0659 18.5033C18.0659 18.6406 17.7913 18.9628 17.7913 18.9628C17.6573 19.0905 17.8593 18.4708 17.8593 18.4708C17.9077 18.1879 17.8077 18.1584 17.8077 18.1584C17.8059 17.9293 17.5455 17.9795 17.5455 17.9795C17.4694 17.9528 17.8367 17.9053 17.8367 17.9053C18.0202 17.9053 18.0056 17.7816 17.9983 17.7193C17.9971 17.7095 17.9961 17.7012 17.9961 17.6951C17.9961 17.6506 18.0068 17.2773 18.0476 17.0853C18.0884 16.8932 18.3013 16.8034 18.5329 16.8034H19.3008L18.9423 15.3653C18.9423 15.3653 18.5288 14.9455 18.42 14.7694C18.3114 14.5936 18.4158 14.5611 18.8453 14.4279L18.8481 14.427C19.1608 14.3299 19.2332 14.5098 19.2886 14.6477C19.3098 14.7002 19.3284 14.7467 19.357 14.7694C19.4607 14.8516 20.0261 14.4943 20.0261 14.4943C20.2502 14.2303 20.2735 14.2471 20.2735 14.2471C20.2707 14.2084 20.252 13.7599 20.252 13.7599C20.2349 13.6362 20.196 13.4898 20.196 13.4898C20.2044 13.3631 20.499 13.4878 20.499 13.4878C20.6263 13.4878 20.6033 13.3538 20.6033 13.3538L20.2472 13.2398C20.2053 13.2398 20.2135 12.9656 20.2135 12.9656C20.2766 12.8146 20.3516 12.9992 20.3516 12.9992L20.4852 12.8942C20.4924 12.7959 20.224 12.5625 20.224 12.5625L20.6245 12.5743C20.7265 12.546 20.4839 12.1006 20.4839 12.1006C20.4559 11.9503 20.7796 12.0024 20.7796 12.0024C21.0371 12.0008 20.8232 11.7558 20.8232 11.7558C20.896 11.6903 21.0797 11.8117 21.0797 11.8117C21.1393 11.819 21.0939 11.5611 21.0939 11.5611L21.291 11.6778C21.3368 11.6778 21.3759 11.6557 21.4076 11.6262L21.4046 11.4758C21.4046 11.4758 21.4221 11.5219 21.4554 11.57Z" fill="#CF142B"/>
<path fill-rule="evenodd" clip-rule="evenodd" d="M17.2223 20L16.8953 19.6786V23.3214H20.7674H22.1278H25.9999V19.6786L25.6729 20C25.7219 19.6158 25.6477 19.7393 25.559 19.887C25.517 19.9569 25.4718 20.0321 25.4349 20.0615C25.4002 20.0892 25.3923 19.9769 25.3845 19.8669C25.3776 19.7696 25.3709 19.674 25.3458 19.6786C25.3458 19.6786 25.2468 19.5206 25.186 19.5804C25.1738 19.5923 25.1648 19.6803 25.1545 19.7798C25.1434 19.8873 25.1309 20.0083 25.1117 20.0615C25.0893 20.1235 25.0188 20 25.0188 20C25.0188 20 25.0224 19.5332 24.9509 19.4629C24.8794 19.3926 24.8723 20 24.8723 20C24.8723 20 24.7627 19.5501 24.6521 19.5804C24.6335 19.5855 24.6238 19.7031 24.6135 19.8297C24.6034 19.9528 24.5926 20.0843 24.5722 20.1289C24.5304 20.2204 24.4326 19.5804 24.4326 19.5804C24.4326 19.5804 24.4035 20.1046 24.3058 20.1289C24.2894 20.133 24.2743 20.0482 24.2577 19.9547C24.2416 19.8648 24.2242 19.7669 24.2028 19.7314C24.1575 19.6565 23.9444 19.9495 23.9444 19.9495L23.7953 19.3447L23.3836 19.6786H22.1278H20.7674H19.5115L19.0999 19.3447L18.9508 19.9495C18.9508 19.9495 18.7376 19.6565 18.6924 19.7314C18.671 19.7669 18.6535 19.8648 18.6375 19.9547C18.6208 20.0482 18.6057 20.133 18.5894 20.1289C18.4917 20.1046 18.4626 19.5804 18.4626 19.5804C18.4626 19.5804 18.3647 20.2204 18.323 20.1289C18.3026 20.0843 18.2918 19.9528 18.2817 19.8297C18.2713 19.7031 18.2617 19.5855 18.2431 19.5804C18.1325 19.5501 18.0229 20 18.0229 20C18.0229 20 18.0158 19.3926 17.9443 19.4629C17.8728 19.5332 17.8764 20 17.8764 20C17.8764 20 17.8059 20.1235 17.7835 20.0615C17.7642 20.0083 17.7518 19.8873 17.7407 19.7798C17.7304 19.6803 17.7213 19.5923 17.7092 19.5804C17.6484 19.5206 17.5493 19.6786 17.5493 19.6786C17.5243 19.674 17.5175 19.7696 17.5107 19.8669C17.5029 19.9769 17.495 20.0892 17.4603 20.0615C17.4234 20.0321 17.3782 19.9569 17.3362 19.887C17.2475 19.7393 17.1733 19.6158 17.2223 20Z" fill="#5DC852"/>
<path fill-rule="evenodd" clip-rule="evenodd" d="M24.1802 14.94C24.1802 14.94 24.2231 15.0503 24.1802 15.1591V14.94ZM21.4858 14.7626C21.5594 14.7737 21.6256 14.7916 21.6821 14.8069C21.8139 14.8425 21.8933 14.864 21.8933 14.752C21.8933 14.6703 22.1095 14.776 22.4077 14.9216C22.7963 15.1114 23.3239 15.3691 23.6936 15.3691C24.0157 15.3691 24.1385 15.2648 24.1802 15.1591V15.5843C24.1802 15.6602 24.1969 15.7503 24.2127 15.835C24.2415 15.9904 24.267 16.1278 24.1802 16.1278C24.0462 16.1278 23.4457 16.5501 23.4457 17.0365C23.4457 17.5229 24.1802 17.9225 24.1802 17.9225C24.1802 17.9225 23.6936 19.6349 23.268 19.8965C23.0097 20.0553 22.8565 19.925 22.776 19.8565C22.7239 19.8121 22.7022 19.7937 22.7022 19.8965C22.7022 20.1581 22.3333 20.5271 21.8933 20.6727C21.6088 20.7669 21.6922 20.8391 21.7867 20.921C21.8383 20.9657 21.8933 21.0134 21.8933 21.069C21.8933 21.1949 21.5462 21.0189 21.4069 20.9432C21.2676 21.0189 20.9205 21.1949 20.9205 21.069C20.9205 21.0134 20.9755 20.9657 21.0271 20.921C21.1216 20.8391 21.205 20.7669 20.9205 20.6727C20.4805 20.5271 20.1116 20.1581 20.1116 19.8965C20.1116 19.7937 20.0899 19.8121 20.0378 19.8565C19.9573 19.925 19.8041 20.0553 19.5458 19.8965C19.1201 19.6349 18.6336 17.9225 18.6336 17.9225C18.6336 17.9225 19.3681 17.5229 19.3681 17.0365C19.3681 16.5501 18.7676 16.1278 18.6336 16.1278C18.5468 16.1278 18.5723 15.9904 18.6011 15.835C18.6169 15.7503 18.6336 15.6602 18.6336 15.5843V15.1591C18.6753 15.2648 18.7981 15.3691 19.1201 15.3691C19.4899 15.3691 20.0175 15.1114 20.4061 14.9216C20.7043 14.776 20.9205 14.6703 20.9205 14.752C20.9205 14.864 20.9999 14.8425 21.1317 14.8069C21.1882 14.7916 21.2544 14.7737 21.328 14.7626C21.335 14.7556 21.3424 14.752 21.3501 14.752C21.3694 14.752 21.3883 14.7526 21.4069 14.7539C21.4255 14.7526 21.4444 14.752 21.4637 14.752C21.4714 14.752 21.4788 14.7556 21.4858 14.7626ZM18.6336 14.94C18.6336 14.94 18.5907 15.0503 18.6336 15.1591V14.94Z" fill="#4ABCE6"/>
<mask id="mask3_5854_18843" style="mask-type:alpha" maskUnits="userSpaceOnUse" x="18" y="14" width="7" height="8">
<path fill-rule="evenodd" clip-rule="evenodd" d="M24.1802 14.94C24.1802 14.94 24.2231 15.0503 24.1802 15.1591V14.94ZM21.4858 14.7626C21.5594 14.7737 21.6256 14.7916 21.6821 14.8069C21.8139 14.8425 21.8933 14.864 21.8933 14.752C21.8933 14.6703 22.1095 14.776 22.4077 14.9216C22.7963 15.1114 23.3239 15.3691 23.6936 15.3691C24.0157 15.3691 24.1385 15.2648 24.1802 15.1591V15.5843C24.1802 15.6602 24.1969 15.7503 24.2127 15.835C24.2415 15.9904 24.267 16.1278 24.1802 16.1278C24.0462 16.1278 23.4457 16.5501 23.4457 17.0365C23.4457 17.5229 24.1802 17.9225 24.1802 17.9225C24.1802 17.9225 23.6936 19.6349 23.268 19.8965C23.0097 20.0553 22.8565 19.925 22.776 19.8565C22.7239 19.8121 22.7022 19.7937 22.7022 19.8965C22.7022 20.1581 22.3333 20.5271 21.8933 20.6727C21.6088 20.7669 21.6922 20.8391 21.7867 20.921C21.8383 20.9657 21.8933 21.0134 21.8933 21.069C21.8933 21.1949 21.5462 21.0189 21.4069 20.9432C21.2676 21.0189 20.9205 21.1949 20.9205 21.069C20.9205 21.0134 20.9755 20.9657 21.0271 20.921C21.1216 20.8391 21.205 20.7669 20.9205 20.6727C20.4805 20.5271 20.1116 20.1581 20.1116 19.8965C20.1116 19.7937 20.0899 19.8121 20.0378 19.8565C19.9573 19.925 19.8041 20.0553 19.5458 19.8965C19.1201 19.6349 18.6336 17.9225 18.6336 17.9225C18.6336 17.9225 19.3681 17.5229 19.3681 17.0365C19.3681 16.5501 18.7676 16.1278 18.6336 16.1278C18.5468 16.1278 18.5723 15.9904 18.6011 15.835C18.6169 15.7503 18.6336 15.6602 18.6336 15.5843V15.1591C18.6753 15.2648 18.7981 15.3691 19.1201 15.3691C19.4899 15.3691 20.0175 15.1114 20.4061 14.9216C20.7043 14.776 20.9205 14.6703 20.9205 14.752C20.9205 14.864 20.9999 14.8425 21.1317 14.8069C21.1882 14.7916 21.2544 14.7737 21.328 14.7626C21.335 14.7556 21.3424 14.752 21.3501 14.752C21.3694 14.752 21.3883 14.7526 21.4069 14.7539C21.4255 14.7526 21.4444 14.752 21.4637 14.752C21.4714 14.752 21.4788 14.7556 21.4858 14.7626ZM18.6336 14.94C18.6336 14.94 18.5907 15.0503 18.6336 15.1591V14.94Z" fill="white"/>
</mask>
<g mask="url(#mask3_5854_18843)">
<path fill-rule="evenodd" clip-rule="evenodd" d="M18.4651 16.8929C18.4651 16.8929 20.6517 16.6599 21.9356 16.6599C23.2195 16.6599 22.5291 16.739 23.0226 16.7943C23.5161 16.8497 24.0116 16.8929 24.0116 16.8929V21.2857H18.4651V16.8929Z" fill="white"/>
<path fill-rule="evenodd" clip-rule="evenodd" d="M18.9848 16.2727C18.9848 16.2727 18.8061 15.9226 19.531 15.7973C20.256 15.6721 20.4803 15.6194 20.755 15.946C21.0297 16.2727 21.5881 17.6791 21.1716 18.0571C20.755 18.435 20.4648 18.8326 20.3 18.6944C20.1352 18.5561 20.4877 18.0571 19.6161 18.0571C18.7445 18.0571 18.4468 18.0571 18.4468 18.0571L18.9848 16.2727Z" fill="#FFDA3A"/>
<path fill-rule="evenodd" clip-rule="evenodd" d="M22.6572 16.6123L21.0944 17.0915C21.0944 17.0915 21.236 18.1582 20.8329 18.1582C20.4298 18.1582 20.2581 15.849 20.2581 15.849H20.0916L20.6226 18.3886L20.2581 18.6245L21.3744 19.1207L23.2669 18.1582L22.6572 16.6123Z" fill="#B35A1F"/>
</g>
<path fill-rule="evenodd" clip-rule="evenodd" d="M20.4061 14.9216C20.0175 15.1114 19.4899 15.3691 19.1201 15.3691C18.8617 15.3691 18.6995 15.3188 18.6336 15.2181V15.5843C18.6336 15.6602 18.6169 15.7503 18.6011 15.835C18.5723 15.9904 18.5468 16.1278 18.6336 16.1278C18.7676 16.1278 19.3681 16.5501 19.3681 17.0365C19.3681 17.3608 19.1233 17.6561 18.6336 17.9225C18.958 19.0641 19.262 19.7221 19.5458 19.8965C19.7741 20.0369 19.9203 19.9513 20.0107 19.8791C20.0205 19.8712 20.0295 19.8635 20.0378 19.8565C20.0899 19.8121 20.1116 19.7937 20.1116 19.8965C20.1116 19.906 20.1121 19.9157 20.1137 19.9313C20.1438 20.1898 20.4997 20.5334 20.9205 20.6727C21.205 20.7669 21.1216 20.8391 21.0271 20.921C20.9755 20.9657 20.9205 21.0134 20.9205 21.069C20.9205 21.1684 21.0826 21.1267 21.4069 20.9441C21.7312 21.1267 21.8933 21.1684 21.8933 21.069C21.8933 21.0134 21.8383 20.9657 21.7867 20.921C21.6922 20.8391 21.6088 20.7669 21.8933 20.6727C22.3141 20.5334 22.6699 20.1898 22.7008 19.9254C22.7017 19.9157 22.7022 19.906 22.7022 19.8965C22.7022 19.7937 22.7238 19.8121 22.7785 19.8585C22.7871 19.8658 22.7966 19.8739 22.807 19.8823C22.8935 19.9513 23.0397 20.0369 23.268 19.8965C23.5518 19.7221 23.8558 19.0641 24.1802 17.9225C23.6905 17.6561 23.4457 17.3608 23.4457 17.0365C23.4457 16.5501 24.0462 16.1278 24.1802 16.1278C24.267 16.1278 24.2415 15.9904 24.2127 15.835C24.1969 15.7503 24.1802 15.6602 24.1802 15.5843V15.2181C24.2255 15.1491 24.2255 15.0564 24.1802 14.94V15.2181C24.1142 15.3188 23.9521 15.3691 23.6936 15.3691C23.3239 15.3691 22.7963 15.1114 22.4077 14.9216C22.1095 14.776 21.8933 14.6703 21.8933 14.752C21.8933 14.864 21.8139 14.8425 21.6821 14.8069C21.6266 14.7918 21.5619 14.7743 21.4898 14.7632C21.4815 14.7557 21.4728 14.752 21.4637 14.752C21.4444 14.752 21.4255 14.7526 21.4069 14.7539C21.3883 14.7526 21.3694 14.752 21.3501 14.752C21.341 14.752 21.3323 14.7557 21.324 14.7632C21.2519 14.7743 21.1872 14.7918 21.1317 14.8069C20.9999 14.8425 20.9205 14.864 20.9205 14.752C20.9205 14.6703 20.7043 14.776 20.4061 14.9216Z" fill="#FFD129"/>
<path fill-rule="evenodd" clip-rule="evenodd" d="M25.9185 11.0427H17.0298V19.6525C17.0298 20.4978 17.3818 20.8292 17.8013 21.2242C17.9258 21.3414 18.0562 21.4642 18.1852 21.6078C18.5609 22.0259 19.6572 22.4581 21.4742 22.9045C21.9717 22.9045 22.7908 22.6322 23.9315 22.0874C25.0722 21.5426 25.7346 20.8577 25.9185 20.0326V11.0427ZM17.8093 20.9395C17.3898 20.5338 17.2391 20.2392 17.2391 19.6525V11.257H25.7092V20.0078C25.5344 20.7493 24.9194 21.3791 23.8431 21.8932C22.7477 22.4163 21.9596 22.6811 21.498 22.69C19.7384 22.2562 18.6742 21.8355 18.3392 21.4627C18.3128 21.4332 18.2856 21.4039 18.2576 21.3745C18.1877 21.301 18.1166 21.2309 18.0245 21.1434C18.0294 21.1481 17.8551 20.9838 17.8093 20.9395Z" fill="black"/>
</g>
<rect x="-4" width="18" height="14" fill="#2B409A"/>
<mask id="mask4_5854_18843" style="mask-type:alpha" maskUnits="userSpaceOnUse" x="-4" y="0" width="18" height="14">
<rect x="-4" width="18" height="14" fill="white"/>
</mask>
<g mask="url(#mask4_5854_18843)">
<path d="M-6.00415 12.9998L-2.0432 14.737L14.09 1.88875L16.1793 -0.69278L11.9436 -1.2734L5.3633 4.26329L0.0667939 7.99372L-6.00415 12.9998Z" fill="#F7FCFF"/>
<path d="M-5.46191 14.217L-3.44399 15.2251L15.429 -0.932632H12.5956L-5.46191 14.217Z" fill="#F50100"/>
<path d="M16.0044 12.9998L12.0434 14.737L-4.08975 1.88875L-6.17906 -0.69278L-1.9434 -1.2734L4.63695 4.26329L9.93345 7.99372L16.0044 12.9998Z" fill="#F7FCFF"/>
<path d="M15.8691 13.8733L13.8512 14.8815L5.81489 7.96351L3.43229 7.19059L-6.3802 -0.683947H-3.54681L6.26018 7.00368L8.86513 7.9305L15.8691 13.8733Z" fill="#F50100"/>
<mask id="path-22-outside-1_5854_18843" maskUnits="userSpaceOnUse" x="-6" y="-2" width="22" height="18" fill="black">
<rect fill="white" x="-6" y="-2" width="22" height="18"/>
<path fill-rule="evenodd" clip-rule="evenodd" d="M5.98451 0H3.98451V6H-4V8H3.98451V14H5.98451V8H14V6H5.98451V0Z"/>
</mask>
<path fill-rule="evenodd" clip-rule="evenodd" d="M5.98451 0H3.98451V6H-4V8H3.98451V14H5.98451V8H14V6H5.98451V0Z" fill="#F50100"/>
<path d="M3.98451 0V-1.5H2.48451V0H3.98451ZM5.98451 0H7.48451V-1.5H5.98451V0ZM3.98451 6V7.5H5.48451V6H3.98451ZM-4 6V4.5H-5.5V6H-4ZM-4 8H-5.5V9.5H-4V8ZM3.98451 8H5.48451V6.5H3.98451V8ZM3.98451 14H2.48451V15.5H3.98451V14ZM5.98451 14V15.5H7.48451V14H5.98451ZM5.98451 8V6.5H4.48451V8H5.98451ZM14 8V9.5H15.5V8H14ZM14 6H15.5V4.5H14V6ZM5.98451 6H4.48451V7.5H5.98451V6ZM3.98451 1.5H5.98451V-1.5H3.98451V1.5ZM5.48451 6V0H2.48451V6H5.48451ZM-4 7.5H3.98451V4.5H-4V7.5ZM-2.5 8V6H-5.5V8H-2.5ZM3.98451 6.5H-4V9.5H3.98451V6.5ZM5.48451 14V8H2.48451V14H5.48451ZM5.98451 12.5H3.98451V15.5H5.98451V12.5ZM4.48451 8V14H7.48451V8H4.48451ZM14 6.5H5.98451V9.5H14V6.5ZM12.5 6V8H15.5V6H12.5ZM5.98451 7.5H14V4.5H5.98451V7.5ZM4.48451 0V6H7.48451V0H4.48451Z" fill="#F7FCFF" mask="url(#path-22-outside-1_5854_18843)"/>
</g>
</g>
</g>
</g>
<defs>
<clipPath id="clip0_5854_18843">
<path d="M0 12C0 5.37258 5.37258 0 12 0V0C18.6274 0 24 5.37258 24 12V12C24 18.6274 18.6274 24 12 24V24C5.37258 24 0 18.6274 0 12V12Z" fill="white"/>
</clipPath>
</defs>
</svg>
