<svg width="24" height="24" viewBox="0 0 24 24" fill="none" xmlns="http://www.w3.org/2000/svg">
<path d="M9.64156 13.0316C10.1384 12.81 10.5559 12.4428 10.8383 11.979C11.1249 11.4795 11.2681 10.911 11.2522 10.3359C11.2663 9.75735 11.1258 9.18551 10.8453 8.67888C10.5704 8.20504 10.159 7.82448 9.66444 7.58661C9.08185 7.31432 8.44336 7.18188 7.80016 7.19989H4V16.8002H6.03636V13.397H7.52298L9.3471 16.8002H11.5953L9.54715 13.0615C9.5764 13.049 9.61308 13.0448 9.64156 13.0316ZM6.03636 8.85937H7.4102C7.74385 8.84867 8.07612 8.90691 8.3861 9.03043C8.62787 9.13016 8.83067 9.30534 8.96408 9.5297C9.09843 9.77676 9.16436 10.055 9.15509 10.3359C9.16485 10.6124 9.09881 10.8863 8.96408 11.1282C8.83013 11.3464 8.62766 11.5144 8.38809 11.6061C8.07863 11.7218 7.74947 11.776 7.41914 11.7658H6.03636V8.85937ZM19.7807 12.9939C19.639 12.6866 19.4347 12.412 19.1808 12.1877C18.9085 11.9496 18.6007 11.7551 18.2686 11.611C17.8963 11.4481 17.5088 11.3224 17.1116 11.2357L16.8323 11.1692L16.8542 8.83534C17.0613 8.87716 17.2578 8.96019 17.432 9.07946C17.5723 9.18218 17.6884 9.31437 17.7719 9.46669C17.8555 9.61901 17.9045 9.78775 17.9154 9.961H19.8672C19.8684 9.4232 19.708 8.89736 19.4067 8.45128C19.0929 8.0037 18.6607 7.65167 18.1582 7.43437C17.7483 7.26262 17.3136 7.15711 16.8704 7.12183L16.8808 6H15.7716L15.761 7.11644C15.2942 7.14971 14.8357 7.25704 14.4027 7.43437C13.8855 7.65068 13.4364 8.00198 13.1025 8.45128C12.7846 8.89498 12.6205 9.42986 12.6349 9.97489C12.6189 10.291 12.6734 10.6068 12.7945 10.8994C12.9156 11.192 13.1003 11.4542 13.3353 11.6671C13.8907 12.128 14.5515 12.4452 15.2593 12.5908L15.7082 12.7031L15.6847 15.1794C15.5516 15.1554 15.4209 15.1197 15.294 15.0728C15.0321 14.9765 14.8023 14.8092 14.6305 14.5899C14.4589 14.3558 14.3616 14.0759 14.3509 13.7862H12.3803C12.3741 14.4022 12.5502 15.0063 12.8866 15.523C13.2203 16.0002 13.6883 16.368 14.2316 16.58C14.6926 16.7534 15.1769 16.8571 15.6686 16.8877L15.6582 18H16.7684L16.7789 16.8939C17.2896 16.8697 17.7932 16.7644 18.2706 16.582C18.7849 16.3797 19.2293 16.033 19.5499 15.5839C19.8525 15.1329 20.0094 14.6003 19.9996 14.0578C20.0029 13.6918 19.9283 13.3291 19.7807 12.9939V12.9939ZM15.6542 10.8585C15.4824 10.7979 15.3181 10.7177 15.1648 10.6195C15.0313 10.5351 14.9182 10.4224 14.8335 10.2893C14.7512 10.1541 14.7126 9.99693 14.7231 9.83912C14.7205 9.63981 14.7841 9.44525 14.9041 9.28579C15.0398 9.11234 15.2214 8.98011 15.4284 8.904C15.5311 8.86577 15.637 8.83699 15.745 8.81803L15.7255 10.879C15.7028 10.8712 15.6765 10.8666 15.6542 10.8584V10.8585ZM17.7323 14.6673C17.575 14.857 17.3696 15.0011 17.1374 15.0848C17.026 15.1252 16.9114 15.156 16.7947 15.177L16.8152 12.9948C16.9544 13.0395 17.0837 13.0859 17.1991 13.1348C17.4101 13.2159 17.5997 13.3441 17.7533 13.5096C17.8823 13.6611 17.9504 13.8549 17.9443 14.0535C17.9471 14.2764 17.8722 14.4933 17.7324 14.6672L17.7323 14.6673Z" fill="white"/>
</svg>
