<svg width="24" height="24" viewBox="0 0 24 24" fill="none" xmlns="http://www.w3.org/2000/svg">
<path d="M12 24C18.6274 24 24 18.6274 24 12C24 5.37258 18.6274 0 12 0C5.37258 0 0 5.37258 0 12C0 18.6274 5.37258 24 12 24Z" fill="#D80027"/>
<path d="M6.56719 7.30313L7.60312 10.4906H10.9547L8.24531 12.4641L9.28125 15.6516L6.56719 13.6828L3.85313 15.6516L4.89375 12.4641L2.17969 10.4906H5.53125L6.56719 7.30313Z" fill="#FFDA44"/>
<path d="M14.2265 18.5859L13.4343 17.6109L12.2624 18.0656L12.9421 17.0109L12.1499 16.0313L13.364 16.3547L14.0483 15.3L14.114 16.5563L15.3327 16.8797L14.1561 17.3297L14.2265 18.5859Z" fill="#FFDA44"/>
<path d="M15.8015 15.7266L16.1765 14.5266L15.1499 13.8L16.4062 13.7813L16.7765 12.5813L17.1843 13.7719L18.4405 13.7578L17.4327 14.5078L17.8358 15.6984L16.8093 14.9719L15.8015 15.7266Z" fill="#FFDA44"/>
<path d="M17.9251 8.80781L17.372 9.9375L18.272 10.8141L17.0298 10.6359L16.4767 11.7609L16.261 10.5234L15.0142 10.3453L16.1298 9.75938L15.9142 8.51719L16.8142 9.39375L17.9251 8.80781Z" fill="#FFDA44"/>
<path d="M14.2594 5.38594L14.1657 6.6375L15.3329 7.11094L14.1094 7.41094L14.0204 8.66719L13.3594 7.59844L12.136 7.89844L12.9469 6.9375L12.2813 5.87344L13.4485 6.34688L14.2594 5.38594Z" fill="#FFDA44"/>
</svg>
