<svg width="24" height="24" viewBox="0 0 24 24" fill="none" xmlns="http://www.w3.org/2000/svg">
<path d="M14.8599 8.96236C14.8345 8.68521 14.7433 8.41718 14.5933 8.17848C14.4433 7.93978 14.2383 7.73664 13.9939 7.58438C13.422 7.23995 12.7539 7.06886 12.0779 7.0937C11.5886 7.08276 11.1021 7.16681 10.6481 7.34075C10.2784 7.48137 9.95543 7.71461 9.7135 8.01578C9.49396 8.29631 9.37732 8.63782 9.38153 8.98772C9.37408 9.26561 9.45284 9.53943 9.60795 9.77489C9.76209 9.99878 9.96596 10.1877 10.2051 10.3283C10.4563 10.4781 10.7237 10.6017 11.0026 10.697C11.2715 10.7903 11.5451 10.8706 11.8226 10.9376L13.1342 11.2624C13.5832 11.3687 14.0239 11.5045 14.4531 11.6689C14.901 11.8385 15.3226 12.0654 15.7061 12.3435C16.091 12.6229 16.4098 12.9765 16.6416 13.3812C16.8908 13.838 17.0137 14.3477 16.9988 14.8623C17.011 15.5477 16.8064 16.2207 16.4115 16.7937C15.9883 17.3814 15.3991 17.8429 14.712 18.1249C13.8639 18.47 12.9474 18.6362 12.0255 18.6121C11.1317 18.6322 10.2431 18.4771 9.41491 18.1562C8.72403 17.8857 8.12631 17.4365 7.6892 16.8595C7.26358 16.2703 7.02438 15.5771 7 14.8623H9.03422C9.0568 15.2857 9.22371 15.6906 9.50963 16.0156C9.79722 16.3282 10.1662 16.5631 10.5795 16.6966C11.0403 16.8489 11.5252 16.924 12.0129 16.9188C12.5363 16.9274 13.0565 16.8393 13.5447 16.6592C13.9583 16.5102 14.3235 16.2602 14.6037 15.9344C14.8615 15.6246 14.9983 15.2391 14.9907 14.8438C15.0055 14.5039 14.885 14.1712 14.6533 13.9123C14.3988 13.6515 14.0875 13.4468 13.7413 13.3124C13.3211 13.1421 12.8881 13.0021 12.4459 12.8935L10.8583 12.481C9.91651 12.2681 9.04088 11.8463 8.30262 11.25C7.9906 10.9787 7.74459 10.6456 7.58191 10.2742C7.41922 9.9028 7.34379 9.50199 7.36084 9.09986C7.34596 8.40827 7.5669 7.73073 7.9905 7.16889C8.42963 6.60438 9.01834 6.16114 9.69636 5.88457C10.4621 5.56887 11.2896 5.41227 12.1239 5.42521C12.9528 5.40956 13.7754 5.5651 14.5352 5.88111C15.1912 6.15357 15.7602 6.58586 16.1851 7.13448C16.5882 7.66717 16.8081 8.30571 16.8148 8.96234L14.8599 8.96236ZM11.3959 20L11.4482 4.00002H12.6814L12.6291 20H11.3959Z" fill="white"/>
</svg>
