<svg width="24" height="24" viewBox="0 0 24 24" fill="none" xmlns="http://www.w3.org/2000/svg">
<path d="M4 16.8433V6.55765H5.6414V11.4693H5.77355L10.3356 6.55765H12.4012L8.01513 11.1882L12.4172 16.8433H10.4414L6.92647 12.2479L5.6414 13.6442V16.8433H4Z" fill="white"/>
<path d="M16.6493 16.9987C15.9328 17.0174 15.2259 16.8406 14.6129 16.4894C14.0432 16.1477 13.5888 15.6588 13.3037 15.0806C12.989 14.4356 12.8329 13.7316 12.8473 13.0213C12.832 12.3042 12.9919 11.5935 13.3146 10.9445C13.6045 10.3669 14.0612 9.8785 14.6318 9.5357C15.2336 9.18829 15.9284 9.01219 16.6332 9.02848C17.2042 9.01886 17.7704 9.12949 18.2906 9.35235C18.7579 9.55475 19.1626 9.86689 19.4662 10.2591C19.7703 10.6591 19.9547 11.1293 19.9999 11.6202H18.4549C18.3701 11.2586 18.1667 10.9316 17.8737 10.6858C17.5371 10.4134 17.1028 10.2733 16.6603 10.2943C16.2466 10.2859 15.8407 10.4009 15.5 10.623C15.1546 10.8594 14.8868 11.1832 14.7275 11.5573C14.5329 12.0107 14.4387 12.4969 14.4508 12.9861C14.4385 13.4837 14.5305 13.9787 14.7217 14.4425C14.878 14.8209 15.144 15.1498 15.4891 15.3917C15.7791 15.5756 16.1131 15.6883 16.4607 15.7195C16.8084 15.7506 17.1588 15.6993 17.4802 15.5702C17.7226 15.4675 17.9356 15.3116 18.1016 15.1155C18.2758 14.9067 18.3967 14.6627 18.455 14.4024H20C19.9534 14.8833 19.7754 15.3444 19.4836 15.7406C19.1917 16.1368 18.796 16.4544 18.3352 16.6623C17.8084 16.8964 17.2312 17.0115 16.6493 16.9987ZM15.5292 6L16.623 7.34626L17.7117 6H19.1508V6.07562L17.2816 8.20498H15.9593L14.0952 6.07562V6H15.5292Z" fill="white"/>
</svg>
