<svg width="24" height="24" viewBox="0 0 24 24" fill="none" xmlns="http://www.w3.org/2000/svg">
<path d="M4 16.9081V7H5.57002V11.7314H5.6964L10.0601 7H12.0359L7.84054 11.4606L12.0513 16.9081H10.1614L6.79921 12.4814L5.57002 13.8265V16.9081H4Z" fill="white"/>
<path d="M13.3818 16.9082V9.47696H14.8499V10.6574H14.9309C15.0633 10.2702 15.3291 9.93701 15.6852 9.71179C16.0476 9.48053 16.4754 9.35987 16.9116 9.36588C17.0066 9.36588 17.119 9.36887 17.2497 9.37552C17.3803 9.38183 17.4822 9.38983 17.557 9.39946V10.7831C17.4499 10.7589 17.3415 10.7404 17.2322 10.7276C17.0772 10.7068 16.9208 10.6963 16.7643 10.6963C16.4314 10.6905 16.1024 10.7645 15.8074 10.9115C15.5291 11.0506 15.2968 11.2606 15.1366 11.5182C14.9764 11.7758 14.8946 12.0707 14.9002 12.37V16.9082H13.3818Z" fill="white"/>
<path d="M18.9845 16.9999C18.7153 16.9993 18.4573 16.8971 18.2669 16.7158C18.0765 16.5345 17.9691 16.2888 17.9683 16.0324C17.9666 15.9056 17.9923 15.7798 18.0438 15.6629C18.0954 15.546 18.1717 15.4404 18.268 15.3528C18.3619 15.2631 18.4736 15.1919 18.5965 15.1434C18.7194 15.0948 18.8511 15.0698 18.9842 15.0698C19.1173 15.0698 19.249 15.0948 19.3719 15.1434C19.4948 15.1919 19.6064 15.2631 19.7004 15.3528C19.8601 15.5022 19.9626 15.6981 19.9916 15.9095C20.0206 16.1208 19.9744 16.3353 19.8604 16.5186C19.77 16.6628 19.6436 16.7834 19.4923 16.8695C19.3389 16.9567 19.1632 17.0018 18.9845 16.9999V16.9999Z" fill="white"/>
</svg>
