<svg width="24" height="24" viewBox="0 0 24 24" fill="none" xmlns="http://www.w3.org/2000/svg">
<path d="M16.2294 9.96411L15.5402 11.3345H6L6.54465 9.96411H16.2294ZM14.9307 12.6651L14.2274 14.0487H6L6.54465 12.6651H14.9307ZM18 6.35114L17.1431 8.03437C16.8673 7.81808 16.5712 7.62447 16.2584 7.45576C15.9338 7.28064 15.588 7.14109 15.2279 7.03998C14.8448 6.93353 14.4462 6.88079 14.0459 6.88354C13.3086 6.87331 12.5861 7.07325 11.9781 7.45575C11.3312 7.88727 10.8358 8.48262 10.5526 9.16871C10.1788 10.0744 10.0026 11.0385 10.0339 12.0064C10.0023 12.9732 10.1785 13.9362 10.5526 14.8405C10.8357 15.5249 11.3313 16.1182 11.9781 16.547C12.5869 16.9275 13.3091 17.1263 14.0459 17.116C14.4496 17.119 14.8516 17.0674 15.2389 16.9628C15.594 16.867 15.935 16.7318 16.2544 16.5603C16.546 16.4042 16.8238 16.2274 17.0853 16.0315L17.9631 17.7079C17.4454 18.1367 16.8383 18.465 16.1786 18.673C15.493 18.8917 14.7718 19.002 14.0459 18.9991C12.9032 19.018 11.7803 18.7237 10.821 18.1539C9.85359 17.5566 9.09032 16.7204 8.61944 15.742C8.0583 14.5654 7.78587 13.2902 7.82143 12.0064C7.78574 10.7194 8.05814 9.44081 8.61944 8.26074C9.08953 7.28103 9.85288 6.44362 10.8209 5.84567C11.7804 5.27619 12.9032 4.98205 14.0459 5.00085C14.7836 4.99488 15.5163 5.11317 16.2075 5.34985C16.8676 5.57868 17.4754 5.91822 18 6.3511V6.35114Z" fill="white"/>
</svg>
