<svg width="24" height="24" viewBox="0 0 24 24" fill="none" xmlns="http://www.w3.org/2000/svg">
<path d="M9.74909 11.69C10.2554 11.4739 10.6808 11.1158 10.9687 10.6633C11.2607 10.1761 11.4066 9.62159 11.3904 9.06053C11.4047 8.49622 11.2616 7.93841 10.9758 7.44423C10.6956 6.98203 10.2764 6.61083 9.77242 6.37881C9.17872 6.1132 8.52807 5.98401 7.87261 6.00158H4V15.3662H6.07517V12.0465H7.59015L9.44908 15.3662H11.7402L9.65294 11.7192C9.68265 11.707 9.72008 11.703 9.74909 11.69ZM6.07525 7.62027H7.47526C7.81528 7.60983 8.15388 7.66664 8.46977 7.78712C8.71614 7.8844 8.92281 8.05529 9.05876 8.27414C9.19567 8.51513 9.26286 8.78656 9.25341 9.06053C9.26335 9.33024 9.19606 9.59743 9.05876 9.83338C8.92226 10.0462 8.71592 10.2101 8.47179 10.2996C8.15644 10.4124 7.82101 10.4653 7.48438 10.4553H6.07525V7.62027Z" fill="white"/>
<path d="M19.5899 9.85415C19.357 9.36117 18.9791 8.94332 18.5021 8.65136C18.0565 8.38694 17.5416 8.24827 17.0169 8.25139C16.6611 8.24009 16.3074 8.30815 15.9839 8.45016C15.7267 8.56858 15.4982 8.73674 15.3128 8.94396C15.1563 9.11939 15.0251 9.31391 14.9225 9.5224H14.8312V8.34279H12.8188V18H14.8596V14.2412H14.9224C15.0258 14.452 15.1614 14.647 15.3249 14.8197C15.5145 15.0202 15.7454 15.1813 16.0031 15.2931C16.3207 15.426 16.6652 15.4899 17.0118 15.4803C17.5488 15.4863 18.0758 15.3425 18.5284 15.0668C19.002 14.7668 19.3748 14.3427 19.602 13.8456C19.8838 13.2204 20.0188 12.5439 19.9974 11.8636C20.0216 11.1731 19.8823 10.4862 19.5899 9.85415V9.85415ZM17.7326 12.9359C17.6325 13.2215 17.451 13.4749 17.2085 13.6676C16.9645 13.8375 16.6704 13.9294 16.3683 13.9302C16.0663 13.931 15.7717 13.8406 15.5267 13.672C15.2834 13.4823 15.1007 13.2313 14.9995 12.9475C14.8709 12.5964 14.8091 12.2263 14.817 11.8545C14.8088 11.4842 14.8706 11.1156 14.9995 10.7663C15.1 10.486 15.2817 10.2386 15.5236 10.0529C15.7662 9.88074 16.0628 9.79209 16.3651 9.80144C16.671 9.79203 16.9709 9.88416 17.2136 10.0621C17.4547 10.2519 17.6355 10.5021 17.7357 10.7847C17.9733 11.484 17.9722 12.2372 17.7326 12.9359V12.9359Z" fill="white"/>
</svg>
