<svg width="24" height="24" viewBox="0 0 24 24" fill="none" xmlns="http://www.w3.org/2000/svg">
<path d="M13.9071 13.5917H7V11.7974H13.9071V13.5917ZM16.8458 19H7.04907V17.2062H16.8458V19ZM10.5132 9.27521L10.7364 15.0953C10.7723 15.6233 10.6936 16.1527 10.5055 16.6498C10.318 17.1122 9.96924 17.4973 9.51915 17.7389L7.72743 17.2062C7.84995 17.2004 7.96858 17.1629 8.07085 17.0976C8.17312 17.0324 8.25526 16.9418 8.30863 16.8353C8.45144 16.5785 8.54377 16.2984 8.58095 16.0091C8.6259 15.7248 8.64457 15.4371 8.63676 15.1495L8.43469 9.27527C8.36829 8.45124 8.55931 7.62693 8.98317 6.9084C9.36735 6.29228 9.9276 5.79587 10.5969 5.47855C11.2236 5.19071 11.9046 5.02909 12.5984 5.00358C13.2921 4.97807 13.984 5.0892 14.6316 5.33018C15.1577 5.53371 15.6341 5.84031 16.0307 6.23056C16.4026 6.597 16.6815 7.04129 16.8458 7.52875C17.01 8.02328 17.0437 8.54944 16.9439 9.05968L14.9213 8.7495C14.9811 8.37001 14.9047 7.98221 14.7047 7.65022C14.5148 7.35939 14.2395 7.12944 13.9138 6.98953C13.5778 6.84114 13.2123 6.7652 12.8428 6.76699C12.449 6.76646 12.0612 6.85895 11.7131 7.03636C11.3475 7.22427 11.046 7.51007 10.8451 7.85932C10.6073 8.29496 10.4928 8.78333 10.5132 9.27521V9.27521Z" fill="white"/>
</svg>
