<svg width="24" height="24" viewBox="0 0 24 24" fill="none" xmlns="http://www.w3.org/2000/svg">
<path d="M14.3465 14.874C14.1143 15.1423 13.8166 15.3557 13.478 15.4966C13.2844 15.5752 13.0811 15.6316 12.8728 15.6643V8.31519C13.3015 8.37139 13.7029 8.54322 14.027 8.80926C14.4365 9.14575 14.7208 9.59344 14.8394 10.0885H17C16.9358 9.41664 16.6782 8.77309 16.2539 8.22496C15.8289 7.68821 15.263 7.26091 14.6098 6.98356C14.0619 6.75052 13.4738 6.60901 12.8728 6.56554V5H11.6032V6.57869C10.8556 6.64461 10.1345 6.86905 9.49565 7.23461C8.698 7.70394 8.05976 8.37255 7.65452 9.16337C7.2039 10.0521 6.98039 11.0251 7.00135 12.0069C6.98155 12.9793 7.19999 13.9433 7.64024 14.8262C7.99418 15.5441 8.54762 16.1619 9.24393 16.6166C9.94023 17.0712 10.7544 17.3463 11.6032 17.4138V19H12.8728V17.4282C13.4972 17.3895 14.1081 17.2414 14.6731 16.9918C15.3173 16.7055 15.8707 16.2697 16.2795 15.7268C16.6831 15.1836 16.9311 14.5542 17 13.8978H14.8394C14.7579 14.2539 14.5893 14.5878 14.3465 14.874V14.874ZM10.6938 15.2522C10.2115 14.9213 9.83997 14.4708 9.6222 13.9526C9.35453 13.3178 9.22582 12.64 9.24357 11.9586C9.22691 11.289 9.35819 10.6234 9.62935 10.0025C9.8523 9.4905 10.2265 9.04714 10.7091 8.72325C10.9797 8.55031 11.283 8.42615 11.6032 8.35729V15.629C11.2766 15.559 10.9678 15.4311 10.6938 15.2522V15.2522Z" fill="white"/>
</svg>
