<svg width="24" height="24" viewBox="0 0 24 24" fill="none" xmlns="http://www.w3.org/2000/svg">
<path d="M2 16.0001V7.99988H3.55195V11.3007H6.70289V7.99988H8.25107V16.0001H6.70291V12.6952H3.55196V16.0001H2Z" fill="white"/>
<path d="M9.53009 16.0001V7.99988H11.082V11.5275H11.1791L13.8205 7.99988H15.6803L12.957 11.5821L15.7129 16.0001H13.8562L11.8455 12.7109L11.0821 13.7264V16.0001L9.53009 16.0001Z" fill="white"/>
<path d="M20.4113 10.3008C20.403 10.1565 20.3657 10.0158 20.302 9.8889C20.2383 9.76197 20.1499 9.65181 20.0429 9.56621C19.781 9.3779 19.4706 9.28622 19.1573 9.30468C18.9388 9.29819 18.721 9.33731 18.5159 9.41995C18.3582 9.48338 18.2198 9.59357 18.1164 9.73811C18.0249 9.87099 17.9764 10.0331 17.9784 10.1992C17.9704 10.3307 17.9998 10.4617 18.0625 10.5744C18.1271 10.6852 18.2133 10.7792 18.315 10.8495C18.4319 10.9314 18.5571 10.9982 18.688 11.0487C18.8354 11.1069 18.986 11.1545 19.1391 11.1912L19.7987 11.3631C20.1014 11.4354 20.3967 11.5401 20.6805 11.6759C20.9336 11.796 21.1681 11.9581 21.3757 12.1564C21.5692 12.3434 21.7249 12.5722 21.8329 12.8283C21.9453 13.1077 22.0022 13.4099 21.9997 13.7149C22.0071 14.167 21.8875 14.6108 21.657 14.9867C21.4126 15.3609 21.0739 15.6498 20.682 15.8184C20.1946 16.0278 19.6735 16.1281 19.1497 16.1134C18.6215 16.1261 18.0962 16.0253 17.6038 15.8167C17.1897 15.6401 16.833 15.3335 16.5788 14.9359C16.3224 14.5053 16.1882 14.0018 16.1929 13.4885H17.6948C17.7029 13.73 17.7771 13.9632 17.9078 14.1583C18.0388 14.3411 18.2139 14.4804 18.4135 14.5607C18.6433 14.654 18.8871 14.6996 19.1323 14.6954C19.3661 14.7007 19.5988 14.6584 19.8184 14.5706C19.9954 14.5009 20.1519 14.3808 20.2718 14.2227C20.3784 14.0778 20.4355 13.897 20.4333 13.7112C20.4379 13.5457 20.3861 13.3842 20.2877 13.258C20.1707 13.1201 20.0262 13.0132 19.8654 12.9456C19.6452 12.8474 19.418 12.7689 19.1861 12.7109L18.387 12.4924C17.8476 12.3711 17.344 12.1067 16.9207 11.7226C16.7416 11.5452 16.6009 11.3267 16.5086 11.0829C16.4163 10.839 16.3748 10.5759 16.387 10.3125C16.376 9.8583 16.5011 9.41257 16.7433 9.04281C16.9977 8.6684 17.3401 8.37566 17.7342 8.19539C18.1872 7.98508 18.6757 7.88118 19.1679 7.89047C19.6587 7.87856 20.146 7.98258 20.5963 8.19539C20.9793 8.37647 21.3087 8.66983 21.5478 9.04281C21.7775 9.41455 21.8998 9.85274 21.8989 10.3009L20.4113 10.3008ZM18.6911 17L18.7775 7H19.6229L19.5372 17H18.6911Z" fill="white"/>
</svg>
