<svg width="24" height="24" viewBox="0 0 24 24" fill="none" xmlns="http://www.w3.org/2000/svg">
<g clip-path="url(#clip0_5854_18834)">
<path d="M0 12C0 5.37258 5.37258 0 12 0V0C18.6274 0 24 5.37258 24 12V12C24 18.6274 18.6274 24 12 24V24C5.37258 24 0 18.6274 0 12V12Z" fill="white"/>
<mask id="mask0_5854_18834" style="mask-type:alpha" maskUnits="userSpaceOnUse" x="-4" y="0" width="32" height="24">
<rect x="-4" width="32" height="24" fill="white"/>
</mask>
<g mask="url(#mask0_5854_18834)">
<path fill-rule="evenodd" clip-rule="evenodd" d="M-4 0V24H28V0H-4Z" fill="#EA1A1A"/>
<mask id="mask1_5854_18834" style="mask-type:alpha" maskUnits="userSpaceOnUse" x="-4" y="0" width="32" height="24">
<path fill-rule="evenodd" clip-rule="evenodd" d="M-4 0V24H28V0H-4Z" fill="white"/>
</mask>
<g mask="url(#mask1_5854_18834)">
<path fill-rule="evenodd" clip-rule="evenodd" d="M11.8695 11.5748C11.8695 11.5748 6.07979 6.41151 12.9886 3.40313C12.9886 3.40313 14.9979 5.61975 13.4906 8.10821C12.996 8.92438 12.579 9.50719 12.2655 9.94517C11.6234 10.8425 11.4163 11.1319 11.8695 11.5748ZM3.32471 7.86751C2.92707 15.3924 10.134 12.5221 10.134 12.5221C9.53554 12.7294 9.36924 12.4147 8.85382 11.4395L8.85381 11.4395C8.60213 10.9633 8.26721 10.3296 7.75808 9.52231C6.20615 7.06135 3.32471 7.86751 3.32471 7.86751ZM14.2381 11.8271C14.2381 11.8271 21.67 14.052 16.686 19.7036C16.686 19.7036 13.9267 18.5464 14.2381 15.654C14.3403 14.7056 14.4712 14.0011 14.5695 13.4717C14.7711 12.3865 14.8361 12.0363 14.2381 11.8271ZM12.2847 13.5617C12.2847 13.5617 13.617 21.204 6.33363 19.2727C6.33363 19.2727 6.13535 16.2873 8.86182 15.2728C9.75614 14.94 10.4449 14.742 10.9625 14.5933L10.9625 14.5933L10.9625 14.5933L10.9625 14.5933C12.0229 14.2885 12.365 14.1902 12.2847 13.5617ZM21.4786 10.2753C16.9232 4.27313 13.2738 11.1185 13.2738 11.1185C13.597 10.5736 13.9272 10.7065 14.9502 11.1182C15.45 11.3193 16.115 11.587 17.0254 11.8747C19.7993 12.7514 21.4786 10.2753 21.4786 10.2753Z" fill="white"/>
<path d="M5.9502 10.3422L6.37221 10.074C7.29855 11.5319 8.50081 12.2492 10.0011 12.2492V12.7492C8.32261 12.7492 6.96493 11.9392 5.9502 10.3422Z" fill="#EA1A1A"/>
<path fill-rule="evenodd" clip-rule="evenodd" d="M17.75 10.75C18.1642 10.75 18.5 10.4142 18.5 10C18.5 9.58579 18.1642 9.25 17.75 9.25C17.3358 9.25 17 9.58579 17 10C17 10.4142 17.3358 10.75 17.75 10.75Z" fill="#EA1A1A"/>
<path fill-rule="evenodd" clip-rule="evenodd" d="M15.9585 15.7281C16.3727 15.7281 16.7085 15.3923 16.7085 14.9781C16.7085 14.5639 16.3727 14.2281 15.9585 14.2281C15.5443 14.2281 15.2085 14.5639 15.2085 14.9781C15.2085 15.3923 15.5443 15.7281 15.9585 15.7281Z" fill="#EA1A1A"/>
<path fill-rule="evenodd" clip-rule="evenodd" d="M9.9585 17.7281C10.3727 17.7281 10.7085 17.3923 10.7085 16.9781C10.7085 16.5639 10.3727 16.2281 9.9585 16.2281C9.54428 16.2281 9.2085 16.5639 9.2085 16.9781C9.2085 17.3923 9.54428 17.7281 9.9585 17.7281Z" fill="#EA1A1A"/>
<path fill-rule="evenodd" clip-rule="evenodd" d="M5.9585 10.7281C6.37271 10.7281 6.7085 10.3923 6.7085 9.97807C6.7085 9.56386 6.37271 9.22807 5.9585 9.22807C5.54428 9.22807 5.2085 9.56386 5.2085 9.97807C5.2085 10.3923 5.54428 10.7281 5.9585 10.7281Z" fill="#EA1A1A"/>
<path fill-rule="evenodd" clip-rule="evenodd" d="M11.9585 7.72807C12.3727 7.72807 12.7085 7.39229 12.7085 6.97807C12.7085 6.56386 12.3727 6.22807 11.9585 6.22807C11.5443 6.22807 11.2085 6.56386 11.2085 6.97807C11.2085 7.39229 11.5443 7.72807 11.9585 7.72807Z" fill="#EA1A1A"/>
<path d="M11.6345 7.05275L12.0741 7.29103C11.2415 8.82702 11.1827 10.2438 11.8878 11.5698L11.4463 11.8045C10.659 10.3239 10.7251 8.73042 11.6345 7.05275Z" fill="#EA1A1A"/>
<path d="M18.015 9.68582L17.9401 10.1802C15.9843 9.88368 14.5203 10.2963 13.5179 11.4096L13.1463 11.075C14.2709 9.82603 15.9039 9.36578 18.015 9.68582Z" fill="#EA1A1A"/>
<path d="M16.3511 15.3649L15.8609 15.4635C15.4706 13.5243 14.5822 12.2897 13.1932 11.7285L13.3805 11.2649C14.9388 11.8945 15.9298 13.2716 16.3511 15.3649Z" fill="#EA1A1A"/>
<path d="M9.90652 17.15L9.64616 16.7232C11.335 15.6931 12.1912 14.436 12.2435 12.9388L12.7432 12.9563C12.6845 14.636 11.7294 16.0382 9.90652 17.15Z" fill="#EA1A1A"/>
</g>
</g>
</g>
<defs>
<clipPath id="clip0_5854_18834">
<path d="M0 12C0 5.37258 5.37258 0 12 0V0C18.6274 0 24 5.37258 24 12V12C24 18.6274 18.6274 24 12 24V24C5.37258 24 0 18.6274 0 12V12Z" fill="white"/>
</clipPath>
</defs>
</svg>
