<svg width="24" height="24" viewBox="0 0 24 24" fill="none" xmlns="http://www.w3.org/2000/svg">
<path d="M14.9352 7.03687C14.8452 6.91647 14.7459 6.80056 14.6378 6.68979L17.384 6.70224L18 5H6.63396L6 6.81833H9.29996C10.2838 6.75207 11.2609 6.99542 12.0173 7.49508C12.3262 7.73861 12.5578 8.03599 12.6935 8.36313H6.60889L6.00005 10.0517H12.7725C12.7079 10.255 12.6055 10.4496 12.4687 10.6293C12.1809 10.9942 11.7562 11.2797 11.2533 11.4461C10.6342 11.6461 9.96885 11.7417 9.30001 11.7267H6.21726L6.23398 13.0596L12.4519 19H15.6205V18.8839L9.94226 13.4082L10.0211 13.3946C11.1512 13.3748 12.2599 13.1478 13.259 12.7314C14.0311 12.3937 14.6573 11.8819 15.057 11.2618C15.291 10.8793 15.451 10.4714 15.5317 10.0517H17.3839L17.9916 8.36306H15.5159C15.42 7.89813 15.2236 7.44957 14.9352 7.03687V7.03687Z" fill="white"/>
</svg>
