<svg width="24" height="24" viewBox="0 0 24 24" fill="none" xmlns="http://www.w3.org/2000/svg">
<path d="M16.0006 0.685776L14.6002 4.56847C15.8928 8.83425 15.8928 15.1657 14.6002 19.4317L16.0006 23.314C20.6607 21.6661 24 17.2241 24 11.9996C24 6.77591 20.6607 2.33366 16.0006 0.685776Z" fill="#E63026"/>
<path d="M16.0006 4.56845V0.685764C14.7492 0.24319 13.4031 9.15527e-05 11.9999 9.15527e-05C13.8503 9.15527e-05 11.2846 6.27126 16.0006 4.56845Z" fill="#E4E4E4"/>
<path d="M11.9999 23.9999C13.4031 23.9999 14.7491 23.7568 16.0006 23.3142V19.4319C11.332 18.966 11.9999 23.9999 11.9999 23.9999Z" fill="#E4E4E4"/>
<path d="M0 11.9998C0 17.2417 3.36199 21.6955 8.04617 23.33V0.670273C3.36199 2.30483 0 6.75859 0 11.9998Z" fill="#359846"/>
<path d="M16.0006 4.56847V19.4317C17.2934 15.1657 17.2934 8.8342 16.0006 4.56847Z" fill="#EF4C4C"/>
<path d="M16.0006 19.4318V4.56845C15.1836 1.87152 13.8503 9.15527e-05 11.9999 9.15527e-05C10.6141 9.15527e-05 9.28454 0.238073 8.04614 0.67026V23.3301C9.28454 23.7623 10.6141 23.9999 11.9999 23.9999C13.8503 23.9999 15.1836 22.1285 16.0006 19.4318Z" fill="#F3F4F5"/>
</svg>
