<svg width="24" height="24" viewBox="0 0 24 24" fill="none" xmlns="http://www.w3.org/2000/svg">
<path d="M2 15.8746V7.12079H3.67075V10.9807H3.77522L6.61888 7.12079H8.62107L5.68926 11.0404L8.65617 15.8746H6.65726L4.49269 12.2755L3.67078 13.3867V15.8746L2 15.8746ZM13.7142 9.63846C13.7052 9.48049 13.665 9.32663 13.5964 9.18774C13.5279 9.04885 13.4327 8.92831 13.3175 8.83465C13.0356 8.6286 12.7014 8.52828 12.3642 8.54848C12.1288 8.54137 11.8945 8.58419 11.6737 8.67461C11.5038 8.74401 11.3548 8.86458 11.2435 9.02274C11.1451 9.16813 11.0928 9.34553 11.095 9.52727C11.0864 9.67116 11.118 9.8145 11.1856 9.93776C11.255 10.0591 11.3479 10.1619 11.4574 10.2388C11.5832 10.3284 11.7179 10.4015 11.8589 10.4568C12.0175 10.5205 12.1798 10.5726 12.3445 10.6127L13.0546 10.8008C13.3805 10.8798 13.6984 10.9945 14.0039 11.143C14.2764 11.2744 14.5289 11.4518 14.7523 11.6688C14.9606 11.8734 15.1282 12.1237 15.2445 12.4039C15.3656 12.7096 15.4268 13.0403 15.4241 13.3741C15.4321 13.8687 15.3034 14.3543 15.0551 14.7656C14.7921 15.175 14.4275 15.4912 14.0055 15.6757C13.4808 15.9048 12.9198 16.0146 12.356 15.9985C11.7874 16.0124 11.2218 15.9021 10.6917 15.6738C10.2459 15.4805 9.86192 15.1451 9.58821 14.71C9.3122 14.2388 9.1677 13.688 9.17276 13.1263H10.7897C10.7984 13.3905 10.8783 13.6457 11.0191 13.8592C11.16 14.0592 11.3486 14.2117 11.5635 14.2995C11.8109 14.4015 12.0733 14.4515 12.3372 14.4469C12.589 14.4527 12.8395 14.4064 13.0759 14.3104C13.2664 14.2341 13.4349 14.1026 13.564 13.9297C13.6787 13.7711 13.7402 13.5733 13.7378 13.37C13.7428 13.1889 13.687 13.0122 13.5811 12.8741C13.4551 12.7232 13.2996 12.6063 13.1265 12.5323C12.8894 12.4248 12.6448 12.339 12.3952 12.2755L11.5349 12.0364C10.9542 11.9037 10.412 11.6144 9.95636 11.1941C9.76357 11 9.61204 10.7609 9.51268 10.4941C9.41332 10.2273 9.3686 9.9394 9.38175 9.65115C9.3699 9.15418 9.50458 8.66646 9.76538 8.26188C10.0393 7.8522 10.4078 7.53189 10.8321 7.33464C11.3198 7.10452 11.8457 6.99084 12.3756 7.00101C12.9039 6.98797 13.4285 7.10179 13.9133 7.33464C14.3256 7.53278 14.6802 7.85377 14.9377 8.26188C15.1849 8.66863 15.3166 9.14811 15.3156 9.63849L13.7142 9.63846ZM18.1551 12.0788V15.8746H16.5121V7.12079H18.1094V10.4676H18.1788C18.3019 10.0949 18.5289 9.77519 18.8269 9.55482C19.1629 9.32262 19.5541 9.20735 19.95 9.22389C20.3269 9.21428 20.6992 9.31685 21.0281 9.52091C21.337 9.72079 21.5864 10.0164 21.7456 10.3713C21.9253 10.7831 22.0121 11.237 21.9986 11.6941V15.8746H20.3548V12.0191C20.376 11.6767 20.2772 11.3384 20.0789 11.0747C19.9782 10.9596 19.8563 10.8699 19.7215 10.8116C19.5868 10.7534 19.4422 10.7279 19.2978 10.737C19.0913 10.7323 18.8872 10.7866 18.7052 10.8948C18.5335 11.0011 18.3939 11.161 18.3036 11.3546C18.2025 11.5793 18.1516 11.8277 18.1551 12.0788Z" fill="white"/>
</svg>
