<svg width="24" height="24" viewBox="0 0 24 24" fill="none" xmlns="http://www.w3.org/2000/svg">
<g clip-path="url(#clip0_5854_18826)">
<path d="M0 12C0 5.37258 5.37258 0 12 0V0C18.6274 0 24 5.37258 24 12V12C24 18.6274 18.6274 24 12 24V24C5.37258 24 0 18.6274 0 12V12Z" fill="white"/>
<mask id="mask0_5854_18826" style="mask-type:alpha" maskUnits="userSpaceOnUse" x="-4" y="0" width="32" height="24">
<rect x="-4" width="32" height="24" fill="white"/>
</mask>
<g mask="url(#mask0_5854_18826)">
<path fill-rule="evenodd" clip-rule="evenodd" d="M-4 0V24H28V0H-4Z" fill="#F7FCFF"/>
<mask id="mask1_5854_18826" style="mask-type:alpha" maskUnits="userSpaceOnUse" x="-4" y="0" width="32" height="24">
<path fill-rule="evenodd" clip-rule="evenodd" d="M-4 0V24H28V0H-4Z" fill="white"/>
</mask>
<g mask="url(#mask1_5854_18826)">
<path fill-rule="evenodd" clip-rule="evenodd" d="M12 18.2195C15.2027 18.2195 17.799 15.4622 17.799 12.061C17.799 8.65971 15.2027 5.90244 12 5.90244C8.79725 5.90244 6.20093 8.65971 6.20093 12.061C6.20093 15.4622 8.79725 18.2195 12 18.2195Z" fill="#3D58DB"/>
<mask id="mask2_5854_18826" style="mask-type:alpha" maskUnits="userSpaceOnUse" x="6" y="5" width="12" height="14">
<path fill-rule="evenodd" clip-rule="evenodd" d="M12 18.2195C15.2027 18.2195 17.799 15.4622 17.799 12.061C17.799 8.65971 15.2027 5.90244 12 5.90244C8.79725 5.90244 6.20093 8.65971 6.20093 12.061C6.20093 15.4622 8.79725 18.2195 12 18.2195Z" fill="white"/>
</mask>
<g mask="url(#mask2_5854_18826)">
<path fill-rule="evenodd" clip-rule="evenodd" d="M18.0019 12.5327C18.0019 12.5327 17.6764 9.62878 15.2657 9.47114C12.8551 9.31349 12.2051 11.6007 12.066 12.2067C11.9269 12.8127 11.5748 14.4292 9.03663 14.4292C6.49848 14.4292 6.26953 10.3187 6.26953 10.3187V5.4719H18.0019V12.5327Z" fill="#E31D1C"/>
</g>
<path fill-rule="evenodd" clip-rule="evenodd" d="M3.29934 2.05217L4.2143 2.8797L-0.0259559 7.8316L-0.940918 7.00407L3.29934 2.05217ZM4.80833 3.39133L5.72329 4.21885L1.63503 9.09902L0.720068 8.27149L4.80833 3.39133ZM7.22537 5.57451L6.31041 4.74698L2.21078 9.66419L3.12575 10.4917L7.22537 5.57451Z" fill="#272727"/>
<path fill-rule="evenodd" clip-rule="evenodd" d="M21.3637 1.70518L20.4485 2.52961L22.0359 4.39245L22.9511 3.56802L21.3637 1.70518ZM24.1853 5.13182L23.2701 5.95625L24.8576 7.81909L25.7727 6.99466L24.1853 5.13182ZM17.4279 5.2128L18.3431 4.38837L19.9305 6.25121L19.0153 7.07564L17.4279 5.2128ZM21.1647 7.81501L20.2495 8.63944L21.837 10.5023L22.7521 9.67785L21.1647 7.81501ZM18.9955 3.8312L19.9107 3.00677L24.3293 8.38763L23.4141 9.21206L18.9955 3.8312Z" fill="#272727"/>
<path fill-rule="evenodd" clip-rule="evenodd" d="M22.0549 14.2431L21.1321 13.4155L19.5313 15.2856L20.4541 16.1132L22.0549 14.2431ZM19.3636 17.5341L18.4407 16.7065L16.84 18.5766L17.7628 19.4042L19.3636 17.5341ZM24.0465 16.0328L24.9693 16.8605L23.3686 18.7306L22.4457 17.9029L24.0465 16.0328ZM22.4096 20.2278L21.4868 19.4001L19.886 21.2702L20.8089 22.0979L22.4096 20.2278ZM19.9665 17.978L20.8894 18.8057L19.2184 20.8026L18.2956 19.975L19.9665 17.978ZM23.6308 15.4782L22.708 14.6506L21.037 16.6475L21.9599 17.4752L23.6308 15.4782Z" fill="#272727"/>
<path fill-rule="evenodd" clip-rule="evenodd" d="M2.40657 14.8899L3.32178 14.0645L7.40637 18.745L6.49117 19.5703L2.40657 14.8899ZM3.35937 18.9835L4.27457 18.1582L5.99988 20.0538L5.08468 20.8791L3.35937 18.9835ZM0.309434 16.6908L-0.605772 17.5161L3.50003 22.2595L4.41523 21.4342L0.309434 16.6908ZM0.960617 16.1522L1.87582 15.3269L3.37149 17.0807L2.45629 17.9061L0.960617 16.1522Z" fill="#272727"/>
</g>
</g>
</g>
<defs>
<clipPath id="clip0_5854_18826">
<path d="M0 12C0 5.37258 5.37258 0 12 0V0C18.6274 0 24 5.37258 24 12V12C24 18.6274 18.6274 24 12 24V24C5.37258 24 0 18.6274 0 12V12Z" fill="white"/>
</clipPath>
</defs>
</svg>
