<svg width="24" height="24" viewBox="0 0 24 24" fill="none" xmlns="http://www.w3.org/2000/svg">
<g clip-path="url(#clip0_5854_18822)">
<path d="M0 12C0 5.37258 5.37258 0 12 0V0C18.6274 0 24 5.37258 24 12V12C24 18.6274 18.6274 24 12 24V24C5.37258 24 0 18.6274 0 12V12Z" fill="white"/>
<path d="M-18 0H29V24H-18V0Z" fill="#FFBE29"/>
<path d="M-1.39331 2.24001H26.8067V21.76H-1.39331V2.24001Z" fill="#8D153A"/>
<path d="M1.67163 17.9687C1.67163 17.9687 1.41235 18.5213 1.12588 18.7465C0.701459 19.0801 -0.168787 19.056 -0.538136 19.4453C-0.980715 19.9043 -0.503796 20.5107 -0.50778 20.5633L-0.53205 20.8836C-0.53205 20.8836 -0.233623 20.8873 -0.107968 20.9078C0.0809695 20.9387 0.154666 21.0996 0.506431 21.0757C1.39087 21.0156 1.3552 20.1814 1.40524 19.4685C1.44966 19.1971 1.55244 18.8432 1.61085 18.5718C1.66093 18.3391 1.67162 17.9687 1.67162 17.9687L1.67163 17.9687Z" fill="#FFBE29" stroke="black" stroke-width="2.096"/>
<path d="M8.28164 19.2985L8.45981 19.196L8.53603 19.2987C8.63758 19.4355 8.91857 19.4339 9.10501 19.2955L9.24758 19.1897L9.36696 19.2955C9.52392 19.4347 9.81704 19.4349 10.0042 19.296C10.1352 19.1987 10.1535 19.1968 10.2401 19.2708C10.2918 19.3149 10.4433 19.3651 10.5768 19.3824C10.8172 19.4135 10.8209 19.4118 10.9615 19.2015C11.0794 19.0253 11.0978 18.9541 11.0697 18.7832C11.051 18.67 11.031 18.4877 11.0251 18.3782C11.0144 18.1799 11.0155 18.1787 11.3054 18.0781C11.4655 18.0225 11.6509 17.948 11.7173 17.9125C11.8331 17.8506 12.1523 17.4768 12.1523 17.4031C12.1523 17.3836 12.0276 17.3537 11.8752 17.3366C11.2689 17.2689 11.1662 16.9445 11.5603 16.3419C12.2031 15.3593 12.5909 14.4023 12.5935 13.7927C12.5947 13.5202 12.6102 13.4287 12.6454 13.488C12.789 13.7302 12.5317 14.7455 12.142 15.4747L11.9851 15.7683L12.1348 15.7339C12.2172 15.715 12.7014 15.5115 13.2108 15.2816C14.6051 14.6523 15.0841 14.529 15.9864 14.5668C16.7424 14.5986 17.0644 14.7457 17.5982 15.3036C17.881 15.5991 18.1534 15.8106 18.6517 16.1214C19.7133 16.7836 19.7576 16.8409 19.8081 17.6196C19.8592 18.4087 19.8337 18.4515 19.2349 18.5833C18.723 18.696 18.4021 18.9338 18.316 19.2641C18.2701 19.4405 18.3668 19.4456 18.6249 19.2804L18.814 19.1592L18.8981 19.2804C19.0087 19.4396 19.2437 19.4402 19.4388 19.2818L19.5862 19.1621L19.7369 19.2818C19.9711 19.4677 20.2824 19.4226 20.3703 19.1901C20.3872 19.1454 20.4323 19.1597 20.5236 19.2388C20.6947 19.3869 21.1332 19.4504 21.1805 19.334C21.1986 19.2895 21.1642 19.1798 21.1042 19.0901C20.8491 18.7089 20.7693 18.5271 20.7659 18.3196C20.7613 18.031 20.8477 17.8918 21.1772 17.657C21.5773 17.3719 21.701 17.0041 21.3967 17.0041C21.2088 17.0041 21.0193 16.8386 20.8986 16.5689C20.653 16.0206 20.7011 15.406 21.0697 14.3836C21.444 13.345 21.4855 13.1535 21.487 12.459C21.4882 11.8974 21.474 11.8003 21.3458 11.4924C21.2674 11.3041 21.1083 11.0238 20.9923 10.8695L20.7814 10.5889L21.0522 10.3653C21.8792 9.68256 21.71 8.56522 20.7145 8.13469C20.4099 8.00299 20.3338 7.99136 19.8001 7.99493C19.4799 7.99708 18.9916 8.03906 18.7151 8.08824C18.4331 8.13838 17.9559 8.17868 17.6285 8.17998C17.1084 8.18207 17.0201 8.16929 16.8197 8.06299C16.6107 7.95214 16.5749 7.89951 16.534 7.64329C16.5256 7.59063 16.4886 7.53809 16.4519 7.52655C16.3808 7.50421 16.0525 7.78811 16.004 7.91386C15.9801 7.97591 15.9605 7.97162 15.8903 7.88889C15.8437 7.83395 15.7786 7.7077 15.7457 7.60835C15.6628 7.35847 15.7646 7.17114 16.0593 7.0308L16.288 6.92189L16.1532 6.8385C15.8749 6.66644 15.4017 6.78415 15.2306 7.068C15.1822 7.1483 15.1294 7.21413 15.1133 7.21431C15.0971 7.21443 15.0051 7.13788 14.9088 7.04409C14.5495 6.69427 14.6731 6.17673 15.1537 6.01871C15.4099 5.93445 15.6367 5.99872 15.6838 6.16899C15.7559 6.42893 15.9798 6.08725 15.9396 5.77866C15.9129 5.5735 15.917 5.56639 16.0594 5.56639C16.2575 5.56639 16.6792 5.82549 16.8097 6.02738C16.9612 6.26186 16.9501 6.63108 16.7834 6.90627L16.6525 7.12235L16.8238 7.08818C17.0748 7.03808 17.3188 6.8827 17.4422 6.69426C17.5726 6.49505 17.5867 6.10714 17.471 5.89785C17.3589 5.69499 17.3717 5.66278 17.5375 5.73133C17.8194 5.84793 17.9701 5.97652 18.0831 6.19688C18.1849 6.39534 18.1906 6.44466 18.1355 6.65124C18.1015 6.77867 18.0258 6.94634 17.9674 7.02383C17.8763 7.14449 17.8732 7.16472 17.9457 7.16472C18.0808 7.16472 18.3629 7.03732 18.4631 6.93105C18.5137 6.87737 18.5875 6.74518 18.6271 6.63729L18.699 6.44115L18.7817 6.59066C18.8987 6.80208 19.126 6.99234 19.4031 7.11075C19.7012 7.23808 19.8254 7.24526 19.6695 7.12614C19.5644 7.04581 19.3707 6.47947 19.4294 6.42409C19.4639 6.39149 19.8686 6.70179 20.3307 7.11514C20.7678 7.50616 21.0425 7.63425 21.444 7.63425C21.9569 7.63425 22.2555 7.18939 22.025 6.76876C21.8906 6.52352 21.5912 6.48945 21.4161 6.69948C21.3356 6.79606 21.3135 6.87288 21.3371 6.97418C21.366 7.09828 21.3547 7.11481 21.2412 7.11481C21.0922 7.11481 20.7983 6.92476 20.2764 6.49083C19.4806 5.8291 18.5136 5.26821 17.8154 5.06335C17.3673 4.93186 16.4101 4.88056 15.9545 4.9636C15.4615 5.05349 14.8784 5.33462 14.5608 5.63556C13.9979 6.16884 13.9889 6.87846 14.537 7.52468L14.694 7.70979L14.5877 7.87431C14.4331 8.11364 14.4463 8.43573 14.6205 8.67296C14.6973 8.77745 14.7747 8.8629 14.7925 8.86284C14.8104 8.8628 14.83 8.79561 14.8361 8.71356C14.8515 8.50599 14.9409 8.36692 15.0943 8.31186C15.2325 8.26228 15.3219 8.2857 15.9547 8.53739C16.6205 8.80218 17.7154 8.82038 18.8796 8.58601C19.4503 8.47112 20.1233 8.47788 20.4194 8.60148C20.9621 8.82804 21.0879 9.41748 20.689 9.86491C20.5162 10.0586 20.3497 10.1375 19.7905 10.2904C19.3649 10.4068 19.2641 10.4145 18.2969 10.4049C17.4705 10.3967 17.1736 10.4125 16.8362 10.4827C16.47 10.5589 16.2448 10.5665 15.1691 10.5395L13.9253 10.5083L14.0632 10.6221C14.1391 10.6847 14.2463 10.7617 14.3014 10.7932C14.3952 10.8469 14.3921 10.8541 14.2526 10.9056C14.1707 10.9359 13.9888 10.9607 13.8485 10.9607H13.5933L13.559 11.1768C13.5401 11.2956 13.5415 11.4344 13.5621 11.4851C13.5926 11.5599 13.5812 11.5707 13.5021 11.542C13.4484 11.5226 13.2989 11.4844 13.1699 11.4571C13.0409 11.4298 12.8672 11.3742 12.784 11.3336C12.644 11.2653 12.6285 11.2671 12.5769 11.3581C12.5309 11.4392 12.0986 11.7598 12.0352 11.7598C12.025 11.7598 12.0117 11.698 12.0058 11.6225C11.9999 11.5469 11.9376 11.3502 11.8673 11.1854C11.797 11.0206 11.7235 10.8408 11.7041 10.7858C11.6748 10.703 11.6616 10.6987 11.6262 10.7609C11.6028 10.8021 11.5686 10.9145 11.5503 11.0106C11.5319 11.1067 11.4668 11.2629 11.4055 11.3577L11.2942 11.53L11.2232 11.3827C11.1469 11.2245 11.0204 11.0605 10.9746 11.0605C10.9591 11.0605 10.9328 11.1111 10.916 11.1729C10.8811 11.302 10.581 11.6599 10.5077 11.6599C10.4807 11.6599 10.4586 11.5588 10.4586 11.4351C10.4586 11.3115 10.4348 11.2104 10.4057 11.2104C10.3766 11.2104 10.3528 11.2424 10.3528 11.2815C10.3528 11.3765 10.0965 11.6599 10.0105 11.6599C9.97304 11.6599 9.9127 11.6936 9.87646 11.7348C9.78197 11.8422 9.70468 11.8272 9.7444 11.7091C9.76302 11.6537 9.75092 11.5244 9.71749 11.4219C9.68406 11.3193 9.64852 11.2101 9.6385 11.1792C9.62589 11.1404 9.53404 11.1507 9.33966 11.2128C9.02555 11.3131 8.92028 11.2954 9.08181 11.1693C9.14087 11.1232 9.23069 10.9636 9.28142 10.8145C9.33215 10.6655 9.40701 10.5333 9.44776 10.5207C9.50483 10.5031 9.5018 10.5248 9.43453 10.6155C9.3865 10.6802 9.34705 10.7675 9.34687 10.8094C9.34687 10.8514 9.31054 10.9509 9.26653 11.0305C9.22253 11.1101 9.19487 11.1832 9.20507 11.1928C9.21526 11.2024 9.33477 11.1572 9.47064 11.0923L9.71768 10.9742L9.71869 11.0798C9.71927 11.1379 9.74902 11.2911 9.78484 11.4203L9.84998 11.6551L10.0181 11.5781C10.19 11.4994 10.3528 11.2188 10.3528 11.0012C10.3528 10.8937 10.4146 10.9102 10.4399 11.0245C10.4473 11.0581 10.4862 11.1839 10.5262 11.3043L10.5989 11.523L10.714 11.3849C10.7773 11.3089 10.8567 11.1599 10.8904 11.0538C10.9489 10.8695 11.0408 10.7902 11.0408 10.9241C11.0408 11.0205 11.3049 11.3664 11.3559 11.3367C11.3805 11.3223 11.4296 11.1925 11.4649 11.0482C11.5383 10.7481 11.6568 10.544 11.732 10.5879C11.7603 10.6044 11.7714 10.6364 11.7565 10.6591C11.7417 10.6817 11.8025 10.8769 11.8917 11.0927C11.9809 11.3085 12.0705 11.5258 12.0907 11.5755C12.1233 11.6555 12.1528 11.6439 12.3439 11.4756C12.4629 11.3709 12.5709 11.2537 12.5839 11.2152C12.6036 11.1569 12.6301 11.159 12.7414 11.2278C12.8969 11.324 13.42 11.479 13.4604 11.4409C13.4755 11.4266 13.4911 11.2897 13.4949 11.1367L13.5019 10.8585L13.6523 10.8896C13.735 10.9066 13.909 10.9056 14.0389 10.8872L14.275 10.8538L14.0646 10.7099C13.9488 10.6308 13.8318 10.5284 13.8045 10.4824C13.7754 10.4333 13.6724 10.3917 13.5557 10.3818C13.2404 10.3551 12.6815 10.0428 12.6815 9.89324C12.6815 9.86516 12.7589 9.91289 12.8535 9.9993C13.0634 10.191 13.355 10.3113 13.6096 10.3113H13.8001L13.6823 10.1551C13.6146 10.0653 13.5538 9.89512 13.5396 9.75507C13.5168 9.53185 13.4932 9.49635 13.2593 9.33432C13.1188 9.23699 12.9447 9.0911 12.8725 9.01012L12.7413 8.86289L12.6743 9.0377C12.6374 9.13384 12.5924 9.2125 12.5742 9.2125C12.556 9.2125 12.4852 9.15631 12.4169 9.08764C12.3485 9.01896 12.2788 8.96303 12.2621 8.96335C12.2453 8.96363 12.1848 9.05617 12.1275 9.16891L12.0234 9.3739L11.9429 9.25575C11.8987 9.19076 11.7942 9.07578 11.7107 9.00023C11.6272 8.92469 11.5833 8.86288 11.6131 8.86288C11.6429 8.86288 11.746 8.94158 11.8421 9.03776L12.0169 9.21265L12.088 9.08452C12.1302 9.00849 12.1461 8.89169 12.1269 8.79726C12.0991 8.65961 12.103 8.65161 12.1559 8.73802C12.1896 8.79296 12.2919 8.89829 12.3832 8.97209L12.5492 9.10627L12.6637 8.89717C12.7777 8.68908 12.7785 8.68867 12.8304 8.81294C12.8998 8.97913 13.4018 9.38919 13.8292 9.62878C13.8951 9.66571 13.8673 9.53873 13.7456 9.24673C13.7134 9.16939 13.6871 9.02998 13.6871 8.93692C13.6871 8.79885 13.6471 8.7374 13.4699 8.60303C13.2141 8.40904 13.1313 8.27109 13.0831 7.95812C13.0636 7.83134 13.0188 7.69034 12.9836 7.64479C12.9314 7.5772 12.9228 7.61502 12.9368 7.85031C12.9462 8.00891 12.9255 8.2061 12.8908 8.2885L12.8276 8.43834L12.7788 8.31347C12.752 8.2448 12.6333 8.12536 12.5151 8.04807C12.3968 7.97077 12.3138 7.89455 12.3307 7.87869C12.3475 7.86282 12.4691 7.93327 12.601 8.03523C12.8018 8.19056 12.8461 8.20738 12.8739 8.13897C12.9066 8.05858 12.8739 7.70881 12.8107 7.46441C12.7792 7.34236 12.782 7.34301 12.9331 7.49355C13.0445 7.60458 13.1061 7.737 13.1539 7.96802C13.2145 8.26153 13.2451 8.3104 13.5175 8.54871C13.681 8.69181 13.8234 8.80086 13.8338 8.79104C13.8442 8.78122 13.8648 8.41103 13.8796 7.96839C13.9081 7.1196 13.8759 6.91764 13.6708 6.6554L13.5654 6.52065L13.7311 6.34255C13.9472 6.11023 14.0465 5.924 14.0895 5.66995L14.1246 5.46327L13.9376 5.63973C13.7845 5.78423 13.7113 5.8162 13.534 5.8162C13.3584 5.8162 13.2898 5.78688 13.1714 5.66122C13.0295 5.51047 12.7779 5.36541 12.5359 5.29481C12.4466 5.26873 12.4168 5.28009 12.4168 5.34034C12.4168 5.38449 12.3675 5.51193 12.3071 5.62354L12.1974 5.82648L11.9676 5.60009C11.8266 5.46123 11.6592 5.35314 11.5348 5.32052C11.2168 5.23719 11.1995 5.24546 11.1995 5.48156C11.1995 5.83968 11.0461 5.90638 10.7699 5.66836C10.5594 5.48691 10.3848 5.44746 9.98556 5.49118L9.67724 5.52495L9.73272 5.66364C9.77905 5.77949 9.76861 5.82828 9.66933 5.95986C9.5083 6.17326 9.29893 6.26571 8.97663 6.26571C8.82819 6.26571 8.64243 6.29632 8.56382 6.33373C8.48522 6.37114 8.28992 6.41424 8.1298 6.42951C7.9697 6.44477 7.79906 6.47202 7.7506 6.49006C7.67477 6.51829 7.66645 6.49503 7.69087 6.32316C7.72826 6.06014 7.54387 5.86612 7.25652 5.86612C6.8837 5.86612 6.71174 6.19842 6.85774 6.63676C6.88584 6.72112 6.92261 6.85417 6.93945 6.93241C6.95692 7.01359 7.12485 7.22901 7.33054 7.43409C7.52881 7.63176 7.71619 7.83745 7.74695 7.89117C7.77771 7.94489 7.8794 8.0311 7.97293 8.08275L8.14299 8.17665L8.12056 7.99534C8.09591 7.79607 8.13948 7.76481 8.24588 7.90543C8.28391 7.9557 8.38053 8.03695 8.46058 8.08598C8.58669 8.16323 8.60613 8.1648 8.60613 8.09773C8.60613 8.05515 8.63184 7.95705 8.66325 7.87971L8.72038 7.73911L8.8195 7.93042C8.87401 8.03563 9.0513 8.27476 9.21346 8.46182C9.52812 8.82477 9.71983 9.23038 9.62089 9.32373C9.58075 9.3616 9.47226 9.35867 9.24742 9.31364C9.07311 9.27873 8.85752 9.26028 8.76831 9.27263C8.58614 9.29787 8.57179 9.27443 8.68383 9.13465C8.80208 8.98711 8.78327 8.96277 8.55096 8.96277C8.2822 8.96277 7.61496 8.8344 7.35881 8.7334C7.10976 8.6352 7.0523 8.65966 6.979 8.89503C6.946 9.00096 6.88559 9.19292 6.84476 9.32161L6.77051 9.55556L7.03997 9.5297C7.18817 9.51548 7.37878 9.48315 7.46356 9.45785C7.54833 9.43256 7.62538 9.41911 7.63477 9.42798C7.64416 9.43684 7.60638 9.52826 7.55081 9.63112L7.44977 9.81815L7.61776 9.78402C7.71017 9.76526 7.84918 9.71933 7.92669 9.68197C8.06156 9.61695 8.07239 9.62167 8.17877 9.79182C8.30959 10.0011 8.41424 9.99246 8.43746 9.77057C8.46147 9.54117 8.53719 9.5751 8.67965 9.87908C8.81663 10.1714 8.95915 10.2746 8.98653 10.1013C8.99562 10.0438 9.06942 9.95013 9.15051 9.89319C9.31456 9.77803 9.43818 9.81259 9.50905 9.99339C9.58242 10.1806 9.41879 10.3735 8.94285 10.6609C7.98943 11.2368 7.43525 12.0245 7.27703 13.0283C7.13433 13.9338 7.58003 14.8695 8.47417 15.5415C8.90206 15.8631 9.58181 16.2026 9.53861 16.073C9.35516 15.523 9.36121 14.4735 9.54884 14.2965C9.57699 14.2699 9.56731 14.3794 9.52731 14.5398C9.37833 15.1374 9.44305 15.6135 9.82494 16.7294C10.1703 17.7387 10.1225 18.1701 9.63368 18.4552C9.47668 18.5468 9.37559 18.5619 8.95345 18.5568C8.4954 18.5512 8.44549 18.5604 8.29844 18.6772C8.15587 18.7904 7.97102 19.1621 7.97102 19.3355C7.97102 19.4295 8.07573 19.4171 8.28151 19.2987L8.28164 19.2985Z" fill="#FFBE29"/>
<path d="M15.7167 19.2781L15.9088 19.1551L16.0392 19.2781C16.21 19.4394 16.4101 19.4357 16.5744 19.2685C16.646 19.1955 16.7104 19.145 16.7174 19.1561C16.7244 19.1673 16.7563 19.2214 16.7884 19.2763C16.829 19.3459 16.9125 19.3808 17.0632 19.3914C17.2447 19.4042 17.2934 19.3867 17.3656 19.2828L17.4516 19.159L17.6407 19.2801C18.1585 19.6117 18.4344 19.2638 18.203 18.571C18.0854 18.2187 18.1501 18.0207 18.5293 17.5723C18.6892 17.3832 18.8202 17.1814 18.8204 17.1239C18.8204 17.0321 18.7908 17.0198 18.5779 17.024C18.3743 17.028 18.3147 17.0062 18.2075 16.8886C18.0331 16.6973 18.0434 16.4783 18.2384 16.2352L18.3941 16.041L18.1178 15.8542C17.9659 15.7514 17.6918 15.5083 17.5089 15.3139C17.0979 14.8774 16.6939 14.6704 16.1611 14.6234L15.8039 14.5919L15.8044 14.8614C15.8051 15.2082 15.9685 15.5419 16.4144 16.1071C16.9214 16.7498 16.9568 16.8493 16.9773 17.6892L16.9947 18.3996L16.848 18.5383C16.7154 18.6636 16.6556 18.6796 16.2278 18.7042C15.8206 18.7276 15.735 18.7485 15.6155 18.854C15.4568 18.9941 15.4093 19.0704 15.3603 19.2639C15.3317 19.3766 15.3433 19.4012 15.425 19.4012C15.4797 19.4012 15.6109 19.3458 15.7166 19.2782L15.7167 19.2781Z" fill="#FFBE29"/>
<path d="M4.90144 17.2231C4.90144 17.1333 4.94172 17.1093 5.13978 17.0813L5.37813 17.0475L5.21918 16.9213C5.03033 16.7714 5.01286 16.6542 5.17931 16.6539C5.34509 16.6539 5.62584 16.4824 5.66851 16.3555C5.68835 16.2965 5.67587 16.2177 5.64029 16.1772C5.54735 16.0716 5.37263 16.0875 5.34017 16.2046C5.30529 16.3305 5.24689 16.3308 5.11448 16.2059C4.9153 16.0179 4.91083 15.6288 5.10524 15.4022C5.19687 15.2955 5.19606 15.2885 5.07924 15.1782C4.95358 15.0596 4.86383 14.8249 4.92286 14.7692C4.94165 14.7515 5.04093 14.7656 5.14349 14.8006C5.28923 14.8503 5.34676 14.8511 5.40679 14.8041C5.58866 14.6616 5.39163 14.4785 5.09997 14.5189C4.9826 14.5351 4.9341 14.5189 4.91725 14.4582C4.9045 14.4122 4.80183 14.3521 4.68616 14.323C4.47947 14.2709 4.47801 14.2715 4.47801 14.4134C4.47801 14.5689 4.38893 14.5983 4.21967 14.4985C4.08214 14.4174 3.94874 14.4804 3.94874 14.6263C3.94874 14.7625 4.08617 14.8296 4.33246 14.8138C4.52137 14.8017 4.5284 14.9417 4.34899 15.1429L4.21996 15.2876L4.32218 15.4339C4.47356 15.6506 4.46081 16.0105 4.29543 16.1893L4.16578 16.3294L4.08073 16.217C3.96253 16.0608 3.80085 16.0713 3.75651 16.238C3.72748 16.3472 3.75148 16.3971 3.88866 16.5127C3.98085 16.5904 4.11544 16.654 4.18776 16.654C4.36671 16.654 4.35971 16.7943 4.17369 16.9359L4.02814 17.0468L4.25308 17.0816C4.3768 17.1007 4.47802 17.1367 4.47802 17.1615C4.47802 17.2568 4.5363 17.5458 4.68402 17.5531C4.81592 17.5595 4.89835 17.3596 4.90144 17.2231V17.2231Z" fill="#FFBE29"/>
<path d="M7.74779 16.1772C7.95215 16.0969 8.39442 15.7237 8.39442 15.6315C8.39442 15.6025 8.27234 15.4687 8.12314 15.3342C7.80915 15.0511 7.4676 14.5744 7.37911 14.2956C7.33297 14.1503 7.11 13.9015 6.48194 13.2945L5.6462 12.4868L5.40533 12.5476C5.27284 12.581 5.11121 12.6092 5.04613 12.6102C4.93397 12.6119 4.93601 12.6183 5.08511 12.7333L5.24242 12.8546L5.46296 12.7326C5.67673 12.6144 5.68434 12.6137 5.71071 12.7088C5.72614 12.7645 5.69284 12.8611 5.63374 12.932C5.57644 13.0007 5.54381 13.0787 5.5612 13.1053C5.5786 13.1318 5.52355 13.1874 5.43888 13.2287C5.28195 13.3053 5.17302 13.5574 5.29687 13.5574C5.40829 13.5574 5.65397 13.2553 5.62567 13.1531C5.61117 13.1008 5.61818 13.047 5.64125 13.0336C5.73694 12.9777 5.73096 13.2149 5.63374 13.3315C5.57644 13.4003 5.5438 13.4783 5.5612 13.5048C5.5786 13.5314 5.52355 13.5869 5.43888 13.6282C5.28297 13.7043 5.17294 13.9569 5.29571 13.9569C5.41604 13.9569 5.6577 13.6683 5.62777 13.5603C5.61211 13.5038 5.61818 13.4466 5.64125 13.4331C5.70569 13.3955 5.74046 13.5828 5.68606 13.6745C5.65692 13.7236 5.65718 13.7907 5.68674 13.8439C5.74027 13.9403 5.686 14.1253 5.58736 14.1829C5.54508 14.2075 5.57371 14.2559 5.67627 14.3331C5.82467 14.4448 5.82755 14.4565 5.82755 14.9493C5.82755 15.3611 5.84424 15.4674 5.92017 15.5391C6.00538 15.6196 6.01279 15.6198 6.01279 15.5427C6.01279 15.4584 6.16123 15.3554 6.28266 15.3554C6.31848 15.3554 6.54226 15.5444 6.77994 15.7754C7.01908 16.0078 7.26929 16.2055 7.34017 16.2181C7.4106 16.2306 7.48685 16.2439 7.50961 16.2477C7.53238 16.2514 7.63955 16.2197 7.74777 16.1772L7.74779 16.1772Z" fill="#FFBE29"/>
<path d="M5.19248 14.1848C5.19248 14.052 4.91766 13.9103 4.58894 13.8736C4.32356 13.8439 4.31921 13.8456 4.31921 13.9777C4.31921 14.0871 4.36095 14.1301 4.54414 14.2096C4.83851 14.3373 5.19247 14.3238 5.19247 14.1848L5.19248 14.1848Z" fill="#FFBE29"/>
<path d="M5.49377 14.1726C5.62783 14.0514 5.69134 13.9072 5.61069 13.9072C5.51793 13.9072 5.27173 14.1274 5.27173 14.2103C5.27173 14.3397 5.31746 14.332 5.49377 14.1726V14.1726Z" fill="#FFBE29"/>
<path d="M5.20811 13.78C5.21947 13.7051 5.17298 13.6551 5.03361 13.5924C4.73297 13.4571 4.37355 13.3944 4.28698 13.4622C4.12755 13.5871 4.23378 13.7547 4.49145 13.7849C4.59519 13.797 4.73586 13.8286 4.80404 13.855C5.00208 13.9316 5.19042 13.8967 5.20811 13.78V13.78Z" fill="#FFBE29"/>
<path d="M5.20812 13.3788C5.2243 13.272 5.15574 13.2337 4.59594 13.0374C4.17802 12.8908 3.99299 12.9599 4.12656 13.2127C4.17309 13.3008 4.25118 13.341 4.42632 13.3672C4.55657 13.3866 4.7346 13.4246 4.82193 13.4516C5.05523 13.5238 5.19001 13.4984 5.20812 13.3788L5.20812 13.3788Z" fill="#FFBE29"/>
<path d="M5.48851 13.0029C5.57297 12.9176 5.64206 12.8169 5.64206 12.7792C5.64206 12.6567 5.30851 12.8733 5.26599 13.0234C5.215 13.2033 5.29767 13.1957 5.48852 13.0029L5.48851 13.0029Z" fill="#FFBE29"/>
<path d="M5.2081 12.9777C5.22651 12.8559 5.02337 12.746 4.62388 12.6615C4.33078 12.5995 4.20151 12.6347 4.22345 12.7704C4.23543 12.8445 4.33305 12.8986 4.60996 12.9847C5.05313 13.1225 5.18642 13.121 5.20808 12.9777L5.2081 12.9777Z" fill="#FFBE29"/>
<path d="M5.59883 12.4111C6.11075 12.1841 6.15501 11.6115 5.6723 11.4611C5.47187 11.3987 5.34393 11.4324 5.26721 11.5676C5.20847 11.6712 5.24775 11.8595 5.3281 11.8595C5.35525 11.8595 5.37746 11.8944 5.37746 11.937C5.37746 12.1358 4.59587 12.2259 4.27535 12.064C4.16274 12.0072 4.11372 11.8595 4.20744 11.8595C4.27747 11.8595 4.32589 11.7091 4.2901 11.6027C4.24135 11.4578 4.09474 11.4076 3.88208 11.463C3.40224 11.588 3.41573 12.1498 3.90426 12.3882C4.30486 12.5837 5.18302 12.5956 5.59881 12.4112L5.59883 12.4111Z" fill="#FFBE29"/>
<path d="M5.28049 11.9709C5.31014 11.9429 5.29726 11.8999 5.24756 11.861C5.13873 11.7758 5.14453 11.649 5.26391 11.5039C5.35355 11.3949 5.36475 11.2318 5.39561 9.58668C5.44877 6.75163 5.66035 4.6192 5.93921 4.10766C6.05023 3.90399 6.03467 3.90318 5.74777 4.09769C5.37821 4.34825 5.09684 4.6745 4.84752 5.14156C4.37683 6.02334 4.21326 7.20968 4.21326 9.74209C4.21326 11.18 4.22309 11.3681 4.30528 11.5033C4.38336 11.6316 4.38751 11.6791 4.33266 11.8162C4.29711 11.9051 4.28098 11.99 4.29682 12.0049C4.4019 12.1041 5.16748 12.0778 5.28049 11.9711V11.9709Z" fill="#FFBE29"/>
<path d="M9.58134 9.26743C9.59738 9.24294 9.56194 9.11933 9.5026 8.99272C9.41009 8.79533 9.37283 8.76254 9.24103 8.76254C8.82815 8.76254 8.16445 8.57868 7.48019 8.27479C7.08506 8.0993 6.94858 8.05896 6.90121 8.10369C6.78032 8.21778 6.98125 8.48859 7.29241 8.63094C7.56845 8.75722 8.34013 8.91239 8.69216 8.91239C8.89637 8.91239 8.9012 8.92157 8.78499 9.08896L8.69951 9.21207L8.93053 9.21798C9.05758 9.22123 9.23299 9.24104 9.32032 9.26201C9.54712 9.31648 9.54924 9.31652 9.58138 9.26744L9.58134 9.26743Z" fill="#FFBE29"/>
<path d="M11.9933 10.545C11.9933 10.4718 11.7773 10.2732 11.5585 10.1452C11.3866 10.0447 11.3582 10.0417 11.3578 10.1236C11.3573 10.2481 11.2462 10.5607 11.2026 10.5607C11.178 10.5607 11.1417 10.4996 11.1218 10.4249C11.1019 10.3503 11.0186 10.2031 10.9367 10.0979L10.7876 9.9067L10.6716 10.0839C10.5634 10.2491 10.376 10.4108 10.2929 10.4108C10.273 10.4108 10.2691 10.3238 10.2842 10.2175C10.3007 10.102 10.288 10.0104 10.2527 9.98982C10.2203 9.9709 10.1938 9.9775 10.1938 10.0045C10.1938 10.0667 9.93354 10.3609 9.87848 10.3609C9.85579 10.3609 9.82403 10.2766 9.80789 10.1736C9.79176 10.0706 9.76434 9.90763 9.74696 9.81148C9.72958 9.71533 9.76664 9.78054 9.82932 9.95637L9.94329 10.2761L10.0683 10.0812C10.137 9.97408 10.1934 9.85698 10.1935 9.82102C10.1935 9.78506 10.2169 9.76913 10.2452 9.78561C10.2734 9.8021 10.3128 9.93091 10.3326 10.0719L10.3686 10.3281L10.5061 10.1779C10.5818 10.0953 10.6704 9.98463 10.7031 9.93205C10.7614 9.83823 10.7647 9.83831 10.8807 9.93635C10.9457 9.99129 11.0457 10.1227 11.1028 10.2284C11.16 10.3341 11.2144 10.4127 11.2238 10.4032C11.2331 10.3937 11.254 10.2847 11.2703 10.1611C11.2865 10.0375 11.3011 9.93176 11.3025 9.92616C11.3106 9.89553 11.7168 10.1586 11.8671 10.2918C11.9636 10.3774 12.0554 10.4355 12.0709 10.4208C12.0864 10.4062 12.0991 10.2799 12.0991 10.1401C12.0991 9.9236 12.0761 9.86556 11.9432 9.74718C11.7904 9.61106 11.7861 9.61031 11.7296 9.70988C11.6563 9.83911 11.5699 9.84097 11.5699 9.71333C11.5699 9.62016 11.2811 9.26207 11.2059 9.26207C11.1865 9.26207 11.1256 9.34074 11.0708 9.43688C11.0159 9.53303 10.9569 9.6116 10.9397 9.6115C10.8656 9.61104 10.4584 9.15873 10.4586 9.07708C10.4586 9.01214 10.4861 9.02874 10.5574 9.13719C10.6117 9.21961 10.72 9.34263 10.7982 9.41059C10.9565 9.54819 11.014 9.51473 11.0751 9.24957C11.0925 9.17403 11.1228 9.11222 11.1423 9.11222C11.21 9.11222 11.5644 9.4873 11.6143 9.6117L11.6643 9.73656L11.7022 9.59921C11.7486 9.43125 11.7997 9.425 11.8737 9.57827C11.9046 9.64229 12.0573 9.7754 12.213 9.87407L12.4961 10.0535L12.5529 9.87302C12.5841 9.77379 12.6255 9.71676 12.6449 9.7463C12.6737 9.79034 12.6002 10.0893 12.5446 10.1536C12.5363 10.1633 12.4446 10.11 12.3408 10.0353L12.1521 9.8995L12.1513 10.1427C12.1508 10.2764 12.1362 10.4364 12.1187 10.4982C12.0844 10.6191 11.9933 10.6531 11.9933 10.545L11.9933 10.545Z" fill="black"/>
<path d="M10.5819 8.60641C10.2455 8.32652 10.1944 8.26247 10.2018 8.12983L10.2098 7.98864L10.2317 8.12501C10.2445 8.20464 10.3341 8.32397 10.447 8.41182L10.6404 8.56225L10.7593 8.42528C10.8247 8.34995 10.879 8.26022 10.88 8.22588C10.8828 8.13635 10.8989 8.14387 11.1267 8.3408C11.3291 8.51577 11.3322 8.51661 11.3623 8.40323C11.3791 8.34003 11.3731 8.22104 11.3491 8.13881C11.283 7.91278 11.2959 7.87867 11.3961 8.01499C11.446 8.08291 11.5263 8.17893 11.5745 8.22836C11.6584 8.31441 11.6635 8.31335 11.6947 8.20338C11.7127 8.14022 11.7276 8.0246 11.728 7.94646L11.7288 7.80439L11.9113 8.01049C12.0817 8.20301 12.0974 8.21012 12.1494 8.11839C12.1801 8.06438 12.2055 7.93443 12.2059 7.82961C12.2065 7.6942 12.2208 7.66004 12.2554 7.7116C12.3131 7.79769 12.273 8.03211 12.1665 8.23188L12.09 8.37523L11.9896 8.21939C11.8611 8.02013 11.8184 8.02333 11.736 8.23836C11.6581 8.44158 11.6075 8.45705 11.5316 8.3008C11.4825 8.19968 11.4732 8.21207 11.4383 8.4245L11.3996 8.66058L11.1675 8.48111L10.9354 8.30163L10.8311 8.41983C10.7737 8.48484 10.7259 8.56613 10.725 8.60047C10.7228 8.67489 10.667 8.67721 10.5819 8.60642L10.5819 8.60641Z" fill="black"/>
<path d="M13.5746 7.56381C13.4522 7.45388 13.3678 7.349 13.3872 7.33073C13.4065 7.31247 13.4283 7.30724 13.4356 7.31911C13.4429 7.33098 13.543 7.43586 13.658 7.55218C13.923 7.82002 13.8685 7.82761 13.5746 7.56381V7.56381Z" fill="black"/>
<path d="M9.58838 7.15328C9.47698 7.0032 9.48467 6.90376 9.62027 6.74109C9.71826 6.62354 9.76302 6.60758 9.93412 6.62924C10.0439 6.64313 10.2801 6.73976 10.459 6.84397C10.6656 6.96433 10.8793 7.04495 11.0449 7.065C11.1882 7.08235 11.3055 7.08889 11.3055 7.07953C11.3055 7.07018 11.2459 6.97351 11.1732 6.86473C11.0003 6.60638 11.0063 6.57866 11.2012 6.73344C11.4013 6.89232 11.6406 6.93878 12.1754 6.92259L12.4367 6.91467L12.2851 6.76536C12.0731 6.55654 12.1384 6.53782 12.3725 6.74029C12.592 6.93018 12.5783 6.94355 12.1161 6.98952C11.9198 7.00905 11.7086 6.99488 11.533 6.9504C11.2704 6.88385 11.2602 6.88486 11.31 6.97259C11.3386 7.02314 11.3851 7.06451 11.4131 7.06451C11.4412 7.06451 11.4642 7.09013 11.4642 7.12144C11.4642 7.21774 10.897 7.13306 10.6259 6.9963C10.0066 6.68388 9.9287 6.65682 9.78131 6.70311C9.69929 6.72886 9.6172 6.80424 9.58891 6.87978C9.49453 7.13177 9.85318 7.32765 10.0011 7.10489C10.044 7.04033 10.034 6.99617 9.95861 6.9176C9.85542 6.80998 9.86509 6.79465 10.0044 6.8451C10.1033 6.88092 10.1166 7.11753 10.0246 7.20436C9.91934 7.3037 9.6791 7.27558 9.58834 7.15329L9.58838 7.15328Z" fill="black"/>
<path d="M12.0275 6.53098C11.9501 6.45789 12.0108 6.44 12.358 6.43355C12.7875 6.42557 13.0483 6.35425 13.3561 6.16064C13.6027 6.00552 13.6695 6.03604 13.4355 6.19689C13.2219 6.34362 12.8889 6.45642 12.5674 6.49091C12.4117 6.50761 12.2343 6.53075 12.1731 6.54232C12.1119 6.5539 12.0464 6.54879 12.0275 6.53098L12.0275 6.53098Z" fill="black"/>
<path d="M23.7438 17.9731C23.7438 17.9731 24.0028 18.525 24.2891 18.7499C24.7131 19.083 25.5827 19.0589 25.9517 19.4476C26.3939 19.906 25.9174 20.5115 25.9214 20.5641L25.9456 20.8839C25.9456 20.8839 25.6474 20.8876 25.5219 20.9081C25.3331 20.9389 25.2595 21.0996 24.908 21.0758C24.0243 21.0157 24.0599 20.1827 24.0099 19.4709C23.9655 19.1998 23.8629 18.8464 23.8045 18.5754C23.7545 18.343 23.7438 17.9731 23.7438 17.9731H23.7438Z" fill="#FFBE29" stroke="black" stroke-width="2.094"/>
<path d="M23.7419 6.03087C23.7419 6.03087 24.0012 5.47828 24.2876 5.25315C24.712 4.91956 25.5821 4.94366 25.9514 4.55448C26.394 4.09555 25.9171 3.48922 25.9211 3.4366L25.9454 3.11639C25.9454 3.11639 25.647 3.11262 25.5213 3.09212C25.3324 3.06128 25.2587 2.90035 24.907 2.92426C24.0227 2.98435 24.0583 3.81844 24.0083 4.5312C23.9639 4.80262 23.8611 5.15649 23.8027 5.42782C23.7526 5.66049 23.742 6.03087 23.742 6.03087L23.7419 6.03087Z" fill="#FFBE29" stroke="black" stroke-width="2.096"/>
<path d="M1.67161 6.03136C1.67161 6.03136 1.41233 5.47869 1.12586 5.25352C0.701447 4.91988 -0.168792 4.94398 -0.538139 4.55474C-0.980712 4.09575 -0.503797 3.48933 -0.507783 3.4367L-0.532057 3.11643C-0.532057 3.11643 -0.233629 3.11267 -0.107972 3.09216C0.0809625 3.06132 0.154658 2.90037 0.506422 2.92427C1.39085 2.98438 1.35519 3.81859 1.40522 4.53146C1.44964 4.80292 1.55242 5.15685 1.61083 5.42822C1.66091 5.66092 1.67159 6.03136 1.67159 6.03136L1.67161 6.03136Z" fill="#FFBE29" stroke="black" stroke-width="2.096"/>
</g>
<defs>
<clipPath id="clip0_5854_18822">
<path d="M0 12C0 5.37258 5.37258 0 12 0V0C18.6274 0 24 5.37258 24 12V12C24 18.6274 18.6274 24 12 24V24C5.37258 24 0 18.6274 0 12V12Z" fill="white"/>
</clipPath>
</defs>
</svg>
