<svg width="24" height="24" viewBox="0 0 24 24" fill="none" xmlns="http://www.w3.org/2000/svg">
<g clip-path="url(#clip0_5854_18818)">
<path d="M0 12C0 5.37258 5.37258 0 12 0V0C18.6274 0 24 5.37258 24 12V12C24 18.6274 18.6274 24 12 24V24C5.37258 24 0 18.6274 0 12V12Z" fill="white"/>
<mask id="mask0_5854_18818" style="mask-type:alpha" maskUnits="userSpaceOnUse" x="-4" y="0" width="32" height="24">
<rect x="-4" width="32" height="24" fill="white"/>
</mask>
<g mask="url(#mask0_5854_18818)">
<path fill-rule="evenodd" clip-rule="evenodd" d="M18 0H28V24H18V0Z" fill="#D9071E"/>
<path fill-rule="evenodd" clip-rule="evenodd" d="M-4 0H8V24H-4V0Z" fill="#006923"/>
<path fill-rule="evenodd" clip-rule="evenodd" d="M6 0H18V24H6V0Z" fill="white"/>
<path fill-rule="evenodd" clip-rule="evenodd" d="M9.05551 8.34178C8.94922 8.79694 9.01842 8.90438 9.53229 8.90438C9.55901 8.90438 9.60135 8.97981 9.64742 9.06188C9.69795 9.15189 9.75296 9.24988 9.79671 9.26502C9.77796 9.28985 9.58258 9.643 9.58165 10.265C9.58145 10.3931 9.64104 10.6042 9.69827 10.8069C9.76053 11.0274 9.81999 11.2381 9.79671 11.3213C9.75881 11.4568 9.58894 11.3092 9.45731 11.1947C9.38203 11.1293 9.31926 11.0747 9.30084 11.0902C9.20683 11.1693 9.15831 10.5432 9.129 10.1649C9.11594 9.9964 9.1067 9.87708 9.09894 9.89101C9.06612 9.81866 9.05272 9.72978 9.03949 9.64195C9.0107 9.45098 8.98268 9.26502 8.75732 9.26502H8.17725V9.69212C8.17725 9.69212 8.51287 9.69212 8.51287 10.4867C8.51842 10.6054 8.67508 11.6503 9.05551 11.6557C8.83255 11.6607 8.83423 11.7052 8.83521 11.7312L8.83533 11.7359C8.83533 12.375 9.36949 12.4441 9.86875 12.2637C10.1688 12.1553 10.4874 11.9436 10.7259 11.6826C11.0625 11.3144 11.1041 10.8376 10.6621 10.5761C10.5047 10.4831 10.334 10.4471 10.0952 10.4338C10.1424 10.2937 10.0977 10.1685 10.0628 10.0709C10.0337 9.98921 10.0114 9.9268 10.0555 9.89101C10.5561 9.48499 10.6007 9.11077 10.2365 8.7751C10.1892 8.73155 10.1435 8.67251 10.0964 8.61174L10.0964 8.61174C10.0077 8.49719 9.91415 8.37648 9.79671 8.34178C9.85097 8.23226 9.92413 8.09957 10.0159 7.9467L9.15858 7.43194C9.00316 7.6908 9.02914 7.89327 9.05179 8.06973C9.06422 8.16658 9.07564 8.25559 9.05551 8.34178ZM9.98784 11.0079L9.97228 11.0246L9.98285 11.015C9.98446 11.0122 9.98613 11.0098 9.98784 11.0079ZM9.53416 11.3213C9.53394 11.3214 9.53451 11.3213 9.53562 11.3211L9.53582 11.321L9.54538 11.3192C9.54147 11.3198 9.53786 11.3206 9.53582 11.321L9.53416 11.3213ZM9.09894 11.6552C9.08722 11.6552 9.07601 11.6553 9.0653 11.6555L9.08374 11.6551L9.09894 11.6552Z" fill="#A8AC71"/>
<path fill-rule="evenodd" clip-rule="evenodd" d="M10.384 7.91339C10.384 7.91339 9.69722 8.44605 9.82565 9.01393C9.95409 9.58181 11.3076 9.01393 11.144 8.46366C10.9804 7.91339 10.384 7.91339 10.384 7.91339Z" fill="#FCCA3D"/>
<path fill-rule="evenodd" clip-rule="evenodd" d="M15.2664 12.4029C15.2664 12.4029 16.1914 9.66155 14.7211 8.24251C13.2507 6.82347 11.5516 6.91843 11.5516 6.91843C11.5516 6.91843 11.0623 7.28197 11.5516 7.55923C12.0409 7.83649 11.8359 8.10233 11.8359 8.10233C11.8359 8.10233 11.0164 7.27029 10.4725 7.7564C9.92848 8.24251 10.9803 8.16853 10.8689 8.53455C10.7576 8.90057 10.2859 10.5256 10.9751 11.3461C11.6644 12.1665 10.3235 11.9885 10.5962 11.9885C10.8689 11.9885 11.8359 12.1794 11.8359 11.9885C11.8359 11.7975 12.172 12.7309 12.4597 12.7309C12.7474 12.7309 12.9695 12.4029 12.9695 12.4029C12.9695 12.4029 13.3728 12.7309 13.6185 12.7309C13.8642 12.7309 14.7211 12.5163 14.7211 12.5163L13.1016 11.1517C13.1016 11.1517 13.1992 10.5499 12.9695 10.4196C12.7397 10.2893 14.8112 11.574 14.9735 11.9885C15.1357 12.4029 15.2664 12.4029 15.2664 12.4029Z" fill="#8F4620"/>
<path d="M7.06641 11.7266C7.06641 11.7266 7.21655 11.248 7.37731 11.2148C7.51658 11.186 7.80944 11.4441 7.80944 11.4441C8.32968 14.334 9.58761 15.4627 11.6749 15.4627C13.7867 15.4627 15.0666 14.6051 15.8135 11.9398C15.8135 11.9398 16.2106 11.5343 16.3507 11.5794C16.5032 11.6284 16.6943 12.1649 16.6943 12.1649C15.8375 15.2225 14.2185 16.5839 11.6749 16.5839C9.10667 16.5839 7.66375 15.0448 7.06641 11.7266Z" fill="#9FAB2F"/>
<path fill-rule="evenodd" clip-rule="evenodd" d="M9.33415 13.6564C9.33415 13.6564 12.3385 14.2938 13.5243 14.2938C14.7102 14.2938 12.4839 15.2616 11.6152 15.2616C11.2352 15.2616 10.7772 15.0312 10.2412 14.5705C10.1451 14.488 10.2382 14.3032 9.94549 14.3007C9.5374 14.2971 9.03041 14.2014 9.07892 14.1431C9.12504 14.0876 9.7188 14.0708 9.66158 14.0102C9.56716 13.9101 9.33415 13.6564 9.33415 13.6564Z" fill="#2FC2DC"/>
<rect x="10.6666" y="14.1" width="2" height="1.07143" rx="0.166667" fill="#F9AA51"/>
<path d="M8.17542 12.1359C8.17542 12.1359 8.17542 11.7608 8.4294 11.5616C8.72054 11.3331 8.99404 11.5616 8.99404 11.5616C10.0595 13.0802 11.6528 13.5798 13.8812 13.0583C13.8812 13.0583 14.5475 13.2761 14.581 13.4191C14.6234 13.6006 14.109 14.032 14.109 14.032C11.504 14.6416 9.4904 14.0102 8.17542 12.1359Z" fill="#259485"/>
<path fill-rule="evenodd" clip-rule="evenodd" d="M12.5913 12.3503C12.5913 12.3503 11.3776 12.9891 11.7822 12.9891C12.1867 12.9891 13.77 13.3086 13.4619 12.9891C13.1538 12.6697 12.5913 12.3503 12.5913 12.3503Z" fill="#FCCA3D"/>
<path fill-rule="evenodd" clip-rule="evenodd" d="M11.1563 11.5882C11.1563 11.5882 10.9257 10.9222 10.4458 10.9222C9.9659 10.9222 10.1014 11.4685 9.87059 11.4685C9.63981 11.4685 10.0856 11.853 10.2843 11.853C10.483 11.853 11.1563 11.5882 11.1563 11.5882Z" fill="#FCCA3D"/>
</g>
</g>
<defs>
<clipPath id="clip0_5854_18818">
<path d="M0 12C0 5.37258 5.37258 0 12 0V0C18.6274 0 24 5.37258 24 12V12C24 18.6274 18.6274 24 12 24V24C5.37258 24 0 18.6274 0 12V12Z" fill="white"/>
</clipPath>
</defs>
</svg>
