<svg width="24" height="24" viewBox="0 0 24 24" fill="none" xmlns="http://www.w3.org/2000/svg">
<path d="M14.8599 8.96235C14.8345 8.6852 14.7433 8.41717 14.5933 8.17847C14.4433 7.93976 14.2383 7.73663 13.9939 7.58437C13.422 7.23993 12.754 7.06885 12.0779 7.09368C11.5886 7.08275 11.1021 7.1668 10.6481 7.34074C10.2783 7.48136 9.95543 7.7146 9.71349 8.01576C9.49395 8.2963 9.37731 8.63781 9.38152 8.9877C9.37408 9.2656 9.45284 9.53941 9.60795 9.77487C9.76209 9.99877 9.96595 10.1877 10.2051 10.3283C10.4563 10.4781 10.7236 10.6017 11.0026 10.697C11.2715 10.7903 11.5452 10.8706 11.8226 10.9376L13.1342 11.2624C13.5832 11.3687 14.0239 11.5045 14.4531 11.6689C14.901 11.8384 15.3226 12.0654 15.7061 12.3435C16.0911 12.6229 16.4098 12.9765 16.6416 13.3812C16.8908 13.838 17.0137 14.3477 16.9988 14.8623C17.011 15.5477 16.8064 16.2207 16.4115 16.7937C15.9883 17.3814 15.3991 17.8429 14.712 18.1248C13.8639 18.47 12.9474 18.6362 12.0256 18.6121C11.1317 18.6322 10.2431 18.4771 9.4149 18.1562C8.72403 17.8856 8.12631 17.4365 7.6892 16.8594C7.26358 16.2703 7.02437 15.5771 7 14.8623H9.03422C9.0568 15.2857 9.2237 15.6906 9.50962 16.0155C9.79721 16.3282 10.1662 16.5631 10.5795 16.6966C11.0403 16.8488 11.5252 16.924 12.0129 16.9188C12.5363 16.9274 13.0565 16.8392 13.5447 16.6592C13.9583 16.5102 14.3235 16.2602 14.6037 15.9343C14.8615 15.6246 14.9983 15.2391 14.9907 14.8438C15.0056 14.5039 14.8851 14.1712 14.6533 13.9123C14.3988 13.6515 14.0875 13.4468 13.7413 13.3124C13.3211 13.1421 12.8881 13.0021 12.4459 12.8935L10.8582 12.481C9.91651 12.2681 9.04087 11.8463 8.30262 11.25C7.99059 10.9786 7.74459 10.6456 7.58191 10.2742C7.41922 9.90279 7.34379 9.50197 7.36084 9.09985C7.34596 8.40825 7.56689 7.73072 7.9905 7.16888C8.42963 6.60436 9.01833 6.16112 9.69635 5.88455C10.4621 5.56885 11.2896 5.41225 12.1239 5.4252C12.9528 5.40955 13.7754 5.56509 14.5352 5.8811C15.1912 6.15356 15.7603 6.58585 16.1851 7.13446C16.5882 7.66715 16.8081 8.3057 16.8148 8.96232L14.8599 8.96235ZM11.3959 20L11.4482 4H12.6814L12.6291 20H11.3959Z" fill="white"/>
</svg>
