<svg width="24" height="24" viewBox="0 0 24 24" fill="none" xmlns="http://www.w3.org/2000/svg">
<g clip-path="url(#clip0_5854_18851)">
<path d="M0 12C0 5.37258 5.37258 0 12 0V0C18.6274 0 24 5.37258 24 12V12C24 18.6274 18.6274 24 12 24V24C5.37258 24 0 18.6274 0 12V12Z" fill="white"/>
<mask id="mask0_5854_18851" style="mask-type:alpha" maskUnits="userSpaceOnUse" x="-4" y="0" width="32" height="24">
<rect x="-4" width="32" height="24" fill="white"/>
</mask>
<g mask="url(#mask0_5854_18851)">
<path fill-rule="evenodd" clip-rule="evenodd" d="M-4 0H28V24H-4V0Z" fill="#F7FCFF"/>
<rect x="-3.9729" y="5" width="32" height="2.9" fill="#E31D1C"/>
<rect x="-3.9729" y="10.2" width="32" height="2.9" fill="#E31D1C"/>
<rect x="-3.88831" y="15.2" width="32" height="2.5" fill="#E31D1C"/>
<rect x="-3.88831" y="20.2" width="32" height="2.7" fill="#E31D1C"/>
<path fill-rule="evenodd" clip-rule="evenodd" d="M-4 0H28V2.5H-4V0Z" fill="#E31D1C"/>
<path fill-rule="evenodd" clip-rule="evenodd" d="M-4 0H12V12H-4V0Z" fill="#3D58DB"/>
<path fill-rule="evenodd" clip-rule="evenodd" d="M-0.406493 6.20222C-0.406493 7.57844 0.24173 8.87985 1.56048 8.87985C3.53906 8.87985 3.92399 8.45803 4.84724 7.87606C5.06552 8.36633 4.32926 10.4644 1.53348 10.4644C-0.702781 10.4194 -2.51001 8.62288 -2.51001 6.20222C-2.51001 3.4237 -0.466435 1.92316 1.47736 1.94015C3.19338 1.94015 5.01341 2.9139 4.95764 4.15613C4.14909 3.36628 3.27115 3.36628 1.80966 3.36628C0.348175 3.36628 -0.406493 4.82582 -0.406493 6.20222Z" fill="#FECA00"/>
<path fill-rule="evenodd" clip-rule="evenodd" d="M7 7.29999L6.07295 8.65316L6.11832 7.01351L4.57295 7.56334L5.57342 6.26351L4 5.79999L5.57342 5.33646L4.57295 4.03663L6.11832 4.58646L6.07295 2.94682L7 4.29999L7.92705 2.94682L7.88168 4.58646L9.42705 4.03663L8.42658 5.33646L10 5.79999L8.42658 6.26351L9.42705 7.56334L7.88168 7.01351L7.92705 8.65316L7 7.29999Z" fill="#FECA00"/>
</g>
</g>
<defs>
<clipPath id="clip0_5854_18851">
<path d="M0 12C0 5.37258 5.37258 0 12 0V0C18.6274 0 24 5.37258 24 12V12C24 18.6274 18.6274 24 12 24V24C5.37258 24 0 18.6274 0 12V12Z" fill="white"/>
</clipPath>
</defs>
</svg>
