<svg width="24" height="24" viewBox="0 0 24 24" fill="none" xmlns="http://www.w3.org/2000/svg">
<path d="M18 11.4805V10.1133H16.8643V5H15.059V10.1133H11.8689L8.82285 5H7.13565V10.1133H6V11.4805H7.13565V13.0666H6V14.4337H7.13565V19H8.95878V14.4337H12.4651L15.1885 19H16.8644V14.4337H18V13.0666H16.8643V11.4805H18ZM8.95875 8.73251H9.06471L9.88822 10.1133H8.95875V8.73251ZM8.95875 13.0666V11.4805H10.7036L11.6496 13.0666L8.95875 13.0666ZM15.059 15.2811H14.9474L14.4427 14.4337H15.059V15.2811ZM15.059 13.0666H13.6282L12.6833 11.4805H15.0591L15.059 13.0666Z" fill="white"/>
</svg>
