<svg width="24" height="24" viewBox="0 0 24 24" fill="none" xmlns="http://www.w3.org/2000/svg">
<path d="M8.22674 8.8999V16.1001H6.86729L3.62858 11.5683H3.57399V16.1001H2V8.8999H3.38176L6.59509 13.4283H6.66044V8.8999H8.22674Z" fill="white"/>
<path d="M9.44393 16.1001V15.1965L13.1594 10.1549H9.43701V8.8999H15.1363V9.80351L11.4178 14.8451H15.144V16.1001H9.44393Z" fill="white"/>
<path d="M20.3888 10.9707C20.3804 10.8408 20.3425 10.7143 20.2779 10.6C20.2134 10.4858 20.1236 10.3866 20.0151 10.3096C19.7496 10.1401 19.4347 10.0576 19.117 10.0742C18.8953 10.0684 18.6745 10.1036 18.4665 10.178C18.3065 10.235 18.1662 10.3342 18.0613 10.4643C17.9685 10.5839 17.9193 10.7298 17.9214 10.8793C17.9133 10.9977 17.9431 11.1156 18.0067 11.2169C18.0722 11.3167 18.1596 11.4013 18.2628 11.4646C18.3813 11.5383 18.5082 11.5984 18.6411 11.6438C18.7905 11.6962 18.9433 11.7391 19.0985 11.7721L19.7675 11.9268C20.0745 11.9918 20.374 12.0861 20.6618 12.2083C20.9185 12.3164 21.1563 12.4622 21.3669 12.6408C21.5631 12.809 21.721 13.015 21.8305 13.2454C21.9446 13.4969 22.0022 13.7689 21.9997 14.0434C22.0073 14.4503 21.886 14.8497 21.6521 15.188C21.4043 15.5248 21.0608 15.7848 20.6633 15.9366C20.169 16.125 19.6405 16.2153 19.1093 16.2021C18.5736 16.2135 18.0409 16.1228 17.5415 15.9351C17.1215 15.776 16.7597 15.5002 16.5019 15.1423C16.2419 14.7547 16.1057 14.3016 16.1105 13.8396H17.6338C17.642 14.0569 17.7172 14.2668 17.8498 14.4424C17.9827 14.6069 18.1603 14.7323 18.3627 14.8045C18.5958 14.8885 18.843 14.9296 19.0917 14.9258C19.3288 14.9305 19.5648 14.8925 19.7875 14.8135C19.967 14.7507 20.1258 14.6426 20.2474 14.5004C20.3554 14.3699 20.4133 14.2072 20.4111 14.04C20.4158 13.891 20.3632 13.7457 20.2635 13.6321C20.1448 13.508 19.9983 13.4118 19.8352 13.351C19.6119 13.2626 19.3814 13.1919 19.1462 13.1398L18.3358 12.943C17.7888 12.8339 17.278 12.596 16.8487 12.2503C16.6671 12.0906 16.5243 11.8939 16.4307 11.6745C16.3371 11.455 16.295 11.2182 16.3074 10.9811C16.2962 10.5724 16.4231 10.1712 16.6688 9.83843C16.9268 9.50146 17.274 9.23799 17.6738 9.07575C18.1331 8.88647 18.6286 8.79296 19.1278 8.80133C19.6255 8.79061 20.1197 8.88423 20.5765 9.07575C20.9649 9.23873 21.2989 9.50275 21.5415 9.83843C21.7744 10.173 21.8984 10.5674 21.8975 10.9707L20.3888 10.9707ZM18.6441 17L18.7318 8H19.5891L19.5023 17H18.6441Z" fill="white"/>
</svg>
