<svg width="24" height="24" viewBox="0 0 24 24" fill="none" xmlns="http://www.w3.org/2000/svg">
<path d="M9.57672 9.35264C9.56568 9.17177 9.51633 8.9956 9.43217 8.83658C9.348 8.67755 9.23107 8.53955 9.08963 8.43231C8.74347 8.19639 8.33312 8.08153 7.91901 8.10465C7.63004 8.09652 7.34224 8.14554 7.07111 8.24907C6.86254 8.32853 6.6796 8.46658 6.54292 8.64766C6.42202 8.81413 6.35788 9.01725 6.3605 9.22533C6.34996 9.39008 6.3888 9.55419 6.47175 9.69533C6.55707 9.83422 6.67104 9.95193 6.80551 10.0401C6.95999 10.1426 7.12547 10.2263 7.29862 10.2895C7.49337 10.3625 7.69257 10.4222 7.8949 10.4681L8.76686 10.6835C9.16698 10.774 9.55743 10.9052 9.93247 11.0753C10.2671 11.2257 10.5771 11.4288 10.8515 11.6773C11.1073 11.9115 11.3131 12.1981 11.4559 12.5189C11.6046 12.869 11.6797 13.2476 11.6764 13.6298C11.6863 14.1961 11.5282 14.7521 11.2234 15.223C10.9004 15.6918 10.4526 16.0537 9.93447 16.265C9.29015 16.5273 8.60128 16.653 7.90893 16.6346C7.21071 16.6505 6.51629 16.5242 5.86534 16.2629C5.31795 16.0415 4.8464 15.6575 4.5103 15.1593C4.17138 14.6199 3.99394 13.9892 4.00016 13.3461H5.98561C5.99632 13.6486 6.0944 13.9408 6.26724 14.1852C6.44037 14.4142 6.67187 14.5888 6.93575 14.6894C7.23954 14.8062 7.56176 14.8634 7.88588 14.8581C8.19501 14.8647 8.50262 14.8117 8.79292 14.7018C9.02682 14.6144 9.23379 14.4639 9.39228 14.2659C9.53316 14.0843 9.60862 13.8578 9.60575 13.6251C9.61188 13.4178 9.54331 13.2154 9.41332 13.0573C9.25859 12.8845 9.06763 12.7507 8.85507 12.666C8.56395 12.5429 8.26362 12.4446 7.95705 12.372L6.90068 12.0981C6.18763 11.9462 5.52185 11.615 4.96233 11.1338C4.7256 10.9115 4.53953 10.6378 4.41752 10.3323C4.29551 10.0268 4.2406 9.69721 4.25674 9.36718C4.2422 8.79816 4.40757 8.23975 4.72782 7.77653C5.06415 7.30746 5.51667 6.94071 6.03776 6.71488C6.6365 6.4514 7.2823 6.32123 7.93302 6.33288C8.58174 6.31795 9.22591 6.44827 9.82125 6.71488C10.3275 6.94173 10.763 7.30925 11.0791 7.77653C11.3827 8.24224 11.5443 8.79122 11.5431 9.35269L9.57672 9.35264Z" fill="white"/>
<path d="M17.2379 6L14.1109 18H12.3719L15.499 6H17.2379Z" fill="white"/>
<path d="M18.8635 16.62C18.5621 16.6192 18.2733 16.4953 18.0601 16.2752C17.8469 16.0551 17.7268 15.7568 17.7259 15.4455C17.724 15.2921 17.7526 15.14 17.81 14.9985C17.8675 14.857 17.9524 14.7292 18.0597 14.623C18.2718 14.404 18.5595 14.2809 18.8595 14.2809C19.1594 14.2809 19.4471 14.404 19.6593 14.623C19.8404 14.802 19.9572 15.0394 19.9903 15.296C20.0235 15.5527 19.971 15.8133 19.8417 16.0351C19.7388 16.2097 19.5964 16.3558 19.4267 16.4611C19.2568 16.5668 19.0618 16.6218 18.8635 16.62Z" fill="white"/>
</svg>
