<svg width="24" height="24" viewBox="0 0 24 24" fill="none" xmlns="http://www.w3.org/2000/svg">
<path d="M18 7.60122H16.3593C16.3093 7.45594 16.2523 7.3134 16.1884 7.17415C15.8673 6.50032 15.3536 5.94655 14.7179 5.58898C13.9224 5.16787 13.0362 4.96661 12.1444 5.00452H7.65455V7.60122H6V9.10465H7.65455V9.84273H6V11.3462H7.65455V19H9.28205V13.9429H12.1706C13.0583 13.981 13.9397 13.7723 14.7242 13.3382C15.3597 12.9635 15.8704 12.3961 16.1884 11.7117C16.2431 11.5933 16.287 11.4694 16.3323 11.3462H18V9.84276H16.6415C16.6503 9.70716 16.6613 9.57261 16.6613 9.43261C16.6613 9.32044 16.6511 9.21379 16.6455 9.10468H18V7.60122ZM9.28205 6.50794H12.1444C12.741 6.47804 13.3351 6.60623 13.8712 6.88051C14.1634 7.0565 14.4101 7.30384 14.59 7.60119H9.28205V6.50794ZM13.8811 12.0467C13.3548 12.3341 12.7642 12.4697 12.1706 12.4394H9.28205V11.3462H14.5646C14.3904 11.6303 14.1567 11.8698 13.8811 12.0467V12.0467ZM15.0591 9.43258C15.0591 9.57691 15.0364 9.70602 15.025 9.84273H9.28205V9.10465H15.0312C15.0387 9.21532 15.0591 9.31656 15.0591 9.43261V9.43258Z" fill="white"/>
</svg>
