<svg width="24" height="24" viewBox="0 0 24 24" fill="none" xmlns="http://www.w3.org/2000/svg">
<g clip-path="url(#clip0_5854_18844)">
<path d="M0 12C0 5.37258 5.37258 0 12 0V0C18.6274 0 24 5.37258 24 12V12C24 18.6274 18.6274 24 12 24V24C5.37258 24 0 18.6274 0 12V12Z" fill="white"/>
<mask id="mask0_5854_18844" style="mask-type:alpha" maskUnits="userSpaceOnUse" x="-4" y="0" width="32" height="24">
<rect x="-4" width="32" height="24" fill="white"/>
</mask>
<g mask="url(#mask0_5854_18844)">
<path fill-rule="evenodd" clip-rule="evenodd" d="M4 0H28V24H4V0Z" fill="#2F8D00"/>
<path fill-rule="evenodd" clip-rule="evenodd" d="M-4 0H4V24H-4V0Z" fill="#F7FCFF"/>
<path fill-rule="evenodd" clip-rule="evenodd" d="M18.4294 15.3062C18.4294 15.3062 13.9636 16.4705 10.419 14.0956C6.87432 11.7206 8.65616 6.24774 8.65616 6.24774C6.80721 6.51679 3.90356 13.2626 8.58397 16.6461C13.2644 20.0296 17.7482 16.7772 18.4294 15.3062ZM13.4738 8.86647L11.1023 10.0261L13.6041 10.4717L13.9418 12.9172L15.3589 10.8344L18.1474 11.0224L15.9633 9.39355L17.126 7.21718L14.9516 8.21304L13.3364 6.69436L13.4738 8.86647Z" fill="#F1F9FF"/>
</g>
</g>
<defs>
<clipPath id="clip0_5854_18844">
<path d="M0 12C0 5.37258 5.37258 0 12 0V0C18.6274 0 24 5.37258 24 12V12C24 18.6274 18.6274 24 12 24V24C5.37258 24 0 18.6274 0 12V12Z" fill="white"/>
</clipPath>
</defs>
</svg>
