<svg width="24" height="24" viewBox="0 0 24 24" fill="none" xmlns="http://www.w3.org/2000/svg">
<g clip-path="url(#clip0_5841_8206)">
<path d="M12 24C18.6274 24 24 18.6274 24 12C24 5.37258 18.6274 0 12 0C5.37258 0 0 5.37258 0 12C0 18.6274 5.37258 24 12 24Z" fill="#F0F0F0"/>
<path d="M23.2536 16.1739C23.736 14.8739 24 13.4678 24 12C24 10.5321 23.736 9.12606 23.2536 7.82608H0.746391C0.264047 9.12606 0 10.5321 0 12C0 13.4678 0.264047 14.8739 0.746391 16.1739L12 17.2173L23.2536 16.1739Z" fill="#0052B4"/>
<path d="M12.0001 24C17.1596 24 21.5582 20.7435 23.2537 16.1739H0.74646C2.44198 20.7435 6.84049 24 12.0001 24Z" fill="#D80027"/>
</g>
<defs>
<clipPath id="clip0_5841_8206">
<rect width="24" height="24" fill="white"/>
</clipPath>
</defs>
</svg>
