<svg width="24" height="24" viewBox="0 0 24 24" fill="none" xmlns="http://www.w3.org/2000/svg">
<path d="M13.2063 13.519H6V11.7284H13.1791C13.7076 11.7473 14.2331 11.6407 14.7128 11.4174C15.0953 11.2318 15.4101 10.9305 15.6127 10.5561C15.8144 10.1647 15.9153 9.7289 15.9062 9.28843C15.9139 8.84691 15.8131 8.41026 15.6127 8.01699C15.412 7.6379 15.1006 7.32924 14.7203 7.13224C14.2502 6.89995 13.73 6.78838 13.2063 6.80756H10.2336V19H8.13367V5.00327H13.2063C14.1253 4.97173 15.0378 5.169 15.8621 5.57744C16.5357 5.92357 17.0929 6.46068 17.4642 7.12189C17.8245 7.78376 18.0089 8.52743 17.9995 9.28137C18.0109 10.0376 17.8241 10.7835 17.4577 11.4446C17.0818 12.0981 16.5219 12.6259 15.848 12.9618C15.025 13.358 14.1188 13.5492 13.2063 13.519ZM13.3084 14.6942V16.4919H6V14.6942H13.3084Z" fill="white"/>
</svg>
