<svg width="24" height="24" viewBox="0 0 24 24" fill="none" xmlns="http://www.w3.org/2000/svg">
<g clip-path="url(#clip0_5854_18833)">
<path d="M0 12C0 5.37258 5.37258 0 12 0V0C18.6274 0 24 5.37258 24 12V12C24 18.6274 18.6274 24 12 24V24C5.37258 24 0 18.6274 0 12V12Z" fill="white"/>
<mask id="mask0_5854_18833" style="mask-type:alpha" maskUnits="userSpaceOnUse" x="-1" y="0" width="32" height="24">
<rect x="-1" width="32" height="24" fill="white"/>
</mask>
<g mask="url(#mask0_5854_18833)">
<path fill-rule="evenodd" clip-rule="evenodd" d="M-1 0V24H31V0H-1Z" fill="#F7FCFF"/>
<mask id="mask1_5854_18833" style="mask-type:alpha" maskUnits="userSpaceOnUse" x="-1" y="0" width="32" height="24">
<path fill-rule="evenodd" clip-rule="evenodd" d="M-1 0V24H31V0H-1Z" fill="white"/>
</mask>
<g mask="url(#mask1_5854_18833)">
<path fill-rule="evenodd" clip-rule="evenodd" d="M-1 0V12H31V0H-1Z" fill="#E31D1C"/>
<path fill-rule="evenodd" clip-rule="evenodd" d="M7.8684 10.5896C7.8684 10.5896 5.04271 9.4531 5.04271 6.37402C5.04271 3.29495 7.8684 2.19517 7.8684 2.19517C6.49506 1.8475 2.85095 2.15846 2.85095 6.37402C2.85095 10.5896 6.44 11.3846 7.8684 10.5896ZM8.59237 10.0806L9.403 9.59127L10.2315 10.0806L10.0287 9.12568L10.7022 8.37234H9.78972L9.403 7.48064L9.01628 8.37234L8.10222 8.41098L8.77727 9.12568L8.59237 10.0806ZM12.3493 9.53662L11.5387 10.026L11.7236 9.07103L11.0485 8.35633L11.9626 8.31769L12.3493 7.42599L12.736 8.31769H13.6485L12.975 9.07103L13.1778 10.026L12.3493 9.53662ZM10.2872 5.76988L11.0978 5.28051L11.9263 5.76988L11.7235 4.81492L12.397 4.06158H11.4845L11.0978 3.16988L10.7111 4.06158L9.797 4.10022L10.472 4.81492L10.2872 5.76988ZM8.36978 7.22267L7.55916 7.71204L7.74406 6.75708L7.06901 6.04239L7.98306 6.00374L8.36978 5.11204L8.7565 6.00374H9.66901L8.99551 6.75708L9.19827 7.71204L8.36978 7.22267ZM12.9176 7.66819L13.7282 7.17882L14.5567 7.66819L14.3539 6.71323L15.0274 5.95989H14.1149L13.7282 5.06819L13.3415 5.95989L12.4274 5.99853L13.1025 6.71323L12.9176 7.66819Z" fill="#F1F9FF"/>
</g>
</g>
</g>
<defs>
<clipPath id="clip0_5854_18833">
<path d="M0 12C0 5.37258 5.37258 0 12 0V0C18.6274 0 24 5.37258 24 12V12C24 18.6274 18.6274 24 12 24V24C5.37258 24 0 18.6274 0 12V12Z" fill="white"/>
</clipPath>
</defs>
</svg>
