<svg width="24" height="24" viewBox="0 0 24 24" fill="none" xmlns="http://www.w3.org/2000/svg">
<path d="M14.2567 6.06529V7.85235L6 10.5156V8.73546L14.2567 6.06529ZM14.2567 9.20088V10.974L6 13.6377V11.8576L14.2567 9.20088ZM10.9267 5V18.8093L8.31036 18.8835V5H10.9267ZM15.3524 12.6327H17.9944C18.0459 13.8484 17.7404 15.0569 17.1021 16.1628C16.5649 17.0559 15.6963 17.7971 14.613 18.2869C13.469 18.7768 12.1841 19.022 10.8846 18.9985C10.3976 18.9985 9.92181 18.9883 9.45732 18.9679C8.99245 18.9475 8.61011 18.9193 8.3103 18.8835L10.8846 17.1641C11.6834 17.1751 12.4726 17.0241 13.1774 16.7256C13.8911 16.3988 14.4505 15.8958 14.7706 15.2932C15.2007 14.4493 15.3991 13.5423 15.3523 12.6327H15.3524Z" fill="white"/>
</svg>
