<svg width="24" height="24" viewBox="0 0 24 24" fill="none" xmlns="http://www.w3.org/2000/svg">
<path d="M17 11.2141H7V9.36831H17V11.2141ZM17 14.4127H7V12.5894H17V14.4127ZM12.0032 19.9894C10.8891 20.0656 9.78307 19.7301 8.84677 19.032C8.47752 18.7193 8.18097 18.3069 7.9833 17.8312C7.78564 17.3555 7.69296 16.8312 7.71344 16.3046C7.71906 15.9874 7.76813 15.6733 7.85885 15.3738C7.95098 15.063 8.085 14.7708 8.25602 14.5078C8.42327 14.247 8.62907 14.0219 8.86404 13.8429L10.7472 14.2227C10.4584 14.4811 10.2198 14.8059 10.0464 15.1764C9.90594 15.5012 9.83136 15.8583 9.82832 16.221C9.82323 16.4713 9.87301 16.719 9.97307 16.9413C10.0731 17.1637 10.2203 17.3535 10.4009 17.4933C10.8813 17.832 11.4407 17.9925 12.0032 17.953C12.5689 17.98 13.1296 17.8205 13.6191 17.4933C13.8339 17.3255 14.0065 17.0958 14.1196 16.8271C14.2327 16.5583 14.2823 16.2602 14.2635 15.9625H16.412C16.4283 16.7671 16.2363 17.5591 15.8603 18.2381C15.4885 18.8483 14.9605 19.3101 14.3498 19.5596C13.5968 19.8655 12.8016 20.0111 12.0032 19.9894V19.9894ZM12.0559 6.01042C11.4969 5.95474 10.9404 6.1462 10.5 6.54578C10.3332 6.73376 10.2021 6.95941 10.115 7.2085C10.0279 7.45758 9.98658 7.72472 9.99373 7.99306H7.8525C7.86078 7.28418 8.01825 6.58814 8.31146 5.96442C8.6217 5.33866 9.09283 4.83859 9.66018 4.53284C10.4085 4.14821 11.2241 3.96749 12.0432 4.0048C12.7903 3.98242 13.5343 4.1255 14.2344 4.42625C14.7895 4.66525 15.268 5.09329 15.6058 5.65317C15.9296 6.23485 16.0931 6.91533 16.0748 7.60554C16.0748 7.91351 16.0337 8.21965 15.953 8.51331C15.8704 8.81187 15.7501 9.09486 15.5958 9.35318C15.4367 9.61973 15.2465 9.85997 15.0305 10.0672L13.2656 9.48954C13.4727 9.21989 13.6577 8.92876 13.8181 8.61989C13.9679 8.33218 14.0444 8.00192 14.039 7.66669C14.0475 7.43514 14.0072 7.20466 13.9214 6.99492C13.8356 6.78518 13.707 6.60242 13.5464 6.46223C13.107 6.12553 12.5826 5.96657 12.0559 6.01042Z" fill="white"/>
</svg>
