<svg width="24" height="24" viewBox="0 0 24 24" fill="none" xmlns="http://www.w3.org/2000/svg">
<path d="M6.76285 8.10742H8.39296V13.1608C8.40476 13.6858 8.26563 14.2031 7.9924 14.65C7.71901 15.0807 7.33099 15.4249 6.87277 15.6434C6.34869 15.8901 5.77536 16.0116 5.19724 15.9986C4.61805 16.012 4.0436 15.8905 3.51853 15.6434C3.0603 15.4256 2.67263 15.0811 2.40045 14.65C2.12783 14.2028 1.989 13.6857 2.00068 13.1608V8.10742H3.6308V13.0201C3.62561 13.2961 3.69264 13.5687 3.82511 13.8102C3.95307 14.04 4.14307 14.2284 4.373 14.3535C4.62639 14.4897 4.91023 14.5578 5.19723 14.5512C5.48502 14.5581 5.76973 14.49 6.02384 14.3535C6.25259 14.2276 6.44163 14.0394 6.56934 13.8102C6.70119 13.5684 6.76792 13.296 6.76285 13.0201V8.10742Z" fill="white"/>
<path d="M13.9157 10.3453C13.9069 10.2049 13.8677 10.0681 13.8008 9.94465C13.7339 9.8212 13.641 9.71406 13.5286 9.6308C13.2536 9.44764 12.9275 9.35847 12.5985 9.37642C12.3689 9.37011 12.1402 9.40817 11.9248 9.48854C11.7591 9.55023 11.6137 9.65741 11.5051 9.79799C11.409 9.92722 11.3581 10.0849 11.3602 10.2465C11.3518 10.3744 11.3826 10.5018 11.4486 10.6113C11.5163 10.7192 11.6069 10.8106 11.7137 10.879C11.8365 10.9586 11.968 11.0236 12.1055 11.0727C12.2603 11.1293 12.4186 11.1756 12.5794 11.2113L13.2722 11.3785C13.5901 11.4487 13.9004 11.5506 14.1984 11.6827C14.4642 11.7995 14.7106 11.9571 14.9286 12.1501C15.1319 12.3319 15.2954 12.5544 15.4088 12.8035C15.5269 13.0752 15.5867 13.3691 15.584 13.6658C15.5919 14.1056 15.4663 14.5372 15.2241 14.9028C14.9674 15.2667 14.6117 15.5477 14.2 15.7117C13.688 15.9154 13.1406 16.013 12.5905 15.9986C12.0357 16.011 11.484 15.913 10.9668 15.7101C10.5318 15.5382 10.1571 15.2401 9.89009 14.8533C9.6208 14.4345 9.47981 13.9449 9.48474 13.4456H11.0623C11.0708 13.6805 11.1488 13.9073 11.2861 14.097C11.4237 14.2748 11.6076 14.4104 11.8173 14.4885C12.0586 14.5791 12.3147 14.6236 12.5722 14.6195C12.8178 14.6246 13.0622 14.5835 13.2929 14.4981C13.4788 14.4303 13.6432 14.3134 13.7691 14.1597C13.8811 14.0187 13.941 13.8429 13.9388 13.6622C13.9436 13.5013 13.8891 13.3442 13.7859 13.2214C13.6629 13.0873 13.5112 12.9834 13.3423 12.9176C13.111 12.8221 12.8723 12.7457 12.6288 12.6893L11.7894 12.4768C11.2228 12.3588 10.6938 12.1017 10.2493 11.7281C10.0612 11.5555 9.91331 11.343 9.81637 11.1059C9.71943 10.8687 9.6758 10.6128 9.68862 10.3566C9.67706 9.91482 9.80846 9.4813 10.0629 9.12167C10.3302 8.75751 10.6897 8.47279 11.1038 8.29746C11.5795 8.0929 12.0926 7.99185 12.6097 8.00089C13.1251 7.98931 13.6369 8.09048 14.11 8.29746C14.5123 8.47359 14.8582 8.75891 15.1094 9.12167C15.3507 9.48323 15.4791 9.90943 15.4781 10.3453L13.9157 10.3453Z" fill="white"/>
<path d="M18.2487 12.5146V15.8886H16.6456V8.10742H18.2041V11.0824H18.2718C18.3919 10.751 18.6134 10.4669 18.9041 10.271C19.232 10.0646 19.6137 9.96215 19.9999 9.97685C20.3676 9.96831 20.7309 10.0595 21.0518 10.2409C21.3532 10.4185 21.5965 10.6813 21.7518 10.9968C21.9271 11.3628 22.0119 11.7663 21.9987 12.1726V15.8886H20.3948V12.4615C20.4155 12.1571 20.3191 11.8565 20.1257 11.622C20.0274 11.5197 19.9085 11.44 19.777 11.3882C19.6455 11.3364 19.5045 11.3138 19.3635 11.3218C19.1621 11.3177 18.963 11.366 18.7854 11.4621C18.6179 11.5566 18.4816 11.6987 18.3936 11.8708C18.2949 12.0706 18.2452 12.2914 18.2487 12.5146V12.5146Z" fill="white"/>
</svg>
