<svg width="24" height="24" viewBox="0 0 24 24" fill="none" xmlns="http://www.w3.org/2000/svg">
<g clip-path="url(#clip0_5854_18817)">
<path d="M0 12C0 5.37258 5.37258 0 12 0V0C18.6274 0 24 5.37258 24 12V12C24 18.6274 18.6274 24 12 24V24C5.37258 24 0 18.6274 0 12V12Z" fill="white"/>
<mask id="mask0_5854_18817" style="mask-type:alpha" maskUnits="userSpaceOnUse" x="-4" y="0" width="32" height="24">
<rect x="-4" width="32" height="24" fill="white"/>
</mask>
<g mask="url(#mask0_5854_18817)">
<path fill-rule="evenodd" clip-rule="evenodd" d="M-4 0H28V24H-4V0Z" fill="#F7FCFF"/>
<path fill-rule="evenodd" clip-rule="evenodd" d="M-4 14.6667V16.6667H28V14.6667H-4Z" fill="#E31D1C"/>
<path fill-rule="evenodd" clip-rule="evenodd" d="M-4 18.3333V20.3333H28V18.3333H-4Z" fill="#E31D1C"/>
<path fill-rule="evenodd" clip-rule="evenodd" d="M-4 7.33334V9.33334H28V7.33334H-4Z" fill="#E31D1C"/>
<path fill-rule="evenodd" clip-rule="evenodd" d="M-4 22V24H28V22H-4Z" fill="#E31D1C"/>
<path fill-rule="evenodd" clip-rule="evenodd" d="M-4 11V13H28V11H-4Z" fill="#E31D1C"/>
<path fill-rule="evenodd" clip-rule="evenodd" d="M-4 0V2H28V0H-4Z" fill="#E31D1C"/>
<path fill-rule="evenodd" clip-rule="evenodd" d="M-4 3.66666V5.66666H28V3.66666H-4Z" fill="#E31D1C"/>
<rect x="-4" width="20" height="13" fill="#2E42A5"/>
<path fill-rule="evenodd" clip-rule="evenodd" d="M-2.27791 2.93868L-3.00379 3.44756L-2.75873 2.54195L-3.40344 1.96804H-2.56136L-2.27893 1.22897L-1.94775 1.96804H-1.2299L-1.79393 2.54195L-1.57557 3.44756L-2.27791 2.93868ZM1.72209 2.93868L0.996209 3.44756L1.24127 2.54195L0.596558 1.96804H1.43864L1.72107 1.22897L2.05225 1.96804H2.7701L2.20607 2.54195L2.42443 3.44756L1.72209 2.93868ZM4.99621 3.44756L5.72209 2.93868L6.42443 3.44756L6.20607 2.54195L6.7701 1.96804H6.05225L5.72107 1.22897L5.43864 1.96804H4.59656L5.24127 2.54195L4.99621 3.44756ZM9.72209 2.93868L8.99621 3.44756L9.24127 2.54195L8.59656 1.96804H9.43864L9.72107 1.22897L10.0522 1.96804H10.7701L10.2061 2.54195L10.4244 3.44756L9.72209 2.93868ZM-3.00379 7.44756L-2.27791 6.93867L-1.57557 7.44756L-1.79393 6.54195L-1.2299 5.96804H-1.94775L-2.27893 5.22897L-2.56136 5.96804H-3.40344L-2.75873 6.54195L-3.00379 7.44756ZM1.72209 6.93867L0.996209 7.44756L1.24127 6.54195L0.596558 5.96804H1.43864L1.72107 5.22897L2.05225 5.96804H2.7701L2.20607 6.54195L2.42443 7.44756L1.72209 6.93867ZM4.99621 7.44756L5.72209 6.93867L6.42443 7.44756L6.20607 6.54195L6.7701 5.96804H6.05225L5.72107 5.22897L5.43864 5.96804H4.59656L5.24127 6.54195L4.99621 7.44756ZM9.72209 6.93867L8.99621 7.44756L9.24127 6.54195L8.59656 5.96804H9.43864L9.72107 5.22897L10.0522 5.96804H10.7701L10.2061 6.54195L10.4244 7.44756L9.72209 6.93867ZM-3.00379 11.4476L-2.27791 10.9387L-1.57557 11.4476L-1.79393 10.542L-1.2299 9.96804H-1.94775L-2.27893 9.22897L-2.56136 9.96804H-3.40344L-2.75873 10.542L-3.00379 11.4476ZM1.72209 10.9387L0.996209 11.4476L1.24127 10.542L0.596558 9.96804H1.43864L1.72107 9.22897L2.05225 9.96804H2.7701L2.20607 10.542L2.42443 11.4476L1.72209 10.9387ZM4.99621 11.4476L5.72209 10.9387L6.42443 11.4476L6.20607 10.542L6.7701 9.96804H6.05225L5.72107 9.22897L5.43864 9.96804H4.59656L5.24127 10.542L4.99621 11.4476ZM9.72209 10.9387L8.99621 11.4476L9.24127 10.542L8.59656 9.96804H9.43864L9.72107 9.22897L10.0522 9.96804H10.7701L10.2061 10.542L10.4244 11.4476L9.72209 10.9387ZM12.9962 3.44756L13.7221 2.93868L14.4244 3.44756L14.2061 2.54195L14.7701 1.96804H14.0522L13.7211 1.22897L13.4386 1.96804H12.5966L13.2413 2.54195L12.9962 3.44756ZM13.7221 6.93867L12.9962 7.44756L13.2413 6.54195L12.5966 5.96804H13.4386L13.7211 5.22897L14.0522 5.96804H14.7701L14.2061 6.54195L14.4244 7.44756L13.7221 6.93867ZM12.9962 11.4476L13.7221 10.9387L14.4244 11.4476L14.2061 10.542L14.7701 9.96804H14.0522L13.7211 9.22897L13.4386 9.96804H12.5966L13.2413 10.542L12.9962 11.4476ZM-0.277911 4.93867L-1.00379 5.44756L-0.758726 4.54195L-1.40344 3.96804H-0.561355L-0.278926 3.22897L0.0522454 3.96804H0.770102L0.206065 4.54195L0.424427 5.44756L-0.277911 4.93867ZM2.99621 5.44756L3.72209 4.93867L4.42443 5.44756L4.20607 4.54195L4.7701 3.96804H4.05225L3.72107 3.22897L3.43864 3.96804H2.59656L3.24127 4.54195L2.99621 5.44756ZM7.72209 4.93867L6.99621 5.44756L7.24127 4.54195L6.59656 3.96804H7.43864L7.72107 3.22897L8.05225 3.96804H8.7701L8.20607 4.54195L8.42443 5.44756L7.72209 4.93867ZM-1.00379 9.44756L-0.277911 8.93867L0.424427 9.44756L0.206065 8.54195L0.770102 7.96804H0.0522454L-0.278926 7.22897L-0.561355 7.96804H-1.40344L-0.758726 8.54195L-1.00379 9.44756ZM3.72209 8.93867L2.99621 9.44756L3.24127 8.54195L2.59656 7.96804H3.43864L3.72107 7.22897L4.05225 7.96804H4.7701L4.20607 8.54195L4.42443 9.44756L3.72209 8.93867ZM6.99621 9.44756L7.72209 8.93867L8.42443 9.44756L8.20607 8.54195L8.7701 7.96804H8.05225L7.72107 7.22897L7.43864 7.96804H6.59656L7.24127 8.54195L6.99621 9.44756ZM11.7221 4.93867L10.9962 5.44756L11.2413 4.54195L10.5966 3.96804H11.4386L11.7211 3.22897L12.0522 3.96804H12.7701L12.2061 4.54195L12.4244 5.44756L11.7221 4.93867ZM10.9962 9.44756L11.7221 8.93867L12.4244 9.44756L12.2061 8.54195L12.7701 7.96804H12.0522L11.7211 7.22897L11.4386 7.96804H10.5966L11.2413 8.54195L10.9962 9.44756Z" fill="#F7FCFF"/>
</g>
</g>
<defs>
<clipPath id="clip0_5854_18817">
<path d="M0 12C0 5.37258 5.37258 0 12 0V0C18.6274 0 24 5.37258 24 12V12C24 18.6274 18.6274 24 12 24V24C5.37258 24 0 18.6274 0 12V12Z" fill="white"/>
</clipPath>
</defs>
</svg>
