<svg width="24" height="24" viewBox="0 0 24 24" fill="none" xmlns="http://www.w3.org/2000/svg">
<path d="M14.8599 8.96234C14.8345 8.68519 14.7433 8.41716 14.5933 8.17846C14.4433 7.93976 14.2384 7.73662 13.9939 7.58436C13.422 7.23992 12.754 7.06882 12.0779 7.09366C11.5886 7.08272 11.1021 7.16678 10.6481 7.34072C10.2783 7.48134 9.95542 7.71458 9.71348 8.01575C9.49394 8.29629 9.37729 8.63779 9.3815 8.98769C9.37405 9.26558 9.45281 9.5394 9.60792 9.77487C9.76206 9.99876 9.96592 10.1877 10.2051 10.3283C10.4563 10.4781 10.7236 10.6017 11.0026 10.697C11.2714 10.7904 11.5451 10.8707 11.8226 10.9376L13.1342 11.2625C13.5832 11.3687 14.0239 11.5045 14.4531 11.6689C14.901 11.8385 15.3226 12.0654 15.7061 12.3435C16.091 12.6229 16.4098 12.9765 16.6416 13.3812C16.8908 13.838 17.0137 14.3477 16.9988 14.8623C17.011 15.5477 16.8064 16.2207 16.4115 16.7937C15.9883 17.3814 15.3991 17.843 14.712 18.1249C13.8639 18.47 12.9474 18.6362 12.0255 18.6121C11.1317 18.6323 10.2431 18.4771 9.41487 18.1563C8.72401 17.8857 8.12629 17.4365 7.6892 16.8594C7.26358 16.2703 7.02438 15.5771 7 14.8623H9.03417C9.05675 15.2857 9.22366 15.6906 9.50958 16.0155C9.79716 16.3282 10.1662 16.5631 10.5795 16.6966C11.0402 16.8488 11.5252 16.924 12.0129 16.9187C12.5363 16.9274 13.0565 16.8392 13.5446 16.6592C13.9583 16.5102 14.3235 16.2602 14.6037 15.9343C14.8615 15.6245 14.9983 15.2391 14.9907 14.8438C15.0055 14.5039 14.885 14.1712 14.6533 13.9123C14.3988 13.6515 14.0875 13.4468 13.7413 13.3124C13.3211 13.1421 12.8881 13.0021 12.4459 12.8935L10.8582 12.481C9.91646 12.2681 9.04082 11.8463 8.30257 11.25C7.99054 10.9786 7.74457 10.6456 7.58188 10.2742C7.4192 9.90278 7.34374 9.50197 7.36079 9.09984C7.34591 8.40824 7.56686 7.73068 7.99049 7.16885C8.42962 6.60432 9.01832 6.1611 9.69635 5.88453C10.4621 5.56883 11.2896 5.41223 12.1239 5.42518C12.9528 5.40954 13.7754 5.56507 14.5352 5.88107C15.1912 6.15355 15.7603 6.58588 16.1851 7.13453C16.5882 7.66721 16.8082 8.30576 16.8148 8.96239L14.8599 8.96234ZM11.3959 20L11.4482 4H12.6814L12.6291 20H11.3959Z" fill="white"/>
</svg>
