<svg width="24" height="24" viewBox="0 0 24 24" fill="none" xmlns="http://www.w3.org/2000/svg">
<g clip-path="url(#clip0_5854_18823)">
<path d="M0 12C0 5.37258 5.37258 0 12 0V0C18.6274 0 24 5.37258 24 12V12C24 18.6274 18.6274 24 12 24V24C5.37258 24 0 18.6274 0 12V12Z" fill="white"/>
<mask id="mask0_5854_18823" style="mask-type:alpha" maskUnits="userSpaceOnUse" x="-4" y="0" width="32" height="24">
<rect x="-4" width="32" height="24" fill="white"/>
</mask>
<g mask="url(#mask0_5854_18823)">
<path fill-rule="evenodd" clip-rule="evenodd" d="M-4 0V24H28V0H-4Z" fill="#2E42A5"/>
<mask id="mask1_5854_18823" style="mask-type:alpha" maskUnits="userSpaceOnUse" x="-4" y="0" width="32" height="24">
<path fill-rule="evenodd" clip-rule="evenodd" d="M-4 0V24H28V0H-4Z" fill="white"/>
</mask>
<g mask="url(#mask1_5854_18823)">
<path fill-rule="evenodd" clip-rule="evenodd" d="M-4 0V8H28V0H-4Z" fill="#FECA00"/>
<path fill-rule="evenodd" clip-rule="evenodd" d="M-4 16V24H28V16H-4Z" fill="#E31D1C"/>
<path fill-rule="evenodd" clip-rule="evenodd" d="M8.73683 11.8594L9.71952 11.302L10.8221 11.8594L10.4262 10.7264L11.2497 9.89382H10.2016L9.71804 8.82162L9.30567 9.89382H8.07615L9.00065 10.7115H7.96382L7.48028 9.63933L7.06791 10.7115H5.8384L6.77973 11.5441L6.59981 12.2704H5.81525L5.33171 11.1983L4.91934 12.2704H3.68983L4.63117 13.103L4.45707 13.8059H4.11358L3.63004 12.7337L3.21767 13.8059H1.98816L2.9295 14.6385L2.64884 15.7715L3.63152 15.214L4.73414 15.7715L4.33817 14.6385L5.1617 13.8059H5.10879L5.33319 13.6786L6.43582 14.2361L6.03984 13.103L6.51176 12.6259L6.49907 12.6771L7.48176 12.1197L8.58438 12.6771L8.1884 11.5441L9.00667 10.7168L9.01749 10.7264L8.73683 11.8594Z" fill="#F7FCFF"/>
<path fill-rule="evenodd" clip-rule="evenodd" d="M15.223 11.8156L14.2403 11.2581L13.1377 11.8156L13.5337 10.6826L12.7101 9.84998H13.7583L14.2418 8.77779L14.6542 9.84998H15.8837L14.9592 10.6677H16.0009L16.4844 9.59549L16.8968 10.6677H18.1263L17.185 11.5003L17.3649 12.2266H18.1495L18.633 11.1544L19.0454 12.2266H20.2749L19.3336 13.0592L19.5077 13.7621H19.8511L20.3347 12.6899L20.747 13.7621H21.9766L21.0352 14.5946L21.3159 15.7277L20.3332 15.1702L19.2306 15.7277L19.6266 14.5946L18.803 13.7621H18.8559L18.6315 13.6347L17.5289 14.1922L17.9249 13.0592L17.453 12.5821L17.4656 12.6333L16.483 12.0758L15.3803 12.6333L15.7763 11.5003L14.9558 10.6707L14.9423 10.6826L15.223 11.8156Z" fill="#F7FCFF"/>
<path fill-rule="evenodd" clip-rule="evenodd" d="M11.8329 10.5347L10.8503 11.0922L11.1309 9.9592L10.1896 9.12661H11.4191L11.8315 8.05441L12.315 9.12661H13.3631L12.5396 9.9592L12.9356 11.0922L11.8329 10.5347Z" fill="#F7FCFF"/>
</g>
</g>
</g>
<defs>
<clipPath id="clip0_5854_18823">
<path d="M0 12C0 5.37258 5.37258 0 12 0V0C18.6274 0 24 5.37258 24 12V12C24 18.6274 18.6274 24 12 24V24C5.37258 24 0 18.6274 0 12V12Z" fill="white"/>
</clipPath>
</defs>
</svg>
