<svg width="24" height="24" viewBox="0 0 24 24" fill="none" xmlns="http://www.w3.org/2000/svg">
<path d="M10.994 16.5947C10.2631 16.6053 9.54542 16.4197 8.93277 16.0619C8.3089 15.685 7.81729 15.1567 7.51528 14.5385C7.15314 13.7884 6.97805 12.9763 7.00228 12.159C6.9775 11.3419 7.15473 10.53 7.52123 9.78175C7.82672 9.16614 8.32178 8.64163 8.94816 8.26993C9.56197 7.9178 10.2776 7.7353 11.006 7.74512C11.5009 7.72624 11.9934 7.81729 12.4397 8.0102C12.7662 8.16077 13.0542 8.37072 13.2853 8.62667C13.4576 8.82315 13.6144 9.03016 13.7546 9.2462H13.8666V5H15.7253V16.4275H13.9102V15.094H13.7546C13.6137 15.3141 13.4524 15.5231 13.2724 15.7189C13.0346 15.9736 12.7417 16.1824 12.4115 16.3327C11.9698 16.5223 11.4832 16.6123 10.994 16.5947V16.5947ZM15.5697 17.5822V19H7.48108V17.5822H15.5697ZM11.4044 15.1719C11.8922 15.1852 12.3708 15.0506 12.7629 14.7898C13.1506 14.514 13.4437 14.1456 13.6084 13.7269C13.8112 13.2188 13.9091 12.6818 13.8974 12.1422C13.9091 11.61 13.8121 11.0804 13.611 10.5797C13.4478 10.1673 13.1568 9.80535 12.7723 9.53626C12.375 9.27926 11.8939 9.14785 11.4044 9.16262C10.902 9.14624 10.4084 9.28398 10.0049 9.55314C9.61834 9.83045 9.32652 10.1997 9.16275 10.6188C8.9667 11.1071 8.87083 11.6232 8.87977 12.1422C8.87089 12.6686 8.96761 13.1921 9.16532 13.6878C9.33058 14.1132 9.62454 14.489 10.0143 14.773C10.4125 15.0459 10.9036 15.1868 11.4044 15.1719V15.1719ZM11.2856 7.17049V6.01543H17V7.17049H11.2856Z" fill="white"/>
</svg>
