<svg width="24" height="24" viewBox="0 0 24 24" fill="none" xmlns="http://www.w3.org/2000/svg">
<g clip-path="url(#clip0_5854_18815)">
<path d="M0 12C0 5.37258 5.37258 0 12 0V0C18.6274 0 24 5.37258 24 12V12C24 18.6274 18.6274 24 12 24V24C5.37258 24 0 18.6274 0 12V12Z" fill="white"/>
<mask id="mask0_5854_18815" style="mask-type:alpha" maskUnits="userSpaceOnUse" x="-4" y="0" width="32" height="24">
<rect x="-4" width="32" height="24" fill="white"/>
</mask>
<g mask="url(#mask0_5854_18815)">
<path fill-rule="evenodd" clip-rule="evenodd" d="M-4 0H28V24H-4V0Z" fill="#F7FCFF"/>
<path fill-rule="evenodd" clip-rule="evenodd" d="M-4 0V24H28V0H-4Z" fill="#E31D1C"/>
<mask id="mask1_5854_18815" style="mask-type:alpha" maskUnits="userSpaceOnUse" x="-4" y="0" width="32" height="24">
<path fill-rule="evenodd" clip-rule="evenodd" d="M-4 0V24H28V0H-4Z" fill="white"/>
</mask>
<g mask="url(#mask1_5854_18815)">
<path fill-rule="evenodd" clip-rule="evenodd" d="M12.0619 15.98L6.91107 19.2549L8.63877 13.5219L4.96483 9.77621L10.03 9.66556L12.271 4.00573L14.313 9.74032L19.3661 9.82852L15.5688 13.6428L17.342 19.0968L12.0619 15.98Z" fill="#FFD221"/>
</g>
</g>
</g>
<defs>
<clipPath id="clip0_5854_18815">
<path d="M0 12C0 5.37258 5.37258 0 12 0V0C18.6274 0 24 5.37258 24 12V12C24 18.6274 18.6274 24 12 24V24C5.37258 24 0 18.6274 0 12V12Z" fill="white"/>
</clipPath>
</defs>
</svg>
