<svg width="24" height="24" viewBox="0 0 24 24" fill="none" xmlns="http://www.w3.org/2000/svg">
<path d="M0 12C0 5.37258 5.37258 0 12 0V0C18.6274 0 24 5.37258 24 12V12C24 18.6274 18.6274 24 12 24V24C5.37258 24 0 18.6274 0 12V12Z" fill="white"/>
<path d="M4.91418 14.9605L4.98311 14.943L4.79399 14.2256C4.48998 14.2081 4.22133 14.1767 3.935 14.1488C4.14886 13.9742 4.41222 13.7543 4.62078 13.585L4.44403 12.9094L4.3751 12.9269C4.40868 13.0683 4.39631 13.0875 4.28849 13.1137L3.81657 13.2359C3.62745 13.2847 3.32522 13.3546 3.24214 13.3615C3.15907 13.3685 3.13256 13.3511 3.10782 13.2935L3.0707 13.201L3 13.2184L3.15023 13.7822L3.22093 13.7648L3.20503 13.6548C3.20037 13.6401 3.19869 13.6247 3.20008 13.6094C3.20147 13.5941 3.2059 13.5792 3.21313 13.5656C3.22035 13.5519 3.23022 13.5399 3.24218 13.53C3.25413 13.5202 3.26793 13.5127 3.2828 13.5082C3.46502 13.44 3.65089 13.3817 3.83955 13.3336L4.17184 13.2481V13.269L3.19089 13.976L3.25805 14.2256L4.44756 14.2937V14.3146L3.54792 14.5415C3.4401 14.5695 3.42419 14.559 3.38177 14.4193L3.31108 14.4368L3.53908 15.3096L3.60978 15.2921C3.5762 15.1507 3.5868 15.135 3.69285 15.1053L4.73213 14.8365C4.83994 14.8086 4.85762 14.8156 4.90888 14.9587" fill="#004C97"/>
<path d="M5.14753 16.8072C5.56819 16.582 5.69191 16.198 5.37553 15.6552C5.05915 15.1123 4.66854 15.025 4.25848 15.2537C3.84843 15.4824 3.71763 15.8664 4.03225 16.4023C4.34686 16.9381 4.73924 17.0359 5.15106 16.8055L5.14753 16.8072ZM4.10648 16.3551C4.01987 16.2015 4.12062 16.0392 4.56249 15.7861C5.05562 15.512 5.22706 15.5609 5.29953 15.6866C5.42325 15.9118 5.12278 16.0985 4.83115 16.2574C4.40165 16.4948 4.19309 16.5244 4.09588 16.3516" fill="#004C97"/>
<path d="M8.75321 20.1569L9.23043 19.0921L9.3029 19.1236C9.44253 19.1846 9.45667 19.2091 9.43016 19.5617L9.53444 19.6071L9.71119 19.1986L8.27776 18.572L8.10101 18.9804L8.20883 19.0275C8.45804 18.771 8.48279 18.764 8.62242 18.8251L8.69489 18.8565L8.21767 19.9213C8.17171 20.0225 8.12929 20.019 7.95961 19.9492L7.92957 20.0155L8.88577 20.4327L8.91582 20.3664C8.74968 20.2878 8.71256 20.2582 8.75851 20.1569" fill="#004C97"/>
<path d="M10.8953 20.7678C10.7726 20.3146 10.6764 19.8548 10.6072 19.3906L10.077 19.2719C9.80802 19.6631 9.51772 20.0395 9.20739 20.3995C9.13846 20.4659 9.11901 20.4711 8.96171 20.4449L8.9458 20.5147L9.5874 20.6614L9.6033 20.5915L9.43893 20.5427C9.37 20.5217 9.36293 20.4955 9.39474 20.4432C9.42656 20.3908 9.50609 20.2686 9.58209 20.1517L10.0964 20.2686C10.1141 20.3664 10.1371 20.5182 10.1459 20.602C10.1548 20.6858 10.1459 20.6928 10.0752 20.6841L9.93206 20.6666L9.91615 20.7364L11.0579 21L11.0738 20.9302C10.9148 20.8813 10.9095 20.8673 10.8759 20.7731L10.8953 20.7678ZM9.63866 20.0749C9.72526 19.9422 9.87903 19.7258 9.9621 19.6088H9.97801C10.0081 19.7834 10.0487 20.026 10.0717 20.1726L9.63866 20.0749Z" fill="#004C97"/>
<path d="M14.8352 19.2371C14.867 19.1446 14.913 19.1288 15.0243 19.0922L15.0066 19.0241L14.4145 19.176L14.4322 19.244L14.5824 19.2196C14.6355 19.2196 14.6461 19.2371 14.6372 19.2947C14.6284 19.3523 14.5701 19.6735 14.517 19.9108C14.3668 19.7712 14.1176 19.5268 14.0292 19.4378C13.9956 19.4046 13.9921 19.3767 14.0292 19.3627L14.1618 19.3069L14.1441 19.2388L13.0394 19.5233L13.0571 19.5914C13.1649 19.5705 13.1932 19.5705 13.2639 19.6228C13.3947 19.7206 13.7323 20.0191 13.902 20.1797C13.929 20.2053 13.948 20.238 13.9568 20.2739L14.0274 20.5672C14.0557 20.6702 14.0434 20.6824 13.8171 20.7417L13.8348 20.8115L14.9766 20.52L14.9554 20.4589C14.7274 20.5113 14.7097 20.5061 14.6779 20.4031L14.5948 20.0889C14.5836 20.0543 14.5836 20.017 14.5948 19.9824C14.6549 19.7572 14.7716 19.3732 14.8228 19.2248" fill="#004C97"/>
<path d="M17.1258 19.2335L16.8659 18.8583L16.9684 18.7884C17.078 18.7134 17.1187 18.7326 17.3007 18.8495L17.3838 18.7902L17.0657 18.3398L16.9826 18.3957C17.0285 18.6209 17.0232 18.6383 16.9119 18.7151L16.8129 18.7832L16.4983 18.3328C16.4647 18.2857 16.4682 18.2717 16.5301 18.2299L16.5937 18.1862C16.7705 18.064 16.8783 18.1339 17.1098 18.263L17.1929 18.2072L16.9402 17.8423L15.7825 18.6226L15.8214 18.6785C15.9468 18.5999 15.9645 18.6069 16.0281 18.6959L16.6326 19.5687C16.6963 19.6595 16.6927 19.6787 16.5725 19.7642L16.6132 19.8235L17.3979 19.2999L17.3591 19.2213C17.2035 19.3208 17.1823 19.3156 17.1311 19.2213" fill="#004C97"/>
<path d="M18.8437 17.2314L18.2976 16.7409C18.2145 16.6659 18.2145 16.6466 18.2976 16.5489L18.2446 16.5018L17.6966 17.0761L17.7497 17.1232C17.8433 17.0307 17.861 17.0324 17.9441 17.1075L18.5627 17.6713C18.7589 17.8458 18.8119 17.9645 18.7182 18.064C18.6246 18.1635 18.5061 18.1234 18.3082 17.9418L17.6966 17.3868C17.6136 17.3117 17.6136 17.2925 17.6966 17.1948L17.6436 17.1476L17.0922 17.7359L17.1452 17.783C17.2389 17.6887 17.2601 17.6905 17.3414 17.7655L17.8964 18.2735C18.1562 18.5144 18.3842 18.5475 18.7801 18.1286C19.176 17.7097 19.1159 17.4863 18.842 17.2262" fill="#004C97"/>
<path d="M20.362 13.2829C20.2661 13.2472 20.1631 13.2336 20.0611 13.2433C19.9591 13.253 19.8606 13.2856 19.7734 13.3388C19.5917 13.4908 19.4723 13.7031 19.4376 13.9358L19.1884 14.8487L19.2573 14.8661C19.3015 14.7265 19.3191 14.7178 19.434 14.7475L20.4733 15.025C20.5811 15.0547 20.59 15.0704 20.5564 15.2118L20.6271 15.2292L20.8392 14.449C20.9117 14.2385 20.93 14.0135 20.8922 13.7944C20.8652 13.6664 20.8004 13.5492 20.7061 13.4576C20.6117 13.3659 20.492 13.304 20.362 13.2795V13.2829ZM20.7614 14.3757C20.7384 14.4612 20.7066 14.4769 20.643 14.4577L19.5295 14.1627C19.4818 14.1487 19.48 14.1225 19.4994 14.0492C19.5595 13.8241 19.7805 13.7612 20.2188 13.8747C20.7738 14.0213 20.8056 14.2325 20.7667 14.3739" fill="#004C97"/>
<path d="M3.38006 10.1026L4.4211 10.3661C4.52892 10.3941 4.53952 10.4098 4.50417 10.5529L4.57487 10.5704L4.80288 9.69761L4.73218 9.68015C4.69153 9.82503 4.67562 9.82852 4.56604 9.80234L3.54266 9.53178C3.43485 9.50385 3.42248 9.49163 3.45606 9.34501L3.3889 9.32581L3.16089 10.1986L3.22982 10.216C3.27047 10.0764 3.28991 10.0677 3.40657 10.0938" fill="#004C97"/>
<path d="M4.85942 7.2626C4.66676 6.96062 4.66677 6.93618 4.76044 6.81225L4.80816 6.75115L5.73432 7.47031C5.82093 7.53839 5.80679 7.57854 5.6972 7.72516L5.75376 7.77055L6.13731 7.28878V7.04091L6.09842 7.01647L5.17227 6.29906L5.21999 6.23796C5.31366 6.11927 5.34017 6.11403 5.67599 6.224L5.7467 6.13672L5.3932 5.86267L4.42462 7.08455L4.77812 7.3586L4.85942 7.2626Z" fill="#004C97"/>
<path d="M11.9487 4.39817L11.7914 4.38246C11.7278 4.38246 11.7154 4.35104 11.7349 4.29169C11.7543 4.23234 11.8038 4.0927 11.8533 3.96876L12.3358 3.98447C12.3676 4.07524 12.4153 4.20965 12.4401 4.30216C12.4648 4.39468 12.4542 4.38944 12.3906 4.39468H12.2598V4.46973L13.345 4.50639V4.43308C13.1913 4.41562 13.186 4.4034 13.14 4.31613C12.9496 3.89309 12.7826 3.46014 12.6398 3.01919L12.1484 3.00348C11.9749 3.43668 11.7791 3.86082 11.5616 4.27423C11.5122 4.35104 11.4927 4.36151 11.3478 4.36675V4.43831L11.9523 4.45926L11.9487 4.39817ZM12.1043 3.35084H12.1184C12.1732 3.5254 12.2545 3.74883 12.2952 3.88498H11.8869C11.9417 3.73835 12.0424 3.49747 12.0972 3.36132" fill="#004C97"/>
<path d="M13.9638 3.30372L14.0469 3.32117L13.7534 4.44879C13.7252 4.55527 13.681 4.55701 13.5042 4.51687L13.4866 4.58669L14.4976 4.84328L14.5152 4.77346C14.3385 4.72459 14.2872 4.6984 14.3261 4.59891L14.6195 3.47129L14.6973 3.49223C14.8458 3.53064 14.8617 3.55333 14.8952 3.90418L15.0048 3.93211L15.1162 3.49922L13.5908 3.10822L13.4795 3.54111L13.5908 3.57078C13.7941 3.27753 13.8188 3.26706 13.9638 3.30372" fill="#004C97"/>
<path d="M15.5863 5.09287L16.0317 4.1206C16.0776 4.0211 16.0935 4.01063 16.2332 4.06823L16.2632 4.00539L15.4201 3.62836L15.3901 3.6912C15.5226 3.75753 15.5297 3.77324 15.482 3.87622L15.0366 4.84151C14.9906 4.941 14.973 4.94799 14.8351 4.89038L14.8051 4.95671L15.6464 5.34248L15.6764 5.27615C15.5421 5.20982 15.5368 5.19411 15.5827 5.10159" fill="#004C97"/>
<path d="M16.12 4.71412C15.8425 5.09814 15.9149 5.51009 16.4629 5.89236C17.0108 6.27463 17.4314 6.21005 17.7001 5.82429C17.9688 5.43852 17.9104 5.02832 17.3466 4.64255C16.7828 4.25679 16.3833 4.32487 16.1094 4.71238L16.12 4.71412ZM16.6626 5.10163C16.9913 4.65128 17.1716 4.62161 17.3007 4.71412C17.5287 4.86947 17.3325 5.17669 17.1433 5.44027C16.857 5.8365 16.6873 5.94822 16.5017 5.82603C16.3162 5.70384 16.3604 5.52231 16.6608 5.10163" fill="#004C97"/>
<path d="M18.6475 7.79848C18.5538 7.79848 18.5361 7.78277 18.4601 7.66058L18.3965 7.69375L18.6775 8.21741L18.7411 8.18425L18.6793 8.04286C18.6545 7.98351 18.6793 7.96082 18.7288 7.95034C18.7783 7.93987 18.9356 7.91194 19.0717 7.89099L19.2997 8.31342C19.236 8.38498 19.1229 8.50019 19.0717 8.55954C19.0204 8.61889 19.001 8.61539 18.9638 8.55954L18.8878 8.45306L18.8242 8.48622L19.3262 9.4358L19.3898 9.40263C19.3297 9.26124 19.3368 9.25077 19.3898 9.17746C19.6674 8.80446 19.9654 8.44667 20.2824 8.1057L20.0544 7.67455C19.5855 7.73976 19.1136 7.78113 18.6404 7.79848H18.6475ZM19.7309 7.79848V7.81245L19.3527 8.23487L19.1636 7.87703C19.3191 7.85259 19.5807 7.81768 19.7274 7.80023" fill="#004C97"/>
<path d="M20.7791 9.28394L20.7101 9.29964C20.7402 9.44452 20.726 9.46023 20.6182 9.48467L19.5701 9.72556C19.4605 9.74999 19.4446 9.74127 19.4075 9.59988L19.3368 9.61559L19.6514 10.9684L20.1286 10.9073L20.1039 10.7973C19.7504 10.7153 19.6797 10.6647 19.6479 10.5093C19.6161 10.354 19.6196 10.3348 19.7274 10.3051L20.7543 10.0799C20.8639 10.0555 20.8851 10.0799 20.9311 10.2335L21 10.2178L20.7791 9.28394Z" fill="#004C97"/>
<path d="M7.97539 18.832L8.2034 18.5301L7.06161 17.7009L7.02096 17.7568C7.13761 17.8476 7.13938 17.8668 7.07398 17.9575L6.43769 18.8093C6.37052 18.8966 6.35462 18.9019 6.23089 18.8093L6.18671 18.8687L7.36208 19.7275L7.59009 19.429L7.51232 19.3732C7.21538 19.4814 7.15882 19.4639 7.00681 19.3505C6.85481 19.237 6.85305 19.2353 6.92728 19.1393L7.20124 18.7692C7.3285 18.8617 7.36385 18.8879 7.31966 19.038L7.39919 19.0974L7.6219 18.8006L7.54236 18.7413C7.42394 18.8128 7.38859 18.7849 7.26133 18.6924L7.56004 18.2927C7.60069 18.2386 7.60952 18.2333 7.66962 18.277L7.74209 18.3293C7.91883 18.4533 7.91884 18.4672 7.88349 18.7797L7.97539 18.832Z" fill="#004C97"/>
<path d="M7.7174 5.78415L7.47526 5.49614L7.39925 5.55898C7.43814 5.86968 7.39926 5.90809 7.25963 6.039C7.12 6.16992 7.11116 6.16119 7.03162 6.06868L6.72054 5.7056C6.84073 5.60436 6.87608 5.57643 7.01218 5.65324L7.08995 5.5904L6.84957 5.30937L6.7718 5.3722C6.81599 5.50312 6.7718 5.5293 6.65692 5.63229L6.33346 5.25351C6.28928 5.20114 6.28751 5.19241 6.33346 5.14528L6.4024 5.08943C6.56501 4.95502 6.57915 4.95502 6.87785 5.05801L6.95562 4.99168L6.71171 4.70715L5.63177 5.6096L5.67773 5.66371C5.79438 5.57294 5.81383 5.57643 5.88453 5.66371L6.52082 6.40731H6.97683L7.7174 5.78415Z" fill="#004C97"/>
<path d="M7.42574 4.47849L7.91709 5.42108C7.96658 5.51883 7.96128 5.53803 7.81811 5.61484L7.85169 5.67768L8.73543 5.22733L8.70009 5.16798C8.55162 5.2378 8.53571 5.23082 8.48622 5.13481L8.27589 4.73159L8.32008 4.7089C8.38724 4.67574 8.54808 4.59195 8.59757 4.66526C8.66231 4.79836 8.7386 4.92568 8.82558 5.04579C8.944 5.14703 9.00233 5.09467 9.25331 4.96724L9.57676 4.80316L9.54317 4.74032C9.41238 4.78396 9.38056 4.77872 9.20558 4.57799C9.08893 4.44707 8.99172 4.32837 8.62585 4.44707V4.43485C8.97935 4.2411 8.97935 4.07003 8.88567 3.91119C8.73897 3.6319 8.48799 3.72442 8.17868 3.88151L7.18005 4.38947L7.21187 4.45056C7.35857 4.38074 7.37801 4.38947 7.42927 4.48722L7.42574 4.47849ZM8.03374 4.04909C8.06793 4.02584 8.10708 4.01068 8.14815 4.00478C8.18923 3.99888 8.23112 4.00239 8.2706 4.01505C8.31008 4.02771 8.34607 4.04917 8.3758 4.07778C8.40553 4.10638 8.4282 4.14136 8.44204 4.18C8.51097 4.31266 8.49682 4.44882 8.25468 4.57275L8.20696 4.59719L7.97542 4.15556C7.94537 4.09622 7.94714 4.07702 8.02491 4.03687" fill="#004C97"/>
<path d="M12.9351 20.6142C12.8909 20.4397 12.8591 20.2948 12.4791 20.2354V20.2215C12.8838 20.211 12.9581 20.0469 12.9581 19.8724C12.9581 19.5564 12.6929 19.5233 12.3448 19.5233H11.2189V19.5931C11.3815 19.5931 11.3956 19.614 11.3956 19.724V20.7835C11.3956 20.8935 11.3797 20.9075 11.2189 20.9127V20.9843H12.2175V20.9127C12.0531 20.9127 12.0407 20.8953 12.0407 20.7835V20.3332H12.0885C12.1645 20.3332 12.3412 20.3332 12.3554 20.4205C12.3519 20.5712 12.362 20.7219 12.3854 20.8708C12.4455 21.0157 12.5162 20.9947 12.8025 20.9947H13.1649V20.9127C13.0305 20.8918 13.0023 20.8743 12.9369 20.6142H12.9351ZM12.0902 20.1639H12.0354V19.6873C12.0354 19.621 12.0461 19.6053 12.1362 19.6053C12.1782 19.5969 12.2217 19.5986 12.263 19.6101C12.3042 19.6216 12.3421 19.6426 12.3736 19.6714C12.405 19.7002 12.429 19.736 12.4437 19.7758C12.4583 19.8156 12.4632 19.8583 12.4579 19.9003C12.4579 20.0522 12.3801 20.1621 12.1044 20.1621" fill="#004C97"/>
<path d="M9.67925 3.49573L9.78353 4.0194C9.82179 4.19701 9.85069 4.37646 9.87013 4.55702C9.87013 4.64255 9.77823 4.67921 9.71636 4.7019L9.65273 4.72285L9.66687 4.79267L10.3527 4.65477L10.3385 4.58495L10.183 4.60066C10.1551 4.60635 10.1261 4.60092 10.1022 4.58555C10.0784 4.57018 10.0617 4.54612 10.0557 4.51862V4.51862C10.0274 4.44705 9.96911 4.16951 9.93023 3.99496L9.85423 3.62665C10.1918 3.94085 10.4569 4.25679 10.8016 4.57099L11.2558 4.48196L11.1056 3.67378C11.0711 3.52554 11.0475 3.37503 11.0349 3.22343C11.0349 3.11521 11.1215 3.10648 11.1816 3.08902L11.2505 3.07157L11.2364 3L10.5506 3.13441L10.5648 3.20248L10.7132 3.18677C10.726 3.18333 10.7393 3.18241 10.7524 3.18406C10.7656 3.1857 10.7782 3.18989 10.7897 3.19637C10.8012 3.20286 10.8113 3.21151 10.8194 3.22184C10.8275 3.23218 10.8335 3.24399 10.8369 3.25659C10.8364 3.25948 10.8364 3.26244 10.8369 3.26532C10.8852 3.41277 10.9236 3.56322 10.9518 3.71567L10.9995 3.94085C10.7327 3.71567 10.4234 3.42591 10.183 3.20947L9.49719 3.34736L9.51134 3.41544C9.65804 3.391 9.67394 3.40497 9.68808 3.51319" fill="#004C97"/>
<path d="M17.3537 6.34623L17.3042 6.30084L17.2494 6.34797L17.29 6.39336H17.4102L17.3537 6.34448" fill="#004C97"/>
<path d="M18.3859 5.71083L17.9882 6.05994C17.8521 6.17864 17.6559 6.34097 17.5746 6.39683H17.8379L18.0836 6.17165L18.3664 5.9168C18.2639 6.36715 18.1172 6.75117 18.0129 7.20152L18.3205 7.55063L18.9444 7.00428C19.0578 6.89851 19.1789 6.80108 19.3067 6.71277C19.4022 6.65866 19.4552 6.72848 19.4994 6.76863L19.5489 6.8175L19.6019 6.77037L19.1459 6.25544L19.0928 6.30257L19.1812 6.41952C19.1998 6.43813 19.2102 6.46321 19.2102 6.48934C19.2102 6.51547 19.1998 6.54055 19.1812 6.55916V6.55916C19.0713 6.67822 18.9532 6.78962 18.8277 6.89256L18.651 7.04966C18.7146 6.70055 18.8101 6.29908 18.879 5.98314L18.4071 5.45947L18.354 5.5066C18.4495 5.62006 18.446 5.63926 18.354 5.71083" fill="#004C97"/>
<path d="M19.2077 15.1769C19.1247 15.1053 19.1742 15.0355 19.2077 14.9814L19.2378 14.9186L19.1759 14.8837L18.8383 15.4876L18.9002 15.5208L18.9833 15.3986C18.9944 15.3749 19.0146 15.3565 19.0394 15.3473C19.0642 15.3382 19.0917 15.339 19.1158 15.3497V15.3497C19.2579 15.4071 19.3961 15.4736 19.5294 15.5487L19.7398 15.6639C19.3863 15.718 18.9709 15.7652 18.6457 15.8088L18.3046 16.4215L18.3664 16.4547C18.4424 16.329 18.4619 16.3237 18.5609 16.3778L19.0169 16.6327C19.1796 16.7161 19.3367 16.81 19.487 16.9137C19.5506 16.9696 19.5241 17.0604 19.4976 17.1215L19.4729 17.1825L19.5365 17.2157L19.8794 16.6065L19.8158 16.5733L19.7274 16.699C19.7142 16.724 19.6916 16.7427 19.6644 16.7512C19.6372 16.7598 19.6078 16.7573 19.5825 16.7444V16.7444C19.4212 16.6713 19.2637 16.5903 19.1105 16.5018L18.7782 16.3272C19.2343 16.2749 19.662 16.2818 20.1215 16.2242L20.3478 15.8158L19.6196 15.4161C19.4812 15.3455 19.3483 15.265 19.2219 15.1752" fill="#004C97"/>
<path d="M6.71527 17.6085C6.80894 17.5526 6.86373 17.6189 6.90792 17.6608L6.96095 17.708L7.01397 17.6608L6.53675 17.1581L6.4855 17.2052L6.5774 17.3222C6.59597 17.3408 6.60637 17.3659 6.60637 17.392C6.60637 17.4181 6.59597 17.4432 6.5774 17.4618C6.47803 17.5774 6.37117 17.6864 6.25749 17.7883L6.08074 17.9471C6.13553 17.598 6.22037 17.1948 6.2787 16.8753L5.79441 16.3639L5.74138 16.411C5.84036 16.521 5.83683 16.5419 5.75553 16.6152L5.37022 16.9644C5.22882 17.0953 5.01672 17.2751 4.95309 17.3135C4.88946 17.3519 4.79932 17.303 4.74983 17.2594L4.68443 17.2192L4.63141 17.2681L5.11393 17.7778L5.16695 17.7289L5.07151 17.6032C5.05144 17.5833 5.04017 17.5563 5.04017 17.5282C5.04017 17.5 5.05144 17.4731 5.07151 17.4531V17.4531C5.11923 17.392 5.31719 17.2 5.46035 17.0691L5.73785 16.8125C5.64594 17.2628 5.50985 17.6521 5.42324 18.1042L5.74138 18.4376L6.3494 17.8773C6.45967 17.7688 6.57782 17.6685 6.70289 17.577" fill="#004C97"/>
<path d="M3.83595 8.78644L4.32201 9.00813C4.49876 9.08667 4.74974 9.20712 4.81514 9.24901C4.88053 9.2909 4.86286 9.39389 4.84518 9.45673L4.82398 9.51957L4.89114 9.54924L5.17924 8.91387L5.11208 8.88419L5.03431 9.0186C5.0227 9.04419 5.00134 9.06422 4.97487 9.07435C4.94839 9.08448 4.91894 9.08389 4.89291 9.07271C4.81691 9.05176 4.56239 8.94703 4.38387 8.87023L4.03038 8.71662C4.48639 8.62411 4.90351 8.59792 5.35952 8.49145L5.54864 8.07251L4.79216 7.72341C4.64818 7.6643 4.50876 7.59488 4.37504 7.51569C4.28666 7.45285 4.32908 7.37604 4.34676 7.32019L4.3715 7.25386L4.30787 7.22418L4.02507 7.85258L4.0887 7.88225L4.16117 7.75308C4.17033 7.72833 4.18906 7.70818 4.21325 7.69705C4.23744 7.68593 4.26512 7.68473 4.2902 7.69373V7.69373C4.4368 7.73921 4.58026 7.79402 4.71969 7.85781L4.97068 7.9608C4.62779 8.04284 4.21243 8.12488 3.89428 8.18598L3.59381 8.85103L3.65744 8.8807C3.72107 8.74979 3.74051 8.7428 3.84479 8.78819" fill="#004C97"/>
<path d="M3.6009 11.7486L3.76174 11.2965L3.8996 11.7486H4.35915L3.98091 12.0331L4.12938 12.4782L3.74937 12.1937L3.33578 12.4887L3.51076 12.0227L3.13959 11.7486H3.6009Z" fill="#004C97"/>
<path d="M20.24 11.7486L20.4026 11.2965L20.5405 11.7486H21L20.62 12.0331L20.7703 12.4782L20.392 12.1937L19.9749 12.4887L20.1499 12.0227L19.7822 11.7486H20.24Z" fill="#004C97"/>
<path d="M17.9493 8.46177V6.45615H16.0581C14.8935 5.63737 13.4994 5.19739 12.0698 5.19739C10.6402 5.19739 9.24614 5.63737 8.08149 6.45615H6.20796V8.43384C5.56319 9.46412 5.20841 10.6456 5.18023 11.8565C5.15204 13.0673 5.45147 14.2637 6.04762 15.3221C6.64377 16.3806 7.51506 17.2628 8.57161 17.8777C9.62815 18.4927 10.8317 18.8182 12.0581 18.8205C13.2845 18.8229 14.4893 18.5021 15.5483 17.8912C16.6073 17.2803 17.482 16.4015 18.0824 15.3454C18.6827 14.2892 18.9869 13.0941 18.9635 11.8831C18.9401 10.6722 18.59 9.48929 17.9493 8.45654V8.46177ZM17.8026 10.9509C17.8798 11.6015 17.7654 12.2603 17.4733 12.8484C17.1811 13.4364 16.7234 13.9288 16.1551 14.2666C15.5869 14.6044 14.932 14.7733 14.2691 14.753C13.6061 14.7327 12.9631 14.5241 12.4171 14.1522C12.35 14.1069 12.2851 14.0586 12.2227 14.0074L12.1343 13.9358C12.5075 13.6118 12.8065 13.2129 13.0113 12.7658C13.216 12.3186 13.322 11.8335 13.322 11.3428C13.322 10.852 13.216 10.3669 13.0113 9.91982C12.8065 9.47269 12.5075 9.07382 12.1343 8.74979L12.175 8.71662L12.2863 8.62935C12.7712 8.26464 13.3453 8.03331 13.9502 7.9589C14.555 7.88449 15.169 7.96966 15.7297 8.20573C16.2904 8.4418 16.7777 8.82035 17.1422 9.30286C17.5066 9.78537 17.7351 10.3546 17.8044 10.9527L17.8026 10.9509ZM13.8682 16.3883C13.843 16.3909 13.8175 16.3909 13.7922 16.3883C13.7622 16.3883 13.7357 16.3988 13.7056 16.4022C13.6756 16.4057 13.642 16.3726 13.6066 16.3813L13.5236 16.4022L13.2956 16.4494C13.1894 16.4618 13.0825 16.4664 12.9756 16.4633C12.9168 16.4667 12.8578 16.4667 12.7989 16.4633C12.7394 16.472 12.6787 16.466 12.6221 16.4459C12.6788 16.4213 12.7381 16.4031 12.7989 16.3918C12.8649 16.3848 12.9305 16.3737 12.9951 16.3586C13.134 16.3209 13.2709 16.276 13.4051 16.2242C13.5365 16.1649 13.674 16.1198 13.8152 16.0898C13.874 16.0853 13.9331 16.0853 13.9919 16.0898H14.2818C14.4265 16.0723 14.568 16.0353 14.7025 15.9798C14.7825 15.9489 14.8663 15.9284 14.9517 15.9187H15.0754C15.0942 15.9173 15.1129 15.9222 15.1284 15.9327C15.1443 15.9327 15.1921 15.9955 15.1726 16.0147C15.1532 16.0339 15.1479 16.0584 15.1178 16.0584H15.0507C15.033 16.0584 15.0029 16.0915 14.9888 16.1038L14.7873 16.2783C14.7006 16.3612 14.6097 16.4399 14.5151 16.514C14.4586 16.5537 14.3995 16.5898 14.3384 16.6222C14.2769 16.6638 14.2118 16.7 14.1439 16.7304C14.0041 16.7769 13.8595 16.8079 13.7127 16.8229C13.5793 16.836 13.4449 16.836 13.3115 16.8229C13.2064 16.806 13.1033 16.7785 13.0039 16.7409C12.8943 16.7095 12.7759 16.6798 12.6805 16.6414C12.585 16.603 12.4701 16.5489 12.3659 16.5105C12.4969 16.5304 12.6292 16.5414 12.7618 16.5436H13.421C13.4907 16.5376 13.5594 16.5242 13.6261 16.5035C13.7728 16.4793 13.914 16.4297 14.0432 16.3569C13.9827 16.3551 13.9225 16.3658 13.8664 16.3883H13.8682ZM12.0689 13.8712C11.4843 14.3783 10.7414 14.6723 9.96392 14.7043C9.18646 14.7362 8.42139 14.5041 7.79613 14.0467C7.17087 13.5893 6.72316 12.9341 6.52758 12.1903C6.33199 11.4465 6.40034 10.659 6.72122 9.95889C7.04211 9.2588 7.59616 8.68841 8.29112 8.34272C8.98607 7.99703 9.77997 7.8969 10.5406 8.05902C11.3012 8.22113 11.9826 8.6357 12.4714 9.23367C12.9601 9.83165 13.2267 10.5769 13.2266 11.3454C13.2266 11.8235 13.1233 12.2961 12.9237 12.7317C12.7241 13.1672 12.4327 13.5557 12.0689 13.8712ZM12.0689 5.38264C13.3667 5.38214 14.6365 5.75584 15.7223 6.45789H8.41024C9.49587 5.75523 10.7656 5.38091 12.0636 5.38089L12.0689 5.38264ZM5.37018 12.0052C5.3672 10.8815 5.65562 9.77583 6.20796 8.79343V12.8832C6.20355 13.34 6.26303 13.7953 6.38471 14.236C6.63971 15.0799 7.11162 15.8443 7.75451 16.4546C8.3424 17.012 9.01291 17.4776 9.74292 17.8353C10.2857 18.1149 10.8516 18.3485 11.4344 18.5335C11.5522 18.5708 11.6748 18.6063 11.802 18.64C10.0714 18.5662 8.43666 17.8349 7.23911 16.5989C6.04156 15.3628 5.37387 13.7177 5.37548 12.007L5.37018 12.0052ZM11.7013 17.069C11.6306 17.0238 11.5703 16.9643 11.5245 16.8945C11.4996 16.8535 11.4686 16.8165 11.4326 16.7845C11.3937 16.7531 11.3531 16.7025 11.3001 16.699C11.247 16.6955 11.1834 16.699 11.1233 16.699C11.1056 16.699 11.0844 16.6623 11.0738 16.6519C11.0553 16.6324 11.0338 16.6159 11.0102 16.603L10.9483 16.5628C10.9165 16.5401 10.9165 16.5244 10.8865 16.5628C10.9366 16.6122 10.9822 16.666 11.0226 16.7234C11.0385 16.7461 11.0226 16.7915 11.0632 16.7915C11.1085 16.7879 11.154 16.7879 11.1993 16.7915C11.3549 16.8142 11.4432 16.9661 11.5033 17.1005C11.5306 17.1725 11.5444 17.2488 11.544 17.3256C11.5463 17.3547 11.5463 17.3839 11.544 17.4129C11.5321 17.4478 11.5173 17.4817 11.4998 17.5142C11.4998 17.5142 11.4768 17.591 11.4662 17.5927L11.3425 17.6259C11.2726 17.6351 11.2014 17.6267 11.1357 17.6014C11.0596 17.578 10.9892 17.5394 10.9289 17.488C10.9077 17.474 10.8511 17.4478 10.8405 17.4251L10.7734 17.2907C10.7614 17.2596 10.7566 17.2262 10.7592 17.193C10.7529 17.1519 10.7529 17.1101 10.7592 17.069C10.7765 16.9841 10.8183 16.9059 10.8794 16.8439C10.9006 16.884 10.9077 16.9259 10.9254 16.9661C10.9284 16.9759 10.9342 16.9846 10.9419 16.9914C10.9497 16.9982 10.9592 17.0028 10.9695 17.0046C10.9797 17.0064 10.9902 17.0054 10.9999 17.0016C11.0096 16.9979 11.018 16.9917 11.0243 16.9835C11.065 16.9451 10.9925 16.9084 10.9713 16.8858C10.9647 16.8788 10.9599 16.8705 10.9571 16.8614C10.9543 16.8523 10.9538 16.8427 10.9554 16.8334C10.9569 16.8221 10.9556 16.8107 10.9516 16.8C10.9476 16.7894 10.941 16.7799 10.9324 16.7723C10.9022 16.7361 10.8691 16.7022 10.8335 16.6711C10.8105 16.6501 10.7504 16.6152 10.7451 16.5855C10.7398 16.5558 10.7274 16.4686 10.685 16.5227C10.6426 16.5768 10.685 16.5943 10.7009 16.6396C10.6231 16.6342 10.5464 16.6184 10.4729 16.5925C10.4057 16.575 10.3403 16.5524 10.2749 16.5314C10.1465 16.4869 10.0208 16.435 9.89846 16.3761C9.76569 16.3243 9.62922 16.2823 9.49017 16.2504C9.46387 16.2458 9.43694 16.2458 9.41063 16.2504C9.37705 16.2504 9.31519 16.2294 9.28515 16.2504C9.25771 16.2679 9.2259 16.2776 9.19324 16.2783C9.15562 16.2763 9.11938 16.2636 9.08895 16.2417C8.98114 16.1596 8.9723 16.0025 8.88746 15.8925C8.80815 15.7771 8.70739 15.6776 8.59053 15.5993C8.54457 15.5749 8.4562 15.5242 8.44029 15.4736C8.42438 15.423 8.41731 15.402 8.46327 15.402C8.48315 15.3991 8.50347 15.402 8.5217 15.4104C8.53993 15.4188 8.55525 15.4323 8.56578 15.4492C8.60643 15.4963 8.69127 15.4719 8.74253 15.5015L8.92988 15.6167C9.05537 15.6936 9.15788 15.7913 9.28338 15.8698C9.39662 15.9464 9.51815 16.0102 9.64571 16.0601C9.76138 16.1359 9.88761 16.1947 10.0204 16.2347C10.0927 16.2429 10.1628 16.2642 10.2272 16.2975C10.2643 16.315 10.2802 16.3185 10.3067 16.2975C10.3317 16.2733 10.3499 16.2433 10.3598 16.2102C10.3677 16.1959 10.3778 16.183 10.3898 16.1718L10.3651 16.1334C10.35 16.1042 10.3415 16.072 10.3403 16.0392C10.3539 16.0053 10.3723 15.9735 10.3951 15.9449C10.4152 15.9164 10.4383 15.89 10.4641 15.8664C10.5037 15.8183 10.5547 15.7805 10.6125 15.7564C10.6781 15.7368 10.7457 15.7245 10.814 15.7197C10.8802 15.704 10.9493 15.704 11.0155 15.7197C11.0467 15.7392 11.0806 15.7539 11.1163 15.7634C11.1474 15.7615 11.1787 15.7615 11.2099 15.7634C11.2322 15.7861 11.2483 15.814 11.2566 15.8446C11.2649 15.8751 11.2653 15.9072 11.2577 15.9379C11.2357 16.0107 11.2023 16.0796 11.1587 16.1422C11.1375 16.1701 11.1286 16.212 11.1021 16.2294C11.0642 16.2557 11.0246 16.2796 10.9837 16.301C10.9084 16.3408 10.8251 16.3635 10.7398 16.3673C10.6982 16.37 10.6565 16.3664 10.6161 16.3569C10.5913 16.3569 10.5171 16.3569 10.5135 16.3254C10.51 16.294 10.5471 16.2539 10.5772 16.2259C10.6072 16.198 10.5613 16.1439 10.5471 16.1195C10.533 16.095 10.5241 16.1352 10.5241 16.1474V16.191L10.4481 16.2661C10.4481 16.2661 10.4252 16.2835 10.4252 16.294V16.3411C10.4074 16.3662 10.3872 16.3896 10.3651 16.411C10.4269 16.4406 10.4906 16.411 10.5577 16.4267C10.586 16.4267 10.6178 16.4564 10.6443 16.4564H10.9006C10.9254 16.4564 10.9554 16.4267 10.9872 16.4232C11.0499 16.4106 11.1098 16.387 11.164 16.3534C11.1956 16.344 11.225 16.3285 11.2506 16.308C11.2753 16.2801 11.3001 16.2556 11.323 16.2294C11.3643 16.1743 11.4111 16.1235 11.4627 16.0776C11.5705 15.992 11.6801 15.903 11.7932 15.8314C11.9168 15.7447 12.0474 15.6682 12.1838 15.6028C12.2482 15.5845 12.3148 15.5752 12.3818 15.5749C12.4581 15.5772 12.5345 15.572 12.6098 15.5591C12.7401 15.5432 12.8719 15.5432 13.0022 15.5591C13.0817 15.5731 13.1683 15.5696 13.2461 15.5906C13.3167 15.6105 13.3901 15.6188 13.4635 15.615H13.6738C13.7445 15.615 13.8134 15.5993 13.8806 15.5941C13.9439 15.59 14.0075 15.5977 14.0679 15.6167C14.1068 15.6307 14.2659 15.6761 14.1846 15.7232C14.1208 15.755 14.0521 15.7762 13.9813 15.7861C13.9182 15.8059 13.8586 15.8354 13.8046 15.8733C13.7483 15.9134 13.6892 15.9496 13.6278 15.9816C13.5607 16.0095 13.497 16.0357 13.4317 16.0584C13.3019 16.108 13.1691 16.1494 13.034 16.1823C12.9633 16.198 12.8996 16.2277 12.8289 16.2451C12.7943 16.2487 12.7593 16.2487 12.7247 16.2451C12.6887 16.2458 12.6534 16.2554 12.6221 16.2731C12.5894 16.2826 12.5555 16.2878 12.5214 16.2888C12.4862 16.2951 12.4514 16.3033 12.4171 16.3132C12.3482 16.3307 12.2757 16.3377 12.205 16.3516C12.0689 16.3743 11.9275 16.3813 11.7914 16.397C11.7231 16.401 11.6547 16.401 11.5864 16.397H11.4945C11.4616 16.4011 11.4284 16.4011 11.3955 16.397C11.3195 16.3813 11.2806 16.4284 11.2188 16.4459C11.1861 16.4565 11.1551 16.4718 11.1269 16.4913C11.095 16.5122 11.1887 16.5436 11.194 16.5454C11.2694 16.557 11.3458 16.5616 11.422 16.5593C11.4494 16.5647 11.4778 16.5597 11.5016 16.5454C11.532 16.5266 11.5666 16.5153 11.6023 16.5122C11.7349 16.4956 11.8691 16.4956 12.0018 16.5122C12.0796 16.5123 12.1567 16.5259 12.2298 16.5524L12.4313 16.6274C12.5567 16.6728 12.6752 16.7269 12.8007 16.7758C12.8696 16.8024 12.9413 16.8212 13.0145 16.8316C13.0711 16.8316 13.1241 16.877 13.1789 16.891C13.3115 16.9315 13.4486 16.9555 13.5872 16.9626H13.7357C13.7851 16.9626 13.8311 16.9311 13.8841 16.9399C13.9229 16.9444 13.962 16.9444 14.0008 16.9399C14.0309 16.9497 14.0599 16.9625 14.0874 16.9783C14.1439 17.001 14.1669 16.994 14.1545 17.0603C14.1283 17.0727 14.1003 17.0809 14.0715 17.0847C14.0345 17.0807 13.9971 17.0807 13.9601 17.0847C13.865 17.1146 13.7723 17.1514 13.6826 17.1947C13.6174 17.2311 13.5494 17.2626 13.4794 17.289L13.2337 17.3605C13.1021 17.4047 12.9644 17.4289 12.8254 17.4321C12.6701 17.4409 12.5147 17.4171 12.3694 17.3623L12.1714 17.268C12.0157 17.2006 11.8635 17.1254 11.7154 17.0429L11.7013 17.069ZM12.2368 18.6138C12.4896 18.5615 12.7423 18.4969 12.988 18.4218C13.6169 18.2334 14.225 17.9831 14.8032 17.6747C15.428 17.3611 15.9879 16.9348 16.454 16.418C17.0302 15.7669 17.5446 15.0652 17.7584 14.2221C17.9003 13.7807 17.9602 13.3177 17.9352 12.8553V8.83357C18.4865 9.82976 18.7692 10.9492 18.7561 12.0844C18.743 13.2196 18.4346 14.3324 17.8604 15.3159C17.2862 16.2994 16.4656 17.1206 15.4774 17.7006C14.4892 18.2806 13.3666 18.5999 12.2174 18.6278" fill="#004C97"/>
<path d="M12.6363 17.2122C12.706 17.2233 12.7762 17.2309 12.8466 17.2349C12.9365 17.2529 13.029 17.2529 13.1188 17.2349C13.1889 17.2157 13.2604 17.2023 13.3327 17.1948V17.1633C13.2639 17.1573 13.1947 17.1573 13.1259 17.1633C13.0358 17.1565 12.9465 17.1419 12.859 17.1197C12.7706 17.104 12.6823 17.0673 12.5815 17.0446C12.4142 16.9955 12.2506 16.9348 12.0919 16.8631C11.9588 16.8136 11.8169 16.791 11.6748 16.7968C11.6854 16.8404 11.8339 16.8561 11.871 16.8649C11.9295 16.8855 11.9853 16.913 12.0371 16.9469C12.1587 17.0171 12.2837 17.0812 12.4118 17.1389C12.4788 17.1758 12.55 17.2045 12.6239 17.2244" fill="#004C97"/>
<path d="M9.00592 15.7809C8.96906 15.7408 8.92613 15.7067 8.87866 15.6796C8.85569 15.7128 8.95113 15.7704 8.97411 15.7896C8.99709 15.8088 9.10667 15.9223 9.08546 15.9764C9.07132 15.9519 9.04834 15.9467 9.04481 15.9764C9.04649 15.9997 9.05186 16.0227 9.06072 16.0444C9.06858 16.0708 9.07986 16.096 9.0943 16.1195C9.10046 16.1266 9.10856 16.1319 9.11765 16.1346C9.12674 16.1373 9.13643 16.1374 9.14556 16.1348C9.15469 16.1322 9.16288 16.1271 9.16914 16.1201C9.17541 16.113 9.1795 16.1043 9.18091 16.0951C9.18633 16.0263 9.16896 15.9577 9.13142 15.8996C9.09392 15.8553 9.05252 15.8144 9.00769 15.7774" fill="#004C97"/>
<path d="M11.491 16.2783C11.6235 16.2382 11.7508 16.1963 11.8834 16.1596C12.0159 16.123 12.1538 16.1038 12.2881 16.0776C12.4276 16.0462 12.5695 16.0257 12.7123 16.0165C12.7835 16.0119 12.8543 16.0031 12.9244 15.9903C12.9831 15.9749 13.0391 15.9507 13.0906 15.9188C13.1627 15.8864 13.2397 15.8658 13.3186 15.8577C13.3813 15.8597 13.4442 15.855 13.5059 15.8437C13.5059 15.8437 13.5501 15.8297 13.5466 15.821C13.543 15.8123 13.5466 15.7966 13.5165 15.7966H13.4052C13.3415 15.8015 13.2783 15.8108 13.216 15.8245C13.0693 15.842 12.9262 15.8245 12.7795 15.8489C12.6503 15.8633 12.5221 15.886 12.3959 15.917C12.2333 15.9535 12.0732 16.0007 11.9169 16.0584C11.7614 16.1247 11.6094 16.1963 11.4609 16.2661C11.4609 16.2836 11.4839 16.2818 11.4981 16.2661" fill="#004C97"/>
<path d="M8.19811 9.00818C8.22943 8.96921 8.27293 8.94159 8.32183 8.92963C8.3395 8.92963 8.36778 8.9401 8.36071 8.9593C8.35364 8.9785 8.3289 8.99596 8.32183 9.01865C8.30906 9.0716 8.28562 9.12147 8.2529 9.16527C8.22992 9.1932 8.2635 9.19495 8.21932 9.21066C8.19634 9.21722 8.17478 9.22786 8.15568 9.24208C8.13854 9.25541 8.11741 9.26278 8.09559 9.26302C8.07084 9.26302 8.04964 9.23335 8.02666 9.23335C8.00368 9.23335 7.97363 9.23335 7.97363 9.21939C7.9816 9.19451 7.997 9.17261 8.01782 9.15655C8.0408 9.1356 8.10443 9.15655 8.15038 9.1356C8.19634 9.11465 8.1875 9.04483 8.19634 9.00643" fill="#004C97"/>
<path d="M7.91887 9.22284C7.93654 9.22284 7.95599 9.23331 7.92947 9.24553C7.90296 9.25775 7.89589 9.24553 7.91887 9.22284Z" fill="#004C97"/>
<path d="M12.0955 8.91217C12.043 8.87037 11.9875 8.83244 11.9293 8.79871C11.8692 8.76206 11.8303 8.7062 11.772 8.66605C11.7457 8.64576 11.7214 8.62295 11.6995 8.59798C11.6783 8.57703 11.643 8.57005 11.62 8.55259C11.5716 8.50654 11.5098 8.47663 11.4433 8.46706C11.4138 8.46508 11.3843 8.46508 11.3549 8.46706C11.3368 8.46475 11.3184 8.46636 11.301 8.47179C11.2836 8.47722 11.2676 8.48632 11.2541 8.49848H11.2082C11.1976 8.49848 11.1923 8.53514 11.1905 8.54212C11.1821 8.57409 11.169 8.60468 11.1516 8.63289C11.134 8.65558 11.1145 8.68525 11.0827 8.68525C11.0445 8.68173 11.006 8.68173 10.9678 8.68525L10.8635 8.69573C10.8335 8.69573 10.8087 8.72016 10.7805 8.7254C10.7443 8.73566 10.7067 8.74037 10.6691 8.73936C10.6323 8.73224 10.5951 8.72758 10.5578 8.7254C10.51 8.7254 10.503 8.7254 10.4711 8.75333C10.4487 8.7801 10.4225 8.8036 10.3934 8.82315C10.3306 8.86311 10.2643 8.89757 10.1954 8.92614C10.1599 8.93606 10.1264 8.95201 10.0964 8.97327C10.0505 9.00992 10.0964 9.00992 10.0964 9.05182C10.0646 9.05182 10.0505 9.03087 10.0293 9.00818C10.0081 8.98549 10.0063 8.94708 9.99569 8.94883C9.98304 8.94907 9.97067 8.95258 9.95982 8.95901C9.94897 8.96545 9.94 8.97457 9.93383 8.98549C9.91262 9.02389 9.90909 9.01516 9.8649 9.00643C9.80619 8.99958 9.74687 8.99958 9.68816 9.00643C9.65634 9.00643 9.58034 8.9785 9.5609 9.00643C9.54145 9.03436 9.51671 9.02738 9.4849 9.03087C9.45308 9.03436 9.4849 8.96454 9.4849 8.94883C9.45982 8.92546 9.43943 8.89763 9.4248 8.86679C9.4126 8.83687 9.39074 8.81176 9.36262 8.79535C9.3345 8.77894 9.30169 8.77215 9.26926 8.77602C9.25513 8.77813 9.2407 8.7772 9.22697 8.77328C9.21325 8.76936 9.20054 8.76256 9.18972 8.75333C9.16144 8.73064 9.11196 8.72889 9.09605 8.75333C9.07598 8.77661 9.05133 8.79562 9.02358 8.80919C9.00944 8.80919 9.00237 8.83013 8.99 8.83711C8.97763 8.8441 8.95642 8.83711 8.94051 8.83711C8.9246 8.83711 8.89456 8.87552 8.86451 8.87552C8.82577 8.87688 8.78728 8.88214 8.74962 8.89123C8.72027 8.89475 8.6906 8.89475 8.66125 8.89123C8.62413 8.89123 8.60646 8.92265 8.58348 8.95057C8.57392 8.96117 8.56677 8.97366 8.5625 8.98721C8.55824 9.00075 8.55695 9.01505 8.55873 9.02912C8.55873 9.06578 8.60646 9.06054 8.63474 9.06229C8.66302 9.06404 8.66478 9.06229 8.66478 9.07276V9.11815C8.66478 9.15131 8.62767 9.16528 8.62767 9.1967C8.62767 9.22812 8.7779 9.21939 8.80442 9.1967C8.83093 9.174 8.80442 9.16702 8.82209 9.15655C8.83253 9.14422 8.84589 9.13463 8.86098 9.12862C8.89279 9.11291 8.89809 9.06927 8.91753 9.04309C8.96004 8.99425 9.01407 8.95648 9.07484 8.93312C9.09605 8.93312 9.15791 8.93312 9.15791 8.94708C9.15857 8.96432 9.15468 8.98142 9.14662 8.99672C9.13857 9.01202 9.12662 9.02499 9.11196 9.03436C9.08898 9.03436 9.04126 9.0204 9.02005 9.03436C8.99884 9.04833 8.96702 9.03436 8.94758 9.08324C8.92814 9.13211 8.92637 9.10767 8.94758 9.12687C8.96879 9.14608 8.96525 9.16004 8.96172 9.16004C8.99453 9.16487 9.02789 9.16487 9.0607 9.16004C9.09281 9.14682 9.12679 9.13857 9.16144 9.1356C9.2021 9.1356 9.23038 9.1356 9.19857 9.17924C9.16675 9.22288 9.07307 9.20019 9.02182 9.21764C8.98678 9.23093 8.95072 9.24143 8.914 9.24906C8.88183 9.2453 8.84934 9.25271 8.82209 9.27001C8.79561 9.29142 8.77024 9.31414 8.74609 9.33808C8.72311 9.36078 8.66832 9.32063 8.65241 9.31016C8.58171 9.27175 8.65241 9.17924 8.60822 9.1356C8.56404 9.09196 8.53753 9.1356 8.51632 9.1356C8.48362 9.13056 8.45014 9.13607 8.42087 9.15131C8.3666 9.19057 8.30713 9.22228 8.24412 9.24557C8.2136 9.25513 8.18403 9.2674 8.15575 9.28223C8.12238 9.28751 8.08837 9.28751 8.05501 9.28223H7.97547C7.94719 9.28223 7.92951 9.30667 7.90477 9.3503C7.88925 9.37503 7.87086 9.39787 7.84998 9.41838C7.8217 9.44631 7.81286 9.47773 7.78635 9.50391C7.75983 9.53009 7.73156 9.47075 7.71742 9.46376C7.70328 9.45678 7.64495 9.47947 7.62374 9.46376C7.60253 9.44805 7.57602 9.42536 7.54597 9.46376C7.51814 9.48389 7.49817 9.51286 7.48941 9.5458C7.48574 9.57306 7.47187 9.59797 7.45053 9.61563C7.42755 9.63832 7.38867 9.65926 7.40281 9.69068C7.41972 9.72104 7.4271 9.75567 7.42401 9.79018C7.42401 9.83382 7.48588 9.8216 7.51239 9.8216C7.55982 9.82473 7.60703 9.83056 7.65378 9.83906C7.70858 9.83906 7.69974 9.82509 7.72978 9.78669C7.75983 9.74829 7.75806 9.76574 7.76337 9.75352C7.76867 9.74131 7.75277 9.72559 7.77751 9.72385C7.80972 9.72044 7.84229 9.72402 7.87296 9.73432C7.88534 9.74375 7.89991 9.74996 7.91534 9.7524C7.93078 9.75484 7.94659 9.75343 7.96133 9.74829C7.97578 9.7408 7.99185 9.73688 8.00816 9.73688C8.02448 9.73688 8.04056 9.7408 8.05501 9.74829C8.07975 9.77273 8.09389 9.8024 8.11686 9.82684C8.13984 9.85127 8.11686 9.89666 8.11686 9.9211C8.11186 9.93642 8.11186 9.9529 8.11686 9.96823C8.12528 9.97506 8.13214 9.98357 8.13701 9.99319C8.14189 10.0028 8.14465 10.0133 8.14514 10.0241C8.14514 10.0607 8.14514 10.0677 8.11156 10.0904C8.07798 10.1131 8.11156 10.1306 8.11156 10.1393C8.15535 10.1375 8.19665 10.1187 8.22645 10.0869L8.24059 10.1341C8.29715 10.0782 8.29361 10.0363 8.29361 9.9595C8.29361 9.93506 8.25296 9.9211 8.25296 9.88793V9.84255C8.25296 9.81287 8.25296 9.80938 8.27594 9.80938C8.35371 9.80938 8.34487 9.90888 8.34487 9.96299C8.34726 10.0214 8.34371 10.0799 8.33427 10.1375C8.37315 10.1375 8.46506 10.1375 8.47743 10.0852C8.4898 10.0328 8.46683 10.0328 8.46683 10.0136C8.46683 9.99441 8.50571 10.0031 8.52339 10.0031C8.51044 10.0347 8.50442 10.0686 8.50571 10.1026C8.50571 10.1166 8.48804 10.1166 8.4898 10.1323C8.48697 10.1496 8.48697 10.1673 8.4898 10.1847C8.50571 10.2056 8.55697 10.2074 8.57641 10.2248C8.58324 10.2299 8.58874 10.2365 8.59243 10.2441C8.59612 10.2517 8.5979 10.26 8.59762 10.2685C8.59762 10.2964 8.61353 10.2685 8.63474 10.2824C8.65595 10.2964 8.6913 10.3313 8.68423 10.3488C8.67716 10.3662 8.65595 10.4151 8.62944 10.4238C8.59806 10.4245 8.56684 10.4192 8.53752 10.4081C8.50099 10.4004 8.46661 10.3849 8.43678 10.3627C8.41524 10.3388 8.38786 10.3208 8.35724 10.3104C8.32804 10.305 8.29807 10.305 8.26887 10.3104H8.17696C8.16634 10.2784 8.14953 10.2487 8.12747 10.2231C8.09035 10.1864 7.98607 10.1986 7.98607 10.1236V10.0782H8.01435C8.02878 10.1075 8.04657 10.135 8.06737 10.1602C8.09742 10.1393 8.08858 10.1114 8.06737 10.0817C8.06008 10.07 8.05046 10.0599 8.03909 10.052C8.01612 10.0311 8.02495 10.038 7.99491 10.038C7.96486 10.038 7.99491 10.0538 7.96486 10.038C7.95264 10.0305 7.94378 10.0186 7.94012 10.0049C7.94012 9.98219 7.94012 9.98219 7.91007 9.97521C7.88002 9.96823 7.88533 9.94728 7.86588 9.94204C7.83835 9.93793 7.81035 9.93793 7.78281 9.94204H7.65025C7.62279 9.94707 7.59464 9.94707 7.56718 9.94204L7.4576 9.88793C7.4576 9.88793 7.40457 9.84953 7.40104 9.85477L7.34448 9.89317L7.11647 10.0538C7.00494 10.1152 6.90212 10.1909 6.8107 10.2789L6.63395 10.4867C6.61082 10.5377 6.59935 10.5931 6.60037 10.649L6.56325 10.8742C6.55522 10.9079 6.54519 10.9411 6.5332 10.9737C6.537 10.9995 6.54413 11.0247 6.55441 11.0487C6.5742 11.1197 6.5978 11.1896 6.62511 11.2582L6.67814 11.3734C6.68487 11.4045 6.68487 11.4366 6.67814 11.4676C6.67814 11.5113 6.67814 11.513 6.71172 11.5444C6.7453 11.5759 6.75767 11.5671 6.8054 11.5444C6.85312 11.5218 6.85488 11.527 6.892 11.5619C6.92912 11.5968 6.94149 11.5846 6.98391 11.5863C7.02633 11.5881 7.16066 11.5863 7.18717 11.5863C7.20729 11.6112 7.23044 11.6335 7.2561 11.6527C7.28085 11.6666 7.34271 11.6858 7.35862 11.712C7.37453 11.7382 7.35862 11.7976 7.35862 11.822C7.3565 11.8502 7.36199 11.8785 7.37453 11.904C7.40634 11.9739 7.43639 12.0437 7.4629 12.1152C7.48941 12.1868 7.53537 12.2252 7.53537 12.2898V12.405C7.52754 12.441 7.51444 12.4757 7.49648 12.508C7.49492 12.5191 7.49569 12.5304 7.49873 12.5412C7.50177 12.552 7.50702 12.5621 7.51416 12.5708L7.58662 12.6965C7.61112 12.7439 7.63238 12.7929 7.65025 12.8431C7.71035 12.9828 7.76691 13.1242 7.827 13.2603L7.92598 13.4541C7.94494 13.4739 7.97088 13.4858 7.99845 13.4872C8.02672 13.4872 8.05323 13.4436 8.07798 13.4331L8.28831 13.3301C8.35017 13.3005 8.34487 13.2132 8.36078 13.1556C8.37668 13.098 8.37669 13.1189 8.4085 13.1067C8.4214 13.1036 8.43355 13.0981 8.44427 13.0904C8.45499 13.0826 8.46405 13.0729 8.47095 13.0617C8.47784 13.0505 8.48244 13.0381 8.48446 13.0252C8.48648 13.0122 8.48589 12.999 8.48273 12.9863V12.9706C8.48273 12.9548 8.46152 12.9409 8.45445 12.9269C8.45056 12.898 8.45056 12.8686 8.45445 12.8396C8.45445 12.7698 8.49157 12.7576 8.53399 12.714C8.5565 12.6942 8.57351 12.669 8.5834 12.6409C8.5933 12.6128 8.59577 12.5827 8.59055 12.5534V12.2915C8.59055 12.2619 8.4898 12.1694 8.51985 12.1379L8.65065 12.0088C8.76138 11.9032 8.86639 11.7919 8.96526 11.6754C9.0038 11.6233 9.03089 11.5638 9.04479 11.5008C9.04933 11.4677 9.06013 11.4357 9.07661 11.4066C9.07661 11.3926 9.14024 11.3297 9.10842 11.321C9.06784 11.316 9.02664 11.3193 8.9874 11.3307C8.94817 11.3421 8.91175 11.3614 8.88042 11.3874C8.84588 11.3905 8.81106 11.3869 8.7779 11.3769C8.70897 11.3455 8.71428 11.2634 8.67362 11.2163C8.63297 11.1692 8.62943 11.1482 8.60469 11.1377C8.59743 11.1347 8.58961 11.1331 8.58171 11.1331C8.57381 11.1331 8.56599 11.1347 8.55873 11.1377C8.55873 11.1377 8.55873 11.0836 8.55873 11.0749C8.54563 11.0107 8.52548 10.948 8.49864 10.8881C8.48916 10.8564 8.47356 10.8267 8.45269 10.8008C8.44394 10.77 8.44394 10.7374 8.45269 10.7066V10.6141C8.45269 10.5914 8.50218 10.5477 8.52162 10.5669C8.54571 10.6274 8.56405 10.6899 8.57641 10.7537C8.59361 10.8227 8.61728 10.8899 8.64711 10.9545C8.66478 10.9876 8.6913 10.9981 8.72311 11.0173C8.75493 11.0365 8.74432 11.0697 8.74785 11.0958C8.75569 11.1454 8.76691 11.1944 8.78144 11.2425C8.79558 11.2861 8.82562 11.2826 8.86451 11.2948C8.90339 11.3071 8.93698 11.2774 8.96349 11.2704L9.06247 11.239C9.12429 11.2098 9.18343 11.1753 9.23921 11.136C9.26802 11.1201 9.29999 11.1106 9.33289 11.1081C9.35587 11.1081 9.38592 11.0487 9.39652 11.0313C9.40713 11.0138 9.44071 10.9911 9.44954 10.9649C9.45838 10.9387 9.51141 10.8742 9.48843 10.8742H9.44247C9.43853 10.849 9.42751 10.8254 9.41066 10.8061C9.38238 10.7782 9.29577 10.7851 9.25512 10.7851C9.21447 10.7851 9.20563 10.7851 9.17735 10.745C9.15902 10.7151 9.14364 10.6835 9.1314 10.6507C9.12261 10.6316 9.11895 10.6106 9.1208 10.5896C9.13398 10.5904 9.14674 10.5946 9.15787 10.6016C9.16901 10.6086 9.17814 10.6183 9.18442 10.6298C9.19249 10.6582 9.19606 10.6876 9.19503 10.7171H9.28164C9.29678 10.7154 9.31209 10.7179 9.32584 10.7244C9.33959 10.7309 9.35122 10.741 9.3594 10.7537C9.39122 10.7904 9.40536 10.8026 9.42303 10.8061L9.53085 10.8218C9.58466 10.8127 9.63965 10.8127 9.69346 10.8218C9.70921 10.8213 9.72487 10.8244 9.73926 10.8307C9.75365 10.8371 9.76639 10.8465 9.77653 10.8585C9.79635 10.8818 9.81299 10.9076 9.82602 10.9353C9.85076 10.9789 9.849 10.9824 9.89849 10.9876C9.94797 10.9929 9.9303 10.9876 9.9356 11.0278C9.93588 11.0937 9.94908 11.1589 9.97449 11.2198C10.0091 11.2769 10.0475 11.3317 10.0894 11.3839C10.121 11.4342 10.1559 11.4826 10.1937 11.5287C10.2342 11.487 10.2607 11.434 10.2697 11.3769C10.2701 11.3653 10.2731 11.3539 10.2786 11.3436C10.2842 11.3333 10.292 11.3244 10.3015 11.3175C10.3244 11.2948 10.3227 11.2739 10.3227 11.2425C10.3204 11.2131 10.3256 11.1835 10.338 11.1567C10.3504 11.1298 10.3694 11.1065 10.3934 11.0889C10.434 11.0505 10.4818 11.0208 10.5206 10.9806C10.5385 10.9598 10.5611 10.9435 10.5866 10.9329C10.6121 10.9222 10.6398 10.9177 10.6673 10.9195C10.6992 10.9195 10.7221 10.9195 10.7363 10.9527C10.7504 10.9859 10.7363 11.0086 10.7504 11.0313C10.7646 11.054 10.7645 11.0592 10.7734 11.0627C10.7865 11.066 10.799 11.0713 10.8105 11.0784C10.8246 11.0941 10.8282 11.1395 10.8405 11.1604C10.8741 11.2303 10.913 11.239 10.9607 11.1744C10.9691 11.2294 10.987 11.2826 11.0138 11.3315C11.0393 11.3868 11.056 11.4457 11.0633 11.506C11.0787 11.5671 11.1025 11.6258 11.134 11.6806C11.1658 11.7295 11.1976 11.7976 11.2594 11.8133C11.2877 11.8133 11.3072 11.8133 11.293 11.7801C11.2789 11.7469 11.2718 11.7661 11.2701 11.7557V11.6998C11.2623 11.6414 11.2405 11.5858 11.2064 11.5375C11.1844 11.5149 11.1587 11.496 11.1304 11.4816C11.1117 11.4629 11.1004 11.4381 11.0986 11.4118C11.0907 11.3856 11.0908 11.3577 11.099 11.3316C11.1072 11.3055 11.123 11.2824 11.1446 11.2652C11.1852 11.3053 11.2435 11.3996 11.3019 11.41C11.3602 11.4205 11.3567 11.3716 11.3814 11.3472C11.4061 11.3228 11.4097 11.3472 11.4185 11.3297C11.4372 11.3176 11.4504 11.2988 11.4556 11.2774C11.467 11.1996 11.4514 11.1202 11.4114 11.0522C11.3972 11.0125 11.3912 10.9703 11.3938 10.9283C11.3938 10.9056 11.4503 10.8619 11.4698 10.8462C11.4857 10.8637 11.5069 10.8742 11.4874 10.8916C11.4801 10.8991 11.476 10.9091 11.476 10.9195C11.476 10.93 11.4801 10.94 11.4874 10.9475V10.9475C11.5016 10.9649 11.5352 10.937 11.544 10.9248C11.5528 10.9126 11.544 10.8724 11.544 10.8585C11.5444 10.8368 11.5524 10.816 11.5666 10.7994C11.5807 10.7829 11.6002 10.7717 11.6218 10.7677C11.6554 10.7677 11.6978 10.6979 11.7225 10.6734C11.7441 10.6391 11.7574 10.6002 11.7614 10.56C11.7682 10.5096 11.7682 10.4585 11.7614 10.4081C11.7558 10.3122 11.7207 10.2202 11.6607 10.1445C11.6766 10.1288 11.7084 10.1009 11.6854 10.0764C11.6624 10.052 11.6306 10.0904 11.6094 10.1096C11.5882 10.1288 11.5688 10.0415 11.5882 10.0276L11.6288 9.9979C11.6518 9.97521 11.6501 9.98044 11.673 9.9979C11.696 10.0154 11.7137 10.0415 11.7367 10.059C11.7596 10.0764 11.7579 10.1201 11.7667 10.1567C11.7756 10.1934 11.7826 10.1812 11.795 10.1934C11.8074 10.2056 11.8127 10.1934 11.825 10.1794C11.8374 10.1655 11.8781 10.1393 11.8781 10.1131V10.0188C11.8623 10.007 11.8493 9.99206 11.8398 9.97491C11.8304 9.95776 11.8247 9.93882 11.8233 9.91935C11.8173 9.88917 11.8177 9.85812 11.8244 9.8281C11.8311 9.79808 11.844 9.76973 11.8622 9.7448C11.8957 9.71163 11.8993 9.71338 11.8763 9.66799C11.8763 9.66799 11.8516 9.65054 11.8551 9.64006C11.8644 9.62426 11.8682 9.60583 11.8657 9.5877C11.8657 9.51962 11.9046 9.47249 11.8798 9.40267C11.8585 9.33874 11.8249 9.27948 11.7809 9.22812L11.7048 9.16004C11.6836 9.14258 11.6377 9.11989 11.6271 9.0972C11.6165 9.07451 11.6271 9.06578 11.6271 9.05182C11.6271 9.03785 11.6023 9.02738 11.5935 9.01865C11.5847 9.00992 11.5334 9.04134 11.5104 9.04134C11.4874 9.04134 11.5104 8.95407 11.5104 8.94708C11.5152 8.93275 11.5235 8.91981 11.5346 8.90945C11.5457 8.89909 11.5593 8.89162 11.5741 8.88774C11.5914 8.89071 11.6091 8.8894 11.6258 8.88391C11.6424 8.87843 11.6575 8.86895 11.6695 8.85632C11.6995 8.8249 11.6907 8.8022 11.7155 8.77777C11.7468 8.81519 11.7735 8.85621 11.795 8.89995L11.818 8.94534H11.848C11.848 8.94534 11.8728 8.9785 11.9169 8.9785C11.9611 8.9785 12.0124 9.02389 12.0636 9.02389C12.1149 9.02389 12.1184 9.03436 12.1184 8.99247C12.1154 8.96631 12.105 8.94153 12.0884 8.9209L12.0955 8.91217ZM8.838 9.3503C8.86628 9.3503 8.85921 9.36776 8.838 9.37823C8.81679 9.38871 8.80795 9.35729 8.838 9.3503ZM8.99354 10.1183C8.96172 10.162 8.86628 10.0799 8.81679 10.0887C8.7673 10.0974 8.74609 10.0887 8.7567 10.052C8.7673 10.0154 8.7779 9.98219 8.79734 9.96997C8.81679 9.95775 8.85744 9.93157 8.87511 9.94553C8.88186 9.9493 8.88761 9.95459 8.8919 9.96095C8.8962 9.96732 8.89893 9.97459 8.89986 9.98219C8.89986 9.99965 8.91753 9.99266 8.93698 9.99266C8.9514 9.99105 8.96591 9.99481 8.97768 10.0032C8.98945 10.0116 8.99762 10.024 9.0006 10.038C9.01474 10.0834 9.01651 10.0834 9.0006 10.1149L8.99354 10.1183ZM9.34173 10.0904C9.33033 10.1012 9.32228 10.115 9.31852 10.1301C9.31476 10.1453 9.31545 10.1612 9.32052 10.1759C9.32857 10.1901 9.3328 10.206 9.3328 10.2222C9.3328 10.2384 9.32857 10.2543 9.32052 10.2685C9.30638 10.2912 9.30461 10.3505 9.25866 10.34C9.2127 10.3296 9.20563 10.3575 9.18796 10.3173C9.17028 10.2772 9.18796 10.2737 9.218 10.2737C9.24805 10.2737 9.23568 10.2213 9.23391 10.1951C9.22905 10.1651 9.22905 10.1344 9.23391 10.1044C9.23391 10.066 9.25512 10.0572 9.29047 10.045C9.32582 10.0328 9.37354 10.045 9.3541 10.0887" fill="#004C97"/>
<path d="M8.00547 8.97151C8.01961 8.97151 8.03552 8.95056 8.04435 8.9558L8.09207 8.96976C8.12566 8.96976 8.13626 8.98722 8.13979 9.02213C8.14333 9.05704 8.1398 9.071 8.12566 9.08497C8.10106 9.09827 8.07401 9.10658 8.04612 9.1094C8.01802 9.10814 7.98992 9.11168 7.96305 9.11988C7.93123 9.13733 7.91709 9.14781 7.89588 9.10591C7.87467 9.06402 7.91709 9.05704 7.94361 9.03435C7.96353 9.01362 7.98184 8.99145 7.9984 8.96802" fill="#004C97"/>
<path d="M8.91752 12.4399C8.91752 12.3962 8.91752 12.391 8.96525 12.3788C9.01297 12.3666 9.01827 12.4154 9.02711 12.4329C9.05206 12.4968 9.05818 12.5664 9.04478 12.6336C9.04478 12.6615 9.0112 12.693 8.99529 12.7157C8.97953 12.7384 8.96815 12.7639 8.96171 12.7907C8.94929 12.8224 8.94329 12.8562 8.94404 12.8902C8.94404 12.9129 8.97585 12.9583 8.96171 12.9723C8.94757 12.9862 8.91399 13.0281 8.89808 13.0176C8.87065 12.9954 8.84467 12.9715 8.82031 12.9461C8.78143 12.9059 8.79733 12.8204 8.79733 12.7715C8.80325 12.7386 8.80325 12.7049 8.79733 12.672C8.78777 12.6443 8.78777 12.6142 8.79733 12.5865C8.79841 12.5708 8.80312 12.5556 8.81108 12.5419C8.81905 12.5283 8.83006 12.5167 8.84329 12.5079C8.86803 12.494 8.88394 12.4608 8.91576 12.4451" fill="#004C97"/>
<path d="M10.2343 11.5165C10.2536 11.4905 10.2743 11.4654 10.2962 11.4415C10.305 11.4745 10.3098 11.5085 10.3103 11.5427C10.3103 11.5724 10.2891 11.63 10.2502 11.6125C10.2113 11.5951 10.229 11.5375 10.2325 11.5148" fill="#004C97"/>
<path d="M10.8194 11.6265C10.8767 11.6193 10.9349 11.6303 10.9855 11.6579C11.0311 11.6921 11.0726 11.7314 11.1092 11.7749C11.1463 11.815 11.1923 11.8464 11.2276 11.8883C11.263 11.9302 11.2276 12.0053 11.217 12.0402C11.2064 12.0751 11.1304 11.9581 11.1234 11.9424C11.0951 11.8901 11.0509 11.8552 11.0244 11.801C11.0029 11.7538 10.9636 11.7169 10.9148 11.6981C10.8896 11.7014 10.864 11.7014 10.8388 11.6981C10.8211 11.6981 10.7981 11.6457 10.8176 11.6317" fill="#004C97"/>
<path d="M11.2789 11.9564C11.2938 11.9894 11.3067 12.0232 11.3177 12.0577C11.3177 12.0821 11.4008 12.0873 11.422 12.0891C11.4432 12.0908 11.4945 12.0891 11.5139 12.117C11.5334 12.1449 11.5139 12.1991 11.4857 12.1851C11.4574 12.1711 11.445 12.1449 11.4026 12.1449C11.3675 12.1445 11.3331 12.1362 11.3018 12.1205C11.27 12.1065 11.2294 12.0926 11.2612 12.0542C11.293 12.0158 11.247 11.9843 11.2753 11.9564" fill="#004C97"/>
<path d="M11.5723 12.1868C11.5855 12.1846 11.599 12.185 11.612 12.188C11.6251 12.191 11.6374 12.1965 11.6483 12.2042C11.6722 12.2085 11.6968 12.2085 11.7207 12.2042C11.7491 12.2038 11.7772 12.2085 11.8038 12.2182C11.8427 12.2322 11.848 12.2409 11.8038 12.2653C11.7596 12.2898 11.6836 12.2514 11.6553 12.2426C11.6325 12.2325 11.6079 12.2266 11.5829 12.2252C11.5581 12.2252 11.5263 12.192 11.5652 12.1798" fill="#004C97"/>
<path d="M11.9258 12.2723H11.9859C11.9859 12.2723 12.0036 12.3212 11.9647 12.3265C11.9441 12.3288 11.9234 12.3288 11.9028 12.3265C11.8781 12.3265 11.8693 12.3369 11.8427 12.3439C11.8228 12.347 11.8026 12.347 11.7826 12.3439C11.7614 12.3439 11.7438 12.3003 11.7826 12.3003C11.8335 12.3061 11.8849 12.2976 11.9311 12.2758" fill="#004C97"/>
<path d="M11.3619 11.6666C11.4157 11.6615 11.4667 11.6409 11.5086 11.6073C11.5337 11.5887 11.5573 11.5683 11.5793 11.5462C11.6005 11.5217 11.62 11.4798 11.6553 11.4973C11.6907 11.5148 11.7313 11.5287 11.7278 11.5427C11.7243 11.5567 11.703 11.5724 11.6659 11.5951C11.6288 11.6177 11.6518 11.6422 11.6659 11.6649C11.6742 11.6779 11.6787 11.6931 11.6787 11.7085C11.6787 11.724 11.6742 11.7391 11.6659 11.7522C11.6447 11.7906 11.6164 11.8115 11.6164 11.8272C11.6164 11.8429 11.5882 11.8674 11.5793 11.8988C11.5705 11.9302 11.5493 11.9354 11.5263 11.9145C11.5164 11.9036 11.5045 11.8947 11.4911 11.8884C11.4778 11.8821 11.4633 11.8785 11.4485 11.8778C11.4309 11.8778 11.3778 11.8988 11.3619 11.8883C11.349 11.8633 11.3389 11.837 11.3319 11.8098C11.318 11.7847 11.3119 11.7562 11.3142 11.7277C11.3142 11.6893 11.3142 11.6736 11.3602 11.6649" fill="#004C97"/>
<path d="M11.9417 11.7661C11.8809 11.7561 11.8184 11.7672 11.7649 11.7975C11.742 11.8145 11.7236 11.8367 11.7113 11.8622C11.699 11.8878 11.6931 11.9159 11.6942 11.9441C11.688 11.9723 11.688 12.0015 11.6942 12.0297C11.6942 12.0454 11.749 12.0855 11.7667 12.082C11.8268 12.0681 11.7172 11.9895 11.749 11.9424C11.772 11.9424 11.772 11.9703 11.7808 11.9895C11.7851 11.9998 11.7918 12.0088 11.8004 12.0158C11.8091 12.0228 11.8194 12.0276 11.8303 12.0297C11.8604 12.0384 11.8869 12.0297 11.8781 12.0052C11.8669 11.9863 11.8503 11.9711 11.8303 11.9616C11.7685 11.9319 11.8781 11.9337 11.894 11.918C11.9099 11.9022 11.8339 11.8848 11.8109 11.8743C11.7879 11.8638 11.8551 11.8254 11.8869 11.8202C11.9187 11.815 11.9735 11.7923 11.9399 11.7643" fill="#004C97"/>
<path d="M11.9929 11.6265C12.0141 11.616 12.0565 11.6265 12.0565 11.6544V11.7068C12.0565 11.7242 12.0848 11.7068 12.1007 11.7277C12.1166 11.7487 12.0848 11.7801 12.0724 11.7906C12.0601 11.801 11.9805 11.7679 11.9682 11.7417C11.9558 11.7155 11.9911 11.6649 12.0018 11.6282" fill="#004C97"/>
<path d="M11.8639 11.3594C11.8639 11.3315 11.8957 11.2896 11.9205 11.2983C11.9452 11.307 11.9488 11.3576 11.9364 11.3768C11.924 11.396 11.9594 11.424 11.9594 11.4624C11.9594 11.5008 11.9965 11.5409 11.9594 11.5531C11.9222 11.5654 11.9134 11.5322 11.8798 11.5165C11.8641 11.5126 11.8478 11.5126 11.8321 11.5165C11.8238 11.5257 11.8126 11.5319 11.8003 11.5339C11.7844 11.5339 11.7632 11.4868 11.7897 11.4746C11.8162 11.4624 11.8462 11.4449 11.8816 11.4746C11.8816 11.4571 11.9046 11.4379 11.9028 11.4187C11.901 11.3995 11.8869 11.3891 11.878 11.3716" fill="#004C97"/>
<path d="M11.7966 11.239C11.8179 11.239 11.8656 11.2949 11.8285 11.3001C11.7913 11.3053 11.7613 11.26 11.7966 11.239Z" fill="#004C97"/>
<path d="M11.8639 11.1761C11.8639 11.1761 11.9028 11.2162 11.901 11.2285C11.8993 11.2407 11.8675 11.2459 11.848 11.2459C11.8286 11.2459 11.8197 11.1324 11.8639 11.1778" fill="#004C97"/>
<path d="M11.749 10.9283C11.7631 10.9301 11.7765 10.9349 11.7885 10.9424C11.8004 10.95 11.8104 10.9601 11.8179 10.9719C11.8409 11.0033 11.8179 11.0121 11.7967 11.033C11.7755 11.054 11.8109 11.0993 11.8215 11.1116C11.8321 11.1238 11.8356 11.1796 11.8215 11.1779C11.7909 11.1759 11.7618 11.1643 11.7384 11.1447C11.7137 11.1168 11.7384 11.1046 11.7384 11.0749C11.7384 11.0452 11.6907 10.9457 11.7614 10.93" fill="#004C97"/>
<path d="M11.7843 10.6315C11.7838 10.6088 11.7913 10.5865 11.8056 10.5687C11.8268 10.5442 11.8497 10.5826 11.8533 10.5983C11.869 10.6371 11.8751 10.679 11.871 10.7205C11.8604 10.7729 11.8144 10.7816 11.7755 10.745C11.7688 10.7074 11.7688 10.669 11.7755 10.6315" fill="#004C97"/>
<path d="M12.1414 11.7487C12.0884 11.6631 12.1697 11.6666 12.2369 11.6771C12.304 11.6876 12.2705 11.705 12.2864 11.7312C12.3023 11.7574 12.2864 11.7539 12.2864 11.7626C12.2853 11.7723 12.2871 11.782 12.2915 11.7907C12.2959 11.7993 12.3027 11.8066 12.3111 11.8115C12.3359 11.822 12.4295 11.7504 12.4879 11.7906C12.5462 11.8307 12.5762 11.9005 12.631 11.9354C12.6603 11.9504 12.6881 11.9679 12.7141 11.9878C12.7217 12.0008 12.7319 12.0121 12.7441 12.021C12.7583 12.021 12.7724 12.021 12.7848 12.0454C12.8184 12.1065 12.8537 12.1694 12.8855 12.2322C12.9174 12.295 12.9739 12.3945 12.9174 12.4067C12.8608 12.419 12.8643 12.3439 12.8555 12.3195C12.8467 12.295 12.7936 12.3195 12.7671 12.3038C12.7406 12.288 12.6982 12.2217 12.6593 12.2217C12.6204 12.2217 12.6027 12.2915 12.5444 12.2601C12.4861 12.2287 12.4879 12.1903 12.4348 12.1728C12.3818 12.1554 12.3323 12.1344 12.3588 12.0856C12.3658 12.0652 12.3658 12.0431 12.3588 12.0227C12.3589 12.0109 12.3562 11.9993 12.351 11.9887C12.3458 11.9781 12.3382 11.9689 12.3288 11.9616C12.2957 11.9304 12.2538 11.9097 12.2086 11.9023C12.1849 11.9011 12.1615 11.8957 12.1397 11.8866C12.1238 11.8866 12.1114 11.8482 12.0955 11.8342C12.0796 11.8202 12.0566 11.8045 12.0955 11.7888C12.1142 11.7759 12.1363 11.7687 12.1591 11.7679C12.1591 11.7539 12.1591 11.7522 12.1414 11.7469" fill="#004C97"/>
<path d="M12.9067 11.8377C12.9058 11.8307 12.9058 11.8237 12.9067 11.8167C12.9597 11.8167 13.0534 11.8761 13.0304 11.9302C13.0273 11.9395 13.021 11.9475 13.0127 11.9529C13.0044 11.9583 12.9944 11.9607 12.9845 11.9598C12.9615 11.9598 12.9668 11.9372 12.9562 11.9197C12.9456 11.9022 12.9562 11.8796 12.9385 11.8743C12.9296 11.873 12.9215 11.8686 12.9156 11.8619C12.9098 11.8551 12.9066 11.8465 12.9067 11.8377" fill="#004C97"/>
<path d="M12.8908 11.9668C12.8898 11.9569 12.8898 11.947 12.8908 11.9371C12.9243 11.9371 12.9279 11.9668 12.9243 11.993C12.9276 12.005 12.9276 12.0176 12.9243 12.0296C12.9243 12.0436 12.9014 12.0436 12.8943 12.0541C12.8872 12.0646 12.8324 12.0715 12.8483 12.0314C12.8642 11.9912 12.9049 12.0087 12.8961 11.9633" fill="#004C97"/>
<path d="M13.0322 11.9756C13.0923 11.9581 13.087 12.0838 13.0481 12.1048C13.0092 12.1257 12.9915 12.0018 13.0322 11.9756Z" fill="#004C97"/>
<path d="M13.0499 12.1501C13.055 12.1417 13.062 12.1346 13.0702 12.1291C13.0785 12.1237 13.0878 12.1201 13.0976 12.1187C13.1005 12.1437 13.1005 12.1688 13.0976 12.1938C13.0976 12.2095 13.0835 12.2688 13.0694 12.2758C13.0552 12.2828 13.0393 12.2374 13.0358 12.2217C13.0322 12.206 13.0146 12.2042 13.0358 12.1816C13.0381 12.1747 13.0418 12.1684 13.0467 12.163C13.0516 12.1576 13.0575 12.1532 13.0641 12.1501" fill="#004C97"/>
<path d="M12.0407 12.3439L12.1273 12.3578H12.2316C12.2651 12.3578 12.2634 12.3823 12.2634 12.4189C12.2634 12.4556 12.2351 12.4626 12.2103 12.4905C12.1856 12.5184 12.2386 12.6057 12.2722 12.6459C12.3058 12.686 12.3129 12.6843 12.3394 12.6459C12.3617 12.6179 12.3796 12.5867 12.3924 12.5533C12.3924 12.5254 12.4207 12.5045 12.4295 12.4765C12.4384 12.4486 12.4454 12.398 12.4755 12.3788C12.5585 12.3264 12.5356 12.5045 12.5356 12.5533C12.5315 12.5836 12.5377 12.6143 12.5532 12.6406C12.5631 12.6577 12.5691 12.6767 12.571 12.6962C12.5728 12.7158 12.5704 12.7355 12.5638 12.7541C12.5541 12.8167 12.5595 12.8807 12.5797 12.9409C12.5961 13.0065 12.6009 13.0744 12.5939 13.1416C12.59 13.1738 12.5823 13.2054 12.5709 13.2359C12.5569 13.2635 12.5403 13.2898 12.5214 13.3144L12.4737 13.4087C12.4596 13.4366 12.4277 13.4488 12.4136 13.4767C12.3995 13.5047 12.3818 13.5361 12.3641 13.564C12.3477 13.5928 12.3239 13.6169 12.2952 13.6338C12.2451 13.6753 12.1926 13.7137 12.1379 13.749C12.111 13.762 12.0812 13.768 12.0513 13.7665H11.947C11.9327 13.7697 11.9179 13.7691 11.9039 13.7648C11.8899 13.7605 11.8774 13.7527 11.8675 13.7421C11.8462 13.7264 11.8427 13.6792 11.8427 13.6513C11.8337 13.5847 11.8337 13.5172 11.8427 13.4506C11.8127 13.4506 11.795 13.4942 11.7667 13.4802C11.7384 13.4663 11.7384 13.4331 11.719 13.3982C11.6995 13.3633 11.666 13.2743 11.5794 13.2638C11.445 13.2568 11.3104 13.2697 11.1799 13.3022C11.1544 13.291 11.1306 13.2763 11.1092 13.2585C11.0956 13.2502 11.0858 13.237 11.0819 13.2217C11.0779 13.2065 11.0801 13.1902 11.088 13.1765C11.1059 13.1522 11.1208 13.1258 11.1322 13.098C11.1302 13.0613 11.135 13.0247 11.1463 12.9897C11.1605 12.9531 11.1781 12.9426 11.1905 12.9147C11.2029 12.8867 11.2064 12.8483 11.2223 12.8169C11.2478 12.7615 11.2931 12.7173 11.3496 12.693C11.4104 12.6719 11.4695 12.6462 11.5263 12.6162C11.5421 12.6133 11.5583 12.6133 11.5741 12.6162C11.5917 12.6162 11.597 12.6022 11.6059 12.5883C11.6147 12.5743 11.6589 12.5481 11.6819 12.5219C11.7295 12.4764 11.7924 12.4496 11.8586 12.4469C11.9258 12.4364 11.9664 12.3753 12.023 12.3404" fill="#004C97"/>
<path d="M11.8074 13.8573C11.828 13.8539 11.8492 13.8576 11.8674 13.8678C11.8851 13.8782 11.8674 13.8922 11.8674 13.8974C11.8815 13.8963 11.8953 13.8927 11.9081 13.887C11.924 13.887 11.9558 13.8538 11.977 13.8573C11.9818 13.8598 11.9859 13.8636 11.9887 13.8682C11.9915 13.8728 11.9929 13.8781 11.9929 13.8835C11.9929 13.8889 11.9915 13.8941 11.9887 13.8987C11.9859 13.9034 11.9818 13.9071 11.977 13.9097L11.9222 13.9638C11.9063 13.9812 11.901 14.0161 11.8834 14.0301C11.8657 14.0441 11.7844 14.0441 11.7914 13.9847C11.7832 13.9889 11.774 13.9908 11.7647 13.9905C11.7555 13.9902 11.7464 13.9876 11.7385 13.9828C11.7306 13.9781 11.7239 13.9715 11.7193 13.9636C11.7146 13.9557 11.7121 13.9467 11.7119 13.9376C11.7174 13.9205 11.7263 13.9048 11.7381 13.8913C11.75 13.8778 11.7645 13.8668 11.7808 13.859" fill="#004C97"/>
<path d="M8.42797 8.44258C8.45491 8.44108 8.4819 8.44464 8.50751 8.45305C8.54462 8.46352 8.5517 8.45305 8.57998 8.43036C8.60825 8.45131 8.59058 8.49145 8.57998 8.5124C8.56451 8.52807 8.54568 8.54012 8.52489 8.54767C8.50409 8.55522 8.48184 8.55808 8.45978 8.55604C8.42267 8.55604 8.38025 8.55604 8.38025 8.5124C8.38025 8.46876 8.41383 8.46003 8.4368 8.44258" fill="#004C97"/>
<path d="M11.6749 9.03259C11.7575 9.0818 11.834 9.14038 11.9029 9.20715C11.9311 9.22984 11.9347 9.23158 11.94 9.2665C11.9407 9.27753 11.9441 9.28822 11.95 9.29765C11.9558 9.30708 11.9639 9.31496 11.9736 9.32061C11.9912 9.33457 12.0884 9.39567 12.0407 9.42185C11.993 9.44803 11.9294 9.39741 11.9135 9.38519C11.8976 9.37297 11.8852 9.29093 11.8657 9.25951C11.8163 9.18096 11.712 9.14431 11.6696 9.05528L11.6908 9.04481" fill="#004C97"/>
<path d="M12.1397 9.05182C12.1538 9.05182 12.2387 9.09895 12.1892 9.10593C12.1397 9.11291 12.1185 9.12688 12.0902 9.10593L12.1379 9.06055" fill="#004C97"/>
<path d="M12.175 9.1583C12.1997 9.1583 12.1997 9.17924 12.175 9.19146C12.1502 9.20368 12.129 9.19146 12.1114 9.19146C12.0937 9.19146 12.0954 9.1583 12.1114 9.15306C12.129 9.14665 12.1485 9.14665 12.1661 9.15306" fill="#004C97"/>
<path d="M12.023 9.44281C12.0431 9.45683 12.0644 9.46909 12.0866 9.47947C12.1043 9.47947 12.1785 9.44979 12.1891 9.47947C12.1997 9.50914 12.2422 9.51089 12.1891 9.53532C12.1361 9.55976 12.122 9.56674 12.1131 9.58769C12.1043 9.60864 12.099 9.65751 12.0813 9.65402C12.0636 9.65053 12.0442 9.58594 12.0336 9.55278C12.023 9.51961 11.9258 9.44979 12.0177 9.44456" fill="#004C97"/>
<path d="M12.175 9.59816C12.2032 9.61561 12.175 9.65401 12.1856 9.67671C12.1962 9.6994 12.2315 9.69416 12.2351 9.72558C12.2386 9.757 12.2244 9.79366 12.2351 9.81984C12.2419 9.85208 12.2419 9.88535 12.2351 9.91759C12.2291 9.92747 12.2243 9.93802 12.2209 9.94901V9.98567C12.2209 9.99439 12.2032 9.98567 12.1979 10.0066C12.192 10.0219 12.1873 10.0377 12.1838 10.0537C12.1838 10.0921 12.1502 10.0747 12.1237 10.0904C12.0872 10.1149 12.0465 10.1327 12.0035 10.1428C12.0141 10.1672 12.0035 10.2213 11.9576 10.2021C11.9116 10.1829 11.9576 10.1323 11.9576 10.1148C11.9576 10.0974 12.0017 10.059 12.0194 10.0293C12.0371 9.99963 12.0724 9.99963 12.1025 9.99789C12.1025 9.96821 12.0389 9.94377 12.0389 9.91585C12.0389 9.88792 12.1007 9.8565 12.1078 9.82333C12.1149 9.79017 12.0866 9.72907 12.1078 9.70114C12.129 9.67321 12.1219 9.59816 12.1626 9.59467" fill="#004C97"/>
<path d="M12.1166 10.1568C12.0831 10.1428 11.9858 10.2022 12.023 10.2179C12.0601 10.2336 12.1272 10.1969 12.1166 10.1568Z" fill="#004C97"/>
<path d="M11.993 10.2423L11.9753 10.2126C11.9576 10.23 11.8993 10.2946 11.9223 10.3191C11.9453 10.3435 11.9559 10.3016 11.9665 10.2894C11.9771 10.2772 12.016 10.2684 11.9912 10.2423" fill="#004C97"/>
<path d="M12.5357 8.5578C12.5657 8.5611 12.5961 8.55674 12.624 8.54513C12.6518 8.53351 12.6762 8.51504 12.6948 8.49147C12.7112 8.46624 12.7363 8.44766 12.7654 8.43911L12.8485 8.40769C12.8813 8.39801 12.9132 8.38575 12.944 8.37103C12.969 8.35152 12.997 8.33619 13.027 8.32565C13.0878 8.31648 13.15 8.32753 13.2038 8.35707C13.248 8.37452 13.3363 8.37976 13.354 8.43212C13.3717 8.48449 13.354 8.481 13.3717 8.51416C13.3923 8.53992 13.403 8.57211 13.4017 8.60493C13.3949 8.61391 13.3895 8.62394 13.3858 8.63461V8.69046C13.3858 8.7149 13.3452 8.74283 13.3257 8.76029C13.3166 8.7717 13.3051 8.78105 13.292 8.78767C13.2789 8.7943 13.2645 8.79806 13.2497 8.79869C13.2285 8.79869 13.2268 8.69745 13.2215 8.68174C13.2162 8.66603 13.1879 8.68174 13.1808 8.70967C13.1671 8.70052 13.1571 8.68693 13.1525 8.67126C13.124 8.68813 13.0945 8.70329 13.0642 8.71665C13.0339 8.72328 13.0025 8.72328 12.9722 8.71665H12.7619C12.7324 8.71549 12.7033 8.7102 12.6753 8.70094C12.6612 8.70094 12.6382 8.67999 12.6311 8.70094C12.6209 8.71568 12.6076 8.72817 12.5922 8.73759C12.5489 8.7438 12.5048 8.7438 12.4614 8.73759C12.4234 8.74397 12.3846 8.74397 12.3466 8.73759C12.3854 8.66079 12.495 8.65206 12.5339 8.57526" fill="#004C97"/>
<path d="M12.9349 9.22991C12.9491 9.22936 12.9631 9.23353 12.9747 9.24176C12.9862 9.24998 12.9946 9.26179 12.9986 9.27529C12.9986 9.30496 12.9438 9.29973 12.9261 9.29973C12.9084 9.29973 12.8554 9.27878 12.8625 9.25434C12.8695 9.22991 12.9155 9.23165 12.9349 9.23165" fill="#004C97"/>
<path d="M12.7937 9.29796C12.8054 9.29757 12.8171 9.29953 12.828 9.30373C12.839 9.30793 12.8489 9.31428 12.8573 9.3224C12.882 9.34684 12.8414 9.36255 12.8184 9.36255C12.7954 9.36255 12.7565 9.36255 12.7406 9.33986C12.7247 9.31716 12.7654 9.31542 12.7937 9.29971" fill="#004C97"/>
<path d="M13.7904 9.75004C13.8276 9.76051 13.8276 9.76749 13.847 9.79891C13.8664 9.83033 13.8877 9.85302 13.8611 9.87048C13.8346 9.88793 13.8134 9.83033 13.8011 9.81462C13.7887 9.79891 13.7604 9.77797 13.8011 9.74829" fill="#004C97"/>
<path d="M14.1351 8.70443C14.1457 8.67999 14.1351 8.67301 14.1722 8.6765C14.2093 8.67999 14.2022 8.6765 14.2181 8.69919C14.234 8.72189 14.2623 8.76727 14.2358 8.80567C14.2093 8.84407 14.1828 8.83709 14.1474 8.80567C14.1121 8.77425 14.1315 8.72712 14.1474 8.69745" fill="#004C97"/>
<path d="M14.4321 8.30997C14.4535 8.2695 14.4851 8.23522 14.524 8.21047C14.5487 8.19476 14.6495 8.17905 14.6336 8.22618C14.6095 8.22488 14.5855 8.22845 14.5629 8.23666C14.5464 8.25062 14.5311 8.26579 14.5169 8.28204C14.505 8.29798 14.4914 8.31261 14.4763 8.32568C14.4586 8.33964 14.4144 8.34139 14.4321 8.30473" fill="#004C97"/>
<path d="M14.5806 8.29949C14.6108 8.28137 14.647 8.27573 14.6814 8.28378C14.699 8.28378 14.6973 8.22792 14.7096 8.21221C14.722 8.1965 14.7397 8.15112 14.7697 8.14064C14.8044 8.12621 14.8417 8.11908 14.8793 8.1197C14.9483 8.1197 15.0137 8.09002 15.072 8.13541C15.1303 8.18079 15.1056 8.14937 15.1444 8.13541C15.1615 8.13105 15.1794 8.13036 15.1967 8.13337C15.2141 8.13638 15.2306 8.14303 15.2452 8.15286L15.3371 8.20523C15.3649 8.22397 15.3914 8.24437 15.4166 8.26632C15.4449 8.28378 15.4732 8.26632 15.5032 8.28203C15.5392 8.28975 15.573 8.30525 15.6022 8.32742C15.6411 8.35884 15.634 8.36058 15.6393 8.40946C15.6466 8.44539 15.6617 8.47934 15.6835 8.50895C15.6977 8.53339 15.6835 8.56481 15.6941 8.59099C15.7123 8.62341 15.7277 8.65728 15.7401 8.69223C15.7479 8.71958 15.7639 8.74394 15.786 8.76206C15.7989 8.77096 15.8097 8.78237 15.818 8.79558C15.8262 8.80879 15.8315 8.82352 15.8338 8.83886C15.8338 8.9209 15.7807 8.93836 15.7083 8.93836C15.6473 8.93647 15.5872 8.92284 15.5315 8.89821C15.4636 8.87028 15.4031 8.82727 15.3548 8.77253C15.3338 8.74853 15.3107 8.72634 15.2858 8.7062C15.2576 8.68525 15.2258 8.68351 15.224 8.65034C15.2222 8.61718 15.247 8.57528 15.224 8.5683L15.1091 8.55085C15.0507 8.54083 14.9916 8.53616 14.9323 8.53688C14.8985 8.53364 14.8645 8.53905 14.8334 8.55259C14.8104 8.5683 14.8334 8.58052 14.8334 8.58576C14.8334 8.59099 14.7927 8.58576 14.7839 8.58576C14.7839 8.68525 14.8988 8.63289 14.9606 8.66081C15.0225 8.68874 15.0932 8.69398 15.1568 8.71493C15.1716 8.71727 15.1856 8.72289 15.1978 8.73135C15.2101 8.73982 15.2202 8.75091 15.2275 8.7638C15.2443 8.79394 15.2712 8.81739 15.3035 8.83013L15.399 8.8633C15.4378 8.87726 15.4449 8.90868 15.399 8.92439C15.353 8.9401 15.3353 8.92439 15.3318 8.95232C15.3283 8.98025 15.3459 9.01865 15.3424 9.05182C15.3389 9.08498 15.3424 9.11466 15.3018 9.10767C15.2677 9.10096 15.2344 9.09042 15.2028 9.07625C15.1568 9.05531 15.0084 9.11291 15.0137 9.02389C15.0137 8.99421 15.0455 8.97501 15.0543 8.94534C15.0631 8.91566 15.0296 8.9017 15.0013 8.88599C14.9691 8.86899 14.9335 8.85943 14.897 8.85806C14.8586 8.8468 14.8238 8.82573 14.7963 8.79697C14.7963 8.79697 14.7627 8.78126 14.7574 8.76729C14.7489 8.74821 14.7395 8.72957 14.7291 8.71144C14.7183 8.69383 14.7033 8.67907 14.6854 8.66843C14.6676 8.65779 14.6474 8.65159 14.6266 8.65034C14.5665 8.65034 14.5789 8.59798 14.5629 8.56306C14.5552 8.5452 14.5499 8.52643 14.547 8.50721C14.547 8.47579 14.547 8.48975 14.5152 8.48277C14.4834 8.47579 14.4922 8.46881 14.4905 8.43913C14.4887 8.40946 14.4587 8.40597 14.4622 8.38502C14.4657 8.36407 14.54 8.38502 14.54 8.41295C14.5629 8.41295 14.5682 8.3728 14.5682 8.35185C14.5705 8.32686 14.5803 8.30312 14.5965 8.28378" fill="#004C97"/>
<path d="M15.9185 8.48455C15.9244 8.47869 15.9314 8.47404 15.9392 8.47087C15.9469 8.4677 15.9552 8.46606 15.9636 8.46606C15.972 8.46606 15.9802 8.4677 15.988 8.47087C15.9957 8.47404 16.0027 8.47869 16.0087 8.48455V8.48455C16.0458 8.50898 16.0882 8.5212 16.12 8.54564C16.1522 8.5699 16.1819 8.59739 16.2084 8.62768C16.2243 8.64514 16.2367 8.65561 16.2084 8.67481C16.1905 8.6799 16.1715 8.6799 16.1536 8.67481C16.1041 8.67481 16.09 8.65037 16.0511 8.62768C16.0122 8.60499 16.0334 8.59626 16.0104 8.58404C15.9928 8.57748 15.9733 8.57748 15.9556 8.58404C15.915 8.59975 15.8832 8.59975 15.8602 8.55961C15.8372 8.51946 15.846 8.51248 15.8602 8.51073C15.8743 8.50898 15.9061 8.51073 15.9132 8.48106" fill="#004C97"/>
<path d="M14.3702 8.50891C14.3879 8.47225 14.3985 8.44258 14.4409 8.46876C14.4834 8.49494 14.4409 8.5316 14.4409 8.55429C14.4409 8.57698 14.3791 8.54382 14.3738 8.50891" fill="#004C97"/>
<path d="M14.2765 8.63281C14.2921 8.6077 14.3112 8.5848 14.333 8.56474C14.356 8.54204 14.402 8.54379 14.3896 8.58568C14.3758 8.61218 14.3585 8.63682 14.3383 8.659C14.3101 8.69914 14.2835 8.659 14.2694 8.62932" fill="#004C97"/>
<path d="M14.4338 8.62239C14.478 8.59271 14.5028 8.62239 14.5063 8.67126C14.5098 8.72014 14.4904 8.74108 14.4886 8.78472C14.4515 8.78472 14.425 8.74457 14.402 8.71839C14.379 8.69221 14.4162 8.68523 14.4268 8.67824C14.4374 8.67126 14.4268 8.63461 14.4268 8.62239H14.4374" fill="#004C97"/>
<path d="M14.3085 8.72016C14.3127 8.71466 14.3179 8.71003 14.3239 8.70652C14.3299 8.70302 14.3365 8.70072 14.3434 8.69975C14.3503 8.69877 14.3573 8.69915 14.3641 8.70086C14.3708 8.70256 14.3771 8.70557 14.3827 8.70969L14.3933 8.72016C14.411 8.74286 14.4163 8.7446 14.4092 8.77428C14.4051 8.79032 14.4051 8.80711 14.4092 8.82315C14.4131 8.83028 14.419 8.83609 14.4263 8.83983C14.4335 8.84356 14.4418 8.84505 14.4499 8.8441C14.4729 8.8441 14.4817 8.8441 14.4941 8.87377C14.5064 8.90345 14.5223 8.89646 14.5312 8.91217C14.54 8.92788 14.5312 8.9401 14.5082 8.95581C14.4852 8.97152 14.4375 8.95581 14.4004 8.95581C14.3632 8.95309 14.3276 8.93975 14.2979 8.91741V8.81792C14.2979 8.79697 14.2608 8.74286 14.2979 8.71842" fill="#004C97"/>
<path d="M17.3943 12.2164C17.3612 12.1676 17.3345 12.1148 17.3148 12.0593C17.3148 12.0436 17.2582 12.0227 17.2441 12.014C17.2203 12.0009 17.1947 11.9915 17.1681 11.986L17.009 11.9371L16.9401 11.9127H16.8482C16.8561 11.8907 16.8589 11.8672 16.8565 11.8439C16.854 11.8207 16.8464 11.7983 16.834 11.7783C16.8111 11.7416 16.7845 11.684 16.7351 11.6753C16.6833 11.6742 16.6334 11.6558 16.5937 11.623C16.5781 11.6021 16.5657 11.5792 16.5565 11.5549C16.5402 11.535 16.5197 11.5189 16.4964 11.5077C16.4558 11.4798 16.4169 11.4467 16.3763 11.417C16.3397 11.3809 16.298 11.3504 16.2525 11.3262C16.2294 11.321 16.2069 11.3134 16.1854 11.3035C16.1553 11.2878 16.1376 11.2651 16.1129 11.2896C16.0882 11.314 16.0404 11.3664 15.9945 11.3611C16.0086 11.3332 16.0351 11.328 16.051 11.3018C16.0669 11.2756 16.074 11.2791 16.051 11.2634C16.0281 11.2477 16.0281 11.2337 16.0139 11.2389C15.9488 11.2643 15.8804 11.2808 15.8107 11.2878C15.7788 11.2878 15.7718 11.3332 15.7506 11.3489C15.7294 11.3646 15.7364 11.3489 15.7329 11.3489L15.7152 11.3629C15.7046 11.3629 15.6869 11.3943 15.671 11.3925C15.6551 11.3908 15.6145 11.3698 15.588 11.3821C15.5614 11.3943 15.519 11.4257 15.5014 11.4187C15.4837 11.4117 15.4342 11.403 15.4218 11.3786C15.4137 11.3489 15.4137 11.3175 15.4218 11.2878C15.4324 11.2267 15.4589 11.1359 15.3653 11.1342C15.3087 11.1342 15.2292 11.2093 15.1885 11.1342C15.1479 11.0591 15.2963 11.005 15.2097 10.9596C15.1231 10.9143 15.0789 10.9928 15.033 11.012C15.0193 11.0225 15.0025 11.0282 14.9852 11.0282C14.968 11.0282 14.9512 11.0225 14.9375 11.012C14.9121 10.9861 14.8891 10.9581 14.8686 10.9282C14.8573 10.9157 14.8487 10.901 14.8432 10.8851C14.8377 10.8693 14.8356 10.8525 14.8368 10.8357C14.8401 10.8061 14.8511 10.7779 14.8686 10.7537C14.8756 10.7188 14.8894 10.6856 14.9092 10.6559C14.9411 10.6245 14.9623 10.6402 15.0082 10.6559C15.0542 10.6716 15.0683 10.6332 15.0878 10.6245C15.1229 10.6132 15.159 10.605 15.1956 10.6001C15.2345 10.6001 15.2451 10.5756 15.2875 10.5844C15.3221 10.5945 15.3516 10.6169 15.3706 10.6472C15.3882 10.6751 15.3706 10.7031 15.3706 10.7327C15.3706 10.7624 15.4006 10.8095 15.4307 10.7781C15.4557 10.7571 15.4721 10.7277 15.4766 10.6955C15.4812 10.6633 15.4736 10.6306 15.4554 10.6036C15.4395 10.5791 15.4218 10.5634 15.4253 10.5337C15.4269 10.5037 15.438 10.475 15.4572 10.4517C15.4943 10.4046 15.5296 10.3592 15.5614 10.3103C15.579 10.2584 15.5891 10.2044 15.5915 10.1497C15.5908 10.1223 15.5971 10.0952 15.6097 10.0708C15.6224 10.0464 15.641 10.0255 15.664 10.0101C15.7117 9.98913 15.694 9.91756 15.7258 9.87217C15.7592 9.82544 15.7952 9.78057 15.8336 9.73777C15.8414 9.72932 15.8473 9.71938 15.851 9.70856C15.8546 9.69774 15.8559 9.68628 15.8548 9.67493C15.8548 9.647 15.8018 9.64176 15.8213 9.61383C15.8407 9.58591 15.8495 9.61383 15.8548 9.59987C15.8601 9.58591 15.8548 9.57892 15.8389 9.57543C15.8255 9.57167 15.8114 9.57129 15.7978 9.57434C15.7842 9.57739 15.7716 9.58377 15.7612 9.59289C15.7771 9.61034 15.7983 9.61383 15.7841 9.63653C15.77 9.65922 15.7594 9.69238 15.7347 9.6662C15.7099 9.64002 15.7347 9.62954 15.6887 9.62082C15.6629 9.61778 15.6368 9.61778 15.6109 9.62082C15.6286 9.59638 15.6427 9.56845 15.6728 9.5667C15.7055 9.55916 15.7385 9.55334 15.7718 9.54925C15.8089 9.54925 15.9149 9.51608 15.922 9.45499C15.9291 9.3939 15.8973 9.40088 15.8743 9.37469C15.8513 9.34851 15.8566 9.34328 15.846 9.34153L15.7912 9.35549C15.7302 9.3477 15.6707 9.33124 15.6145 9.30662C15.5817 9.30074 15.5507 9.28785 15.5235 9.26886C15.4963 9.24986 15.4737 9.22521 15.4572 9.19665C15.4413 9.17396 15.4271 9.14428 15.3953 9.16523C15.3829 9.17471 15.3677 9.17986 15.352 9.17986C15.3363 9.17986 15.3211 9.17471 15.3087 9.16523C15.2489 9.13467 15.181 9.12309 15.1143 9.13206C15.0701 9.13206 15.0595 9.14603 15.0524 9.18618C15.0453 9.22632 15.063 9.23331 15.0966 9.25774C15.1302 9.28218 15.0966 9.30487 15.1284 9.32582C15.1602 9.34677 15.1761 9.36248 15.1814 9.38691C15.1982 9.44352 15.2031 9.50294 15.1956 9.56147C15.162 9.53878 15.1337 9.50037 15.0948 9.49165C15.055 9.49045 15.0155 9.48278 14.9782 9.46895L14.8633 9.40786H14.812C14.7987 9.39036 14.7833 9.37453 14.7661 9.36073C14.7272 9.32931 14.7343 9.30836 14.7661 9.27869C14.7979 9.24902 14.8368 9.22458 14.8438 9.17919C14.8509 9.13381 14.8103 9.08843 14.8262 9.07795C14.8628 9.05851 14.9013 9.04273 14.9411 9.03082C14.9181 8.97671 14.8315 8.94878 14.7838 8.91387C14.7556 8.89832 14.729 8.88021 14.7042 8.85976C14.6759 8.83183 14.6795 8.80739 14.6371 8.79168C14.5946 8.77597 14.577 8.77074 14.5699 8.81438C14.5683 8.84785 14.5744 8.88125 14.5876 8.91213C14.6017 8.94355 14.6371 8.97148 14.6158 9.00464C14.5946 9.03781 14.5628 9.03257 14.5222 9.03431C14.4594 9.04858 14.3937 9.04246 14.3348 9.01686L14.2429 8.96973C14.2111 8.95227 14.197 8.92958 14.1598 8.91736C14.095 8.91455 14.0306 8.90638 13.9672 8.89293C13.9062 8.8634 13.8472 8.83017 13.7904 8.79343L13.7268 8.76026C13.7109 8.76026 13.6897 8.7271 13.6738 8.72186C13.621 8.73143 13.5694 8.74665 13.52 8.76725C13.4709 8.77481 13.4233 8.78951 13.3786 8.81089C13.362 8.82971 13.3532 8.85401 13.3539 8.87896C13.3539 8.91213 13.3309 8.91038 13.2991 8.91213C13.2673 8.91387 13.2743 8.91213 13.2602 8.94529C13.246 8.97846 13.2354 8.97497 13.216 8.99068C13.2023 9.01102 13.1937 9.03431 13.1909 9.0586C13.1882 9.08288 13.1913 9.10747 13.2001 9.13032C13.2107 9.16348 13.2284 9.16872 13.2001 9.19665C13.1718 9.22458 13.1824 9.22458 13.1382 9.21411C13.1161 9.20599 13.0923 9.20334 13.0689 9.20638C13.0455 9.20942 13.0232 9.21806 13.0039 9.23156L13.034 9.26996H13.0746C13.108 9.28628 13.1457 9.29178 13.1824 9.28567C13.216 9.27171 13.2266 9.24552 13.2602 9.27171C13.2938 9.29789 13.3309 9.27171 13.3521 9.25774C13.4222 9.2454 13.494 9.2454 13.5642 9.25774C13.6331 9.25774 13.6685 9.33455 13.6968 9.38866C13.7586 9.50387 13.7922 9.63129 13.8523 9.7465C13.8523 9.76046 13.8753 9.75697 13.8823 9.77617C13.8857 9.79053 13.8857 9.80545 13.8823 9.81981V10.23C13.8823 10.251 13.9283 10.2859 13.9424 10.3173L13.9937 10.4115C14.0078 10.4412 14.0414 10.4674 14.0503 10.4936C14.0739 10.5554 14.1054 10.6141 14.1439 10.6681C14.181 10.7223 14.2058 10.7938 14.2641 10.8287C14.3224 10.8636 14.2641 10.7572 14.2641 10.7502C14.2641 10.7432 14.2199 10.7048 14.227 10.6681C14.2341 10.6315 14.227 10.6193 14.1952 10.5861L14.128 10.5041C14.105 10.4726 14.1139 10.4482 14.1528 10.4587C14.1917 10.4691 14.1934 10.4971 14.2076 10.5285C14.2194 10.5573 14.2342 10.5848 14.2517 10.6105C14.273 10.6402 14.28 10.6716 14.3012 10.7013C14.3224 10.731 14.3419 10.7345 14.3578 10.7572C14.3737 10.7799 14.3825 10.834 14.4073 10.8514C14.432 10.8689 14.4709 10.8514 14.485 10.8846C14.4992 10.9178 14.5133 10.9474 14.5257 10.9788C14.5504 11.0394 14.5912 11.0923 14.6437 11.132C14.6963 11.1716 14.7587 11.1965 14.8244 11.204C14.8561 11.201 14.8881 11.201 14.9199 11.204C14.9535 11.2157 14.9846 11.2335 15.0118 11.2564C15.0644 11.2977 15.1243 11.329 15.1885 11.3489C15.2221 11.3489 15.2504 11.3332 15.2769 11.3489C15.3034 11.3646 15.3069 11.4083 15.3387 11.4257C15.3652 11.4433 15.3945 11.4563 15.4253 11.4641C15.4388 11.4615 15.4526 11.4615 15.466 11.4641C15.4819 11.4746 15.466 11.5008 15.4907 11.5095C15.5155 11.5182 15.5296 11.4868 15.5402 11.4641C15.5426 11.4565 15.5469 11.4496 15.5527 11.4441C15.5584 11.4386 15.5655 11.4346 15.5733 11.4325C15.581 11.4304 15.5892 11.4303 15.597 11.4322C15.6049 11.434 15.6121 11.4378 15.618 11.4432C15.6461 11.4617 15.6674 11.4887 15.6785 11.5202C15.6897 11.5517 15.6902 11.5859 15.6799 11.6177C15.6799 11.6456 15.6428 11.6666 15.6304 11.6928L15.5756 11.794C15.5578 11.8544 15.5578 11.9186 15.5756 11.979C15.5877 12.011 15.5949 12.0445 15.5968 12.0785C15.5976 12.1163 15.6072 12.1534 15.6251 12.1868C15.6445 12.2482 15.6523 12.3127 15.6481 12.377C15.6449 12.4101 15.6449 12.4434 15.6481 12.4765C15.6609 12.5081 15.6795 12.5371 15.7028 12.5621C15.7245 12.5904 15.7488 12.6167 15.7753 12.6406C15.793 12.6563 15.7753 12.7087 15.7753 12.7331C15.7777 12.7563 15.7777 12.7797 15.7753 12.8029C15.7753 12.8256 15.7541 12.8413 15.7523 12.864C15.7445 12.9101 15.7283 12.9545 15.7046 12.9949L15.6799 13.0543C15.6799 13.0718 15.6481 13.077 15.641 13.0927C15.6339 13.1084 15.6251 13.1398 15.6162 13.1625C15.6074 13.1852 15.5862 13.1992 15.5844 13.2184C15.5831 13.2405 15.5831 13.2626 15.5844 13.2847C15.586 13.2943 15.5853 13.3042 15.5826 13.3135C15.5798 13.3229 15.575 13.3315 15.5685 13.3388L15.5014 13.4418C15.4753 13.4838 15.4523 13.5275 15.4324 13.5727C15.4105 13.6127 15.3851 13.6506 15.3564 13.6862C15.3741 13.6862 15.3971 13.7141 15.3865 13.7316C15.3759 13.749 15.3423 13.7595 15.3246 13.77C15.3069 13.7804 15.2415 13.8223 15.2327 13.8607C15.2239 13.8991 15.2574 13.969 15.2327 13.9951C15.208 14.0213 15.1549 14.0667 15.215 14.0929C15.1832 14.1418 15.1514 14.1802 15.1973 14.2325C15.2115 14.2465 15.2468 14.2692 15.2521 14.2866C15.2539 14.3105 15.2539 14.3344 15.2521 14.3582C15.2751 14.3582 15.291 14.3338 15.3087 14.3477L15.3476 14.3722C15.3603 14.376 15.3738 14.376 15.3865 14.3722C15.4147 14.3617 15.4006 14.3565 15.3865 14.3338C15.3723 14.3111 15.3759 14.3198 15.3865 14.2954C15.3898 14.281 15.3898 14.2661 15.3865 14.2517C15.3635 14.1906 15.3423 14.2692 15.3193 14.2378L15.3493 14.2046C15.3706 14.1872 15.3635 14.1941 15.3882 14.1872C15.4038 14.1825 15.418 14.1744 15.43 14.1635C15.4419 14.1526 15.4512 14.1392 15.4572 14.1243C15.4855 14.0643 15.5174 14.0061 15.5526 13.9498C15.5932 13.8842 15.6439 13.8253 15.7028 13.7752C15.7436 13.7309 15.7921 13.6942 15.846 13.667C15.9125 13.6498 15.9762 13.6234 16.0351 13.5884C16.0865 13.5439 16.1355 13.4967 16.1818 13.447C16.2313 13.3982 16.3056 13.3929 16.3586 13.3475C16.3881 13.3294 16.4203 13.3158 16.454 13.3074C16.4862 13.2927 16.5169 13.2752 16.5459 13.255C16.5971 13.2244 16.6467 13.1912 16.6944 13.1555C16.7404 13.1189 16.781 13.0613 16.8358 13.0403C16.887 13.0196 16.9333 12.9887 16.9719 12.9496C17.0251 12.9151 17.0683 12.8676 17.0974 12.8117C17.1078 12.7819 17.1233 12.7541 17.1433 12.7296C17.161 12.7052 17.1575 12.6773 17.1663 12.6511C17.1921 12.5944 17.2273 12.5425 17.2706 12.4975C17.3101 12.4525 17.3433 12.4026 17.3696 12.3491C17.3815 12.3232 17.3951 12.2982 17.4102 12.274C17.4314 12.2426 17.4102 12.2287 17.3961 12.1955L17.3943 12.2164ZM15.4483 9.84425C15.4589 9.8233 15.4872 9.82854 15.5049 9.81632C15.5134 9.81188 15.5233 9.81085 15.5325 9.81345C15.5417 9.81606 15.5496 9.82209 15.5544 9.83028V9.83028C15.5544 9.85996 15.443 9.85996 15.4236 9.85123L15.4413 9.84075L15.4483 9.84425ZM15.238 9.81108C15.2649 9.81534 15.2908 9.82484 15.314 9.83901C15.3317 9.83901 15.4077 9.87043 15.3617 9.88788C15.3158 9.90534 15.2946 9.87217 15.2733 9.86519C15.2521 9.85821 15.1797 9.81981 15.2398 9.80934L15.238 9.81108ZM15.1903 9.83203C15.1691 9.85996 15.1143 9.9804 15.0719 9.94898C15.0719 9.93327 15.0931 9.92454 15.0966 9.91058L15.1125 9.84948C15.1125 9.81806 15.1744 9.78664 15.1903 9.83203V9.83203ZM14.9835 9.73079C15.0181 9.73056 15.0524 9.72343 15.0842 9.70984C15.1213 9.68715 15.0224 9.6662 15.0524 9.63478C15.0825 9.60336 15.1302 9.66446 15.1461 9.67318C15.1594 9.68651 15.1698 9.70234 15.1768 9.71973C15.1838 9.73712 15.1872 9.75572 15.1867 9.77442C15.1479 9.77442 15.1143 9.76395 15.0754 9.76395C15.0365 9.76395 14.9658 9.76395 14.9835 9.73079Z" fill="#004C97"/>
<path d="M15.9292 9.70637C15.9186 9.72383 15.8973 9.76223 15.8761 9.76921C15.8549 9.77619 15.8549 9.72557 15.8761 9.70637C15.8973 9.68717 15.9097 9.64702 15.9398 9.65226C15.9698 9.6575 15.9627 9.69066 15.9398 9.70637" fill="#004C97"/>
<path d="M15.945 9.46196C15.945 9.44799 15.9697 9.4061 15.9945 9.42879C16.0192 9.45148 15.9945 9.48116 15.9715 9.49512C16.0016 9.51083 16.0793 9.49512 16.0899 9.5405C16.0916 9.55156 16.0898 9.56287 16.0848 9.57287C16.0797 9.58287 16.0716 9.59108 16.0617 9.59636C16.0369 9.59636 16.0245 9.58065 16.0139 9.5632C16.0033 9.54574 15.9185 9.61207 15.8937 9.5632C15.869 9.51432 15.9256 9.48116 15.9432 9.45672" fill="#004C97"/>
<path d="M15.4731 10.895C15.5276 10.9254 15.5877 10.9444 15.6499 10.9509C15.6635 10.9507 15.6767 10.9554 15.6871 10.9641C15.6974 10.9727 15.7043 10.9848 15.7064 10.998C15.7064 11.0137 15.6357 11.0137 15.6234 11.012C15.5598 11.0025 15.4993 10.9786 15.4466 10.9422C15.4361 10.9348 15.4279 10.9247 15.4229 10.913C15.4179 10.9013 15.4163 10.8884 15.4183 10.8758C15.4183 10.8374 15.4678 10.8758 15.4855 10.8898" fill="#004C97"/>
<path d="M15.8954 10.9893C15.9413 10.9893 16.0032 10.9893 16.0156 11.0382C16.0279 11.0871 15.9838 11.0382 15.9749 11.0382C15.9491 11.0347 15.9229 11.0347 15.8971 11.0382C15.8739 11.0395 15.8507 11.0347 15.83 11.0243C15.8194 11.0243 15.807 10.9911 15.7893 10.9789C15.7717 10.9667 15.8229 10.9562 15.83 10.9562C15.8371 10.9562 15.8777 10.9562 15.8918 10.9859" fill="#004C97"/>
<path d="M16.0829 11.0522C16.1077 11.0522 16.1112 11.0383 16.1324 11.0522C16.1536 11.0662 16.1642 11.0802 16.1625 11.0889C16.1607 11.0976 16.0918 11.0784 16.0741 11.0662V11.0505" fill="#004C97"/>
<path d="M14.9128 9.07273C14.9275 9.07175 14.9422 9.07503 14.9551 9.08216C14.9679 9.08929 14.9784 9.09996 14.9852 9.11288C14.9994 9.14255 14.9852 9.17222 14.9464 9.16001C14.9075 9.14779 14.8863 9.14255 14.8704 9.11113C14.8544 9.07971 14.8704 9.07971 14.8704 9.07098C14.8832 9.07277 14.8963 9.07277 14.9092 9.07098" fill="#004C97"/>
</svg>
