<svg width="24" height="24" viewBox="0 0 24 24" fill="none" xmlns="http://www.w3.org/2000/svg">
<path d="M17 19L14.0086 13.3364C14.1463 13.2861 14.2813 13.2284 14.4132 13.1635C15.07 12.8375 15.6134 12.3087 15.9685 11.6496C16.324 10.9548 16.5022 10.1773 16.4861 9.39103C16.5018 8.59862 16.3251 7.81483 15.9722 7.11177C15.619 6.44377 15.0772 5.90372 14.4196 5.56409C13.6063 5.16319 12.7119 4.97094 11.8119 5.00355H7V19H9.03753V13.7033H11.8056C11.8505 13.7033 11.8903 13.6982 11.9345 13.6976L14.6797 19L17 19ZM9.03753 6.81439H11.5944C12.1537 6.79166 12.7109 6.89789 13.2259 7.12543C13.618 7.30954 13.9402 7.62314 14.1422 8.01721C14.3466 8.44352 14.4474 8.91514 14.4359 9.39105C14.4484 9.85791 14.3487 10.3207 14.1458 10.7376C13.9428 11.1206 13.6213 11.4215 13.2331 11.5918C12.7219 11.8063 12.1727 11.9063 11.6216 11.8855H9.03753V6.81439Z" fill="white"/>
</svg>
