<svg width="24" height="24" viewBox="0 0 24 24" fill="none" xmlns="http://www.w3.org/2000/svg">
<path fill-rule="evenodd" clip-rule="evenodd" d="M22 12C22 6.47715 17.5228 2 12 2C6.47715 2 2 6.47715 2 12C2 17.5228 6.47715 22 12 22C17.5228 22 22 17.5228 22 12ZM6 13.271C6 15.173 6.01741 15.5939 6.09286 15.8641C6.35402 16.7736 7.1375 17.5271 8.17054 17.8649L8.58259 18H12.5H16.4174L16.8295 17.8649C18.1701 17.4232 19 16.3734 19 15.1158C19 13.8582 18.1701 12.8085 16.8295 12.3667L16.4174 12.2316L12.2098 12.2056L8.00223 12.1797L7.59018 12.0445C7.07366 11.8731 6.59777 11.5976 6.26116 11.2598L6 11V13.271ZM16.9214 7.13586C16.9853 7.40609 17 7.82702 17 9.72903V12L16.779 11.7402C16.4942 11.4024 16.0915 11.1269 15.6545 10.9555L15.3058 10.8203L11.7455 10.7944L8.18527 10.7684L7.83661 10.6333C6.70223 10.1915 6 9.1418 6 7.88419C6 6.62658 6.70223 5.57684 7.83661 5.13512L8.18527 5H11.5H14.8147L15.1634 5.13512C16.0375 5.4729 16.7004 6.22643 16.9214 7.13586Z" fill="white"/>
</svg>
