<svg xmlns="http://www.w3.org/2000/svg" viewBox="0 0 96 96" style="enable-background:new 0 0 96 96" xml:space="preserve">
  <path d="M71.5 30.8c0 .3.1.4 0 .6-.2.5-1.9-.3-4.5-1.6-.5-.2-1-.5-1.6-.7-5.8-1.6-14.6-3.2-21.1 1.3-6.1 5-8.2 13.2-6.1 20.5 1.2 3.9 1.7 5.5 3.7 8.3 1.4 2 3.4 4.2 6.2 5.8.6.5 9.1 5.5 19.3 4.3 16.1-1.9 28.6-23 28.6-23s-2.9 6.3-3.2 6.8C85 69.6 72.1 74 72.1 74c-6.5 2.2-13 1.6-17.6.5.1 0 .3.1.4.1 7 2.2 14.6 2.1 21.6-.2 5.4-1.8 9.8-4.7 12.5-6.5 1.6-1 2.5-1.7 2.7-1.4.3.4-1.9 2.8-3.4 4.2-4.7 4.3-10.5 7.2-16.7 8.5-4.4.9-8.9 1-13.3.3-3-.4-10.8-1.6-18.1-7.1 3.7 3.4 7.1 5.3 8.8 6.3.8.4 1.2.7 1.1.7-.3.5-17.4-4.1-25.3-18.8-1-1.9-5.6-10.5-4.8-18.7-1.5 3.2-1.6 6-1.8 9.7v.1c-.1 4.8 1.2 8.6 2.4 12.1 1.3 3.7 3.2 7.6 4.1 9.3.3.6.4.9.4.9C15.9 60.5 15 54.2 15 54.2c-.4-2.7-2.2-14.1 5.4-23.7 1.6-2.1 3.5-3.8 5.5-5.2-3.7 2.6-6 5.2-6.8 6.1-8.2 9.5-12.1 24-7.4 35.3C16.3 78 29.5 86.6 34.5 89.3c-2.1-.8-28.1-12.4-29-35.8C4.9 63 7 70.2 8 73.6c.4 1.3.6 2 .4 2.1C7.6 76-1.4 62 .3 44.4.7 40.3 1.7 30.8 8.8 22c6.1-8 13.6-11.1 17.1-12.5 3.4-1.4 18.2-7.3 31-.3 3.1 1.7 5.8 4 8.1 6.7 5.7 6.6 7.1 14.6 6.5 14.9zM36.3 89.9l-1.8-.7c1.5.9 2.3 1.2 1.8.7z" style="fill-rule:evenodd;clip-rule:evenodd;fill:#fff"/>
</svg>
