<svg width="24" height="24" viewBox="0 0 24 24" fill="none" xmlns="http://www.w3.org/2000/svg">
<path fill-rule="evenodd" clip-rule="evenodd" d="M12 20C16.4183 20 20 16.4183 20 12C20 7.58172 16.4183 4 12 4C7.58172 4 4 7.58172 4 12C4 16.4183 7.58172 20 12 20ZM12 22C17.5228 22 22 17.5228 22 12C22 6.47715 17.5228 2 12 2C6.47715 2 2 6.47715 2 12C2 17.5228 6.47715 22 12 22Z" fill="white"/>
<path fill-rule="evenodd" clip-rule="evenodd" d="M13.0772 6.41568C12.776 6.62661 12.7445 6.67879 11.0021 9.85407L9.79386 12.0559L11.2086 14.6974C12.8178 17.7018 13.057 17.9692 14.0377 17.8616C15.2298 17.3416 17.8924 12.2252 17.8924 12.0466C17.8924 11.9942 17.3052 10.8443 16.5875 9.49121C15.0951 6.6773 14.7198 6.22363 13.8845 6.22363C13.5912 6.22363 13.228 6.31009 13.0772 6.41568ZM7.42976 8.80127C7.15622 9.1132 6.88268 9.68388 6.39932 10.9505L5.9751 12.0618L6.41783 13.3337C7.10615 15.3111 7.36168 15.6537 8.02417 15.4875C8.34056 15.4081 8.90901 14.3505 9.45261 12.8296C9.72938 12.0554 9.70181 12.0559 9.70181 12.0559C9.31386 10.807 8.55671 8.83096 8.3228 8.70574C7.98019 8.52239 7.64255 8.55854 7.42976 8.80127Z" fill="white"/>
</svg>
