<svg width="24" height="24" viewBox="0 0 24 24" fill="none" xmlns="http://www.w3.org/2000/svg">
<path fill-rule="evenodd" clip-rule="evenodd" d="M12 2C17.5228 2 22 6.47715 22 12C22 17.5228 17.5228 22 12 22C6.47715 22 2 17.5228 2 12C2 6.47715 6.47715 2 12 2ZM12 20C7.58147 20 4 16.4179 4 12C4 7.58211 7.58147 4.00064 12 4C16.4185 4 20 7.58211 20 12C20 16.4185 16.4179 20 12 20ZM13.1712 11.8173L12.1821 10.8281C12.0818 10.7278 11.9176 10.7278 11.8173 10.8281L10.8281 11.8173C10.7278 11.9176 10.7278 12.0818 10.8281 12.1821L11.8173 13.1712C11.9176 13.2716 12.0818 13.2716 12.1821 13.1712L13.1712 12.1821C13.2716 12.0818 13.2716 11.9176 13.1712 11.8173ZM6.89776 11.9463C6.89776 14.7348 9.18978 17.0268 12.0128 17.0268C14.823 17.0268 17.1022 14.7348 17.1003 11.9457C17.1003 9.52141 15.4102 7.49649 13.1463 6.98019C13.0013 6.9476 12.8626 7.05623 12.8626 7.2V8.74249C12.8626 8.8345 12.9208 8.91757 13.0096 8.9508C13.0189 8.95406 13.0286 8.958 13.0381 8.96187C13.0416 8.96331 13.0451 8.96475 13.0486 8.96613C14.2805 9.39489 15.1642 10.5655 15.1642 11.9431C15.1642 13.6818 13.7572 15.0914 12.0198 15.0958H12.0121C10.2709 15.0958 8.85943 13.6843 8.85943 11.9431C8.85943 10.5757 9.73035 9.4115 10.9476 8.97508C10.97 8.96613 10.9923 8.95719 11.0147 8.94888C11.1042 8.91629 11.1623 8.83259 11.1623 8.74057V7.19936C11.1623 7.05559 11.0236 6.94696 10.8786 6.97955C8.60064 7.49329 6.89776 9.52013 6.89776 11.9463Z" fill="white"/>
</svg>
