<svg version="1.1" xmlns="http://www.w3.org/2000/svg" x="0px" y="0px" viewBox="0 0 24 24">
<path fill="#FFFFFF" d="M20.8,20.1c0.1-0.1,0.3-0.3,0.4-0.4l0,0c0.1-0.1,0.2-0.3,0.4-0.5l0,0c0.1-0.2,0.2-0.3,0.3-0.5l0,0
	c0.1-0.2,0.2-0.3,0.3-0.5c0.3-0.5,0.6-1.1,0.8-1.7c0,0,0-0.1,0-0.1c0.1-0.2,0.1-0.3,0.2-0.5l0.1-0.2c0-0.1,0.1-0.3,0.1-0.4
	c0-0.1,0-0.1,0.1-0.2c0-0.1,0.1-0.3,0.1-0.4c0-0.1,0-0.2,0-0.2c0-0.1,0.1-0.3,0.1-0.4l0-0.2c0-0.1,0-0.3,0-0.4c0-0.1,0-0.2,0-0.3
	c0-0.1,0-0.3,0-0.4c0-0.1,0-0.2,0-0.2c0-0.1,0-0.3,0-0.4c0-0.1,0-0.1,0-0.2c0-0.2,0-0.4,0-0.7c-0.2-2.6-1.2-5.1-2.9-7.1
	c-1.7-2-4.1-3.3-6.6-3.9l-0.1,0c-0.1,0-0.2,0-0.3-0.1l-0.2,0c-0.1,0-0.2,0-0.3,0l-0.3,0c-0.1,0-0.2,0-0.3,0l-0.3,0l-0.2,0
	c-0.1,0-0.2,0-0.4,0h-0.2c-0.2,0-0.4,0-0.6,0C8,0.2,5.1,1.7,3,4.1l0,0.1C0.9,6.5-0.2,9.6,0,12.8c0,0.3,0.1,0.6,0.1,0.9v0
	c0,0.2,0.1,0.4,0.1,0.6v0c0,0.2,0.1,0.4,0.1,0.5c0.1,0.2,0.1,0.5,0.2,0.7s0.2,0.5,0.3,0.8c0,0,0,0.1,0,0.1c0.1,0.2,0.2,0.4,0.3,0.6
	c0.1,0.2,0.2,0.4,0.3,0.6c0,0,0,0,0,0.1c0.2,0.4,0.5,0.9,0.8,1.3l0,0c0.5,0.6,1,1.2,1.5,1.7c0.2,0.2,0.4,0.4,0.6,0.5
	c0.4,0.3,0.7,0.6,1.1,0.8c0,0,0.1,0.1,0.1,0.1c0.3,0.2,0.6,0.3,0.9,0.5l0,0C7.1,23,7.5,23.1,8,23.3l0.1,0c0.2,0.1,0.4,0.1,0.6,0.2
	c0.4,0.1,0.8,0.2,1.2,0.3c0.2,0,0.4,0.1,0.7,0.1l0.2,0c0.3,0,0.6,0.1,1,0.1h0c0.4,0,0.7,0,1.1,0C15.9,23.8,18.7,22.4,20.8,20.1
	L20.8,20.1z M17.5,19.6l-0.1,0.1c-0.1,0.1-0.2,0.1-0.2,0.2l0,0c-0.7,0.4-1.4,0.8-2.2,1c-1.5,0.5-3.1,0.6-4.7,0.2
	c-1.6-0.3-3-1-4.2-2.1c2.3,0.3,4.5-0.4,6-1.3c3,2.1,4.9,1.8,5.8,0.7c0,0,0-0.1,0.1-0.1c0.3-0.4,0.5-0.9,0.4-1.5
	c-0.1-0.5-0.3-1-0.8-1.3l0,0c-0.2-0.2-0.4-0.3-0.7-0.3c-0.3-0.1-0.5-0.1-0.8,0c-0.3,0-0.5,0.1-0.7,0.3c-0.2,0.1-0.4,0.3-0.6,0.5
	c-0.1,0.1-0.1,0.2-0.2,0.2c-0.1-0.1-0.2-0.1-0.3-0.2c0.8-0.9,1.5-1.9,2-2.9c0.2-0.4,0.3-0.7,0.5-1.1c0.9,0.6,1.6,1.4,2.1,2.4v0
	c0.1,0.2,0.2,0.4,0.3,0.6c0,0.1,0.1,0.2,0.1,0.2c0.2,0.6,0.2,1.2,0.1,1.8c-0.1,0.6-0.4,1.2-0.7,1.7c-0.2,0.2-0.3,0.4-0.6,0.6l0,0
	C17.7,19.4,17.7,19.5,17.5,19.6L17.5,19.6z M13,13.2c-0.3,0.4-0.6,0.8-1,1.2c-0.6-0.6-1.1-1.3-1.4-2c0,0,0-0.1-0.1-0.1
	c-0.2-0.5-0.4-1-0.5-1.5c0.8-0.2,1.7-0.3,2.5-0.2h0.1c0.5,0,1.1,0.1,1.6,0.3c-0.2,0.8-0.6,1.6-1,2.3L13,13.2z M21.4,11.4
	c0.1,0.8,0,1.6-0.1,2.4v0c-0.9-2.1-2.6-3.7-4.1-4.5c0.3-3.6-0.9-5.1-2.3-5.4l-0.1,0c-0.5-0.1-1.1,0.1-1.5,0.4
	c-0.4,0.3-0.7,0.8-0.8,1.3c-0.1,0.5,0.1,1.1,0.4,1.5c0.3,0.4,0.8,0.7,1.3,0.8c0.1,0,0.2,0,0.3,0c0,0.1,0,0.3,0,0.4
	c-1.2-0.3-2.4-0.4-3.6-0.3c-0.4,0-0.8,0.1-1.2,0.2c0.1-1.1,0.5-2.1,1.1-3c0.1-0.1,0.1-0.2,0.2-0.3c0.1-0.1,0.2-0.2,0.2-0.3
	c0.4-0.5,1-0.9,1.6-1.1c0.6-0.2,1.3-0.3,1.9-0.3c0.3,0,0.5,0.1,0.8,0.2l0,0c0.1,0,0.2,0.1,0.3,0.2l0.1,0l0.3,0.1l0.1,0.1
	c0.1,0.1,0.2,0.1,0.3,0.2l0,0C16.8,3.9,16.9,4,17,4.1h0c0.1,0.1,0.2,0.1,0.3,0.2l0,0c0.1,0.1,0.2,0.1,0.3,0.2h0
	c0.2,0.2,0.4,0.3,0.6,0.5C20.1,6.7,21.2,8.9,21.4,11.4z M7.3,3.9l0.1-0.1C7.7,3.7,8,3.5,8.3,3.4l0.1,0c0.2-0.1,0.3-0.1,0.5-0.2
	C7.5,4.9,7,7.2,7.1,8.9c-3.3,1.5-4,3.4-3.5,4.7c0,0,0,0.1,0,0.1c0.2,0.5,0.6,0.9,1.1,1.1c0.5,0.2,1,0.2,1.5,0h0c0.5-0.2,0.8-0.5,1-1
	c0.2-0.4,0.3-1,0.1-1.4c0-0.1,0-0.1-0.1-0.2c0-0.1-0.1-0.2-0.1-0.3c0.1-0.1,0.2-0.1,0.3-0.2C7.8,12.9,8.3,14,9,15
	c0.2,0.3,0.5,0.7,0.7,1c-1,0.4-2.1,0.6-3.1,0.6l-0.3,0l-0.1,0c-0.1,0-0.1,0-0.2,0l-0.2,0C5.2,16.3,4.6,16,4,15.5
	c-0.4-0.4-0.8-0.9-1-1.4c-0.1-0.3-0.2-0.5-0.2-0.8c0,0,0,0,0,0v0C2.6,12.2,2.6,11,2.9,10C3.2,8.3,4,6.8,5.1,5.6
	c0.1-0.1,0.2-0.2,0.4-0.4l0.1-0.1c0.2-0.2,0.5-0.4,0.8-0.6l0.1-0.1C6.7,4.2,7,4.1,7.3,3.9z"/>
</svg>
