<svg width="24" height="24" viewBox="0 0 24 24" fill="none" xmlns="http://www.w3.org/2000/svg">
<path fill-rule="evenodd" clip-rule="evenodd" d="M10.5854 11.1566H6C6 8.54083 6.79702 5.7879 8.21738 3.99201C9.61936 4.73256 10.8061 5.81884 11.6609 7.13558C11.2807 7.76908 10.5854 9.19571 10.5854 11.1566ZM11.7309 16.8995C11.356 16.2846 10.6341 14.8413 10.6341 12.8434H6.0488C6.0488 15.4996 6.87066 18.2973 8.33256 20.0907C9.72273 19.3311 10.8944 18.229 11.7309 16.8995ZM8.65878 20.4626C11.4018 18.926 13.3169 16.1145 13.579 12.8434H18C18 17.2289 15.6133 22 11.9512 22C10.6672 22 9.55795 21.4135 8.65878 20.4626ZM13.5663 11.1566C13.2556 7.89954 11.3044 5.11405 8.53762 3.61519C9.44939 2.61866 10.5837 2 11.9024 2C15.5645 2 17.9512 6.77108 17.9512 11.1566H13.5663Z" fill="white"/>
</svg>
