<svg width="24" height="24" viewBox="0 0 24 24" fill="none" xmlns="http://www.w3.org/2000/svg">
<path fill-rule="evenodd" clip-rule="evenodd" d="M12 2C17.5228 2 22 6.47715 22 12C22 17.5228 17.5228 22 12 22C6.47715 22 2 17.5228 2 12C2 6.47715 6.47715 2 12 2ZM14.7333 5C16.2555 5 17.5 6.24819 17.5 7.80001C17.5 8.60963 17.1667 9.36305 16.5667 9.90282C17.1556 10.4313 17.5 11.196 17.5 11.9944C17.5 12.804 17.1556 13.5687 16.5667 14.0972C17.1556 14.6369 17.5 15.4016 17.5 16.2C17.5 17.7406 16.2667 19 14.7333 19H6.5V5H14.7333ZM14.3111 6.40562H8.22223V9.18314H14.3111H14.3889C15.1444 9.16064 15.7444 8.51969 15.7222 7.75501C15.7 6.99036 15.0667 6.38313 14.3111 6.40562ZM14.3111 10.6H8.22223V13.3775H14.3111H14.3889C15.1444 13.355 15.7444 12.7141 15.7222 11.9494C15.7 11.1847 15.0667 10.5775 14.3111 10.6ZM8.22223 17.5831H14.3111C15.0778 17.5831 15.6889 16.9647 15.6889 16.2C15.6889 15.4241 15.0667 14.8056 14.3111 14.8056H8.22223V17.5831Z" fill="white"/>
</svg>
