<svg width="24" height="24" viewBox="0 0 24 24" fill="none" xmlns="http://www.w3.org/2000/svg">
<path fill-rule="evenodd" clip-rule="evenodd" d="M11.9984 22.0031C17.5222 22.0031 22 17.5254 22 12.0016C22 6.47775 17.5254 2 12.0016 2C6.47775 2 2 6.48087 2 12.0016C2 17.5222 6.47463 22.0031 11.9984 22.0031ZM13.5129 5.78136C13.5129 6.5988 12.8503 7.26146 12.0328 7.26146C11.2154 7.26146 10.5527 6.5988 10.5527 5.78136C10.5527 4.96393 11.2154 4.30127 12.0328 4.30127C12.8503 4.30127 13.5129 4.96393 13.5129 5.78136ZM12.0328 19.7143C12.8503 19.7143 13.5129 19.0517 13.5129 18.2342C13.5129 17.4168 12.8503 16.7542 12.0328 16.7542C11.2154 16.7542 10.5527 17.4168 10.5527 18.2342C10.5527 19.0517 11.2154 19.7143 12.0328 19.7143ZM8.05394 8.74157C8.05394 9.559 7.39128 10.2217 6.57384 10.2217C5.75641 10.2217 5.09375 9.559 5.09375 8.74157C5.09375 7.92413 5.75641 7.26147 6.57384 7.26147C7.39128 7.26147 8.05394 7.92413 8.05394 8.74157ZM17.4938 10.2217C18.3112 10.2217 18.9739 9.559 18.9739 8.74157C18.9739 7.92413 18.3112 7.26147 17.4938 7.26147C16.6763 7.26147 16.0137 7.92413 16.0137 8.74157C16.0137 9.559 16.6763 10.2217 17.4938 10.2217ZM8.05394 15.3238C8.05394 16.1413 7.39128 16.8039 6.57384 16.8039C5.75641 16.8039 5.09375 16.1413 5.09375 15.3238C5.09375 14.5064 5.75641 13.8438 6.57384 13.8438C7.39128 13.8438 8.05394 14.5064 8.05394 15.3238ZM17.4938 16.8039C18.3112 16.8039 18.9739 16.1413 18.9739 15.3238C18.9739 14.5064 18.3112 13.8438 17.4938 13.8438C16.6763 13.8438 16.0137 14.5064 16.0137 15.3238C16.0137 16.1413 16.6763 16.8039 17.4938 16.8039ZM14.5929 11.933C14.902 12.0673 15.1362 12.2484 15.2923 12.4826C15.4484 12.7168 15.5265 12.9947 15.5327 13.3226C15.5327 13.6661 15.4547 13.9721 15.3017 14.2406C15.1487 14.506 14.9176 14.7184 14.6116 14.8682C14.3025 15.0213 13.9309 15.0962 13.4875 15.0962H8.69434L9.15648 11.9205L8.69434 8.9104H13.3157C13.6904 8.9104 14.0121 8.96973 14.2837 9.09151C14.5523 9.21329 14.7615 9.38503 14.9051 9.61298C15.0487 9.8378 15.1206 10.1063 15.1206 10.4186C15.1206 10.7028 15.0581 10.9619 14.9363 11.1961C14.8146 11.4303 14.6147 11.627 14.3399 11.7863C14.3274 11.7925 14.3157 11.7988 14.304 11.805C14.2923 11.8113 14.2806 11.8175 14.2681 11.8237C14.3836 11.855 14.4929 11.8893 14.5929 11.933ZM12.9254 10.5279C12.8879 10.4623 12.8286 10.4092 12.7537 10.3718C12.6787 10.3343 12.5882 10.3156 12.4882 10.3187H10.8926L11.0394 11.2273H12.4851C12.5819 11.2273 12.6662 11.2086 12.7412 11.168C12.8161 11.1274 12.8754 11.0712 12.9192 10.9994C12.9629 10.9276 12.9847 10.8464 12.9847 10.7558C12.9847 10.6684 12.966 10.5935 12.9254 10.5279ZM12.813 13.6817C12.9941 13.6817 13.1346 13.6348 13.2377 13.538C13.3407 13.4412 13.3938 13.3101 13.3875 13.1446C13.3875 12.9822 13.3376 12.8604 13.2314 12.7605C13.1284 12.6606 12.9816 12.6106 12.7943 12.6106H11.0456L10.8833 13.6817H12.813Z" fill="white"/>
</svg>
