<svg xmlns="http://www.w3.org/2000/svg" viewBox="0 0 96 96" style="enable-background:new 0 0 96 96" xml:space="preserve">
  <path d="M91.1 26c-5.3-3.1-12.2-.2-13.6 5.8-.9 3.9.6 7.7 3.8 10.1.5.4.5.7.3 1.1-.6 2.6-1.7 4.9-3.3 6.9-4.3 5.2-11.1 7.6-17.7 6.1-2.6-.6-5.4-2.3-7.3-.4-1.4 1.4-1.3 2.8-.9 4.1 1.5 5.3 1 10.8-2 15.4-2.7 4.3-8.1 6.5-11.8 7.4-.6.1-1.4.4-1.7-.4-1.4-3-4-4.5-7.2-4.9-10.7-1-14.1 13.2-4.7 17.9 4.6 2.3 10.4.2 12.4-4.6.2-.6.5-.8 1.1-.9 3.8-.3 7.3-1.6 10.5-3.6 3-1.9 5.5-4.5 7.5-7.5 2.7-4.4 3.9-9.2 3.8-14.3 0-1-.1-.9.9-.8 8.9 1.3 18.3-2.5 23.5-10 1.4-2.1 3-6.7 3.9-9.2.2-.6.3-.9.9-1 8-2.5 8.7-13.3 1.6-17.2zM29 90c-4.4-.1-4.7-6.7-.1-6.8 4.2 0 4.8 6.5.1 6.8zm57.7-52.4c-1.9 0-3.5-1.5-3.4-3.4.1-4.7 6.8-4.3 6.7.2-.1 1.8-1.5 3.2-3.3 3.2zm-40.2-9c6.4.2 6.6 9.4.2 9.6-2.6 0-4.9-2.2-4.9-4.8 0-2.7 2-4.8 4.7-4.8zM36.2 67.4c-12-.2-25.5-3.7-32.1-14.6-7.7-12-2.4-26.6-1.4-39.8.3-3 .4-5.9.1-8.9-.4-2.7 2-4.6 4.5-4.1 2.3.4 4.7.8 7.1.7 9-.1 27-1.6 34.6 1.7C59.1 6.8 65.6 17 66.7 27.7c.5 4 .5 8 .2 12-.2 2-1.7 3.4-3.7 3.3-1.7-.1-3.3-1.5-3.5-3.2v-.5c1.1-14.5-2.6-29.8-19.4-31.4-4.8-.5-9.6-.2-14.4.1-5 .2-10 .3-15-.1-.4 0-.7-.1-.7.5 0 6.5-1.1 13-2 19.4-1.3 8.7-2.1 18.1 4.7 24.8 6.3 5.9 15.2 7.7 23.6 7.7 4.4.1 4.8 7.1-.3 7.1zm-4.1-25.7c6.4.3 6.5 9.4.1 9.6-2.7 0-4.8-2.3-4.8-5-.1-2.6 2-4.6 4.7-4.6z" style="fill:#fff"/>
</svg>
