<svg version="1.1" xmlns="http://www.w3.org/2000/svg" x="0px" y="0px" viewBox="0 0 24 24">
<path fill-rule="evenodd" clip-rule="evenodd" fill="#FFFFFF" d="M24,5.2l-1.3,1.1c-1.1-1.3-2.5-2.4-4.1-3.1C17,2.4,15.3,2,13.6,2
	c-3.2,0-6.2,1.3-8.4,3.5c-2.2,2.2-3.5,5.3-3.5,8.4c0,1.7,0.4,3.5,1.1,5l-1.5,0.7C0.4,17.9,0,15.9,0,13.9c0-3.6,1.4-7.1,4-9.6
	c2.5-2.5,6-4,9.6-4c2,0,3.9,0.4,5.7,1.3C21.1,2.4,22.7,3.7,24,5.2z M13.6,4.1c-2.6,0-5.1,1-6.9,2.9c-1.8,1.8-2.9,4.3-2.9,6.9
	c0,2.6,1,5.1,2.9,6.9c1.8,1.8,4.3,2.9,6.9,2.9V22c-1.1,0-2.1-0.2-3.1-0.6c-1-0.4-1.9-1-2.6-1.8C7.1,18.9,6.5,18,6.1,17
	c-0.4-1-0.6-2-0.6-3.1c0-2.1,0.9-4.2,2.4-5.7c1.5-1.5,3.6-2.3,5.7-2.3c1.2,0,2.3,0.3,3.4,0.8s2,1.2,2.8,2.1l1.3-1.1
	c-0.9-1.1-2.1-2-3.4-2.6C16.4,4.5,15,4.1,13.6,4.1z M13.6,10.1c0.6,0,1.1,0.1,1.6,0.4c0.5,0.2,1,0.6,1.3,1l1.5-1.2
	c-0.5-0.6-1.2-1.2-2-1.5c-0.8-0.4-1.6-0.5-2.4-0.5c-0.8,0-1.5,0.1-2.2,0.4C10.7,9,10.1,9.4,9.5,9.9c-0.5,0.5-1,1.2-1.2,1.9
	C8,12.5,7.8,13.2,7.8,14c0,1.5,0.6,3,1.7,4.1c1.1,1.1,2.5,1.7,4.1,1.7c0.8,0,1.5-0.2,2.2-0.5c0.7-0.3,1.3-0.8,1.9-1.3l-1.2-1.5
	c-0.4,0.4-0.8,0.8-1.3,1c-0.5,0.2-1.1,0.4-1.6,0.4c-0.5,0-1-0.1-1.5-0.3c-0.5-0.2-0.9-0.5-1.2-0.8c-0.4-0.4-0.6-0.8-0.8-1.2
	s-0.3-1-0.3-1.5c0-0.5,0.1-1,0.3-1.5c0.2-0.5,0.5-0.9,0.8-1.2c0.4-0.4,0.8-0.6,1.3-0.8C12.6,10.2,13.1,10.1,13.6,10.1L13.6,10.1z"/>
</svg>
