<svg xmlns="http://www.w3.org/2000/svg" viewBox="0 0 96 96" style="enable-background:new 0 0 96 96" xml:space="preserve">
  <path d="M15 73.8c.1.4.1.8.1 1.2-.1.4-.2.8-.4 1.2-.2.4-.5.7-.8.9-.3.2-.7.4-1.1.5-.4.1-.8.1-1.2.1-.4-.1-.8-.2-1.2-.4s-.7-.5-.9-.8C3.3 68.2 0 58.2 0 48c0-8.9 2.5-17.6 7.1-25.1 4.7-7.6 11.3-13.7 19.2-17.7 7.9-4 16.8-5.7 25.6-5 8.8.7 17.3 3.9 24.4 9.2.5.4.9.9 1.1 1.5.2.6.2 1.2.1 1.8-.2.6-.5 1.2-.9 1.6-.5.4-1 .7-1.7.8-.4.1-.8 0-1.2-.1-.4-.1-.8-.3-1.1-.5-6.2-4.6-13.5-7.3-21.2-8-7.7-.6-15.4.8-22.3 4.3s-12.7 8.8-16.7 15.3c-4 6.6-6.2 14.1-6.2 21.8 0 8.9 2.8 17.6 8.1 24.7.4.4.6.8.7 1.2zm26.3-16.6c.7-.4 1.3-1.1 1.5-1.9.2-.8.1-1.7-.3-2.4-.2-.4-.5-.7-.8-.9-.3-.3-.7-.5-1.1-.6-.4-.1-.8-.1-1.2-.1-.4 0-.8.2-1.2.4-3.5 2.1-7.5 3-11.6 2.5-3.2-.4-6-1.9-7.6-4-.6-.8-1.1-1.8-1.4-2.8-.3-1-.3-2.1-.1-3.1.8-5.8 6.4-8.1 11.6-7.5 6.4.8 11.8 5.1 16 12.8 5.2 9.4 12.4 15 20.8 16 .8.1 1.6.2 2.4.2 3.2 0 6.4-.8 9.3-2.4 1.9-1.1 3.5-2.7 4.7-4.5 1.2-1.8 2-3.9 2.3-6.1.3-1.9.2-3.8-.3-5.6-.5-1.8-1.3-3.6-2.5-5.1-2.7-3.5-7-5.8-11.9-6.4-5.2-.6-10.4.5-15.5 3.3-.7.4-1.3 1.1-1.5 1.9-.2.8-.1 1.7.3 2.4s1.1 1.3 1.9 1.5c.8.2 1.7.1 2.4-.3 3.5-2.1 7.5-3 11.6-2.5 3.1.4 6 1.9 7.6 4 .6.8 1.1 1.8 1.4 2.8.3 1 .3 2.1.1 3.1-.8 5.8-6.5 8.2-11.7 7.5-6.4-.8-11.8-5.1-16-12.8-5.2-9.4-12.4-15-20.8-16-4-.5-8.2.3-11.7 2.3-1.9 1.1-3.5 2.7-4.7 4.5-1.2 1.8-2 3.9-2.3 6.1-.3 1.9-.2 3.8.3 5.7.5 1.8 1.3 3.6 2.5 5.1 2.7 3.5 7 5.8 11.9 6.4 5.6.5 11-.7 15.6-3.5zm45.3-37.8c-.5-.7-1.2-1.1-2.1-1.2-.8-.1-1.7.1-2.4.6-.3.2-.6.6-.8.9-.2.4-.4.8-.4 1.2-.1.4 0 .8.1 1.2.1.4.3.8.5 1.1 6 8 8.8 17.9 8.1 27.9-.7 10-5 19.3-12.1 26.4-7.1 7.1-16.4 11.4-26.4 12.1-10 .7-19.8-2.1-27.9-8.1-.7-.5-1.5-.6-2.3-.5-.8.1-1.5.6-2 1.2-.5.7-.7 1.5-.6 2.3.1.8.5 1.6 1.2 2.1 9.2 6.8 20.6 10.1 32.1 9.3s22.2-5.8 30.4-14c8.1-8.1 13-18.9 13.9-30.4.8-11.4-2.5-22.8-9.3-32.1z" style="fill:#fff"/>
</svg>
