<svg xmlns="http://www.w3.org/2000/svg" viewBox="0 0 96 96" style="enable-background:new 0 0 96 96" xml:space="preserve">
  <path d="M54.3 44.8c-1.4.2-4.2 1-4.3 2.3-.5 0-1.4.1-2.5.1-.7 0-1.4 0-2.1-.1-.4-.5-1.1-.9-1.8-1-.6 0-.8.3-.9.7h-.1c-.4.2-.9.8-1.1 1.7-1.1.7-2.7 1.5-3.9 1.7.4-.5.8-1.2.9-1.8.2-1.6-1.6-2.2-2.7-1.9-.7.2-1.5.7-2.2 1.6.2-.5-.1-.7-.2-.5v.1c.1-1.5.1-2.5.2-3.1 0-.2-.2-.5-.5-.6-.3-.1-.5-.1-.5.1-.1.8-.2 2.3-.2 4.5-1.1.6-2.7 1.3-3.3 1.3-.4 0-.7-.1-1.1-.3-.6-.5-.7-1.5-1-2.1-.2-.3-.7-.6-.9-.5L23 49c-.3-1-.3-1.6-.6-2.3-.2-.3-.7-.6-.9-.5-1.2.6-2.2 1.7-3.2 2.8 0-.9.1-1.5.1-2.2.1-.4-.9-1-.9-.5 0 .3-.1.6-.1.9-.1 0-.2-.1-.4 0-.3 0-1.4.1-2.7.1-.7 0-1.4 0-2.1-.1-.4-.5-1.1-.9-1.8-1-.6 0-.8.3-.9.7h-.1c-.4.1-.7.6-1 1.2-1.6 1.3-3.4 2.5-5.5 2.6-1.3 0-2-.8-1.8-2.1.2-1.1 1.3-2.1 2.3-1.9 0 .3-.1.5-.2.7-.2.4.1.5.3.4.3-.1.9-.3.9-.8 0-.3-.3-.6-.7-.8-.4-.2-.7-.3-1.1-.3-.6 0-1.1.3-1.5.6-.7.5-1 1.3-1 2.1-.1 1.9 1.5 3 3.2 3 2.2-.1 3.8-1.1 4.7-2v.1c.1.8.9 1.7 1.9 1.7 1.3.1 2.5-.6 2.7-2.1.1-.4.1-.9-.1-1.2 1.7.1 3.6-.2 4.2-.4.2-.1.4-.1.5-.2 0 .4-.1.8-.1 1.3 0 .4 0 .8.1 1.3.1.3.8.9 1.1.7 1.1-1 1.9-2.5 3.4-3.4.3 1.1.4 1.8.7 2.4.2.3.7.6.9.5.8-.5 1.5-1.1 2.8-2.1.1.3.2.6.4.9.3.3.5.7 1 1 .6.4 1.3.6 1.9.6.9 0 1.9-.5 2.7-1v7.4c.1 1.5.1 3.2.3 4.4.1.5 1 .8 1 .3-.2-1.4-.2-3.1-.3-4.8.1-3 .1-4.9.5-6.2l.2.1c.5.3 1.7.6 2.6.3h.1c1.7.1 3.4-.6 4.8-1.6v.1c.1.8.9 1.7 1.9 1.7 1.3.1 2.5-.6 2.7-2.1.1-.4.1-.9-.1-1.2 1.6.1 3.4-.1 4.1-.4.2.6.9.9 1.6 1.3.6.3 1.7.9 2.4 1.2-.7.2-1.9.3-2.8.3-.4 0-.7 0-.9-.1-.6-.1-.4.6 0 .7.4.2 1.1.3 1.8.3s1.5-.1 2-.2c.7-.2 1.3-1 .7-1.5-.6-.5-1.4-.9-2.5-1.5-.6-.3-1.2-.6-1.1-1 .3-.7 2.9-1.2 4-1.6.2-.3-.4-.9-.8-.8zM10 50.7c-.5 0-.9-.3-1-1.1-.1-.8.4-1.8.8-2.1l.1-.1c.4.3.9.4 1.6.5.3 1.1-.3 2.7-1.5 2.8zm26-.7c-.5-.1-1.8-.1-2.1-.3v-.1c.2-.8 2.2-3.3 3.5-2.6.9.6-.4 2.8-1.4 3zm7.3.7c-.5 0-.9-.3-1-1.1-.1-.3 0-.7.1-1 .1-.2.3-.5.4-.7.1-.2.2-.3.3-.4l.1-.1c.4.3.9.4 1.6.5.4 1.1-.2 2.7-1.5 2.8zm52.2-3.2c-1.2 1.3-3.2 3.3-5.9 3.3-1 0-2-.9-2.1-1.5 1 0 2.2-.7 2.6-1.6.3-.8-.5-1.7-1.4-1.7-1.2 0-1.9.9-2.2 2-.9 1.1-3.8 4.8-5.2 4-.6-.4-.9-2.5-.9-5 0-4.9.8-11.8 1-12.3 0-.1-.2-.4-.5-.5-.3-.1-.5-.1-.5.1-.4 1.2-1.2 7.3-1.2 12.1v.8c-1.1.9-3.2 2-4.5 2.3l.2-.5c.1-.3.2-.7.2-1.2 0-.7-.2-1.3-.8-1.9l-.1-.1c-.2-.2-.6-.4-.8-.4-1.3-.2-3.1 2.1-3.6 3.3 0-.3-.1-.6-.1-1 .2-.4.1-.6 0-.6 0-1.1-.1-2.3-.1-3.5 0-3.7.1-7.5.5-8.5.1-.2-.1-.5-.3-.6-.3-.2-.6-.2-.7 0-.4 1-.5 4.4-.5 7.8v.9c0 1.7 0 3.4.1 4.8-1.2 1-3.1 1.9-4.3 1.7-.5-.1-.7-.7-.6-1.2.1-.5.3-1.1.5-1.5.2-.3-.8-1-.9-.7l-.4.6c-.7-.3-1.5-.5-2.3-.5-1 0-2 .3-2.7.8-.7.5-1 1.1-1 1.7 0 .6.3 1.1.9 1.6.3.2.7.3 1 .3 1.5 0 3.4-1.5 4.2-2.2.4 1 1.1 1.6 2 1.8 1.2.3 3.2-.6 3.9-1.3l.1-.1.1 1.1c.1.5.1.8.3 1 0 0 0 .1.1.2l.4.4c.3.1.4.1.5.1.1 0 .1-.1.1-.1 0-.1.1-.2.1-.4l.2-.8.1-.3h.1c.6.4 2.3.5 2.7.4H74.1c2.5 0 4.5-1.1 5.6-2.5.1 1.6.3 2.9.7 3.6.6.8 1.4 1.3 2.3 1.3 1.5 0 3.3-2.1 4.2-3.6v.2c.6 1.8 2.7 2.1 4.4 2 2-.1 3.8-1.5 4.6-3.2.2-.9.3-1.5-.4-.9zM58.3 50c-.4 0-.6-.3-.5-.7.3-1.3 2.2-1.9 3.6-1.9.4 0 .8.1 1.1.1-1 1.2-2.9 2.3-4.2 2.5zm13.7-.2c-.3 0-.6-.1-.9-.2H71c1.3-1.8 2-3 3-3.3h.1l.1.1c.2.2.3.5.3.9 0 1.3-1.1 2.5-2.5 2.5zM89.2 47c.3.3-.5 1.1-1.7 1.6 0-.7 1.1-2.2 1.7-1.6z" style="fill:#fff"/>
</svg>
