<svg xmlns="http://www.w3.org/2000/svg" viewBox="0 0 96 96" style="enable-background:new 0 0 96 96" xml:space="preserve">
  <path d="M83.5 23.9c2.3 0 4.2 1.9 4.2 4.2 0 2.3-1.8 4.1-4 4.2L78.5 40h-.1c-1.2 1.7-3 2.7-5.1 2.7H67c.6 1.3 1 2.7 1.3 4.2H81.6c.7 0 1.3-.3 1.6-.9v-.1l4.9-7.4c-.4-.6-.6-1.4-.6-2.1 0-2.3 1.9-4.2 4.2-4.2 2.3 0 4.2 1.9 4.2 4.2 0 2.3-1.8 4.1-4.1 4.2l-5.1 7.7-.1.1c-1.2 1.7-3 2.7-5.1 2.7H68.7c0 1.4-.1 2.8-.4 4.2h13.2c2.1 0 4 1 5.2 2.7l.1.1 5.1 7.7c2.3 0 4.1 1.9 4.1 4.2 0 2.3-1.9 4.2-4.2 4.2-2.3 0-4.2-1.9-4.2-4.2 0-.8.2-1.5.6-2.1l-4.9-7.4c-.4-.6-1-.9-1.7-.9H67c-.7 1.5-1.5 2.9-2.4 4.2h8.6c2.1 0 4 1 5.2 2.7l.1.1 5.1 7.7c2.3 0 4.1 1.9 4.1 4.2 0 2.3-1.9 4.2-4.2 4.2s-4.2-1.9-4.2-4.2c0-.8.2-1.5.6-2.1L75 68.8c-.4-.6-1-.9-1.7-.9H60.5c-3.5 2.6-7.8 4.2-12.5 4.2s-9-1.6-12.5-4.2H22.8c-.7 0-1.3.3-1.6.9v.1l-4.9 7.4c.4.6.6 1.4.6 2.1 0 2.3-1.9 4.2-4.2 4.2-2.3 0-4.2-1.9-4.2-4.2 0-2.3 1.8-4.1 4.1-4.2l5.1-7.7.1-.1c1.2-1.7 3-2.7 5.1-2.7h8.5c-1-1.3-1.8-2.7-2.4-4.2H14.6c-.7 0-1.3.3-1.6.9v.1l-4.9 7.4c.4.6.6 1.4.6 2.1 0 2.3-1.9 4.2-4.2 4.2S0 72.3 0 70c0-2.3 1.8-4.1 4.1-4.2l5.1-7.7.1-.1c1.2-1.7 3-2.7 5.1-2.7h13.1c-.3-1.3-.4-2.6-.4-3.9v-.3H14.5c-2.1 0-4-1-5.2-2.7l-.1-.1-5.1-7.7c-2.3 0-4.1-1.9-4.1-4.2 0-2.3 1.9-4.2 4.2-4.2s4.2 1.9 4.2 4.2c0 .8-.2 1.5-.6 2.1l4.9 7.4c.4.6 1 .9 1.7.9h13.1c.3-1.5.7-2.9 1.3-4.2h-6c-2.1 0-4-1-5.2-2.7l-.1.1-5.1-7.7c-2.2-.1-4-1.9-4-4.2 0-2.3 1.9-4.2 4.2-4.2 2.3 0 4.2 1.9 4.2 4.2 0 .8-.2 1.6-.6 2.2l4.9 7.3c.4.6 1 .9 1.7.9h8.6c3.8-5.1 9.9-8.4 16.7-8.4s12.9 3.3 16.7 8.4h8.7c.7 0 1.3-.3 1.6-.9v-.1l4.9-7.3c-.4-.6-.6-1.4-.6-2.2-.1-2.2 1.8-4.1 4.1-4.1zM47.9 34.4c-9.2 0-16.7 7.5-16.7 16.8S38.7 68 47.9 68s16.7-7.5 16.7-16.8-7.4-16.8-16.7-16.8zm0 4.2c6.9 0 12.5 5.6 12.5 12.6 0 6.9-5.6 12.6-12.5 12.6s-12.5-5.6-12.5-12.6S41 38.6 47.9 38.6zm14.7-25.2h.1c4.6.1 8.2 3.8 8.2 8.4 0 4.6-3.7 8.4-8.4 8.4-4.6 0-8.4-3.8-8.4-8.4 0-2.3.9-4.3 2.4-5.8l.1-.1 5.9 5.9v-8.4zm-29.3 0v8.4l5.9-5.9c1.5 1.5 2.4 3.6 2.4 5.9 0 4.6-3.7 8.4-8.4 8.4s-8.4-3.8-8.4-8.4c0-4.6 3.7-8.3 8.2-8.4h.3z" style="fill-rule:evenodd;clip-rule:evenodd;fill:#fff"/>
</svg>
