<svg xmlns="http://www.w3.org/2000/svg" viewBox="0 0 96 96" style="enable-background:new 0 0 96 96" xml:space="preserve">
  <path d="M24.7 48.5c0 11.9 9 20.8 20.8 20.8 11 0 18.9-5.3 21.8-14.5.6-2 2.7-3.1 4.7-2.5 2 .6 3.1 2.7 2.5 4.7-3.8 12.4-14.6 19.7-28.9 19.7-16.1 0-28.3-12.2-28.3-28.3 0-15.8 12.3-29.1 26.8-29.1 2.1 0 3.7 1.7 3.7 3.7s-1.7 3.7-3.7 3.7c-10.6.2-19.4 10.1-19.4 21.8zm63.4-1.6c-2.1 0-3.7 1.7-3.7 3.7 0 20.1-17.1 35.8-38.8 35.8-21.4 0-38.1-16.7-38.1-38.1 0-21.8 16.7-38.8 38.1-38.8 0 0 2.5 0 7.3.7 2 .3 3.9-1.1 4.2-3.2.3-2-1.1-3.9-3.2-4.2-5.4-.8-8.2-.8-8.4-.8-12.3 0-23.9 4.8-32.4 13.6C4.7 24.4 0 36 0 48.4 0 73.9 20 94 45.6 94c12.4 0 23.9-4.4 32.6-12.5 8.8-8.1 13.7-19.1 13.7-30.9 0-2-1.7-3.7-3.8-3.7zm7.4-12.2c-.5.9-1.3 1.5-2.3 1.8L52.8 48c-.3.1-.7.1-1 .1-1.3 0-2.5-.6-3.2-1.7-1.5-2.3.2-4.3.8-5 3.4-6.1 6.7-12 9.9-17.8 3.3-5.9 6.6-12 10.1-18.2.5-.9 1.4-1.6 2.4-1.8 1-.2 2.1 0 3 .6 4.8 3.3 8.6 7 12.5 12.1 4.1 5.4 7.3 11.1 8.6 15.6.2.9.1 1.9-.4 2.8zm-8.2-4.3c-1.4-3-3.5-6.4-6-9.7-2.4-3.2-4.8-5.7-7.5-8-2.7 4.9-5.4 9.7-8 14.4-2 3.6-4 7.3-6.1 11l27.6-7.7z" style="fill:#fff"/>
</svg>
