<svg width="24" height="24" viewBox="0 0 24 24" fill="none" xmlns="http://www.w3.org/2000/svg">
<path d="M12 2C6.5 2 2 6.5 2 12C2 17.5 6.5 22 12 22C17.5 22 22 17.5 22 12C22 6.5 17.5 2 12 2ZM7.25 8.5L12.4167 5.5C12.5833 5.41667 12.8333 5.41667 13 5.5L16.25 7.41667C16.5833 7.58333 16.6667 8.08333 16.3333 8.33333L15.3333 9.41667C15.1667 9.58333 14.8333 9.66667 14.6667 9.5L13.0833 8.66667C12.9167 8.58333 12.6667 8.58333 12.5 8.66667L7 11.8333V9.08333C7 8.83333 7.08333 8.66667 7.25 8.5ZM16.3333 16.5833L13.0833 18.5C12.9167 18.5833 12.6667 18.5833 12.5 18.5L7.33333 15.5C7.08333 15.3333 7 15.1667 7 15V12.5L9.66667 10.9167V13.4167C9.66667 13.5833 9.75 13.8333 9.91667 13.9167L12.4167 15.3333C12.5833 15.4167 12.8333 15.4167 13 15.3333L14.5833 14.4167C14.8333 14.25 15.0833 14.3333 15.25 14.5L16.3333 15.5833C16.75 15.9167 16.6667 16.3333 16.3333 16.5833Z" fill="white"/>
</svg>
