<svg version="1.1" xmlns="http://www.w3.org/2000/svg" x="0px" y="0px" viewBox="0 0 24 24">
<path style="fill:#FFFFFF;" d="M12,0C5.4,0,0,5.4,0,12s5.4,12,12,12c6.6,0,12-5.4,12-12S18.6,0,12,0z M6.3,7.8l6.2-3.6c0.2-0.1,0.5-0.1,0.7,0
	l3.9,2.3c0.4,0.2,0.5,0.8,0.1,1.1L16,8.9c-0.2,0.2-0.6,0.3-0.8,0.1L13.3,8c-0.2-0.1-0.5-0.1-0.7,0L6,11.8l0-3.3C6,8.2,6.1,8,6.3,7.8
	z M17.2,17.5l-3.9,2.3c-0.2,0.1-0.5,0.1-0.7,0l-6.2-3.6C6.1,16,6,15.8,6,15.6v-3l3.2-1.9v3c0,0.2,0.1,0.5,0.3,0.6l3,1.7
	c0.2,0.1,0.5,0.1,0.7,0l1.9-1.1c0.3-0.2,0.6-0.1,0.8,0.1l1.3,1.3C17.7,16.7,17.6,17.2,17.2,17.5z"/>
</svg>
