<svg width="24" height="24" viewBox="0 0 24 24" fill="none" xmlns="http://www.w3.org/2000/svg">
<path d="M12 2C6.48609 2 2 6.48609 2 12C2 17.5139 6.48609 22 12 22C17.5139 22 22 17.5139 22 12C22 6.48609 17.5145 2 12 2ZM7.60886 9.49625C6.14904 9.61841 4.87079 10.3869 4.06119 11.5152C3.81798 10.9738 3.68138 10.3747 3.68138 9.74335C3.68138 7.51058 5.37776 5.66761 7.54889 5.43273C7.28236 6.03409 7.13299 6.69876 7.13299 7.39841C7.13299 8.14915 7.30401 8.86101 7.60886 9.49625ZM7.54445 14.0534C6.19679 13.9063 5.03348 13.1394 4.34494 12.0444C5.02626 10.9611 6.17236 10.1992 7.50169 10.041C7.23683 10.6407 7.08857 11.3037 7.08857 12.0006C7.08857 12.7335 7.25237 13.4293 7.54445 14.0534ZM7.56999 14.5893C7.29013 15.2034 7.13243 15.8842 7.13243 16.6021C7.13243 17.3373 7.29735 18.0348 7.59054 18.6606C5.39886 18.4457 3.68083 16.5927 3.68083 14.3455C3.68083 13.7147 3.81742 13.115 4.06064 12.5736C4.86357 13.6914 6.12627 14.4571 7.56999 14.5893ZM11.2143 10.6795C10.453 10.0149 9.48459 9.58343 8.41901 9.4957C9.13254 8.4912 10.2614 7.8021 11.5541 7.68271C11.2731 8.29741 11.1149 8.97984 11.1149 9.69893C11.1149 10.0349 11.1493 10.3625 11.2143 10.6795ZM11.4492 11.6985C10.2809 11.5497 9.25637 10.9344 8.56894 10.0454C9.73724 10.1942 10.7617 10.8095 11.4492 11.6985ZM11.5225 12.2926C10.8217 13.2533 9.73669 13.9163 8.49509 14.0534C9.19585 13.0922 10.2809 12.4292 11.5225 12.2926ZM11.1954 13.4254C11.1438 13.7097 11.1149 14.0018 11.1149 14.3011C11.1149 15.0202 11.2726 15.7026 11.5541 16.3173C10.2975 16.2012 9.19474 15.5477 8.47898 14.5887C9.5118 14.491 10.4513 14.0684 11.1954 13.4254ZM11.5547 16.8498C10.8 17.9126 9.5801 18.6217 8.19357 18.6772C7.85596 18.0603 7.66383 17.3534 7.66383 16.6021C7.66383 15.9858 7.79377 15.3994 8.02643 14.8686C8.8388 15.9775 10.1076 16.731 11.5547 16.8498ZM12.0161 17.1163C12.8129 18.2358 14.0701 19.0054 15.5094 19.1448C14.7203 20.2303 13.4415 20.9383 12 20.9383C10.5768 20.9383 9.31134 20.2487 8.52063 19.187C9.96657 19.0376 11.2265 18.2519 12.0161 17.1163ZM11.99 12.6091C12.2232 13.1411 12.3543 13.728 12.3543 14.3455C12.3543 14.9457 12.2316 15.5177 12.0106 16.0374C11.7773 15.5055 11.6463 14.9185 11.6463 14.3011C11.6463 13.7008 11.769 13.1289 11.99 12.6091ZM11.6463 9.69948C11.6463 9.09923 11.769 8.52729 11.99 8.00755C12.2232 8.53951 12.3543 9.12644 12.3543 9.74391C12.3543 10.3442 12.2316 10.9161 12.0106 11.4358C11.7768 10.9033 11.6463 10.3164 11.6463 9.69948ZM12.7857 13.3649C13.5198 14.0057 14.4471 14.431 15.4677 14.5387C14.7747 15.4949 13.7014 16.1579 12.4714 16.3045C12.7363 15.7048 12.8846 15.0418 12.8846 14.3449C12.8851 14.0096 12.8507 13.6819 12.7857 13.3649ZM12.5125 12.2971C13.7186 12.4398 14.7753 13.0784 15.4699 14.0046C14.2639 13.8613 13.2072 13.2227 12.5125 12.2971ZM13.5825 12C14.531 11.6729 15.3478 11.061 15.9297 10.2664C16.1624 10.7978 16.2923 11.3842 16.2923 12C16.2923 12.6164 16.1624 13.2027 15.9297 13.7336C15.3478 12.939 14.531 12.3271 13.5825 12ZM12.5125 11.7035C13.2072 10.7778 14.2639 10.1387 15.4699 9.996C14.7753 10.9216 13.7186 11.5608 12.5125 11.7035ZM12.8046 10.619C12.8562 10.3347 12.8851 10.0426 12.8851 9.74335C12.8851 9.00983 12.7213 8.31462 12.4292 7.68993C13.6769 7.82598 14.7669 8.49342 15.4677 9.46071C14.456 9.56788 13.5359 9.98712 12.8046 10.619ZM12.4703 16.8398C13.9024 16.6888 15.1506 15.913 15.9391 14.7919C16.1935 15.3433 16.3362 15.9558 16.3362 16.6016C16.3362 17.3351 16.1524 18.0264 15.8292 18.6333C14.4488 18.5856 13.2311 17.8893 12.4703 16.8398ZM15.9391 9.20806C15.1506 8.08696 13.9029 7.31123 12.4703 7.1602C13.2311 6.11128 14.4488 5.41496 15.8298 5.36665C16.1529 5.97301 16.3367 6.66433 16.3367 7.39841C16.3367 8.0442 16.1935 8.65667 15.9391 9.20806ZM11.9845 6.92809C11.1821 5.80088 9.91327 5.02904 8.46121 4.89744C9.24749 3.78799 10.5402 3.06225 12 3.06225C13.4415 3.06225 14.7203 3.77023 15.5094 4.85579C14.0506 4.99683 12.7791 5.78477 11.9845 6.92809ZM11.4947 7.1552C10.0726 7.28958 8.82714 8.03809 8.02643 9.13199C7.79377 8.60059 7.66383 8.01421 7.66383 7.39841C7.66383 6.6821 7.8393 6.00633 8.14804 5.41052C9.5168 5.45105 10.7279 6.12738 11.4947 7.1552ZM8.01699 10.1903C8.6017 11.0222 9.43961 11.6629 10.418 12C9.43961 12.3376 8.6017 12.9784 8.01699 13.8097C7.76267 13.2583 7.61997 12.6458 7.61997 12C7.61941 11.3542 7.76267 10.7417 8.01699 10.1903ZM16.3845 9.98379C17.7627 10.1109 18.9549 10.8856 19.6556 12C18.9549 13.1144 17.7627 13.8891 16.3845 14.0162C16.6654 13.4015 16.8237 12.7191 16.8237 12C16.8231 11.2809 16.6654 10.599 16.3845 9.98379ZM16.43 5.38608C18.6117 5.61097 20.3186 7.45949 20.3186 9.69948C20.3186 10.3303 20.182 10.93 19.9388 11.4714C19.1331 10.3486 17.8626 9.58121 16.4106 9.45405C16.7032 8.82936 16.8676 8.13304 16.8676 7.39897C16.8676 6.68099 16.7099 5.99967 16.43 5.38608ZM16.4106 14.5465C17.8626 14.4193 19.1331 13.652 19.9388 12.5292C20.182 13.0706 20.3186 13.6697 20.3186 14.3011C20.3186 16.5411 18.6117 18.3896 16.43 18.6145C16.7099 18.0009 16.867 17.3196 16.867 16.6021C16.8676 15.8675 16.7032 15.1712 16.4106 14.5465Z" fill="white"/>
</svg>
