<svg version="1.1" xmlns="http://www.w3.org/2000/svg" x="0px" y="0px" viewBox="0 0 24 24">
<path style="fill:#ffffff;" d="M5.1,6.6c0.7,0,1.3,0.6,1.3,1.3c0,0.6-0.4,1-0.9,1.2v6.7c0.9,0,1.8-0.2,2.5-0.5v-5.1
	C7.6,10,7.3,9.6,7.3,9c0-0.7,0.6-1.3,1.3-1.3S9.9,8.3,9.9,9c0,0.6-0.4,1-0.9,1.2v4.7c0.8-0.5,1.5-1.1,2-1.8
	c-0.3-0.3-0.5-0.7-0.5-1.1c0-0.8,0.7-1.5,1.5-1.5c0.1,0,0.1,0,0.2,0c1.1-2,3.6-3.2,6.5-3.2h0.1h4.7c0.2,0,0.4,0.2,0.4,0.4
	c0,0.2-0.2,0.4-0.4,0.4l0,0h-0.8v6.7c0.5,0.2,0.9,0.7,0.9,1.2c0,0.7-0.6,1.3-1.3,1.3c-0.7,0-1.3-0.6-1.3-1.3c0-0.6,0.4-1,0.9-1.2
	V8.1h-2.5v6.7c0.5,0.2,0.9,0.7,0.9,1.2c0,0.7-0.6,1.3-1.3,1.3s-1.3-0.6-1.3-1.3c0-0.6,0.4-1,0.9-1.2V8.1c-0.9,0-1.8,0.2-2.5,0.5v5.1
	c0.5,0.2,0.9,0.7,0.9,1.2c0,0.7-0.6,1.3-1.3,1.3s-1.3-0.6-1.3-1.3c0-0.6,0.4-1,0.9-1.2V9c-0.8,0.5-1.5,1.1-2,1.8
	c0.3,0.3,0.5,0.7,0.5,1.1c0,0.8-0.7,1.5-1.5,1.5c-0.1,0-0.1,0-0.2,0c-1.1,2-3.6,3.2-6.5,3.2H5.5H0.4c-0.2,0-0.4-0.2-0.4-0.4
	c0-0.2,0.2-0.4,0.4-0.4l0,0h0.8V9.1C0.8,9,0.4,8.5,0.4,7.9c0-0.7,0.6-1.3,1.3-1.3S3,7.2,3,7.9c0,0.6-0.4,1-0.9,1.2v6.7h2.5V9.1
	C4.2,9,3.9,8.5,3.9,7.9C3.9,7.2,4.4,6.6,5.1,6.6z"/>
</svg>
