<svg width="24" height="24" viewBox="0 0 24 24" fill="none" xmlns="http://www.w3.org/2000/svg">
<path fill-rule="evenodd" clip-rule="evenodd" d="M6.95586 22C4.82254 22 3.07537 21.9989 3.07325 21.9976C3.07113 21.9963 3.069 21.9918 3.06853 21.9876C3.06777 21.981 3.06969 21.9794 3.0834 21.975C3.09205 21.9722 3.12108 21.9642 3.14791 21.9571C3.17474 21.9501 3.21439 21.9396 3.23603 21.9337C3.25767 21.9278 3.35291 21.9022 3.44769 21.8768C3.54247 21.8513 3.65328 21.8214 3.69393 21.8103C3.73459 21.7992 3.79548 21.7825 3.82925 21.7732C3.86301 21.7639 3.91577 21.7494 3.94649 21.741C3.97721 21.7325 4.03704 21.716 4.07944 21.7042C4.12185 21.6924 4.23373 21.6611 4.32806 21.6346C4.42239 21.6081 4.52826 21.5781 4.56333 21.568C4.59839 21.5579 4.65221 21.5425 4.68292 21.5338C4.71363 21.525 4.77449 21.5076 4.81818 21.495C4.86187 21.4824 5.04668 21.4283 5.22887 21.3749C5.41107 21.3214 5.5743 21.2733 5.5916 21.2681C5.60891 21.2629 5.63582 21.2547 5.6514 21.2499C5.66698 21.2452 5.75158 21.2196 5.83941 21.1931C5.92724 21.1666 6.03311 21.1346 6.07466 21.1219C6.11622 21.1092 6.1842 21.0884 6.22573 21.0756C6.26726 21.0628 6.34125 21.04 6.39015 21.0249C6.43906 21.0097 6.51731 20.9854 6.56405 20.9708C6.61078 20.9561 6.68832 20.9318 6.73635 20.9166C6.78439 20.9014 6.86332 20.8763 6.91175 20.861C6.96018 20.8456 7.05187 20.8163 7.11551 20.7959C7.17915 20.7755 7.34452 20.722 7.48299 20.6769C7.62146 20.6317 7.81193 20.5692 7.90627 20.5378C8.0006 20.5065 8.10009 20.4733 8.12736 20.4642C8.15463 20.4551 8.22898 20.4301 8.29258 20.4087C8.35619 20.3873 8.42416 20.3644 8.44363 20.3577C8.4631 20.3511 8.5116 20.3345 8.55141 20.3209C8.59122 20.3073 8.66627 20.2816 8.71819 20.2638C8.77012 20.246 8.82783 20.2262 8.84644 20.2198C8.87433 20.2103 8.88045 20.2071 8.88126 20.2015C8.88212 20.1956 8.88473 20.1946 8.90329 20.1931C8.91709 20.1919 8.94493 20.1845 8.98414 20.1715C9.01702 20.1606 9.08606 20.137 9.13755 20.119C9.18904 20.101 9.26092 20.0759 9.29727 20.0632C9.33363 20.0505 9.38887 20.0311 9.42003 20.0201C9.4512 20.0091 9.5043 19.9903 9.53803 19.9784C9.57177 19.9664 9.62274 19.9483 9.65131 19.9382C9.67987 19.928 9.7245 19.9121 9.75048 19.9028C9.77646 19.8935 9.81859 19.8784 9.8441 19.8692C9.86962 19.86 9.93333 19.8371 9.98568 19.8182C10.038 19.7993 10.1053 19.775 10.1352 19.7642C10.165 19.7534 10.2259 19.7312 10.2705 19.7148C10.3151 19.6985 10.3856 19.6727 10.4271 19.6573C10.4686 19.642 10.5366 19.617 10.5781 19.6017C10.6196 19.5863 10.6741 19.5661 10.6992 19.5568C10.7243 19.5474 10.7594 19.5343 10.7771 19.5276C10.7949 19.521 10.824 19.51 10.8417 19.5032C10.8595 19.4964 10.9002 19.481 10.9322 19.469C10.9641 19.457 11.019 19.4363 11.0541 19.4231C11.0891 19.4099 11.1515 19.3863 11.1925 19.3707C11.2336 19.355 11.2963 19.3312 11.3318 19.3177C11.3673 19.3042 11.4254 19.282 11.4609 19.2683C11.4963 19.2547 11.5484 19.2347 11.5767 19.2239C11.6049 19.2132 11.6679 19.1888 11.7167 19.1698C11.7654 19.1508 11.9445 19.0806 12.1146 19.0138C12.2847 18.9469 12.455 18.8797 12.4931 18.8645C12.5312 18.8493 12.6027 18.8206 12.652 18.8008C12.7014 18.781 12.7608 18.7571 12.7842 18.7477C12.8076 18.7382 12.8479 18.7219 12.8739 18.7113C12.8999 18.7007 12.97 18.6722 13.0297 18.648C13.0894 18.6237 13.1524 18.5981 13.1697 18.5909C13.187 18.5838 13.2391 18.5624 13.2853 18.5434C13.3316 18.5244 13.4113 18.4915 13.4624 18.4704C13.5135 18.4492 13.5836 18.4201 13.6182 18.4057C13.6529 18.3914 13.7393 18.3552 13.8102 18.3255C13.8811 18.2957 13.9855 18.2517 14.0422 18.2278C14.0989 18.2039 14.1609 18.1777 14.1799 18.1695C14.199 18.1613 14.2524 18.1385 14.2987 18.1188C14.345 18.0991 14.4169 18.0683 14.4584 18.0505C14.4999 18.0327 14.5594 18.007 14.5906 17.9935C14.6218 17.98 14.6774 17.956 14.7142 17.9401C14.7509 17.9242 14.8313 17.8892 14.8927 17.8624C14.9542 17.8356 15.0261 17.8042 15.0525 17.7926C15.0789 17.7809 15.1214 17.7622 15.1469 17.751C15.1724 17.7398 15.2149 17.721 15.2413 17.7093C15.2677 17.6976 15.3113 17.6783 15.3381 17.6665C15.365 17.6546 15.4244 17.6282 15.4703 17.6077C15.5161 17.5873 15.5861 17.556 15.626 17.5382C15.6658 17.5203 15.7323 17.4905 15.7739 17.4717C15.8154 17.453 15.8766 17.4254 15.91 17.4104C15.9433 17.3954 15.9862 17.376 16.0052 17.3672C16.0243 17.3585 16.0686 17.3383 16.1037 17.3223C16.1388 17.3063 16.2138 17.272 16.2705 17.2461C16.3271 17.2202 16.3918 17.1905 16.4143 17.18C16.4368 17.1695 16.4751 17.1519 16.4993 17.1408C16.5235 17.1297 16.5618 17.112 16.5843 17.1015C16.6068 17.0909 16.6457 17.0729 16.6708 17.0613C16.6959 17.0498 16.7391 17.0296 16.7668 17.0165C16.7945 17.0034 16.8405 16.9819 16.8691 16.9688C16.8977 16.9556 16.9465 16.9328 16.9777 16.9179C17.0088 16.9031 17.0676 16.8754 17.1083 16.8563C17.1489 16.8372 17.2165 16.8053 17.2584 16.7853C17.3003 16.7653 17.3767 16.7289 17.4283 16.7044C17.4799 16.6799 17.5755 16.634 17.6407 16.6025C17.706 16.571 17.8564 16.4982 17.9751 16.4408C18.0937 16.3834 18.2892 16.2875 18.4094 16.2278C18.5296 16.1681 18.6801 16.0933 18.7438 16.0616C18.8075 16.03 18.9031 15.9821 18.9562 15.9552C19.0094 15.9283 19.0858 15.8897 19.1262 15.8693C19.1665 15.849 19.2328 15.8154 19.2734 15.7945C19.3141 15.7737 19.3729 15.7437 19.4041 15.7279C19.4352 15.7121 19.4827 15.6878 19.5095 15.6739C19.5363 15.66 19.5809 15.6371 19.6086 15.623C19.6363 15.6089 19.6795 15.5866 19.7046 15.5736C19.7297 15.5605 19.7686 15.5403 19.7911 15.5288C19.8136 15.5172 19.8498 15.4985 19.8714 15.4871C19.893 15.4757 19.9277 15.4576 19.9485 15.447C19.9693 15.4363 20.004 15.4183 20.0256 15.4069C20.0472 15.3955 20.0805 15.3781 20.0996 15.3682C20.1186 15.3583 20.149 15.3424 20.1672 15.3328C20.1854 15.3232 20.2158 15.3072 20.2349 15.2973C20.2539 15.2874 20.2829 15.2721 20.2994 15.2634C20.3158 15.2546 20.3417 15.241 20.3568 15.233C20.372 15.2251 20.3979 15.2113 20.4145 15.2024C20.431 15.1934 20.4491 15.1838 20.4546 15.1809C20.4601 15.178 20.4672 15.1756 20.4703 15.1755C20.4748 15.1754 20.4756 15.1769 20.474 15.1823C20.4728 15.1861 20.4636 15.2128 20.4536 15.2417C20.4436 15.2706 20.4245 15.324 20.4112 15.3605C20.398 15.3971 20.3774 15.4526 20.3655 15.484C20.3537 15.5154 20.3334 15.5682 20.3205 15.6013C20.3076 15.6344 20.2854 15.69 20.2712 15.7248C20.257 15.7596 20.2354 15.8117 20.2231 15.8405C20.2109 15.8694 20.1905 15.9166 20.178 15.9455C20.1654 15.9743 20.1452 16.0202 20.1331 16.0473C20.121 16.0745 20.1013 16.1176 20.0894 16.143C20.0775 16.1685 20.0537 16.2192 20.0365 16.2557C20.0193 16.2922 19.9731 16.3853 19.9339 16.4625C19.8947 16.5398 19.8477 16.6304 19.8294 16.664C19.8112 16.6976 19.7882 16.74 19.7783 16.7582C19.7683 16.7764 19.7433 16.8211 19.7226 16.8576C19.7019 16.8941 19.6738 16.9431 19.6602 16.9664C19.6466 16.9898 19.6224 17.0308 19.6065 17.0575C19.5905 17.0842 19.5616 17.1321 19.5421 17.1638C19.5226 17.1956 19.483 17.2588 19.4541 17.3043C19.4251 17.3498 19.3802 17.4189 19.3542 17.458C19.3282 17.497 19.2865 17.5588 19.2614 17.5953C19.2363 17.6318 19.1996 17.6846 19.1797 17.7126C19.1598 17.7407 19.1315 17.7802 19.1167 17.8006C19.1019 17.821 19.0785 17.8529 19.0647 17.8716C19.0508 17.8903 19.0275 17.9215 19.0128 17.9411C18.9981 17.9606 18.9733 17.9932 18.9577 18.0136C18.9421 18.034 18.9157 18.068 18.8992 18.0892C18.8827 18.1104 18.8542 18.1466 18.836 18.1695C18.8177 18.1924 18.7835 18.2348 18.76 18.2636C18.7364 18.2925 18.6949 18.3425 18.6678 18.3747C18.6406 18.407 18.5948 18.4605 18.566 18.4936C18.5372 18.5267 18.4947 18.5749 18.4715 18.6006C18.4484 18.6264 18.4144 18.6641 18.3959 18.6844C18.3775 18.7048 18.3397 18.7457 18.312 18.7754C18.2843 18.8051 18.2277 18.8646 18.1862 18.9077C18.1446 18.9507 18.0668 19.029 18.0131 19.0817C17.9594 19.1344 17.8796 19.2108 17.8358 19.2515C17.7919 19.2922 17.7338 19.3453 17.7067 19.3696C17.6796 19.3938 17.6327 19.4355 17.6026 19.4622C17.5724 19.4888 17.5314 19.5246 17.5115 19.5415C17.4916 19.5585 17.4462 19.5967 17.4106 19.6265C17.375 19.6562 17.3183 19.7028 17.2845 19.73C17.2508 19.7572 17.1984 19.7989 17.1681 19.8227C17.1378 19.8465 17.0875 19.8854 17.0563 19.9092C17.0252 19.933 16.9735 19.9718 16.9415 19.9954C16.9095 20.019 16.8585 20.0561 16.8282 20.0779C16.7979 20.0996 16.7476 20.1352 16.7165 20.157C16.6853 20.1787 16.6343 20.214 16.6032 20.2353C16.572 20.2566 16.5097 20.2982 16.4647 20.3277C16.4197 20.3572 16.3588 20.3965 16.3294 20.415C16.2999 20.4335 16.2553 20.4614 16.2302 20.4769C16.2051 20.4925 16.1655 20.5167 16.1421 20.5308C16.1188 20.5449 16.0784 20.569 16.0524 20.5843C16.0265 20.5997 15.99 20.621 15.9713 20.6316C15.9527 20.6423 15.9145 20.664 15.8864 20.68C15.8583 20.6959 15.8275 20.7131 15.818 20.7183C15.8085 20.7235 15.7858 20.736 15.7676 20.7461C15.7495 20.7562 15.7169 20.7738 15.6952 20.7854C15.6736 20.7969 15.6414 20.8139 15.6238 20.8231C15.6061 20.8324 15.5643 20.8542 15.5309 20.8715C15.4975 20.8889 15.4185 20.9284 15.3554 20.9593C15.2922 20.9902 15.2181 21.0257 15.1908 21.0383C15.1634 21.0508 15.1252 21.0684 15.1058 21.0773C15.0864 21.0863 15.0521 21.1018 15.0296 21.1118C15.0071 21.1217 14.9654 21.1401 14.9368 21.1526C14.9082 21.1651 14.8558 21.1875 14.8204 21.2024C14.7849 21.2173 14.7339 21.2383 14.7071 21.2492C14.6802 21.2601 14.6321 21.2792 14.6001 21.2917C14.568 21.3042 14.522 21.322 14.4978 21.3313C14.4736 21.3405 14.4289 21.3572 14.3987 21.3683C14.3684 21.3794 14.3181 21.3975 14.2869 21.4086C14.2558 21.4196 14.1956 21.4404 14.1532 21.4547C14.1108 21.4691 14.0391 21.4928 13.9938 21.5074C13.9486 21.5219 13.8728 21.5456 13.8255 21.5599C13.7781 21.5743 13.7068 21.5952 13.667 21.6065C13.6272 21.6178 13.5641 21.6352 13.5269 21.6452C13.4897 21.6552 13.4239 21.6724 13.3806 21.6835C13.3373 21.6946 13.2686 21.7115 13.2279 21.721C13.1873 21.7305 13.1264 21.7445 13.0926 21.752C13.0589 21.7595 13.0146 21.7692 12.9943 21.7734C12.974 21.7777 12.94 21.7846 12.9188 21.7889C12.8976 21.7932 12.8675 21.7993 12.8519 21.8026C12.8363 21.8058 12.8048 21.8119 12.7818 21.8162C12.7589 21.8205 12.7249 21.8268 12.7063 21.8302C12.6877 21.8337 12.6647 21.8379 12.6552 21.8396C12.6457 21.8414 12.6173 21.8463 12.5922 21.8505C12.5671 21.8548 12.5254 21.8617 12.4994 21.8658C12.4734 21.87 12.4295 21.8769 12.4018 21.8811C12.374 21.8853 12.3309 21.8915 12.3058 21.895C12.2807 21.8984 12.251 21.9027 12.2398 21.9044C12.2285 21.9061 12.191 21.911 12.1564 21.9153C12.1218 21.9196 12.0757 21.9253 12.0541 21.9279C12.0325 21.9304 11.9956 21.9346 11.9723 21.937C11.9489 21.9395 11.9092 21.9436 11.8842 21.9462C11.8591 21.9487 11.8152 21.9529 11.7866 21.9555C11.758 21.9581 11.7099 21.9621 11.6796 21.9645C11.6493 21.9669 11.6043 21.9703 11.5797 21.9721C11.555 21.9739 11.5146 21.9768 11.49 21.9785C11.4653 21.9802 11.4267 21.9824 11.4042 21.9833C11.3817 21.9843 11.3392 21.9863 11.3098 21.9879C11.2804 21.9895 11.2266 21.9915 11.1902 21.9925C11.1539 21.9935 11.059 21.9956 10.9794 21.9971C10.8952 21.9988 9.21236 22 6.95586 22ZM3.06599 19.8321C3.06345 19.8323 3.04933 19.8312 3.03462 19.8296C3.01615 19.8276 3.00665 19.8252 3.00393 19.8217C3.0008 19.8176 3 19.3617 3 17.5658C3 15.7688 3.00079 15.3144 3.00393 15.312C3.0061 15.3104 3.09142 15.2857 3.19354 15.2572C3.29567 15.2286 3.39976 15.1994 3.42485 15.1921C3.44995 15.1849 3.49598 15.1717 3.52713 15.1629C3.55829 15.154 3.61672 15.1373 3.65698 15.1257C3.69724 15.1141 3.75955 15.096 3.79545 15.0855C3.83135 15.0751 3.88657 15.0591 3.91817 15.05C3.94977 15.0409 3.98801 15.0299 4.00314 15.0256C4.01828 15.0212 4.04412 15.0136 4.06056 15.0086C4.077 15.0037 4.12869 14.9884 4.17543 14.9746C4.22216 14.9608 4.27173 14.9463 4.28557 14.9422C4.29942 14.9381 4.35501 14.9215 4.4091 14.9053C4.46319 14.8892 4.53258 14.8684 4.5633 14.8592C4.59403 14.85 4.64961 14.8332 4.68682 14.8219C4.72404 14.8106 4.77431 14.7953 4.79855 14.7879C4.82278 14.7806 4.88614 14.7612 4.93935 14.7449C4.99257 14.7286 5.07434 14.7035 5.12107 14.689C5.16781 14.6746 5.23969 14.6524 5.28081 14.6396C5.32193 14.6269 5.39275 14.6047 5.43819 14.5903C5.48363 14.576 5.55444 14.5536 5.59554 14.5407C5.63665 14.5278 5.70887 14.5048 5.75604 14.4897C5.8032 14.4746 5.91296 14.4394 5.99993 14.4115C6.08691 14.3835 6.22251 14.3396 6.30127 14.3138C6.38002 14.2881 6.51491 14.2436 6.60103 14.2149C6.68714 14.1863 6.81106 14.145 6.87639 14.1232C6.94173 14.1013 7.04901 14.0651 7.11478 14.0427C7.18055 14.0203 7.26658 13.9909 7.30594 13.9774C7.34531 13.9639 7.45186 13.9272 7.54273 13.8957C7.63359 13.8643 7.74513 13.8256 7.79058 13.8098C7.83603 13.7939 7.9288 13.7612 7.99672 13.7372C8.06464 13.7132 8.18006 13.6722 8.2532 13.6461C8.32635 13.62 8.44851 13.5762 8.52466 13.5487C8.60082 13.5212 8.71837 13.4785 8.78587 13.4539C8.85338 13.4292 8.91533 13.4063 8.92355 13.4028C8.93333 13.3988 8.9385 13.3947 8.9385 13.3912C8.9385 13.3882 8.94164 13.3849 8.94558 13.3839C8.94948 13.3829 8.95947 13.382 8.96778 13.382C8.97803 13.382 8.99476 13.3775 9.01971 13.3681C9.03995 13.3605 9.08343 13.3444 9.11631 13.3323C9.1492 13.3202 9.19027 13.3051 9.20758 13.2988C9.22489 13.2924 9.26171 13.2788 9.2894 13.2685C9.31709 13.2582 9.36208 13.2414 9.38938 13.2311C9.41667 13.2209 9.46482 13.2028 9.49638 13.191C9.52793 13.1791 9.5817 13.1588 9.61585 13.1459C9.65001 13.133 9.69425 13.1162 9.71418 13.1086C9.7341 13.101 9.77201 13.0866 9.79842 13.0767C9.82482 13.0667 9.87017 13.0494 9.89919 13.0382C9.9282 13.0271 9.9845 13.0054 10.0243 12.9901C10.0641 12.9747 10.1256 12.951 10.1611 12.9373C10.1965 12.9236 10.3126 12.8784 10.4191 12.8369C10.5255 12.7953 10.6509 12.746 10.6977 12.7275C10.7445 12.7089 10.816 12.6805 10.8567 12.6643C10.8973 12.6482 10.9582 12.6239 10.992 12.6104C11.0258 12.5969 11.0881 12.5718 11.1304 12.5547C11.1728 12.5376 11.2319 12.5138 11.2618 12.5018C11.2917 12.4898 11.3374 12.4712 11.3633 12.4606C11.3893 12.4499 11.4608 12.4207 11.5222 12.3956C11.5837 12.3706 11.6619 12.3385 11.6961 12.3244C11.7304 12.3102 11.7768 12.291 11.7993 12.2817C11.8218 12.2724 11.8756 12.2501 11.9188 12.2322C11.962 12.2142 12.0721 12.1682 12.1634 12.1299C12.2547 12.0915 12.3705 12.0428 12.4207 12.0215C12.4709 12.0002 12.5343 11.9732 12.5615 11.9616C12.5888 11.9499 12.6277 11.9333 12.6481 11.9246C12.6684 11.916 12.7021 11.9015 12.7228 11.8926C12.7436 11.8836 12.7787 11.8685 12.8008 11.859C12.8228 11.8495 12.8763 11.8265 12.9196 11.8078C12.9628 11.7891 13.0414 11.755 13.0942 11.732C13.1469 11.709 13.2184 11.6778 13.2531 11.6626C13.2878 11.6474 13.349 11.6205 13.3893 11.6028C13.4295 11.5851 13.5081 11.5504 13.5639 11.5256C13.6197 11.5008 13.7121 11.4597 13.7692 11.4342C13.8263 11.4087 13.9081 11.3721 13.951 11.3528C13.9938 11.3336 14.0714 11.2987 14.1233 11.2752C14.1752 11.2517 14.2347 11.2247 14.2555 11.2151C14.2762 11.2056 14.3385 11.177 14.3939 11.1518C14.4493 11.1265 14.5119 11.0978 14.533 11.0879C14.5541 11.0781 14.5895 11.0618 14.6117 11.0518C14.6338 11.0418 14.6718 11.0242 14.6961 11.0128C14.7203 11.0014 14.7606 10.9827 14.7857 10.9712C14.8108 10.9597 14.8526 10.9403 14.8786 10.928C14.9045 10.9158 14.9477 10.8956 14.9746 10.8832C15.0014 10.8709 15.0488 10.8487 15.08 10.8339C15.1111 10.8191 15.1685 10.7921 15.2074 10.7739C15.2464 10.7557 15.3125 10.7244 15.3544 10.7044C15.3963 10.6844 15.4735 10.6476 15.5259 10.6227C15.5784 10.5978 15.674 10.5519 15.7383 10.5208C15.8027 10.4897 15.945 10.4209 16.0546 10.3679C16.1642 10.3149 16.344 10.2267 16.4543 10.1719C16.5645 10.1171 16.7069 10.0463 16.7706 10.0146C16.8343 9.98288 16.9299 9.93498 16.983 9.90815C17.0362 9.88132 17.1112 9.84343 17.1498 9.82395C17.1884 9.80447 17.2536 9.7713 17.2948 9.75024C17.3359 9.72918 17.3947 9.69921 17.4254 9.68363C17.4561 9.66805 17.5039 9.64355 17.5316 9.62919C17.5592 9.61482 17.601 9.5933 17.6244 9.58137C17.6478 9.56944 17.6874 9.54897 17.7125 9.53588C17.7376 9.52279 17.7766 9.50264 17.7991 9.49111C17.8216 9.47957 17.8577 9.46082 17.8793 9.44942C17.9009 9.43803 17.9356 9.41999 17.9564 9.40934C17.9772 9.39868 18.0105 9.3813 18.0304 9.3707C18.0503 9.36011 18.0821 9.34345 18.1012 9.33368C18.1202 9.32392 18.1492 9.30868 18.1657 9.29982C18.1821 9.29096 18.2112 9.27562 18.2302 9.26573C18.2492 9.25584 18.2783 9.24059 18.2947 9.23183C18.3112 9.22308 18.3388 9.2085 18.3561 9.19944C18.3734 9.19039 18.3996 9.17647 18.4143 9.16853C18.429 9.16058 18.4552 9.1467 18.4725 9.13769C18.4898 9.12867 18.516 9.11478 18.5307 9.10681C18.5455 9.09885 18.5702 9.08564 18.5858 9.07745C18.6014 9.06926 18.6265 9.05589 18.6415 9.04774C18.6566 9.03959 18.6799 9.02708 18.6934 9.01995C18.7069 9.01282 18.7303 9.00032 18.7454 8.99217C18.7604 8.98402 18.7834 8.97167 18.7964 8.96473C18.8094 8.95778 18.8311 8.94623 18.8446 8.93905C18.858 8.93187 18.8786 8.9208 18.8902 8.91445C18.9019 8.90809 18.9231 8.8965 18.9374 8.8887C18.9518 8.88089 18.9734 8.86919 18.9855 8.86271C18.9976 8.85623 19.0383 8.83421 19.076 8.81378C19.1137 8.79336 19.1646 8.76568 19.1893 8.75229C19.2139 8.7389 19.2585 8.71456 19.2884 8.69821C19.3182 8.68185 19.3706 8.65309 19.4048 8.63429C19.439 8.6155 19.4755 8.59551 19.4859 8.58987C19.4963 8.58423 19.5303 8.56549 19.5614 8.54822C19.5926 8.53095 19.6266 8.51221 19.6369 8.50658C19.6473 8.50095 19.676 8.4851 19.7007 8.47136C19.7254 8.45762 19.7672 8.43429 19.7935 8.41951C19.8199 8.40473 19.856 8.38461 19.8738 8.3748C19.8916 8.365 19.9135 8.35288 19.9226 8.34787C19.9316 8.34286 19.9617 8.326 19.9894 8.31039C20.0171 8.29479 20.0468 8.27812 20.0555 8.27335C20.0641 8.26859 20.0847 8.25711 20.1011 8.24786C20.1176 8.2386 20.1443 8.22354 20.1605 8.2144C20.1767 8.20525 20.1951 8.1932 20.2014 8.1876C20.2103 8.17966 20.2151 8.17763 20.2232 8.17834C20.2328 8.17917 20.2344 8.18089 20.2415 8.19777C20.2458 8.20796 20.2526 8.22463 20.2566 8.23482C20.2605 8.245 20.2762 8.28389 20.2913 8.32124C20.3064 8.35859 20.3337 8.42805 20.3519 8.47558C20.3702 8.52312 20.3956 8.59118 20.4086 8.62683C20.4215 8.66248 20.4441 8.7256 20.4587 8.76709C20.4733 8.80858 20.4988 8.88429 20.5153 8.93532C20.5318 8.98635 20.5552 9.06005 20.5673 9.0991C20.5794 9.13815 20.5983 9.20135 20.6093 9.23955C20.6204 9.27775 20.6394 9.34512 20.6516 9.38926C20.6638 9.4334 20.6866 9.52021 20.7023 9.58218C20.718 9.64414 20.7394 9.73223 20.7498 9.77792C20.7603 9.82362 20.7721 9.8764 20.7761 9.89522C20.7802 9.91404 20.7872 9.9468 20.7917 9.96802C20.7962 9.98924 20.8035 10.0247 20.8079 10.0467C20.8123 10.0688 20.82 10.1087 20.8251 10.1355C20.8302 10.1622 20.8379 10.2032 20.8423 10.2265C20.8466 10.2499 20.8551 10.2981 20.8612 10.3338C20.8673 10.3694 20.8765 10.4261 20.8816 10.4596C20.8868 10.4931 20.8937 10.539 20.8971 10.5614C20.9004 10.5839 20.9061 10.6239 20.9097 10.6502C20.9133 10.6765 20.9197 10.7262 20.924 10.7606C20.9282 10.7949 20.9338 10.8415 20.9365 10.864C20.9391 10.8864 20.9434 10.926 20.946 10.9519C20.9487 10.9778 20.9529 11.0188 20.9555 11.043C20.9581 11.0672 20.961 11.0981 20.9619 11.1117C20.9629 11.1252 20.965 11.1495 20.9667 11.1657C20.9684 11.1818 20.9704 11.2068 20.9711 11.2212C20.9719 11.2357 20.974 11.2676 20.9759 11.2922C20.9777 11.3168 20.9813 11.3731 20.9839 11.4172C20.9864 11.4614 20.99 11.5274 20.9918 11.5639C20.9936 11.6004 20.9965 11.7059 20.9982 11.7985C20.9999 11.891 21.0005 12.0361 20.9996 12.121C20.9986 12.2059 20.9958 12.3267 20.9932 12.3896C20.9906 12.4524 20.9864 12.5406 20.9838 12.5856C20.9812 12.6306 20.9777 12.6861 20.9759 12.709C20.9741 12.732 20.9716 12.7531 20.9704 12.756C20.9692 12.7589 20.9589 12.7661 20.9477 12.7719C20.9364 12.7778 20.8947 12.8002 20.8548 12.8217C20.815 12.8432 20.7683 12.8682 20.751 12.8773C20.7337 12.8865 20.6841 12.9129 20.6408 12.936C20.5976 12.9592 20.5473 12.9859 20.5291 12.9954C20.511 13.0048 20.4826 13.0198 20.4662 13.0285C20.4497 13.0373 20.4221 13.0519 20.4048 13.0609C20.3875 13.07 20.3592 13.085 20.3419 13.0942C20.3246 13.1035 20.297 13.1181 20.2805 13.1267C20.2641 13.1353 20.2357 13.1501 20.2176 13.1597C20.1994 13.1693 20.1675 13.186 20.1468 13.1967C20.126 13.2075 20.0927 13.2249 20.0728 13.2354C20.0529 13.2459 20.0196 13.2633 19.9988 13.274C19.9781 13.2847 19.9434 13.3027 19.9217 13.314C19.9001 13.3254 19.8626 13.3448 19.8383 13.3573C19.8141 13.3697 19.7752 13.3899 19.7518 13.4021C19.7284 13.4142 19.6867 13.4358 19.659 13.4499C19.6313 13.4641 19.5852 13.4877 19.5567 13.5024C19.5281 13.5172 19.4793 13.5422 19.4481 13.558C19.417 13.5738 19.3624 13.6016 19.3269 13.6198C19.2915 13.638 19.2274 13.6705 19.1846 13.692C19.1419 13.7135 19.0555 13.7571 18.9927 13.7889C18.9299 13.8206 18.8258 13.8727 18.7614 13.9047C18.697 13.9366 18.5575 14.0058 18.4514 14.0583C18.3453 14.1109 18.1669 14.1984 18.0549 14.2527C17.9428 14.3071 17.7906 14.3809 17.7165 14.4167C17.6425 14.4526 17.5384 14.5025 17.4852 14.5278C17.432 14.553 17.3562 14.589 17.3168 14.6079C17.2774 14.6267 17.2161 14.6557 17.1807 14.6723C17.1452 14.6888 17.0892 14.7152 17.0563 14.7308C17.0235 14.7465 16.9732 14.7701 16.9446 14.7834C16.9161 14.7966 16.8693 14.8185 16.8407 14.832C16.8121 14.8454 16.7565 14.8713 16.7172 14.8894C16.6779 14.9076 16.6199 14.9343 16.5884 14.9489C16.5569 14.9635 16.5112 14.9847 16.4869 14.996C16.4626 15.0073 16.3974 15.0373 16.342 15.0626C16.2866 15.088 16.2236 15.1169 16.2019 15.1269C16.1803 15.1369 16.147 15.152 16.128 15.1605C16.1089 15.169 16.0778 15.1832 16.0587 15.1919C16.0397 15.2007 15.9873 15.2245 15.9423 15.2448C15.8973 15.265 15.847 15.2877 15.8306 15.2952C15.8141 15.3027 15.7844 15.316 15.7645 15.3249C15.7446 15.3337 15.7056 15.3511 15.6779 15.3636C15.6502 15.376 15.6163 15.3913 15.6024 15.3976C15.5886 15.4039 15.5652 15.4143 15.5505 15.4207C15.5358 15.4272 15.5124 15.4376 15.4986 15.4439C15.4847 15.4502 15.4461 15.4673 15.4128 15.4819C15.3794 15.4966 15.3256 15.5204 15.2932 15.5347C15.2607 15.5491 15.2087 15.5721 15.1776 15.5858C15.1464 15.5995 15.0551 15.6393 14.9746 15.6743C14.8941 15.7093 14.822 15.7409 14.8145 15.7445C14.8069 15.7481 14.8009 15.7523 14.8012 15.7539C14.8015 15.7554 14.7928 15.759 14.7819 15.7617C14.7711 15.7645 14.7338 15.7789 14.6992 15.7939C14.6646 15.8088 14.6079 15.8333 14.5733 15.8482C14.5387 15.8632 14.476 15.8901 14.434 15.9081C14.3921 15.9261 14.3255 15.9545 14.2861 15.9713C14.2468 15.9881 14.1678 16.0217 14.1107 16.0458C14.0536 16.07 13.9626 16.1083 13.9085 16.131C13.8544 16.1537 13.768 16.1898 13.7165 16.2113C13.665 16.2328 13.6087 16.2562 13.5914 16.2634C13.5741 16.2706 13.5331 16.2877 13.5002 16.3013C13.4673 16.315 13.4096 16.3388 13.3719 16.3542C13.3343 16.3696 13.2698 16.396 13.2287 16.4129C13.1876 16.4298 13.1196 16.4576 13.0777 16.4746C13.0357 16.4917 12.9737 16.5168 12.94 16.5305C12.9063 16.5441 12.8458 16.5686 12.8055 16.5849C12.7652 16.6011 12.6979 16.6281 12.656 16.6449C12.614 16.6617 12.5499 16.6873 12.5136 16.7018C12.4772 16.7162 12.4107 16.7426 12.3657 16.7605C12.3207 16.7783 12.206 16.8234 12.1107 16.8607C12.0155 16.898 11.9075 16.9403 11.8708 16.9547C11.834 16.969 11.7763 16.9914 11.7425 17.0044C11.7088 17.0174 11.6546 17.0383 11.6221 17.0508C11.5896 17.0633 11.5305 17.086 11.4907 17.1012C11.4509 17.1165 11.3882 17.1403 11.3515 17.1542C11.3147 17.1681 11.2655 17.1868 11.2422 17.1957C11.2188 17.2046 11.1784 17.2199 11.1525 17.2297C11.1265 17.2395 11.084 17.2554 11.058 17.2652C11.0321 17.2749 10.9684 17.2988 10.9164 17.3183C10.8645 17.3378 10.7286 17.3882 10.6143 17.4302C10.5001 17.4723 10.3613 17.5233 10.3059 17.5435C10.2505 17.5638 10.157 17.5977 10.0982 17.619C10.0393 17.6403 9.94092 17.6758 9.87947 17.6978C9.81803 17.7199 9.73483 17.7496 9.69458 17.7639C9.65434 17.7781 9.56831 17.8086 9.50341 17.8315C9.43851 17.8545 9.35602 17.8836 9.3201 17.8962C9.28418 17.9088 9.21301 17.9337 9.16194 17.9514C9.11088 17.9692 9.00042 18.0074 8.91647 18.0363C8.83253 18.0652 8.71039 18.107 8.64505 18.1292C8.57972 18.1514 8.45864 18.1924 8.37598 18.2203C8.29332 18.2482 8.17358 18.2882 8.10989 18.3093C8.0462 18.3304 7.866 18.3895 7.70944 18.4407C7.55288 18.4919 7.37274 18.5506 7.30912 18.5711C7.24551 18.5916 7.14956 18.6223 7.0959 18.6392C7.04224 18.6561 6.96648 18.6801 6.92753 18.6926C6.88859 18.705 6.81389 18.7286 6.76154 18.7449C6.70919 18.7612 6.62174 18.7885 6.56721 18.8054C6.51268 18.8223 6.43159 18.8475 6.38702 18.8612C6.34245 18.875 6.27234 18.8965 6.23122 18.909C6.1901 18.9215 6.12637 18.9409 6.0896 18.9522C6.05284 18.9634 5.99763 18.9801 5.96693 18.9894C5.93622 18.9986 5.88348 19.0145 5.84972 19.0247C5.81596 19.0348 5.76284 19.0508 5.73167 19.0601C5.70051 19.0694 5.65164 19.084 5.62308 19.0924C5.59451 19.1009 5.49819 19.1293 5.40903 19.1556C5.31987 19.1818 5.21118 19.2137 5.1675 19.2264C5.12382 19.2392 5.03743 19.2642 4.97553 19.282C4.91364 19.2998 4.83115 19.3235 4.79223 19.3347C4.75332 19.3458 4.685 19.3653 4.64042 19.378C4.59584 19.3906 4.44324 19.4335 4.30131 19.4731C4.15938 19.5128 3.99156 19.5595 3.92838 19.577C3.86521 19.5944 3.76075 19.623 3.69625 19.6406C3.63176 19.6581 3.55103 19.6801 3.51687 19.6894C3.4827 19.6988 3.39385 19.7225 3.31943 19.7423C3.245 19.762 3.16569 19.783 3.14319 19.789C3.12069 19.7949 3.09672 19.8015 3.08992 19.8036C3.0794 19.8068 3.07705 19.8092 3.07409 19.8195C3.07218 19.8262 3.06854 19.8318 3.06599 19.8321ZM3.00157 8.67622C3.0406 8.6634 3.08379 8.64981 3.12274 8.63776C3.16168 8.62571 3.23071 8.60407 3.27614 8.58967C3.32157 8.57527 3.40655 8.54831 3.46497 8.52976C3.52339 8.51121 3.63387 8.47583 3.71047 8.45114C3.78707 8.42644 3.9301 8.37997 4.02832 8.34786C4.12654 8.31575 4.27275 8.26765 4.35324 8.24098C4.43372 8.21431 4.54029 8.17874 4.59005 8.16194C4.63981 8.14513 4.72124 8.11769 4.771 8.10094C4.82077 8.0842 4.89653 8.0585 4.93937 8.04384C4.98221 8.02917 5.0601 8.00248 5.11246 7.98453C5.16482 7.96657 5.25122 7.93674 5.30446 7.91824C5.35769 7.89974 5.4547 7.86591 5.52003 7.84307C5.58536 7.82023 5.69793 7.7806 5.77019 7.755C5.84244 7.7294 5.94229 7.69396 5.99206 7.67624C6.04183 7.65852 6.12115 7.63009 6.16833 7.61307C6.21551 7.59605 6.29445 7.56747 6.34376 7.54957C6.39306 7.53167 6.46138 7.50683 6.49557 7.49437C6.52977 7.48191 6.61157 7.4519 6.67734 7.42768C6.74311 7.40346 6.83199 7.37065 6.87484 7.35477C6.91769 7.33889 6.99736 7.30921 7.05187 7.28881C7.10639 7.26842 7.19345 7.23569 7.24534 7.21608C7.29724 7.19648 7.37264 7.16795 7.41291 7.15268C7.45319 7.13742 7.51337 7.11448 7.54665 7.10171C7.57993 7.08895 7.63445 7.06802 7.66781 7.05522C7.70117 7.04241 7.75501 7.02166 7.78747 7.00909C7.81992 6.99652 7.88082 6.97287 7.92279 6.95652C7.96476 6.94018 8.00406 6.92454 8.01012 6.92177C8.01618 6.919 8.02114 6.91466 8.02114 6.91212C8.02114 6.90874 8.02616 6.90706 8.04002 6.90581C8.0549 6.90446 8.09554 6.88962 8.23199 6.83573C8.32719 6.79813 8.42243 6.76036 8.44363 6.75179C8.46484 6.74323 8.50484 6.72717 8.53252 6.71611C8.56021 6.70505 8.60342 6.68775 8.62856 6.67765C8.65369 6.66756 8.70079 6.64865 8.73321 6.63563C8.76564 6.62261 8.82228 6.59969 8.8591 6.5847C8.89591 6.5697 8.95007 6.54763 8.97945 6.53565C9.00883 6.52366 9.05981 6.50282 9.09274 6.48933C9.12566 6.47584 9.17808 6.45435 9.20922 6.44158C9.24036 6.42881 9.29273 6.40722 9.3256 6.39359C9.35847 6.37996 9.41758 6.35548 9.45697 6.33918C9.49635 6.32288 9.5392 6.30501 9.55218 6.29948C9.56516 6.29395 9.66288 6.25291 9.76933 6.20828C9.87578 6.16366 9.98128 6.11926 10.0038 6.10962C10.0263 6.09998 10.0751 6.07913 10.1124 6.06328C10.1496 6.04743 10.1977 6.0269 10.2194 6.01766C10.241 6.00841 10.2757 5.9935 10.2965 5.98453C10.3172 5.97555 10.364 5.9554 10.4003 5.93974C10.4367 5.92409 10.477 5.90681 10.49 5.90135C10.503 5.89589 10.5625 5.87019 10.6222 5.84424C10.6819 5.81828 10.77 5.77983 10.818 5.75878C10.8661 5.73773 10.9273 5.71087 10.9542 5.69907C10.9811 5.68728 11.0441 5.6595 11.0942 5.63734C11.1444 5.61517 11.2152 5.58384 11.2515 5.56772C11.2879 5.5516 11.3435 5.52686 11.3751 5.51275C11.4067 5.49863 11.4885 5.46202 11.5569 5.43138C11.6252 5.40075 11.7353 5.35113 11.8015 5.32112C11.8676 5.29111 11.942 5.25741 11.9667 5.24621C11.9914 5.23502 12.0265 5.21896 12.0447 5.21052C12.0628 5.20208 12.094 5.18787 12.1139 5.17896C12.1338 5.17004 12.1671 5.15477 12.1878 5.14502C12.2086 5.13528 12.2419 5.11998 12.2618 5.11102C12.2817 5.10207 12.3157 5.08644 12.3373 5.0763C12.359 5.06615 12.3951 5.04947 12.4176 5.03923C12.4401 5.02898 12.4783 5.01128 12.5025 4.99989C12.5268 4.9885 12.5671 4.96977 12.5922 4.95826C12.6173 4.94676 12.6605 4.92658 12.6882 4.91343C12.7159 4.90027 12.7619 4.87878 12.7905 4.86566C12.8191 4.85253 12.8679 4.82966 12.8991 4.81482C12.9302 4.79998 12.9848 4.77427 13.0202 4.75768C13.0557 4.7411 13.1173 4.71193 13.1571 4.69287C13.1969 4.6738 13.2685 4.6398 13.3161 4.61731C13.3637 4.59482 13.4547 4.55125 13.5183 4.5205C13.582 4.48975 13.7052 4.43034 13.7921 4.38846C13.8791 4.34659 14.0302 4.27308 14.128 4.22511C14.2258 4.17714 14.3756 4.10307 14.4609 4.06049C14.5462 4.01793 14.6665 3.9579 14.7284 3.9271C14.7902 3.8963 14.8798 3.85131 14.9274 3.82712C14.975 3.80293 15.0465 3.76678 15.0863 3.74677C15.1261 3.72677 15.1863 3.6962 15.22 3.67885C15.2538 3.66149 15.3069 3.63437 15.3381 3.61858C15.3692 3.60279 15.4166 3.5785 15.4435 3.56461C15.4703 3.55071 15.5135 3.5285 15.5395 3.51525C15.5654 3.502 15.6058 3.48116 15.6292 3.46893C15.6525 3.45671 15.6915 3.43653 15.7157 3.4241C15.7399 3.41166 15.7838 3.38899 15.8133 3.37371C15.8427 3.35843 15.873 3.34188 15.8807 3.33692C15.8901 3.33083 15.8974 3.32831 15.9033 3.32915C15.9081 3.32984 15.9174 3.33396 15.924 3.33832C15.9306 3.34267 15.9547 3.35678 15.9775 3.36967C16.0003 3.38256 16.0403 3.4057 16.0663 3.42108C16.0924 3.43646 16.1318 3.45985 16.1539 3.47307C16.176 3.48628 16.2231 3.51512 16.2586 3.53716C16.294 3.55919 16.3592 3.60057 16.4033 3.62912C16.4475 3.65767 16.5147 3.70193 16.5528 3.72749C16.5909 3.75304 16.6504 3.79361 16.685 3.81764C16.7196 3.84167 16.7777 3.88265 16.814 3.90871C16.8504 3.93477 16.9056 3.97495 16.9368 3.99799C16.9679 4.02104 17.009 4.05162 17.028 4.06595C17.0471 4.08029 17.0793 4.10494 17.0996 4.12074C17.12 4.13654 17.154 4.16307 17.1752 4.1797C17.1964 4.19632 17.2279 4.22121 17.2452 4.235C17.2625 4.24879 17.305 4.28321 17.3396 4.31149C17.3742 4.33977 17.4201 4.37775 17.4416 4.39589C17.4631 4.41403 17.51 4.45435 17.5459 4.4855C17.5819 4.51665 17.6296 4.55832 17.652 4.57811C17.6745 4.59789 17.7312 4.64916 17.7781 4.69204C17.825 4.73493 17.9308 4.83616 18.0131 4.91699C18.0955 4.99783 18.1972 5.10008 18.239 5.14422C18.2809 5.18835 18.335 5.24592 18.3592 5.27214C18.3835 5.29836 18.4177 5.33581 18.4352 5.35537C18.4528 5.37492 18.5009 5.42951 18.5422 5.47669C18.5835 5.52385 18.6289 5.57617 18.643 5.59294C18.6572 5.60971 18.6798 5.63664 18.6934 5.65279C18.7069 5.66893 18.7372 5.70574 18.7607 5.73458C18.7842 5.76343 18.8218 5.80995 18.8442 5.83796C18.8666 5.86598 18.9169 5.93057 18.9559 5.9815C18.9949 6.03243 19.0507 6.10674 19.0799 6.14664C19.1091 6.18653 19.1507 6.24418 19.1724 6.27474C19.194 6.30529 19.2308 6.35785 19.254 6.39152C19.2772 6.42519 19.2969 6.45525 19.2977 6.45832C19.2989 6.46276 19.2907 6.46861 19.2572 6.48719C19.2341 6.50001 19.1603 6.54038 19.0932 6.57691C19.0261 6.61344 18.9401 6.66012 18.9021 6.68065C18.8641 6.70117 18.7873 6.74263 18.7314 6.77277C18.6756 6.80291 18.6178 6.8339 18.6031 6.84164C18.5884 6.84938 18.5636 6.86264 18.5481 6.87112C18.5325 6.8796 18.5084 6.89251 18.4946 6.89981C18.4807 6.90711 18.4559 6.92033 18.4395 6.9292C18.423 6.93806 18.3964 6.95228 18.3803 6.96079C18.3642 6.9693 18.3161 6.99483 18.2734 7.01751C18.2308 7.0402 18.1784 7.06799 18.157 7.07926C18.1356 7.09054 18.0779 7.1209 18.0288 7.14674C17.9797 7.17258 17.9234 7.20208 17.9039 7.21229C17.8843 7.2225 17.8499 7.24056 17.8274 7.2524C17.8049 7.26425 17.7702 7.28236 17.7503 7.29264C17.7304 7.30292 17.6964 7.32061 17.6747 7.33195C17.6531 7.34329 17.6156 7.36274 17.5913 7.37516C17.5671 7.38759 17.5282 7.40779 17.5048 7.42005C17.4814 7.43232 17.4411 7.45316 17.4151 7.46638C17.3891 7.4796 17.346 7.5018 17.3191 7.51572C17.2923 7.52963 17.2463 7.55324 17.2168 7.56817C17.1874 7.5831 17.1371 7.60882 17.1051 7.62532C17.0731 7.64183 17.0157 7.671 16.9777 7.69015C16.9396 7.7093 16.8667 7.74614 16.8156 7.77202C16.7645 7.79791 16.6679 7.84636 16.6009 7.8797C16.5339 7.91305 16.4022 7.97861 16.3082 8.02541C16.2143 8.0722 16.0546 8.15114 15.9533 8.20082C15.852 8.2505 15.6952 8.3268 15.6048 8.37037C15.5144 8.41394 15.387 8.47547 15.3216 8.5071C15.2562 8.53873 15.1638 8.58299 15.1162 8.60546C15.0686 8.62794 14.9985 8.66122 14.9604 8.67944C14.9223 8.69765 14.8621 8.72612 14.8267 8.74271C14.7912 8.75929 14.7381 8.78426 14.7086 8.79818C14.6792 8.8121 14.6332 8.83363 14.6064 8.84602C14.5795 8.85842 14.5349 8.87925 14.5072 8.89233C14.4795 8.90541 14.4363 8.92555 14.4112 8.93711C14.3861 8.94866 14.3472 8.96672 14.3247 8.97725C14.3022 8.98778 14.2661 9.00447 14.2444 9.01434C14.2228 9.02421 14.1885 9.04003 14.1681 9.0495C14.1478 9.05897 14.1149 9.07425 14.095 9.08347C14.0743 9.09303 14.0588 9.10206 14.0588 9.10452C14.0588 9.1073 14.0524 9.11001 14.0407 9.1122C14.0307 9.11406 14.0063 9.12318 13.9864 9.13247C13.9665 9.14175 13.9311 9.15802 13.9077 9.16862C13.8843 9.17922 13.8461 9.19654 13.8227 9.20711C13.7994 9.21767 13.759 9.23603 13.733 9.2479C13.7071 9.25977 13.6526 9.28452 13.6119 9.3029C13.5712 9.32129 13.5131 9.3474 13.4829 9.36093C13.4526 9.37446 13.4136 9.39204 13.3963 9.4C13.379 9.40795 13.3386 9.42601 13.3066 9.44013C13.2746 9.45424 13.2225 9.47738 13.1909 9.49153C13.1593 9.50569 13.1119 9.52683 13.0855 9.53852C13.0591 9.55021 12.9961 9.57804 12.9455 9.60036C12.8949 9.62268 12.833 9.64994 12.8078 9.66094C12.7827 9.67194 12.7431 9.68929 12.7197 9.69949C12.6963 9.70969 12.6581 9.72637 12.6347 9.73656C12.6114 9.74675 12.5735 9.76329 12.5506 9.7733C12.5276 9.78332 12.4834 9.80254 12.4522 9.81603C12.421 9.82951 12.3672 9.8527 12.3326 9.86756C12.298 9.88242 12.2527 9.90193 12.2319 9.91092C12.2111 9.91991 12.1775 9.93436 12.1572 9.94304C12.1368 9.95171 12.1025 9.9664 12.0808 9.97568C12.0592 9.98495 12.0255 9.99938 12.0061 10.0077C11.9866 10.0161 11.9342 10.0383 11.8896 10.0572C11.8451 10.076 11.7392 10.1206 11.6544 10.1562C11.5696 10.1919 11.4634 10.2364 11.4184 10.2552C11.3735 10.2739 11.3168 10.2975 11.2925 10.3075C11.2682 10.3176 11.2229 10.3364 11.1918 10.3493C11.1607 10.3622 11.1204 10.3788 11.1021 10.3863C11.0839 10.3938 11.0488 10.4082 11.0242 10.4184C10.9995 10.4287 10.9571 10.4461 10.9298 10.4572C10.9026 10.4683 10.8547 10.4877 10.8236 10.5004C10.7924 10.5131 10.7513 10.5298 10.7323 10.5375C10.7133 10.5452 10.6758 10.5605 10.6489 10.5714C10.622 10.5823 10.5547 10.6094 10.4994 10.6316C10.4441 10.6538 10.3677 10.6845 10.3296 10.6997C10.2914 10.7149 10.2288 10.7399 10.1902 10.7553C10.1517 10.7707 10.0781 10.7998 10.0266 10.8201C9.97511 10.8404 9.89403 10.8723 9.84643 10.891C9.79883 10.9096 9.71882 10.9409 9.66863 10.9604C9.61845 10.98 9.54129 11.0099 9.49717 11.0269C9.45305 11.044 9.39038 11.0682 9.3579 11.0807C9.32542 11.0932 9.27865 11.1112 9.25398 11.1207C9.22931 11.1301 9.18966 11.1453 9.16586 11.1545C9.14207 11.1637 9.10136 11.1792 9.0754 11.1889C9.04944 11.1987 9.00908 11.214 8.98571 11.2229C8.96234 11.2318 8.92198 11.2471 8.89602 11.2569C8.87005 11.2667 8.83677 11.2792 8.82206 11.2847C8.80735 11.2902 8.77864 11.301 8.75827 11.3087C8.7379 11.3164 8.68337 11.3369 8.63711 11.3541C8.59084 11.3714 8.54095 11.3901 8.52624 11.3956C8.51153 11.4011 8.47895 11.4133 8.45386 11.4227C8.42876 11.4321 8.31141 11.4754 8.19307 11.5189C8.07474 11.5624 7.914 11.621 7.83588 11.6492C7.75776 11.6774 7.66977 11.7091 7.64034 11.7197C7.61092 11.7303 7.55498 11.7505 7.51603 11.7645C7.47709 11.7785 7.41973 11.7989 7.38858 11.8099C7.35742 11.8209 7.31281 11.8366 7.28944 11.8448C7.26608 11.853 7.18147 11.8828 7.10142 11.911C7.02138 11.9391 6.91198 11.9774 6.85832 11.9961C6.80465 12.0147 6.72498 12.0424 6.68128 12.0576C6.63757 12.0728 6.54267 12.1054 6.47038 12.13C6.3981 12.1547 6.29401 12.1901 6.23907 12.2088C6.18414 12.2274 6.06838 12.2665 5.98184 12.2956C5.8953 12.3247 5.64676 12.4067 5.42953 12.4777C5.2123 12.5487 4.95527 12.6321 4.85834 12.6629C4.76141 12.6937 4.64457 12.7307 4.59871 12.7451C4.55284 12.7594 4.48274 12.7815 4.44293 12.7941C4.40312 12.8067 4.34117 12.8261 4.30526 12.8372C4.26935 12.8482 4.20879 12.8669 4.17068 12.8787C4.13256 12.8905 4.0674 12.9106 4.02587 12.9233C3.98434 12.9361 3.91143 12.9584 3.86386 12.9729C3.81628 12.9874 3.71998 13.0166 3.64986 13.0378C3.57974 13.0589 3.48308 13.088 3.43506 13.1024C3.38704 13.1168 3.30243 13.1419 3.24704 13.1582C3.19166 13.1745 3.13005 13.1929 3.11015 13.1992C3.07396 13.2106 3.07396 13.2106 3.07238 13.2214C3.07081 13.2322 3.07081 13.2322 3.05193 13.2322C3.04154 13.2322 3.02632 13.2318 3.01811 13.2313C3.00575 13.2305 3.0029 13.2292 3.00152 13.2236C3.00061 13.2199 3.00024 12.1952 3.00072 10.9465L3.00157 8.67622ZM3.0535 6.5658C3.0509 6.56548 3.03891 6.56473 3.02684 6.56413C3.01437 6.56351 3.00386 6.56143 3.0025 6.55933C3.00118 6.5573 3.00007 5.53237 3.00005 4.28173C3.00002 3.03108 3.00072 2.00598 3.00161 2.00372C3.00295 2.00029 3.68012 1.99969 7.03535 2.00012C9.846 2.00048 11.098 2.00165 11.1682 2.00397C11.2236 2.0058 11.2852 2.00798 11.3051 2.0088C11.325 2.00963 11.3696 2.01179 11.4042 2.0136C11.4388 2.01541 11.4948 2.01886 11.5285 2.02126C11.5623 2.02366 11.6026 2.02642 11.6182 2.02738C11.6338 2.02835 11.6607 2.03044 11.678 2.03204C11.6953 2.03364 11.7272 2.03644 11.7488 2.03825C11.7705 2.04007 11.803 2.04284 11.8212 2.04441C11.8394 2.04599 11.867 2.04871 11.8826 2.05046C11.8982 2.05221 11.9247 2.05507 11.9416 2.0568C11.9584 2.05853 11.9903 2.06198 12.0124 2.06445C12.0345 2.06692 12.0695 2.07099 12.0903 2.0735C12.1111 2.07601 12.1443 2.08014 12.1642 2.08269C12.1841 2.08524 12.2167 2.08946 12.2366 2.09207C12.2565 2.09468 12.3011 2.10093 12.3358 2.10596C12.3704 2.111 12.4214 2.11863 12.449 2.12293C12.4767 2.12723 12.5192 2.13421 12.5435 2.13844C12.5677 2.14267 12.5996 2.14825 12.6143 2.15083C12.629 2.1534 12.6686 2.16048 12.7024 2.16655C12.7361 2.17262 12.7949 2.18368 12.833 2.19113C12.8711 2.19858 12.9221 2.20877 12.9463 2.21376C12.9705 2.21876 13.0328 2.23216 13.0848 2.24355C13.1367 2.25493 13.2379 2.27861 13.3096 2.29617C13.3813 2.31373 13.4441 2.32973 13.449 2.33173C13.4539 2.33373 13.4574 2.33691 13.4568 2.3388C13.4562 2.34069 13.4226 2.35846 13.382 2.37829C13.3414 2.39812 13.247 2.44372 13.1722 2.47961C13.0974 2.51551 12.9898 2.56722 12.933 2.59454C12.8763 2.62185 12.7951 2.66049 12.7527 2.68041C12.7103 2.70033 12.6473 2.73016 12.6127 2.7467C12.5781 2.76324 12.5236 2.78896 12.4915 2.80384C12.4595 2.81872 12.4092 2.84233 12.3798 2.85629C12.3504 2.87025 12.3044 2.89179 12.2775 2.90415C12.2507 2.91652 12.2077 2.93657 12.182 2.94871C12.1562 2.96085 12.1159 2.97959 12.0923 2.99036C12.0687 3.00113 12.0295 3.01926 12.0053 3.03064C11.9811 3.04201 11.9389 3.06154 11.9116 3.07402C11.8843 3.08649 11.8341 3.10951 11.7999 3.12515C11.7658 3.14079 11.7215 3.16113 11.7016 3.17034C11.6817 3.17955 11.6431 3.19725 11.6157 3.20967C11.5884 3.2221 11.5176 3.2541 11.4584 3.28079C11.3992 3.30748 11.3408 3.33437 11.3287 3.34054C11.3166 3.34671 11.307 3.35346 11.3075 3.35554C11.308 3.35793 11.3043 3.35931 11.2975 3.35931C11.2914 3.35931 11.2721 3.36583 11.2527 3.37444C11.2339 3.38276 11.2023 3.39708 11.1824 3.40626C11.1625 3.41544 11.0814 3.4518 11.0023 3.48704C10.9232 3.52229 10.8382 3.56013 10.8135 3.57112C10.7887 3.58212 10.7434 3.60217 10.7127 3.61569C10.682 3.62921 10.6359 3.64949 10.6104 3.66075C10.5849 3.67201 10.5441 3.68985 10.5199 3.70039C10.4957 3.71092 10.4309 3.73921 10.3759 3.76324C10.321 3.78727 10.2456 3.82011 10.2083 3.83621C10.1711 3.85232 10.1169 3.87577 10.088 3.88833C10.059 3.90089 10.0069 3.92333 9.97231 3.93818C9.93769 3.95303 9.89201 3.97261 9.8708 3.98168C9.84959 3.99076 9.81594 4.00512 9.79603 4.0136C9.77613 4.02209 9.74355 4.03597 9.72365 4.04446C9.70374 4.05295 9.6563 4.07309 9.61822 4.08922C9.58014 4.10534 9.48953 4.1436 9.41687 4.17424C9.3442 4.20487 9.23128 4.25229 9.16591 4.2796C9.10055 4.30691 9.02229 4.3394 8.992 4.3518C8.96171 4.3642 8.91215 4.38468 8.88186 4.39731C8.85157 4.40994 8.79279 4.43425 8.75125 4.45133C8.70971 4.46841 8.6449 4.49494 8.60722 4.51028C8.56954 4.52563 8.51573 4.54748 8.48763 4.55884C8.45953 4.5702 8.42239 4.58538 8.40508 4.59257C8.38777 4.59976 8.3315 4.62253 8.28004 4.64317C8.22857 4.66381 8.16237 4.69039 8.13293 4.70222C8.10348 4.71406 8.05528 4.73338 8.02582 4.74516C7.99635 4.75694 7.94396 4.7778 7.9094 4.79151C7.87483 4.80522 7.81181 4.83021 7.76934 4.84704C7.72687 4.86387 7.62312 4.9047 7.53878 4.93777C7.45444 4.97084 7.35463 5.00982 7.31699 5.02439C7.27934 5.03896 7.2181 5.0627 7.1809 5.07715C7.14369 5.09161 7.09306 5.11114 7.06838 5.12056C7.04371 5.12998 7.0044 5.14509 6.98103 5.15414C6.95766 5.16319 6.91872 5.17819 6.89449 5.18747C6.87026 5.19674 6.82565 5.21379 6.79535 5.22534C6.76506 5.23689 6.72116 5.25354 6.6978 5.26234C6.67443 5.27114 6.63407 5.28635 6.6081 5.29614C6.58214 5.30593 6.5485 5.31863 6.53335 5.32436C6.5182 5.33008 6.49095 5.34037 6.4728 5.3472C6.45464 5.35405 6.42492 5.36521 6.40675 5.37202C6.38859 5.37882 6.35777 5.39041 6.33828 5.39776C6.31879 5.40511 6.27773 5.42042 6.24704 5.43178C6.21635 5.44314 6.16357 5.46272 6.12976 5.47529C6.09594 5.48786 6.0152 5.51768 5.95034 5.54155C5.88547 5.56543 5.79627 5.59813 5.75212 5.61423C5.70797 5.63032 5.63929 5.65534 5.59951 5.66982C5.55972 5.68431 5.50272 5.70498 5.47284 5.71576C5.44296 5.72653 5.37107 5.75234 5.31309 5.77311C5.2551 5.79388 5.18465 5.81905 5.15653 5.82906C5.1284 5.83907 5.08025 5.85609 5.04953 5.8669C5.0188 5.8777 4.95579 5.89995 4.9095 5.91633C4.86322 5.93272 4.79028 5.95844 4.74743 5.97349C4.70458 5.98854 4.63304 6.01348 4.58845 6.02891C4.54386 6.04434 4.47127 6.06945 4.42712 6.08472C4.38298 6.09998 4.31679 6.12285 4.28003 6.13554C4.24327 6.14823 4.17991 6.16993 4.13924 6.18377C4.09856 6.19761 4.00155 6.23049 3.92366 6.25685C3.84577 6.28321 3.70486 6.33047 3.61053 6.36188C3.5162 6.39329 3.36042 6.4446 3.26435 6.47592C3.16829 6.50723 3.08487 6.5352 3.07899 6.53807C3.07214 6.5414 3.06647 6.54744 3.06325 6.55483C3.06032 6.56155 3.05625 6.56613 3.0535 6.5658Z" fill="white"/>
<path fill-rule="evenodd" clip-rule="evenodd" d="M8.87086 20.1926C8.84836 20.1932 8.80254 20.1925 8.76905 20.1911C8.73555 20.1898 8.66545 20.1878 8.61327 20.1868C8.56108 20.1858 8.4851 20.1835 8.44443 20.1818C8.40375 20.18 8.32126 20.1772 8.26111 20.1756C8.20096 20.1739 8.10749 20.1712 8.0534 20.1696C7.99931 20.168 7.92673 20.1652 7.89211 20.1634C7.8575 20.1615 7.78952 20.1587 7.74105 20.1571C7.69259 20.1555 7.61541 20.1528 7.56954 20.1512C7.52367 20.1495 7.46065 20.1467 7.42949 20.1449C7.39834 20.1431 7.3385 20.1402 7.29653 20.1386C7.25455 20.137 7.18799 20.1343 7.14861 20.1326C7.10924 20.131 7.05294 20.1281 7.02352 20.1263C6.99409 20.1244 6.93992 20.1216 6.90314 20.12C6.86636 20.1184 6.80617 20.1157 6.76939 20.1141C6.73261 20.1124 6.6834 20.1097 6.66003 20.108C6.63666 20.1063 6.59842 20.1041 6.57506 20.1031C6.55169 20.1021 6.51204 20.1 6.48694 20.0985C6.46184 20.0969 6.4236 20.0949 6.40197 20.0939C6.38033 20.093 6.34422 20.0909 6.32172 20.0892C6.29921 20.0875 6.25531 20.0847 6.22416 20.0831C6.193 20.0815 6.14343 20.0788 6.11401 20.0771C6.08458 20.0754 6.03926 20.0725 6.0133 20.0707C5.98734 20.0689 5.94344 20.0661 5.91574 20.0646C5.88805 20.063 5.84273 20.0603 5.81503 20.0585C5.78734 20.0567 5.73423 20.0532 5.69702 20.0507C5.6598 20.0482 5.60882 20.0448 5.58372 20.0431C5.55863 20.0414 5.52464 20.0392 5.50819 20.0382C5.49175 20.0372 5.4528 20.0345 5.42165 20.0322C5.39049 20.0298 5.34199 20.0264 5.31387 20.0245C5.28575 20.0227 5.24397 20.0197 5.22103 20.018C5.19809 20.0163 5.15241 20.013 5.11953 20.0106C5.08664 20.0083 5.0392 20.0049 5.0141 20.0031C4.989 20.0013 4.95218 19.9984 4.93228 19.9966C4.91237 19.9948 4.87697 19.9921 4.8536 19.9905C4.83023 19.9889 4.79199 19.9862 4.76863 19.9844C4.74526 19.9827 4.71127 19.9799 4.6931 19.9781C4.67492 19.9764 4.64093 19.9736 4.61757 19.9719C4.5942 19.9702 4.54959 19.9669 4.51843 19.9644C4.48728 19.9619 4.43665 19.9577 4.40592 19.9551C4.3752 19.9525 4.32563 19.9484 4.29578 19.9459C4.26592 19.9434 4.22379 19.9399 4.20215 19.9381C4.18052 19.9363 4.13945 19.9328 4.11089 19.9303C4.08233 19.9278 4.04338 19.9243 4.02434 19.9225C4.0053 19.9208 3.97344 19.9179 3.95353 19.9162C3.93363 19.9145 3.89433 19.9111 3.8662 19.9086C3.83807 19.9061 3.79205 19.902 3.76392 19.8995C3.73579 19.897 3.68977 19.8928 3.66164 19.8902C3.63352 19.8876 3.58891 19.8834 3.56251 19.881C3.53611 19.8785 3.49221 19.8744 3.46495 19.8718C3.43769 19.8691 3.39308 19.8648 3.36581 19.8622C3.33855 19.8596 3.295 19.8555 3.26904 19.853C3.24308 19.8506 3.2013 19.8465 3.1762 19.844C3.1511 19.8415 3.1157 19.8379 3.09752 19.836C3.07935 19.8341 3.06404 19.8321 3.06351 19.8316C3.06297 19.8311 3.0651 19.8253 3.06824 19.8187C3.07314 19.8085 3.07638 19.8061 3.09124 19.8016C3.10075 19.7986 3.19493 19.7734 3.30051 19.7454C3.4061 19.7174 3.58383 19.6695 3.69547 19.6391C3.80711 19.6086 3.9937 19.5571 4.11012 19.5248C4.22653 19.4924 4.41276 19.4403 4.52396 19.4089C4.63516 19.3776 4.81819 19.3255 4.9307 19.293C5.04321 19.2606 5.20678 19.2131 5.29419 19.1875C5.3816 19.1619 5.52322 19.1202 5.6089 19.0948C5.69458 19.0693 5.84045 19.0257 5.93305 18.9977C6.02565 18.9698 6.16727 18.9267 6.24776 18.9021C6.32825 18.8775 6.44969 18.84 6.51763 18.8189C6.58557 18.7978 6.70736 18.7598 6.78828 18.7344C6.86919 18.7091 7.0147 18.6631 7.11164 18.6323C7.20857 18.6016 7.47835 18.5141 7.71116 18.438C7.94396 18.3619 8.20702 18.2752 8.29573 18.2453C8.38444 18.2154 8.52818 18.1668 8.61516 18.1372C8.70213 18.1077 8.84269 18.0596 8.92751 18.0304C9.01232 18.0012 9.15252 17.9526 9.23907 17.9223C9.32561 17.8921 9.46581 17.8428 9.55063 17.8128C9.63544 17.7828 9.76998 17.7349 9.8496 17.7064C9.92922 17.6778 10.0602 17.6306 10.1407 17.6014C10.2212 17.5722 10.3511 17.5248 10.4294 17.4961C10.5077 17.4673 10.621 17.4256 10.6812 17.4034C10.7414 17.3812 10.8348 17.3465 10.8889 17.3263C10.943 17.3061 11.0337 17.2722 11.0903 17.2508C11.147 17.2295 11.243 17.1932 11.3036 17.1702C11.3641 17.1472 11.4551 17.1126 11.5057 17.0932C11.5563 17.0738 11.6353 17.0434 11.6812 17.0257C11.7271 17.008 11.8089 16.9763 11.863 16.9553C11.9171 16.9344 12.0413 16.8858 12.1391 16.8474C12.2369 16.809 12.3693 16.7568 12.4334 16.7314C12.4974 16.7059 12.6089 16.6614 12.6812 16.6324C12.7535 16.6034 12.8689 16.5569 12.9377 16.5291C13.0065 16.5013 13.1141 16.4575 13.1768 16.4318C13.2396 16.4061 13.3444 16.3631 13.4097 16.3361C13.4751 16.3092 13.5838 16.2642 13.6513 16.2361C13.7188 16.2081 13.8293 16.1619 13.8968 16.1335C13.9643 16.1052 14.0769 16.0577 14.147 16.028C14.2171 15.9982 14.3243 15.9526 14.3853 15.9265C14.4464 15.9004 14.537 15.8614 14.5868 15.8399C14.6365 15.8183 14.6971 15.7924 14.7213 15.7824C14.7612 15.7657 14.7683 15.7638 14.7968 15.7614C14.8141 15.76 14.8488 15.7574 14.8739 15.7556C14.899 15.7538 14.9443 15.751 14.9746 15.7494C15.0049 15.7478 15.0524 15.7451 15.0801 15.7433C15.1078 15.7416 15.151 15.7387 15.1761 15.7369C15.2011 15.7351 15.2436 15.7324 15.2705 15.7309C15.2973 15.7294 15.3405 15.7267 15.3664 15.7249C15.3924 15.7231 15.4328 15.7202 15.4561 15.7184C15.4795 15.7167 15.5199 15.7139 15.5458 15.7124C15.5718 15.7108 15.6129 15.7081 15.6371 15.7063C15.6613 15.7046 15.6989 15.7017 15.7205 15.6999C15.7421 15.698 15.7797 15.6953 15.8039 15.6938C15.8281 15.6922 15.8671 15.6895 15.8904 15.6877C15.9138 15.686 15.9499 15.683 15.9707 15.6813C15.9915 15.6795 16.0269 15.6768 16.0494 15.6752C16.0719 15.6737 16.108 15.671 16.1296 15.6693C16.1513 15.6675 16.1852 15.6646 16.2051 15.6629C16.2251 15.6611 16.259 15.6584 16.2807 15.6569C16.3023 15.6553 16.3377 15.6526 16.3594 15.6508C16.381 15.649 16.4136 15.646 16.4317 15.6443C16.4499 15.6426 16.4818 15.6398 16.5025 15.6382C16.5233 15.6367 16.5573 15.6339 16.5781 15.6322C16.5989 15.6304 16.63 15.6276 16.6473 15.6258C16.6646 15.6241 16.6951 15.6213 16.715 15.6197C16.7349 15.6181 16.7675 15.6154 16.7874 15.6137C16.8073 15.612 16.8377 15.6091 16.855 15.6073C16.8723 15.6055 16.9021 15.6028 16.9211 15.6012C16.9402 15.5996 16.978 15.5962 17.0053 15.5937C17.0326 15.5911 17.0775 15.5868 17.1052 15.5842C17.1329 15.5815 17.1761 15.5774 17.2012 15.575C17.2263 15.5725 17.2684 15.5684 17.2948 15.5659C17.3212 15.5633 17.3634 15.5592 17.3885 15.5567C17.4136 15.5542 17.455 15.55 17.4805 15.5474C17.506 15.5447 17.5475 15.5405 17.5726 15.5379C17.5977 15.5353 17.638 15.5311 17.6622 15.5286C17.6865 15.526 17.7254 15.5219 17.7488 15.5195C17.7722 15.517 17.8115 15.5129 17.8361 15.5104C17.8608 15.5078 17.8944 15.5043 17.9109 15.5025C17.9273 15.5007 17.9521 15.4979 17.9659 15.4961C17.9798 15.4944 18.0046 15.4916 18.021 15.49C18.0375 15.4884 18.0693 15.485 18.0918 15.4825C18.1143 15.48 18.1462 15.4765 18.1626 15.4747C18.1791 15.473 18.2032 15.4701 18.2161 15.4683C18.2291 15.4665 18.2525 15.4638 18.2681 15.4623C18.2836 15.4608 18.3144 15.4574 18.3365 15.4548C18.3586 15.4522 18.3947 15.448 18.4168 15.4455C18.4388 15.443 18.4696 15.4395 18.4852 15.4377C18.5008 15.4359 18.5235 15.4331 18.5356 15.4314C18.5477 15.4297 18.5703 15.4269 18.5859 15.4253C18.6015 15.4237 18.6309 15.4202 18.6512 15.4177C18.6716 15.4152 18.7059 15.411 18.7275 15.4083C18.7492 15.4057 18.7839 15.4014 18.8046 15.3989C18.8254 15.3963 18.8587 15.3922 18.8786 15.3898C18.8985 15.3873 18.9318 15.3831 18.9526 15.3805C18.9733 15.3779 19.0062 15.3738 19.0257 15.3714C19.0452 15.3689 19.0778 15.3648 19.0981 15.3621C19.1184 15.3595 19.1514 15.3552 19.1713 15.3527C19.1912 15.3501 19.2227 15.3461 19.2413 15.3436C19.2599 15.3412 19.2865 15.3378 19.3003 15.336C19.3142 15.3342 19.3354 15.3313 19.3475 15.3295C19.3596 15.3278 19.3809 15.325 19.3947 15.3233C19.4086 15.3217 19.4348 15.3182 19.4529 15.3157C19.4711 15.3131 19.5019 15.3089 19.5214 15.3063C19.5408 15.3036 19.5713 15.2996 19.589 15.2972C19.6068 15.2949 19.6334 15.2914 19.6481 15.2895C19.6628 15.2876 19.6886 15.284 19.7055 15.2816C19.7224 15.2791 19.7511 15.2751 19.7692 15.2725C19.7874 15.27 19.8172 15.2658 19.8353 15.2633C19.8535 15.2607 19.8836 15.2565 19.9022 15.2539C19.9208 15.2513 19.9495 15.2472 19.9659 15.2448C19.9824 15.2424 20.011 15.2382 20.0296 15.2355C20.0482 15.2329 20.0776 15.2286 20.0949 15.2261C20.1123 15.2236 20.1409 15.2194 20.1587 15.2168C20.1764 15.2142 20.2097 15.2093 20.2326 15.206C20.2556 15.2027 20.2889 15.1978 20.3066 15.195C20.3243 15.1923 20.3573 15.1877 20.3798 15.1847C20.409 15.1808 20.4213 15.1802 20.423 15.1827C20.4243 15.1845 20.4253 15.1875 20.4253 15.1893C20.4254 15.1911 20.3925 15.2101 20.3522 15.2316C20.312 15.253 20.2316 15.2954 20.1736 15.3258C20.1156 15.3562 20.0197 15.4063 19.9604 15.4372C19.9012 15.468 19.8045 15.5182 19.7456 15.5486C19.6867 15.5791 19.6031 15.6221 19.5599 15.6444C19.5167 15.6666 19.4343 15.7089 19.3767 15.7383C19.3191 15.7678 19.2126 15.822 19.1401 15.8588C19.0675 15.8955 18.9634 15.9481 18.9088 15.9755C18.8541 16.003 18.7598 16.0502 18.6992 16.0804C18.6386 16.1106 18.5229 16.1681 18.442 16.208C18.3612 16.248 18.2469 16.3043 18.188 16.3332C18.1292 16.362 18.0148 16.4179 17.9338 16.4573C17.8528 16.4967 17.7367 16.5529 17.6757 16.5823C17.6148 16.6116 17.5131 16.6604 17.4498 16.6907C17.3864 16.721 17.3078 16.7584 17.2751 16.774C17.2423 16.7895 17.1861 16.8162 17.1501 16.8332C17.1142 16.8503 17.0511 16.88 17.01 16.8994C16.9689 16.9187 16.892 16.9547 16.8393 16.9794C16.7865 17.004 16.7001 17.0443 16.6473 17.0689C16.5945 17.0934 16.5045 17.1351 16.4474 17.1615C16.3904 17.1878 16.3011 17.2288 16.2492 17.2526C16.1973 17.2763 16.1063 17.3179 16.047 17.3449C15.9877 17.3719 15.8943 17.4143 15.8393 17.4391C15.7843 17.4638 15.6817 17.5099 15.6111 17.5415C15.5406 17.5731 15.4316 17.6218 15.3688 17.6496C15.3061 17.6775 15.2041 17.7226 15.1422 17.7499C15.0803 17.7772 14.9787 17.8218 14.9164 17.849C14.8541 17.8762 14.7617 17.9164 14.7111 17.9383C14.6605 17.9602 14.5886 17.9913 14.5514 18.0073C14.5141 18.0234 14.4005 18.0721 14.2988 18.1156C14.1971 18.1591 14.0247 18.2322 13.9156 18.2781C13.8066 18.324 13.6575 18.3863 13.5844 18.4167C13.5113 18.4471 13.3931 18.496 13.3216 18.5254C13.2502 18.5549 13.1302 18.6041 13.0549 18.6347C12.9796 18.6654 12.8522 18.7171 12.7717 18.7497C12.6912 18.7822 12.5644 18.8331 12.49 18.8627C12.4156 18.8924 12.2032 18.9762 12.0179 19.0489C11.8327 19.1215 11.6224 19.2035 11.5506 19.2311C11.4788 19.2587 11.3563 19.3055 11.2784 19.3352C11.2005 19.3648 11.067 19.4154 10.9818 19.4476C10.8966 19.4798 10.7698 19.5274 10.7001 19.5534C10.6305 19.5794 10.5143 19.6225 10.4421 19.6491C10.3698 19.6757 10.2636 19.7146 10.206 19.7356C10.1485 19.7566 10.0391 19.7962 9.9629 19.8237C9.88674 19.8512 9.75999 19.8967 9.68123 19.9248C9.60248 19.9529 9.47502 19.998 9.398 20.0252C9.32097 20.0523 9.19635 20.0959 9.12105 20.1222C9.04576 20.1484 8.96787 20.1747 8.94796 20.1807C8.91598 20.1903 8.90701 20.1917 8.87086 20.1926ZM8.98101 13.3803C8.25419 13.3803 7.96634 13.3794 7.87244 13.3782C7.77854 13.3771 7.57107 13.3747 7.41139 13.3729C7.25172 13.3711 7.06514 13.3682 6.99677 13.3664C6.9284 13.3646 6.78855 13.3618 6.68599 13.3601C6.58344 13.3585 6.43403 13.3558 6.35398 13.3543C6.27392 13.3527 6.1323 13.3493 6.03926 13.3466C5.94622 13.344 5.81806 13.3404 5.75445 13.3386C5.69084 13.3369 5.60622 13.3348 5.56641 13.334C5.5266 13.3332 5.46146 13.331 5.42165 13.3293C5.38184 13.3275 5.30076 13.3247 5.24148 13.3231C5.18219 13.3215 5.08731 13.3188 5.03062 13.3172C4.97394 13.3155 4.89923 13.3127 4.86461 13.311C4.83 13.3093 4.77335 13.3071 4.73873 13.3062C4.70411 13.3052 4.64463 13.3031 4.60655 13.3015C4.56847 13.2999 4.51112 13.2979 4.4791 13.297C4.44707 13.2961 4.39467 13.294 4.36265 13.2922C4.33063 13.2905 4.2669 13.2877 4.22103 13.2861C4.17517 13.2845 4.10152 13.2818 4.05739 13.2801C4.01325 13.2784 3.95094 13.2756 3.91891 13.2738C3.88689 13.272 3.82635 13.2692 3.78438 13.2676C3.7424 13.2659 3.67513 13.2632 3.63489 13.2616C3.59465 13.2599 3.53764 13.2571 3.50822 13.2553C3.47879 13.2535 3.42285 13.2507 3.38391 13.249C3.34496 13.2474 3.28336 13.2447 3.24701 13.2431C3.21066 13.2414 3.15459 13.2384 3.12241 13.2364C3.06389 13.2328 3.06389 13.2328 3.06582 13.2232C3.06722 13.2163 3.07076 13.2122 3.07871 13.2084C3.08473 13.2055 3.12966 13.1913 3.17855 13.1767C3.22745 13.1622 3.33296 13.1308 3.41301 13.1069C3.49307 13.0831 3.62513 13.0434 3.70648 13.0188C3.78784 12.9941 3.91988 12.9539 3.99992 12.9294C4.07996 12.9048 4.20529 12.8661 4.27844 12.8435C4.35159 12.8208 4.48649 12.7785 4.57823 12.7496C4.66997 12.7207 4.80875 12.6767 4.88664 12.6519C4.96453 12.6271 5.20812 12.5479 5.42794 12.4761C5.64777 12.4042 5.88852 12.3249 5.96295 12.3C6.03738 12.275 6.14891 12.2373 6.21079 12.2163C6.27268 12.1953 6.37394 12.1609 6.43581 12.1398C6.49768 12.1187 6.59893 12.084 6.6608 12.0625C6.72267 12.0411 6.81509 12.0091 6.86617 11.9913C6.91725 11.9735 7.00859 11.9416 7.06916 11.9203C7.12973 11.8991 7.22283 11.8663 7.27606 11.8476C7.32929 11.8288 7.42701 11.7941 7.49321 11.7704C7.55941 11.7467 7.64617 11.7156 7.686 11.7012C7.72584 11.6868 7.81754 11.6537 7.88979 11.6275C7.96203 11.6013 8.09691 11.5521 8.18951 11.5181C8.28212 11.4841 8.43294 11.4282 8.52468 11.394C8.61642 11.3598 8.76158 11.3053 8.84725 11.273C8.93293 11.2407 9.07314 11.1875 9.15882 11.1548C9.2445 11.1221 9.38824 11.0668 9.47825 11.032C9.56825 10.9972 9.71483 10.9402 9.80397 10.9053C9.89311 10.8704 10.022 10.8197 10.0904 10.7926C10.1587 10.7655 10.2688 10.7217 10.335 10.6952C10.4012 10.6687 10.5103 10.6249 10.5774 10.5979C10.6444 10.5709 10.7807 10.5155 10.8803 10.4749C10.9798 10.4342 11.1342 10.3708 11.2233 10.3339C11.3124 10.297 11.5072 10.2156 11.656 10.153C11.8049 10.0905 11.9674 10.0218 12.0172 10.0005C12.0669 9.97924 12.148 9.94448 12.1974 9.92329C12.2467 9.9021 12.3519 9.85678 12.431 9.82258C12.5102 9.78838 12.6157 9.74253 12.6655 9.7207C12.7153 9.69887 12.8084 9.65802 12.8724 9.62993C12.9364 9.60183 13.0277 9.56156 13.0754 9.54044C13.123 9.51932 13.2151 9.47835 13.2799 9.44938C13.3448 9.42041 13.4343 9.38033 13.4789 9.36031C13.5235 9.34029 13.6326 9.29096 13.7212 9.25069C13.8099 9.21042 13.9114 9.1643 13.9468 9.14822C13.9822 9.13213 14.0202 9.11699 14.0311 9.11458C14.042 9.11218 14.0673 9.10867 14.0872 9.10679C14.1071 9.10491 14.1403 9.10207 14.1611 9.10048C14.1819 9.09889 14.223 9.0955 14.2524 9.09296C14.2818 9.09041 14.3292 9.08627 14.3578 9.08375C14.3864 9.08123 14.426 9.07778 14.4459 9.07607C14.4658 9.07436 14.4956 9.07148 14.512 9.06968C14.5285 9.06788 14.5575 9.06516 14.5765 9.06363C14.5956 9.06211 14.6267 9.0594 14.6458 9.05762C14.6648 9.05584 14.6938 9.05289 14.7103 9.05107C14.7267 9.04924 14.755 9.04648 14.7732 9.04492C14.7914 9.04336 14.8272 9.03996 14.8527 9.03736C14.8782 9.03476 14.9193 9.03062 14.9439 9.02815C14.9686 9.02569 15.0097 9.02151 15.0352 9.01886C15.0607 9.01621 15.1011 9.01204 15.1249 9.00959C15.1487 9.00714 15.1816 9.0037 15.1981 9.00195C15.2145 9.0002 15.24 8.99734 15.2547 8.99559C15.2694 8.99384 15.2949 8.99108 15.3114 8.98945C15.3278 8.98783 15.36 8.98438 15.383 8.98179C15.4059 8.97919 15.4431 8.97499 15.4656 8.97244C15.4881 8.96989 15.5245 8.96576 15.5466 8.96326C15.5687 8.96076 15.6044 8.95665 15.6261 8.95414C15.6477 8.95162 15.6782 8.94808 15.6937 8.94627C15.7093 8.94446 15.7391 8.94093 15.7598 8.93841C15.7806 8.9359 15.8082 8.93244 15.8212 8.93072C15.8342 8.929 15.8561 8.92633 15.87 8.92477C15.8838 8.92321 15.9125 8.91975 15.9337 8.91708C15.9549 8.91441 15.9882 8.91025 16.0077 8.90784C16.0271 8.90543 16.0551 8.90195 16.0698 8.9001C16.0845 8.89826 16.1065 8.89536 16.1186 8.89364C16.1307 8.89193 16.1513 8.88928 16.1642 8.88776C16.1772 8.88623 16.1999 8.88342 16.2146 8.8815C16.2293 8.87958 16.2562 8.87601 16.2744 8.87357C16.2926 8.87113 16.3181 8.86768 16.331 8.86591C16.344 8.86414 16.3645 8.86142 16.3767 8.85988C16.3888 8.85834 16.4136 8.855 16.4317 8.85246C16.4499 8.84992 16.4768 8.84629 16.4915 8.8444C16.5062 8.84251 16.5321 8.83896 16.549 8.83652C16.5658 8.83408 16.5945 8.83001 16.6127 8.82747C16.6309 8.82493 16.6606 8.82077 16.6788 8.81823C16.697 8.81568 16.7271 8.81147 16.7457 8.80888C16.7643 8.80629 16.7929 8.80218 16.8094 8.79975C16.8258 8.79732 16.8545 8.79315 16.8731 8.79048C16.8917 8.78781 16.9211 8.78354 16.9384 8.78099C16.9557 8.77843 16.984 8.77426 17.0013 8.77171C17.0186 8.76916 17.0473 8.76496 17.0651 8.76236C17.0828 8.75977 17.1101 8.75566 17.1257 8.75324C17.1413 8.75082 17.1678 8.74674 17.1847 8.74418C17.2016 8.74162 17.2288 8.73744 17.2453 8.73489C17.2617 8.73234 17.289 8.72819 17.3058 8.72566C17.3227 8.72313 17.345 8.71966 17.3554 8.71796C17.3658 8.71625 17.392 8.71209 17.4136 8.7087C17.4353 8.70531 17.4834 8.69759 17.5206 8.69154C17.5578 8.6855 17.6014 8.67848 17.6174 8.67596C17.6334 8.67344 17.6589 8.6694 17.674 8.66698C17.6892 8.66457 17.7395 8.65624 17.7858 8.64847C17.8321 8.64071 17.8951 8.63014 17.9258 8.62498C17.9565 8.61983 17.993 8.6137 18.0069 8.61137C18.0207 8.60905 18.0448 8.60487 18.0604 8.60209C18.0759 8.59931 18.1 8.59512 18.1139 8.59277C18.1277 8.59043 18.1553 8.58564 18.1752 8.58214C18.1951 8.57863 18.2227 8.57374 18.2366 8.57128C18.2504 8.56881 18.2781 8.56394 18.298 8.56045C18.3179 8.55697 18.3529 8.55067 18.3759 8.54646C18.3988 8.54225 18.4335 8.53593 18.453 8.53242C18.4724 8.52892 18.499 8.5241 18.512 8.52173C18.5249 8.51935 18.554 8.51399 18.5765 8.50981C18.599 8.50563 18.6337 8.49924 18.6536 8.49561C18.6735 8.49198 18.7007 8.48697 18.7141 8.48449C18.7276 8.48201 18.7594 8.47593 18.785 8.47099C18.8105 8.46605 18.8721 8.45422 18.9218 8.44472C18.9716 8.43522 19.0512 8.41979 19.0988 8.41044C19.1464 8.40109 19.2159 8.3873 19.2531 8.3798C19.2903 8.37229 19.3516 8.35994 19.3892 8.35235C19.4269 8.34476 19.4782 8.33426 19.5033 8.32902C19.5284 8.32378 19.5617 8.31685 19.5773 8.31362C19.5928 8.3104 19.6226 8.30416 19.6433 8.29976C19.6641 8.29537 19.6939 8.28912 19.7094 8.28587C19.725 8.28263 19.7746 8.27213 19.8196 8.26253C19.8646 8.25293 19.9103 8.24315 19.9211 8.2408C19.9319 8.23845 19.9507 8.23437 19.9628 8.23173C19.9749 8.2291 19.994 8.22493 20.0053 8.22247C20.0165 8.22002 20.0357 8.21585 20.0478 8.21321C20.0599 8.21058 20.0786 8.2065 20.0894 8.20415C20.1003 8.2018 20.1231 8.19686 20.1401 8.19317C20.1571 8.18948 20.1716 8.18696 20.1722 8.18756C20.1728 8.18816 20.1742 8.19095 20.1753 8.19376C20.1768 8.19754 20.1729 8.20168 20.1605 8.20962C20.1513 8.21554 20.0938 8.24827 20.0328 8.28235C19.9718 8.31644 19.8698 8.37332 19.8062 8.40875C19.7426 8.44419 19.6399 8.50112 19.578 8.53527C19.5161 8.56943 19.4113 8.62706 19.3451 8.66333C19.2789 8.69961 19.1706 8.75869 19.1044 8.79462C19.0382 8.83054 18.9278 8.89029 18.859 8.92738C18.7901 8.96448 18.6765 9.02543 18.6064 9.06283C18.5363 9.10023 18.3985 9.17327 18.3002 9.22513C18.202 9.27699 18.0869 9.33755 18.0445 9.35971C18.0022 9.38186 17.9346 9.41714 17.8943 9.43809C17.8541 9.45905 17.7897 9.49245 17.7512 9.51232C17.7128 9.53219 17.632 9.57384 17.5718 9.60487C17.5117 9.63591 17.4136 9.6862 17.354 9.71663C17.2943 9.74705 17.2054 9.79229 17.1563 9.81716C17.1073 9.84202 17.0141 9.88896 16.9493 9.92147C16.8846 9.95399 16.7554 10.0186 16.6623 10.065C16.5693 10.1115 16.3834 10.2033 16.2492 10.2691C16.1151 10.3349 15.9161 10.4318 15.807 10.4843C15.698 10.5369 15.5373 10.614 15.4498 10.6556C15.3624 10.6972 15.2321 10.7589 15.1603 10.7928C15.0885 10.8266 14.9504 10.8912 14.8535 10.9364C14.7565 10.9815 14.6294 11.0404 14.571 11.0673C14.5126 11.0942 14.4131 11.1398 14.35 11.1687C14.2868 11.1976 14.1781 11.247 14.1084 11.2786C14.0387 11.3101 13.9262 11.3608 13.8582 11.3912C13.7903 11.4217 13.682 11.47 13.6175 11.4987C13.553 11.5273 13.4301 11.5816 13.3444 11.6194C13.2588 11.6571 13.1271 11.7147 13.0518 11.7474C12.9765 11.7801 12.8511 11.8343 12.7732 11.8678C12.6954 11.9014 12.5729 11.9538 12.501 11.9843C12.4292 12.0148 12.3014 12.0688 12.217 12.1043C12.1326 12.1398 12.0158 12.1887 11.9574 12.2131C11.8989 12.2375 11.7988 12.279 11.7347 12.3055C11.6707 12.3319 11.5411 12.385 11.4467 12.4235C11.3524 12.462 11.2515 12.503 11.2225 12.5147C11.1935 12.5264 11.1159 12.5575 11.0502 12.5839C10.9845 12.6103 10.873 12.6549 10.8024 12.683C10.7319 12.7111 10.6076 12.7602 10.5262 12.7921C10.4449 12.8241 10.3348 12.8671 10.2816 12.8877C10.2284 12.9084 10.1402 12.9425 10.0856 12.9636C10.031 12.9846 9.95205 13.015 9.91011 13.0312C9.86818 13.0474 9.79526 13.0752 9.74808 13.093C9.7009 13.1109 9.60672 13.1465 9.5388 13.1722C9.47088 13.1978 9.36574 13.2373 9.30516 13.2598C9.24457 13.2824 9.14686 13.3187 9.08801 13.3406L8.98101 13.3803ZM7.99645 6.90549C7.97368 6.90524 7.93452 6.90391 7.90942 6.90252C7.88432 6.90114 7.82095 6.89855 7.76859 6.89675C7.71623 6.89496 7.63622 6.8922 7.59078 6.89062C7.54534 6.88904 7.48197 6.88625 7.44995 6.88442C7.41793 6.88259 7.35703 6.87976 7.31462 6.87811C7.27222 6.87647 7.20495 6.87376 7.16514 6.8721C7.12533 6.87043 7.06939 6.86759 7.04083 6.86578C7.01227 6.86397 6.95845 6.86118 6.92124 6.85958C6.88402 6.85798 6.82383 6.8553 6.78749 6.85364C6.75114 6.85197 6.69945 6.84913 6.67262 6.84732C6.64579 6.84551 6.59693 6.84273 6.56404 6.84113C6.53115 6.83953 6.47946 6.83683 6.44917 6.83512C6.41888 6.8334 6.37002 6.83051 6.3406 6.82869C6.31117 6.82687 6.26338 6.82408 6.23438 6.82249C6.20539 6.8209 6.14733 6.81754 6.10535 6.81502C6.06338 6.8125 6.00567 6.80902 5.97711 6.80729C5.94855 6.80555 5.90536 6.80269 5.88112 6.80093C5.85689 6.79916 5.81511 6.79644 5.78828 6.79486C5.76146 6.79329 5.71685 6.79058 5.68915 6.78883C5.66146 6.78709 5.6211 6.78429 5.59946 6.78261C5.57782 6.78094 5.54596 6.77879 5.52865 6.77783C5.51134 6.77688 5.47062 6.77412 5.43816 6.77171C5.4057 6.7693 5.35755 6.76584 5.33116 6.76403C5.30477 6.76222 5.26406 6.75932 5.24069 6.75759C5.21732 6.75586 5.17024 6.75241 5.13605 6.74992C5.10187 6.74743 5.04628 6.74331 5.01253 6.74076C4.97878 6.73821 4.92532 6.73414 4.89373 6.73172C4.86214 6.72929 4.81646 6.72578 4.79223 6.72391C4.768 6.72205 4.72268 6.71849 4.69152 6.716C4.66037 6.71351 4.61859 6.71007 4.59868 6.70834C4.57878 6.70661 4.54408 6.70376 4.52158 6.70201C4.49908 6.70025 4.45659 6.69685 4.42717 6.69445C4.39774 6.69205 4.34853 6.68793 4.31781 6.6853C4.28709 6.68267 4.23788 6.67845 4.20845 6.67591C4.17902 6.67338 4.13123 6.66927 4.10223 6.66676C4.07324 6.66426 4.0258 6.66011 3.9968 6.65752C3.96781 6.65494 3.92073 6.65071 3.89217 6.64813C3.86361 6.64554 3.81794 6.64139 3.79068 6.63891C3.76341 6.63643 3.7188 6.63232 3.69153 6.62978C3.66427 6.62723 3.61966 6.62308 3.5924 6.62054C3.56514 6.618 3.52054 6.61377 3.49328 6.61112C3.46602 6.60848 3.42318 6.60431 3.39807 6.60185C3.37297 6.59939 3.33048 6.59523 3.30366 6.59259C3.27684 6.58996 3.23436 6.58579 3.20925 6.58333C3.18414 6.58087 3.14201 6.57678 3.11561 6.57423C3.08922 6.57169 3.06384 6.56854 3.05921 6.56723C3.0508 6.56486 3.0508 6.56486 3.05935 6.55251C3.06643 6.54229 3.07195 6.5387 3.09137 6.53165C3.10427 6.52697 3.20193 6.49451 3.30838 6.45953C3.41483 6.42454 3.58831 6.36705 3.6939 6.33177C3.79948 6.2965 3.96164 6.24192 4.05424 6.2105C4.14684 6.17908 4.29979 6.1267 4.39412 6.0941C4.48846 6.0615 4.62512 6.01405 4.69782 5.98866C4.77052 5.96326 4.88276 5.92384 4.94724 5.90106C5.01173 5.87828 5.12927 5.83654 5.20845 5.80831C5.28763 5.78008 5.41685 5.7337 5.4956 5.70524C5.57436 5.67679 5.71102 5.62711 5.7993 5.59486C5.88758 5.5626 6.04477 5.50466 6.14863 5.4661C6.25248 5.42754 6.4346 5.35935 6.55335 5.31457C6.67209 5.26979 6.84557 5.20389 6.93887 5.16813C7.03216 5.13237 7.16759 5.08018 7.23983 5.05216C7.31207 5.02413 7.44907 4.97065 7.54427 4.93331C7.63947 4.89597 7.76306 4.84731 7.8189 4.82518C7.87475 4.80304 7.96893 4.76555 8.02819 4.74187C8.08746 4.71818 8.19615 4.67452 8.26973 4.64484C8.3433 4.61516 8.45838 4.56855 8.52546 4.54125C8.59253 4.51396 8.69945 4.4702 8.76305 4.444C8.82666 4.41781 8.92862 4.37572 8.98965 4.35048C9.05067 4.32523 9.15405 4.28218 9.21939 4.2548C9.28472 4.22742 9.40368 4.1774 9.48374 4.14365C9.5638 4.10989 9.69516 4.05418 9.77565 4.01985C9.85613 3.98553 9.98642 3.92966 10.0652 3.89571C10.1439 3.86177 10.2785 3.80341 10.3642 3.76604C10.4498 3.72866 10.5759 3.67343 10.6442 3.6433C10.7126 3.61317 10.821 3.56523 10.885 3.53677C10.949 3.50831 11.0524 3.46206 11.1147 3.43399C11.177 3.40592 11.2393 3.37812 11.253 3.37222C11.2769 3.36194 11.2794 3.3615 11.3128 3.36194C11.3319 3.36219 11.3752 3.36379 11.409 3.36551C11.4427 3.36723 11.5157 3.37069 11.5711 3.3732C11.6264 3.3757 11.7227 3.37983 11.7851 3.38236C11.8474 3.3849 11.9401 3.38848 11.9912 3.39032C12.0423 3.39216 12.1329 3.39485 12.1926 3.39631C12.2523 3.39777 12.3592 3.40048 12.4302 3.40235C12.5012 3.40421 12.6534 3.40707 12.7685 3.40871C12.8836 3.41034 13.0642 3.41249 13.1698 3.41348C13.2754 3.41447 13.4758 3.41383 13.6151 3.41206C13.7544 3.41029 13.923 3.40806 13.9896 3.40711C14.0562 3.40616 14.1872 3.40337 14.2807 3.40091C14.3742 3.39845 14.5144 3.39434 14.5923 3.39178C14.6702 3.38922 14.7679 3.38567 14.8094 3.38388C14.851 3.3821 14.9189 3.37939 14.9605 3.37786C15.002 3.37633 15.0672 3.37359 15.1052 3.37177C15.1433 3.36995 15.2134 3.36642 15.261 3.36395C15.3086 3.36147 15.3738 3.35796 15.4058 3.35616C15.4378 3.35435 15.4881 3.35165 15.5175 3.35014C15.5469 3.34863 15.5951 3.3459 15.6245 3.34407C15.6539 3.34224 15.6975 3.33934 15.7213 3.33763C15.7451 3.33591 15.7866 3.33363 15.8134 3.33254C15.8614 3.33059 15.8621 3.33066 15.8621 3.33705C15.8621 3.34205 15.8551 3.34736 15.8314 3.36025C15.8146 3.36945 15.7693 3.39318 15.7308 3.41298C15.6923 3.43279 15.613 3.47372 15.5545 3.50394C15.4961 3.53417 15.4097 3.57857 15.3625 3.60262C15.3153 3.62666 15.2357 3.66724 15.1855 3.69278C15.1354 3.71832 15.0359 3.7688 14.9645 3.80497C14.893 3.84113 14.7783 3.8988 14.7096 3.93312C14.6408 3.96745 14.5105 4.0324 14.4201 4.07748C14.3296 4.12255 14.1779 4.19735 14.0831 4.24371C13.9882 4.29006 13.853 4.35585 13.7825 4.38992C13.7121 4.42398 13.602 4.47705 13.538 4.50785C13.4739 4.53865 13.3752 4.5859 13.3185 4.61284C13.2618 4.63978 13.1733 4.68188 13.1218 4.7064C13.0703 4.73091 12.9892 4.76927 12.9416 4.79164C12.894 4.81401 12.8122 4.85232 12.7599 4.87677C12.7075 4.90122 12.6215 4.94134 12.5687 4.96592C12.5159 4.9905 12.4245 5.03285 12.3657 5.06001C12.3068 5.08718 12.2066 5.13326 12.143 5.16241C12.0794 5.19156 11.9881 5.23325 11.9401 5.25505C11.892 5.27686 11.8159 5.31136 11.7709 5.33173C11.7259 5.3521 11.654 5.38456 11.6112 5.40387C11.5683 5.42318 11.4625 5.47058 11.3759 5.5092C11.2894 5.54782 11.1407 5.61377 11.0455 5.65575C10.9503 5.69773 10.786 5.76965 10.6804 5.81558C10.5748 5.86149 10.4304 5.92404 10.3594 5.95457C10.2885 5.98509 10.1716 6.03511 10.0998 6.06571C10.028 6.09631 9.86935 6.16331 9.74732 6.21459C9.62529 6.26587 9.45677 6.33629 9.37282 6.37108C9.28887 6.40587 9.14725 6.46416 9.05811 6.50062C8.96897 6.53708 8.85177 6.58482 8.79766 6.60671C8.74355 6.62861 8.65753 6.66325 8.6065 6.68369C8.55547 6.70414 8.46662 6.73969 8.40905 6.76269C8.35148 6.7857 8.25865 6.82248 8.20277 6.84442C8.14688 6.86637 8.08691 6.88919 8.0695 6.89513C8.03909 6.90552 8.03622 6.90592 7.99645 6.90549Z" fill="#444444"/>
</svg>
