<svg width="24" height="24" viewBox="0 0 24 24" fill="none" xmlns="http://www.w3.org/2000/svg">
<path fill-rule="evenodd" clip-rule="evenodd" d="M15.045 14.6652C15.1755 14.6943 15.3093 14.7095 15.4436 14.7105C15.9163 14.7105 16.2178 14.4985 16.3523 14.2649C16.4733 14.0549 16.4798 13.8155 16.3812 13.5862L17.6762 13.0882C17.8272 13.0301 17.8981 12.8712 17.8345 12.7333C17.7709 12.5954 17.597 12.5307 17.4459 12.5887L16.0283 13.1339C15.9094 13.0247 15.7895 12.9162 15.6749 12.8127L15.6749 12.8126L15.649 12.7892C15.4411 12.6012 15.2555 12.4333 15.1257 12.3068C15.5675 12.2416 16.3663 12.096 16.6993 12.0183C16.7415 12.0085 16.7823 11.9983 16.8221 11.9882L16.8235 11.9879C17.0909 11.9212 17.2843 11.873 17.4966 12.0315C17.753 12.223 18.4949 12.9065 19.0843 13.4943C19.2516 13.6611 19.4843 13.7521 19.7251 13.7814L18.3622 17.8756C18.1918 18.3878 17.7822 18.805 17.2432 19.0155L11.2824 21.3435C11.1318 21.4023 11.0619 21.5615 11.1263 21.6992C11.1907 21.8367 11.3651 21.9006 11.5157 21.8417L17.4766 19.5137C18.1766 19.2404 18.7085 18.6985 18.93 18.0332L20.3554 13.751C20.3592 13.7395 20.3621 13.728 20.3643 13.7164C20.3925 13.7066 20.4199 13.6958 20.4464 13.6842C20.946 13.464 21.1184 13.0488 20.9188 12.5453C20.6198 11.7907 19.6523 10.6822 18.8467 9.89633C18.5958 9.66013 18.3293 9.43821 18.0488 9.23183C17.8308 9.06562 17.6427 8.92217 17.5685 8.82325C17.1292 8.23687 16.7474 6.74492 16.9734 6.12976C17.3565 5.08729 17.7782 3.50199 17.7065 2.46385C17.692 2.26147 17.6273 2.12968 17.5078 2.06085C17.3393 1.96409 17.1201 2.0355 16.9701 2.09774C16.7445 2.1913 15.8559 2.67003 14.9593 3.31342C13.7245 2.69641 11.8861 2.96937 11.1323 3.26489C10.8169 3.0452 9.51003 2.14442 9.16571 2.03973C9.09293 2.01222 9.01469 1.99873 8.93594 2.00009C8.85715 2.00146 8.77955 2.01765 8.70796 2.04766C8.65961 2.07273 8.61741 2.10661 8.58396 2.1472C8.55024 2.188 8.52577 2.23489 8.51178 2.28507C8.39567 2.65818 8.64749 3.953 8.7893 4.42277L8.7996 4.45698C9.00156 5.12535 9.247 5.93814 9.36639 6.94046C9.33468 6.93837 9.30205 6.94096 9.26956 6.94875L5.96075 7.744C5.29711 7.9035 5.10789 8.68104 5.63506 9.08225L12.8788 14.5953L10.4359 21.2165C10.3484 21.4537 10.0264 21.5355 9.81731 21.3735L3.81106 16.7213C3.63103 16.5819 3.55405 16.3608 3.61284 16.152L5.52443 9.36262C5.56524 9.21767 5.46968 9.06996 5.31098 9.03271C5.15229 8.99542 4.99056 9.08271 4.94976 9.22762L3.03815 16.017C2.92276 16.4269 3.07387 16.8609 3.42726 17.1346L9.43352 21.7868C9.96231 22.1965 10.7768 21.9896 10.9982 21.3895L13.4633 14.7082L14.2571 14.403C14.5378 14.523 14.8045 14.6132 15.045 14.6652ZM6.11177 8.26808L9.41698 7.47371C9.61616 9.8275 10.0979 10.7597 10.6166 11.5788C11.1427 12.41 12.3986 13.4276 13.5837 14.0739L13.2761 14.1922L6.01493 8.66596C5.85822 8.54667 5.91445 8.3155 6.11177 8.26808ZM15.1613 5.70356C15.2633 5.58848 15.3582 5.48147 15.4648 5.47032L15.4653 5.47074C15.6985 5.44406 15.7369 6.05102 15.5963 6.33783C15.4616 6.62254 14.9965 6.80679 14.8226 6.66337C14.7703 6.61937 14.7692 6.59237 14.7661 6.51479V6.51471C14.7654 6.49825 14.7647 6.47954 14.7633 6.45787C14.7555 6.33408 14.4566 6.357 14.4488 6.54458C14.4471 6.57608 14.4483 6.60862 14.4496 6.64392C14.4526 6.72171 14.456 6.81287 14.4296 6.93558C14.3429 7.34287 13.5464 7.41708 13.3397 7.38875C13.1333 7.36246 12.8832 7.212 13.0064 7.12196C13.3013 6.90558 13.0909 6.38742 12.6381 6.21733C12.4797 6.15898 12.4176 6.13772 12.3583 6.194C12.2483 6.29863 12.3332 6.47204 12.4797 6.51083C12.7111 6.57333 13.0334 6.99604 12.5012 7.26533C11.9685 7.53379 11.6079 7.03317 11.5773 6.9235C11.5467 6.81387 11.4965 6.79054 11.3459 6.78346C10.7031 6.76346 10.639 6.55387 10.5827 6.36996C10.5757 6.34692 10.5687 6.32421 10.5608 6.30237C10.4896 6.10562 10.6745 6.01558 10.7055 6.03684C10.7081 6.03853 10.7117 6.04096 10.7162 6.044L10.7164 6.04415L10.7165 6.04422C10.7692 6.07978 10.9421 6.19658 11.0876 6.18358C11.1996 6.17233 11.2244 6.20829 11.2824 6.29267C11.3062 6.32721 11.3355 6.36992 11.3787 6.42079C11.6312 6.72175 11.8489 6.32696 11.7065 6.25279C11.3902 6.08645 11.4733 5.82257 11.5851 5.76421C11.6969 5.70585 11.7238 5.59955 11.6526 5.51285C11.581 5.42614 11.4249 5.45657 11.371 5.50242C11.2747 5.58537 11.2572 5.6772 11.2434 5.74972C11.2298 5.82118 11.2198 5.8739 11.1414 5.88093C10.9041 5.90178 10.507 5.64165 10.6644 5.1089C10.8246 4.57657 11.5152 4.57657 11.5152 4.57657L11.4997 4.75874C11.4919 4.83669 11.5983 5.19561 11.8448 5.32484C12.2766 5.55161 12.7244 5.44197 12.7572 5.2894C12.7764 5.19436 12.6353 5.08431 12.4135 5.09848C12.1922 5.11265 11.8717 5.00135 11.8005 4.71788C11.7293 4.4315 11.9817 4.16596 12.2711 4.05632C12.5564 3.94835 12.8362 4.14303 12.8882 4.26684C12.9923 4.51487 13.2082 4.39398 13.2082 4.39398C13.2082 4.39398 13.4821 4.00296 13.8121 4.02589C14.1457 4.04923 14.2808 4.27726 14.2808 4.27726C14.2808 4.27726 15.0363 4.13928 15.164 4.75332C15.3087 5.45615 14.8418 5.65041 14.572 5.68792L14.5656 5.68882C14.3002 5.72524 14.2012 5.73883 14.1786 5.89844C14.1535 6.05935 14.6126 6.13898 14.9231 5.93179C15.0109 5.87335 15.088 5.78637 15.1613 5.70356ZM13.2643 6.09479C13.2045 6.1569 13.3145 6.26654 13.3972 6.26654C13.5861 6.26654 13.7212 6.04351 13.729 5.79214C13.7427 5.47908 13.6112 5.11432 13.4359 5.1656C13.3551 5.19061 13.2876 5.24188 13.2913 5.32317C13.2939 5.36426 13.3149 5.39926 13.3388 5.43916C13.3695 5.49034 13.405 5.54956 13.4127 5.63999C13.4223 5.76046 13.4013 5.9568 13.2643 6.09479ZM13.786 4.2823C13.7415 4.27855 13.6438 4.27033 13.5843 4.41357C13.5263 4.55364 13.5455 4.85587 13.7829 5.0718C14.0047 5.27732 14.4196 5.24563 14.5583 5.16226C14.6971 5.07889 14.599 4.90047 14.5159 4.90214C14.506 4.90214 14.4908 4.90378 14.4714 4.90587C14.3735 4.91643 14.1695 4.93844 14.0088 4.81877C13.881 4.72497 13.9449 4.42441 13.9449 4.42441C13.9508 4.3252 13.833 4.28435 13.7906 4.28268L13.786 4.2823ZM7.7849 17.9446C7.99229 18.0465 8.22383 18.1002 8.45929 18.1013C8.77559 18.091 9.07648 17.9738 9.30365 17.7725C9.58226 17.5218 9.78176 17.2072 9.8811 16.8617C10.018 16.466 10.0704 16.0498 10.0354 15.636C10.0056 15.2402 9.89796 14.8525 9.71783 14.4915C9.60299 14.2642 9.45785 14.0507 9.28574 13.856C9.08013 13.632 8.84973 13.428 8.59827 13.2472L7.93756 12.7354C7.92357 12.7246 7.90689 12.7172 7.88894 12.7137C7.87103 12.7104 7.85248 12.7112 7.83503 12.7161L7.08586 12.9281C7.06846 12.933 7.05264 12.9418 7.03984 12.9536C7.02703 12.9654 7.0176 12.98 7.01241 12.9959L5.83521 16.5169C5.82855 16.5369 5.82855 16.5582 5.83521 16.5781C5.84177 16.598 5.85476 16.6155 5.87244 16.6284L7.05369 17.4917C7.27812 17.6672 7.52338 17.8191 7.7849 17.9446ZM14.1934 19.6404C14.2092 19.6475 14.2268 19.6511 14.2445 19.6508C14.2558 19.6505 14.2671 19.6486 14.2778 19.6452L15.0883 19.3831C15.1044 19.3777 15.119 19.369 15.1309 19.3577C15.1428 19.3463 15.1517 19.3327 15.157 19.3177L15.6807 17.8108L16.974 17.3922C16.9903 17.3869 17.0051 17.3781 17.0171 17.3666C17.0291 17.3552 17.0379 17.3412 17.0429 17.326L17.2814 16.6204C17.2875 16.6023 17.288 16.5829 17.2831 16.5643C17.2781 16.546 17.2678 16.5292 17.2531 16.5158C17.2386 16.5025 17.2203 16.4932 17.2003 16.4891C17.1803 16.485 17.1593 16.4861 17.14 16.4924L16.0051 16.86L16.157 16.4275L17.5574 15.9743C17.5737 15.969 17.5885 15.9602 17.6005 15.9487C17.6124 15.9372 17.6213 15.9233 17.6264 15.9082L17.8649 15.2027C17.8711 15.1846 17.8717 15.1653 17.8667 15.1469C17.8618 15.1285 17.8514 15.1117 17.8367 15.0982C17.8222 15.085 17.804 15.0758 17.784 15.0716C17.7641 15.0675 17.7432 15.0685 17.7239 15.0747L15.9214 15.6532C15.904 15.6589 15.8884 15.6685 15.8761 15.681L15.2632 16.3048C15.2526 16.3156 15.2445 16.3285 15.2396 16.3425L14.1368 19.5164C14.1314 19.532 14.13 19.5486 14.1329 19.5647C14.1357 19.581 14.1427 19.5963 14.1533 19.6095C14.1637 19.6226 14.1775 19.6332 14.1934 19.6404ZM8.05153 17.0613C8.06301 17.0618 8.07454 17.0621 8.08607 17.0621C8.18851 17.0621 8.28977 17.0424 8.38337 17.0043C8.47738 16.9658 8.56164 16.91 8.63076 16.8402C8.80639 16.6479 8.93175 16.4216 8.99746 16.1785C9.08947 15.9136 9.12875 15.6357 9.1133 15.3581C9.09649 15.085 9.01501 14.8186 8.87447 14.577C8.80343 14.4587 8.7194 14.3472 8.62379 14.2442C8.49438 14.1199 8.35502 14.0045 8.20678 13.8992L7.9906 13.7365C7.9906 13.7365 7.9428 13.7126 7.9156 13.714C7.88839 13.7152 7.86269 13.7258 7.8436 13.7435C7.83079 13.7555 7.82136 13.77 7.81607 13.786L6.95385 16.382C6.94733 16.4017 6.94729 16.4227 6.95376 16.4424C6.96009 16.462 6.97271 16.4794 6.98994 16.4924L7.20434 16.6537C7.35299 16.7705 7.51271 16.8749 7.6816 16.9658L7.68802 16.969C7.80149 17.0209 7.92494 17.0523 8.05153 17.0613Z" fill="white"/>
</svg>
