<svg version="1.1" xmlns="http://www.w3.org/2000/svg" x="0px" y="0px" viewBox="0 0 96 96">
<path style="fill:#FFFFFF;" d="M59.25,42.46c0.16,1.4,0.16,1.4-1.24,1.4H37.67c-0.81,0-0.81-0.16-0.7-1.35c0.05-1.24,0.16-2.53,0.48-3.77
	c0.59-2.26,1.99-3.71,4.3-4.36c2.21-0.65,4.52-0.81,6.78-0.86c1.99,0.11,3.98,0.32,5.92,0.86c2.31,0.65,3.71,2.1,4.3,4.36
	C59.03,39.98,59.19,41.27,59.25,42.46z M58.39,52.14H38.1c-1.4,0-1.4,0-1.24,1.4c0.05,1.24,0.16,2.53,0.48,3.77
	c0.59,2.26,1.99,3.71,4.3,4.36c1.94,0.54,3.93,0.75,5.92,0.86c2.26-0.05,4.57-0.22,6.78-0.86c2.31-0.65,3.71-2.1,4.3-4.36
	c0.32-1.24,0.43-2.53,0.48-3.77C59.25,52.36,59.25,52.2,58.39,52.14z M96,48c0,26.48-21.47,48-48,48C21.52,96,0,74.48,0,48
	S21.52,0,48,0C74.53,0,96,21.52,96,48z M79.53,63.71c-0.75-1.08-1.83-1.18-2.96-1.18h-9.52c0.48-1.08,0.86-2.31,1.08-3.71
	c0.22-1.4,0.38-2.8,0.54-4.25v-2.42h7.53c0.59,0,1.13,0,1.67-0.11c1.29-0.22,2.1-0.97,2.15-2.21v-3.61
	c-0.05-1.24-0.86-1.99-2.15-2.21c-0.54-0.11-1.08-0.11-1.67-0.11h-7.43v-2.48c-0.16-1.45-0.32-2.85-0.54-4.25
	c-0.27-1.4-0.59-2.58-1.18-3.66h9.42c1.13,0,2.21-0.11,2.91-1.18c1.13-1.83,0.54-4.14-1.24-5.27c-0.22-0.22-0.43-0.32-0.75-0.38
	c-1.94-0.7-3.98-0.81-6.08-0.86c-7.05-0.16-16.47-0.27-23.46-0.27c-5.92,0-14.69,0.05-23.25,0.22c-2.04,0.11-4.09,0.22-6.08,0.86
	c-0.27,0.05-0.54,0.22-0.75,0.38c-1.78,1.13-2.37,3.5-1.24,5.27c0.75,1.08,1.83,1.18,2.96,1.18H29c-0.48,1.08-0.86,2.31-1.08,3.71
	c-0.22,1.4-0.38,2.8-0.54,4.25v2.42h-7.53c-0.59,0-1.13,0-1.67,0.11c-1.29,0.22-2.1,0.97-2.15,2.21v3.61
	c0.05,1.24,0.86,1.99,2.15,2.21c0.54,0.11,1.08,0.11,1.67,0.11h7.53v2.48c0.16,1.45,0.32,2.85,0.54,4.25
	c0.22,1.35,0.59,2.58,1.02,3.66h-9.42c-1.13,0-2.21,0.11-2.91,1.18c-1.13,1.83-0.54,4.14,1.24,5.27c0.22,0.22,0.43,0.32,0.75,0.38
	c1.94,0.7,3.98,0.81,6.08,0.86c7.1,0.16,16.47,0.27,23.46,0.27c5.92,0,14.69-0.05,23.25-0.22c2.1-0.11,4.14-0.22,6.13-0.86
	c0.27-0.05,0.54-0.22,0.75-0.38C80.07,67.86,80.66,65.49,79.53,63.71z"/>
</svg>
