<svg width="110" height="90" viewBox="0 0 110 90" fill="none" xmlns="http://www.w3.org/2000/svg">
<path fill-rule="evenodd" clip-rule="evenodd" d="M48.2596 53.0224L47.4245 51.6374C45.4537 48.368 43.4134 44.9872 41.1763 41.8327C39.4642 39.4215 39.2291 37.5226 40.3632 35.2718C41.7598 32.5108 41.1944 29.5694 40.6494 27.5991C39.331 22.8389 37.8289 18.1772 36.2735 13.4224C35.4659 10.9475 33.1832 6.05784 31.453 3.46267C30.5205 2.10575 29.3462 0.931959 27.9886 0L27.3378 1.09347C28.5347 1.92529 29.572 2.96617 30.399 4.16613C32.049 6.63738 34.3027 11.4651 35.0701 13.8141C36.6182 18.5526 38.1169 23.2017 39.4259 27.9345C40.2044 30.7447 40.1425 32.8915 39.2309 34.694C37.8871 37.3531 38.168 39.7786 40.1425 42.5579C42.3395 45.6538 44.353 48.989 46.3028 52.2184L46.3415 52.2825L47.1784 53.6695C48.0316 55.0799 47.7364 56.6783 46.4492 57.6461C45.5403 58.3154 44.5336 58.8405 43.4645 59.2024C41.4589 59.8967 40.6967 60.6185 41.5026 63.0713C42.3577 65.6758 41.9312 67.1045 39.9803 68.1743L39.3748 68.5041L39.7522 69.0818C40.7058 70.5398 41.0104 71.34 40.2993 72.2111C38.8626 73.9697 38.476 75.845 39.054 78.2944C39.9092 81.9302 39.2107 84.6401 36.9209 86.5775C35.7888 87.5254 34.4001 88.1148 32.9315 88.2705C32.7947 88.285 32.0818 88.3015 31.0863 88.318C31.6938 88.0305 32.2599 87.6626 32.7693 87.2244C36.1642 84.2593 36.1021 80.8075 36.0512 78.2944C36.0512 78.1657 36.0494 78.0402 36.0478 77.9174C36.0446 77.6799 36.0416 77.4531 36.0512 77.2355C36.0679 75.5974 36.4683 73.9859 37.2197 72.53C37.8926 71.2323 37.7211 69.9367 37.4441 68.7921C38.5764 67.4089 39.0485 65.7141 38.9282 63.4924C38.7485 62.6654 38.5214 61.8495 38.2482 61.0484C37.7741 60.1008 38.0404 59.5451 38.6875 58.3787L38.6882 58.3775C39.9826 56.0431 41.9394 52.5143 36.2043 42.2281C36.0377 41.9291 35.8853 41.657 35.7466 41.4117C35.1121 40.289 34.764 39.6694 34.722 39.2502C34.6874 38.8947 34.8733 38.5085 35.3309 37.5917C35.5899 37.0741 35.9089 36.4327 36.2937 35.567C36.7621 34.8051 37.6247 32.5216 35.9453 27.366C35.3 25.3813 34.7511 23.4258 34.2224 21.5341C33.5459 19.1138 32.8458 16.6135 31.9452 14.084C31.0446 11.5544 28.9988 6.97635 27.5166 4.44679C27.4891 4.39939 27.4613 4.35383 27.4336 4.30825C27.4056 4.26271 27.3779 4.21715 27.3506 4.16978C27.0507 3.68679 26.7195 3.2241 26.3588 2.7847L25.6422 3.9529C25.8482 4.22626 26.0506 4.51968 26.2438 4.83132L26.244 4.83151V4.83162V4.83169V4.83174H26.2442C26.2951 4.91544 26.346 4.99914 26.3952 5.08465C27.8429 7.54861 29.8376 12.0264 30.7235 14.505C31.5967 16.9473 32.2521 19.2904 32.9428 21.7595L32.9735 21.8695C33.5058 23.774 34.0565 25.7421 34.711 27.7524C36.3246 32.7131 35.3839 34.5866 35.1797 34.9128C35.1586 34.9446 35.1403 34.9781 35.1249 35.0129C34.7438 35.8712 34.4248 36.5092 34.1695 37.0177C33.1284 39.1006 33.0865 39.323 34.6143 42.0313C34.753 42.2743 34.9049 42.5446 35.0701 42.8422C40.4615 52.5123 38.7787 55.5428 37.5497 57.7554L37.5479 57.7588C36.9051 58.9204 36.298 60.0167 37.0758 61.5916C37.167 61.8394 37.5809 63.3176 37.6354 63.5872C37.7376 65.5737 37.2983 67.039 36.2517 68.1963L36.0347 68.4549L36.1222 68.7884C36.4596 70.0861 36.5616 71.0174 36.0821 71.9449C35.2344 73.5722 34.7812 75.3757 34.7585 77.21V78.3162V78.3224C34.8004 80.7196 34.8527 83.7002 31.9051 86.2731C30.9424 87.1151 29.646 87.5888 28.3881 87.9753C27.9412 88.0928 27.4858 88.175 27.0261 88.2213L26.9423 88.2305L26.8655 88.2614C26.758 88.3033 26.6285 88.3452 26.4846 88.3853L25.622 88.3963C26.4846 87.9989 27.3124 87.4977 27.8429 86.8327C30.1783 83.8938 30.9921 79.9941 31.4791 77.6606L31.4802 77.6547L31.5249 77.4393C31.6056 77.0497 31.6753 76.713 31.7465 76.4518C32.9114 71.9559 33.2615 63.075 33.2998 62.0162C35.9655 53.7987 33.1648 47.1759 31.4876 43.2121C30.9004 41.8235 30.3935 40.6244 30.3608 39.9099C30.2915 38.3225 30.6871 36.8681 31.0719 35.463C31.4729 33.9924 31.8522 32.6017 31.5733 31.3116C31.3508 30.2927 31.1101 29.1064 30.8567 27.8488C29.9723 23.4879 28.8712 18.0606 27.5748 14.7272C26.8802 12.9376 25.3979 9.29451 24.0997 6.56266L23.3139 7.89122C24.4973 10.4645 25.7625 13.5809 26.3879 15.181C27.6476 18.4213 28.7417 23.7939 29.6187 28.1022C29.874 29.3634 30.1165 30.5553 30.339 31.5794C30.5521 32.5667 30.2281 33.7523 29.8527 35.1256L29.852 35.1277L29.8247 35.2298C29.4498 36.6287 29.0226 38.2228 29.1063 39.9665C29.1482 40.9079 29.6707 42.1422 30.3319 43.7042L30.3335 43.7078L30.3339 43.709C32.0495 47.7676 34.6434 53.9034 32.0802 61.7045L32.0509 61.792V61.8832C32.0509 61.9798 31.7135 71.5841 30.534 76.1311C30.4465 76.4701 30.3516 76.8983 30.2551 77.394C29.792 79.6175 29.0151 83.3371 26.8673 86.0399C26.2367 86.8343 24.7872 87.4104 23.6766 87.8131L24.9657 90C25.5966 89.896 26.1911 89.7812 26.676 89.6536C29.4491 89.6227 32.7711 89.5771 33.0846 89.5371C34.7993 89.3529 36.4197 88.6618 37.7395 87.5524C40.3941 85.3071 41.2528 82.0942 40.2919 78.0047C39.8034 75.9234 40.0896 74.4782 41.2838 73.0183C42.4782 71.5585 41.8528 70.0588 41.1726 68.9416C43.7652 67.1884 43.3752 64.697 42.7133 62.6815C42.1846 61.0686 42.3577 60.9392 43.8802 60.4144C45.0742 60.0085 46.1983 59.4207 47.213 58.6721C49.0145 57.316 49.4501 54.9908 48.2596 53.0224ZM21.6038 15.7862L21.4579 15.2522C21.2282 14.4102 20.9565 13.4242 20.663 12.4018L21.5491 10.9019C21.981 12.3303 22.3711 13.7532 22.6883 14.9102L22.6883 14.9104L22.6886 14.9114L22.8345 15.4416C24.4207 21.2153 26.9769 31.4775 26.2713 35.3302C25.4545 39.7805 26.2257 42.6436 27.1192 45.9586C28.1857 49.9133 29.3927 54.3966 28.5904 62.758C28.5448 63.2539 28.4953 63.8309 28.441 64.465V64.4664L28.4408 64.4675L28.4082 64.8484L28.4066 64.8647V64.8649C28.1243 68.1511 27.7379 72.6459 27.0644 75.4824C26.1998 79.18 24.6501 82.6829 22.4953 85.8101L21.7788 84.591C23.672 81.7195 25.0418 78.5359 25.8246 75.1871C26.4663 72.4842 26.8478 68.0939 27.1295 64.8528V64.8526L27.1391 64.7426C27.2012 63.9516 27.2631 63.2374 27.3215 62.6395C28.1 54.5081 26.9242 50.1432 25.8867 46.2926L25.8865 46.2922L25.8858 46.2892C24.9526 42.8278 24.1473 39.8412 25.015 35.1041C25.4983 32.4726 24.2548 25.4306 21.6038 15.7862ZM18.6115 28.4339L18.684 29.0395C19.8923 39.1359 21.3585 51.3866 21.9626 53.3376C21.9972 53.4542 24.5718 64.8191 18.8631 79.6519L19.6781 81.0407C21.9428 75.4416 23.31 69.5207 23.7293 63.496C24.1141 57.5749 23.3776 53.6237 23.1823 52.964C22.6054 51.0863 21.0345 37.95 19.8845 28.3335L19.8845 28.3333L19.8844 28.3328L19.8844 28.3324L19.8844 28.3322L19.8786 28.2843C19.2131 22.7205 18.637 17.9073 18.3781 16.2651L17.3388 18.0239C17.6255 20.1989 18.0595 23.8239 18.5478 27.9022L18.6115 28.4339ZM16.4527 75.5518L15.4973 73.9115C15.7289 72.8181 15.9495 71.6717 16.1373 70.4743C17.8074 60.3232 17.2549 50.9615 14.4964 42.6454C14.0322 41.2481 13.9951 37.3675 13.9623 33.9381V33.9379L13.9621 33.9214L13.9604 33.7496C13.9429 32.0025 13.9266 30.375 13.8436 29.6514C13.654 28.0259 13.5009 26.3782 13.3587 24.758L14.4727 22.8719C14.4808 22.9798 14.4901 23.084 14.4992 23.1871H14.4992V23.1873H14.4993C14.5065 23.2686 14.5136 23.3493 14.5201 23.4297L14.5842 24.1306L14.5842 24.1308C14.7458 25.899 14.9118 27.7162 15.1163 29.5038C15.2093 30.3184 15.2257 31.9823 15.2439 33.9086C15.2712 36.9158 15.3114 41.0326 15.7125 42.2427C19.8148 54.6098 18.4109 67.1066 16.4527 75.5518ZM9.39512 42.6873C8.64212 40.4805 8.85543 38.0785 9.16357 36.019C9.35932 34.5502 9.41366 33.0661 9.32584 31.5867L10.4745 29.6404C10.4767 29.6649 10.4794 29.6892 10.4821 29.7134C10.4883 29.7691 10.4945 29.8245 10.4945 29.8793C10.6422 31.7801 10.7498 34.0199 10.4234 36.2068C10.1408 38.1149 9.94026 40.3291 10.6058 42.2755C13.4081 50.4857 13.3188 60.1118 12.2941 68.4643L11.2001 66.6107C12.4089 54.9598 10.9577 47.2655 9.39512 42.6873ZM7.26925 59.9203L5.99297 57.7533C5.92553 51.6975 5.35486 46.5964 4.27731 42.6981C4.09861 42.0361 3.99223 41.3565 3.96008 40.6715L5.2655 38.4627C5.17618 39.8515 5.17434 41.1654 5.50434 42.3591C6.73868 46.8151 7.32576 52.7853 7.26925 59.9203ZM1.26169 49.7055C1.26169 48.9736 1.2651 48.1783 1.26875 47.3278V47.3275C1.27163 46.6552 1.27466 45.9483 1.27628 45.2112L0 47.38V47.5513L1.26169 49.7055ZM93.5472 75.5516L94.5026 73.9112C94.2709 72.8179 94.0504 71.6714 93.8552 70.4649C92.1852 60.3141 92.7375 50.9521 95.4962 42.6363C95.9603 41.2389 95.9974 37.3583 96.0302 33.929V33.9287L96.0304 33.912L96.0309 33.8563C96.049 32.0655 96.066 30.3816 96.1489 29.6422C96.3403 28.0165 96.4917 26.3691 96.6357 24.7489L95.5217 22.8625C95.5054 23.054 95.4891 23.2347 95.4729 23.4155L95.4724 23.4203C95.2992 25.4159 95.1188 27.4789 94.8837 29.4963C94.7906 30.3108 94.7741 31.9748 94.756 33.9012C94.7285 36.9082 94.6884 41.0252 94.2874 42.2352C90.1851 54.6025 91.5889 67.099 93.5472 75.5516ZM100.836 36.019C101.145 38.0785 101.358 40.4805 100.605 42.6873C99.0424 47.2655 97.5911 54.9598 98.7999 66.6107L97.7059 68.4643C96.6813 60.1118 96.5937 50.4857 99.396 42.2755C100.06 40.3291 99.8591 38.1149 99.5784 36.2068C99.2539 34.0199 99.3595 31.7801 99.5074 29.8793C99.5074 29.8245 99.5135 29.7691 99.5197 29.7134V29.713C99.5225 29.6889 99.525 29.6646 99.5273 29.6404L100.676 31.5867C100.587 33.0661 100.641 34.5502 100.836 36.019ZM91.3536 28.7264L91.3887 28.4339L91.4521 27.9038C91.9405 23.8248 92.3748 20.1991 92.6612 18.0239L91.6219 16.2651C91.3632 17.9073 90.7871 22.7205 90.1216 28.2843L90.1159 28.3328C88.9659 37.9493 87.3947 51.0863 86.8179 52.964C86.6227 53.6237 85.8861 57.5749 86.2709 63.496C86.6903 69.5207 88.0572 75.4416 90.3221 81.0407L91.137 79.6519C85.4285 64.8191 88.0029 53.4542 88.0375 53.3376C88.6478 51.3667 90.1397 38.8848 91.3531 28.7312L91.3534 28.7298V28.7294L91.3536 28.7266V28.7264ZM88.5442 15.252L88.3985 15.7859C85.7475 25.4303 84.504 32.4723 84.9871 35.1038C85.8547 39.841 85.0494 42.8275 84.1163 46.289L84.1156 46.2919L84.1153 46.2924C83.0781 50.1432 81.9023 54.5079 82.6826 62.6393C82.739 63.2372 82.8011 63.9514 82.8648 64.7424L82.8668 64.7657V64.766C83.1457 68.0132 83.5264 72.4489 84.1777 75.1906C84.9605 78.5393 86.3302 81.7229 88.2234 84.5945L87.5068 85.8136C85.3522 82.6863 83.8023 79.1835 82.9377 75.4859C82.2632 72.6445 81.8766 68.1394 81.5959 64.8519C81.5285 64.0664 81.4664 63.3556 81.4135 62.7614C80.6118 54.4048 81.8186 49.922 82.8831 45.969L82.8849 45.9621C83.7782 42.647 84.5496 39.7839 83.7326 35.3336C83.027 31.4809 85.5834 21.2187 87.1695 15.4451L87.3154 14.9148L87.3159 14.9134C87.6331 13.7564 88.0231 12.3336 88.4549 10.9054L89.341 12.4053C89.0438 13.424 88.7741 14.4099 88.5442 15.252ZM62.5794 51.6374L61.7424 53.0224C60.5501 54.9908 60.9857 57.316 62.7854 58.6721C63.8001 59.4207 64.9242 60.0085 66.1184 60.4144C67.6407 60.9392 67.8158 61.0686 67.2851 62.6815C66.6251 64.697 66.2332 67.1884 68.8258 68.9416C68.1458 70.0588 67.5204 71.5585 68.7146 73.0183C69.9088 74.4782 70.195 75.9234 69.7065 78.0047C68.7456 82.0942 69.6042 85.3071 72.2589 87.5524C73.5787 88.6618 75.1991 89.3529 76.9138 89.5371C77.2273 89.5771 80.5493 89.6227 83.3224 89.6536C83.8073 89.7812 84.4018 89.896 85.0345 90L86.3218 87.8131C85.2114 87.4104 83.7638 86.8343 83.1329 86.0399C80.9833 83.3371 80.2083 79.6175 79.7454 77.394C79.6468 76.8983 79.5519 76.4701 79.4644 76.1311C78.2849 71.5841 77.9475 61.9798 77.9475 61.8832V61.792L77.9203 61.7045C75.3547 53.9027 77.9494 47.7664 79.6668 43.7078L79.6764 43.6854C80.3318 42.1323 80.8504 40.9041 80.8921 39.9665C80.9721 38.1825 80.5303 36.5623 80.1404 35.1329L80.1391 35.1277C79.7635 33.7537 79.4408 32.5672 79.6523 31.5794C79.8806 30.5773 80.1159 29.4145 80.3653 28.1833V28.1826L80.3655 28.1819L80.3815 28.1022C81.2512 23.7939 82.3453 18.4213 83.5995 15.181C84.223 13.5809 85.4885 10.4645 86.6717 7.89122L85.8859 6.56266C84.5879 9.29451 83.1054 12.9376 82.4108 14.7272C81.1144 18.0606 80.0133 23.4879 79.1289 27.8488C78.8757 29.1064 78.6348 30.2927 78.4125 31.3116C78.1352 32.6017 78.5127 33.9924 78.9158 35.463L78.9183 35.4729C79.3003 36.875 79.6959 38.3261 79.6248 39.9099C79.592 40.6244 79.0851 41.8235 78.4982 43.2121L78.4959 43.2176C76.82 47.1821 74.0214 53.8026 76.6857 62.0162C76.724 63.075 77.0742 71.9559 78.2393 76.4518C78.3202 76.7489 78.4011 77.1441 78.495 77.6033V77.6043L78.5053 77.6547L78.517 77.7096C79.0123 80.0484 79.8311 83.9141 82.1518 86.8327C82.6808 87.4977 83.5085 87.9989 84.3727 88.3963L83.5085 88.3853C83.3644 88.3452 83.2367 88.3033 83.1292 88.2614L83.0509 88.2305L82.967 88.2213C82.5073 88.175 82.0519 88.0928 81.6051 87.9753C80.3469 87.5888 79.0505 87.1151 78.088 86.2731C75.1405 83.7002 75.1925 80.7196 75.2344 78.3224V78.3162V77.21C75.2168 75.3734 74.7692 73.5665 73.9273 71.9339C73.446 71.0064 73.548 70.0751 73.8872 68.7776L73.9729 68.4441L73.743 68.1908C72.6948 67.0335 72.2553 65.5682 72.3575 63.5817C72.4122 63.3121 72.8261 61.8339 72.9171 61.5861C73.6958 60.0131 73.0892 58.9172 72.4473 57.7572L72.4432 57.7499C71.2142 55.5373 69.5314 52.5068 74.9228 42.8367C75.088 42.5391 75.2399 42.2688 75.3786 42.0258C76.9064 39.3175 76.8645 39.0953 75.8252 37.0122C75.5681 36.5037 75.2491 35.866 74.8698 35.0074L74.8625 34.9934C74.8533 34.9753 74.838 34.9453 74.8135 34.9073C74.6093 34.5811 73.6683 32.7076 75.2819 27.7469C75.9364 25.7366 76.4871 23.7685 77.0194 21.864L77.0827 21.6381V21.6379C77.7612 19.2112 78.4082 16.898 79.2694 14.4995C80.1574 12.0264 82.15 7.54861 83.5979 5.08465C83.6469 4.99898 83.698 4.91516 83.7491 4.83132C83.9423 4.51968 84.1447 4.22626 84.3507 3.9529L83.6579 2.7847C83.2979 3.22414 82.9672 3.68684 82.6679 4.16978C82.6397 4.21715 82.6118 4.26271 82.584 4.30827C82.5563 4.35383 82.5284 4.39939 82.5002 4.44679C81.0179 6.97635 78.9721 11.5544 78.0715 14.084C77.1709 16.6135 76.4708 19.1138 75.7943 21.5341C75.2656 23.4258 74.7186 25.3813 74.0712 27.366C72.3921 32.5216 73.2544 34.8051 73.7231 35.567C74.0904 36.3935 74.3993 37.0156 74.6503 37.5205L74.6507 37.5212V37.5214L74.6858 37.5917C75.1453 38.5085 75.3293 38.8947 75.2947 39.2502C75.2528 39.6694 74.9044 40.289 74.2701 41.4117C74.1314 41.657 73.9788 41.9291 73.8124 42.2281C68.0764 52.5157 70.0346 56.044 71.331 58.3787C71.9782 59.5451 72.2445 60.1008 71.7703 61.0484C71.494 61.8534 71.265 62.6737 71.0849 63.5052C70.9644 65.7267 71.4367 67.4215 72.569 68.8049C72.2935 69.9493 72.1205 71.2451 72.7931 72.5428C73.5448 73.9985 73.9449 75.61 73.9619 77.2483C73.9703 77.4657 73.9676 77.6927 73.9648 77.93V77.9302V77.9307C73.9635 78.0532 73.9619 78.1788 73.9619 78.307C73.9108 80.8204 73.8489 84.2719 77.2438 87.2372C77.7534 87.675 78.3195 88.0426 78.9265 88.3306C77.931 88.3143 77.2199 88.2978 77.0815 88.2831C75.613 88.1276 74.224 87.5382 73.0922 86.5901C70.8021 84.6529 70.1038 81.943 70.9591 78.307C71.537 75.8579 71.1504 73.9825 69.7138 72.2237C69.0027 71.3526 69.307 70.5527 70.2606 69.0947L70.638 68.5169L70.0328 68.1871C68.0819 67.1173 67.6552 65.6884 68.5104 63.0842C69.3162 60.6311 68.5542 59.9095 66.5485 59.2152C65.4797 58.8535 64.4737 58.3285 63.5657 57.6587C62.2785 56.6911 61.9831 55.0927 62.8365 53.6821L63.6679 52.2935L63.7066 52.2291C65.6564 48.9997 67.6699 45.6648 69.8669 42.5689C71.8414 39.7896 72.1223 37.3638 70.7785 34.705C69.8669 32.9025 69.8048 30.7557 70.5835 27.9455C71.8943 23.2125 73.3912 18.5636 74.9393 13.8251C75.7067 11.476 77.9604 6.64831 79.6104 4.17706C80.4342 2.97384 81.4689 1.9292 82.6643 1.09347L82.0134 0C80.6558 0.931959 79.4816 2.10575 78.5491 3.46267C76.8189 6.05784 74.5362 10.9475 73.7286 13.4224C72.1732 18.1772 70.671 22.8389 69.3526 27.5991C68.8077 29.5694 68.2441 32.5108 69.6391 35.2718C70.773 37.5226 70.5379 39.4215 68.8258 41.8327C66.5905 44.9872 64.5484 48.368 62.5794 51.6374ZM104.007 57.7533L102.731 59.9203C102.674 52.7853 103.261 46.8151 104.496 42.3591C104.826 41.1654 104.824 39.8515 104.734 38.4627L106.047 40.6715C106.015 41.3565 105.909 42.0359 105.732 42.6981C104.645 46.5964 104.074 51.6975 104.007 57.7533ZM108.731 47.3282C108.735 48.1785 108.738 48.9739 108.738 49.7055L110 47.5513V47.38L108.724 45.2112C108.725 45.9486 108.728 46.6555 108.731 47.3282Z" fill="white"/>
</svg>
