<svg version="1.1" xmlns="http://www.w3.org/2000/svg" x="0px" y="0px" viewBox="0 0 24 24">
<path style="fill-rule:evenodd;clip-rule:evenodd;fill:#FFFFFF;" d="M8.2,0.5c-0.1,0-0.2,0-0.2,0L4,2.8C4,2.8,3.9,2.9,3.9,3v4.4L0.1,9.6c0,0,0,0,0,0C0,9.6,0,9.7,0,9.8v4.5
	c0,0.1,0,0.2,0.1,0.2l3.8,2.2V21c0,0.1,0,0.2,0.1,0.2L8,23.5c0,0,0.1,0,0.1,0c0,0,0.1,0,0.1,0l3.8-2.2l3.8,2.2c0.1,0,0.2,0,0.2,0
	l3.9-2.2v-4.4l-4,2.3V23l-3.7-2.1l0.6-0.3l2.6-1.6v-4.4l-3.2,1.9c0,0,0,0,0,0l0,0c0,0-0.1-0.1-0.1-0.1l-3.6-2.1l3.5-2l3.3,1.9
	l0.2-0.1v-0.4l-3.3-1.9V7.9l3.7,2.2v3.8l3.9-2.3V7.8L20,7.9l0,0l3.5,2v0l-0.4,0.2c0,0,0,0,0,0l-2.7,1.6v4.4L24,14V9.8
	c0-0.1,0-0.2-0.1-0.2l-3.8-2.2V3c0,0,0-0.1,0-0.1c0,0-0.1-0.1-0.1-0.1L16,0.5c-0.1,0-0.2,0-0.2,0L12,2.7L8.2,0.5z M0.5,14.1v-3.9
	l3.4,2v3.9L0.5,14.1z M4.4,20.9V17l3.4,2v3.9L4.4,20.9z M15.9,1l3.4,2l-3.4,2l-3.5-2L15.9,1z M8.1,1l3.4,2L8.1,5L4.6,3L8.1,1z
	 M4.4,7.1V3.4l3.2,1.8L4.4,7.1z M3.9,11.6V7.9L0.7,9.8L3.9,11.6z M4.4,11.9v-4l3.4,2v3.9L4.4,11.9z M11.5,7.5l-3.4,2l-3.4-2l3.4-2
	L11.5,7.5z M16.2,9.6l-3.7-2.1L16,5.6l3.6,2.1L16.2,9.6z M8.3,18.7v-4l3.4,2v4L8.3,18.7z M8.6,5.2l3.4,2l3.5-1.9l-3.5-2L8.6,5.2z
	 M7.8,14.4v4l-3.4-2v-3.9L7.8,14.4z M15.9,14.3l4-2.3v4.4l-4,2.3V14.3z"/>
</svg>
