<svg xmlns="http://www.w3.org/2000/svg" viewBox="0 0 96 96" style="enable-background:new 0 0 96 96" xml:space="preserve">
  <path d="M48 96c26.5 0 48-21.5 48-48S74.5 0 48 0 0 21.5 0 48s21.5 48 48 48zm17.6-80.6c-4.5-2.6-9.2-4.2-14-4.7-1.3-.1-5-.1-6.4 0-4 .4-7.6 1.5-11.3 3.3-1.2.6-3.4 1.8-3.6 2 0 0 .7 1.4 2.1 4.1l1 1.8c.6 1.2 2.6 4.8 6.8 12.7 1 1.9 1.8 3.4 1.9 3.5.1.1.2.1.9-.2 1.2-.5 2.5-.7 4.2-.9 2.5-.2 4.2.1 6 .9.3.1.6.3.6.2 0 0 .4-.7.9-1.6.9-1.6 4.8-8.2 6.3-10.7.4-.7 1.3-2.2 1.9-3.2.6-1 1.6-2.8 2.3-4 .7-1.2 1.3-2.3 1.4-2.4l.1-.3-1.1-.5zM54.4 42.8c-1.4-1.4-3.3-2.4-5.4-2.6-2.7-.3-5.5.6-7.4 2.5-2.4 2.4-3.2 6.3-1.9 9.6.5 1.1 1 1.9 1.9 2.9 1.7 1.6 3.5 2.5 5.8 2.6 3.5.2 6.7-1.6 8.3-4.6.8-1.5 1.1-2.9 1-4.6-.1-1.3-.3-2.3-.8-3.4-.4-1.1-.7-1.6-1.5-2.4zm30.7 13.8c.2-1.3.3-5.2.2-6.5l-.1-.9H60v.3c-.4 2.5-.6 3.3-1.4 5.1-1 2-2 3.4-3.4 4.4-.3.3-.6.5-.6.5 0 .1 11.3 18.1 12.2 19.5.1.2.5.8.8 1.3.3.5.6 1 .7 1 .1 0 1.6-1 2.8-1.8 3.8-2.6 6.7-5.5 8.9-9 2.7-4.1 4.5-8.9 5.1-13.9zm-48.9-5.8-.2-1.4c0-.1-2.6-.1-12.6-.1-7.3 0-12.6 0-12.6.1-.1.2-.2 3.9-.1 5.3.3 4.6 1.3 8.2 3.2 12.2 1.7 3.4 3.3 5.7 5.9 8.4 1.5 1.5 2.9 2.7 4.6 4 1.2.8 3.3 2.2 3.4 2.2 0 0 .4-.6.9-1.3.4-.7 2.2-3.5 3.9-6.2 1.7-2.7 4.4-7 6-9.6l3-4.7-.2-.1c-1.8-1.2-3.3-2.7-4.1-4.5-.6-1.4-.9-2.6-1.1-4.3z" style="fill-rule:evenodd;clip-rule:evenodd;fill:#fff"/>
</svg>
