<svg width="24" height="24" viewBox="0 0 24 24" fill="none" xmlns="http://www.w3.org/2000/svg">
<path fill-rule="evenodd" clip-rule="evenodd" d="M12.1077 22C11.9701 22.0001 11.9701 22.0001 11.8667 21.9425C11.8098 21.9108 11.6376 21.8088 11.4841 21.716C11.3305 21.6231 11.1483 21.513 11.0793 21.4714C11.0102 21.4298 10.8864 21.3556 10.8042 21.3065C10.722 21.2575 10.6036 21.1862 10.5411 21.1481C10.4787 21.1101 10.3605 21.0385 10.2784 20.989C10.1964 20.9396 10.105 20.8853 10.0752 20.8684C10.0454 20.8515 9.99944 20.8235 9.97314 20.8062C9.94683 20.7889 9.8984 20.7591 9.86551 20.7399C9.83263 20.7207 9.79168 20.6966 9.77452 20.6864C9.75736 20.6762 9.6874 20.6345 9.61906 20.5937C9.55072 20.553 9.46791 20.5029 9.43502 20.4824C9.40214 20.4619 9.33522 20.4214 9.28632 20.3922C9.23743 20.3631 9.16964 20.3229 9.13569 20.3028C9.10174 20.2827 8.98838 20.2146 8.88379 20.1515C8.7792 20.0884 8.61414 19.9886 8.517 19.9298C8.41985 19.871 8.27456 19.7834 8.19413 19.7351C8.11369 19.6867 8.01021 19.6239 7.96417 19.5955C7.91814 19.567 7.82935 19.5139 7.76686 19.4775C7.70438 19.4411 7.58869 19.3724 7.50977 19.3248C7.41292 19.2664 7.34787 19.2174 7.30967 19.1742C7.27855 19.139 7.24491 19.0859 7.23494 19.0563C7.21891 19.0087 7.21682 18.6561 7.21705 16.0322C7.21731 13.1258 7.21781 13.0609 7.24036 13.0103C7.25303 12.9819 7.28095 12.9365 7.30239 12.9093C7.32383 12.8822 7.37927 12.8366 7.42557 12.808C7.47188 12.7795 7.54598 12.7358 7.59025 12.7109C7.63451 12.686 7.70716 12.6449 7.75168 12.6196C7.79621 12.5944 7.87299 12.5502 7.92232 12.5215C7.97165 12.4928 8.0416 12.4524 8.07778 12.4317C8.11395 12.411 8.17869 12.3743 8.22163 12.3502C8.26458 12.326 8.33185 12.2866 8.37111 12.2627C8.41037 12.2387 8.49228 12.1911 8.55313 12.1569C8.61398 12.1226 8.70875 12.0686 8.76374 12.0368C8.81872 12.0049 8.96495 11.9214 9.08869 11.8511C9.24211 11.764 9.33313 11.704 9.37485 11.6625C9.40849 11.629 9.44635 11.5798 9.45897 11.553C9.47594 11.517 9.48205 11.4771 9.48239 11.3999C9.48277 11.3138 9.4777 11.2843 9.45336 11.2314C9.43604 11.1938 9.39843 11.1439 9.36226 11.1107C9.32838 11.0795 9.26901 11.037 9.23033 11.0161C9.19164 10.9952 9.11963 10.9536 9.0703 10.9235C9.02097 10.8934 8.93756 10.8443 8.88495 10.8143C8.83233 10.7844 8.718 10.7179 8.63087 10.6665C8.54375 10.6152 8.42267 10.5441 8.36181 10.5084C8.30096 10.4727 8.22157 10.4267 8.1854 10.4061C8.14923 10.3855 7.9784 10.2859 7.80579 10.1849C7.63318 10.0838 7.42197 9.96015 7.33643 9.91001C7.25089 9.85988 7.12306 9.78546 7.05236 9.74463C6.98166 9.70381 6.8727 9.64003 6.81022 9.60289C6.74774 9.56576 6.65921 9.5164 6.61349 9.4932C6.56042 9.46626 6.50623 9.44879 6.46358 9.44485C6.41112 9.44001 6.38276 9.4447 6.33145 9.46671C6.29552 9.48212 6.2443 9.50968 6.21764 9.52796C6.19078 9.54637 6.14977 9.59315 6.12569 9.63285C6.09724 9.67975 6.07928 9.7271 6.0737 9.76987C6.06902 9.80581 6.06664 11.4703 6.06843 13.4687C6.07031 15.5755 6.06704 17.1871 6.06066 17.3042C6.05054 17.4898 6.04692 17.5116 6.01587 17.574C5.99729 17.6114 5.96528 17.6585 5.94474 17.6786C5.92419 17.6987 5.87589 17.732 5.83741 17.7525C5.76743 17.7898 5.76743 17.7898 5.0265 17.7898C4.28557 17.7898 4.28557 17.7898 4.22353 17.7599C4.18941 17.7435 4.13629 17.7038 4.10548 17.6717C4.07306 17.6379 4.03905 17.5863 4.02476 17.549C4.00006 17.4847 4.00006 17.4847 4 11.8051C3.99995 6.43658 4.00108 6.1221 4.02078 6.06458C4.03539 6.02192 4.06264 5.9828 4.11199 5.93366C4.17071 5.87519 4.19619 5.85931 4.26584 5.83778C4.32781 5.81862 4.36855 5.81355 4.42406 5.81809C4.47254 5.82205 4.52358 5.83657 4.56931 5.85941C4.60809 5.87878 4.70439 5.93229 4.78332 5.97831C4.86224 6.02434 4.97983 6.09313 5.04463 6.13118C5.10942 6.16923 5.21436 6.23098 5.27781 6.26838C5.34126 6.30579 5.54116 6.42225 5.72203 6.52718C5.90289 6.6321 6.11814 6.75765 6.20035 6.80617C6.28256 6.85468 6.42473 6.93768 6.51628 6.9906C6.60782 7.04352 6.71006 7.10281 6.74348 7.12235C6.7769 7.1419 6.89303 7.20965 7.00155 7.27291C7.11007 7.33617 7.24728 7.41664 7.30648 7.45173C7.36567 7.48682 7.50558 7.56901 7.61739 7.63439C7.7292 7.69976 7.85296 7.7711 7.89242 7.79292C7.93189 7.81475 8.00453 7.85708 8.05386 7.88699C8.10319 7.91691 8.27269 8.01705 8.43054 8.10952C8.58839 8.20199 8.7703 8.30817 8.83479 8.34546C8.89928 8.38276 8.99076 8.43568 9.03808 8.46305C9.0854 8.49043 9.23306 8.57672 9.36621 8.65481C9.49937 8.7329 9.75367 8.88155 9.93133 8.98515C10.109 9.08876 10.4009 9.25909 10.5801 9.36367C10.7593 9.46824 10.9328 9.56889 10.9657 9.58733C10.9985 9.60577 11.055 9.63883 11.0912 9.66079C11.1274 9.68275 11.1866 9.71726 11.2228 9.73747C11.2589 9.75767 11.3235 9.79578 11.3663 9.82215C11.409 9.84851 11.479 9.88965 11.5217 9.91357C11.5645 9.93748 11.6344 9.97885 11.6772 10.0055C11.7199 10.0322 11.7893 10.0699 11.8314 10.0894C11.8896 10.1164 11.926 10.125 11.9838 10.1254C12.0463 10.1257 12.0751 10.1184 12.1465 10.0837C12.1942 10.0605 12.3092 9.99722 12.402 9.94301C12.4949 9.88879 12.6375 9.80662 12.7189 9.76041C12.8004 9.71419 12.9316 9.63939 13.0105 9.59419C13.0894 9.54898 13.1836 9.49421 13.2198 9.47246C13.2559 9.45072 13.3207 9.41351 13.3637 9.38979C13.4067 9.36606 13.4693 9.33022 13.5027 9.31014C13.5362 9.29007 13.5952 9.25562 13.6338 9.23359C13.6725 9.21157 13.739 9.17371 13.7818 9.14947C13.8245 9.12523 13.8999 9.08192 13.9492 9.05323C13.9985 9.02454 14.0685 8.98428 14.1047 8.96376C14.1408 8.94324 14.2458 8.88289 14.3378 8.82965C14.4299 8.7764 14.5644 8.69865 14.6368 8.65687C14.7091 8.61508 14.8302 8.54515 14.9059 8.50147C14.9815 8.45779 15.1079 8.38502 15.1869 8.33976C15.2658 8.2945 15.3698 8.2345 15.4181 8.20643C15.4663 8.17835 15.6234 8.08823 15.7671 8.00617C15.9109 7.9241 16.0571 7.84053 16.092 7.82046C16.1269 7.80039 16.1925 7.762 16.2377 7.73515C16.2829 7.70829 16.3541 7.66757 16.3958 7.64466C16.4374 7.62174 16.5377 7.56415 16.6185 7.51668C16.6992 7.4692 16.7955 7.4133 16.8324 7.39245C16.8694 7.3716 16.9797 7.30877 17.0776 7.25282C17.1755 7.19687 17.2906 7.1304 17.3334 7.1051C17.3761 7.0798 17.473 7.02366 17.5486 6.98034C17.6242 6.93702 17.7424 6.86933 17.8112 6.82991C17.88 6.79049 17.9634 6.74278 17.9966 6.72387C18.0297 6.70497 18.0918 6.66884 18.1345 6.64359C18.1773 6.61833 18.2795 6.55907 18.3617 6.51189C18.444 6.46471 18.5704 6.39211 18.6428 6.35056C18.7151 6.30901 18.8023 6.25913 18.8365 6.23971C18.8708 6.22029 18.9315 6.18488 18.9715 6.16102C19.0116 6.13715 19.0804 6.09795 19.1245 6.0739C19.1687 6.04985 19.232 6.01268 19.2652 5.99129C19.2984 5.9699 19.3668 5.93246 19.4173 5.90809C19.5 5.86816 19.5188 5.8638 19.608 5.86391C19.6888 5.864 19.7192 5.86974 19.7728 5.89503C19.809 5.91208 19.8621 5.94899 19.8908 5.97705C19.9196 6.00512 19.9559 6.05698 19.9715 6.09231C20 6.15655 20 6.15655 20 11.8424C20 17.5282 20 17.5282 19.9659 17.6012C19.9464 17.6431 19.9086 17.696 19.8772 17.7253C19.8378 17.7621 19.7996 17.7834 19.7402 17.8018C19.6601 17.8266 19.6392 17.8272 18.9471 17.8237C18.2362 17.8202 18.2362 17.8202 18.1704 17.7886C18.1316 17.7699 18.0792 17.7294 18.0427 17.6898C17.996 17.6392 17.9756 17.605 17.9603 17.5512C17.9412 17.4845 17.9401 17.2306 17.9429 13.6889C17.9451 10.8849 17.9423 9.87577 17.9322 9.81276C17.9246 9.76591 17.9074 9.70567 17.8939 9.6789C17.8805 9.65213 17.8497 9.60922 17.8256 9.58356C17.8015 9.55789 17.7629 9.52726 17.7399 9.5155C17.7169 9.50373 17.6724 9.48701 17.641 9.47835C17.6073 9.46905 17.5567 9.46545 17.5176 9.46955C17.4774 9.47378 17.42 9.49261 17.3714 9.51751C17.3275 9.54007 17.2458 9.58511 17.1899 9.61761C17.1339 9.65011 17.0371 9.70655 16.9746 9.74302C16.9121 9.7795 16.7749 9.85837 16.6697 9.91829C16.5644 9.9782 16.4111 10.066 16.3289 10.1133C16.2467 10.1606 16.1401 10.2219 16.0922 10.2495C16.0442 10.277 15.9527 10.3302 15.8889 10.3677C15.8251 10.4052 15.7056 10.4745 15.6233 10.5216C15.5411 10.5687 15.3918 10.6544 15.2915 10.712C15.1912 10.7695 15.0217 10.8663 14.9148 10.9271C14.8079 10.9878 14.6876 11.0598 14.6474 11.0871C14.592 11.1248 14.5621 11.157 14.5236 11.2204C14.475 11.3006 14.4728 11.3083 14.4718 11.4057C14.4708 11.5027 14.4729 11.5112 14.5179 11.591C14.5593 11.6645 14.5774 11.6829 14.6667 11.7424C14.7226 11.7797 14.9371 11.9084 15.1434 12.0284C15.3498 12.1484 15.5462 12.2624 15.5799 12.2816C15.6137 12.3008 15.6843 12.3424 15.7369 12.3741C15.7896 12.4058 15.8649 12.4495 15.9044 12.4713C15.9438 12.4931 15.9949 12.5232 16.018 12.5383C16.041 12.5533 16.1244 12.6027 16.2033 12.6479C16.2822 12.6932 16.4033 12.763 16.4724 12.8031C16.5414 12.8433 16.6201 12.8998 16.6471 12.9289C16.6742 12.9579 16.7092 13.0079 16.7249 13.0401C16.7534 13.0985 16.7534 13.0985 16.7534 14.1704C16.7534 15.2422 16.7534 15.2422 16.7189 15.3116C16.6994 15.3508 16.6578 15.4053 16.6232 15.437C16.5896 15.4678 16.5438 15.5019 16.5216 15.5127C16.4856 15.5302 16.3969 15.5324 15.7246 15.5324C14.9682 15.5324 14.9682 15.5324 14.9128 15.505C14.8823 15.49 14.8337 15.4535 14.8047 15.424C14.7758 15.3945 14.7396 15.3466 14.7243 15.3175C14.6971 15.2656 14.6965 15.2576 14.6943 14.8631C14.6926 14.5615 14.6875 14.4374 14.6738 14.3648C14.6602 14.293 14.6444 14.2518 14.6122 14.2042C14.5817 14.159 14.5437 14.1243 14.4833 14.0865C14.4362 14.057 14.3209 13.9884 14.2272 13.9339C14.1334 13.8795 13.9693 13.7838 13.8624 13.7212C13.7556 13.6587 13.644 13.5937 13.6144 13.5768C13.5848 13.5599 13.5337 13.5295 13.5008 13.5092C13.4679 13.489 13.3065 13.3943 13.142 13.2987C12.9776 13.2031 12.7879 13.0931 12.7204 13.0542C12.6529 13.0152 12.5776 12.9718 12.553 12.9576C12.5284 12.9434 12.4894 12.92 12.4664 12.9057C12.4434 12.8913 12.4084 12.8706 12.3887 12.8597C12.3689 12.8488 12.3055 12.8122 12.2477 12.7783C12.1899 12.7443 12.1137 12.7081 12.0784 12.6976C12.0432 12.6872 11.9936 12.679 11.9683 12.6794C11.943 12.6799 11.8898 12.6922 11.85 12.7068C11.8103 12.7215 11.7215 12.7657 11.6527 12.8052C11.584 12.8447 11.4739 12.9086 11.4081 12.9472C11.3423 12.9857 11.224 13.0543 11.145 13.0996C11.0661 13.1448 10.9504 13.211 10.8879 13.2465C10.8254 13.2821 10.7313 13.3365 10.6787 13.3674C10.626 13.3983 10.4981 13.472 10.3943 13.5312C10.2905 13.5903 10.1506 13.67 10.0834 13.7083C10.0162 13.7466 9.91275 13.8065 9.85355 13.8415C9.79436 13.8765 9.67598 13.9451 9.59048 13.994C9.50498 14.0429 9.41595 14.1034 9.39263 14.1285C9.36932 14.1536 9.33703 14.2005 9.32088 14.2326C9.29152 14.2911 9.29152 14.2911 9.29152 16.0583C9.29152 17.8254 9.29152 17.8254 9.32142 17.8811C9.33786 17.9118 9.37015 17.9555 9.39317 17.9783C9.41619 18.0011 9.50767 18.0634 9.59646 18.1169C9.68524 18.1703 9.79018 18.2341 9.82964 18.2585C9.8691 18.283 9.94713 18.3306 10.003 18.3643C10.0589 18.398 10.1531 18.4543 10.2123 18.4893C10.2715 18.5242 10.3939 18.5975 10.4843 18.652C10.5748 18.7066 10.7228 18.7958 10.8132 18.8502C10.9036 18.9047 11.022 18.976 11.0761 19.0086C11.1303 19.0413 11.2307 19.1018 11.2991 19.143C11.3676 19.1843 11.4685 19.2452 11.5235 19.2785C11.5784 19.3117 11.6656 19.3641 11.7173 19.3949C11.769 19.4257 11.8414 19.4682 11.8782 19.4893C11.9149 19.5105 11.9754 19.5343 12.0126 19.5423C12.0662 19.5539 12.0944 19.5537 12.1491 19.5412C12.187 19.5326 12.2457 19.5083 12.2795 19.4872C12.3132 19.4661 12.392 19.4167 12.4544 19.3775C12.5169 19.3383 12.6138 19.2761 12.6697 19.2394C12.7256 19.2027 12.813 19.1463 12.864 19.114C12.9149 19.0817 13.0045 19.025 13.0631 18.9879C13.1217 18.9509 13.1941 18.8987 13.2239 18.872C13.2541 18.845 13.2928 18.7931 13.3109 18.7553C13.3289 18.7179 13.3459 18.6591 13.3487 18.6246C13.3517 18.5875 13.346 18.5353 13.3347 18.4966C13.3243 18.4606 13.299 18.4048 13.2787 18.3725C13.2571 18.3383 13.2134 18.2944 13.1739 18.2672C13.1366 18.2415 13.0685 18.1998 13.0225 18.1745C12.9764 18.1491 12.9145 18.1132 12.8849 18.0947C12.8553 18.0762 12.7936 18.0397 12.7478 18.0137C12.702 17.9876 12.6401 17.952 12.6103 17.9346C12.5805 17.9171 12.4888 17.8632 12.4066 17.8147C12.3244 17.7662 12.1899 17.6875 12.1077 17.6398C12.0254 17.592 11.936 17.5323 11.909 17.5071C11.8806 17.4806 11.846 17.4299 11.8272 17.3872C11.7976 17.3201 11.7949 17.3025 11.7986 17.1956C11.8026 17.0802 11.8039 17.0758 11.8625 16.9689C11.8954 16.9089 11.9358 16.8348 11.9522 16.8043C11.9686 16.7737 11.9989 16.7215 12.0194 16.6882C12.0399 16.6549 12.0721 16.5975 12.0909 16.5607C12.1097 16.5239 12.1368 16.4746 12.1513 16.4512C12.1657 16.4278 12.19 16.3861 12.2053 16.3586C12.2207 16.3312 12.2763 16.2333 12.3289 16.1412C12.3815 16.049 12.4418 15.9428 12.4628 15.9051C12.4838 15.8675 12.522 15.8175 12.5477 15.794C12.5733 15.7706 12.6207 15.7377 12.6529 15.721C12.7041 15.6944 12.7267 15.6906 12.8311 15.691C12.948 15.6914 12.9526 15.6925 13.0352 15.7397C13.0817 15.7662 13.2296 15.8524 13.364 15.9311C13.4984 16.0099 13.6245 16.0836 13.6443 16.095C13.664 16.1063 13.699 16.1272 13.722 16.1415C13.745 16.1557 13.7908 16.1828 13.8236 16.2017C13.8565 16.2206 13.9238 16.2592 13.9731 16.2875C14.0224 16.3158 14.1247 16.3756 14.2003 16.4204C14.276 16.4652 14.4047 16.5411 14.4864 16.5891C14.5681 16.6371 14.6609 16.6906 14.6927 16.7082C14.7244 16.7257 14.7706 16.7531 14.7953 16.7691C14.8199 16.7851 14.8643 16.8114 14.8939 16.8276C14.9235 16.8438 14.9854 16.8798 15.0314 16.9078C15.0775 16.9357 15.1582 16.9833 15.2108 17.0137C15.2634 17.044 15.3872 17.1156 15.4858 17.1727C15.5845 17.2299 15.684 17.2888 15.707 17.3038C15.7301 17.3187 15.7785 17.3476 15.8147 17.3679C15.8508 17.3882 15.9416 17.4412 16.0163 17.4855C16.091 17.5299 16.1932 17.59 16.2435 17.619C16.2937 17.648 16.3907 17.7052 16.4589 17.746C16.536 17.7921 16.6043 17.8439 16.639 17.8825C16.6742 17.9218 16.7024 17.9684 16.7152 18.0086C16.7327 18.064 16.7354 18.1329 16.7354 18.5253C16.7354 18.8976 16.7322 18.9892 16.717 19.0411C16.7036 19.0872 16.6795 19.1251 16.6277 19.1814C16.5887 19.2238 16.5257 19.2759 16.4877 19.2972C16.4497 19.3185 16.4051 19.346 16.3887 19.3584C16.3722 19.3708 16.2996 19.4183 16.2272 19.464C16.1549 19.5097 16.058 19.5712 16.012 19.6007C15.9659 19.6301 15.9014 19.672 15.8685 19.6938C15.8356 19.7155 15.7828 19.7492 15.7512 19.7686C15.7195 19.788 15.6657 19.8224 15.6316 19.845C15.5975 19.8676 15.5511 19.8968 15.5286 19.9098C15.5061 19.9229 15.4442 19.9623 15.3911 19.9975C15.338 20.0327 15.2272 20.1043 15.145 20.1567C15.0628 20.2092 14.9652 20.2717 14.9281 20.2957C14.891 20.3197 14.8157 20.3681 14.7607 20.4033C14.7057 20.4385 14.6015 20.5051 14.5292 20.5514C14.4568 20.5976 14.3627 20.6579 14.3199 20.6854C14.2772 20.7129 14.183 20.7732 14.1106 20.8194C14.0383 20.8655 13.9468 20.9239 13.9074 20.9491C13.8679 20.9743 13.8006 21.0177 13.7579 21.0456C13.7151 21.0735 13.6036 21.145 13.5101 21.2046C13.4165 21.2641 13.3187 21.3266 13.2926 21.3433C13.2666 21.36 13.1898 21.4089 13.1219 21.4519C13.0541 21.4949 12.9474 21.5637 12.8849 21.6049C12.8225 21.6461 12.7121 21.7172 12.6398 21.7629C12.5674 21.8086 12.4723 21.8699 12.4283 21.8991C12.3843 21.9283 12.3252 21.963 12.2968 21.9761C12.2552 21.9953 12.2185 21.9999 12.1077 22ZM14.302 4.15399C15.2984 4.16538 15.3708 4.16871 15.4021 4.18621C15.4219 4.19723 15.4474 4.21674 15.4588 4.22955C15.4756 4.24851 15.4773 4.26059 15.4677 4.2946C15.4612 4.31757 15.4559 4.35932 15.4559 4.38738C15.4559 4.41543 15.4613 4.45279 15.4679 4.4704C15.4757 4.49122 15.4758 4.51012 15.4682 4.52449C15.4618 4.53663 15.4336 4.55681 15.4055 4.56933C15.3559 4.59137 15.248 4.59214 11.9761 4.59379C10.1181 4.59473 8.57861 4.59162 8.55497 4.58689C8.53132 4.58215 8.49384 4.5675 8.47168 4.55433C8.44952 4.54115 8.42088 4.51207 8.40804 4.4897C8.39225 4.46219 8.3847 4.42645 8.3847 4.37924C8.3847 4.32854 8.39191 4.29759 8.41106 4.26605C8.42696 4.23987 8.45978 4.21144 8.49377 4.1944C8.54973 4.16635 8.55371 4.16613 9.07019 4.16262C9.35622 4.16067 9.59414 4.15512 9.5989 4.15028C9.60365 4.14545 9.6132 4.09066 9.62011 4.02855C9.62703 3.96643 9.64623 3.86245 9.66278 3.79749C9.67933 3.73253 9.70674 3.63831 9.7237 3.58811C9.74065 3.53791 9.77025 3.46124 9.78948 3.41774C9.8087 3.37423 9.8395 3.30852 9.85791 3.2717C9.87632 3.23489 9.92003 3.15822 9.95503 3.10133C9.99004 3.04444 10.0591 2.94664 10.1086 2.884C10.158 2.82136 10.2339 2.73432 10.2771 2.69058C10.3204 2.64685 10.3988 2.57456 10.4515 2.52993C10.5041 2.48531 10.5821 2.424 10.6249 2.39368C10.6676 2.36337 10.7591 2.30797 10.8281 2.27058C10.8972 2.23319 11.0129 2.17841 11.0852 2.14884C11.1576 2.11928 11.2598 2.08346 11.3124 2.06924C11.3651 2.05502 11.4512 2.03362 11.5038 2.02169C11.5833 2.00366 11.6571 2 11.9409 2C12.2207 2 12.3028 2.00397 12.3953 2.02201C12.4574 2.03411 12.5459 2.0551 12.592 2.06866C12.638 2.08222 12.7268 2.11286 12.7893 2.13675C12.8518 2.16064 12.9561 2.20764 13.0212 2.24121C13.0863 2.27477 13.1885 2.33488 13.2484 2.37478C13.3083 2.41468 13.4151 2.49666 13.4857 2.55695C13.5563 2.61725 13.6655 2.72719 13.7283 2.80127C13.7911 2.87536 13.8782 2.99097 13.9218 3.0582C13.9654 3.12543 14.0347 3.25162 14.0757 3.33864C14.1168 3.42565 14.1664 3.54612 14.1861 3.60636C14.2057 3.6666 14.2333 3.76517 14.2473 3.82541C14.2613 3.88565 14.2793 3.98422 14.2874 4.04446L14.302 4.15399Z" fill="white"/>
</svg>
