<svg width="24" height="24" viewBox="0 0 24 24" fill="none" xmlns="http://www.w3.org/2000/svg">
<path fill-rule="evenodd" clip-rule="evenodd" d="M12 2C17.5228 2 22 6.47715 22 12C22 17.5228 17.5228 22 12 22C6.47715 22 2 17.5228 2 12C2 6.47715 6.47715 2 12 2ZM11.9869 4.00013C14.1014 3.9881 16.1354 4.81031 17.6475 6.28834C18.7708 7.41165 19.5357 8.84278 19.8457 10.4008C20.1556 11.9588 19.9965 13.5737 19.3886 15.0414C18.7807 16.509 17.7513 17.7634 16.4305 18.646C15.1096 19.5287 13.5567 19.9998 11.9681 20C10.9129 20.0027 9.86752 19.7962 8.8926 19.3923C7.91769 18.9883 7.03256 18.3951 6.28845 17.6469C4.81034 16.1348 3.9881 14.1009 4.00013 11.9865C4.01216 9.87212 4.85748 7.84772 6.35269 6.35258C7.8479 4.85744 9.87239 4.01216 11.9869 4.00013ZM14.2042 11.5227C14.1162 11.0804 13.899 10.6741 13.5801 10.3553C13.1522 9.92833 12.5723 9.68855 11.9678 9.68855C11.3633 9.68855 10.7835 9.92833 10.3556 10.3553C10.0367 10.6741 9.81947 11.0804 9.73147 11.5227C9.64346 11.965 9.6886 12.4235 9.86118 12.8401C10.0338 13.2568 10.326 13.6129 10.701 13.8635C11.076 14.114 11.5168 14.2477 11.9678 14.2477C12.4188 14.2477 12.8597 14.114 13.2347 13.8635C13.6097 13.6129 13.9019 13.2568 14.0745 12.8401C14.2471 12.4235 14.2922 11.965 14.2042 11.5227ZM8.88613 10.843C9.04998 10.3938 9.31005 9.98593 9.64811 9.64784C9.91366 9.382 10.2231 9.164 10.5628 9.00346C9.62062 8.94748 8.68365 9.17935 7.87629 9.66829C7.06893 10.1572 6.42935 10.8801 6.04244 11.741C5.65554 12.6019 5.53959 13.5601 5.71001 14.4885C5.88042 15.4168 6.32913 16.2714 6.99658 16.9387C7.66403 17.6061 8.51866 18.0547 9.44705 18.2251C10.3754 18.3954 11.3337 18.2794 12.1946 17.8925C13.0555 17.5055 13.7784 16.8659 14.2673 16.0586C14.7562 15.2512 14.988 14.3143 14.932 13.3721C14.7272 13.8041 14.4304 14.1861 14.0625 14.4914C13.6945 14.7967 13.2643 15.0179 12.8019 15.1395C12.3395 15.261 11.8561 15.2801 11.3855 15.1952C10.915 15.1103 10.4687 14.9236 10.0779 14.6482C9.68711 14.3727 9.36125 14.0152 9.12315 13.6006C8.88505 13.186 8.74047 12.7244 8.69953 12.248C8.65858 11.7717 8.72227 11.2921 8.88613 10.843ZM15.629 15.5059C15.3484 16.31 14.8897 17.0403 14.2873 17.6423V17.6427C13.6776 18.2546 12.9353 18.7181 12.1178 18.9972C13.4956 18.9679 14.8344 18.5345 15.9678 17.7507C17.1013 16.9669 17.9795 15.8674 18.4933 14.5887C19.0071 13.31 19.1338 11.9086 18.8577 10.5585C18.5816 9.20843 17.9149 7.96922 16.9403 6.99488C15.9653 6.01973 14.725 5.35278 13.3739 5.07703C12.0227 4.80127 10.6203 4.92888 9.34104 5.44396C8.06183 5.95905 6.96232 6.83888 6.1793 7.97399C5.39628 9.10911 4.96432 10.4494 4.93717 11.8281C5.21067 11.0215 5.66289 10.2872 6.26005 9.67987C6.85722 9.07259 7.58388 8.60808 8.38577 8.32103C9.18765 8.03398 10.044 7.93182 10.8909 8.02217C11.7379 8.11253 12.5534 8.39306 13.2767 8.84282C14 9.29258 14.6123 9.89994 15.0678 10.6195C15.5234 11.3391 15.8105 12.1524 15.9077 12.9985C16.0049 13.8446 15.9096 14.7017 15.629 15.5059Z" fill="white"/>
</svg>
