<svg version="1.1" xmlns="http://www.w3.org/2000/svg" x="0px" y="0px" viewBox="0 0 24 24">
<path fill="#FFFFFF" d="M10.7,12c0,0-2.6,3.4-5.8,3.6c0.9-1,1.5-2.2,1.6-3.6c-0.1-1.3-0.7-2.6-1.6-3.6C8.1,8.5,10.7,12,10.7,12z
	 M24,12L12,24L0,12L12,0L24,12z M19.7,15.5c0.5-0.4,0.9-1,1.1-1.6c0.3-0.6,0.4-1.3,0.4-1.9c0-0.7-0.1-1.3-0.4-1.9
	c-0.3-0.6-0.6-1.1-1.1-1.6L17,5.8c-1.3,1.4-3,2.2-4.8,2.5c0.9-1,1.5-2.3,1.6-3.6c-0.1-1.3-0.7-2.6-1.6-3.6L12,0.8l-0.2,0.3
	c-0.9,1-1.5,2.3-1.6,3.6c0.1,1.3,0.7,2.6,1.6,3.6C9.9,8.1,8.2,7.2,6.9,5.8L4.4,8.4c-0.5,0.5-0.9,1-1.2,1.6c-0.3,0.6-0.4,1.3-0.4,2
	c0,0.7,0.1,1.4,0.4,2c0.3,0.6,0.7,1.2,1.2,1.6L7,18.2c1.3-1.3,2.9-2.2,4.7-2.4c-0.5,0.5-0.9,1-1.2,1.6c-0.3,0.6-0.4,1.3-0.4,2
	c0,0.7,0.1,1.3,0.4,2c0.3,0.6,0.7,1.2,1.2,1.6l0.2,0.3l0.2-0.3c0.5-0.5,0.9-1,1.2-1.6c0.3-0.6,0.4-1.3,0.4-2c0-0.7-0.1-1.4-0.4-2
	c-0.3-0.6-0.7-1.2-1.2-1.6c1.8,0.2,3.5,1.1,4.8,2.4L19.7,15.5L19.7,15.5z M13.3,12c0,0,2.6,3.4,5.8,3.6c-0.9-1-1.5-2.3-1.6-3.6
	c0.1-1.3,0.7-2.6,1.6-3.6C15.9,8.5,13.3,12,13.3,12L13.3,12z"/>
</svg>
