<svg width="24" height="24" viewBox="0 0 24 24" fill="none" xmlns="http://www.w3.org/2000/svg">
<path fill-rule="evenodd" clip-rule="evenodd" d="M12.9779 3.63939L11.0225 7.02755C10.9265 7.19364 10.7885 7.33155 10.6223 7.42746C10.4561 7.52332 10.2676 7.57382 10.0757 7.57382C9.88386 7.57382 9.69541 7.52332 9.52923 7.42746C9.363 7.33155 9.225 7.19364 9.12896 7.02755L9.09755 6.97286C10.1874 5.08471 10.579 4.40672 11.4659 2.87152L11.9693 2H12.0311C12.223 1.99985 12.4116 2.05025 12.5778 2.14613C12.7441 2.24201 12.8821 2.37999 12.9781 2.54618C13.0741 2.71237 13.1246 2.9009 13.1246 3.09281C13.1245 3.28473 13.074 3.47325 12.9779 3.63939ZM8.66732 4.27028V8.18196C8.66723 8.37386 8.61668 8.56241 8.52068 8.72864C8.42468 8.89482 8.28659 9.03286 8.12036 9.12877C7.95414 9.22473 7.76555 9.27523 7.57359 9.27523C7.38164 9.27523 7.19309 9.22468 7.02686 9.12873L6.97318 9.09732V3.35489L7.02686 3.3235C7.19309 3.22753 7.38164 3.177 7.57359 3.17699C7.76555 3.17697 7.95414 3.22748 8.12036 3.32342C8.28659 3.41937 8.42468 3.55738 8.52068 3.72359C8.61668 3.88979 8.66723 4.07834 8.66732 4.27028ZM17.0272 5.24841L13.645 7.20373C13.4788 7.30127 13.2897 7.35309 13.097 7.35396C12.9043 7.35482 12.7148 7.30468 12.5477 7.20864C12.3806 7.11259 12.2419 6.97405 12.1456 6.80709C12.0494 6.64014 11.999 6.45068 11.9995 6.25796V6.19518L16.9725 3.32347L17.0272 3.35486C17.1935 3.45068 17.3317 3.58864 17.4278 3.75485C17.5239 3.92106 17.5745 4.10966 17.5745 4.30164C17.5745 4.49362 17.5239 4.68221 17.4278 4.84842C17.3317 5.01463 17.1935 5.1526 17.0272 5.24841ZM17.027 9.09709L16.9724 9.1285C16.8063 9.22455 16.6684 9.36255 16.5725 9.52873C16.4766 9.69491 16.4261 9.88341 16.4261 10.0753C16.4261 10.2671 16.4766 10.4556 16.5725 10.6218C16.6684 10.788 16.8063 10.926 16.9724 11.022L20.3606 12.9774C20.5267 13.0734 20.7152 13.124 20.9072 13.124C21.0991 13.1241 21.2876 13.0736 21.4538 12.9776C21.62 12.8816 21.758 12.7436 21.8539 12.5773C21.9497 12.4111 22.0001 12.2225 22 12.0306V11.9678L17.027 9.09709ZM3.63942 11.022L7.02764 12.9774C7.19373 13.0734 7.33164 13.2114 7.42755 13.3776C7.52341 13.5438 7.57391 13.7323 7.57391 13.9241C7.57391 14.116 7.52341 14.3045 7.42755 14.4707C7.33164 14.6369 7.19373 14.7749 7.02764 14.8709L6.97296 14.9023L2 12.0306V11.9688C1.99985 11.7769 2.05025 11.5883 2.14613 11.4221C2.24201 11.2559 2.38 11.1178 2.54619 11.0218C2.71238 10.9258 2.90092 10.8753 3.09283 10.8754C3.28475 10.8754 3.47327 10.926 3.63942 11.022ZM15.333 15.8178V19.7295C15.3332 19.9213 15.3838 20.1097 15.4797 20.2757C15.5757 20.4418 15.7136 20.5797 15.8797 20.6756C16.0458 20.7715 16.2342 20.8221 16.426 20.8222C16.6178 20.8223 16.8062 20.772 16.9725 20.6763L17.0271 20.6449V14.9025L16.9725 14.871C16.8063 14.775 16.6178 14.7244 16.4259 14.7244C16.234 14.7244 16.0454 14.7749 15.8792 14.8708C15.713 14.9668 15.575 15.1049 15.4792 15.2711C15.3833 15.4374 15.3329 15.6259 15.333 15.8178ZM6.97268 18.7515L10.3599 16.7962C10.526 16.7002 10.7144 16.6496 10.9062 16.6496C11.098 16.6495 11.2865 16.6999 11.4527 16.7958C11.6189 16.8916 11.7569 17.0295 11.8528 17.1956C11.9488 17.3617 11.9993 17.5502 11.9993 17.742V17.8048L7.02636 20.6765L6.97268 20.6451C6.80632 20.5493 6.66818 20.4114 6.57209 20.2451C6.476 20.0789 6.42541 19.8903 6.42541 19.6984C6.42541 19.5064 6.476 19.3178 6.57209 19.1515C6.66818 18.9854 6.80632 18.8474 6.97268 18.7515ZM16.7954 13.6447L18.7518 17.0319C18.8476 17.1982 18.9855 17.3364 19.1518 17.4325C19.318 17.5285 19.5066 17.5791 19.6986 17.5791C19.8905 17.5791 20.0791 17.5285 20.2454 17.4325C20.4116 17.3364 20.5495 17.1982 20.6454 17.0319L20.6768 16.9772C19.5038 14.9476 19.1392 14.3158 18.0986 12.513L17.805 12.0043H17.7422C17.5503 12.0044 17.3617 12.055 17.1955 12.151C17.0293 12.247 16.8913 12.385 16.7953 12.5513C16.6994 12.7175 16.6489 12.906 16.6489 13.098C16.6489 13.29 16.6995 13.4785 16.7954 13.6447ZM19.7301 8.66718H15.8184C15.6264 8.66709 15.4379 8.61655 15.2717 8.52055C15.1055 8.42455 14.9675 8.28646 14.8715 8.12023C14.7755 7.954 14.725 7.76541 14.725 7.5735C14.7251 7.38155 14.7756 7.193 14.8716 7.02677L14.903 6.97309H20.6455L20.6769 7.02677C20.7729 7.193 20.8234 7.38155 20.8234 7.5735C20.8234 7.76541 20.7729 7.954 20.677 8.12023C20.581 8.28646 20.443 8.42455 20.2768 8.52055C20.1106 8.61655 19.922 8.66709 19.7301 8.66718ZM14.903 17.0271L14.8716 16.9725C14.7756 16.8064 14.6376 16.6685 14.4714 16.5726C14.3052 16.4767 14.1167 16.4262 13.9249 16.4262C13.733 16.4262 13.5445 16.4767 13.3783 16.5726C13.2121 16.6685 13.0741 16.8064 12.9781 16.9725L11.0227 20.3606C10.9267 20.5268 10.8761 20.7153 10.876 20.9072C10.876 21.0991 10.9265 21.2876 11.0225 21.4538C11.1185 21.62 11.2565 21.758 11.4228 21.8539C11.589 21.9498 11.7776 22.0002 11.9695 22H12.0313L12.5363 21.1259C13.422 19.5925 13.8139 18.9142 14.903 17.0271ZM8.18246 15.3327H4.27073C4.07894 15.3329 3.89055 15.3835 3.72449 15.4794C3.55842 15.5754 3.42051 15.7133 3.32459 15.8794C3.22867 16.0455 3.17812 16.2339 3.17801 16.4256C3.17789 16.6175 3.22822 16.8059 3.32394 16.9721L3.35533 17.0268H9.09786L9.12923 16.9721C9.22495 16.8059 9.27532 16.6175 9.27518 16.4256C9.27509 16.2339 9.2245 16.0455 9.12859 15.8794C9.03268 15.7133 8.89477 15.5754 8.72868 15.4794C8.56264 15.3835 8.37427 15.3329 8.18246 15.3327ZM5.24879 6.97305L7.20414 10.3602C7.30014 10.5262 7.35073 10.7147 7.35082 10.9065C7.35091 11.0983 7.3005 11.2868 7.20464 11.453C7.10877 11.6191 6.97086 11.7571 6.80473 11.853C6.63864 11.949 6.45018 11.9995 6.25836 11.9995H6.19559L3.32381 7.02668L3.3552 6.97305C3.45102 6.80668 3.58899 6.6685 3.7552 6.57241C3.92141 6.47636 4.11001 6.42577 4.302 6.42577C4.49398 6.42577 4.68257 6.47636 4.84879 6.57241C5.015 6.6685 5.15297 6.80668 5.24879 6.97305Z" fill="white"/>
</svg>
