<svg xmlns="http://www.w3.org/2000/svg" viewBox="0 0 96 96" style="enable-background:new 0 0 96 96" xml:space="preserve">
  <path d="M37.5 23.7c.4.6.6 1.3.6 2v57.7c0 .7-.2 1.4-.5 1.9-.5 1-1.6 1.8-2.9 1.8H3.5c-1.8 0-3.3-1.5-3.3-3.3 0-1.8 1.5-3.3 3.3-3.3H31V57.6H6.7c-1.7 0-3.1-1.4-3.1-3.1v-.3C3.6 52.5 5 51 6.7 51h24.2V28.7H3.3c-1.8 0-3.3-1.5-3.3-3.3 0-1.8 1.5-3.3 3.3-3.3h31.3c1.2 0 2.3.6 2.9 1.6zm55 56.7H65.1V57.6h24.2c1.7 0 3.1-1.4 3.1-3.1v-.3c0-1.7-1.4-3.1-3.1-3.1H65.1V28.6h27.6c1.8 0 3.3-1.5 3.3-3.3 0-1.8-1.5-3.3-3.3-3.3H61.4c-1.2 0-2.3.7-2.8 1.6-.4.6-.6 1.3-.6 2v57.7c0 .7.2 1.3.5 1.9.5 1 1.6 1.8 2.9 1.8h31.2c1.8 0 3.3-1.5 3.3-3.3-.1-1.8-1.6-3.3-3.4-3.3zm3.2-68.2c0-1.8-1.5-3.3-3.3-3.3H3.5C1.7 8.9.2 10.4.2 12.2c0 1.8 1.5 3.3 3.3 3.3h41.2v68.6c0 1.6 1.3 3 3 3h.7c1.6 0 3-1.3 3-3V15.5h41.1c1.8 0 3.2-1.5 3.2-3.3z" style="fill:#fff"/>
</svg>
