<svg version="1.1" xmlns="http://www.w3.org/2000/svg" x="0px" y="0px" viewBox="0 0 24 24">
<path fill="#FFFFFF" d="M20.5,3.5C18.2,1.2,15.2,0,12,0C8.8,0,5.8,1.2,3.5,3.5c-1.1,1.1-2,2.4-2.6,3.9C0.3,8.9,0,10.4,0,12
	c0,1.6,0.3,3.1,0.9,4.6c0.6,1.5,1.5,2.8,2.6,3.9C5.8,22.8,8.8,24,12,24c3.2,0,6.2-1.2,8.5-3.5c1.1-1.1,2-2.4,2.6-3.9
	c0.6-1.5,0.9-3,0.9-4.6c0-1.6-0.3-3.1-0.9-4.6C22.5,5.9,21.6,4.6,20.5,3.5z M20.1,20.1c-2.2,2.2-5.1,3.3-8.1,3.3
	c-3,0-5.9-1.2-8.1-3.3c-1.1-1.1-1.9-2.3-2.5-3.7C0.8,15,0.5,13.5,0.5,12c0-1.5,0.3-3,0.9-4.4C2,6.2,2.8,5,3.9,3.9
	C6.1,1.8,9,0.6,12,0.6c3,0,5.9,1.2,8.1,3.3C21.2,5,22,6.2,22.6,7.6c0.6,1.4,0.9,2.9,0.9,4.4c0,1.5-0.3,3-0.9,4.4
	C22,17.8,21.2,19,20.1,20.1L20.1,20.1z M18.5,16.9l-3.3-2c0,0-0.1,0-0.1,0H6.2c0,0-0.1,0-0.1,0C6,14.9,6,15,6,15c0,0,0,0.1,0,0.1
	c0,0,0,0.1,0,0.1c0,0,0,0.1,0,0.1c0,0,0,0,0.1,0.1l3.2,2c0,0,0.1,0,0.1,0h8.9c0,0,0.1,0,0.1,0c0,0,0.1,0,0.1-0.1c0,0,0-0.1,0.1-0.1
	c0,0,0-0.1,0-0.1C18.6,17,18.6,17,18.5,16.9C18.5,16.9,18.5,16.9,18.5,16.9L18.5,16.9z M9.5,16.9L7,15.3h8.1l2.5,1.5H9.5z M17.8,9.3
	c0,0,0.1,0,0.1,0c0,0,0.1,0,0.1-0.1c0,0,0-0.1,0-0.1c0,0,0-0.1,0-0.1c0,0,0-0.1,0-0.1c0,0,0,0-0.1-0.1l-3.3-2c0,0-0.1,0-0.1,0H5.6
	c0,0-0.1,0-0.1,0c0,0-0.1,0-0.1,0.1c0,0,0,0.1,0,0.1c0,0,0,0.1,0,0.1c0,0,0,0.1,0,0.1c0,0,0,0,0.1,0.1l3.2,2H17.8z M14.5,7.2L17,8.8
	H8.9L6.5,7.2H14.5z M12.3,10.6c0.4,0,0.7,0.1,1,0.4c0.3,0.3,0.4,0.6,0.4,1c0,0.2,0,0.4-0.1,0.5c-0.1,0.2-0.2,0.3-0.3,0.5
	c-0.1,0.1-0.3,0.2-0.5,0.3c-0.2,0.1-0.4,0.1-0.5,0.1c-0.3,0-0.7-0.2-0.9-0.4c-0.2-0.2-0.4-0.6-0.4-0.9c0-0.4,0.1-0.7,0.4-1
	C11.5,10.8,11.9,10.7,12.3,10.6L12.3,10.6z"/>
</svg>
