<svg width="24" height="24" viewBox="0 0 24 24" fill="none" xmlns="http://www.w3.org/2000/svg">
<path fill-rule="evenodd" clip-rule="evenodd" d="M18 7.47821L15.2641 5.85985L11.4737 8.1506L11.4767 3.61836L8.74083 2L6.00447 3.65372L6.00157 8.18596L6.00054 10.3033L6.00748 12.2895L6.01809 13.3458L6.00054 15.9341L5.99997 18.0023L6.00023 20.3847L8.73435 22L11.4707 20.3462L11.4704 17.9638L15.2609 20.2034L15.2881 20.187L17.9973 18.5497L17.9996 15.2807L14.209 13.0411L17.9995 10.7503L18 7.47821ZM10.785 4.03636L10.7821 8.56857L9.08473 9.59441L9.0896 3.03541L10.785 4.03636ZM6.69549 4.06552L8.39289 3.03969L8.38983 13.6988L6.69248 14.7246L6.69549 4.06552ZM5.99997 18.0023L6.00085 15.1426L6.00059 17.1724L5.99997 18.0023ZM6.69248 14.7246L8.38983 13.6988L8.39019 18.5235L6.69285 19.5494L6.69248 14.7246ZM10.7814 19.9376L8.73668 21.1733L7.03954 20.1692L9.08426 18.9335V13.2587L10.7807 14.1737L10.7814 19.9376ZM15.2603 19.3786L11.4698 17.1389L11.47 15.109L16.9576 18.3527L15.2603 19.3786ZM17.3079 15.6987L17.306 17.7255L11.8183 14.4818L13.5156 13.4559L17.3079 15.6987ZM10.7807 14.1737L9.08426 13.2587L15.264 9.54435L16.9611 10.5484L10.7807 14.1737ZM15.2663 8.71766L15.2391 8.73413L8.39009 12.8282L8.39071 10.7291L15.2696 6.68596L17.3114 7.89435L17.3081 9.92611L15.2663 8.71766Z" fill="white"/>
</svg>
