<svg width="24" height="24" viewBox="0 0 24 24" fill="none" xmlns="http://www.w3.org/2000/svg">
<path d="M11.2785 21C9.04496 21 7.27696 20.4277 6.02338 19.2992C5.52346 18.8436 5.1135 18.3189 4.81007 17.7467C4.54617 17.2517 4.34639 16.7326 4.21447 16.199C4.11614 15.8075 4.05057 15.4102 4.01826 15.0104C3.99504 14.7166 4.00058 14.5369 4.00058 14.5351C4.00058 14.4423 4.0297 5.23652 4.01584 4.65064C4.01837 4.46773 4.06441 4.28727 4.15104 4.12065C4.25508 3.91246 4.40194 3.7226 4.58436 3.56046C4.7919 3.3774 5.04026 3.23329 5.31406 3.137C5.58787 3.04071 5.88145 2.99428 6.17662 3.00056H6.21925C6.56434 3.00315 6.90622 3.05836 7.22942 3.16373C7.5025 3.25301 7.75499 3.38431 7.97476 3.55139C8.16418 3.69439 8.32124 3.86696 8.43794 4.06022C8.53724 4.22216 8.59159 4.40212 8.5967 4.58567C8.5967 5.23199 8.5967 6.94249 8.5967 7.01472H8.68062C9.89394 7.01287 12.9689 7.00837 15.3401 7.00837C17.0235 7.00837 18.0458 7.01049 18.379 7.01472C18.6328 7.01409 18.8829 7.06818 19.107 7.17213C19.3068 7.26924 19.4773 7.40649 19.6041 7.57249C19.7361 7.74583 19.8326 7.93785 19.8894 8.13994C19.9514 8.3554 19.9819 8.5768 19.9802 8.79892C19.9807 9.02496 19.9467 9.25 19.879 9.46821C19.8156 9.67804 19.7137 9.87753 19.5771 10.0589C19.4485 10.2311 19.2777 10.3762 19.0768 10.4838C18.8659 10.5933 18.6255 10.6524 18.38 10.6554C17.8396 10.666 15.26 10.6684 13.1883 10.6684C10.8871 10.6684 8.68821 10.6657 8.59567 10.6657C8.59567 10.6778 8.59567 13.4582 8.59567 14.1725C8.59974 14.4353 8.63174 14.6972 8.69136 14.9547C8.76774 15.3128 8.89961 15.6602 9.08341 15.9872C9.27783 16.3429 9.56877 16.6518 9.93105 16.8874C10.1273 17.0101 10.3447 17.1048 10.5751 17.1681C10.84 17.239 11.1158 17.2742 11.3929 17.2723H11.4259C12.1615 17.2659 13.0205 17.2626 14.0525 17.2626C15.1508 17.2626 16.1974 17.2663 17.0381 17.269H17.0412C17.5612 17.2708 17.9695 17.2723 18.2375 17.2723C18.4886 17.2725 18.7354 17.329 18.9541 17.4364C19.1704 17.5434 19.3597 17.6873 19.5109 17.8594C19.6659 18.0333 19.7877 18.2279 19.8717 18.4356C19.9544 18.6365 19.9977 18.848 20 19.0614C19.9943 19.284 19.9426 19.5038 19.8471 19.7104C19.7473 19.9347 19.6121 20.1458 19.4457 20.3377C19.2893 20.5221 19.0983 20.6823 18.8806 20.8111C18.7818 20.8684 18.6753 20.9147 18.5634 20.9489C18.4586 20.981 18.3485 20.9977 18.2375 20.9985H17.8326C17.5255 20.9988 16.8835 21 11.2785 21ZM15.5214 20.0422C16.9639 20.0422 17.6385 20.0422 17.9626 20.044H18.2025C18.2926 20.0396 18.3787 20.0103 18.4483 19.9603C18.5383 19.8988 18.616 19.8248 18.6781 19.7412C18.7508 19.646 18.809 19.543 18.8515 19.4348C18.8962 19.3234 18.9218 19.2068 18.9274 19.0888C18.9311 18.9602 18.9019 18.8324 18.8418 18.7148C18.7849 18.6008 18.7059 18.4962 18.6081 18.4057C18.4882 18.2798 18.3182 18.1979 18.1321 18.1763C17.9373 18.1721 16.3946 18.1658 14.6637 18.1658C13.7444 18.1658 12.442 18.1676 11.4574 18.1763H11.4092C10.9026 18.1909 10.3982 18.1116 9.92939 17.9436C9.46054 17.7756 9.03799 17.5228 8.6896 17.2019C8.32738 16.8514 8.05099 16.4401 7.87737 15.9933C7.66844 15.4512 7.55825 14.8839 7.55081 14.3121C7.51334 12.9826 7.51613 11.8084 7.52377 11.0569C7.5328 10.2429 7.55081 9.73654 7.55081 9.73137C7.57683 9.73137 12.1681 9.73623 15.3526 9.73623C17.2055 9.73623 18.205 9.73443 18.3231 9.73137C18.4221 9.72471 18.5169 9.69384 18.5966 9.64231C18.6764 9.59079 18.7378 9.52072 18.7738 9.44013C18.8803 9.23209 18.93 9.00538 18.9191 8.77777C18.9182 8.66176 18.9002 8.54629 18.8657 8.43424C18.8372 8.34087 18.7923 8.25186 18.7326 8.17045C18.6836 8.10273 18.6194 8.04445 18.5436 7.99914C18.4782 7.9599 18.4018 7.93713 18.3225 7.93326C18.2324 7.92961 17.2478 7.92781 15.3938 7.92781C12.2981 7.92781 7.74457 7.93294 7.55221 7.93326H7.55045C7.55045 7.92025 7.55045 7.35915 7.55045 6.71106C7.55045 5.82996 7.55045 4.83163 7.55045 4.75579C7.53182 4.58177 7.45626 4.41607 7.33275 4.27838C7.23654 4.16796 7.11246 4.07833 6.97012 4.01641C6.77915 3.93696 6.5695 3.89763 6.35794 3.90159C6.14498 3.89838 5.93327 3.93026 5.73394 3.99556C5.58539 4.04564 5.45115 4.12328 5.34044 4.22309C5.25167 4.30412 5.18163 4.39933 5.13419 4.50349C5.09683 4.58386 5.07525 4.66916 5.0704 4.75579C5.06312 4.95007 5.06591 8.19705 5.06834 11.0615C5.06834 12.3269 5.0704 13.5219 5.0704 14.3121C5.0704 15.9044 5.46663 17.1898 6.24908 18.1331C6.48542 18.4189 6.76258 18.6773 7.07381 18.9021C7.41357 19.1451 7.78839 19.3483 8.1887 19.5064C8.65058 19.6873 9.13533 19.8202 9.63288 19.9023C10.2304 20.0001 10.8373 20.0476 11.4453 20.0443H11.4588C13.0417 20.0422 14.4089 20.0422 15.5214 20.0422Z" fill="white"/>
</svg>
