<svg xmlns="http://www.w3.org/2000/svg" viewBox="0 0 96 96" style="enable-background:new 0 0 96 96" xml:space="preserve">
  <path d="M53.8 35.8 93 89.2H72.9L54.8 64.3s3.3 10.4 3.8 15.4c.7 6.3-.1 11.3-2.1 16.3 3.3-22-15.6-36.9-15.2-45.6.4-10.7 8.2-18.2 13.9-22.8 0 0-3.6-3.4-9.2-1.1-5.6 2.4-7.7 5.2-7.7 5.2s-3.7-.2-7.5 2.4c-3.9 2.6-9.9 12.9-14.5 19.1-4.3 5.8-6.6 4-6.8 3.8.2.5 2.1 6.5 10.1.9 0 0 2.4 3.2-2 7.5 0 0 6.3-.3 6.6-6.3 0 0 1.4 2.3 1.8 11 .2 3.8-.6 9.4-2.2 12.3v.1c-2.4 4.2-7 6.8-11.9 6.8H3V0h16.1v31.2H28c4.2 0 8.2-1.6 11.3-4.3L69.1 0H93L53.8 35.8z" style="fill:#fff"/>
</svg>
