<svg xmlns="http://www.w3.org/2000/svg" viewBox="0 0 96 96" style="enable-background:new 0 0 96 96" xml:space="preserve">
  <path d="M22.3 52c-.9 1.8-1.4 3.9-1.4 5.9V28.6l11.2-7.8-11-7.8V1.8c0-.5.3-1 .7-1.3.3-.3.8-.5 1.3-.5H34l14 9.8L62.1 0h11c.5 0 .9.1 1.3.4.3.3.6.6.7 1.1V13L26.2 47.3c-1.6 1.3-3 2.9-3.9 4.7zm52.8-23.2L66 22.4 50.2 33.5l14.2 9.9L48 54.9 33.9 45l-7.7 5.3c-2.5 2-4.3 4.8-4.9 8l11 7.7L21 73.8V96l54.2-37.9V28.8zm-9 38.7L50.2 78.6 62.3 87H73c.3 0 .6-.1.9-.2l.6-.3c.2-.2.4-.3.5-.6.1-.2.2-.5.2-.7V73.8l-9.1-6.3z" style="fill:#fff"/>
</svg>
