<svg xmlns="http://www.w3.org/2000/svg" viewBox="0 0 96 96" style="enable-background:new 0 0 96 96" xml:space="preserve">
  <path d="M16.7 25c-2.1 0-4.2-.1-6.3-.3-4.4-.6-6.7-1.7-7.1-3.5-.8-2.9 3.4-5.3 6.6-6.9C22.2 8.3 49.2 2.1 70 .4c6.4-.5 11.9-.5 15.7-.1 4.4.5 6.6 1.6 7.1 3.5.8 2.9-3.4 5.3-6.6 6.9-12.3 6-39.3 12.2-60.1 13.9-3.5.2-6.6.4-9.4.4zM79.3 2.6c-2.5 0-5.5.1-9.1.4C49.6 4.6 23.1 10.7 11 16.6c-5.2 2.5-5.3 3.9-5.3 3.9.2.6 4.1 2.7 20.1 1.4C46.5 20.3 73 14.2 85.1 8.3c5.2-2.5 5.3-3.9 5.3-3.9-.2-.4-2.6-1.8-11.1-1.8zM63.6 32.5c-4-4-9.5-6.2-15.1-6.2h-.2c-5.7 0-11.2 2.3-15.3 6.4s-6.3 9.6-6.3 15.3c0 5.7 2.3 11.2 6.4 15.3 4.1 4 9.6 6.3 15.3 6.3h.2c4.3 0 8.4-1.4 12-3.8 3.5-2.4 6.3-5.8 7.9-9.8 1.6-4 2-8.3 1.1-12.5-.8-4.2-2.9-8.1-6-11zM10.3 95.7c2.1.2 4.2.3 6.3.3 2.8 0 5.9-.1 9.4-.4 20.9-1.7 47.8-7.9 60.1-13.9 3.2-1.6 7.4-4 6.6-6.9-.5-1.8-2.8-2.9-7.1-3.5-3.8-.4-9.2-.4-15.7.1C49 73.1 22.1 79.3 9.8 85.3c-3.2 1.6-7.4 4-6.6 6.9.5 1.9 2.7 3 7.1 3.5zm59.8-21.6c3.6-.3 6.6-.4 9.1-.4 8.5 0 10.9 1.4 11 1.9 0 0-.1 1.4-5.3 3.9-12.1 5.9-38.6 12-59.2 13.6-16 1.3-19.9-.8-20.1-1.4 0 0 .1-1.4 5.3-3.9 12.1-6 38.6-12.1 59.2-13.7z" style="fill-rule:evenodd;clip-rule:evenodd;fill:#fff"/>
</svg>
