<svg width="24" height="24" viewBox="0 0 24 24" fill="none" xmlns="http://www.w3.org/2000/svg">
<path fill-rule="evenodd" clip-rule="evenodd" d="M12.0979 21.997C11.989 22.0038 11.6913 21.9987 11.4364 21.9856C11.1814 21.9726 10.7901 21.9345 10.5667 21.901C10.3433 21.8675 9.99369 21.8022 9.7898 21.7558C9.58592 21.7095 9.27154 21.6256 9.09118 21.5694C8.91082 21.5133 8.61213 21.411 8.42743 21.3421C8.24273 21.2732 7.90605 21.1278 7.67925 21.019C7.45245 20.9101 7.11596 20.7316 6.93149 20.6222C6.74702 20.5127 6.45493 20.3243 6.28241 20.2034C6.1099 20.0825 5.84684 19.8857 5.69785 19.766C5.54886 19.6463 5.27426 19.4006 5.08763 19.2198C4.901 19.0391 4.64006 18.7701 4.50775 18.622C4.37545 18.4738 4.16086 18.2107 4.0309 18.0372C3.90093 17.8637 3.71812 17.6063 3.62465 17.4651C3.53119 17.3239 3.38252 17.08 3.29429 16.9231C3.20605 16.7662 3.05466 16.471 2.95786 16.2671C2.86106 16.0631 2.737 15.7807 2.68217 15.6395C2.62734 15.4983 2.54006 15.2525 2.48823 15.0932C2.43639 14.9339 2.34942 14.6259 2.29496 14.4087C2.2405 14.1914 2.16967 13.8532 2.13755 13.6571C2.10544 13.461 2.06638 13.1722 2.05075 13.0153C2.03511 12.8585 2.01436 12.5504 2.00462 12.3308C1.99489 12.1111 2.00104 11.7004 2.01829 11.418C2.03554 11.1356 2.07482 10.7397 2.10558 10.5382C2.13633 10.3367 2.19477 10.0222 2.23544 9.83937C2.2761 9.65651 2.35423 9.35288 2.40905 9.16462C2.46387 8.97636 2.55431 8.70039 2.61002 8.55136C2.66573 8.40232 2.75863 8.17128 2.81645 8.03793C2.87427 7.90458 2.99616 7.64786 3.08732 7.46745C3.17847 7.28704 3.33011 7.01107 3.42429 6.85419C3.51847 6.69731 3.67995 6.44701 3.78312 6.29797C3.8863 6.14893 4.06858 5.90505 4.1882 5.75602C4.30782 5.60698 4.52334 5.36004 4.66715 5.20727C4.81095 5.05449 5.05357 4.8118 5.2063 4.66796C5.35903 4.52411 5.60589 4.30852 5.75488 4.18887C5.90387 4.06921 6.14768 3.88687 6.29667 3.78367C6.44567 3.68046 6.69589 3.51901 6.85272 3.42488C7.00956 3.33076 7.26789 3.18774 7.42681 3.10707C7.58572 3.02639 7.84236 2.90433 7.99711 2.83582C8.15187 2.76731 8.40039 2.66571 8.54938 2.61003C8.69838 2.55436 8.97426 2.46373 9.16246 2.40864C9.35067 2.35354 9.65421 2.27541 9.83701 2.23501C10.0198 2.19461 10.3342 2.13632 10.5356 2.10546C10.7371 2.07461 11.1489 2.03504 11.4508 2.01754C11.8512 1.99434 12.1444 1.99417 12.5344 2.01693C12.8285 2.03408 13.2363 2.07275 13.4407 2.10284C13.645 2.13293 13.9658 2.19197 14.1535 2.23402C14.3413 2.27608 14.6424 2.35374 14.8228 2.4066C15.0031 2.45945 15.3239 2.56724 15.5356 2.64612C15.7474 2.72499 16.1679 2.91252 16.4701 3.06284C16.8139 3.23386 17.1928 3.45149 17.4824 3.64429C17.7369 3.81376 18.0799 4.05873 18.2446 4.18866C18.4093 4.31858 18.7821 4.66342 19.0731 4.95497C19.364 5.24651 19.6848 5.5922 19.7859 5.72317C19.887 5.85415 20.0949 6.14181 20.2478 6.36242C20.4007 6.58303 20.6023 6.89973 20.6958 7.0662C20.7894 7.23267 20.9443 7.53409 21.0402 7.73602C21.136 7.93796 21.2825 8.28457 21.3657 8.50627C21.4489 8.72796 21.5567 9.05022 21.6054 9.22239C21.654 9.39456 21.7255 9.67662 21.7643 9.84919C21.8031 10.0218 21.8603 10.3298 21.8915 10.5338C21.9226 10.7377 21.963 11.1519 21.9812 11.4542C22.006 11.8665 22.0062 12.1366 21.9821 12.5352C21.9644 12.8274 21.9243 13.2411 21.8929 13.4545C21.8616 13.6679 21.8032 13.9885 21.7632 14.1669C21.7232 14.3453 21.6421 14.6534 21.583 14.8515C21.5238 15.0496 21.417 15.3664 21.3456 15.5555C21.2742 15.7447 21.137 16.0656 21.0407 16.2686C20.9444 16.4717 20.7935 16.7662 20.7053 16.9231C20.6171 17.08 20.4325 17.3752 20.2951 17.5792C20.1576 17.7831 19.9329 18.0912 19.7958 18.2637C19.6586 18.4363 19.3272 18.7964 19.0594 19.0639C18.7916 19.3315 18.4278 19.6647 18.2508 19.8044C18.0739 19.9441 17.8365 20.1215 17.7233 20.1986C17.5458 20.3195 17.5164 20.3315 17.5095 20.2854C17.5051 20.2559 17.5341 19.9976 17.574 19.7114C17.6138 19.4251 17.6853 18.9116 17.7328 18.5704C17.7803 18.2292 17.8375 17.8152 17.86 17.6505C17.8824 17.4857 17.9398 17.0718 17.9875 16.7306C18.0351 16.3894 18.1126 15.8343 18.1597 15.497C18.2067 15.1597 18.2836 14.6078 18.3304 14.2704C18.3772 13.9331 18.4547 13.3779 18.5025 13.0367C18.5503 12.6955 18.6091 12.288 18.633 12.1311C18.6569 11.9742 18.6837 11.5571 18.6925 11.2041C18.7028 10.7955 18.6964 10.4483 18.6751 10.2485C18.6567 10.076 18.6087 9.78715 18.5684 9.60674C18.5281 9.42633 18.4408 9.12444 18.3744 8.93587C18.3079 8.74731 18.1749 8.43925 18.0789 8.2513C17.9828 8.06335 17.8274 7.79405 17.7335 7.65286C17.6396 7.51166 17.4499 7.26277 17.312 7.09976C17.1741 6.93676 16.9201 6.68186 16.7475 6.53333C16.575 6.3848 16.312 6.18207 16.163 6.08282C16.014 5.98357 15.7189 5.81905 15.5071 5.71723C15.2954 5.6154 15.0027 5.49178 14.8566 5.4425C14.7106 5.39322 14.454 5.32187 14.2863 5.28395C14.1187 5.24603 13.8175 5.19999 13.6169 5.18163C13.4034 5.16209 13.0714 5.15532 12.8157 5.16531C12.5176 5.17696 12.2622 5.20597 12.0111 5.25668C11.8088 5.29755 11.509 5.37586 11.3448 5.43071C11.1806 5.48555 10.9368 5.57982 10.803 5.64019C10.6692 5.70056 10.4442 5.81666 10.3031 5.89819C10.1619 5.97973 9.93737 6.12416 9.80406 6.21917C9.67075 6.31417 9.44569 6.49148 9.30393 6.61319C9.16217 6.7349 8.96038 6.92547 8.8555 7.03668C8.75063 7.14788 8.57056 7.35769 8.45535 7.50291C8.34014 7.64813 8.18129 7.86322 8.10235 7.98088C8.02341 8.09854 7.89201 8.3135 7.81035 8.45855C7.7287 8.60361 7.60676 8.84838 7.53939 9.00248C7.47201 9.15658 7.38081 9.39088 7.33671 9.52314C7.29261 9.65541 7.23547 9.84705 7.20973 9.94903C7.16293 10.1344 7.16293 10.1344 6.80822 10.1522C6.53576 10.1659 6.40547 10.1868 6.24635 10.2422C6.13242 10.282 5.93994 10.3761 5.81862 10.4514C5.69405 10.5287 5.47835 10.7068 5.32304 10.8606C5.16509 11.0169 4.986 11.2299 4.90228 11.361C4.82211 11.4865 4.71876 11.6797 4.67261 11.7904C4.62647 11.9011 4.55612 12.1042 4.5163 12.2416C4.47647 12.3791 4.42911 12.6373 4.41106 12.8154C4.38689 13.0539 4.38643 13.2244 4.40931 13.4624C4.42639 13.6401 4.47383 13.9137 4.51472 14.0703C4.5556 14.227 4.64927 14.4837 4.72285 14.6408C4.79644 14.7979 4.89951 14.9742 4.95189 15.0326C5.00428 15.091 5.10867 15.1829 5.18387 15.237C5.27803 15.3046 5.34349 15.3826 5.39409 15.4874C5.4345 15.5711 5.489 15.7586 5.51519 15.9042C5.55008 16.0981 5.58901 16.2125 5.66074 16.3321C5.71459 16.4218 5.82899 16.5873 5.91495 16.6999C6.00092 16.8124 6.16002 16.9883 6.26852 17.0906C6.37702 17.193 6.55926 17.3428 6.67351 17.4235C6.78776 17.5041 6.96835 17.6143 7.07481 17.6683C7.18128 17.7222 7.38053 17.804 7.51758 17.8499C7.65464 17.8958 7.88833 17.9531 8.03689 17.9772C8.18545 18.0013 8.39683 18.0211 8.50661 18.0211C8.6164 18.0211 8.82705 18.0015 8.97473 17.9775C9.12242 17.9535 9.34056 17.9013 9.45949 17.8615C9.57843 17.8217 9.77651 17.7355 9.89968 17.6699C10.0228 17.6044 10.2016 17.4802 10.297 17.3938C10.3923 17.3075 10.5299 17.1456 10.6028 17.034C10.6756 16.9224 10.7651 16.7511 10.8016 16.6534C10.8657 16.482 10.8711 16.4762 10.9563 16.4883C11.0048 16.4953 11.1728 16.5279 11.3296 16.5609C11.4865 16.5939 11.7235 16.6344 11.8564 16.6508C11.9893 16.6672 12.3087 16.6807 12.5663 16.6807C13.0345 16.6807 13.0345 16.6807 13.0165 16.8732C13.0066 16.9791 12.96 17.3385 12.9129 17.6719C12.8658 18.0053 12.7889 18.5541 12.7421 18.8914C12.6952 19.2287 12.6175 19.787 12.5693 20.1319C12.5211 20.4769 12.4436 21.0311 12.3972 21.3635C12.3507 21.6959 12.3089 21.9716 12.3042 21.9763C12.2996 21.9809 12.2067 21.9902 12.0979 21.997ZM13.9714 21.8013C13.8472 21.821 13.8472 21.821 13.865 21.711C13.8748 21.6505 13.9015 21.4598 13.9242 21.2873C13.947 21.1147 14.0047 20.6943 14.0523 20.3532C14.1 20.012 14.1775 19.4568 14.2244 19.1195C14.2714 18.7822 14.3424 18.272 14.3823 17.9857C14.4221 17.6993 14.4865 17.234 14.5252 16.9516C14.564 16.6692 14.6051 16.4213 14.6166 16.4006C14.628 16.3799 14.7664 16.3143 14.9241 16.2548C15.0819 16.1953 15.3192 16.0955 15.4517 16.0331C15.5841 15.9706 15.8046 15.8528 15.9417 15.7714C16.0788 15.69 16.277 15.5583 16.3821 15.4787C16.4871 15.3991 16.592 15.3268 16.615 15.318C16.6503 15.3044 16.6539 15.3307 16.638 15.485C16.6276 15.5857 16.6013 15.7964 16.5794 15.9533C16.5575 16.1102 16.5055 16.4824 16.4639 16.7805C16.4222 17.0786 16.35 17.5952 16.3034 17.9285C16.2569 18.2618 16.1801 18.8105 16.133 19.1478C16.0858 19.485 16.0093 20.0338 15.963 20.3672C15.9166 20.7007 15.8711 21.0292 15.8619 21.0973C15.8461 21.2135 15.836 21.2252 15.6975 21.2886C15.6163 21.3258 15.3767 21.4139 15.1649 21.4846C14.9532 21.5552 14.626 21.651 14.4378 21.6973C14.2496 21.7436 14.0397 21.7904 13.9714 21.8013ZM8.49431 16.4806C8.26988 16.4803 8.18098 16.4661 7.99334 16.4007C7.86787 16.3569 7.69023 16.273 7.59858 16.2143C7.50694 16.1555 7.37049 16.05 7.29538 15.9797C7.22026 15.9094 7.12447 15.8023 7.08251 15.7418C7.037 15.6761 6.97833 15.5181 6.93711 15.3504C6.8991 15.1956 6.81581 14.9631 6.75201 14.8337C6.68822 14.7042 6.56015 14.5039 6.46741 14.3886C6.37466 14.2733 6.2523 14.1435 6.1955 14.1001C6.13869 14.0568 6.06931 13.9679 6.04133 13.9026C6.01335 13.8373 5.96953 13.6919 5.94395 13.5794C5.91838 13.4669 5.89765 13.2683 5.89788 13.1381C5.89811 13.0078 5.91769 12.8189 5.9414 12.7184C5.9651 12.6178 6.02472 12.4509 6.0739 12.3475C6.133 12.2233 6.22697 12.0958 6.35117 11.9714C6.45451 11.8679 6.58396 11.76 6.63884 11.7317C6.69372 11.7033 6.79151 11.681 6.85616 11.6819C6.9208 11.6829 7.01231 11.7037 7.05952 11.7281C7.10672 11.7525 7.17574 11.8091 7.2129 11.8538C7.25005 11.8986 7.3341 12.0306 7.39966 12.1472C7.46523 12.2639 7.82097 12.8954 8.1902 13.5506C8.55942 14.2058 8.98462 14.9592 9.13508 15.2248C9.35915 15.6204 9.4115 15.7354 9.42442 15.8606C9.43691 15.9817 9.42764 16.0381 9.37979 16.1319C9.34125 16.2075 9.27552 16.2757 9.19816 16.3204C9.13148 16.359 9.00722 16.4109 8.92204 16.4358C8.82778 16.4633 8.66035 16.4808 8.49431 16.4806ZM12.6413 15.1501C12.5472 15.1549 12.3314 15.1493 12.1617 15.1376C11.9921 15.126 11.7236 15.0887 11.5652 15.0547C11.4068 15.0208 11.1864 14.9604 11.0753 14.9205C10.9642 14.8806 10.8026 14.8124 10.7161 14.7689C10.5618 14.6914 10.554 14.6814 10.309 14.2452C10.1717 14.0006 9.97602 13.6529 9.87423 13.4724C9.77244 13.2919 9.43654 12.698 9.12777 12.1527C8.70308 11.4027 8.56365 11.1324 8.55523 11.0428C8.5491 10.9777 8.57139 10.7816 8.60476 10.6072C8.63813 10.4327 8.70331 10.1779 8.7496 10.041C8.79589 9.90414 8.90436 9.64707 8.99063 9.46976C9.07691 9.29245 9.22981 9.0229 9.33041 8.87076C9.431 8.71862 9.62695 8.45986 9.76585 8.29574C9.90475 8.13162 10.1274 7.90318 10.2605 7.78811C10.3937 7.67304 10.6158 7.50119 10.7541 7.40621C10.8924 7.31124 11.1221 7.17559 11.2645 7.10478C11.407 7.03396 11.6339 6.93865 11.7688 6.89297C11.9036 6.84729 12.1359 6.78421 12.2849 6.75279C12.4339 6.72137 12.7169 6.68779 12.9138 6.67817C13.1791 6.6652 13.3587 6.67325 13.6075 6.70926C13.7921 6.73599 14.0728 6.79639 14.2313 6.84349C14.3898 6.89059 14.6534 6.9923 14.817 7.06952C14.9807 7.14673 15.2189 7.27966 15.3465 7.36491C15.4741 7.45015 15.6706 7.59788 15.7833 7.69318C15.896 7.78848 16.0809 7.97884 16.1942 8.11621C16.3075 8.25357 16.4579 8.4558 16.5284 8.56562C16.5989 8.67544 16.7126 8.88045 16.7811 9.0212C16.8496 9.16195 16.9492 9.41225 17.0025 9.57742C17.0557 9.74258 17.1213 10.013 17.1481 10.1783C17.1867 10.4161 17.1936 10.5859 17.1813 10.9912C17.1701 11.3605 17.1495 11.5734 17.1075 11.7535C17.0755 11.891 17.0087 12.122 16.9591 12.2669C16.9094 12.4119 16.8175 12.6331 16.7547 12.7586C16.6919 12.8841 16.5623 13.1023 16.4669 13.2435C16.3677 13.3902 16.1523 13.6416 15.9643 13.8301C15.7586 14.0364 15.534 14.2276 15.3645 14.3408C15.2156 14.4403 14.9747 14.5784 14.8294 14.6477C14.684 14.717 14.434 14.8178 14.2738 14.8718C14.1136 14.9258 13.8348 15.001 13.6541 15.039C13.4735 15.0771 13.2102 15.1157 13.0691 15.1248C12.9279 15.1339 12.7354 15.1453 12.6413 15.1501ZM11.7859 11.0811C11.9011 11.0766 12.0277 11.0527 12.0853 11.0246C12.1402 10.9978 12.2749 10.8972 12.3847 10.801C12.4945 10.7048 12.6903 10.5564 12.8198 10.471C12.9494 10.3857 13.1611 10.2664 13.2903 10.2059C13.4196 10.1454 13.6266 10.0694 13.7504 10.037C13.8743 10.0047 14.0796 9.97062 14.2067 9.96136C14.3338 9.9521 14.5048 9.92465 14.5866 9.90037C14.6684 9.87608 14.786 9.81289 14.8479 9.75993C14.9097 9.70698 14.9935 9.59698 15.0341 9.5155C15.0863 9.41074 15.1079 9.32192 15.1079 9.21225C15.1079 9.12694 15.0927 9.00621 15.074 8.94396C15.0554 8.88172 14.9849 8.76939 14.9175 8.69436C14.8501 8.61933 14.7338 8.52914 14.6591 8.49395C14.5336 8.4348 14.4953 8.43113 14.1526 8.44537C13.8719 8.45704 13.7014 8.4815 13.4498 8.54617C13.2671 8.59313 13.004 8.67787 12.8652 8.73447C12.7264 8.79107 12.4845 8.9093 12.3277 8.9972C12.1708 9.08511 11.9337 9.23553 11.8008 9.33147C11.6678 9.42741 11.4701 9.58957 11.3614 9.69181C11.2314 9.81408 11.1399 9.92973 11.0939 10.0297C11.0361 10.1554 11.026 10.2144 11.0356 10.3719C11.0421 10.4774 11.0712 10.6119 11.1011 10.6736C11.1307 10.7349 11.1991 10.8292 11.2531 10.8832C11.3071 10.9372 11.4041 11.0056 11.4688 11.0351C11.5558 11.075 11.638 11.0869 11.7859 11.0811Z" fill="white"/>
</svg>
