<svg version="1.1" xmlns="http://www.w3.org/2000/svg" x="0px" y="0px" viewBox="0 0 24 24">
<path style="fill:#ffffff;" d="M0,11.5l1.5-1.7C1.7,9.6,2,9.5,2.3,9.5l1.4,0.1c0.5,0,1-0.2,1.4-0.5L12,1.6L13.6,3L7.4,9.8
	c-0.3,0.3-0.6,0.4-1,0.5c-0.2,0-0.4,0-0.5-0.1L5.5,10c-0.6-0.2-1.2-0.1-1.6,0.4l-2.3,2.5L0,11.5z M3.5,14.6l3.2-3.4
	c0.2-0.2,0.5-0.3,0.8-0.3L8.9,11c0.5,0,1-0.2,1.4-0.5l5.2-5.6l1.6,1.4l-4.6,5c-0.3,0.3-0.6,0.4-1,0.5c-0.2,0-0.4,0-0.5-0.1l-0.3-0.1
	c-0.6-0.2-1.2-0.1-1.6,0.4l-4,4.3L3.5,14.6z M6.9,17.7l4.7-5.2c0.2-0.2,0.5-0.3,0.8-0.3l1.4,0.1c0.5,0,1-0.2,1.4-0.5l3.7-3.9
	l1.6,1.4l-3.1,3.2c-0.3,0.3-0.6,0.4-1,0.5c-0.2,0-0.4,0-0.5-0.1l-0.3-0.1c-0.6-0.2-1.2-0.1-1.6,0.4l-5.5,6L6.9,17.7z M10.4,20.9
	l6.5-7c0.2-0.2,0.5-0.3,0.8-0.3l1.4,0.1c0.5,0,1-0.2,1.4-0.5l2-2l1.6,1.4l-1.3,1.3c-0.3,0.3-0.6,0.4-1,0.5c-0.2,0-0.4,0-0.5-0.1
	L21,14.2c-0.6-0.2-1.2-0.1-1.6,0.4L12,22.4L10.4,20.9z"/>
</svg>
