<svg width="24" height="24" viewBox="0 0 24 24" fill="none" xmlns="http://www.w3.org/2000/svg">
<path fill-rule="evenodd" clip-rule="evenodd" d="M3.48571 12.973L5.2 10.9054C5.70298 10.3701 6.35654 10.5079 6.90508 10.6236C7.229 10.6919 7.51629 10.7525 7.71429 10.6622C8.4 10.3494 13.4286 4.33784 13.4286 4.33784L11.9429 3C11.9429 3 6.68571 9.08108 6.11429 9.68918C5.91038 9.90619 5.44897 9.86774 4.9567 9.82677C4.3938 9.7799 3.79055 9.72966 3.48571 10.0541C2.91429 10.6622 2 11.7568 2 11.7568L3.48571 12.973ZM9.42858 12.1216L6.34287 15.6486L4.85714 14.4324C4.85714 14.4324 6.91429 12 7.48571 11.3919C7.79054 11.0675 8.42633 11.0831 9.01958 11.0977C9.53837 11.1104 10.0247 11.1224 10.2286 10.9054C10.8 10.2973 14.8 5.67568 14.8 5.67568L16.2857 7.0135C16.2857 7.0135 12.8571 11.027 12.1714 11.7568C12.0002 11.939 11.6335 11.8844 11.2062 11.8208C10.6096 11.7319 9.89475 11.6255 9.42858 12.1216ZM9.2 18.3243L13.6571 13.2162C14.1233 12.7201 14.7994 12.8265 15.3637 12.9154C15.7677 12.979 16.1145 13.0336 16.2857 12.8513C16.7429 12.3649 19.1429 9.68918 19.1429 9.68918L17.6571 8.35136C17.6571 8.35136 15.1429 11.3919 14.5714 12C14.2857 12.3041 13.7714 12.2737 13.2571 12.2432C12.7429 12.2128 12.2286 12.1824 11.9429 12.4865C11.3714 13.0946 7.82858 17.2297 7.82858 17.2297L9.2 18.3243ZM12.0571 21L17.7714 14.554C18.2275 14.0687 18.9791 14.1392 19.6055 14.198C20.0778 14.2423 20.4789 14.2799 20.6286 14.0676C20.9767 13.5736 22 12.3649 22 12.3649L20.5143 11.027C20.5143 11.027 19.1429 12.7297 18.5714 13.3378C18.3556 13.5675 17.8595 13.5261 17.3358 13.4823C16.7503 13.4335 16.1302 13.3817 15.8286 13.7027C15.2571 14.3108 10.5714 19.7838 10.5714 19.7838L12.0571 21Z" fill="white"/>
</svg>
