<svg xmlns="http://www.w3.org/2000/svg" viewBox="0 0 96 96">
<path style="fill:#FFFFFF;" d="M47.8,96c-6.2,0-12.2-1.2-17.9-3.6c-0.2-0.1-0.2-0.3-0.1-0.4c0.5-0.5,3.9-4.3,8.2-9
	c16.8-18.4,25.9-28.5,26.5-28.8c6.2-4.7,12-0.2,18.6,0c4.8,0.1,7.7-4.8,10.9-8c-0.3-6.1-1.8-12.4-3.8-17
	C81.5,36.8,71.7,54.8,59.6,51c-0.5,0-1.3,0.2-1.8-0.2c-0.6,0-1.4,0.2-1.9-0.2c-0.5,0-1.3,0.1-1.7-0.2c-0.6,0-1.8,0-2.1-0.1
	c-0.3,0.2-1.2,0.1-1.5,0.1c-1.7,0.3-3.8,1.5-5.1,2.8c0,0-28.2,31.1-28.2,31.1C11.7,81.4,6.6,73,3.9,67.9
	c5.7-6.2,22.2-26.5,26.9-26.2c4.7-0.6,10.2,2.5,14.9,2.1c1.9-0.2,4.2-1.9,5.7-3.3c0.1-0.1,24.5-26.8,24.5-26.8L77,12
	c-3.3-2.7-8.5-5.6-12.7-7.2C55.7,14.1,31.1,42,29.9,39.9c-3,0.8-4.6,1.3-6.7,0.8c-0.6,0-1.6,0.1-2-0.2c-0.5,0-1.4,0.1-1.8-0.2
	C9.3,38.1,6.5,43.5,0.5,50.3C-2.7,27.1,17.4,3.1,41.3,0c0,0,0.9,0,0.9,0c0.1,0,0.2,0.1,0.2,0.2c0.1,0.1,0.2,0.4,0,0.5
	c0,0-28.9,31.6-28.9,31.6C11,34.6,7.2,36,3.9,35.2C3,36.7,2.9,40.6,2.5,42c-0.2,0.4,0.1,1.4-0.2,1.7c-0.1,0.2-0.1,1-0.1,1.4
	c3.4-3.5,7.2-8.4,12.6-7.1c0.6,0,1.6-0.1,2,0.2c2,0.2,5.9,0.3,7.4,0.7c-0.1-0.1,2-0.3,3-0.3c1.6-0.3,4.6-1.8,6-2.9
	c0,0,2.3-2.3,2.3-2.3l28-30.8c5.8,1,12.2,5.8,16.2,9.1c0,0,0.1,0.1,0.1,0.1c0.1,0.5-2.7,3.7-19.6,21.8c-4.6,5-8.8,9.4-9.1,9.9
	c-3.9,3.1-8.1,2.6-12.8,1.3c-2.6-0.6-4.9-1.3-7.2-1c-4.5,0-19.3,19-24.9,24.5c2.3,4.4,6.3,9.5,10.6,13.5
	c6.9-6.2,28.2-33.8,33.4-33.2c4.8-0.4,9.9,1.2,14.7,0.7c1.9-0.3,4.8-1.6,6.3-2.7c1.7-1.5,10.4-11.1,15.6-16.9
	c1.7-1.5,3.2-4.1,3.8-3.7C93.9,31.8,95.9,40,96,47c-2.7,3-7.3,8.6-10.7,9.1c-5,1.1-10.8-2.5-15.8-1.9C64.3,54.6,41,83.8,33.4,91.4
	c5.4,2.3,13.6,2.9,20.3,2.2c0,0,2.1-2.1,2.1-2.1l28-30.4c2.4-1.9,7.8-3.2,10.8-1.6C89.3,81,70,96,47.8,96z M90.2,60.8
	c-1.4,0.2-3.7,0.9-4.7,1.7c-1.4,1.2-24.1,26.1-27.7,30.3C73.5,89.9,87.4,76.9,92,60.9L90.2,60.8z M4.5,33.2c2.2,0.5,4.4-0.1,6.7-1.6
	c1.3-1,20.2-22,26.2-28.6l-0.1,0C22.3,6.5,9.4,18.4,4.5,33.2z"/>
</svg>
