<svg width="24" height="24" viewBox="0 0 24 24" fill="none" xmlns="http://www.w3.org/2000/svg">
<path fill-rule="evenodd" clip-rule="evenodd" d="M12 2C17.5228 2 22 6.47715 22 12C22 17.5228 17.5228 22 12 22C6.47715 22 2 17.5228 2 12C2 6.47715 6.47715 2 12 2ZM4.12666 10.4116C4.74027 7.27441 7.35275 4.69411 10.5138 4.10008C11.4156 3.92373 13.0147 3.9887 13.9909 4.23003C14.9578 4.48063 16.278 5.13963 17.0403 5.78007C19.2995 7.6364 20.4059 10.6808 19.8574 13.5395C19.2344 16.7417 16.5569 19.3777 13.3215 19.9346C12.5591 20.0646 10.7462 19.9903 10.0396 19.8047C7.02735 18.9786 4.87042 16.7696 4.18244 13.8366C3.95931 12.8991 3.93142 11.3676 4.12666 10.4116ZM19.002 10.8479C18.5093 7.97982 16.4174 5.7615 13.5446 5.07466C12.8287 4.89831 11.5364 4.84262 10.8764 4.954C10.4673 5.01897 9.63054 5.26957 9.31444 5.41808L9.00764 5.56659L9.36093 5.72438C9.7514 5.90073 18.5929 10.9871 18.7324 11.117C18.9462 11.3212 19.0671 11.2006 19.002 10.8479ZM7.76182 12.1287C7.78972 9.09362 7.8362 6.53188 7.86409 6.43906C7.95706 6.14205 7.70604 6.28128 7.09243 6.85674C5.34458 8.51816 4.52643 10.9871 4.9634 13.2611C5.25161 14.7462 5.95819 16.0734 7.03665 17.1223C7.37135 17.4471 7.65026 17.6977 7.66885 17.6792C7.68745 17.6606 7.72464 15.1638 7.76182 12.1287ZM12.9031 8.81517C12.838 8.75948 11.9827 8.25827 10.9972 7.68281C9.34233 6.7268 8.96115 6.55973 8.8031 6.71751C8.76591 6.74536 8.73802 7.82203 8.73802 9.09362V11.4048L8.99834 11.2377C9.1378 11.1449 10.0954 10.588 11.1367 9.98466C12.5033 9.19572 12.9868 8.88014 12.9031 8.81517ZM17.3378 11.3398C17.0868 11.2006 16.3431 10.7829 15.6923 10.4023C15.0508 10.0218 14.4743 9.71549 14.4185 9.71549C14.3442 9.71549 14.3163 10.4673 14.3163 12.1287C14.3163 13.456 14.3442 14.542 14.3721 14.542C14.4 14.542 15.0136 14.1985 15.7387 13.7809C16.4639 13.3632 17.3285 12.8713 17.6632 12.6856C18.5744 12.1659 18.5372 11.9988 17.3378 11.3398ZM13.2192 14.2635C13.3773 14.2635 13.3866 14.1336 13.368 12.1102C13.3401 10.2724 13.3215 9.94753 13.2006 9.92897C13.1263 9.91969 12.3639 10.3188 11.5086 10.82C9.66773 11.906 9.48179 12.0173 9.48179 12.1102C9.48179 12.1844 9.72351 12.3329 11.7596 13.5117C12.4755 13.9294 13.1356 14.2635 13.2192 14.2635ZM11.0623 14.1614C10.0675 13.5952 9.16569 13.0662 9.06342 13.0012C8.8031 12.8156 8.76591 12.8341 8.70083 13.159C8.60786 13.6416 8.63575 17.113 8.73802 17.3729C8.86818 17.7163 8.97974 17.6792 10.6439 16.7139C11.0355 16.4925 11.4461 16.2568 11.791 16.059C12.1257 15.8668 12.3984 15.7104 12.5312 15.6372C12.8009 15.4794 12.9961 15.3216 12.9496 15.2752C12.9124 15.2381 12.0571 14.7369 11.0623 14.1614ZM17.9422 15.9064C18.3605 15.2845 18.8719 14.0222 18.9462 13.4467C18.9927 13.0198 18.8812 12.9455 18.5465 13.2054C18.4442 13.2797 18.0072 13.5488 17.5703 13.7994C17.1333 14.0408 15.7108 14.8575 14.4093 15.6094C13.8507 15.932 13.2201 16.2957 12.6228 16.6402C11.8283 17.0985 11.0924 17.523 10.6625 17.772C9.60265 18.3753 9.31444 18.5795 9.42601 18.6445C10.1512 19.0529 12.336 19.2199 13.4888 18.96C15.3018 18.5609 16.8916 17.4657 17.9422 15.9064Z" fill="white"/>
</svg>
