<svg width="24" height="24" viewBox="0 0 24 24" fill="none" xmlns="http://www.w3.org/2000/svg">
<path d="M14.2505 16.5004C14.191 16.515 14.206 16.5733 14.2649 16.5588C14.206 16.5733 14.206 16.6463 14.2649 16.6317H14.2799C14.2649 16.6463 14.2799 16.6754 14.3093 16.6754C14.3093 16.7046 14.3243 16.7338 14.3243 16.7338C14.3537 16.7338 14.3687 16.7192 14.3687 16.7046C14.3831 16.69 14.4132 16.69 14.4276 16.7046C14.4576 16.7046 14.487 16.7046 14.487 16.7484C14.5315 16.7484 14.5465 16.7776 14.5609 16.7921C14.6354 16.8505 14.6497 16.938 14.6792 17.0256L14.6648 17.0401C14.6648 17.0401 14.6942 17.0985 14.7536 17.1423C14.7981 17.2881 14.8869 17.3611 15.0052 17.434C15.0346 17.4778 15.1085 17.5361 15.1679 17.5945L15.1529 17.5507V17.507C15.1973 17.5361 15.2418 17.5653 15.2862 17.6091C15.3012 17.6091 15.3163 17.5945 15.3163 17.5945C15.3457 17.6236 15.3607 17.6674 15.3901 17.682C15.4045 17.682 15.4195 17.682 15.4345 17.6674C15.5378 17.7841 15.5678 17.9446 15.6567 18.0467C15.7305 18.1196 15.9083 18.2218 15.9821 18.3385C16.071 18.4551 16.2337 18.4989 16.3226 18.6156C16.352 18.5718 16.367 18.6302 16.3964 18.6156C16.3964 18.6302 16.3964 18.6594 16.4114 18.6594L16.5297 18.7031C16.5003 18.6886 16.4853 18.6594 16.4703 18.6448C16.6924 18.7907 16.8996 18.9658 17.1218 19.1262C17.6994 19.6076 18.2614 20.162 18.839 20.6579C18.824 20.6142 18.824 20.585 18.854 20.5704C18.9423 20.6433 19.0756 20.8038 19.1645 20.8184C18.9279 20.5704 18.6613 20.337 18.5724 20.0453C18.6613 20.0598 18.7057 20.0598 18.7796 20.1182C18.7502 20.1328 18.7351 20.1473 18.7351 20.1765C18.7946 20.1328 18.8096 20.1765 18.824 20.1911C19.2239 20.6288 19.6382 21.0372 20.0675 21.4311C19.831 21.0664 19.4605 20.8476 19.2683 20.4975C19.6238 20.8038 19.9786 21.1101 20.3047 21.4748L20.6896 21.8688C20.6896 21.825 20.704 21.7958 20.704 21.7666L20.3047 21.3436C20.1714 21.2123 20.0081 21.0664 19.9198 20.9351C19.8009 20.7455 19.7421 20.5558 19.5493 20.4391C19.5493 20.4829 19.6088 20.5413 19.5794 20.5704C19.3128 20.3224 18.9867 20.0453 18.8096 19.7389C18.839 19.7097 18.8835 19.8118 18.8835 19.7535C18.7946 19.6951 18.7207 19.5784 18.6613 19.4471C18.6169 19.4471 18.6613 19.5055 18.6018 19.4763C18.4391 19.2575 18.1431 19.1408 18.0248 18.8636C18.0693 18.8782 18.1137 18.8928 18.1731 18.8928C18.247 18.9074 17.7438 18.7178 17.8177 18.4989C17.8915 18.3239 17.9209 18.6302 18.1875 18.6886C18.2914 18.7031 18.2764 18.6156 18.3208 18.5718C18.7351 18.9658 19.0756 19.2867 19.2239 19.4034V19.3596C19.1795 19.2867 19.12 19.2721 19.12 19.1991L19.135 19.1554C19.4016 19.4618 19.9198 20.1911 20.3485 20.2349C20.3047 20.1911 20.2747 20.162 20.2747 20.1036C20.2897 20.0306 20.3341 20.0453 20.408 20.0453C20.3341 20.0015 20.2897 19.9869 20.2158 19.9869V20.0453C20.127 20.0306 20.0231 20.0161 19.9786 19.914C20.0231 19.914 20.0969 19.914 20.1119 19.8556C19.9937 19.8556 19.9198 19.841 19.8454 19.7243C19.8898 19.6951 19.9342 19.6951 19.9643 19.6951C19.9643 19.6513 19.9643 19.6513 19.9342 19.6076C19.8898 19.5784 19.7865 19.4471 19.7565 19.4471C19.7121 19.4034 19.6532 19.3742 19.6532 19.3742L19.5938 19.3888L19.5644 19.2429C19.4905 19.2721 19.5349 19.3596 19.4605 19.3888L19.1945 19.097V18.9803C19.1945 18.9074 19.2683 18.9366 19.2827 18.9366C19.2683 19.0533 19.1501 19.0241 19.3716 19.1554L19.3866 19.0678C19.3866 18.922 19.2089 18.9074 19.2089 18.7907H19.1945C19.1945 18.7761 19.2089 18.7469 19.2089 18.7323C19.1795 18.7469 19.1644 18.7178 19.135 18.7031C19.12 18.7031 19.12 18.7031 19.1056 18.6886H19.0906V18.6302C18.9573 18.6302 18.9129 18.4989 18.854 18.426C18.7207 18.2218 18.558 18.0175 18.3653 17.8571C18.3502 17.7987 18.2764 17.7112 18.1287 17.5361C18.0542 17.4632 18.6463 17.9008 18.6169 17.8425C18.4986 17.6528 19.4461 17.8571 19.4461 17.8571L19.1795 17.6528C19.2389 17.6383 19.1645 17.4048 19.1645 17.3756V17.3319L19.0906 17.3903V17.3465L18.9867 17.4194H18.9723C18.9723 17.3319 19.0017 17.2736 19.0612 17.2298H19.0462C18.9867 17.2298 18.9723 17.1568 19.0311 17.1568C19.0612 17.1568 19.0756 17.2006 19.0612 17.2152L19.1501 17.1714L19.1645 17.259H19.2239C19.2239 17.3173 19.2533 17.3611 19.2978 17.4486H19.2389L19.2827 17.6236C19.3572 17.6236 19.3572 17.4486 19.3422 17.3756C19.3422 17.259 19.2978 17.2152 19.2827 17.0985H19.3272V17.0693H19.2683L19.0906 16.9964L19.0311 17.0401C19.0311 16.9672 18.9723 16.9672 18.9573 16.9672C18.854 16.9672 18.839 16.9672 18.839 17.0401L18.854 17.0839L18.839 17.1131C18.839 17.1131 18.7652 17.0985 18.7207 17.0547L18.6763 17.011L18.7207 16.938C18.7207 16.9818 18.7652 16.9818 18.7946 16.9818L18.7796 16.8943H18.824C18.839 16.8797 18.839 16.7776 18.839 16.7338C18.839 16.7338 18.824 16.6754 18.7796 16.6754H18.7502L18.7351 16.5588C18.7351 16.5588 18.8096 16.6317 18.824 16.6171L18.9279 16.5733C18.824 16.4858 18.7351 16.515 18.6169 16.515C18.6169 16.442 18.6463 16.442 18.6319 16.3837C18.5874 16.3108 18.543 16.2816 18.4835 16.2816C18.4835 16.2961 18.5136 16.3983 18.5724 16.3983C18.4986 16.4566 18.4541 16.515 18.4247 16.5733L18.3803 16.5296L18.3058 16.5733L18.2614 16.5879H18.2169C18.3803 16.515 18.4541 16.4566 18.4391 16.2816C18.3653 16.2816 18.2026 16.2378 18.1731 16.2232L18.1581 16.1065L17.9954 16.1211V16.019L18.0843 16.0044V15.9898C18.0398 15.9461 17.9654 15.9315 17.9654 15.9315L17.8027 16.0044C17.8027 16.0044 17.7883 16.0044 17.7582 16.019C17.8327 15.9898 17.7883 15.8877 17.8621 15.8877V15.8439C17.8621 15.8001 17.8471 15.7564 17.8327 15.7272C17.8621 15.7126 17.8471 15.6543 17.8327 15.6543C17.8027 15.6543 17.8027 15.6688 17.8027 15.6835C17.6994 15.6105 17.5361 15.6543 17.5217 15.4793L17.4478 15.5376C17.3289 15.5376 17.2256 15.3771 17.2106 15.3042L17.1512 15.3188C17.1512 15.2458 17.1956 15.1437 17.0773 15.1583C17.0773 15.1291 17.0629 15.0853 17.1368 15.0853C17.1368 15.0708 17.1074 15.0124 17.0629 15.0124L16.9885 15.0853C17.0185 15.0124 16.944 15.0124 16.944 14.9541H17.0185V14.8957H17.0035C17.0035 14.8373 17.0479 14.8082 17.0035 14.7206C16.8996 14.6769 16.8408 14.7206 16.8107 14.779L16.7813 14.7936L16.6924 14.7353H16.7813V14.6769C16.7369 14.6623 16.648 14.5602 16.648 14.5602L16.5742 14.6331L16.4853 14.5602L16.5591 14.5164L16.5297 14.4289C16.5742 14.3997 16.6036 14.3706 16.5892 14.3268C16.5742 14.2393 16.367 14.2538 16.3964 14.3997C16.3226 14.3706 16.0416 14.1226 16.0115 14.0934C15.9671 14.0496 15.8638 13.9329 15.8782 13.8891C15.8933 13.8891 15.9083 13.9038 15.9227 13.9038H15.9377C15.9377 13.9183 15.9671 13.9329 15.9821 13.9621L15.9971 13.9767L16.056 14.0496C16.0416 14.0642 16.0416 14.0934 16.056 14.1226C16.071 14.1371 16.1154 14.1371 16.1448 14.1226C16.1893 14.1663 16.2187 14.1809 16.2187 14.1663C16.2187 14.1518 16.2043 14.1371 16.1743 14.108C16.1893 14.108 16.2043 14.0934 16.2187 14.0788C16.2043 13.9913 16.1298 13.9767 16.0854 14.0204L16.056 13.9913C16.1004 13.9767 16.1298 13.8891 16.0854 13.86C16.0416 13.8454 15.9971 13.8746 15.9821 13.9183C15.9671 13.9038 15.9527 13.9038 15.9527 13.8891C16.0266 13.8746 16.0266 13.8454 16.1154 13.8162C16.1448 13.787 16.1599 13.7578 16.1743 13.7287C16.1743 13.7724 16.2043 13.7724 16.2043 13.7287C16.2043 13.7141 16.1893 13.6995 16.1893 13.6995V13.6411C16.1893 13.4807 15.9971 13.3786 15.8044 13.3931C15.7894 13.4369 15.8044 13.4807 15.8044 13.5391H15.7894C15.775 13.5098 15.7449 13.4953 15.7305 13.4807L15.8044 13.3786C15.8638 13.3786 15.8782 13.3786 15.9227 13.3202H15.8638L15.8194 13.3494C15.8488 13.2911 15.8638 13.2327 15.8488 13.1598C15.7155 13.1306 15.479 13.2618 15.4195 13.4223L15.183 13.2181C15.2124 13.2181 15.2418 13.2035 15.2568 13.1743C15.2862 13.1743 15.2862 13.1598 15.2862 13.1451C15.3012 13.116 15.3012 13.0868 15.3012 13.0576H15.4934C15.479 12.9409 15.2862 12.9409 15.3306 12.868L15.0941 12.6783C15.1235 12.6346 15.1085 12.5763 15.0496 12.5179C15.0052 12.5179 14.9758 12.5325 14.9458 12.5471C14.6942 12.3283 14.3982 12.0948 14.3687 12.124L13.9983 11.7739L13.9244 11.7885C13.8212 11.7885 13.7323 11.3654 13.5395 11.4968L13.4507 11.4092C13.88 10.8403 14.3093 10.2713 14.7092 9.70243C14.7386 9.70243 14.783 9.68781 14.8275 9.64409C14.8125 9.57112 14.8425 9.51278 14.8275 9.43982C14.9013 9.33774 14.9608 9.25017 14.9758 9.19182L14.768 9.45443C14.7092 9.45443 14.6648 9.39609 14.5909 9.45443C14.5465 9.49816 14.5465 9.6003 14.6053 9.65864C14.3537 9.93581 14.1172 10.213 13.8355 10.4172C13.8506 10.3151 13.8356 10.2713 13.9394 10.1401C13.9538 10.1546 13.9839 10.1546 14.0133 10.1401C13.9545 10.1109 14.0133 10.0671 14.0427 10.0379L14.7536 9.16265C14.8125 9.19182 14.8719 9.19182 14.9013 9.19182C14.9458 9.11892 14.9314 9.04596 14.9013 8.973L15.1085 8.725C15.1085 8.79796 15.1679 8.87092 15.2274 8.91465C15.183 8.95844 15.1235 9.00217 15.1085 9.04596C15.1679 8.98761 15.2274 8.94382 15.2568 8.98761C15.2718 9.04596 15.1829 9.11892 15.1529 9.17726C15.2568 9.08975 15.3457 8.98761 15.4195 8.9001C15.4489 8.87092 15.479 8.84175 15.4934 8.79796C15.6417 8.60831 15.76 8.43328 15.8933 8.24362C15.6711 8.41866 15.6123 8.56458 15.4934 8.725C15.479 8.68127 15.4489 8.63748 15.4045 8.62293C15.6123 8.44783 15.8044 8.24362 15.8933 8.05397L15.8044 8.14149C15.8044 8.06859 15.7305 7.99563 15.6567 8.01024L15.8338 7.76222C15.4345 8.14149 15.1679 8.56458 14.8425 8.92927C14.8275 8.91465 14.7981 8.9001 14.783 8.9001C14.9608 8.63748 15.1679 8.37493 15.3607 8.11232C15.3901 8.11232 15.4045 8.09776 15.4195 8.06859V8.05397L15.9083 7.44129L16.2631 6.98907C16.2932 7.04742 16.382 7.07659 16.4114 6.97447C16.4114 6.95989 16.367 6.93072 16.3376 6.91612L16.367 6.87237V6.93072C16.4409 6.84319 16.6036 6.72648 16.6336 6.60978L16.382 6.85777C16.4853 6.72648 16.5892 6.59519 16.7075 6.47849C16.7075 6.49307 16.7075 6.52225 16.7225 6.52225C16.7669 6.52225 16.7813 6.4639 16.7369 6.44932C16.7963 6.37637 16.8552 6.31802 16.9146 6.27426C17.1512 5.82203 17.5805 5.39898 17.9954 4.91758C18.3502 4.52371 18.6763 4.04231 19.0311 3.60467L19.8309 2.61269C19.9048 2.52517 20.1414 2.24799 20.0381 2.3647C18.558 4.07148 17.0923 5.83662 15.7155 7.52882C15.7155 7.52882 15.7011 7.5434 15.7011 7.55799C15.6267 7.51423 15.5822 7.51423 15.5378 7.57258C15.5378 7.63093 15.5678 7.66011 15.6123 7.66011L15.479 7.83517C15.4639 7.82057 15.4345 7.82057 15.4195 7.83517C15.4345 7.84975 15.4345 7.86434 15.4345 7.87892L15.3751 7.96645C15.3457 7.95187 15.3162 7.95187 15.2862 7.95187C15.2418 7.99563 15.2568 8.05397 15.2862 8.08314L15.1085 8.2728C14.9458 8.43328 14.783 8.56458 14.6497 8.69583C14.6942 8.62293 14.7236 8.53541 14.7386 8.43328C14.7981 8.0248 15.0791 7.74764 15.3751 7.48505C15.4489 7.4267 15.5528 7.35377 15.5528 7.22247C15.5234 7.20788 15.5234 7.14953 15.5678 7.14953C15.5972 7.14953 15.6123 7.14953 15.6123 7.17871C15.6267 7.14953 15.6417 7.13494 15.6267 7.10577H15.6861V7.09118H15.6711C15.6711 7.09118 15.6861 7.07659 15.7011 7.07659C15.7449 7.04742 15.76 6.98907 15.76 6.9453C15.775 6.93072 15.76 6.90154 15.7449 6.88695C15.775 6.88695 15.8338 6.84319 15.8933 6.79942C15.9083 6.78484 15.9227 6.78484 15.9227 6.77025C15.9671 6.84319 16.056 6.87237 16.1298 6.79942C16.1298 6.75566 16.1004 6.7119 16.0416 6.66813C16.1298 6.5806 16.2043 6.50767 16.2043 6.4639C16.1893 6.39096 16.2781 6.43472 16.3376 6.31802H16.1893L16.2631 6.24508C16.382 6.20132 16.367 6.12838 16.4409 6.07002L16.3964 6.04085V5.99709L16.4409 5.95332C16.5147 5.92415 16.5892 5.76368 16.5892 5.76368L16.663 5.79286C16.663 5.74909 16.678 5.7345 16.7369 5.67615C16.678 5.6178 16.678 5.63239 16.663 5.63239C16.648 5.51569 16.7669 5.5011 16.8852 5.5011L16.7669 5.44275C16.7813 5.31145 16.8852 5.22392 16.959 5.1364C16.959 5.18017 17.0035 5.18017 17.0035 5.1364C17.0035 5.12182 16.9885 5.10722 16.9741 5.12182C17.0185 5.04887 17.0629 4.99052 17.0629 4.903L16.8702 5.07805C16.8702 4.96135 16.9296 4.83005 16.9146 4.71335C16.7963 4.72794 16.2631 5.41357 16.2187 5.54486H16.2932C16.2337 5.64698 15.9671 5.79286 15.9821 5.90956H16.0854C16.0115 5.95332 15.8933 5.9825 15.8194 5.99709V5.96791C15.8044 5.85121 15.8782 5.79286 15.9671 5.79286C15.9671 5.77827 15.9227 5.71992 15.9227 5.71992C15.9671 5.71992 15.9971 5.69074 16.0416 5.63239C16.056 5.64697 16.056 5.66157 16.071 5.66157C16.1004 5.66157 16.1004 5.60322 16.0854 5.57404C16.1599 5.48651 16.2187 5.3844 16.2781 5.34063L16.056 5.35522C16.2781 5.32604 16.7369 4.96135 16.7225 4.72794C16.7225 4.655 16.5591 4.66959 16.5591 4.55288L16.5447 4.50912C16.5447 4.47994 16.7669 4.18819 16.7669 4.15901L16.6924 4.18819V4.15901C16.678 3.98395 17.1812 3.66302 17.1662 3.45879L16.8107 3.86725H16.7963C16.7963 3.88184 16.7963 3.98395 16.7519 3.98395H16.6924L16.678 3.9256C16.7963 3.86725 16.7813 3.75055 16.7813 3.63385V3.48797C16.7369 3.5609 16.5742 3.8089 16.5147 3.8089L16.071 4.26112L16.0266 4.27572C16.071 4.21736 16.2781 4.01313 16.2781 3.95478C16.2781 3.91102 16.2487 3.89643 16.2043 3.89643C16.2781 3.82349 16.6036 3.4442 16.663 3.37127L16.7669 3.25456C16.5447 3.29832 16.352 3.57549 16.2337 3.72137H16.1893L16.2187 3.66302L16.367 3.45879H16.3376C16.3376 3.45879 16.2631 3.59008 16.2337 3.54632L15.8638 3.9256L15.775 3.94019C15.8194 3.91102 15.9971 3.73596 15.9971 3.67761C15.9971 3.61926 15.9527 3.60467 15.9227 3.60467C15.9971 3.53173 16.056 3.42962 16.1004 3.35667C15.9821 3.4442 15.8488 3.60467 15.8194 3.79432L15.775 3.8089C15.7449 3.8089 15.6567 3.86725 15.6267 3.9256V3.86725C15.5084 3.88184 15.479 3.95478 15.479 4.0569C15.5234 4.0569 15.5234 4.10066 15.479 4.11525V4.0569C15.4639 4.0569 15.4639 4.11525 15.479 4.11525V4.1736C15.3607 4.1736 15.4045 4.18819 15.3457 4.11525L15.3901 3.99854V3.95478H15.3306C15.3457 4.11525 15.1235 4.55289 14.8869 4.56747C14.9013 4.59665 14.9458 4.59665 14.9758 4.59665C14.9608 4.655 14.9163 4.66959 14.8869 4.68417C14.9013 4.69877 14.9013 4.75712 14.8719 4.75712C14.8425 4.75712 14.8275 4.72794 14.8425 4.71335C14.7981 4.72794 14.768 4.75712 14.7981 4.87382L14.7536 4.83005L14.6942 4.88841L14.7236 4.93217V4.96135C14.6497 5.03429 14.5609 5.09264 14.502 5.15099L14.5465 5.19475C14.502 5.31145 14.4276 5.2531 14.3537 5.2531V5.16557C14.2799 5.16557 14.2799 5.2531 14.191 5.26769H14.1172L14.2799 5.16557L14.176 5.10722L14.3831 5.04887L14.4132 5.09264H14.4576L14.487 5.00511V4.96135L14.2204 4.97593C14.2204 4.97593 14.1466 5.10722 14.1021 5.06346L13.9244 5.28228L13.91 5.12182L13.6728 5.35522C13.6878 5.31145 13.7617 5.23852 13.7617 5.19475V5.16557H13.7467C13.7467 5.04887 14.0871 4.91758 13.9688 4.80088L14.4132 4.21736C14.3537 4.24654 14.2949 4.27572 14.2649 4.31947C14.206 4.36324 14.1616 4.42159 14.1172 4.47994V4.49453L14.0577 4.55288C14.0133 4.62582 13.9545 4.68417 13.895 4.74252V4.7717L13.8506 4.81547L13.8656 4.7717C13.8355 4.81547 13.8061 4.83005 13.7767 4.85923C13.8355 4.85923 13.8506 4.93217 13.7911 4.93217C13.7617 4.93217 13.7467 4.90299 13.7467 4.88841L13.5546 5.0197C13.5251 5.06346 13.4807 5.10722 13.4363 5.1364C13.4363 5.18017 13.3618 5.22392 13.3618 5.31145V5.34063L13.4363 5.2531H13.4507C13.4363 5.29687 13.4062 5.36981 13.3618 5.3844H13.3174L13.2729 5.34063C13.2729 5.31145 13.288 5.28228 13.288 5.2531C13.2729 5.31145 13.2435 5.36981 13.2141 5.41357C13.2291 5.44275 13.2585 5.45734 13.288 5.45734L13.2141 5.57404C13.1403 5.63239 12.8737 5.95332 12.8142 6.01167L12.7998 5.96791C12.9325 5.77827 13.0808 5.64697 13.2141 5.5011C12.6665 5.60322 12.7253 6.33261 12.3404 6.5806L12.4149 6.56602L12.2222 6.77025C12.1633 6.72648 11.8079 7.12036 11.719 7.23706V7.22247C11.7484 7.10577 11.704 7.14953 11.7929 7.12036C11.8229 7.04742 11.8667 7.04742 11.8667 6.97447L11.8229 6.98907C11.3341 7.16412 11.5413 7.64552 11.1714 8.0248C10.9937 8.18528 10.4905 9.1043 10.3422 9.1043C9.70573 8.76879 9.00981 8.18528 8.6994 7.93728C8.5661 7.83517 7.84076 7.28082 7.42646 7.32459V7.22247L7.352 7.25165L7.38203 7.14953L7.29316 7.10577V7.20788L7.24873 7.22247C7.21932 7.22247 7.04159 7.12036 6.99715 7.12036C7.04159 7.04742 7.01154 7.00365 6.96711 6.97447C6.99715 6.85777 7.02656 6.77024 6.92268 6.7119C6.74557 6.68272 6.73055 6.79942 6.58222 6.79942C6.56783 6.8286 6.56783 6.84319 6.55281 6.84319L6.2568 6.93072C6.28622 6.90154 6.30124 6.87236 6.30124 6.81401C6.21237 6.72648 6.09408 6.88695 6.18295 6.95989C6.12349 6.97447 6.04965 6.98907 5.96078 6.98907C5.78305 7.00365 5.64975 7.10577 5.56088 7.22247C5.51645 7.23706 5.50205 7.26624 5.47201 7.28082C5.45761 7.23706 5.45762 7.20789 5.41318 7.1933C5.4282 7.09118 5.50206 7.04742 5.51645 6.9453C5.39817 6.95989 5.35373 6.95989 5.22043 6.93072C5.23545 6.88695 5.20604 6.85777 5.176 6.84319C5.1616 6.98907 4.96885 7.09118 4.83555 6.97447C4.71726 7.00365 4.61401 7.04742 4.61401 7.14953C4.61401 7.35377 4.93943 7.29541 4.99889 7.14953C5.07273 7.28082 5.26486 7.41212 5.4426 7.32459C5.45762 7.32459 5.45761 7.33917 5.47201 7.35377L5.35373 7.58717V7.5434C5.25047 7.45588 5.11718 7.5434 5.07274 7.63093C5.11718 7.71846 5.22043 7.73305 5.3093 7.70387C5.25047 7.82057 5.20604 7.89352 5.13157 7.9081C5.01328 7.9081 5.88694 8.30197 5.76866 8.30197C5.76866 8.38949 5.08775 7.9081 5.08775 8.0248C5.11717 8.37493 4.19909 8.46245 4.53953 9.6003L4.6284 9.83374C4.74668 9.89208 5.22043 10.213 5.22043 10.3297C5.23545 10.5631 4.39184 9.92125 4.39184 10.0817L5.20604 10.6215L5.16161 10.6361C5.23546 10.6215 5.4282 10.6215 5.48703 10.7236C5.47201 10.6215 5.51644 10.5923 5.59092 10.5923C5.54648 10.6652 5.62033 10.6652 5.63535 10.7236C5.67978 10.7236 5.75364 10.7236 5.75364 10.709C6.61227 11.132 7.45588 11.6572 8.25506 12.1678C7.67805 13.5536 4.18469 16.7192 4.58397 17.3756C4.53953 17.3903 4.51012 17.434 4.45067 17.4194C4.43627 17.4778 4.40623 17.5215 4.36242 17.5507C4.31799 17.682 4.40624 17.7841 4.52514 17.7695C4.52514 17.8133 4.55456 17.8571 4.55456 17.9154C4.45067 17.9154 4.45067 18.1051 4.56958 18.0467C4.58397 17.8863 4.83554 17.9154 4.92441 17.7841C4.93943 17.7549 4.93943 17.7112 4.91002 17.6966C4.93943 17.6966 4.95445 17.682 4.98387 17.682C4.96885 17.7403 5.01329 17.7841 5.01329 17.8571C5.02831 17.8716 5.04333 17.8863 5.05772 17.8863C5.04333 17.8863 5.0283 17.8863 4.99889 17.9008C4.93943 18.0175 5.05772 18.1051 5.11717 18.0029C5.11717 17.9592 5.11717 17.93 5.08775 17.9008C5.14658 17.93 5.19102 17.9008 5.26486 17.9008V17.9154C5.27988 17.9154 5.2949 17.9008 5.3093 17.9008H5.33934C5.36875 17.9008 5.38377 17.93 5.41318 17.93C5.4426 17.93 5.47201 17.9154 5.50205 17.9154C5.50205 18.0175 5.51645 18.178 5.62034 18.1488C5.64975 18.1196 5.66476 18.0905 5.67978 18.0467C5.67978 18.1051 5.72423 18.0905 5.76866 18.0759C5.78305 18.0467 5.78305 18.0029 5.76866 17.9592C5.72423 17.9883 5.7092 18.0029 5.67978 17.9883V17.9154C5.63535 17.9154 5.62033 17.9008 5.59092 17.8863C5.62033 17.8716 5.64974 17.8425 5.67978 17.8133L5.69418 17.9154C5.72422 17.9008 5.81246 17.9008 5.81246 17.8279H5.76866L5.75364 17.7987L5.79807 17.7549V17.7112L5.76866 17.682C5.78305 17.6674 5.78305 17.6674 5.78305 17.6528H5.79807C5.81247 17.6236 5.81247 17.6091 5.79807 17.5945C5.8569 17.5945 5.87192 17.6383 5.87192 17.682C5.87192 17.7987 5.8425 17.9008 5.8425 17.9883C5.88694 17.9883 5.93137 17.9446 5.96078 17.9008C6.00522 17.93 6.07906 17.93 6.07906 17.9738L6.03463 18.0467H6.07906L6.12349 18.0029C6.12349 18.0029 6.18295 17.93 6.2568 17.8133C6.27182 17.8571 6.28622 17.8863 6.31626 17.8863L6.27181 17.9592H6.2568C6.24178 17.9592 6.24178 17.9738 6.24178 17.9883C6.18295 18.0905 6.13851 18.1634 6.13851 18.178L6.16794 18.2801C6.16794 18.3239 6.15354 18.3531 6.15354 18.3968C6.15354 18.4114 6.22738 18.4843 6.27181 18.4698L6.34567 18.4551V18.5718L6.33065 18.5573C6.31625 18.5865 6.33065 18.6156 6.34567 18.6156C6.36069 18.6011 6.36069 18.5865 6.36069 18.5865C6.36069 18.5573 6.37508 18.4698 6.46395 18.4698C6.47897 18.4698 6.53779 18.4551 6.53779 18.4989L6.47897 18.5865L6.53779 18.5718C6.59725 18.5718 6.62666 18.5573 6.67109 18.5573L6.6567 18.4989V18.4551C6.73055 18.4698 6.79 18.4989 6.83443 18.5427L6.9377 18.4843C6.99715 18.426 6.99715 18.3822 7.05598 18.3385C7.13045 18.2801 7.2043 18.1926 7.26313 18.1051H7.32258V18.0467C7.35199 18.0467 7.38204 18.0321 7.41145 18.0175C7.55977 17.8279 7.70746 17.682 7.91461 17.5799C7.92963 17.5653 7.92963 17.5215 7.94403 17.4923C8.1662 17.2881 8.31452 17.0547 8.50665 16.8213C8.55108 16.763 8.59551 16.7192 8.66936 16.69C8.68438 16.6754 8.68438 16.6171 8.6994 16.6025L8.89152 16.442C8.75822 16.8213 8.04791 17.5507 7.90022 17.8571C7.72248 17.8863 7.36702 18.4551 7.39643 18.4698C7.66303 18.6156 7.92963 18.0029 8.01849 17.9883C8.07732 17.9154 8.4622 17.3756 8.58111 17.2881C8.58111 17.3903 8.44781 17.507 8.43279 17.6091C8.31451 17.6674 8.09235 18.0905 8.18121 18.0905C8.19623 18.1488 8.56609 17.5653 8.56609 17.6236C8.69939 17.5215 8.53668 17.9883 8.84709 17.6966C8.87713 17.6674 8.90654 17.6236 8.95098 17.5945C8.93596 17.5799 8.92156 17.5507 8.93596 17.5361C8.93596 17.4923 8.93595 17.4486 9.0098 17.4194C8.99541 17.3756 9.05423 17.3319 9.06925 17.3027C9.17314 17.1568 9.35025 17.0693 9.49857 16.938C9.52799 16.9088 9.52799 16.8651 9.57242 16.8505C9.97232 16.5733 10.0318 16.2232 10.2683 15.8877L10.2533 15.8731L10.3866 15.7126C10.3866 15.7126 10.3722 15.6981 10.3722 15.6835C10.5199 15.4793 10.7865 15.3333 10.9342 15.1437C11.0381 15.0124 11.1858 14.7498 11.3635 14.5748L11.438 14.4873L11.5119 14.5456C11.5119 14.5164 11.5119 14.4726 11.5563 14.4726C11.5857 14.4726 11.6007 14.5456 11.5563 14.5456H11.5413C11.8079 14.7353 12.1189 15.027 12.2071 15.1145H12.1633L12.0889 15.0999C12.1039 15.2313 12.2516 15.3479 12.3849 15.3333L12.4594 15.3188L12.5332 15.3771L12.4737 15.4501L12.5776 15.4063H12.592C12.7109 15.3917 12.8442 15.6688 13.0213 15.6835V15.6543C13.0213 15.6397 12.9769 15.5959 12.9625 15.5813H13.0213C13.1991 15.5668 13.3618 15.7564 13.584 15.7418C13.599 15.9315 13.6434 15.9315 13.8656 15.9461L13.7911 15.9898C13.8356 15.9898 13.8506 16.0336 13.8506 16.0628C13.9688 16.0773 13.9839 16.1211 14.0133 16.1648C14.0133 16.1503 14.0283 16.1357 14.0427 16.1357C14.0577 16.1357 14.0577 16.2086 14.0427 16.2086C14.0871 16.2378 14.1466 16.2378 14.2799 16.2086L14.2505 16.2816L14.191 16.3399C14.191 16.3983 14.2949 16.442 14.2949 16.442C14.3093 16.442 14.3687 16.442 14.3687 16.4274V16.515C14.3831 16.515 14.487 16.4274 14.487 16.4274L14.502 16.442V16.5004L14.487 16.515L14.4576 16.5733C14.4276 16.6025 14.3831 16.6317 14.3387 16.6317H14.3243L14.3093 16.6171H14.2949C14.2949 16.5879 14.2949 16.5588 14.2799 16.5588C14.3093 16.5441 14.2799 16.5004 14.2505 16.5004ZM14.206 4.78629V4.83005C14.2505 4.78629 14.3243 4.71335 14.3687 4.71335C14.3982 4.71335 14.472 4.72794 14.5164 4.72794C14.472 4.7717 14.3982 4.78629 14.3982 4.85923L14.4132 4.903C14.4426 4.85923 14.5909 4.72794 14.6354 4.61124V4.69877C14.6354 4.81547 14.5909 4.81547 14.5759 4.88841L14.783 4.64041V4.59665L14.7386 4.56747L14.8869 4.33407C14.9013 4.34865 14.9608 4.31947 15.0196 4.26112C15.0052 4.27572 15.0052 4.27572 15.0346 4.27572C15.0497 4.27572 15.0496 4.27572 15.0496 4.24654L15.0346 4.23195C15.2418 4.01313 15.5528 3.53173 15.5528 3.45879C15.4489 3.5609 15.3457 3.86725 15.1529 3.88184H15.1385C15.1529 3.83807 15.2418 3.75055 15.2568 3.64843C15.0791 3.76514 14.6792 4.11525 14.6792 4.30489L14.6942 4.34865L14.7536 4.2903C14.7386 4.49453 14.6203 4.34865 14.5759 4.50912C14.5759 4.5383 14.5609 4.655 14.5609 4.655H14.5164L14.502 4.58206C14.3831 4.59665 14.206 4.66959 14.206 4.78629ZM15.6861 16.4712C15.6417 16.5004 15.6417 16.5588 15.7155 16.5879L15.775 16.5441L15.9083 16.6608L16.367 17.0839C16.5742 17.2443 16.8257 17.4486 16.7963 17.4486C16.7669 17.4486 16.7225 17.434 16.678 17.4048L16.7813 17.5507C16.7963 17.5507 16.7963 17.5361 16.8257 17.5361C16.8552 17.5361 16.8552 17.5799 16.8257 17.5799H16.8107V17.5945C16.7369 17.5215 16.663 17.434 16.5742 17.3611C16.3376 17.2152 16.1448 16.9672 16.1298 16.9234C15.9821 16.7921 15.8338 16.6754 15.6711 16.5733C15.6567 16.6171 15.7305 16.6317 15.7155 16.6608C15.5822 16.5879 15.4345 16.4274 15.3306 16.3983C15.3751 16.442 15.4639 16.4858 15.4639 16.5588C15.3607 16.4712 15.2718 16.3691 15.1973 16.2232C15.2718 16.2378 15.3162 16.2961 15.3901 16.3253C15.3162 16.2232 15.2124 16.1503 15.1235 16.0919C15.1235 16.1357 15.1679 16.194 15.1235 16.2232C15.1085 16.194 15.0052 16.1503 15.0052 16.0481C15.0346 16.0919 15.064 16.1357 15.1085 16.1065C15.0346 16.0336 14.9608 15.9461 14.8719 15.8731C14.8719 15.8439 14.8719 15.8148 14.8425 15.7856C15.1529 16.019 15.4345 16.267 15.6861 16.4712ZM13.8061 9.90664C13.7022 9.89208 13.5696 9.9796 13.6434 10.0963L13.4213 10.3297C13.4363 10.2713 13.4507 10.213 13.4807 10.1838L13.5251 10.1109H13.5546C13.5696 10.0963 13.5546 10.0671 13.5546 10.0525C13.6134 9.92125 13.6434 9.77533 13.7173 9.62947C13.8061 9.77533 14.0133 9.55657 13.8355 9.45443L13.7467 9.48361C13.7467 9.46899 13.7467 9.45443 13.7617 9.43982C13.9688 9.26478 14.206 9.17726 14.4132 8.98761C14.3982 9.01679 14.3831 9.0314 14.3831 9.04596C14.4426 9.01679 14.5315 8.9001 14.5609 8.91465C14.472 9.06058 14.3687 9.19182 14.2649 9.33774C14.2649 9.25017 14.1616 9.19182 14.0871 9.29395C14.0727 9.3523 14.1316 9.42526 14.206 9.41064L14.1316 9.49816C14.1021 9.48361 14.0577 9.49816 13.9983 9.52733C13.9839 9.57112 13.9983 9.61491 14.0133 9.65864C13.9394 9.7316 13.88 9.81912 13.8061 9.90664ZM12.0889 14.0058C12.0745 13.9767 12.0444 13.9329 12.0444 13.9038L12.1633 13.8454C12.2071 13.8454 12.2666 13.86 12.311 13.8891C12.2222 13.9038 12.1483 13.9183 12.1483 13.9913C12.1777 14.108 12.4293 14.035 12.3261 13.9038C12.4149 13.9475 12.4888 14.0204 12.5626 14.0788C12.6221 14.1226 12.6809 14.1663 12.7404 14.1955C12.6365 14.3414 12.8292 14.604 12.9475 14.3997C12.9625 14.3997 12.9625 14.3706 12.9625 14.356L13.1847 14.5164C13.1403 14.5748 13.1102 14.6477 13.1102 14.7206L12.0889 14.0058ZM4.06578 18.1196H4.05139C4.09583 18.0467 4.02197 17.9154 3.9331 18.0321C3.9331 18.1051 3.9475 18.1488 3.99194 18.1488L3.88867 18.1926C3.74035 18.3531 3.8142 18.6302 3.99194 18.6156C4.02198 18.6156 4.06578 18.5718 4.11022 18.5865C4.12524 18.4989 4.19908 18.4114 4.19908 18.3093C4.19908 18.1634 4.09582 18.2072 4.06578 18.1196ZM15.9821 12.6929C15.9227 12.2845 15.3751 12.5616 15.5528 12.8388C15.6567 12.9847 15.9377 12.8972 15.9821 12.6929ZM3.69592 18.6011C3.6809 18.5427 3.63709 18.5281 3.62207 18.4989C3.6809 18.4114 3.62208 18.2655 3.50379 18.3676C3.50379 18.4114 3.48877 18.4406 3.50379 18.4843C3.45936 18.5135 3.44434 18.5718 3.42932 18.6302C3.37049 18.6594 3.35548 18.7031 3.32606 18.7615C3.32606 18.9366 3.39991 19.0241 3.54823 18.9949C3.62208 18.9511 3.59266 18.8198 3.62207 18.7323C3.65149 18.674 3.69592 18.6594 3.69592 18.6011ZM14.6942 11.5697C14.7981 11.3508 14.6648 11.0591 14.3687 11.1028C14.2799 11.2925 14.3831 11.628 14.6942 11.5697ZM18.2026 19.666C18.1581 19.6806 18.1287 19.6951 18.1581 19.7389C18.0987 19.7243 18.0693 19.666 18.0248 19.6514C18.0248 19.6222 18.0693 19.6368 18.0693 19.593C17.8765 19.3742 17.6399 19.2721 17.4328 19.0678C17.4034 19.0387 17.4178 19.1262 17.3589 19.097C17.24 19.0387 17.1812 18.8345 17.0773 18.7323C17.0185 18.7469 17.1218 18.8345 17.0479 18.849C16.9885 18.8053 17.0185 18.7178 17.0185 18.674V18.6594H17.0923C17.2256 18.7615 17.3439 18.8782 17.4622 18.9803C17.7438 19.2138 18.0248 19.4763 18.2764 19.7389C18.232 19.7535 18.217 19.7097 18.2026 19.666ZM4.55456 18.0905C4.51012 18.0759 4.51012 18.1343 4.46569 18.1343C4.42126 18.1488 4.42125 18.1196 4.39184 18.1343C4.36242 18.1488 4.33238 18.1926 4.30297 18.1926C4.27356 18.2655 4.28795 18.3385 4.31799 18.3822C4.3474 18.3968 4.37682 18.3968 4.42126 18.3822C4.40624 18.426 4.40624 18.4698 4.42126 18.5281H4.53953C4.61401 18.4698 4.56958 18.3238 4.52514 18.3093H4.51012C4.51012 18.2947 4.52514 18.2801 4.52514 18.2655C4.56958 18.2509 4.58397 18.2218 4.59899 18.1926C4.59899 18.1343 4.59899 18.0905 4.55456 18.0905ZM5.90133 6.7119C5.87191 6.65354 5.8425 6.5806 5.78305 6.55142C5.7092 6.63895 5.51644 6.63895 5.53146 6.78484C5.56088 6.9453 5.88693 6.91612 5.90133 6.7119ZM12.3999 6.36179C12.4443 6.36179 12.4443 6.28884 12.3999 6.28884C12.5038 6.14297 12.607 5.96791 12.6515 5.85121C12.4594 6.14297 12.0595 6.44932 12.0444 6.69731V6.74107C12.0745 6.7119 12.2372 6.52225 12.3849 6.30343C12.3849 6.31802 12.3849 6.36179 12.3999 6.36179ZM15.6861 8.25824C15.5528 8.37493 15.4345 8.49162 15.3751 8.60831C15.3162 8.57914 15.2568 8.56458 15.1973 8.59375L15.5528 8.12693C15.5822 8.18528 15.6267 8.24362 15.6861 8.25824ZM6.3901 17.7841C6.36069 17.7549 6.33065 17.7403 6.30124 17.7549C6.58223 17.3756 7.10041 16.6608 7.11543 16.6608C7.11543 16.7046 6.6711 17.3465 6.3901 17.7841ZM14.4132 10.9132C14.487 10.8695 14.5315 10.8111 14.5164 10.6944C14.472 10.6506 14.4132 10.6068 14.2949 10.6215C14.191 10.709 14.2505 10.957 14.4132 10.9132ZM17.3145 4.36324L17.2256 4.31947C17.2256 4.2903 17.24 4.24654 17.24 4.21736C17.1812 4.27572 17.1074 4.23195 17.0329 4.33407H17.0773C17.0923 4.33407 17.1218 4.30489 17.1368 4.2903C17.1218 4.39242 17.0329 4.43618 17.0329 4.52371H17.0773L17.1662 4.58206H17.2106C17.2845 4.5383 17.3145 4.46536 17.3145 4.39242V4.36324ZM13.8211 16.3399H13.8061V16.3108C13.8061 16.3253 13.8211 16.3253 13.8211 16.3399C13.8061 16.2816 13.7767 16.2524 13.7467 16.2232H13.7617C13.7767 16.2232 13.7911 16.2086 13.7911 16.194C13.8061 16.2232 13.8355 16.2524 13.8656 16.2816C13.8656 16.3108 13.88 16.3399 13.895 16.3399C13.91 16.3399 13.91 16.3253 13.9244 16.3108C13.9244 16.3253 13.9394 16.3253 13.9544 16.3399L13.9244 16.2961C13.9244 16.267 13.91 16.2378 13.88 16.2378C13.8355 16.1503 13.7767 16.0773 13.7022 16.0481L13.7467 16.1357C13.7323 16.1503 13.7323 16.194 13.7467 16.2232C13.6728 16.1503 13.584 16.1211 13.5395 16.0044C13.5395 15.9898 13.5545 15.9898 13.584 15.9898C13.5545 15.9752 13.5395 15.9606 13.5395 15.9461C13.5395 15.9606 13.5395 15.9898 13.5101 15.9898C13.4657 16.0044 13.4507 15.9461 13.4062 15.9315C13.4363 15.9898 13.4657 16.0336 13.4951 16.0628C13.4507 16.0628 13.4507 16.1503 13.4951 16.1503C13.5101 16.1503 13.5251 16.0919 13.5101 16.0773L13.5546 16.1211C13.5395 16.1357 13.5395 16.194 13.5696 16.194C13.599 16.194 13.6134 16.1648 13.599 16.1503C13.6134 16.1503 13.6134 16.1648 13.6284 16.1648C13.599 16.194 13.6134 16.2378 13.6434 16.2378C13.6578 16.2378 13.6728 16.2232 13.6728 16.2086L13.7022 16.2378H13.6879C13.6578 16.2378 13.6728 16.3108 13.7022 16.3108C13.7323 16.2961 13.7323 16.267 13.7173 16.2524L13.7767 16.2961C13.7467 16.2961 13.7467 16.3545 13.7767 16.3545C13.7911 16.3545 13.7911 16.3545 13.8061 16.3399C13.7767 16.3545 13.7767 16.4128 13.8211 16.4128C13.8656 16.4128 13.8656 16.3399 13.8211 16.3399ZM13.8211 15.0124C13.8061 15.0124 13.7911 15.0124 13.7767 15.027L13.8211 14.9978C13.9983 15.1145 14.1616 15.2458 14.3387 15.3771C14.2799 15.3625 14.191 15.3917 14.191 15.4793L14.1616 15.4501C14.1316 15.4063 14.1466 15.3771 14.1466 15.3479C14.0871 15.3188 14.0283 15.275 13.9688 15.2313C13.9839 15.2313 13.9839 15.2166 13.9839 15.2166C13.9545 15.1291 13.895 15.1291 13.8506 15.1729C13.8211 15.1729 13.8061 15.1583 13.7911 15.1583C13.8356 15.1583 13.88 15.0562 13.8211 15.0124ZM16.2781 7.95187C16.2187 7.9081 16.2631 7.83517 16.2487 7.77681C16.1448 7.74764 16.056 7.73305 15.9821 7.84975C16.0115 7.99563 16.1893 7.98104 16.2781 7.95187ZM17.9209 15.0416C17.8621 14.9978 17.7732 14.9541 17.6694 15.027C17.6694 15.0708 17.6399 15.1145 17.6694 15.1875C17.7582 15.2458 17.951 15.1583 17.9209 15.0416ZM17.4922 18.0321C17.4478 18.0759 16.9146 17.6674 16.944 17.6383C17.0035 17.6236 17.5511 18.0175 17.4922 18.0321ZM14.5164 9.86291C14.3387 10.1401 14.1466 10.4172 13.88 10.6944C14.0577 10.4172 14.2649 10.1401 14.5164 9.86291ZM15.4639 3.82349V3.88184C15.5678 3.85267 15.7305 3.63385 15.7305 3.54632C15.6123 3.60467 15.4489 3.6922 15.4639 3.82349ZM17.3439 3.53173L16.8852 4.02772C17.0035 3.98395 17.3439 3.72137 17.3439 3.54632V3.53173ZM15.1973 12.5908C15.2124 12.6346 15.2418 12.6783 15.2718 12.7075C15.2274 12.7075 15.2418 12.7951 15.2862 12.7951C15.3162 12.7951 15.3162 12.7221 15.2862 12.7075C15.5678 12.6492 15.2718 12.372 15.1973 12.5908ZM4.82115 18.1926C4.83555 18.1488 4.82116 18.0467 4.77672 18.0321C4.73229 18.0175 4.68786 18.0613 4.64342 18.0905C4.6284 18.1488 4.65844 18.2218 4.67283 18.2801C4.73229 18.2801 4.80613 18.2363 4.82115 18.1926ZM7.18928 6.04085L7.30756 6.0992C7.3376 6.07002 7.39643 6.05544 7.39643 5.9825C7.36702 5.93874 7.30756 5.92415 7.27814 5.90956C7.27814 5.82203 7.2043 5.83662 7.15986 5.88038C7.14484 5.96791 7.23371 5.95332 7.18928 6.04085ZM7.01154 6.4639C6.95272 6.42014 6.83444 6.43472 6.8044 6.49307C6.71553 6.66813 7.08602 6.68272 7.01154 6.4639ZM5.51645 18.5281C5.51645 18.4698 5.47201 18.5135 5.38377 18.4698C5.33934 18.4406 5.35373 18.3385 5.26486 18.4114C5.23545 18.4698 5.27988 18.5427 5.3093 18.5718C5.35373 18.5573 5.38377 18.5281 5.39816 18.5718C5.39816 18.6156 5.38377 18.6302 5.41318 18.6594C5.47201 18.6302 5.53147 18.5865 5.51645 18.5281ZM6.21237 18.1634C6.19735 18.1634 6.22738 18.1051 6.27181 18.0321C6.28621 18.0175 6.28621 18.0175 6.28621 18.0029C6.40512 17.8425 6.59724 17.5945 6.62666 17.5945C6.67109 17.5945 6.2568 18.1488 6.21237 18.1634ZM16.7519 13.6703C16.7225 13.6703 16.7075 13.6703 16.6924 13.6411C16.5892 13.6703 16.5297 13.7141 16.5742 13.8162C16.6336 13.9038 16.8257 13.8016 16.7519 13.6703ZM16.7225 4.49453C16.7075 4.49453 16.663 4.47994 16.663 4.43618C16.648 4.47994 16.6036 4.55288 16.6186 4.58206V4.61124H16.678L16.7369 4.655H16.7963C16.8408 4.655 16.8551 4.58206 16.8408 4.5383L16.7963 4.58206L16.8257 4.45077C16.8107 4.47994 16.7669 4.49453 16.7225 4.49453ZM14.3687 15.5084C14.3831 15.4793 14.3982 15.4501 14.3831 15.4355V15.4209L14.8275 15.771H14.7386C14.6203 15.6688 14.487 15.5813 14.3687 15.5084ZM16.648 17.1568C16.6186 17.1568 16.0266 16.6171 16.056 16.6171C16.1004 16.6171 16.6924 17.1423 16.648 17.1568ZM4.895 18.2072C4.87998 18.2947 4.93944 18.3822 4.96885 18.4406C5.01329 18.4406 5.02831 18.4114 5.05772 18.3822C5.04333 18.2801 5.01328 18.1196 4.895 18.2072ZM16.1743 3.28374C16.3226 3.15245 16.4265 2.9628 16.5147 2.80234H16.5003L16.1448 3.23997L16.1743 3.28374ZM16.1298 3.95478H16.1743L16.2043 4.01313L15.9083 4.27572C15.9083 4.20277 16.0854 3.95478 16.1298 3.95478ZM13.6434 16.4274C13.584 16.3691 13.4951 16.3108 13.4213 16.2378C13.3768 16.2086 13.2141 16.0336 13.2729 16.1065C13.5101 16.3983 13.8212 16.5733 14.1316 16.8943C13.9983 16.6754 13.8061 16.5733 13.6434 16.4274ZM4.82115 17.6966C4.74668 17.6674 4.68786 17.6528 4.58397 17.6966L4.70288 17.5945C4.68786 17.4923 4.6284 17.4923 4.61401 17.4194C4.64342 17.4486 4.68785 17.4632 4.73229 17.4778C4.77672 17.4778 4.74668 17.6383 4.74668 17.6383L4.80613 17.682V17.5215C4.82115 17.5215 4.82115 17.507 4.83555 17.507C4.83555 17.4778 4.83555 17.4632 4.82115 17.4486C4.82115 17.434 4.83555 17.4194 4.85057 17.4194C4.85057 17.4194 4.86559 17.4632 4.895 17.507C4.87998 17.507 4.86559 17.507 4.85057 17.5215C4.80613 17.5799 4.82115 17.6383 4.86559 17.6674C4.85057 17.6674 4.83555 17.682 4.82115 17.6966ZM13.3618 15.9461L13.0808 15.7272H13.0364L13.0958 15.8001V15.8439L13.0364 15.8001C13.0658 15.9168 13.2729 15.9315 13.3618 15.9752V15.9461ZM15.7305 12.2407C15.8194 12.3283 15.9527 12.2261 15.9083 12.1094C15.8194 12.0803 15.6861 12.1386 15.7305 12.2407ZM4.53953 18.7178C4.36243 18.7178 4.40624 18.9511 4.51012 18.9074C4.59899 18.8782 4.61401 18.7615 4.53953 18.7178ZM4.02198 19.6951C4.06579 19.6513 4.05139 19.5784 4.03637 19.5201C3.85864 19.4618 3.85864 19.8264 4.02198 19.6951ZM6.02024 18.3968C5.96078 18.5427 6.07906 18.6156 6.18295 18.5427C6.16793 18.426 6.1091 18.3822 6.02024 18.3968ZM4.77672 18.4114C4.73229 18.4698 4.7617 18.5718 4.80613 18.5865C4.92441 18.5718 4.92441 18.4406 4.87998 18.3822C4.83554 18.4114 4.83555 18.3968 4.77672 18.4114ZM6.27181 6.56602C6.21236 6.56602 6.15354 6.55142 6.1091 6.52225C6.09408 6.5806 6.07906 6.65354 6.12349 6.69731C6.22738 6.7119 6.28621 6.66813 6.27181 6.56602ZM16.1893 12.8388C16.1004 12.868 16.071 12.9118 16.0854 12.9847C16.1893 13.0868 16.3376 12.8826 16.1893 12.8388ZM13.8061 5.36981L13.599 5.69074C13.599 5.7345 13.599 5.79286 13.584 5.79286L13.5395 5.69074C13.5696 5.60322 13.7022 5.42816 13.8061 5.36981ZM6.37508 6.59519C6.44955 6.5806 6.50838 6.53684 6.49399 6.44932C6.41952 6.36179 6.28622 6.47849 6.34567 6.5806C6.36069 6.5806 6.37508 6.5806 6.37508 6.59519ZM18.7652 20.5121C18.6018 20.3808 18.4391 20.2495 18.3058 20.0744C18.4692 20.1911 18.6319 20.337 18.7652 20.5121ZM16.9146 4.68417C16.9741 4.71335 16.944 4.87382 17.0479 4.87382L17.0329 4.64041C16.9741 4.64041 16.9146 4.64041 16.9146 4.68417ZM15.5084 4.91758C15.5084 4.99052 15.4489 5.07805 15.3901 5.07805H15.3306L15.4045 4.99052H15.3163C15.3306 4.91758 15.4489 4.91758 15.5084 4.91758ZM14.176 11.8323V11.7739C14.1616 11.7739 13.8506 11.5113 13.8355 11.5113C13.8355 11.5259 14.1172 11.8176 14.1172 11.8176L14.176 11.8323ZM17.0923 13.8308C17.0479 13.8162 16.9741 13.8454 16.944 13.8746C16.959 14.0496 17.2106 13.9329 17.0923 13.8308ZM13.0514 6.25967C13.0514 6.30343 13.0658 6.37637 13.0658 6.37637L13.0213 6.42014C12.9919 6.42014 12.7698 6.68272 12.7253 6.74107L13.0514 6.25967ZM5.08775 18.4698C5.07273 18.5573 4.95446 18.7178 5.11717 18.674C5.13157 18.6011 5.19102 18.5135 5.13157 18.4551C5.11717 18.4551 5.10215 18.4698 5.08775 18.4698ZM17.7883 16.0773H17.8027C17.8765 16.0773 17.9804 16.194 18.0098 16.2378C17.9065 16.2378 17.8177 16.1503 17.7288 16.1357L17.7883 16.0773ZM16.8257 3.09409C16.8852 3.0795 16.959 3.0795 17.0035 2.9628H16.959L16.8852 3.00657V2.9628C16.8702 2.93362 16.8702 2.90445 16.9146 2.88986C16.8107 2.91904 16.8257 3.06492 16.7519 3.09409H16.8257ZM17.1218 19.097C17.2845 19.0095 17.4328 19.2721 17.5805 19.4034C17.3884 19.3888 17.3145 19.0387 17.1218 19.097ZM17.3439 15.6543L17.4178 15.7272V15.6543C17.4772 15.6397 17.5361 15.6397 17.5511 15.7126C17.5361 15.7126 17.4622 15.7418 17.4178 15.7564H17.3589C17.3439 15.7564 17.2995 15.7564 17.2995 15.7272L17.3439 15.6543ZM3.14832 18.8636C3.14832 18.9366 3.16334 18.9511 3.19275 18.9803C3.37049 18.9074 3.23719 18.6886 3.14832 18.8636ZM13.4363 14.8373C13.4062 14.8082 13.3474 14.8228 13.303 14.852L13.2435 14.8082C13.303 14.779 13.3618 14.7353 13.4213 14.6915L13.4807 14.7353C13.4363 14.7644 13.4507 14.8082 13.4363 14.8373ZM16.8996 18.6594C16.8702 18.6594 16.8408 18.6594 16.8107 18.6448C16.7813 18.6156 16.7669 18.5865 16.7519 18.5573C16.7963 18.5865 16.8408 18.6011 16.8852 18.6011L16.8702 18.5135H16.9146L17.0185 18.6011C16.9741 18.6156 16.9296 18.6302 16.8996 18.6594ZM17.6249 14.4289C17.5955 14.3851 17.5066 14.3997 17.4772 14.4581C17.4772 14.5018 17.5066 14.5164 17.5217 14.5456C17.5955 14.5602 17.655 14.5164 17.6249 14.4289ZM16.8257 15.027C16.8257 15.0853 16.8107 15.1437 16.7669 15.1437H16.7225L16.7519 15.0999C16.678 15.0999 16.6336 15.027 16.6336 14.9833H16.7075V15.027H16.8257ZM18.1137 16.6608C18.0248 16.6608 17.951 16.6317 17.9065 16.5588C17.9065 16.5441 17.951 16.5441 17.9954 16.5441C18.0693 16.5296 18.1137 16.5879 18.1137 16.6608ZM3.3705 19.3304L3.42932 19.3013C3.54823 19.0533 3.22217 19.1846 3.3705 19.3304ZM13.6728 5.23852C13.6578 5.3844 13.599 5.5011 13.4657 5.5011L13.6728 5.23852ZM4.24352 17.6966C4.2141 17.6966 4.18469 17.6674 4.15465 17.6674C4.0808 17.7258 4.15465 17.7987 4.18469 17.8425C4.24352 17.8133 4.25853 17.7695 4.24352 17.6966ZM17.8027 15.6105C17.8621 15.5959 17.8915 15.5668 17.8621 15.4938H17.8471V15.4646H17.8177L17.8327 15.4938C17.7883 15.4793 17.7438 15.5084 17.7438 15.5376L17.6994 15.5522L17.7732 15.6251L17.8027 15.6105ZM7.30756 6.88695C7.352 6.91612 7.42647 6.88695 7.45588 6.85777C7.4709 6.7119 7.27815 6.77025 7.30756 6.88695ZM17.0035 15.2458C17.0035 15.275 17.0035 15.275 17.0329 15.3188C17.0329 15.3188 16.959 15.3625 16.9146 15.3625L16.8408 15.3333C16.8551 15.2604 16.944 15.2458 17.0035 15.2458ZM17.2256 13.3202C17.1512 13.3348 17.1074 13.364 17.1074 13.4223C17.1218 13.4223 17.1368 13.4223 17.1368 13.4515C17.2256 13.4661 17.3145 13.3786 17.2256 13.3202ZM13.3618 10.9861C13.4062 11.0153 13.3324 11.0737 13.2585 11.132C13.2879 11.1612 13.3174 11.1758 13.3768 11.1174C13.3618 11.1612 13.3174 11.2196 13.288 11.2633C13.2585 11.2341 13.2291 11.205 13.2141 11.1758L13.3618 10.9861ZM5.96078 18.2655C5.93137 18.3093 5.90133 18.3385 5.90133 18.3968C5.93137 18.4114 5.94576 18.426 5.9758 18.426L6.03463 18.3676C6.02023 18.3093 6.00522 18.2655 5.96078 18.2655ZM19.5938 19.4763C19.6676 19.4909 19.7565 19.5201 19.7421 19.593L19.6532 19.6368C19.6532 19.5638 19.5938 19.5055 19.5493 19.4763H19.5938ZM12.6959 15.3625C12.592 15.3771 12.4738 15.2604 12.4594 15.2021L12.6959 15.3188V15.3625ZM16.2337 8.17066C16.1893 8.14149 16.1448 8.15611 16.1154 8.14149C16.0416 8.21445 16.1893 8.31659 16.2337 8.24362V8.17066ZM17.1074 5.6178L17.1512 5.60322C17.1512 5.60322 17.1662 5.5011 17.1662 5.45734C17.1074 5.48651 17.0035 5.6178 17.0329 5.63239C17.0329 5.64697 17.1074 5.6178 17.1074 5.6178ZM7.14484 6.24508C7.10041 6.20132 7.02657 6.2159 6.99715 6.27426C6.99715 6.30343 7.02657 6.31802 7.04159 6.3472C7.10041 6.3472 7.14484 6.30343 7.14484 6.24508ZM16.5297 4.0569V4.11525L16.2337 4.42159C16.3076 4.30489 16.4114 4.1736 16.5297 4.0569ZM15.0941 3.95478V3.96937C15.0496 4.07148 15.0346 4.12984 14.9608 4.14442H14.9163C14.9608 4.10066 15.0196 3.95478 15.0941 3.95478ZM16.3376 13.3786C16.3076 13.3786 16.3076 13.364 16.2932 13.364C16.2187 13.3786 16.2043 13.4078 16.2043 13.4661C16.2337 13.4661 16.2337 13.4953 16.2487 13.4953C16.3226 13.4807 16.352 13.4369 16.3376 13.3786ZM19.0462 16.3837C19.0612 16.4274 19.0462 16.4858 19.0017 16.5004L19.0612 16.5733V16.5004C19.135 16.4858 19.135 16.5296 19.1795 16.5296C19.1795 16.4712 19.12 16.4128 19.0462 16.3837ZM5.53146 18.6594C5.56088 18.7178 5.50205 18.7178 5.48703 18.7323V18.8053C5.56088 18.7907 5.54649 18.7323 5.60532 18.7469C5.64975 18.674 5.59092 18.6011 5.53146 18.6594ZM12.7109 15.3917H12.7698C12.8292 15.3917 12.9031 15.4646 12.9181 15.5376C12.8442 15.5522 12.7698 15.4355 12.7109 15.3917ZM4.18469 18.9511C4.14026 19.0095 4.16967 19.1116 4.25854 19.0678C4.30297 19.0095 4.25854 18.9074 4.18469 18.9511ZM14.2799 5.39898H14.3093L14.1172 5.64697V5.58862C14.1172 5.53027 14.206 5.45734 14.2799 5.39898ZM18.543 16.8068C18.5874 16.7921 18.6319 16.8213 18.6613 16.8651L18.558 16.9526L18.543 16.9088L18.5136 16.8068H18.543ZM17.5511 15.9023C17.6105 15.9023 17.6694 15.9461 17.7288 15.9461V16.019C17.6694 16.019 17.5511 15.9752 17.5511 15.9023ZM16.5297 17.4632C16.4703 17.4923 16.4265 17.3903 16.4409 17.3465C16.5147 17.3173 16.6036 17.4194 16.5297 17.4632ZM11.9556 14.8082H11.9261L11.6896 14.6186C11.734 14.6331 11.8967 14.7206 11.9412 14.7206C11.9556 14.7353 11.9412 14.7936 11.9556 14.8082ZM14.6497 15.8731C14.5909 15.8439 14.5164 15.8001 14.502 15.7564C14.5759 15.7418 14.6203 15.771 14.6792 15.8001C14.6648 15.8293 14.6497 15.8439 14.6497 15.8731ZM15.5972 4.1736C15.5972 4.04231 15.6711 4.10066 15.7449 4.04231L15.76 4.0569L15.5972 4.21736V4.1736ZM16.367 7.45588C16.2487 7.54341 16.1893 7.61635 16.1893 7.68929C16.2631 7.66011 16.3226 7.52882 16.367 7.45588ZM3.85864 19.1554C3.88868 19.1116 3.88868 19.0095 3.81421 19.0387C3.75538 19.0824 3.76977 19.1991 3.85864 19.1554ZM6.90829 6.05544C6.9377 6.04085 6.98213 6.02627 6.96711 5.96791C6.92268 5.92415 6.83443 5.96791 6.83443 6.01167C6.86385 6.02627 6.86385 6.07002 6.90829 6.05544ZM4.15465 17.9592C4.16967 17.93 4.15465 17.8716 4.15465 17.8425C4.12524 17.8571 4.12524 17.8279 4.0808 17.8571C4.05139 17.9154 4.0808 17.9883 4.15465 17.9592ZM7.24873 7.1933L7.23371 7.10577L7.05598 7.04742C7.05598 7.062 7.21932 7.1933 7.24873 7.1933ZM16.2043 18.1343H16.2932C16.3226 18.1926 16.367 18.2509 16.4265 18.3093C16.3376 18.2655 16.2631 18.2072 16.2043 18.1343ZM18.9129 16.9234C18.9423 16.9234 18.9423 16.8651 18.9129 16.8505C18.9423 16.8359 18.9279 16.7776 18.8985 16.7776C18.839 16.7776 18.839 16.8359 18.8835 16.8505C18.839 16.8651 18.854 16.9234 18.9129 16.9234ZM17.7582 16.6025C17.8027 16.6025 17.8177 16.6608 17.7732 16.6754C17.8177 16.69 17.8177 16.7484 17.7732 16.7484C17.7288 16.763 17.7138 16.69 17.7582 16.6754C17.7138 16.69 17.7138 16.6171 17.7582 16.6025ZM17.7438 3.8089C17.7138 3.8089 17.6249 3.83807 17.6249 3.94019L17.6694 3.9256C17.7138 3.9256 17.7438 3.86725 17.7438 3.8089ZM17.1074 18.9658C16.9741 18.9658 16.8996 18.8928 16.8107 18.8053C16.8552 18.8345 17.0185 18.9074 17.1074 18.9658ZM12.8586 5.60322C12.8586 5.60322 12.9181 5.55945 12.9181 5.5011C12.9031 5.51569 12.7998 5.60322 12.7998 5.6178C12.7404 5.83662 12.7848 5.7345 12.8586 5.60322ZM15.5972 3.50255L15.7155 3.42962C15.6711 3.42962 15.6711 3.38585 15.6711 3.34209H15.6267L15.5972 3.50255ZM3.82922 17.9446C3.82922 17.8863 3.81421 17.8571 3.76977 17.8716C3.68091 17.9154 3.76976 18.0467 3.82922 17.9446ZM14.2649 16.7484L14.2799 16.7921C14.2799 16.8651 14.3243 16.9088 14.3982 16.938H14.4132C14.3982 16.8943 14.3243 16.8359 14.3243 16.7921L14.2649 16.7484ZM4.46569 19.4326C4.45067 19.4909 4.4951 19.5347 4.53953 19.5201C4.53953 19.4909 4.58397 19.4909 4.56958 19.4471C4.55456 19.418 4.52514 19.4034 4.46569 19.4326ZM15.7011 7.35377C15.7449 7.36835 15.7155 7.39752 15.7449 7.41212C15.8044 7.39752 15.7894 7.36835 15.8194 7.32459C15.76 7.28082 15.7305 7.28082 15.7011 7.35377ZM12.3555 14.0642C12.3555 14.108 12.296 14.1226 12.3261 14.1663C12.3705 14.1809 12.3999 14.1663 12.4293 14.1371C12.4149 14.0788 12.3849 14.0642 12.3555 14.0642ZM18.4835 17.507L18.4692 17.4194H18.4986C18.4986 17.4194 18.6319 17.4778 18.6763 17.4778L18.4835 17.507ZM16.9146 3.66302L16.9741 3.47338L16.9146 3.50255C16.9146 3.50255 16.8552 3.66302 16.9146 3.66302ZM4.2141 18.3531C4.14026 18.4698 4.31799 18.4843 4.28795 18.3531C4.25853 18.3531 4.24352 18.3385 4.2141 18.3531ZM5.13157 19.4034C5.13157 19.418 5.11717 19.418 5.10215 19.4326C5.10215 19.4763 5.10215 19.4909 5.13157 19.5201C5.176 19.5201 5.176 19.4909 5.19102 19.4618C5.19102 19.4326 5.16161 19.4034 5.13157 19.4034ZM17.5511 4.655V4.61124C17.4772 4.655 17.4478 4.69877 17.4478 4.7717L17.4622 4.80088L17.5217 4.68417L17.5511 4.655ZM13.4062 5.6178H13.4507L13.2729 5.80744C13.303 5.70533 13.3768 5.63239 13.4062 5.6178ZM17.8471 3.6922C17.8471 3.66302 17.8327 3.63385 17.8027 3.63385C17.7732 3.63385 17.7883 3.73596 17.8177 3.73596C17.8327 3.73596 17.8327 3.75055 17.8621 3.75055C17.9065 3.75055 17.8915 3.6922 17.8471 3.6922ZM14.6792 9.11892L14.487 9.30857L14.6497 9.07513L14.6792 9.11892ZM17.5661 4.18819H17.5217C17.4478 4.18819 17.4178 4.23195 17.4328 4.26112C17.5066 4.26112 17.5361 4.26112 17.5661 4.18819ZM16.1743 3.82349C16.1743 3.83807 16.056 3.95478 16.0115 3.96937C15.9671 3.96937 16.1743 3.77972 16.1743 3.82349ZM15.3163 3.64843C15.3306 3.63385 15.4195 3.51714 15.4195 3.47338C15.3162 3.51714 15.3163 3.59008 15.3163 3.64843ZM14.5909 17.0839H14.5759C14.5609 17.0547 14.5609 17.0401 14.5465 17.0401C14.5315 17.0547 14.5315 17.1276 14.5465 17.1131H14.5609C14.5465 17.1423 14.5609 17.1568 14.5909 17.1568C14.6497 17.1568 14.6497 17.0839 14.5909 17.0839ZM18.4541 16.9526L18.4097 16.9964C18.3803 16.9964 18.2764 16.938 18.2764 16.9088L18.4541 16.9526ZM15.5528 3.26915L15.479 3.35667V3.40044C15.5378 3.38585 15.5528 3.34209 15.5972 3.31291L15.5528 3.26915ZM15.7894 4.66959C15.7449 4.66959 15.7449 4.61124 15.775 4.59665C15.7305 4.58206 15.7305 4.52371 15.775 4.52371C15.8044 4.50912 15.8194 4.58206 15.7894 4.59665C15.8194 4.58206 15.8194 4.655 15.7894 4.66959ZM17.4478 3.2108C17.4328 3.2108 17.4178 3.22538 17.4178 3.22538C17.4328 3.2108 17.4328 3.19621 17.4328 3.16703C17.4328 3.13786 17.3289 3.25456 17.3733 3.25456C17.3884 3.25456 17.4034 3.23997 17.4178 3.22538C17.4034 3.25456 17.4178 3.28374 17.4478 3.28374C17.4772 3.28374 17.4772 3.2108 17.4478 3.2108ZM17.6105 3.99854C17.5661 4.01313 17.5217 4.04231 17.4922 4.07148V4.11525C17.5217 4.11525 17.6105 4.07148 17.6105 3.99854ZM5.64975 18.2072C5.60532 18.2509 5.62034 18.3385 5.69418 18.2947C5.72422 18.2509 5.69418 18.1926 5.64975 18.2072ZM19.0906 18.7761C19.0906 18.8345 18.9867 18.8345 18.9867 18.7761C18.9867 18.7323 19.0906 18.7323 19.0906 18.7761ZM19.0612 17.5945C19.1056 17.5945 19.1056 17.6966 19.0612 17.6966C19.0017 17.6966 19.0017 17.5945 19.0612 17.5945ZM14.1021 5.18017C14.0871 5.16557 14.0871 5.10722 14.1021 5.10722C14.1466 5.10722 14.1616 5.18017 14.1172 5.18017H14.1021C14.1172 5.19475 14.1172 5.26769 14.1021 5.26769C14.0427 5.26769 14.0427 5.18017 14.1021 5.18017ZM16.5147 14.1371C16.5447 14.1371 16.5297 14.0642 16.5003 14.0642C16.5003 14.0496 16.4853 14.0204 16.4559 14.0204C16.4265 14.0204 16.4409 14.0934 16.4703 14.0934C16.4703 14.108 16.4853 14.1371 16.5147 14.1371ZM19.2683 16.8359H19.2827C19.2827 16.8505 19.2978 16.8651 19.3128 16.8651C19.3716 16.8505 19.3716 16.7776 19.3128 16.7921H19.2978C19.2978 16.7776 19.2827 16.763 19.2683 16.763C19.2533 16.763 19.2533 16.8359 19.2683 16.8359ZM7.18928 6.15755C7.18928 6.0992 7.14484 6.0992 7.10041 6.0992C7.10041 6.11379 7.08602 6.12838 7.071 6.15755C7.10041 6.17214 7.15986 6.17214 7.18928 6.15755ZM16.6186 14.6331C16.648 14.6331 16.648 14.6477 16.648 14.6769C16.648 14.6769 16.648 14.6623 16.663 14.6623C16.6924 14.6623 16.6924 14.7353 16.663 14.7353C16.6336 14.7498 16.6186 14.7206 16.6336 14.6915H16.6186C16.5742 14.6915 16.5742 14.6331 16.6186 14.6331ZM17.2701 15.1875V15.1437C17.2551 15.1291 17.2256 15.1145 17.2106 15.1145H17.1956C17.2106 15.1437 17.2106 15.2313 17.2106 15.2604L17.2701 15.1875ZM14.0577 5.47192C14.1172 5.47192 14.1172 5.57404 14.0577 5.57404C14.0133 5.57404 14.0133 5.47192 14.0577 5.47192ZM15.6417 6.23049C15.6417 6.15755 15.6861 6.08462 15.775 6.08462L15.6417 6.23049ZM14.783 3.89643C14.8275 3.89643 14.8125 3.79432 14.768 3.79432C14.7236 3.79432 14.7386 3.89643 14.783 3.89643ZM15.5528 4.78629C15.6123 4.78629 15.6267 4.87382 15.5678 4.87382C15.5234 4.8884 15.5084 4.80088 15.5528 4.78629ZM12.2071 15.027C12.1633 15.027 12.1483 14.9249 12.1928 14.9249C12.2372 14.9249 12.2516 15.027 12.2071 15.027ZM17.9804 15.8439V15.7272L17.9065 15.771C17.9065 15.8148 17.951 15.8439 17.9804 15.8439ZM4.83555 6.69731C4.85057 6.62437 4.77672 6.62437 4.74668 6.65354V6.69731C4.79111 6.69731 4.80613 6.72648 4.83555 6.69731ZM14.7092 17.2298C14.6648 17.2298 14.6792 17.3173 14.7236 17.3173C14.783 17.3173 14.768 17.2298 14.7092 17.2298ZM7.17489 6.65354C7.15987 6.63895 7.08602 6.63895 7.071 6.66813V6.7119C7.13045 6.7119 7.17489 6.69731 7.17489 6.65354ZM13.3174 6.05544C13.3174 6.12838 13.2435 6.17214 13.1991 6.17214H13.1697C13.1991 6.12838 13.288 6.0992 13.3174 6.05544ZM13.6134 15.0562C13.6284 15.0708 13.6434 15.0708 13.6728 15.0708C13.7022 15.0708 13.7173 15.0562 13.7323 15.0562C13.7173 15.0708 13.7173 15.0999 13.7467 15.1291C13.7617 15.1583 13.7767 15.1583 13.7911 15.1583H13.7617L13.6134 15.0562ZM15.5822 6.04085C15.6123 6.04085 15.6267 6.0992 15.5972 6.11379C15.6267 6.12838 15.6267 6.18673 15.5972 6.18673C15.5822 6.20132 15.5678 6.12838 15.5822 6.11379C15.5678 6.12838 15.5678 6.05544 15.5822 6.04085ZM17.9654 3.60467C18.0098 3.60467 18.0098 3.50255 17.9654 3.50255C17.9209 3.51714 17.9209 3.60467 17.9654 3.60467ZM16.1599 4.49453L16.1298 4.56747C16.1298 4.56747 16.0416 4.52371 16.0416 4.47994C16.056 4.47994 16.1448 4.50912 16.1599 4.49453ZM14.8569 4.52371L14.9758 4.37783H14.9314C14.9314 4.37783 14.8569 4.45077 14.8569 4.49453V4.52371ZM6.56783 18.8782C6.50838 18.8928 6.50838 18.9803 6.56783 18.9658C6.61227 18.9658 6.61227 18.8782 6.56783 18.8782ZM16.8257 14.3268C16.8408 14.2976 16.8257 14.2393 16.7813 14.2538C16.7813 14.283 16.7369 14.2976 16.7369 14.3268C16.7813 14.3122 16.7813 14.356 16.8257 14.3268ZM17.2106 3.34209V3.41503L17.2845 3.25456C17.2106 3.25456 17.2106 3.29832 17.2106 3.34209ZM12.1777 6.79942C12.2222 6.79942 12.2222 6.88695 12.1777 6.88695C12.1189 6.88695 12.1189 6.79942 12.1777 6.79942ZM16.2487 2.61269C16.2932 2.5981 16.2932 2.49599 16.2487 2.51057C16.2043 2.51057 16.2043 2.61269 16.2487 2.61269ZM14.3537 15.6105C14.3831 15.5522 14.3243 15.5959 14.2949 15.5813V15.5376C14.3093 15.5376 14.3243 15.5376 14.3387 15.523C14.3688 15.5522 14.3982 15.5813 14.4132 15.6251C14.3831 15.5813 14.3687 15.6105 14.3537 15.6105ZM14.9163 8.12693C14.9458 8.12693 14.9608 8.09776 14.9608 8.06859C14.9458 8.03942 14.9314 8.05397 14.9013 8.03942C14.8719 8.08314 14.8719 8.11232 14.9163 8.12693ZM18.3803 19.3888C18.3208 19.3304 18.2614 19.3013 18.2026 19.2283L18.3208 19.2867C18.3503 19.3158 18.3653 19.345 18.3803 19.3888ZM19.3422 16.9672C19.4461 16.9963 19.3866 16.8943 19.3272 16.9088C19.2827 16.9088 19.2978 16.9672 19.3422 16.9672ZM16.3076 14.7061C16.352 14.7061 16.352 14.7936 16.3076 14.8082C16.2631 14.8082 16.2631 14.7061 16.3076 14.7061ZM18.5724 16.5879C18.6169 16.5879 18.6319 16.6754 18.5874 16.6754C18.543 16.69 18.528 16.6025 18.5724 16.5879ZM5.04332 6.9453C5.04332 6.90154 5.04332 6.85777 4.98387 6.87237C4.98387 6.90154 4.96885 6.91612 4.96885 6.93072C4.98387 6.9453 4.99889 6.95989 5.04332 6.9453ZM16.6924 14.0642L16.663 14.0058C16.6186 14.0058 16.5892 14.0204 16.6036 14.0642C16.6336 14.0788 16.648 14.0788 16.6924 14.0642ZM18.9279 17.3027V17.3465L18.854 17.4194L18.8096 17.4048L18.9279 17.3027ZM12.4149 15.3188C12.3849 15.3188 12.3705 15.2166 12.3999 15.2166C12.4443 15.2166 12.4594 15.3188 12.4149 15.3188ZM16.7369 17.5945C16.7813 17.5945 16.7813 17.6966 16.7369 17.6966C16.7075 17.6966 16.7075 17.5945 16.7369 17.5945ZM15.2718 4.85923C15.3163 4.84464 15.3163 4.91758 15.2718 4.93217C15.2124 4.93217 15.2124 4.85923 15.2718 4.85923ZM17.4034 2.42305C17.4328 2.42305 17.4178 2.32093 17.3884 2.32093C17.3439 2.33552 17.3589 2.42305 17.4034 2.42305ZM17.7883 18.7031C17.7288 18.7031 17.7288 18.6302 17.7883 18.6302C17.8327 18.6156 17.8327 18.6886 17.7883 18.7031ZM16.678 3.5609C16.7369 3.5609 16.7225 3.45879 16.663 3.45879C16.648 3.45879 16.663 3.5609 16.678 3.5609ZM18.0843 16.1211C18.1137 16.1211 18.1287 16.2232 18.0987 16.2232C18.0542 16.2232 18.0398 16.1211 18.0843 16.1211ZM17.951 2.39387C17.9804 2.39387 17.9654 2.29176 17.936 2.29176C17.8915 2.29176 17.9065 2.39387 17.951 2.39387ZM17.1662 3.96937H17.1956C17.24 3.96937 17.2845 3.85267 17.2845 3.83807C17.1956 3.85267 17.24 3.95478 17.1662 3.96937ZM17.0185 5.5011C17.0773 5.5011 17.0773 5.44275 17.0329 5.42816H17.0185C16.9741 5.42816 16.9741 5.5011 17.0185 5.5011ZM14.2949 11.9636C14.3537 11.9636 14.3537 11.8906 14.2949 11.8906C14.2505 11.8906 14.2505 11.9636 14.2949 11.9636ZM17.655 16.8797C17.7138 16.8797 17.7138 16.9526 17.655 16.9526C17.6105 16.9526 17.6105 16.8797 17.655 16.8797ZM17.9804 17.1423C17.936 17.1423 17.936 17.0547 17.9804 17.0547C18.0248 17.0547 18.0248 17.1423 17.9804 17.1423ZM15.9227 16.5588C15.8782 16.5588 15.8782 16.4858 15.9227 16.4858C15.9821 16.4858 15.9821 16.5588 15.9227 16.5588ZM16.959 4.37783C16.9146 4.37783 16.9146 4.45077 16.959 4.45077C17.0185 4.45077 17.0185 4.37783 16.959 4.37783ZM12.3555 15.523C12.311 15.5376 12.311 15.6251 12.3555 15.6105C12.3999 15.6105 12.3999 15.523 12.3555 15.523ZM13.5546 5.99709C13.4951 5.99709 13.4807 5.92415 13.5395 5.92415C13.584 5.92415 13.599 5.99709 13.5546 5.99709ZM15.2862 5.15099C15.3306 5.15099 15.3306 5.22392 15.2862 5.22392C15.2274 5.23852 15.2274 5.16557 15.2862 5.15099ZM16.5892 3.13786C16.6336 3.13786 16.6336 3.06492 16.5892 3.06492C16.5297 3.0795 16.5297 3.15245 16.5892 3.13786ZM17.6249 16.2086C17.5805 16.2086 17.5661 16.1357 17.6105 16.1357C17.6694 16.1357 17.6844 16.2086 17.6249 16.2086ZM17.6844 2.10211C17.7138 2.10211 17.7138 2 17.6844 2C17.6399 2 17.6399 2.10211 17.6844 2.10211ZM15.4639 13.116C15.4195 13.116 15.4195 13.2181 15.4639 13.2181C15.4934 13.2181 15.4934 13.116 15.4639 13.116ZM16.382 15.027C16.3376 15.0416 16.3376 14.9395 16.382 14.9249C16.4114 14.9249 16.4114 15.027 16.382 15.027ZM12.7109 5.64697H12.6665C12.6665 5.64697 12.607 5.7345 12.607 5.74909L12.6515 5.7345C12.6809 5.69074 12.7109 5.66157 12.7109 5.64697ZM17.4922 3.53173C17.4772 3.51714 17.4622 3.48797 17.4622 3.47338L17.4178 3.51714V3.53173L17.4922 3.59008V3.53173ZM18.9129 18.6448C18.9129 18.6011 18.9867 18.6156 18.9867 18.6594C18.9723 18.7031 18.8985 18.7031 18.9129 18.6448ZM15.5084 9.62947C15.4934 9.67326 15.5528 9.7316 15.5822 9.68781C15.5972 9.64409 15.5378 9.61491 15.5084 9.62947ZM16.5591 3.6922C16.6186 3.67761 16.6186 3.57549 16.5591 3.59008C16.5447 3.59008 16.5447 3.6922 16.5591 3.6922ZM17.6694 18.0175C17.6105 18.0175 17.5955 17.9738 17.655 17.9738C17.6694 17.9738 17.6694 18.0175 17.6694 18.0175C17.7138 18.0175 17.7288 18.0905 17.6844 18.0905C17.6694 18.0905 17.6694 18.0175 17.6694 18.0175ZM16.3076 13.8454C16.3226 13.9038 16.352 13.8891 16.3964 13.8746C16.3964 13.8162 16.3226 13.8162 16.3076 13.8454ZM7.64801 5.90956C7.63361 5.89497 7.60358 5.89497 7.57416 5.90956V5.96791C7.6186 5.96791 7.66303 5.95332 7.64801 5.90956ZM14.176 16.515C14.1616 16.5004 14.1316 16.4858 14.1172 16.4858C14.1172 16.515 14.1316 16.5296 14.1466 16.5441C14.1616 16.5588 14.1616 16.5733 14.191 16.5733C14.191 16.5733 14.206 16.5879 14.2204 16.5879L14.191 16.5441C14.191 16.5296 14.191 16.515 14.176 16.515ZM17.0479 18.0613C17.0479 18.0321 17.0629 18.0029 17.0773 18.0029C17.1074 18.0029 17.1218 18.0759 17.0923 18.1051L17.0479 18.0613ZM4.4951 17.9154C4.46569 17.9154 4.4807 17.8425 4.43627 17.8571C4.37682 17.9008 4.46569 17.9738 4.4951 17.9154ZM17.8027 18.3531C17.7438 18.3676 17.7288 18.2801 17.7883 18.2655C17.8027 18.2655 17.8177 18.3531 17.8027 18.3531ZM12.3404 14.9541C12.3849 14.9541 12.3999 15.027 12.3555 15.027C12.311 15.0416 12.296 14.9686 12.3404 14.9541ZM15.9227 4.85923C15.8782 4.85923 15.8638 4.7717 15.9083 4.7717C15.9377 4.7717 15.9527 4.85923 15.9227 4.85923ZM13.2435 15.9752C13.2141 15.9752 13.2291 16.0628 13.2585 16.0628C13.303 16.0628 13.288 15.9752 13.2435 15.9752ZM17.1368 5.29687H17.1218L17.0923 5.41357C17.1368 5.36981 17.1812 5.29687 17.1812 5.28228C17.1662 5.28228 17.1512 5.29687 17.1368 5.29687ZM17.6399 4.5383C17.6694 4.5383 17.655 4.45077 17.6249 4.45077C17.5805 4.45077 17.5955 4.5383 17.6399 4.5383ZM15.5972 4.55288C15.6123 4.55288 15.6267 4.64041 15.6123 4.64041C15.5528 4.64041 15.5378 4.55288 15.5972 4.55288ZM15.3012 4.56747C15.3607 4.56747 15.3751 4.655 15.3163 4.655C15.3012 4.655 15.2862 4.56747 15.3012 4.56747ZM17.1956 2.99197C17.24 2.99197 17.2256 2.91904 17.1812 2.91904C17.1368 2.91904 17.1512 2.99197 17.1956 2.99197ZM17.0773 15.3188C17.1218 15.3188 17.1368 15.3917 17.0923 15.3917C17.0479 15.3917 17.0329 15.3188 17.0773 15.3188ZM15.76 5.0197C15.7155 5.0197 15.7155 4.94676 15.76 4.94676C15.8044 4.94676 15.8044 5.0197 15.76 5.0197ZM16.5742 6.18673C16.6186 6.18673 16.6036 6.11379 16.5591 6.11379C16.5147 6.11379 16.5297 6.18673 16.5742 6.18673ZM16.5003 4.97593C16.4559 4.97593 16.4559 4.903 16.5003 4.903C16.5447 4.903 16.5447 4.97593 16.5003 4.97593ZM16.4853 4.55288C16.5297 4.55288 16.5297 4.62582 16.4853 4.62582C16.4409 4.62582 16.4409 4.55288 16.4853 4.55288ZM16.2781 14.2684C16.3226 14.2684 16.3226 14.1955 16.2781 14.1955C16.2337 14.1955 16.2337 14.2684 16.2781 14.2684ZM15.8638 4.58206C15.8194 4.58206 15.8044 4.50912 15.8488 4.50912C15.8933 4.50912 15.9083 4.58206 15.8638 4.58206ZM19.6382 19.4471C19.6382 19.4034 19.7121 19.4034 19.7121 19.4471C19.7121 19.4909 19.6382 19.4909 19.6382 19.4471ZM13.3618 6.01167C13.3174 6.01167 13.303 5.93874 13.3474 5.93874C13.3918 5.93874 13.4062 6.01167 13.3618 6.01167ZM17.3289 3.41503C17.3733 3.41503 17.3733 3.34209 17.3289 3.34209C17.2845 3.34209 17.2845 3.41503 17.3289 3.41503ZM13.0514 5.99709C13.0958 5.99709 13.0958 6.07002 13.0514 6.07002C13.007 6.07002 13.007 5.99709 13.0514 5.99709ZM13.88 16.5296C13.9244 16.5296 13.9244 16.4566 13.88 16.4566C13.8355 16.4566 13.8355 16.5296 13.88 16.5296ZM16.9741 15.5084C17.0185 15.5084 17.0185 15.5813 16.9741 15.5813C16.9296 15.5813 16.9296 15.5084 16.9741 15.5084ZM15.9527 2.94822C15.9971 2.94822 15.9971 2.87527 15.9527 2.87527C15.9083 2.87527 15.9083 2.94822 15.9527 2.94822ZM17.0923 15.6251C17.1368 15.6251 17.1512 15.6981 17.1074 15.6981C17.0629 15.6981 17.0479 15.6251 17.0923 15.6251ZM16.7963 17.2736C16.7519 17.2736 16.7369 17.2006 16.7813 17.2006C16.8257 17.2006 16.8408 17.2736 16.7963 17.2736ZM18.0098 4.27572C18.0542 4.27572 18.0398 4.20277 17.9954 4.20277C17.951 4.20277 17.9654 4.27572 18.0098 4.27572ZM15.9227 5.04887C15.8782 5.04887 15.8782 4.96135 15.9227 4.96135C15.9527 4.96135 15.9527 5.04887 15.9227 5.04887ZM16.4265 5.0197C16.382 5.0197 16.382 4.93217 16.4265 4.93217C16.4559 4.93217 16.4559 5.0197 16.4265 5.0197ZM17.7582 2.81692C17.8027 2.81692 17.8027 2.72939 17.7582 2.72939C17.7288 2.72939 17.7288 2.81692 17.7582 2.81692ZM15.6123 3.23997C15.6567 3.23997 15.6567 3.15245 15.6123 3.15245C15.5822 3.15245 15.5822 3.23997 15.6123 3.23997ZM16.7225 15.2896C16.7669 15.2896 16.7669 15.3771 16.7225 15.3771C16.6924 15.3771 16.6924 15.2896 16.7225 15.2896ZM18.4541 17.1131C18.4097 17.1131 18.4097 17.0256 18.4541 17.0256C18.4835 17.0256 18.4835 17.1131 18.4541 17.1131ZM15.7894 16.3545C15.8194 16.3545 15.8194 16.442 15.7894 16.442C15.7449 16.442 15.7449 16.3545 15.7894 16.3545ZM18.1581 17.434C18.1137 17.434 18.1137 17.3465 18.1581 17.3465C18.1875 17.3465 18.1875 17.434 18.1581 17.434ZM15.7894 3.3275C15.8338 3.3275 15.8338 3.25456 15.7894 3.25456C15.7449 3.26915 15.7449 3.34209 15.7894 3.3275ZM15.8638 6.77025C15.8194 6.77025 15.8194 6.69731 15.8638 6.69731C15.9083 6.68272 15.9083 6.75566 15.8638 6.77025ZM15.8044 5.80744C15.76 5.80744 15.76 5.7345 15.8044 5.7345C15.8488 5.71992 15.8488 5.79286 15.8044 5.80744ZM16.367 4.55288C16.4114 4.55288 16.4114 4.62582 16.367 4.62582C16.3226 4.64041 16.3226 4.56747 16.367 4.55288ZM17.6844 4.0569C17.7288 4.0569 17.7288 3.98395 17.6844 3.98395C17.6399 3.99854 17.6399 4.07148 17.6844 4.0569ZM16.5892 14.2101C16.6336 14.1955 16.6336 14.1226 16.5892 14.1371C16.5447 14.1371 16.5447 14.2101 16.5892 14.2101ZM17.6399 3.35667C17.6844 3.34209 17.6844 3.26915 17.6399 3.28374C17.5955 3.28374 17.5955 3.35667 17.6399 3.35667ZM14.9758 12.9993C14.9314 13.0139 14.9314 12.9409 14.9758 12.9263C15.0196 12.9263 15.0196 12.9993 14.9758 12.9993ZM18.0542 18.4989C18.0098 18.4989 18.0098 18.426 18.0542 18.426C18.0987 18.4114 18.0987 18.4843 18.0542 18.4989ZM16.8702 12.9263C16.8552 12.9118 16.8552 12.8972 16.8552 12.8826C16.8107 12.8972 16.7669 12.8972 16.7963 12.9409C16.8107 12.9555 16.8552 12.9555 16.8702 12.9263ZM17.6249 18.4698C17.6844 18.4698 17.6844 18.5427 17.6399 18.5573H17.6249C17.6105 18.5281 17.6105 18.4698 17.6249 18.4698ZM3.6809 18.0175C3.65148 18.0321 3.65148 18.0467 3.65148 18.0759C3.65148 18.0905 3.6665 18.1051 3.69592 18.0905C3.71094 18.0759 3.71094 18.0467 3.71094 18.0175C3.69592 18.0175 3.6809 18.0321 3.6809 18.0175ZM15.7305 13.612C15.7305 13.6266 15.7305 13.6266 15.7155 13.6411C15.7155 13.6266 15.7011 13.6266 15.6861 13.6266V13.5974C15.6567 13.5682 15.6417 13.5536 15.6267 13.5536L15.6567 13.5245L15.7305 13.612ZM16.071 5.04887L16.1154 4.99052H16.1448L16.1893 5.03429L16.071 5.04887ZM16.959 4.2903C17.0185 4.2903 17.0185 4.26112 17.0185 4.21736C16.959 4.21736 16.944 4.24654 16.959 4.2903ZM19.0017 16.4274C19.0462 16.4274 19.0311 16.3691 18.9867 16.3691C18.9279 16.3691 18.9423 16.4274 19.0017 16.4274ZM19.12 16.5588C19.0612 16.5733 19.0612 16.6608 19.12 16.6463C19.135 16.6463 19.135 16.5588 19.12 16.5588ZM15.4045 3.25456C15.4195 3.25456 15.4195 3.16703 15.4045 3.16703C15.3457 3.16703 15.3457 3.25456 15.4045 3.25456ZM17.0629 4.14442C17.1218 4.14442 17.1218 4.08607 17.0629 4.08607C17.0185 4.08607 17.0185 4.14442 17.0629 4.14442ZM5.54648 18.849C5.47201 18.8636 5.53147 18.9511 5.56088 18.9511C5.5759 18.922 5.54648 18.8928 5.54648 18.849ZM17.5661 16.0336C17.6105 16.0336 17.6105 16.1357 17.5661 16.1357C17.5511 16.1357 17.5511 16.0336 17.5661 16.0336ZM15.3607 4.46536C15.3751 4.46536 15.3751 4.5383 15.3607 4.5383C15.3012 4.5383 15.3012 4.46536 15.3607 4.46536ZM12.2816 6.68272C12.296 6.68272 12.296 6.60978 12.2816 6.60978C12.2222 6.60978 12.2222 6.68272 12.2816 6.68272ZM13.8506 5.12182C13.8656 5.12182 13.8656 5.04887 13.8506 5.04887C13.7911 5.04887 13.7911 5.12182 13.8506 5.12182ZM17.0479 2.93362C17.0629 2.93362 17.0629 2.86069 17.0479 2.86069C16.9885 2.86069 16.9885 2.93362 17.0479 2.93362ZM7.72248 7.16412C7.76692 7.16412 7.81135 7.16412 7.79633 7.12036C7.78131 7.10577 7.73688 7.10577 7.72248 7.12036V7.16412ZM18.9573 17.0839L18.9723 17.1568H18.9129C18.9129 17.1131 18.9129 17.0839 18.9573 17.0839ZM17.4772 3.28374C17.4478 3.28374 17.4478 3.35667 17.4772 3.35667C17.5217 3.35667 17.5217 3.28374 17.4772 3.28374ZM18.6463 16.5588C18.6907 16.5588 18.6907 16.6317 18.6463 16.6317C18.6169 16.6317 18.6169 16.5588 18.6463 16.5588ZM18.1431 15.2604C18.1137 15.2604 18.1137 15.3333 18.1431 15.3333C18.1875 15.3333 18.1875 15.2604 18.1431 15.2604ZM16.5147 15.1145C16.4853 15.1145 16.4853 15.0416 16.5147 15.0416C16.5591 15.0416 16.5591 15.1145 16.5147 15.1145ZM16.8408 15.2166C16.8107 15.2166 16.8107 15.1437 16.8408 15.1437C16.8852 15.1437 16.8852 15.2166 16.8408 15.2166ZM15.8933 6.02627C15.9377 6.02627 15.9377 6.0992 15.8933 6.0992C15.8638 6.0992 15.8638 6.02627 15.8933 6.02627ZM15.7011 4.59665C15.7449 4.59665 15.7449 4.66959 15.7011 4.66959C15.6711 4.66959 15.6711 4.59665 15.7011 4.59665ZM15.8638 3.37127C15.9083 3.37127 15.9083 3.29832 15.8638 3.29832C15.8338 3.29832 15.8338 3.37127 15.8638 3.37127ZM16.5447 4.36324C16.5147 4.36324 16.5147 4.2903 16.5447 4.2903C16.5892 4.2903 16.5892 4.36324 16.5447 4.36324ZM16.663 14.3122C16.7075 14.3122 16.7075 14.2393 16.663 14.2393C16.6336 14.2393 16.6336 14.3122 16.663 14.3122ZM18.0843 15.4938C18.0542 15.4938 18.0542 15.5668 18.0843 15.5668C18.1287 15.5668 18.1287 15.4938 18.0843 15.4938ZM17.2106 4.12984C17.1812 4.12984 17.1812 4.20277 17.2106 4.20277C17.2551 4.20277 17.2551 4.12984 17.2106 4.12984ZM11.9412 6.93072C11.9856 6.93072 11.9856 6.85777 11.9412 6.85777C11.9111 6.85777 11.9111 6.93072 11.9412 6.93072ZM13.7617 5.66157L13.7767 5.71992H13.7173L13.7022 5.66157H13.7617ZM16.959 5.36981C16.9741 5.36981 16.959 5.29687 16.944 5.29687C16.8852 5.31145 16.8996 5.3844 16.959 5.36981ZM12.2816 15.0999C12.2516 15.0999 12.2516 15.027 12.2816 15.027C12.3261 15.027 12.3261 15.0999 12.2816 15.0999ZM17.4622 3.09409C17.5066 3.09409 17.5066 3.02115 17.4622 3.02115C17.4328 3.02115 17.4328 3.09409 17.4622 3.09409ZM18.4835 16.9526C18.528 16.9526 18.528 17.0256 18.4835 17.0256C18.4541 17.0256 18.4541 16.9526 18.4835 16.9526ZM15.9227 3.18162C15.9671 3.18162 15.9671 3.10868 15.9227 3.10868C15.8933 3.10868 15.8933 3.18162 15.9227 3.18162ZM17.2256 4.46536C17.1956 4.46536 17.1956 4.39242 17.2256 4.39242C17.2701 4.39242 17.2701 4.46536 17.2256 4.46536ZM17.1956 18.0467C17.24 18.0467 17.24 18.1196 17.1956 18.1196C17.1662 18.1196 17.1662 18.0467 17.1956 18.0467ZM17.24 4.62582C17.2106 4.62582 17.2106 4.69877 17.24 4.69877C17.2845 4.69877 17.2845 4.62582 17.24 4.62582ZM17.936 17.0547C17.9065 17.0547 17.9065 16.9818 17.936 16.9818C17.9804 16.9818 17.9804 17.0547 17.936 17.0547ZM14.768 4.37783C14.8125 4.37783 14.8125 4.45077 14.768 4.45077C14.7386 4.45077 14.7386 4.37783 14.768 4.37783ZM16.8408 3.3275C16.8551 3.31291 16.8551 3.23997 16.8408 3.25456C16.7813 3.25456 16.7813 3.3275 16.8408 3.3275ZM18.5136 17.682C18.4836 17.682 18.4836 17.6091 18.5136 17.6091C18.558 17.6091 18.558 17.682 18.5136 17.682ZM18.4986 17.259C18.543 17.259 18.543 17.3319 18.4986 17.3319C18.4692 17.3319 18.4692 17.259 18.4986 17.259ZM18.4692 16.8359C18.5136 16.8359 18.5136 16.9088 18.4692 16.9088C18.4391 16.9088 18.4391 16.8359 18.4692 16.8359ZM15.5822 4.37783C15.5678 4.37783 15.5528 4.2903 15.5678 4.2903C15.6123 4.2903 15.6267 4.37783 15.5822 4.37783ZM18.4986 15.9315C18.543 15.9168 18.528 15.8439 18.4835 15.8585C18.4541 15.8585 18.4692 15.9315 18.4986 15.9315ZM16.352 14.3268C16.3964 14.3268 16.3964 14.2538 16.352 14.2538C16.3226 14.2684 16.3226 14.3414 16.352 14.3268ZM12.8586 5.48651C12.9031 5.47192 12.8887 5.39898 12.8442 5.41357C12.8142 5.41357 12.8292 5.48651 12.8586 5.48651ZM17.3884 3.16703C17.4328 3.16703 17.4328 3.09409 17.3884 3.09409C17.3589 3.10868 17.3589 3.18162 17.3884 3.16703ZM18.0542 16.9672C18.0987 16.9672 18.0987 17.0401 18.0542 17.0401C18.0248 17.0547 18.0248 16.9818 18.0542 16.9672ZM17.5217 18.4843C17.5066 18.4843 17.5066 18.4114 17.5217 18.4114C17.5805 18.3968 17.5955 18.4698 17.5217 18.4843ZM17.1662 15.6251C17.1368 15.6251 17.1368 15.5522 17.1662 15.5522C17.2106 15.5376 17.2106 15.6105 17.1662 15.6251ZM16.3226 6.08462C16.367 6.08462 16.382 6.15755 16.3376 6.15755C16.3076 6.15755 16.2932 6.0992 16.3226 6.08462ZM16.5892 14.9978C16.5591 14.9978 16.5591 14.9249 16.5892 14.9249C16.6336 14.9103 16.6336 14.9833 16.5892 14.9978ZM14.768 5.10722C14.7981 5.10722 14.8125 5.18017 14.783 5.18017C14.7386 5.19475 14.7236 5.12182 14.768 5.10722ZM5.07274 17.3903H5.11717C5.11717 17.3903 5.13157 17.3903 5.13157 17.3756C5.10215 17.4048 5.07274 17.434 5.05772 17.4632C5.04333 17.4632 5.0283 17.4632 5.0283 17.4486L5.07274 17.3903ZM18.8096 17.2881C18.854 17.2736 18.854 17.3465 18.8096 17.3611C18.7796 17.3611 18.7796 17.2881 18.8096 17.2881ZM17.4178 3.47338C17.4622 3.47338 17.4478 3.40044 17.4034 3.40044C17.3733 3.41502 17.3884 3.47338 17.4178 3.47338ZM13.9983 16.5296C14.0283 16.5296 14.0133 16.4566 13.9839 16.4566C13.9394 16.4712 13.9538 16.5441 13.9983 16.5296ZM18.3208 16.3399C18.3653 16.3399 18.3803 16.4128 18.3359 16.4128C18.3058 16.4128 18.2914 16.3399 18.3208 16.3399ZM15.9377 3.29832C15.9821 3.29832 15.9671 3.22538 15.9227 3.22538C15.8933 3.22538 15.9083 3.29832 15.9377 3.29832ZM13.0958 5.47192C13.1403 5.47192 13.1252 5.39898 13.0808 5.39898C13.0514 5.39898 13.0658 5.47192 13.0958 5.47192ZM16.5147 3.76514C16.5591 3.76514 16.5447 3.6922 16.5003 3.6922C16.4703 3.6922 16.4853 3.76514 16.5147 3.76514ZM17.1218 2.45222C17.1662 2.45222 17.1512 2.37928 17.1074 2.37928C17.0773 2.37928 17.0923 2.45222 17.1218 2.45222ZM17.8621 17.4486C17.8765 17.4486 17.8915 17.5215 17.8765 17.5215C17.8177 17.5215 17.8027 17.4486 17.8621 17.4486ZM17.1956 5.20934C17.1956 5.19475 17.1812 5.16557 17.1812 5.16557C17.1218 5.18017 17.1218 5.23852 17.1662 5.23852H17.1812C17.1956 5.23852 17.1956 5.22393 17.1956 5.20934ZM18.5874 15.5813C18.558 15.5813 18.5724 15.6543 18.6018 15.6543C18.6463 15.6543 18.6319 15.5813 18.5874 15.5813ZM17.7582 18.5865C17.6994 18.5865 17.6844 18.5135 17.7438 18.5135C17.7582 18.5135 17.7732 18.5865 17.7582 18.5865ZM17.0035 13.4223L16.9741 13.3786C16.9296 13.3931 16.9296 13.4223 16.944 13.4515C16.9741 13.4515 16.9885 13.4369 17.0035 13.4223ZM17.0035 17.4923C17.0329 17.4923 17.0479 17.5653 17.0185 17.5653C16.9741 17.5653 16.959 17.507 17.0035 17.4923ZM12.4888 5.9825C12.5038 5.9825 12.4888 5.90956 12.4737 5.90956C12.4149 5.90956 12.4293 5.9825 12.4888 5.9825ZM16.7963 14.9833C16.7519 14.9833 16.7519 14.9103 16.7963 14.9103C16.8257 14.9103 16.8257 14.9833 16.7963 14.9833ZM15.6567 4.407C15.6861 4.407 15.6861 4.47994 15.6567 4.47994C15.6123 4.47994 15.6123 4.407 15.6567 4.407ZM16.5297 4.74252C16.4853 4.74252 16.4853 4.66959 16.5297 4.66959C16.5591 4.66959 16.5591 4.74252 16.5297 4.74252ZM18.6018 16.194C18.558 16.194 18.558 16.267 18.6018 16.267C18.6319 16.267 18.6319 16.194 18.6018 16.194ZM16.4853 3.94019C16.5147 3.94019 16.5147 4.01313 16.4853 4.01313C16.4409 4.01313 16.4409 3.94019 16.4853 3.94019ZM16.2337 4.87382C16.2631 4.87382 16.2631 4.94676 16.2337 4.94676C16.1893 4.94676 16.1893 4.87382 16.2337 4.87382ZM17.1368 15.4646C17.0923 15.4646 17.0923 15.3917 17.1368 15.3917C17.1662 15.3917 17.1662 15.4646 17.1368 15.4646ZM17.936 15.4209C17.9654 15.4209 17.951 15.3479 17.9209 15.3479C17.8765 15.3479 17.8915 15.4209 17.936 15.4209ZM5.27989 10.5631C5.23545 10.5631 5.23545 10.4901 5.27989 10.4901C5.3093 10.4901 5.3093 10.5631 5.27989 10.5631ZM17.2995 4.08607C17.2551 4.08607 17.2551 4.15901 17.2995 4.15901C17.3289 4.15901 17.3289 4.08607 17.2995 4.08607ZM12.9325 5.39898C12.9625 5.39898 12.9625 5.32604 12.9325 5.32604C12.8887 5.32604 12.8887 5.39898 12.9325 5.39898ZM18.7946 17.5945C18.824 17.5945 18.824 17.6674 18.7946 17.6674C18.7502 17.6674 18.7502 17.5945 18.7946 17.5945ZM18.1431 15.8293C18.1731 15.8293 18.1731 15.7564 18.1431 15.7564C18.0987 15.7564 18.0987 15.8293 18.1431 15.8293ZM15.2862 17.6674C15.2418 17.6674 15.2418 17.7403 15.2862 17.7403C15.3162 17.7403 15.3162 17.6674 15.2862 17.6674ZM17.24 5.28228C17.1956 5.28228 17.2106 5.35522 17.2551 5.35522C17.2845 5.35522 17.2701 5.28228 17.24 5.28228ZM17.2256 4.97593C17.1812 4.97593 17.1812 5.04887 17.2256 5.04887C17.2551 5.04887 17.2551 4.97593 17.2256 4.97593ZM16.6186 17.4778C16.648 17.4778 16.663 17.5507 16.6336 17.5507C16.5892 17.5507 16.5742 17.4778 16.6186 17.4778ZM17.5511 3.05033C17.5805 3.05033 17.5805 2.97739 17.5511 2.97739C17.5066 2.97739 17.5066 3.05033 17.5511 3.05033ZM14.6648 4.50912C14.6942 4.50912 14.6942 4.58206 14.6648 4.58206C14.6203 4.58206 14.6203 4.50912 14.6648 4.50912ZM18.232 17.4632C18.1875 17.4632 18.1875 17.3903 18.232 17.3903C18.2614 17.3903 18.2614 17.4632 18.232 17.4632ZM18.2169 17.2006C18.1731 17.2006 18.1731 17.1276 18.2169 17.1276C18.247 17.1276 18.247 17.2006 18.2169 17.2006ZM18.3653 17.4923C18.3208 17.4923 18.3058 17.4194 18.3502 17.4194C18.3803 17.4194 18.3947 17.4923 18.3653 17.4923ZM16.9146 15.7126C16.944 15.6981 16.944 15.771 16.9146 15.7856C16.8702 15.7856 16.8702 15.7126 16.9146 15.7126ZM16.3376 14.4581C16.367 14.4435 16.367 14.5164 16.3376 14.531C16.2932 14.531 16.2932 14.4581 16.3376 14.4581ZM15.3163 4.7717C15.3751 4.7717 15.3901 4.84464 15.3306 4.84464C15.3162 4.84464 15.3012 4.7717 15.3163 4.7717ZM16.944 17.2443C16.944 17.2736 16.944 17.3027 16.9296 17.3027C16.8852 17.3027 16.8702 17.2298 16.9146 17.2298C16.9296 17.2298 16.9296 17.2443 16.944 17.2443ZM15.6123 13.6266L15.5378 13.5828C15.5678 13.5828 15.5822 13.5682 15.5972 13.5536L15.6123 13.5828L15.6567 13.6266H15.6123ZM13.9688 11.8323C14.0283 11.8323 14.0283 11.9052 13.9688 11.9052C13.9545 11.9052 13.9545 11.8323 13.9688 11.8323ZM16.7225 4.39242C16.7075 4.39242 16.7075 4.46536 16.7225 4.46536C16.7813 4.46536 16.7813 4.39242 16.7225 4.39242ZM17.3733 16.1065C17.3589 16.1065 17.3589 16.0336 17.3733 16.0336C17.4328 16.0336 17.4328 16.1065 17.3733 16.1065ZM18.8684 17.5799C18.854 17.5799 18.854 17.507 18.8684 17.507C18.9279 17.507 18.9279 17.5799 18.8684 17.5799ZM13.5546 5.2531C13.5546 5.29687 13.5101 5.32604 13.4507 5.36981C13.4507 5.32604 13.5101 5.29687 13.5546 5.2531ZM14.0871 16.5733C14.0727 16.5733 14.0727 16.6463 14.0871 16.6463C14.1466 16.6463 14.1466 16.5733 14.0871 16.5733ZM17.4922 16.0919C17.4772 16.0919 17.4772 16.019 17.4922 16.019C17.5511 16.019 17.5511 16.0919 17.4922 16.0919ZM13.1847 6.31802C13.1403 6.33261 13.1403 6.25967 13.1847 6.24508C13.2141 6.24508 13.2141 6.31802 13.1847 6.31802ZM18.8096 16.267C18.8684 16.2524 18.8684 16.1795 18.8096 16.194C18.7946 16.194 18.7946 16.267 18.8096 16.267ZM15.5528 13.0576C15.5234 13.0576 15.5234 13.116 15.5528 13.116C15.6267 13.116 15.5972 13.0576 15.5528 13.0576ZM16.8852 5.07805C16.944 5.06346 16.944 5.1364 16.8852 5.15099C16.8702 5.15099 16.8702 5.07805 16.8852 5.07805ZM17.8327 16.4274C17.8177 16.3691 17.8915 16.3691 17.9065 16.4274C17.9065 16.442 17.8327 16.442 17.8327 16.4274ZM18.6907 16.5004C18.7351 16.5004 18.7351 16.442 18.6907 16.442C18.6463 16.442 18.6463 16.5004 18.6907 16.5004ZM18.4391 17.6236C18.3947 17.6236 18.3947 17.5653 18.4391 17.5653C18.4835 17.5653 18.4835 17.6236 18.4391 17.6236ZM17.0185 3.35667C17.0773 3.35667 17.0773 3.35667 17.0773 3.31291C17.0773 3.26915 16.9741 3.35667 17.0185 3.35667ZM19.0462 18.7178C19.0462 18.7323 18.9723 18.7178 18.9723 18.7031C18.9867 18.6594 19.0612 18.6594 19.0462 18.7178ZM12.7253 5.77827C12.7698 5.77827 12.7698 5.71992 12.7253 5.71992C12.6809 5.71992 12.6809 5.77827 12.7253 5.77827ZM18.1431 16.4274L18.2026 16.3545V16.4128L18.1431 16.4712V16.4274ZM17.6994 15.4793C17.6994 15.4355 17.6399 15.4355 17.6399 15.4793C17.6399 15.523 17.6994 15.523 17.6994 15.4793ZM17.5805 2.24799C17.6249 2.23341 17.6249 2.17505 17.5805 2.18964C17.5361 2.18964 17.5361 2.24799 17.5805 2.24799ZM17.4328 15.3479C17.4478 15.3333 17.4478 15.2458 17.4328 15.2604C17.3884 15.2604 17.3884 15.3479 17.4328 15.3479ZM18.2914 15.6981V15.7418L18.3359 15.7856H18.3803L18.2914 15.6981ZM17.1956 15.9315V15.9752H17.1218C17.1218 15.9315 17.1662 15.9315 17.1956 15.9315ZM15.3751 13.2327L15.4195 13.2911H15.4639C15.4639 13.2765 15.4345 13.2473 15.4195 13.2327H15.3751ZM15.6567 16.267C15.6123 16.267 15.5972 16.194 15.6417 16.194C15.6567 16.194 15.6711 16.267 15.6567 16.267ZM17.5361 17.1568C17.5511 17.1568 17.5661 17.2298 17.5511 17.2298C17.5066 17.2298 17.4922 17.1568 17.5361 17.1568ZM16.944 17.7695C16.9741 17.7549 16.9885 17.8133 16.959 17.8279C16.9146 17.8279 16.8996 17.7695 16.944 17.7695ZM18.9279 16.6171C18.8835 16.6171 18.8985 16.69 18.9423 16.69C18.9573 16.69 18.9423 16.6171 18.9279 16.6171ZM16.8107 4.27572C16.7669 4.27572 16.7813 4.34865 16.8257 4.34865C16.8408 4.34865 16.8257 4.27572 16.8107 4.27572ZM16.7519 2.97739C16.7669 2.97739 16.7519 2.90445 16.7369 2.90445C16.6924 2.90445 16.7075 2.97739 16.7519 2.97739ZM14.1316 5.41357C14.1172 5.41357 14.1021 5.34063 14.1172 5.34063C14.1616 5.34063 14.176 5.41357 14.1316 5.41357ZM16.5147 3.19621C16.4703 3.19621 16.4853 3.26915 16.5297 3.26915C16.5447 3.26915 16.5297 3.19621 16.5147 3.19621ZM16.8257 5.15099C16.8702 5.15099 16.8702 5.19475 16.8257 5.19475C16.7669 5.19475 16.7669 5.15099 16.8257 5.15099ZM16.678 3.79432C16.6924 3.79432 16.6924 3.86725 16.678 3.86725C16.6336 3.86725 16.6336 3.79432 16.678 3.79432ZM5.14659 17.3027C5.14659 17.2881 5.1616 17.2881 5.176 17.2736C5.19102 17.2736 5.19102 17.2881 5.20604 17.2881L5.13157 17.3756C5.14659 17.3611 5.14659 17.3173 5.14659 17.3027ZM12.3999 15.1437C12.3999 15.0999 12.4443 15.0999 12.4443 15.1437C12.4443 15.2021 12.3999 15.2021 12.3999 15.1437ZM16.5447 14.8665C16.5742 14.8665 16.5892 14.9249 16.5591 14.9249C16.5147 14.9249 16.5003 14.8665 16.5447 14.8665ZM17.3289 15.5376C17.3439 15.5376 17.3439 15.6105 17.3289 15.6105C17.2845 15.6105 17.2845 15.5376 17.3289 15.5376ZM5.36875 19.2138C5.32432 19.2138 5.33934 19.2721 5.35373 19.2867C5.39816 19.2867 5.38377 19.2138 5.36875 19.2138ZM16.6336 3.99854C16.678 3.99854 16.6924 4.04231 16.648 4.04231C16.5892 4.0569 16.5742 4.01313 16.6336 3.99854ZM17.936 18.3822C17.9209 18.3822 17.9209 18.3093 17.936 18.3093C17.9804 18.3093 17.9804 18.3822 17.936 18.3822ZM15.3457 3.94019C15.3901 3.94019 15.3901 3.86725 15.3457 3.86725C15.3306 3.86725 15.3306 3.94019 15.3457 3.94019ZM17.2106 5.47192C17.2551 5.47192 17.2551 5.39898 17.2106 5.39898C17.1956 5.39898 17.1956 5.47192 17.2106 5.47192ZM13.8061 6.02627C13.7911 6.02627 13.7911 5.95332 13.8061 5.95332C13.8506 5.95332 13.8506 6.02627 13.8061 6.02627ZM17.1512 4.43618C17.1368 4.45077 17.1368 4.37783 17.1512 4.36324C17.1956 4.36324 17.1956 4.43618 17.1512 4.43618ZM14.0871 16.7484C14.0727 16.7484 14.0871 16.8068 14.1021 16.8068C14.1616 16.8068 14.1466 16.7484 14.0871 16.7484ZM3.51819 19.0241C3.50379 19.0387 3.51819 19.0824 3.53321 19.097L3.56262 19.0678C3.56262 19.0387 3.54822 19.0241 3.51819 19.0241ZM18.2614 18.5573C18.232 18.5573 18.217 18.5135 18.232 18.4843L18.2914 18.5281C18.2764 18.5427 18.2764 18.5573 18.2614 18.5573ZM18.1287 17.6966V17.7258C18.1137 17.7258 18.0987 17.7112 18.0843 17.7112V17.6966C18.0843 17.6383 18.1287 17.6383 18.1287 17.6966ZM14.1172 5.41357C14.1316 5.41357 14.1316 5.47192 14.1172 5.47192C14.0577 5.47192 14.0577 5.41357 14.1172 5.41357ZM13.9839 5.29687C13.9983 5.29687 13.9983 5.35522 13.9839 5.35522C13.9244 5.36981 13.9244 5.31145 13.9839 5.29687ZM17.0629 2.81692C17.1074 2.80234 17.1074 2.72939 17.0629 2.74398C17.0479 2.74398 17.0479 2.81692 17.0629 2.81692ZM19.0612 16.8068L19.0756 16.8505L19.135 16.8359L19.0612 16.7776V16.8068ZM17.1074 16.5296C17.0773 16.5296 17.0773 16.4712 17.1074 16.4712C17.1512 16.4712 17.1512 16.5296 17.1074 16.5296ZM15.6267 5.99709C15.6267 5.96791 15.6861 5.96791 15.6861 5.99709C15.6861 6.04085 15.6267 6.04085 15.6267 5.99709ZM13.6728 16.3691C13.6284 16.3691 13.6284 16.4274 13.6728 16.4274C13.7022 16.4274 13.7022 16.3691 13.6728 16.3691ZM4.36242 19.4034V19.4618C4.37682 19.4618 4.39184 19.4471 4.40624 19.4471V19.3888C4.39184 19.4034 4.37682 19.4034 4.36242 19.4034ZM15.3457 13.1743C15.3751 13.1743 15.3751 13.116 15.3457 13.116C15.3012 13.116 15.3012 13.1743 15.3457 13.1743ZM18.3208 16.1648C18.3208 16.2086 18.3653 16.2086 18.3653 16.1648C18.3502 16.1065 18.3058 16.1065 18.3208 16.1648ZM14.3831 12.0219C14.3982 12.0073 14.3982 11.949 14.3831 11.9636C14.3243 11.9636 14.3243 12.0219 14.3831 12.0219ZM17.0923 4.64041C17.0479 4.64041 17.0479 4.68417 17.0923 4.68417C17.1512 4.66959 17.1512 4.62582 17.0923 4.64041ZM15.8488 4.39242L15.775 4.47994V4.45077C15.775 4.43618 15.7894 4.42159 15.8044 4.39242H15.8488ZM17.6844 16.3253C17.6844 16.3399 17.6249 16.3399 17.6249 16.3253C17.6249 16.267 17.6844 16.267 17.6844 16.3253ZM15.5822 4.04231C15.5972 4.04231 15.5972 4.10066 15.5822 4.10066C15.5234 4.10066 15.5234 4.0569 15.5822 4.04231ZM3.6809 19.0824V19.0095C3.62207 19.0241 3.62207 19.097 3.6809 19.0824ZM18.9279 16.2524C18.9129 16.2524 18.9129 16.3108 18.9279 16.3108C18.9867 16.3108 18.9867 16.2524 18.9279 16.2524ZM12.3705 15.0853C12.3999 15.0853 12.3999 15.1437 12.3705 15.1437C12.3261 15.1583 12.3261 15.0999 12.3705 15.0853ZM19.2683 16.9526C19.2533 16.9088 19.1945 16.9088 19.2089 16.9526C19.2089 16.9818 19.2683 16.9818 19.2683 16.9526ZM17.7288 16.8797L17.655 16.8068H17.7138C17.7138 16.8213 17.7288 16.8359 17.7288 16.8505V16.8797ZM14.1466 16.69L14.191 16.7484V16.69L14.1466 16.6463V16.69ZM3.84424 19.9869C3.85863 20.0015 3.90307 19.9723 3.90307 19.9431C3.87366 19.9286 3.84424 19.9431 3.84424 19.9869ZM14.2949 4.903C14.2949 4.94676 14.3387 4.94676 14.3387 4.903C14.3243 4.85923 14.2799 4.85923 14.2949 4.903ZM16.1154 2.74398C16.1004 2.70022 16.056 2.70022 16.071 2.74398C16.071 2.78775 16.1154 2.78775 16.1154 2.74398ZM16.1004 5.41357C16.1448 5.41357 16.1448 5.45734 16.1004 5.45734C16.056 5.47192 16.056 5.42816 16.1004 5.41357ZM17.2701 3.10868L17.1368 3.25456H17.1662L17.2701 3.10868ZM13.88 5.58862V5.54486C13.88 5.53027 13.9244 5.48651 13.9394 5.47192V5.48651L13.88 5.58862ZM12.6665 6.01167C12.6959 6.01167 12.6809 5.96791 12.6515 5.96791C12.607 5.9825 12.6221 6.02627 12.6665 6.01167ZM13.91 5.83662C13.91 5.89497 13.91 5.89497 13.895 5.89497C13.8356 5.89497 13.91 5.79286 13.91 5.83662ZM17.8027 16.3253C17.8027 16.3691 17.7438 16.3691 17.7438 16.3253C17.7438 16.3108 17.8027 16.3108 17.8027 16.3253ZM16.5742 4.11525C16.5892 4.11525 16.5892 4.1736 16.5742 4.1736C16.5297 4.1736 16.5297 4.11525 16.5742 4.11525ZM17.5805 17.9008C17.5361 17.9008 17.5361 17.8571 17.5661 17.8425L17.5955 17.8716C17.5955 17.8863 17.5955 17.9008 17.5805 17.9008ZM17.4328 15.9606C17.4328 15.9168 17.4772 15.9023 17.4772 15.9461C17.4772 15.9752 17.4328 15.9898 17.4328 15.9606ZM3.71094 19.3304V19.3742C3.74035 19.3742 3.75537 19.345 3.75537 19.3158C3.74035 19.3013 3.74035 19.3158 3.71094 19.3304ZM17.2995 5.00511C17.3439 5.00511 17.3439 5.00511 17.3439 4.97593C17.3439 4.93217 17.2551 5.00511 17.2995 5.00511ZM17.1662 2.64187C17.2106 2.64187 17.2106 2.64187 17.2106 2.61269C17.2106 2.56893 17.1218 2.64187 17.1662 2.64187ZM5.90133 17.5215C5.93137 17.5215 5.94576 17.5653 5.91635 17.5653C5.87192 17.5653 5.85689 17.5215 5.90133 17.5215ZM17.7582 18.0175C17.7582 18.0321 17.7732 18.0467 17.7883 18.0613V18.0905C17.7438 18.0905 17.7288 18.0467 17.7582 18.0175ZM19.0756 17.0839L19.1501 17.0693C19.1501 17.0985 19.0906 17.1131 19.0756 17.1131V17.0839ZM15.1973 17.6236C15.1679 17.6236 15.1679 17.6674 15.1973 17.6674C15.2418 17.6674 15.2418 17.6236 15.1973 17.6236ZM16.367 3.38585C16.367 3.41503 16.4114 3.41503 16.4114 3.38585C16.4114 3.34209 16.367 3.34209 16.367 3.38585ZM17.9804 16.3691C17.9804 16.3253 18.0098 16.3108 18.0098 16.3545C18.0248 16.4128 17.9954 16.4274 17.9804 16.3691ZM17.8027 17.5945C17.7883 17.5799 17.7732 17.5653 17.7582 17.5653C17.7582 17.5507 17.7582 17.5361 17.7732 17.5361C17.8027 17.5215 17.8177 17.5653 17.8027 17.5945ZM14.1021 4.96135C14.1466 4.96135 14.1466 4.96135 14.1466 4.91758C14.1316 4.87382 14.0871 4.96135 14.1021 4.96135ZM17.9654 15.5813C17.936 15.5813 17.936 15.6251 17.9654 15.6251C18.0098 15.6105 18.0098 15.5668 17.9654 15.5813ZM16.648 15.2896C16.648 15.2604 16.6924 15.2604 16.6924 15.2896C16.6924 15.3333 16.648 15.3333 16.648 15.2896ZM15.6711 4.78629C15.6711 4.83005 15.6267 4.83005 15.6267 4.78629C15.6267 4.75712 15.6711 4.75712 15.6711 4.78629ZM16.944 14.1809C16.8996 14.1809 16.8996 14.2247 16.944 14.2247C16.9741 14.2247 16.9741 14.1809 16.944 14.1809ZM17.8471 4.83005C17.8765 4.83005 17.8765 4.78629 17.8471 4.78629C17.8027 4.78629 17.8027 4.83005 17.8471 4.83005ZM16.4265 14.7498L16.4703 14.7936H16.4265L16.382 14.7498H16.4265ZM18.1731 17.0401H18.0987C18.0987 17.011 18.1431 17.011 18.1731 17.011V17.0401ZM19.1056 17.5361C19.12 17.5215 19.12 17.5799 19.1056 17.5945C19.0612 17.5945 19.0612 17.5361 19.1056 17.5361ZM7.02657 18.8345C6.99715 18.8636 7.02657 18.8928 7.04159 18.8928C7.04159 18.8782 7.05598 18.8636 7.071 18.849C7.04158 18.849 7.04158 18.8198 7.02657 18.8345ZM16.9885 5.71992C16.9885 5.7345 17.0329 5.7345 17.0329 5.71992C17.0329 5.66157 16.9885 5.66157 16.9885 5.71992ZM18.3502 15.9898C18.3502 16.0481 18.3947 16.0481 18.3947 15.9898C18.3947 15.9752 18.3502 15.9752 18.3502 15.9898ZM17.655 2.77316C17.6844 2.77316 17.6844 2.72939 17.655 2.72939C17.6105 2.74398 17.6105 2.78775 17.655 2.77316ZM13.88 5.36981C13.8656 5.36981 13.8656 5.31145 13.88 5.31145C13.9244 5.31145 13.9244 5.36981 13.88 5.36981ZM13.599 5.85121C13.584 5.85121 13.584 5.80744 13.599 5.80744C13.6578 5.80744 13.6578 5.85121 13.599 5.85121ZM15.6123 13.2035C15.6123 13.1598 15.5528 13.1598 15.5528 13.2035C15.5528 13.2181 15.6123 13.2181 15.6123 13.2035ZM17.5955 16.442C17.6399 16.442 17.6399 16.5004 17.5955 16.5004C17.5805 16.5004 17.5805 16.442 17.5955 16.442ZM17.5066 16.2086C17.5217 16.2086 17.5511 16.2378 17.5661 16.2524H17.5066L17.4922 16.2086H17.5066ZM17.5955 3.82349C17.6249 3.82349 17.6249 3.82349 17.6249 3.76514C17.6249 3.75055 17.5511 3.82349 17.5955 3.82349ZM3.90307 18.9658C3.85864 18.9658 3.87365 19.0095 3.88867 19.0241C3.91808 19.0241 3.91809 18.9803 3.90307 18.9658ZM17.2106 3.54632C17.2106 3.53173 17.1512 3.60467 17.1662 3.60467C17.2106 3.60467 17.2106 3.60467 17.2106 3.54632ZM17.3589 3.03574C17.3884 3.02115 17.3884 2.97739 17.3589 2.99197C17.3145 2.99197 17.3145 3.03574 17.3589 3.03574ZM17.3145 16.1648L17.3289 16.2232H17.2701L17.3145 16.1648ZM17.8621 2.46682C17.8621 2.42305 17.8327 2.42305 17.8327 2.46682C17.8327 2.52517 17.8621 2.52517 17.8621 2.46682ZM5.25047 19.5784C5.26487 19.5784 5.26486 19.5784 5.26486 19.593C5.26486 19.593 5.27989 19.593 5.29491 19.5784C5.3093 19.5347 5.25047 19.5201 5.25047 19.5784ZM17.6399 16.6171C17.6994 16.6171 17.6994 16.6463 17.6399 16.6463C17.5955 16.6463 17.5955 16.6171 17.6399 16.6171ZM14.4576 16.7921C14.4132 16.7921 14.4132 16.8213 14.4576 16.8213C14.5164 16.8213 14.5164 16.7921 14.4576 16.7921ZM17.8327 15.3188C17.8327 15.3042 17.8177 15.2896 17.8027 15.275H17.7582L17.8027 15.3188H17.8327ZM18.2169 16.6608C18.232 16.7046 18.232 16.7046 18.2026 16.7046C18.1581 16.7046 18.2169 16.6171 18.2169 16.6608ZM3.97755 18.849C3.99194 18.8928 3.97755 18.8782 3.97755 18.922C4.02198 18.9074 4.02198 18.8345 3.97755 18.849ZM6.89327 18.6156C6.86385 18.6302 6.86385 18.6448 6.86385 18.674C6.90829 18.674 6.90829 18.6302 6.89327 18.6156ZM15.8782 5.66157C15.8638 5.60322 15.9083 5.60322 15.9227 5.66157C15.9227 5.67615 15.8782 5.67615 15.8782 5.66157ZM12.3261 15.2313C12.3261 15.2166 12.3705 15.2021 12.3705 15.2166C12.3849 15.2604 12.3405 15.275 12.3261 15.2313ZM16.5003 4.85923L16.4853 4.78629H16.5297L16.5003 4.85923ZM18.2764 16.8213H18.2026L18.232 16.7776L18.2764 16.8213ZM17.7438 2.58352C17.7883 2.58352 17.7883 2.58352 17.7883 2.53975C17.7883 2.52517 17.7138 2.58352 17.7438 2.58352ZM15.9971 4.34865L15.9671 4.39242L15.9227 4.34865H15.9971ZM6.68611 18.9949H6.74557V18.9658C6.70113 18.9658 6.68611 18.9658 6.68611 18.9949ZM19.2978 16.6463L19.2533 16.6025V16.6463L19.3128 16.6754L19.2978 16.6463ZM17.3733 4.15901L17.3289 4.24654L17.4178 4.14442L17.3733 4.15901ZM17.4772 16.1357C17.4772 16.1503 17.4328 16.1648 17.4328 16.1503C17.4328 16.1065 17.4772 16.0919 17.4772 16.1357ZM14.6792 9.70243C14.6497 9.7316 14.6203 9.7316 14.6053 9.7316L14.6354 9.68781C14.6497 9.70243 14.6648 9.70243 14.6792 9.70243ZM15.0052 4.43618C15.0496 4.43618 15.0496 4.43618 15.0496 4.39242C15.0496 4.36324 14.9758 4.45077 15.0052 4.43618ZM17.6844 3.22538C17.7138 3.22538 17.7138 3.22538 17.7138 3.19621C17.6994 3.15245 17.6399 3.23997 17.6844 3.22538ZM13.7323 6.07002L13.7173 6.14297L13.6728 6.15755L13.7323 6.07002ZM16.1448 3.47338C16.1599 3.51714 16.1893 3.51714 16.1743 3.47338C16.1743 3.42962 16.1448 3.42962 16.1448 3.47338ZM13.4507 16.0481C13.4363 16.0044 13.4062 16.019 13.4213 16.0628C13.4213 16.0919 13.4507 16.0773 13.4507 16.0481ZM14.8719 4.21736C14.8719 4.26112 14.8719 4.26112 14.8425 4.26112C14.7981 4.26112 14.8719 4.20277 14.8719 4.21736ZM17.9654 16.0044C17.9654 16.019 17.9209 16.019 17.9209 16.0044C17.9209 15.9606 17.9654 15.9606 17.9654 16.0044ZM13.0213 5.51569C13.0213 5.47192 12.9769 5.47192 12.9769 5.51569C12.9769 5.53027 13.0213 5.53027 13.0213 5.51569ZM17.1662 16.0481C17.1662 16.0628 17.1218 16.0628 17.1218 16.0481C17.1218 16.0044 17.1662 16.0044 17.1662 16.0481ZM16.071 3.59008C16.071 3.60467 16.1154 3.60467 16.1154 3.59008C16.1154 3.54632 16.071 3.54632 16.071 3.59008ZM13.4657 5.90956C13.4657 5.92415 13.4657 5.92415 13.4213 5.92415C13.3918 5.93874 13.4657 5.85121 13.4657 5.90956ZM4.02198 17.93C3.99194 17.93 3.97754 17.9446 3.99194 17.9738C4.03637 17.9738 4.02198 17.9446 4.02198 17.93ZM18.4692 16.69C18.5136 16.69 18.5136 16.7192 18.4692 16.7192C18.4391 16.7192 18.4391 16.69 18.4692 16.69ZM17.3145 18.178C17.2845 18.178 17.2845 18.1488 17.3145 18.1488C17.3589 18.1488 17.3589 18.178 17.3145 18.178ZM14.8569 15.9752C14.8569 16.0044 14.8569 16.019 14.9013 16.0336C14.8569 16.0481 14.8425 16.0044 14.8125 15.9898C14.8125 15.9898 14.8275 15.9898 14.8569 15.9752ZM16.2043 17.4194C16.1893 17.4194 16.1743 17.4048 16.1599 17.3903C16.1743 17.3903 16.1893 17.3756 16.2043 17.3756C16.2187 17.3756 16.2187 17.4194 16.2043 17.4194ZM18.3502 17.3027C18.3502 17.259 18.3803 17.259 18.3803 17.3027C18.3803 17.3319 18.3502 17.3319 18.3502 17.3027ZM15.9671 4.04231C15.9671 4.08607 15.9227 4.08607 15.9227 4.04231C15.9083 4.02772 15.9527 4.02772 15.9671 4.04231ZM16.2781 5.18017C16.2781 5.22392 16.2487 5.22392 16.2487 5.18017C16.2487 5.15099 16.2781 5.15099 16.2781 5.18017ZM17.3589 18.2218C17.3733 18.2218 17.3733 18.2655 17.3589 18.2655C17.3145 18.2655 17.3145 18.2218 17.3589 18.2218ZM18.1137 18.5573C18.0987 18.5281 18.1287 18.5281 18.1431 18.5573C18.1431 18.6011 18.1137 18.6011 18.1137 18.5573ZM15.0196 13.0139V12.9993L15.0496 13.0139V13.0722C15.0346 13.0576 15.0196 13.0285 15.0196 13.0139ZM17.4922 18.3385C17.5066 18.3385 17.5066 18.3822 17.4922 18.3822C17.4478 18.3822 17.4478 18.3385 17.4922 18.3385ZM17.5217 15.4063H17.5805L17.5066 15.3625L17.5217 15.4063ZM16.8107 14.852C16.8107 14.8665 16.8107 14.8811 16.8257 14.8957L16.7519 14.8665L16.8107 14.852ZM16.2631 17.4486H16.3226V17.4923L16.2631 17.4486ZM12 14.8811V14.8228L12.0444 14.8811H12ZM15.9821 5.48651C15.9971 5.48651 16.0115 5.47192 16.0266 5.47192L15.9821 5.54486V5.48651ZM18.3502 16.69H18.3947V16.7192H18.3502V16.69ZM18.7502 17.5945C18.7502 17.6091 18.7502 17.6091 18.7057 17.6091C18.6763 17.6091 18.7502 17.5507 18.7502 17.5945ZM13.8656 5.28228C13.88 5.28228 13.88 5.31145 13.8656 5.31145C13.8061 5.31145 13.8061 5.28228 13.8656 5.28228ZM18.1875 16.5296C18.1875 16.4712 18.2169 16.4712 18.2169 16.5296C18.2169 16.5441 18.1875 16.5441 18.1875 16.5296ZM18.7207 16.267C18.7207 16.2816 18.7502 16.2816 18.7502 16.267C18.7502 16.2086 18.7207 16.2086 18.7207 16.267ZM5.94576 17.5945H5.96078C5.94576 17.6091 5.93137 17.6383 5.93137 17.6674C5.91635 17.6383 5.91635 17.5945 5.94576 17.5945ZM17.7288 18.2509H17.6844V18.2072L17.7288 18.2509ZM14.0283 5.03429V4.99052L13.9839 5.06346L14.0283 5.03429ZM6.04965 18.1196L6.09408 18.1634V18.1196H6.04965ZM13.1847 5.82203L13.2291 5.8658H13.1847V5.82203ZM14.0283 16.5733H14.0727L14.0283 16.5296V16.5733ZM16.4409 3.76514L16.3964 3.8089H16.4409V3.76514ZM16.663 17.5945V17.5507L16.7075 17.5799L16.663 17.5945ZM4.99889 17.6091C4.98387 17.6091 4.98387 17.5653 4.99889 17.5653H5.0283L4.99889 17.6091ZM15.76 3.73596C15.76 3.6922 15.7305 3.6922 15.7305 3.73596C15.7305 3.75055 15.76 3.75055 15.76 3.73596ZM16.8257 17.7695V17.7112L16.8552 17.7695H16.8257ZM12.2816 15.2166L12.2516 15.1583H12.2816V15.2166ZM16.1893 5.64697L16.1448 5.58862L16.1599 5.64697H16.1893ZM17.3589 15.9168C17.3439 15.8731 17.3589 15.8731 17.3733 15.9168C17.3733 15.9606 17.3589 15.9606 17.3589 15.9168ZM15.2862 8.94382C15.2568 8.94382 15.2418 8.92927 15.2418 8.91465C15.2568 8.92927 15.2862 8.92927 15.3012 8.92927C15.3012 8.92927 15.3012 8.94382 15.2862 8.94382ZM16.6186 4.72794C16.6186 4.7717 16.6036 4.78629 16.6036 4.74252C16.6036 4.71335 16.6186 4.69877 16.6186 4.72794ZM17.4622 15.8293C17.4622 15.7856 17.4772 15.7856 17.4772 15.8293C17.4772 15.8585 17.4622 15.8585 17.4622 15.8293ZM17.3145 15.2313C17.3145 15.2604 17.3289 15.2604 17.3289 15.2313C17.3289 15.1875 17.3145 15.1875 17.3145 15.2313ZM17.4178 3.64843C17.4622 3.64843 17.4622 3.63385 17.4178 3.63385C17.3884 3.63385 17.3884 3.64843 17.4178 3.64843ZM16.0416 6.47849V6.52225H16.0115L16.0416 6.47849ZM16.9146 14.4581V14.4873H16.959L16.9146 14.4581ZM14.1616 16.8359H14.206L14.1616 16.8068V16.8359ZM5.93137 18.0175V18.0613H5.96078L5.93137 18.0175ZM15.7305 3.19621L15.7011 3.23997H15.7305V3.19621ZM18.3058 17.2298L18.247 17.2006H18.2914L18.3058 17.2298ZM17.1512 15.7418V15.6981L17.1812 15.7418H17.1512ZM16.0115 4.655V4.62582H16.056L16.0115 4.655ZM13.1102 5.93874C13.1546 5.92415 13.1546 5.93874 13.1102 5.95332C13.0808 5.95332 13.0808 5.93874 13.1102 5.93874ZM17.1368 2.72939V2.75857L17.1812 2.72939H17.1368ZM17.3145 15.3771C17.3289 15.4209 17.3439 15.4209 17.3289 15.3771C17.3289 15.3479 17.3145 15.3479 17.3145 15.3771ZM3.03004 18.0467V18.0029H3L3.03004 18.0467ZM20.9706 21.9563C20.9856 21.9708 21 21.9854 21 22V21.9563H20.9706ZM16.5447 3.34209H16.5297L16.4853 3.41503L16.5447 3.34209ZM13.91 15.275C13.91 15.275 13.9244 15.275 13.9394 15.2604V15.275C13.9394 15.3042 13.9244 15.2896 13.91 15.275ZM18.7502 16.7921H18.7796L18.7502 16.8213V16.7921ZM14.0133 16.1648C14.0133 16.194 14.0283 16.2086 14.0427 16.2086L14.0133 16.1648ZM14.8719 4.68417C14.8569 4.68417 14.8425 4.69877 14.8425 4.71335L14.8869 4.68417H14.8719ZM12.1189 14.9249L12.0745 14.9103H12.1189V14.9249ZM15.6123 7.22247V7.20788C15.5972 7.20788 15.5822 7.22247 15.5678 7.22247H15.6123ZM5.0283 17.4923C5.01328 17.4923 5.01328 17.507 4.99889 17.507C4.99889 17.507 4.99889 17.4923 5.01329 17.4778C5.01329 17.4778 5.01328 17.4923 5.0283 17.4923ZM16.648 3.13786L16.6336 3.18162H16.648V3.13786ZM18.4692 16.0919H18.4247L18.4692 16.1065V16.0919ZM17.936 17.6528C17.951 17.6528 17.951 17.6528 17.9654 17.6674C17.951 17.6674 17.936 17.6528 17.9209 17.6528H17.936ZM20.9556 21.9271V21.9125H20.9412L20.9556 21.9271ZM16.4703 17.6091L16.4853 17.6236H16.4703V17.6091ZM4.99889 17.6236L4.98387 17.6383V17.6236H4.99889ZM16.8257 4.45077C16.8408 4.43618 16.8408 4.42159 16.8408 4.42159L16.8257 4.45077ZM9.95731 14.9978C9.95731 14.9978 9.95731 14.9833 9.97233 14.9833L9.95731 14.9978ZM16.3376 17.5215L16.352 17.5361C16.3376 17.5361 16.3376 17.5215 16.3376 17.5215ZM17.7883 18.7761V18.7907V18.7761ZM13.5251 15.9168C13.5251 15.9315 13.5395 15.9315 13.5395 15.9461C13.5251 15.9315 13.5251 15.9315 13.5251 15.9168ZM17.2551 4.20277C17.2551 4.21736 17.2551 4.21736 17.24 4.21736L17.2551 4.20277Z" fill="white"/>
</svg>
