<svg version="1.1" xmlns="http://www.w3.org/2000/svg" x="0px" y="0px" viewBox="0 0 24 24">
<path style="fill-rule:evenodd;clip-rule:evenodd;fill:#FFFFFF;" d="M24,19c-0.2-3.8-2.8-6.3-4.1-9.7c-0.1-1.8,0-4.2-1.2-5.8c-0.5,0.1-0.5,1.9-0.7,2.4c-0.6,0-0.9-0.8-1.8-0.9
	C15.8,5,15,5.2,14.6,4.8c-0.1-0.5,1.5-2.1,0.9-2.2c-2.1,0.7-3.2,2.6-5.1,3.6c-2.6,0.8-5.7,1.1-8,2.5c-1,0.6-1.4,1.2-2,2.1
	c-0.2,0.2-0.5,0.7-0.3,1c3.1-0.1,6.3-1.4,9.2,0.6c2.6,1.5,0.9,6-1.4,6.8c-1.4,0.5-3.1,0.6-4.7,0.6c-0.6,0-0.5,0-1.1,0
	c-0.3,0-0.7,0.3-0.5,0.3c0.4,0.1,0.3,0.1,0.6,0.2c3.1,0.5,6.5,1.1,9.1-1c4.4-3.6,5.1-6.1,9.8-1.3c1,1,1.8,1.4,2.6,2.3
	C23.9,20.7,24,19.6,24,19z M13.6,5.9c0.3-0.4,1,0,0.7,0.5C14,6.8,13.4,6.3,13.6,5.9z M14.5,11.1c-1,2.1-2.3,4-3.5,6c0,0,0,0-0.1,0
	c0.9-2.2,1.7-4.4,2.6-6.6c0.3-0.7,0.6-1.9,1.2-1.8C15.8,8.9,14.8,10.5,14.5,11.1z M17.6,7.9c-0.5,0.2-0.8-0.7-0.3-0.8
	C17.8,6.9,18.1,7.7,17.6,7.9z M0.2,12.8c3.9-1.2,11.5-1.2,8.7,4.5c-0.8-1.4,0.8-2.8-1.5-4C4.8,12.1,0.5,13.8,0.2,12.8z M22.4,20.9
	c-3-1.9-4.7-6.9-8.4-2.5c-0.4,0.5-0.9,1.1-1.6,1.2c0,0,0,0,0,0c1.2-1.1,2-3.1,3.6-3.4c2.9-0.6,4.2,2.1,5.8,3.6
	C22.6,20.4,24.5,22.2,22.4,20.9z"/>
</svg>
