<svg xmlns="http://www.w3.org/2000/svg" viewBox="0 0 96 96" style="enable-background:new 0 0 96 96" xml:space="preserve">
  <path d="m43.4 40.3-9.5 9.4c-.8.8-2.4.8-3.2 0l-3.2-3.1-7.9 38.5H0s11.8-67 13.4-70.7 9.5-4.7 12.6-.8c1.6 2 5.7 7.5 9.6 12.6 3.8 5.1 7.4 9.8 7.8 10.2.7.8.7 3.1 0 3.9zm7.6 4.6c-1.2-1.2-3.2-1.2-4.5 0l-8 8c-1.2 1.2-1.2 3.2 0 4.4l8 8c1.2 1.2 3.2 1.2 4.5 0l8-8c1.2-1.2 1.2-3.2 0-4.4l-8-8zm41.2 19.8c0-1.6-7.1-42.4-8.7-48.7-1.6-6.3-9.8-5.9-12.6-3.1-1.8 1.8-8.3 10.9-12.8 17.3-2.4 3.4-4.3 6-4.5 6.3-.8.8-.8 3.1 0 3.9l8.7 8.6c.8.8 2.4.8 3.9 0 1.6-.8 3.2-2.4 3.2-2.4l3.9 22.8h14.2c1.6 0 4.7-3.2 4.7-4.7zm1.7 8.5c-.1-.4-.4-.6-.8-.6h-18c-.5 0-.9.5-.8.9l2 10.2c.1.4.4.6.8.6h18.1c.5 0 .9-.5.8-.9l-2.1-10.2z" style="fill:#fff"/>
</svg>
