<svg xmlns="http://www.w3.org/2000/svg" viewBox="0 0 96 96" style="enable-background:new 0 0 96 96" xml:space="preserve">
  <path d="M36.1 51c.1.7.1 1.4.1 2.1v40.4C36 95 35.1 96 33.8 96c-1.3 0-2.2-1.1-2.2-2.6V52.3c0-.4 0-.9.1-1.3.1-.6.3-1.1.8-1.4.4-.4 1-.6 1.5-.6.6 0 1.1.2 1.5.6.3.3.5.8.6 1.4zM25 49.3c-1.4-.1-2.4 1.1-2.4 2.9v20.1c0 1.6 1 2.8 2.3 2.8s2.3-1.1 2.3-2.8V52.2c-.1-1.7-.9-2.8-2.2-2.9zM15.8 54c-1.3 0-2.2 1.1-2.2 2.7V71c0 1.7.9 2.7 2.2 2.7 1.3 0 2.3-1 2.3-2.6V56.6c.1-1.5-1-2.6-2.3-2.6zm26.9-1.5c-1.3 0-2.2 1.1-2.2 2.7v14.3c0 1.7.9 2.7 2.2 2.7 1.3 0 2.3-1 2.3-2.6.1-4.8.1-9.6 0-14.5 0-1.5-1-2.6-2.3-2.6zm-26.6-13c8.3-5.6 21.8-5.6 30.1 0l5 3.3 2.7 1.8c7.5 5 19.6 5 27.1 0l2.2-1.5c1.1-5.2 1-10.6-.3-15.8-1.3-5.2-3.7-10-7.2-14.1S67.9 5.8 63 3.5C58.1 1.2 52.8 0 47.3 0c-9.7 0-19 3.8-25.8 10.5S10.8 26.4 10.8 35.9c0 2.3.2 4.5.6 6.8l4.7-3.2zM86 48.4c-.3-.5-.8-.8-1.4-.9-.6-.1-1.1 0-1.6.3l-2.9 2c-3.7 2.2-8 3.4-12.3 3.4s-8.6-1.2-12.3-3.4l-7.6-5.1c-4.4-2.9-10.1-4.6-16.2-4.6s-11.9 1.6-16.2 4.6l-5 3.3c-.5.3-.8.8-.9 1.3-.1.5 0 1.1.3 1.6s.8.8 1.4.9 1.1 0 1.6-.3l4.9-3.3c3.7-2.5 8.6-3.8 13.8-3.8 5.2 0 10.2 1.4 13.8 3.8l7.6 5.1c4 2.7 9.2 4.1 14.7 4.1s10.7-1.5 14.7-4.1l2.9-2c.5-.3.8-.8.9-1.3.3-.5.1-1.1-.2-1.6zm-34.3 9.4c-1.3 0-2.3 1-2.3 2.2v3.9c0 1.2 1 2.2 2.3 2.2 1.2 0 2.3-1 2.3-2.2V60c0-1.2-1-2.2-2.3-2.2zm26.9 2.1c-1.3 0-2.3 1-2.3 2.2V70c0 1.2 1 2.2 2.3 2.2 1.2 0 2.3-1 2.3-2.2v-7.9c0-1.2-1-2.2-2.3-2.2zm-17.9 1.2c-1.3 0-2.3 1-2.3 2.2V85c0 1.2 1 2.2 2.3 2.2 1.2 0 2.3-1 2.3-2.2V63.4c-.1-1.3-1.1-2.3-2.3-2.3zm8.9.9c-1.3 0-2.3 1-2.3 2.2v18.4c0 1.2 1 2.2 2.3 2.2 1.2 0 2.3-1 2.3-2.2V64.2c0-1.2-1.1-2.2-2.3-2.2z" style="fill:#fff"/>
</svg>
