<svg version="1.1" xmlns="http://www.w3.org/2000/svg" x="0px" y="0px" viewBox="0 0 24 24">
<path fill="#FFFFFF" d="M6.8,9.3L6.8,9.3c0-4.2,3.4-7.5,7.5-7.5c4.1,0,7.5,3.4,7.5,7.5v0c0,0.1,0,0.2-0.1,0.2
	c-0.1,0.1-0.2,0.1-0.3,0.1H7.2c-0.1,0-0.2,0-0.3-0.1C6.8,9.5,6.8,9.4,6.8,9.3z M1.4,17.2c-0.1,0-0.2,0-0.3,0.1
	C1,17.3,1,17.4,0.9,17.5c0,0.1,0,0.2,0,0.3C0.9,17.8,1,17.9,1,18c0.1,0.1,0.1,0.1,0.2,0.1c0.1,0,0.2,0,0.3,0c0.1,0,0.2-0.1,0.2-0.2
	c0.1-0.1,0.1-0.2,0.1-0.3c0-0.1,0-0.2-0.1-0.3C1.6,17.2,1.5,17.2,1.4,17.2z M5.6,15.1c-0.1,0-0.2,0-0.2,0.1c-0.1,0-0.1,0.1-0.2,0.2
	c0,0.1-0.1,0.1-0.1,0.2c0,0.1,0,0.2,0.1,0.2l0,0c0,0.1,0.1,0.1,0.2,0.2C5.5,16,5.5,16,5.6,16h15.3c0.1,0,0.2,0,0.2-0.1
	s0.1-0.1,0.2-0.2l0,0c0-0.1,0.1-0.1,0.1-0.2c0-0.1,0-0.2-0.1-0.2c0-0.1-0.1-0.1-0.2-0.2c-0.1,0-0.1-0.1-0.2-0.1H5.6z M5.2,11.5
	c0,0.1,0.1,0.2,0.1,0.3c0.1,0.1,0.2,0.1,0.3,0.1H23c0.1,0,0.2,0,0.3-0.1c0.1-0.1,0.1-0.2,0.1-0.3v0c0-0.1,0-0.1,0-0.2
	c0-0.1-0.1-0.1-0.1-0.2c0,0-0.1-0.1-0.1-0.1c-0.1,0-0.1,0-0.2,0H5.6c-0.1,0-0.1,0-0.2,0c-0.1,0-0.1,0.1-0.1,0.1s-0.1,0.1-0.1,0.2
	C5.2,11.3,5.2,11.4,5.2,11.5L5.2,11.5z M16.4,21.3H8.6c-0.5,0-0.6,0.6-0.2,0.9l0,0c0.1,0,0.1,0,0.2,0h7.8c0.1,0,0.1,0,0.2,0l0,0
	C17.1,22,16.9,21.3,16.4,21.3z M21.2,19.3h-7.8c-0.5,0-0.6,0.6-0.2,0.9l0,0c0.1,0,0.1,0,0.2,0h7.8c0.1,0,0.1,0,0.2,0l0,0
	C21.8,19.9,21.7,19.3,21.2,19.3z M23.5,17.2H10.9c-0.4,0-0.6,0.5-0.3,0.8l0,0c0,0,0.1,0.1,0.2,0.1c0.1,0,0.1,0,0.2,0h12.7
	c0.1,0,0.1,0,0.2,0c0.1,0,0.1-0.1,0.1-0.1l0,0C24.1,17.7,23.9,17.2,23.5,17.2z M9.2,18.1L9.2,18.1c0.5-0.2,0.3-0.9-0.2-0.9H3
	c-0.5,0-0.6,0.6-0.2,0.9l0,0c0.1,0,0.1,0,0.2,0h6C9.1,18.1,9.2,18.1,9.2,18.1z M4,11.9c0.1,0,0.2,0,0.3-0.1c0.1-0.1,0.1-0.1,0.2-0.2
	c0-0.1,0-0.2,0-0.3c0-0.1-0.1-0.2-0.1-0.2C4.2,11,4.2,11,4.1,11c-0.1,0-0.2,0-0.3,0c-0.1,0-0.2,0.1-0.2,0.2
	c-0.1,0.1-0.1,0.2-0.1,0.3c0,0.1,0,0.2,0.1,0.3C3.7,11.8,3.9,11.9,4,11.9z M15.2,13.6C15.2,13.6,15.2,13.6,15.2,13.6
	c0-0.1,0-0.2,0-0.2c0-0.1,0-0.1-0.1-0.2c0-0.1-0.1-0.1-0.2-0.1c-0.1,0-0.1,0-0.2,0H2.1c-0.1,0-0.1,0-0.2,0c-0.1,0-0.1,0.1-0.2,0.1
	c0,0.1-0.1,0.1-0.1,0.2c0,0.1,0,0.1,0,0.2c0,0,0,0,0,0c0,0.1,0.1,0.2,0.2,0.2C1.9,13.9,2,14,2.1,14h12.7c0.1,0,0.2,0,0.3-0.1
	C15.1,13.8,15.2,13.7,15.2,13.6z M0.5,13c-0.1,0-0.2,0-0.3,0.1c-0.1,0.1-0.1,0.1-0.2,0.2c0,0.1,0,0.2,0,0.3c0,0.1,0.1,0.2,0.1,0.2
	c0.1,0.1,0.1,0.1,0.2,0.1c0.1,0,0.2,0,0.3,0c0.1,0,0.2-0.1,0.2-0.2c0.1-0.1,0.1-0.2,0.1-0.3c0-0.1,0-0.2-0.1-0.3
	C0.7,13.1,0.6,13,0.5,13z M3.5,15.6c0,0.1,0,0.2,0.1,0.3C3.7,15.9,3.7,16,3.8,16c0.1,0,0.2,0,0.3,0c0.1,0,0.2-0.1,0.2-0.1
	c0.1-0.1,0.1-0.1,0.1-0.2c0-0.1,0-0.2,0-0.3c0-0.1-0.1-0.2-0.2-0.2c-0.1-0.1-0.2-0.1-0.3-0.1c-0.1,0-0.2,0-0.3,0.1
	C3.6,15.3,3.5,15.5,3.5,15.6z M12.2,19.7c0-0.1,0-0.2-0.1-0.3c-0.1-0.1-0.1-0.1-0.2-0.2c-0.1,0-0.2,0-0.3,0c-0.1,0-0.2,0.1-0.2,0.1
	c-0.1,0.1-0.1,0.1-0.1,0.2c0,0.1,0,0.2,0,0.3c0,0.1,0.1,0.2,0.2,0.2c0.1,0.1,0.2,0.1,0.3,0.1c0.1,0,0.2,0,0.3-0.1
	C12.2,20,12.2,19.8,12.2,19.7z M7,21.3c-0.1,0-0.2,0-0.3,0.1c-0.1,0.1-0.1,0.1-0.2,0.2c0,0.1,0,0.2,0,0.3s0.1,0.2,0.1,0.2
	c0.1,0.1,0.1,0.1,0.2,0.1s0.2,0,0.3,0c0.1,0,0.2-0.1,0.2-0.2c0.1-0.1,0.1-0.2,0.1-0.3c0-0.1,0-0.2-0.1-0.3C7.2,21.4,7.1,21.3,7,21.3
	z"/>
</svg>
