<svg width="24" height="24" viewBox="0 0 24 24" fill="none" xmlns="http://www.w3.org/2000/svg">
<path d="M18.8799 5.19995L17.4653 10.3175L16.4 16.0972L19.6102 19.3886L22.1803 14.3882L18.8799 5.19995Z" fill="white"/>
<path d="M16.2197 16.0811L17.2849 10.3014L13.7418 3.29479C12.8622 1.55494 10.8916 1.57174 10.0412 3.32565L6.59387 10.4366L7.8291 16.0678L16.2197 16.0811Z" fill="white"/>
<path d="M12.9927 2.09998L13.0064 2.12537C13.2881 2.33904 13.5444 2.62693 13.7414 3.01638L17.2845 10.0234L18.6991 4.90584L12.9927 2.09998Z" fill="white"/>
<path d="M10.7431 2.12615L10.7568 2.09998L5.09998 5.00466L6.5767 10.139L10.0241 3.0281C10.2144 2.63591 10.4656 2.34451 10.7431 2.12615Z" fill="white"/>
<path d="M19.4299 19.5046L15.4479 22.1261L8.55867 22.132L4.54663 19.5683L7.82871 16.2L16.2197 16.2132L19.4299 19.5046Z" fill="white"/>
<path d="M6.39394 10.3692L4.91722 5.19995L1.80005 14.6909L4.3467 19.43L7.62877 16.0387L6.39394 10.3692Z" fill="white"/>
</svg>
