<svg xmlns="http://www.w3.org/2000/svg" x="0px" y="0px" viewBox="0 0 96 96">
<path style="fill:#FFFFFF;" d="M44.7,45.8l6.1,0.1v4h-6.3L44.7,45.8z M96,37.2c-0.1,6.5-1.8,12.8-7.2,17.6c-5,4.5-11.7,7.1-18.3,7.1
	c-0.1,0-0.3,0-0.4,0l-17.3-0.3v-3.7l17.3,0.3c5.6,0.1,11-2,15.1-6c4.1-4,6.4-9.3,6.5-15c0.1-4.8-1.2-9.3-4-13l-0.1,0.1
	c1.6,3.1,2.2,6.4,2.2,9.8C89.6,46.2,79.6,56,67.6,56c-0.1,0-0.3,0-0.4,0l-16.5-0.3l-6-0.1l-10.6-0.1c-0.1,0-0.1,0-0.3,0
	c-7.1,0-12.7,5.6-12.8,12.4c0,3,1,6,2.9,8.3l0.4,0.5L24,76.2c-0.7-1.6-1-3.4-1-5.2c0.1-7.4,6.1-13.2,13.5-13.2c0.1,0,0.1,0,0.3,0
	l5.7,0.1v3.7H37h-0.1c-5.3,0-9.7,4.2-9.8,9.5c-0.1,2.6,0.7,4.6,2.3,5.9c1.4,1.2,3.5,1.9,6.4,1.9c2.6,0,4.6-1,6.4-3.1
	c1.5-2,2.5-4.6,2.5-7.4l0.1-10.6l5.9,0.1l-0.1,10.6c-0.1,5-1.8,9.7-4.5,13c-3.7,4.1-8.9,6.1-15.5,6.1c-10,0-17.7-2.7-23-8.2
	C2.5,74.5-0.1,67.2,0,58.8c0.1-6.7,2.9-13,7.8-17.6c4.6-4.6,10.8-7.1,17.3-7.1c0.1,0,0.3,0,0.4,0l17.3,0.3v3.7l-17.3-0.3
	c-5.7-0.1-11,2-15.1,6c-4.1,4-6.4,9.3-6.5,15c-0.1,4.8,1.2,9.3,4,13l0.1-0.1c-1.6-3.1-2.2-6.4-2.2-9.8c0-6.1,2.3-11.6,6.7-15.7
	c4.2-4,9.7-6.1,15.4-6.1c0.1,0,0.3,0,0.4,0l16.5,0.3l6,0.1l10.6,0.1c0.1,0,0.1,0,0.3,0c7.1,0,12.7-5.6,12.8-12.4c0-3-1-6-2.9-8.3
	l-0.4-0.5l0.3,0.4c0.7,1.6,1,3.4,1,5.2c-0.1,7.4-6.1,13.2-13.5,13.2c-0.1,0-0.1,0-0.3,0L52.9,38v-3.7l5.7,0.1
	c2.7,0.1,5.2-0.8,7.1-2.7c1.9-1.8,3-4.2,3-6.8c0.1-2.6-0.7-4.6-2.3-5.9c-1.4-1.2-3.5-1.9-6.4-1.9h-0.1c-2.5,0-4.6,1.1-6.3,3.1
	c-1.5,2-2.5,4.6-2.5,7.4L51,38.3l-5.9-0.1l0.1-10.6c0-3.7,0.8-9,4.2-13.1c3.4-4,7.4-6,14.2-6c10.4,0,18.8,3,24.5,8.9
	C93.3,22.3,96,29.5,96,37.2z M85.9,34c0.1-4.1-1.1-8-3.5-11.3l-0.5-0.8l0.4,0.8c1.2,2.7,1.8,5.5,1.8,8.3c-0.1,5.2-2.2,10-5.9,13.5
	c-3.5,3.5-8.3,5.5-13.4,5.5c0,0-0.1,0-0.3,0L53,49.8v-3.7l11.5,0.1c0.1,0,0.1,0,0.3,0c4.2,0,8-1.6,10.9-4.5c3-2.9,4.8-6.8,4.8-10.9
	c0-3.7-1.1-7-3.3-9.8l-0.5-0.7l0.4,0.7c0.8,2,1.2,4.4,1.2,6.7c-0.1,4.2-1.9,8.5-5,11.5c-3,3-7,4.6-11.3,4.6c-0.1,0-0.1,0-0.3,0
	l-10.5-0.1H51l-5.9-0.1l-16.6-0.3c0,0-0.1,0-0.3,0c-10.1,0-18.4,8.2-18.5,18.3c-0.1,4.1,1.1,8,3.5,11.3l0.5,0.8l-0.4-0.8
	c-1.2-2.7-1.8-5.5-1.8-8.3c0.1-10.5,8.7-19,19.2-19c0,0,0.1,0,0.3,0l11.5,0.1v3.7l-11.5-0.1c-0.1,0-0.1,0-0.3,0
	c-8.5,0-15.5,6.8-15.7,15.3c0,3.7,1.1,7,3.3,9.8l0.5,0.7l-0.3-0.7c-0.8-2-1.2-4.4-1.2-6.7c0.1-4.2,1.9-8.5,5-11.5
	c3-3,7-4.6,11.3-4.6c0.1,0,0.1,0,0.3,0l10.6,0.1l6,0.1l16.5,0.3c0,0,0.1,0,0.3,0C77.6,52.2,85.9,44,85.9,34z"/>
</svg>
