<svg width="24" height="24" viewBox="0 0 24 24" fill="none" xmlns="http://www.w3.org/2000/svg">
<path d="M15.4889 6.02069C15.7965 5.8453 15.9019 5.45685 15.7243 5.15307C15.5467 4.84928 15.1533 4.7452 14.8457 4.92059C14.5381 5.09598 14.4327 5.48442 14.6103 5.78821C14.7879 6.09199 15.1813 6.19608 15.4889 6.02069Z" fill="white"/>
<path d="M9.98975 18.603C10.1821 18.4934 10.248 18.2505 10.1369 18.0606C10.0259 17.8706 9.77996 17.8056 9.58763 17.9152C9.39529 18.0249 9.3294 18.2677 9.44044 18.4577C9.55148 18.6476 9.79741 18.7127 9.98975 18.603Z" fill="white"/>
<path d="M8.45604 19.3857C8.89305 19.1365 9.04278 18.5847 8.79047 18.1532C8.53817 17.7216 7.97937 17.5738 7.54237 17.8229C7.10536 18.0721 6.95563 18.6239 7.20794 19.0554C7.46024 19.487 8.01904 19.6348 8.45604 19.3857Z" fill="white"/>
<path fill-rule="evenodd" clip-rule="evenodd" d="M16.5752 9.149C15.0825 6.59577 11.7764 5.72097 9.19083 7.19508C6.60531 8.66919 5.71944 11.934 7.2122 14.4872C8.70495 17.0405 12.0111 17.9153 14.5966 16.4411C15.837 15.734 16.6862 14.6146 17.0693 13.3601C15.862 14.9131 14.5302 15.6383 13.0737 15.5358C13.0737 15.5358 13.0738 15.5358 13.0738 15.5358H11.3655V13.9C11.3655 12.8323 12.242 11.9668 13.3231 11.9668H13.4737C14.3346 11.9668 15.0549 12.5613 15.2366 13.3573C15.9818 12.8647 16.667 12.3647 17.3001 11.8616C17.3086 10.9403 17.0755 10.0047 16.5752 9.149ZM10.9159 14.3461C10.9159 13.0321 9.83716 11.9668 8.50648 11.9668V13.6293C8.50648 14.6822 9.37084 15.5358 10.4371 15.5358H10.9159V14.3461ZM10.9159 9.29006V8.1004H10.4371C9.37084 8.1004 8.50648 8.95397 8.50648 10.0069V11.6694L8.58152 11.6682C9.87748 11.6291 10.9159 10.5793 10.9159 9.29006ZM15.2808 9.88489C15.2808 8.89934 14.4717 8.1004 13.4737 8.1004H11.3655V9.73618C11.3655 10.8039 12.242 11.6694 13.3231 11.6694H13.4737C14.4717 11.6694 15.2808 10.8704 15.2808 9.88489Z" fill="white"/>
<path fill-rule="evenodd" clip-rule="evenodd" d="M6.50615 12.2355C6.52047 12.4185 6.54413 12.599 6.57667 12.7763L6.52722 12.824L6.36187 12.9873L6.20483 13.1487C6.17936 13.1755 6.15424 13.2021 6.12948 13.2287L5.98525 13.387C5.14599 14.3298 4.78061 15.1456 5.07214 15.6443C5.36367 16.1429 6.26181 16.2383 7.50829 15.992L7.71922 15.9478C7.75489 15.9399 7.79083 15.9318 7.82702 15.9234L8.04712 15.8698L8.27301 15.81C8.34925 15.7891 8.4264 15.7671 8.50443 15.7442L8.7411 15.6723C8.78096 15.6598 8.82104 15.647 8.86132 15.6341L9.10537 15.5532C9.14643 15.5392 9.18769 15.525 9.22913 15.5106L9.47997 15.4209L9.735 15.3255L9.99396 15.2243C10.0374 15.207 10.0811 15.1894 10.1248 15.1716L10.3892 15.0619C10.4335 15.0432 10.478 15.0242 10.5226 15.005L10.7917 14.887L11.0637 14.7636C11.1093 14.7425 11.155 14.7213 11.2007 14.6998L11.4765 14.5683C11.5227 14.5459 11.569 14.5233 11.6153 14.5005L11.8943 14.361L12.0345 14.2893L12.3161 14.142L12.5991 13.9895L12.8832 13.832L13.0257 13.7514L13.3083 13.588C13.355 13.5606 13.4015 13.5332 13.4478 13.5057L13.723 13.3399L13.993 13.1727L14.2576 13.0043C14.3012 12.9762 14.3446 12.948 14.3878 12.9198L14.644 12.7501C14.6862 12.7217 14.7281 12.6933 14.7699 12.6649L15.0172 12.4942L15.2584 12.3232C15.298 12.2946 15.3374 12.2661 15.3766 12.2376L15.6082 12.0663L15.7215 11.9807L15.9432 11.8096C15.9795 11.7811 16.0156 11.7527 16.0514 11.7242L16.2626 11.5539L16.4667 11.3842L16.6634 11.2154L16.8525 11.0476L17.0339 10.8812C17.093 10.8259 17.1509 10.7709 17.2074 10.7162L17.3727 10.5529L17.5297 10.3915C17.5552 10.3647 17.5803 10.3381 17.6051 10.3115L17.7493 10.1532C17.7726 10.127 17.7956 10.1009 17.8182 10.0749L17.9492 9.92026C18.6449 9.07661 18.9297 8.35301 18.6624 7.89593C18.3952 7.43884 17.6182 7.32056 16.5305 7.49375L16.3293 7.52844C16.2953 7.53476 16.2609 7.54133 16.2263 7.54818L16.0154 7.59238C15.9797 7.60028 15.9437 7.60843 15.9076 7.61684L15.6874 7.67042L15.4616 7.73018L15.3942 7.74902C15.2543 7.6316 15.1082 7.52108 14.9566 7.41801L15.0868 7.36954L15.3559 7.27308L15.621 7.18193L15.8817 7.09616L16.1379 7.01581L16.3895 6.94093C16.431 6.9289 16.4723 6.91711 16.5134 6.90555L16.7575 6.83897L16.9963 6.77799L17.2297 6.72265L17.4575 6.67301L17.6794 6.62911C17.7524 6.61544 17.8243 6.60274 17.8952 6.59101L18.1048 6.55875C18.1393 6.55386 18.1734 6.54922 18.2072 6.54483L18.4071 6.52143C18.4398 6.51802 18.4723 6.51487 18.5045 6.51196L18.6941 6.49754L18.8766 6.48916C19.7413 6.46333 20.3506 6.65103 20.6 7.07755C20.9268 7.63644 20.5849 8.5189 19.7419 9.55209L19.6047 9.71645L19.4592 9.88317L19.3058 10.0521L19.1444 10.2231C19.1169 10.2517 19.089 10.2804 19.0609 10.3093L18.888 10.483L18.7987 10.5705L18.6146 10.7468C18.5833 10.7763 18.5516 10.8058 18.5197 10.8354L18.3247 11.0138L18.1226 11.1933L17.9136 11.3739L17.6977 11.5555L17.4753 11.7378L17.2463 11.9207L17.011 12.1041L16.7695 12.2878C16.7287 12.3184 16.6877 12.349 16.6464 12.3797L16.3959 12.5636L16.2684 12.6555L16.0091 12.8392L15.7443 13.0226C15.6997 13.0532 15.6548 13.0837 15.6098 13.1142L15.3368 13.2969C15.2908 13.3273 15.2447 13.3577 15.1983 13.388L14.9175 13.5697L14.6316 13.7504L14.3409 13.9301L14.0454 14.1087L13.7453 14.2858C13.6949 14.3152 13.6444 14.3446 13.5936 14.3738L13.2875 14.5483L12.9817 14.7187L12.6768 14.8844C12.6261 14.9116 12.5754 14.9387 12.5248 14.9655L12.2218 15.1243L11.9204 15.2784L11.6207 15.4278L11.3229 15.5723C11.2734 15.596 11.2241 15.6195 11.1748 15.6428L10.8803 15.78L10.5882 15.9124C10.5398 15.934 10.4914 15.9554 10.4432 15.9767L10.1552 16.1015L10.0123 16.162L9.72884 16.2793L9.44865 16.3914L9.17193 16.4984L8.8989 16.6001L8.62976 16.6966L8.36471 16.7877C8.32089 16.8025 8.27725 16.817 8.23379 16.8313L7.97527 16.9144L7.72136 16.992L7.47228 17.0641C7.39007 17.0872 7.3087 17.1094 7.22821 17.1307L6.98937 17.1917L6.75597 17.247C6.71753 17.2558 6.67933 17.2643 6.64137 17.2726L6.4165 17.3193L6.19758 17.3603L5.98482 17.3955L5.77842 17.4248C4.55951 17.583 3.69521 17.4216 3.38565 16.8921C3.17068 16.5244 3.24512 16.0167 3.56125 15.4181L3.64174 15.2727C3.6701 15.2237 3.69998 15.1741 3.73136 15.124L3.82997 14.9721L3.93742 14.8172L3.99441 14.7386L4.11485 14.5794C4.13563 14.5527 4.15677 14.5258 4.17825 14.4988L4.31135 14.3357C4.35709 14.2809 4.40422 14.2257 4.45269 14.1702L4.60215 14.0023L4.75957 13.8324L4.9248 13.6604L5.0977 13.4866L5.27812 13.3112C5.30881 13.2818 5.33981 13.2524 5.37111 13.2229L5.56254 13.0452L5.76112 12.8663L5.96672 12.6862L6.17917 12.5051L6.39834 12.3231L6.50615 12.2355Z" fill="white"/>
</svg>
