<svg width="24" height="24" viewBox="0 0 24 24" fill="none" xmlns="http://www.w3.org/2000/svg">
<path fill-rule="evenodd" clip-rule="evenodd" d="M8.69919 10.4149V21H5V10.3557H5.00116C5.01154 9.07015 5.35981 7.80898 6.01225 6.69617C6.67471 5.5663 7.62724 4.62946 8.77348 3.98044C9.91973 3.33142 11.219 2.99323 12.5399 3.0001C13.8608 3.00697 15.1564 3.35865 16.2957 4.01956C17.4349 4.68047 18.3775 5.62716 19.0278 6.76386C19.6782 7.90057 20.0135 9.18694 19.9996 10.4929C19.9857 11.7988 19.6232 13.0779 18.9487 14.2008C18.2743 15.3237 17.3118 16.2507 16.1587 16.8877L14.3545 13.6953C14.9389 13.3725 15.4266 12.9027 15.7685 12.3336C16.1103 11.7645 16.294 11.1162 16.301 10.4544C16.3081 9.79254 16.1382 9.1406 15.8086 8.56452C15.4789 7.98843 15.0013 7.50864 14.4239 7.17368C13.8465 6.83874 13.1899 6.6605 12.5204 6.65702C11.851 6.65353 11.1925 6.82493 10.6116 7.15386C10.0307 7.48279 9.54793 7.95759 9.2122 8.5302C8.87647 9.10283 8.69966 9.75297 8.69966 10.4149H8.69919ZM14.948 17.4238C14.5457 17.5611 14.1324 17.6642 13.7124 17.7322L13.1147 14.1233C13.3275 14.0889 13.537 14.0366 13.7409 13.967L14.948 17.4238ZM9.95948 17.3911C10.3592 17.5334 10.7705 17.6419 11.1888 17.7154L11.8357 14.1148C11.6237 14.0776 11.4153 14.0226 11.2127 13.9505L9.95948 17.3911Z" fill="white"/>
</svg>
