<svg version="1.1" xmlns="http://www.w3.org/2000/svg" x="0px" y="0px" viewBox="0 0 24 24">
<path fill="#FFFFFF" d="M23.2,18.1l-7.8,3.5c-0.4,0.2-0.8,0.2-1.2,0.2c-0.4,0-0.8-0.1-1.2-0.2L0.9,16.2c-0.2-0.1-0.4-0.3-0.6-0.5
	C0.1,15.5,0,15.2,0,14.9c0-0.3,0.1-0.5,0.2-0.8c0.1-0.2,0.3-0.4,0.6-0.5l4.9-2.2l7.3,3.2c0.4,0.2,0.8,0.2,1.2,0.2
	c0.4,0,0.8-0.1,1.2-0.2l2.9-1.3l4.9,2.2c0.2,0.1,0.4,0.3,0.6,0.5c0.1,0.2,0.2,0.5,0.2,0.8c0,0.3-0.1,0.5-0.2,0.8
	C23.6,17.8,23.4,18,23.2,18.1z M0.9,8.5l12.2,5.4c0.4,0.2,0.8,0.2,1.2,0.2c0.4,0,0.8-0.1,1.2-0.2l7.8-3.5c0.2-0.1,0.4-0.3,0.6-0.5
	C23.9,9.7,24,9.4,24,9.1s-0.1-0.5-0.2-0.8c-0.1-0.2-0.3-0.4-0.6-0.5L11.1,2.4c-0.4-0.2-0.8-0.2-1.2-0.2c-0.4,0-0.8,0.1-1.2,0.2
	L0.8,5.9C0.6,6,0.4,6.2,0.2,6.4C0.1,6.7,0,6.9,0,7.2C0,7.5,0.1,7.7,0.2,8C0.4,8.2,0.6,8.4,0.9,8.5z"/>
</svg>
