<svg width="24" height="24" viewBox="0 0 24 24" fill="none" xmlns="http://www.w3.org/2000/svg">
<path d="M11.853 0.00134509C7.14535 -0.0831218 3.11861 3.82163 3.00271 8.59401C2.92393 11.8331 4.56831 14.6875 7.07201 16.285C7.19153 16.3612 7.34908 16.3163 7.41247 16.1886L9.3647 12.2297C9.65177 11.6476 9.60828 10.9572 9.25969 10.411C8.9618 9.94452 8.79061 9.38635 8.79698 8.78772C8.81236 7.24986 10.0194 5.96635 11.5343 5.88279C13.2846 5.78733 14.7198 7.26642 14.5849 9.04937C14.4771 10.4789 13.3398 11.632 11.93 11.7468C11.92 11.7468 11.911 11.7486 11.901 11.7486C11.2599 11.7945 10.6886 12.1728 10.4006 12.7549L8.44746 16.7147C8.38496 16.8424 8.44384 16.9975 8.5751 17.048C9.5594 17.4318 10.6306 17.6393 11.7498 17.6319C16.5082 17.6016 20.3846 13.6491 20.3891 8.82534C20.3954 4.00617 16.5851 0.0867301 11.853 0.00134509Z" fill="white"/>
<path d="M5.89848 23.5109C7.49928 23.5109 8.79698 22.1951 8.79698 20.572C8.79698 18.9489 7.49928 17.6331 5.89848 17.6331C4.29769 17.6331 3 18.9489 3 20.572C3 22.1951 4.29769 23.5109 5.89848 23.5109Z" fill="white"/>
</svg>
