<svg xmlns="http://www.w3.org/2000/svg" viewBox="0 0 96 96" style="enable-background:new 0 0 96 96" xml:space="preserve">
  <path d="M52.1 24.2c-.5-4.9-2.9-10.6-4.5-10.9-.9-.2-2.7 1.5-4.2 3.8-2.3 3-6.7 12.7-8.6 18.8-.3.9-.8 2-.9 2.3-.3.7-.2.8 1.7.9h.1c1.2 0 3.5-.2 4.9-.3 4.7-.3 8.3-2.1 10.3-5 .9-1.2 1.2-2 1.4-4.5v-1.8c-.2-1.4-.1-2.6-.2-3.3zM43 .7c1.4-.5 2.3-.6 3-.6.9-.2 2 0 3.5.3 3 .5 3.6.6 5.6 2 6.2 4.9 9.7 14.4 9.2 25.2-.5 8.2-2.9 13-8.6 17.3-5.3 3.9-12.3 5.5-20.8 4.7-2.3-.3-4.2-.2-4.5 0-.9 1.1-2.4 18.8-2.3 30 0 9.2-.3 11.4-1.7 13.3-1.2 1.7-2.3 2.4-4.4 2.9-2.1.6-3.2.3-5.2-1.1-2-1.4-3-3.5-3.5-6.5-.2-2-.3-12-.2-22.6 0-4.7 3.9-29.1 6.4-40.9 1.4-6.5 1.5-7.6 1.1-8.5-.8-1.5 0-4.1 2.1-7.7 1.2-2 2.4-3.9 2.9-4.5.9-1.4 3.2-2.3 5-2 1.8.2 3.8 1.8 3.9 3 .2.8.5.6 2.9-1.2C39.2 2.3 41 1.3 43 .7zm31.1 45.7c1.1-.6 2.3-.8 3.5-.8 1.8.2 3.8 1.2 4.5 2.9 2.4 4.5-2.6 10-7.3 7.6-1.7-.9-3.2-3-3.2-4.7.1-1.9 1.2-4 2.5-5z" style="fill-rule:evenodd;clip-rule:evenodd;fill:#fff"/>
</svg>
