<svg xmlns="http://www.w3.org/2000/svg" viewBox="0 0 96 96" style="enable-background:new 0 0 96 96" xml:space="preserve">
  <path d="M65.3 10.1c0 5.6-7.8 10.1-17.3 10.1-9.6 0-17.3-4.5-17.3-10.1S38.4 0 48 0c9.6 0 17.3 4.5 17.3 10.1zM48 75.9c-9.6 0-17.3 4.5-17.3 10.1 0 5.5 7.7 10 17.3 10 9.6 0 17.3-4.5 17.3-10.1 0-5.5-7.7-10-17.3-10zM6.5 44c4.8 2.8 12.6-1.7 17.4-10 4.8-8.3 4.8-17.2-.1-20-4.8-2.7-12.6 1.7-17.4 10-4.8 8.3-4.8 17.2.1 20zm83 8c-4.8-2.8-12.6 1.7-17.4 10-4.8 8.3-4.8 17.2.1 20 4.8 2.8 12.6-1.7 17.4-10 4.8-8.3 4.7-17.2-.1-20zm-83 0c-4.8 2.8-4.9 11.7-.1 20 4.8 8.3 12.6 12.7 17.4 10 4.8-2.8 4.9-11.7.1-20-4.8-8.4-12.6-12.8-17.4-10zm83-8c4.8-2.8 4.8-11.7.1-20-4.8-8.3-12.6-12.7-17.4-10-4.8 2.8-4.8 11.7-.1 20 4.8 8.4 12.6 12.8 17.4 10z" style="fill:#fff"/>
</svg>
