<svg width="24" height="24" viewBox="0 0 24 24" fill="none" xmlns="http://www.w3.org/2000/svg">
<path d="M22 19.3399V16.589L17.3503 11.8323H14.5528L22 19.3399Z" fill="white"/>
<path d="M2 4.93848V7.68902L6.64781 12.4461H9.4472L2 4.93848Z" fill="white"/>
<path d="M4.44119 2H7.15426L11.8456 6.71245L16.4949 2H19.3296L11.846 9.55112L4.44119 2Z" fill="white"/>
<path d="M4.89841 22.0466H7.61111L12.3024 17.3342L16.9517 22.0466H19.7868L12.3028 14.4955L4.89841 22.0466Z" fill="white"/>
<path d="M12.7372 13.5569C13.4355 13.5569 14.0016 12.9828 14.0016 12.2747C14.0016 11.5665 13.4355 10.9924 12.7372 10.9924C12.0388 10.9924 11.4727 11.5665 11.4727 12.2747C11.4727 12.9828 12.0388 13.5569 12.7372 13.5569Z" fill="white"/>
</svg>
