<?xml version="1.0" encoding="utf-8"?>
<!-- Generator: Adobe Illustrator 26.0.2, SVG Export Plug-In . SVG Version: 6.00 Build 0)  -->
<svg version="1.1" id="Layer_1" xmlns="http://www.w3.org/2000/svg" xmlns:xlink="http://www.w3.org/1999/xlink" x="0px" y="0px"
	 viewBox="0 0 96 96" style="enable-background:new 0 0 96 96;" xml:space="preserve">
<style type="text/css">
	.st0{fill:#FFFFFF;}
</style>
<path class="st0" d="M96,83V69.8L73.7,47.1H60.3L96,83z M0,14.1v13.2L22.3,50h13.4L0,14.1z M11.7,0h13l22.5,22.6L69.6,0h13.6
	L47.3,36.2L11.7,0z M13.9,96h13l22.5-22.6L71.8,96h13.6L49.5,59.8L13.9,96z M48.2,56.2c3.3,0,5.9-2.7,5.9-6c0-3.3-2.7-6-5.9-6
	c-3.3,0-5.9,2.7-5.9,6C42.2,53.6,44.9,56.2,48.2,56.2z"/>
</svg>
