<svg xmlns="http://www.w3.org/2000/svg" viewBox="0 0 96 96" style="enable-background:new 0 0 96 96" xml:space="preserve">
  <path d="M84.7 84.9c.2.5.3 1 .2 1.5-.1.5-.3 1-.6 1.4L81 92.4c-.3.4-.7.7-1.2.8L74 94.8c-.5.1-1 .1-1.5 0-.5-.2-.9-.4-1.3-.8L49.3 69.5l-.2-.2v-.5c0-.2 0-.3.1-.4l.1-.2.2-.1.2-.1 11.6-3.1c.2-.1.5-.2.6-.4l7.4-9.4.2-.3h1l.2.4 14 29.7zm11.1-41.7c-1.1-11.3-6.2-21.8-14.4-29.7C73.2 5.6 62.5.9 51.2.1 39.9-.6 28.6 2.6 19.5 9.4 10.4 16.1 3.9 25.9 1.3 36.9c-2.6 11-1.2 22.7 3.9 32.8 5.1 10.1 13.7 18.1 24.2 22.5 10.5 4.4 22.2 5 33 1.6.3-.1.5-.2.7-.5.3-.3.5-.7.5-1.2 0-.4-.2-.9-.5-1.2L53 79.6c-.3-.3-.7-.6-1.1-.7-.4-.2-.8-.2-1.3-.2-.4 0-.9 0-1.3.1-.4 0-.8.1-1.2.1-6.5 0-12.9-2-18.1-5.9-5.3-3.8-9.2-9.2-11.2-15.4-2-6.2-2-12.9 0-19.1 2-6.2 5.9-11.6 11.2-15.4 5.3-3.8 11.6-5.9 18.1-5.9 6.5 0 12.9 2.1 18.1 5.9 5.3 3.8 9.2 9.3 11.2 15.4 2 6.2 2 12.9 0 19.1-.2.7-.2 1.4 0 2L84.5 75c.1.3.3.5.6.7.3.2.5.3.9.3.3 0 .6 0 .9-.2.3-.1.5-.3.7-.6 6.4-9.3 9.3-20.7 8.2-32zM49.4 65.9l10.4-2.7c.5-.1 1-.5 1.4-.9l6.6-8.5.1-.1V52.8l-.1-.5h-.6l-13-1.9c-.6-.1-1.1 0-1.6.3-.2.1-.5.3-.6.6-.2.2-.3.5-.3.8l-3.3 12.6v.5l.1.6.9.1z" style="fill:#fff"/>
</svg>
