<svg width="24" height="24" viewBox="0 0 24 24" fill="none" xmlns="http://www.w3.org/2000/svg">
<path fill-rule="evenodd" clip-rule="evenodd" d="M22 12C22 6.47715 17.5228 2 12 2C6.47715 2 2 6.47715 2 12C2 17.5228 6.47715 22 12 22C17.5228 22 22 17.5228 22 12ZM11.9994 3.99998L8.91963 7.07979L10.3049 8.46501L9.82811 8.94176L11.997 11.1106L14.1659 8.94176L13.6916 8.46746L15.0793 7.07979L11.9994 3.99998ZM13.7129 15.5538L14.1659 15.1008L11.997 12.9319L9.82811 15.1008L10.2836 15.5562L8.91963 16.9202L11.9994 20L15.0793 16.9202L13.7129 15.5538ZM15.5413 13.7251L15.0762 14.1902L12.9073 12.0213L15.0762 9.85238L15.5442 10.3204L16.9202 8.94444L20 12.0243L16.9202 15.1041L15.5413 13.7251ZM7.07981 8.94444L4 12.0243L7.07981 15.1041L8.45518 13.7287L8.91665 14.1902L11.0855 12.0213L8.91665 9.85238L8.4522 10.3168L7.07981 8.94444Z" fill="white"/>
</svg>
