<svg xmlns="http://www.w3.org/2000/svg" viewBox="0 0 96 96" style="enable-background:new 0 0 96 96" xml:space="preserve">
  <path d="M47.8 36.2 69 72.5H26.9l20.9-36.3zM96 85.3c0 2.6-2.1 4.7-4.7 4.7-2 0-3.7-1.3-4.4-3H9.1c-.7 1.8-2.4 3-4.4 3C2.1 90 0 87.9 0 85.3s2.1-4.7 4.7-4.7h.4L44.2 14c-.9-.9-1.4-2-1.4-3.3 0-2.6 2.1-4.7 4.7-4.7 1.3 0 2.5.5 3.4 1.3.9.8 1.6 2 1.6 3.4 0 1.1-.4 2-1 2.8l38.9 67.2c.3-.1.6-.1.9-.1 2.6 0 4.7 2.1 4.7 4.7zm-8.5-2.9L48.7 15.3c-.4.1-.9.1-1.2.1h-.2L8.1 82.1c.4.4.8 1 1 1.6h77.8c.1-.5.4-.9.6-1.3z" style="fill:#fff"/>
</svg>
