<svg xmlns="http://www.w3.org/2000/svg" viewBox="0 0 96 96" style="enable-background:new 0 0 96 96" xml:space="preserve">
  <path d="M33.9 62.1c-7.8 7.8-20.4 7.8-28.1 0C-2 54.3-2 41.7 5.8 34c7.8-7.8 20.4-7.8 28.1 0 7.8 7.7 7.8 20.3 0 28.1zm28.2-28.2c7.8-7.8 7.8-20.4 0-28.1C54.3-2 41.7-2 34 5.8c-7.8 7.8-7.8 20.4 0 28.1 7.7 7.8 20.3 7.8 28.1 0zM33.9 62.1c-7.8 7.8-7.8 20.4 0 28.1 7.8 7.8 20.4 7.8 28.1 0 7.8-7.8 7.8-20.4 0-28.1-7.7-7.8-20.3-7.8-28.1 0zm56.3-28.2c-7.8-7.8-20.4-7.8-28.1 0-7.8 7.8-7.8 20.4 0 28.1 7.8 7.8 20.4 7.8 28.1 0 7.7-7.7 7.7-20.3 0-28.1z" style="fill:#fff"/>
</svg>
