<svg xmlns="http://www.w3.org/2000/svg" viewBox="0 0 96 96" style="enable-background:new 0 0 96 96" xml:space="preserve">
  <path d="M44 14.6C32.2 21.3 25.9 29 25.4 37.2c-.8 12.3 11.8 21.9 11.8 21.9s-14.8-8.9-15.5-21.5c-.4-7.2 4.1-25.1 40.6-35.5C68.1.5 72.1 0 72.1 0l4.3 3.1s-5.4.5-11.7 2.4c-7.5 2.1-14.5 5.2-20.7 9.1zM78.7 5s1.9 1.2 3.7 2.8l.6.5-.7.2c-4.3.8-8.3 1.8-12 2.8-42.6 12.1-42 32.9-42 33.1l.1 2s-3.4-7.7.8-14.1C38.1 18.1 54.5 11 66.6 7.5 73.4 5.6 78.3 5 78.4 4.9h.1l.2.1zm-39 32.5C50.5 27.8 62.2 23 70.2 20.8c6.4-1.8 10.9-2.2 11-2.2h.7L79 23.2h-.2c-2.3.4-4.5 1-6.8 1.6-17.8 5.1-30 15.6-30.1 15.7-9.6 9-5.6 16.3-5.6 16.3-.1 0-7.5-9.1 3.4-19.3zm45.2-27c-.1 0-5.7.6-13.5 2.8-8.3 2.4-20.3 6.9-30.7 15.3-6.1 4.8-10 10.5-10.6 15.7-.3 2.6 2.7 8 2.7 8l-.6-1.9c0-.1-2.7-8.9 10.9-19.1 7.6-5.7 15.6-9.6 25-12.3 4.9-1.4 9.5-2.3 14.7-3.3h.2l.1-.2c.4-.8 2.2-4.5 2.3-4.5l.3-.6-.8.1zm-59 64.7c8-2.3 19.7-7 30.5-16.7 10.8-10.2 3.5-19.3 3.4-19.3 0 0 4 7.3-5.6 16.3-.2.1-12.4 10.6-30.2 15.7-2.3.6-4.6 1.2-6.8 1.6H17l-2.9 4.6h.7c.2 0 4.6-.4 11.1-2.2zM17.3 91s-1.8-1.2-3.7-2.8l-.6-.5.7-.2c4.2-.9 8.2-1.8 11.9-2.9 42.6-12.1 42-32.9 42-33.1l-.1-2s3.4 7.7-.8 14.1C57.9 77.9 41.5 85 29.3 88.5c-6.7 1.9-11.6 2.5-11.8 2.6h-.1l-.1-.1zm-6.2-5.5c.1 0 5.7-.6 13.5-2.8 8.3-2.4 20.3-6.9 30.7-15.3 6.1-4.8 10-10.5 10.6-15.7.3-2.6-2.7-8-2.7-8l.6 1.9c0 .1 2.7 8.9-10.9 19.1-7.6 5.7-15.6 9.6-25 12.3-4.9 1.4-9.5 2.3-14.7 3.3H13v.2c-.4.8-2.2 4.5-2.3 4.5l-.3.6.7-.1zM52 81.4C63.8 74.7 70.1 67 70.6 58.8c.8-12.3-11.8-21.9-11.8-21.9s14.8 8.9 15.5 21.5c.4 7.2-4.1 25.1-40.6 35.5C28 95.5 24 96 24 96l-4.3-3.1s5.4-.5 11.7-2.4c7.4-2.1 14.4-5.2 20.6-9.1z" style="fill-rule:evenodd;clip-rule:evenodd;fill:#fff"/>
</svg>
