<svg width="24" height="24" viewBox="0 0 24 24" fill="none" xmlns="http://www.w3.org/2000/svg">
<path d="M17.4749 11.7751L12.4835 11.5632L12.4903 12.4153L17.4776 12.1317C17.9727 12.1033 17.9705 11.7961 17.4749 11.7751Z" fill="white"/>
<path d="M17.4749 11.7751L12.4835 11.5632L12.4903 12.4153L17.4776 12.1317C17.9727 12.1033 17.9705 11.7961 17.4749 11.7751Z" fill="white"/>
<path d="M17.4749 11.7751L12.4835 11.5632L12.4903 12.4153L17.4776 12.1317C17.9727 12.1033 17.9705 11.7961 17.4749 11.7751Z" fill="white"/>
<path d="M6.52522 12.2254L11.5166 12.4372L11.5099 11.5852L6.52251 11.8688C6.02738 11.8971 6.02963 12.2044 6.52522 12.2254Z" fill="url(#paint0_radial_6399_11404)"/>
<path d="M14.929 16.421L12.6379 12.1827L11.8673 12.6124L14.6067 16.6011C14.8786 16.9968 15.1563 16.8417 14.929 16.421Z" fill="url(#paint1_radial_6399_11404)"/>
<path d="M9.07104 7.5793L11.3622 11.8176L12.1328 11.3879L9.39333 7.39926C9.12146 7.00353 8.84373 7.15865 9.07104 7.5793Z" fill="url(#paint2_radial_6399_11404)"/>
<path d="M9.44777 16.6292L12.1521 12.619L11.3774 12.1958L9.12323 16.4521C8.89997 16.8745 9.17949 17.0275 9.44777 16.6292Z" fill="url(#paint3_radial_6399_11404)"/>
<path d="M14.5522 7.37142L11.8479 11.3816L12.6226 11.8048L14.8768 7.54845C15.1 7.12608 14.8205 6.97312 14.5522 7.37142Z" fill="url(#paint4_radial_6399_11404)"/>
<path d="M16.5719 6.97353L14.825 7.26957L14.1921 5.68752C14.1147 5.49459 13.8689 5.55948 13.9068 5.76314L14.288 7.81311L14.6134 7.98885L16.6511 7.24594C16.8533 7.17247 16.7853 6.93744 16.5719 6.97353Z" fill="url(#paint5_radial_6399_11404)"/>
<path d="M7.42824 17.027L9.17516 16.731L9.80803 18.313C9.88545 18.506 10.1312 18.4411 10.0934 18.2374L9.71216 16.1875L9.38672 16.0117L7.34902 16.7546C7.14692 16.8281 7.21488 17.0631 7.42824 17.027Z" fill="url(#paint6_radial_6399_11404)"/>
<path d="M18.9386 13.2372L17.784 11.9512L18.89 10.627C19.025 10.4654 18.8414 10.2961 18.6766 10.4306L17.0206 11.7858L17.0274 12.1424L18.7329 13.4405C18.9021 13.5694 19.0795 13.3941 18.9386 13.2372Z" fill="url(#paint7_radial_6399_11404)"/>
<path d="M5.06136 10.7632L6.21593 12.0492L5.10998 13.3735C4.97494 13.535 5.15859 13.7043 5.32334 13.5698L6.97933 12.2146L6.97258 11.858L5.26707 10.56C5.09782 10.4311 4.92048 10.6064 5.06136 10.7632Z" fill="url(#paint8_radial_6399_11404)"/>
<path d="M14.2731 18.3023L14.8636 16.7052L16.6177 16.9591C16.832 16.9901 16.8937 16.7538 16.6898 16.685L14.6332 15.9919L14.3127 16.1754L13.9859 18.234C13.953 18.4381 14.201 18.4974 14.2731 18.3023Z" fill="white"/>
<path d="M9.72688 5.69828L9.13632 7.29537L7.3822 7.04144C7.16794 7.0105 7.10627 7.24682 7.31018 7.31557L9.36678 8.00863L9.68727 7.82516L10.0141 5.7666C10.0469 5.5625 9.7989 5.50321 9.72688 5.69828Z" fill="white"/>
<path d="M12 13.035C12.5986 13.035 13.0839 12.5718 13.0839 12.0004C13.0839 11.4289 12.5986 10.9657 12 10.9657C11.4014 10.9657 10.9161 11.4289 10.9161 12.0004C10.9161 12.5718 11.4014 13.035 12 13.035Z" fill="white"/>
<path d="M15.1252 8.37901L14.0832 8.55561L13.7056 7.61205C13.6596 7.49689 13.5129 7.53557 13.5354 7.65716L13.7627 8.88001L13.9567 8.98485L15.1721 8.54186C15.2931 8.4976 15.2526 8.35753 15.1252 8.37901Z" fill="white"/>
<path d="M8.8749 15.6215L9.91693 15.4449L10.2946 16.3884C10.3405 16.5036 10.4872 16.4649 10.4647 16.3433L10.2374 15.1205L10.0434 15.0156L8.82809 15.4586C8.70701 15.5029 8.74752 15.6429 8.8749 15.6215Z" fill="white"/>
<path d="M16.8555 12.7297L16.1668 11.9627L16.8267 11.173C16.9072 11.0767 16.7974 10.9757 16.6997 11.0557L15.7122 11.8639L15.7162 12.0766L16.7335 12.8508C16.8334 12.9282 16.9392 12.8233 16.8555 12.7297Z" fill="white"/>
<path d="M7.14458 11.2707L7.83326 12.0377L7.17339 12.8274C7.09281 12.9237 7.20264 13.0247 7.30032 12.9447L8.28789 12.1365L8.28383 11.9238L7.26656 11.1496C7.16663 11.0722 7.06086 11.1771 7.14458 11.2707Z" fill="white"/>
<path d="M13.7614 16.3803L14.1138 15.4278L15.1603 15.579C15.2882 15.5975 15.3251 15.4565 15.2031 15.4153L13.9765 15.002L13.7852 15.1115L13.5903 16.3395C13.5705 16.4616 13.7186 16.4968 13.7614 16.3803Z" fill="white"/>
<path d="M10.2387 7.62009L9.88623 8.57267L8.8397 8.42143C8.71187 8.40295 8.67496 8.54388 8.79694 8.58513L10.0235 8.99848L10.2148 8.88891L10.4097 7.66091C10.4295 7.53888 10.2814 7.50365 10.2387 7.62009Z" fill="white"/>
<path d="M12.0001 12.6176C12.3573 12.6176 12.6469 12.3411 12.6469 12.0001C12.6469 11.6591 12.3573 11.3827 12.0001 11.3827C11.6429 11.3827 11.3533 11.6591 11.3533 12.0001C11.3533 12.3411 11.6429 12.6176 12.0001 12.6176Z" fill="white"/>
<path d="M21.5875 7.79801L20.2664 7.33954L20.4901 6.01486C20.5176 5.85331 20.3218 5.80475 20.2628 5.95858L19.6722 7.50884L19.8221 7.75246L21.5281 8.01499C21.6978 8.0412 21.7486 7.85386 21.5875 7.79801Z" fill="white"/>
<path d="M2.41233 16.2024L3.73343 16.6609L3.50972 17.9856C3.48226 18.1471 3.67807 18.1957 3.73703 18.0419L4.32759 16.4916L4.1777 16.248L2.47174 15.9855C2.30205 15.9597 2.25118 16.1466 2.41233 16.2024Z" fill="white"/>
<path d="M20.5523 17.9116L20.2948 16.5925L21.6037 16.1035C21.7635 16.0438 21.7077 15.8582 21.5394 15.8883L19.8406 16.1903L19.697 16.4374L20.3272 17.9735C20.3889 18.1256 20.5833 18.0723 20.5523 17.9116Z" fill="url(#paint9_radial_6399_11404)"/>
<path d="M3.44771 6.08891L3.70518 7.408L2.39668 7.89697C2.23688 7.95669 2.2927 8.14231 2.46104 8.11223L4.1598 7.81017L4.30339 7.56311L3.67322 6.02703C3.6111 5.87493 3.41665 5.92821 3.44771 6.08891Z" fill="url(#paint10_radial_6399_11404)"/>
<path d="M11.0092 21.7868L12.0783 20.9154L13.1752 21.7537C13.3093 21.856 13.4498 21.7172 13.3386 21.5926L12.2164 20.3384L11.9203 20.3427L10.8404 21.6304C10.7333 21.7584 10.8787 21.8929 11.0092 21.7868Z" fill="url(#paint11_radial_6399_11404)"/>
<path d="M12.9907 2.21352L11.9217 3.0849L10.8247 2.2466C10.6906 2.14434 10.5502 2.28313 10.6613 2.40773L11.7835 3.66195L12.0797 3.65765L13.1595 2.36992C13.2666 2.24188 13.1213 2.10739 12.9907 2.21352Z" fill="url(#paint12_radial_6399_11404)"/>
<path d="M20.1025 9.16862L18.3007 8.54302L18.6059 6.73624C18.6432 6.51582 18.3759 6.44965 18.2962 6.65933L17.4905 8.77375L17.6953 9.10632L20.0224 9.46424C20.2529 9.4999 20.3222 9.24467 20.1025 9.16862Z" fill="url(#paint13_radial_6399_11404)"/>
<path d="M3.89735 14.8317L5.69919 15.4573L5.39401 17.2641C5.35665 17.4845 5.62402 17.5507 5.70369 17.341L6.50941 15.2266L6.3046 14.894L3.97747 14.5361C3.74701 14.5004 3.67769 14.7557 3.89735 14.8317Z" fill="url(#paint14_radial_6399_11404)"/>
<path d="M18.6793 17.2121L18.3282 15.4131L20.1134 14.7458C20.3313 14.6642 20.2552 14.4111 20.0252 14.4519L17.708 14.864L17.5117 15.2013L18.371 17.2964C18.457 17.5039 18.7221 17.4317 18.6793 17.2121Z" fill="url(#paint15_radial_6399_11404)"/>
<path d="M5.32055 6.78823L5.67165 8.58727L3.88647 9.25455C3.66861 9.33619 3.74468 9.58927 3.97469 9.54845L6.29191 9.13639L6.48817 8.7991L5.62888 6.70401C5.54291 6.49648 5.27779 6.56867 5.32055 6.78823Z" fill="url(#paint16_radial_6399_11404)"/>
<path d="M10.5961 20.1429L12.054 18.9545L13.5507 20.0982C13.7334 20.2379 13.9252 20.0484 13.7735 19.8787L12.2426 18.1677L11.8388 18.1737L10.3661 19.9302C10.2202 20.1047 10.4183 20.2882 10.5961 20.1429Z" fill="url(#paint17_radial_6399_11404)"/>
<path d="M13.4039 3.85751L11.946 5.04599L10.4493 3.9022C10.2666 3.76255 10.0748 3.95204 10.2265 4.12176L11.7574 5.83272L12.1611 5.8267L13.6339 4.0702C13.7798 3.89575 13.5817 3.71228 13.4039 3.85751Z" fill="white"/>
<path d="M11.9999 12.8202C12.4743 12.8202 12.8588 12.4531 12.8588 12.0004C12.8588 11.5476 12.4743 11.1805 11.9999 11.1805C11.5256 11.1805 11.1411 11.5476 11.1411 12.0004C11.1411 12.4531 11.5256 12.8202 11.9999 12.8202Z" fill="white"/>
<path d="M21.5259 16.8538L14.6391 12.567C14.2722 12.2546 14.2596 11.6659 14.7088 11.3587L21.5192 7.13589C21.724 7.00871 21.8581 6.88066 21.9297 6.7668C22.0017 6.65294 22.0116 6.55282 21.9688 6.48193C21.9261 6.41103 21.8302 6.36935 21.6911 6.37193C21.5516 6.37451 21.3688 6.42134 21.151 6.52747L13.8095 10.1062C13.3639 10.2278 12.862 9.96571 12.7846 9.48061L12.3885 1.7001C12.3412 0.768139 11.7065 0.765991 11.6525 1.69752L11.1997 9.49522L11.2042 9.41917C11.1929 9.61467 11.1038 9.78955 10.9679 9.91888C10.9656 9.92103 10.9634 9.92361 10.9607 9.92576C10.9418 9.94337 10.922 9.95927 10.9017 9.97517C10.8963 9.97946 10.8909 9.98376 10.8855 9.98763C10.8679 10.0005 10.849 10.0121 10.8301 10.0237C10.8216 10.0289 10.8135 10.0345 10.8045 10.0396C10.7883 10.0486 10.7716 10.0564 10.755 10.0641C10.7428 10.0697 10.7311 10.0761 10.719 10.0813C10.7064 10.0865 10.6928 10.0907 10.6798 10.0955C10.6145 10.1187 10.5457 10.1346 10.4745 10.1406C10.4655 10.1415 10.457 10.1427 10.448 10.1436C10.43 10.1445 10.412 10.1436 10.394 10.1436C10.3791 10.1436 10.3643 10.1436 10.349 10.1427C10.3346 10.1419 10.3197 10.1393 10.3048 10.1376C10.2855 10.135 10.2657 10.1329 10.2463 10.129C10.2351 10.1268 10.2243 10.1238 10.213 10.1213C10.1887 10.1157 10.1644 10.1092 10.1405 10.1011C10.1338 10.0989 10.127 10.0963 10.1198 10.0938C10.0892 10.0826 10.0591 10.0706 10.0285 10.0559L2.84364 6.53907C1.974 6.11327 1.65532 6.63704 2.47409 7.14663L9.32898 11.4133C9.70798 11.7037 9.75254 12.2769 9.35194 12.6039L2.48129 16.8641C1.66162 17.3724 1.97895 17.8966 2.84949 17.4725L10.2382 13.8706C10.6469 13.7773 11.0921 13.9999 11.2096 14.4171L11.6106 22.2999C11.6579 23.2319 12.2926 23.234 12.3466 22.3025L12.8048 14.415C12.92 14.0064 13.3765 13.7344 13.8356 13.8779L21.1564 17.4618C22.026 17.8872 22.3447 17.3634 21.5259 16.8538ZM12.5514 12.9176L11.4454 12.9141L10.8914 11.9994L11.4486 11.0829L12.5545 11.0863L13.1086 12.0011L12.5514 12.9176Z" fill="url(#paint18_radial_6399_11404)"/>
<path d="M11.9999 13.1788C12.6883 13.1788 13.2463 12.6462 13.2463 11.9891C13.2463 11.332 12.6883 10.7993 11.9999 10.7993C11.3116 10.7993 10.7535 11.332 10.7535 11.9891C10.7535 12.6462 11.3116 13.1788 11.9999 13.1788Z" fill="white"/>
<path d="M21.5259 16.8535L20.8021 16.4028L21.6038 16.1033C21.7636 16.0436 21.7078 15.858 21.5394 15.8881L20.3223 16.1046L18.8796 15.2066L20.113 14.7456C20.3308 14.6639 20.2548 14.4109 20.0248 14.4517L18.191 14.7778L14.6386 12.5667C14.5513 12.4924 14.4842 12.4021 14.4388 12.3042L15.9057 12.2208L16.7335 12.8507C16.8334 12.9281 16.9392 12.8232 16.8555 12.7295L16.3747 12.1942L17.0454 12.1559L18.7329 13.4402C18.9022 13.5691 19.0795 13.3938 18.9386 13.237L17.8309 12.003C17.8534 11.9682 17.8529 11.9312 17.8295 11.8968L18.8905 10.6267C19.0255 10.4652 18.8418 10.2959 18.6771 10.4304L17.0558 11.7572L16.3635 11.728L16.8271 11.1733C16.9077 11.077 16.7978 10.9761 16.7002 11.056L15.903 11.7086L14.4505 11.6472C14.5067 11.5385 14.5922 11.4392 14.7093 11.3593L18.2135 9.18646L20.023 9.46489C20.2534 9.50056 20.3227 9.24533 20.1031 9.16928L18.9094 8.75507L20.3853 7.83987L21.5286 8.01561C21.6983 8.04182 21.7492 7.85448 21.588 7.79862L20.8593 7.54597L21.5196 7.1365C21.7244 7.00931 21.8585 6.88127 21.9301 6.76741C22.0021 6.65354 22.012 6.55343 21.9693 6.48253C21.9265 6.41164 21.8306 6.36996 21.6916 6.37254C21.552 6.37512 21.3693 6.42195 21.1514 6.52808L20.3371 6.9251L20.4906 6.01548C20.5181 5.85392 20.3223 5.80537 20.2633 5.95919L19.7947 7.18934L18.4165 7.86135L18.6064 6.7369C18.6438 6.51648 18.3764 6.45031 18.2967 6.65999L17.7071 8.20681L13.8099 10.1068C13.7109 10.1339 13.6087 10.1408 13.5093 10.1317L14.1543 8.91362L15.172 8.54238C15.2931 8.49813 15.2526 8.35806 15.1252 8.37954L14.369 8.50758L14.6508 7.97565L16.6511 7.24649C16.8532 7.17302 16.7852 6.93799 16.5719 6.97408L14.9555 7.24821C14.942 7.15411 14.8722 7.11759 14.7795 7.15669L14.1921 5.6885C14.1147 5.49558 13.8689 5.56046 13.9067 5.76412L14.2808 7.77499L13.9603 8.24978L13.7055 7.613C13.6596 7.49785 13.5129 7.53652 13.5354 7.65812L13.7136 8.61629L12.9146 9.8009C12.8498 9.71024 12.8039 9.60282 12.7846 9.48165L12.5735 5.33574L13.6339 4.07121C13.7798 3.89676 13.5817 3.71329 13.4039 3.85852L12.5343 4.56748L12.4645 3.19983L13.1595 2.37142C13.2666 2.24338 13.1213 2.10889 12.9907 2.21502L12.4375 2.66575L12.3885 1.70156C12.3412 0.769604 11.7065 0.767455 11.6525 1.69899L11.5868 2.83031L10.8247 2.24639C10.6906 2.14413 10.5502 2.28291 10.6613 2.40752L11.5535 3.40436L11.4788 4.68865L10.4493 3.90192C10.2666 3.76228 10.0748 3.95176 10.2265 4.12148L11.4333 5.47022L11.2037 9.42064C11.1947 9.5693 11.1407 9.70594 11.0556 9.81937L10.2526 8.65023L10.4097 7.6607C10.4295 7.53867 10.2814 7.50344 10.2387 7.61988L9.99561 8.27642L9.68593 7.82569L9.68683 7.82526L10.0136 5.7667C10.0465 5.5626 9.79846 5.50331 9.72644 5.69838L9.17459 7.19063C9.07781 7.14552 9.00444 7.17989 8.98959 7.27442L7.38176 7.04154C7.1675 7.0106 7.10583 7.24692 7.30974 7.31567L9.28847 7.98252L9.5842 8.52949L8.83925 8.42165C8.71141 8.40317 8.67451 8.5441 8.79649 8.58535L9.79666 8.92222L10.4565 10.1425C10.4538 10.1429 10.4507 10.1433 10.448 10.1433C10.43 10.1442 10.412 10.1433 10.394 10.1433C10.3791 10.1433 10.3643 10.1433 10.349 10.1425C10.3346 10.1416 10.3197 10.139 10.3048 10.1373C10.2855 10.1348 10.2657 10.1326 10.2463 10.1287C10.2351 10.1266 10.2243 10.1236 10.213 10.121C10.1887 10.1154 10.1644 10.109 10.1405 10.1008C10.1338 10.0987 10.127 10.0961 10.1198 10.0935C10.0892 10.0823 10.0591 10.0703 10.0285 10.0557L6.24385 8.20337L5.62899 6.70382C5.54301 6.49628 5.27789 6.56847 5.32065 6.78803L5.52861 7.85319L4.14449 7.1756L3.67321 6.02665C3.61109 5.87455 3.41664 5.92783 3.4477 6.08852L3.60884 6.9135L2.84364 6.53882C1.974 6.11301 1.65532 6.63679 2.47409 7.14638L3.19833 7.5971L2.39667 7.89659C2.23687 7.95631 2.29269 8.14193 2.46103 8.11185L3.67771 7.89573L5.1199 8.79331L3.88657 9.25435C3.66871 9.33599 3.74478 9.58907 3.97479 9.54825L5.80903 9.22213L9.32898 11.413C9.43026 11.4904 9.50723 11.5883 9.55854 11.6958L8.0943 11.7791L7.26653 11.1492C7.1666 11.0719 7.06082 11.1767 7.14454 11.2704L7.62527 11.8058L6.95459 11.844L5.26709 10.5597C5.09784 10.4308 4.9205 10.6061 5.06138 10.7629L6.16913 11.997C6.14663 12.0318 6.14708 12.0687 6.17048 12.1031L5.10955 13.3732C4.97451 13.5348 5.15816 13.704 5.3229 13.5696L6.94424 12.2427L7.63653 12.2719L7.1729 12.8267C7.09233 12.9229 7.20216 13.0239 7.29984 12.944L8.097 12.2913L9.55404 12.3532C9.50768 12.4447 9.44061 12.5302 9.35104 12.6032L5.78608 14.8139L3.97659 14.5355C3.74613 14.4998 3.67681 14.755 3.89647 14.8311L5.08974 15.2453L3.61379 16.1605L2.47094 15.9847C2.30124 15.959 2.25038 16.1459 2.41152 16.2017L3.13982 16.4544L2.48039 16.8634C1.66072 17.3717 1.97805 17.8959 2.84859 17.4718L3.66241 17.0748L3.50892 17.9849C3.48146 18.1464 3.67726 18.195 3.73623 18.0412L4.2048 16.8106L5.58307 16.1386L5.39312 17.263C5.35576 17.4834 5.62313 17.5496 5.70281 17.3399L6.29246 15.7927L10.2373 13.8695C10.3237 13.8497 10.412 13.845 10.4984 13.8523L9.84482 15.0863L8.8271 15.4575C8.70601 15.5018 8.74652 15.6419 8.87391 15.6204L9.63011 15.4923L9.34834 16.0243L7.348 16.7534C7.14589 16.8269 7.21386 17.0619 7.42722 17.0258L9.0436 16.7517C9.05711 16.8458 9.12688 16.8823 9.2196 16.8432L9.80701 18.3114C9.88443 18.5044 10.1302 18.4395 10.0924 18.2358L9.71834 16.2249L10.0388 15.7501L10.2936 16.3869C10.3395 16.5021 10.4862 16.4634 10.4637 16.3418L10.2855 15.3836L11.0957 14.1823C11.1452 14.251 11.1844 14.3288 11.2087 14.4152L11.4247 18.6646L10.3652 19.9283C10.2193 20.1027 10.4174 20.2862 10.5952 20.141L11.4639 19.4329L11.5337 20.8009L10.8396 21.6285C10.7325 21.7565 10.8778 21.891 11.0084 21.7849L11.5607 21.3346L11.6097 22.2979C11.657 23.2299 12.2917 23.232 12.3457 22.3005L12.4114 21.1688L13.1753 21.7535C13.3094 21.8558 13.4498 21.717 13.3387 21.5924L12.4456 20.5943L12.5203 19.3104L13.5507 20.0976C13.7334 20.2372 13.9252 20.0477 13.7735 19.878L12.5658 18.5284L12.8048 14.4143C12.8309 14.3219 12.875 14.2373 12.9318 14.1621L13.7469 15.3493L13.5898 16.3388C13.57 16.4608 13.7181 16.4961 13.7609 16.3796L14.0039 15.7231L14.3136 16.1738L14.3127 16.1742L13.9859 18.2328C13.9531 18.4369 14.2011 18.4962 14.2731 18.3011L14.825 16.8089C14.9217 16.854 14.9951 16.8196 15.01 16.7251L16.6178 16.958C16.832 16.9889 16.8937 16.7526 16.6898 16.6838L14.7111 16.017L14.4153 15.47L15.1603 15.5778C15.2881 15.5963 15.325 15.4554 15.2031 15.4141L14.2029 15.0773L13.5345 13.8407C13.6321 13.8347 13.7339 13.845 13.8356 13.8768L17.7561 15.7961L18.371 17.2953C18.457 17.5028 18.7221 17.4306 18.6793 17.211L18.4714 16.1463L19.856 16.8243L20.3272 17.9733C20.3889 18.1254 20.5834 18.0721 20.5523 17.9114L20.3916 17.0869L21.1564 17.4615C22.026 17.8869 22.3447 17.3631 21.5259 16.8535Z" fill="white"/>
<defs>
<radialGradient id="paint0_radial_6399_11404" cx="0" cy="0" r="1" gradientUnits="userSpaceOnUse" gradientTransform="translate(11.9681 12.0444) rotate(-114.081) scale(5.62761 5.80827)">
<stop stop-color="#3D8BFF"/>
<stop offset="1" stop-color="#3DE6FF"/>
</radialGradient>
<radialGradient id="paint1_radial_6399_11404" cx="0" cy="0" r="1" gradientUnits="userSpaceOnUse" gradientTransform="translate(12.0549 12.0047) rotate(128.343) scale(5.68404 5.75106)">
<stop stop-color="#3D8BFF"/>
<stop offset="1" stop-color="#3DE6FF"/>
</radialGradient>
<radialGradient id="paint2_radial_6399_11404" cx="0" cy="0" r="1" gradientUnits="userSpaceOnUse" gradientTransform="translate(11.9444 11.9954) rotate(-51.6568) scale(5.68404 5.75106)">
<stop stop-color="#3D8BFF"/>
<stop offset="1" stop-color="#3DE6FF"/>
</radialGradient>
<radialGradient id="paint3_radial_6399_11404" cx="0" cy="0" r="1" gradientUnits="userSpaceOnUse" gradientTransform="translate(12.0233 12.0502) rotate(-173.203) scale(5.8477 5.58967)">
<stop stop-color="#3D8BFF"/>
<stop offset="1" stop-color="#3DE6FF"/>
</radialGradient>
<radialGradient id="paint4_radial_6399_11404" cx="0" cy="0" r="1" gradientUnits="userSpaceOnUse" gradientTransform="translate(11.9768 11.9511) rotate(6.79697) scale(5.8477 5.58966)">
<stop stop-color="#3D8BFF"/>
<stop offset="1" stop-color="#3DE6FF"/>
</radialGradient>
<radialGradient id="paint5_radial_6399_11404" cx="0" cy="0" r="1" gradientUnits="userSpaceOnUse" gradientTransform="translate(12.3708 11.3562) rotate(28.3899) scale(6.32334 6.16905)">
<stop stop-color="#3D8BFF"/>
<stop offset="1" stop-color="#3DE6FF"/>
</radialGradient>
<radialGradient id="paint6_radial_6399_11404" cx="0" cy="0" r="1" gradientUnits="userSpaceOnUse" gradientTransform="translate(11.6292 12.6438) rotate(-151.61) scale(6.32334 6.16906)">
<stop stop-color="#3D8BFF"/>
<stop offset="1" stop-color="#3DE6FF"/>
</radialGradient>
<radialGradient id="paint7_radial_6399_11404" cx="0" cy="0" r="1" gradientUnits="userSpaceOnUse" gradientTransform="translate(12.851 12.0097) rotate(88.9315) scale(6.10204 6.39224)">
<stop stop-color="#3D8BFF"/>
<stop offset="1" stop-color="#3DE6FF"/>
</radialGradient>
<radialGradient id="paint8_radial_6399_11404" cx="0" cy="0" r="1" gradientUnits="userSpaceOnUse" gradientTransform="translate(11.1498 11.9909) rotate(-91.0685) scale(6.10204 6.39224)">
<stop stop-color="#3D8BFF"/>
<stop offset="1" stop-color="#3DE6FF"/>
</radialGradient>
<radialGradient id="paint9_radial_6399_11404" cx="0" cy="0" r="1" gradientUnits="userSpaceOnUse" gradientTransform="translate(16.8878 14.7638) rotate(120.178) scale(4.88932 5.00709)">
<stop stop-color="#3D8BFF"/>
<stop offset="1" stop-color="#3DE6FF"/>
</radialGradient>
<radialGradient id="paint10_radial_6399_11404" cx="0" cy="0" r="1" gradientUnits="userSpaceOnUse" gradientTransform="translate(7.11289 9.2367) rotate(-59.8225) scale(4.88932 5.00709)">
<stop stop-color="#3D8BFF"/>
<stop offset="1" stop-color="#3DE6FF"/>
</radialGradient>
<radialGradient id="paint11_radial_6399_11404" cx="0" cy="0" r="1" gradientUnits="userSpaceOnUse" gradientTransform="translate(12.0355 17.1848) rotate(179.125) scale(5.06452 4.83455)">
<stop stop-color="#3D8BFF"/>
<stop offset="1" stop-color="#3DE6FF"/>
</radialGradient>
<radialGradient id="paint12_radial_6399_11404" cx="0" cy="0" r="1" gradientUnits="userSpaceOnUse" gradientTransform="translate(11.9641 6.81634) rotate(-0.875106) scale(5.06452 4.83455)">
<stop stop-color="#3D8BFF"/>
<stop offset="1" stop-color="#3DE6FF"/>
</radialGradient>
<radialGradient id="paint13_radial_6399_11404" cx="0" cy="0" r="1" gradientUnits="userSpaceOnUse" gradientTransform="translate(13.6892 11.0974) rotate(58.3915) scale(6.67604 6.82318)">
<stop stop-color="#3D8BFF"/>
<stop offset="1" stop-color="#3DE6FF"/>
</radialGradient>
<radialGradient id="paint14_radial_6399_11404" cx="0" cy="0" r="1" gradientUnits="userSpaceOnUse" gradientTransform="translate(10.3113 12.9032) rotate(-121.608) scale(6.67605 6.82318)">
<stop stop-color="#3D8BFF"/>
<stop offset="1" stop-color="#3DE6FF"/>
</radialGradient>
<radialGradient id="paint15_radial_6399_11404" cx="0" cy="0" r="1" gradientUnits="userSpaceOnUse" gradientTransform="translate(13.6808 12.9186) rotate(120.178) scale(6.66932 6.82995)">
<stop stop-color="#3D8BFF"/>
<stop offset="1" stop-color="#3DE6FF"/>
</radialGradient>
<radialGradient id="paint16_radial_6399_11404" cx="0" cy="0" r="1" gradientUnits="userSpaceOnUse" gradientTransform="translate(10.3198 11.0818) rotate(-59.8225) scale(6.66932 6.82996)">
<stop stop-color="#3D8BFF"/>
<stop offset="1" stop-color="#3DE6FF"/>
</radialGradient>
<radialGradient id="paint17_radial_6399_11404" cx="0" cy="0" r="1" gradientUnits="userSpaceOnUse" gradientTransform="translate(11.9964 13.8655) rotate(179.125) scale(6.90829 6.59461)">
<stop stop-color="#3D8BFF"/>
<stop offset="1" stop-color="#3DE6FF"/>
</radialGradient>
<radialGradient id="paint18_radial_6399_11404" cx="0" cy="0" r="1" gradientUnits="userSpaceOnUse" gradientTransform="translate(11.9779 11.9458) scale(11.0718 10.5688)">
<stop stop-color="#CCE6FF"/>
<stop offset="0.2859" stop-color="#CAE3FF"/>
<stop offset="0.5207" stop-color="#C6D9FF"/>
<stop offset="0.7374" stop-color="#BEC7FF"/>
<stop offset="0.942" stop-color="#B2AFFF"/>
<stop offset="0.9944" stop-color="#AFA8FF"/>
</radialGradient>
</defs>
</svg>
