<svg version="1.1" xmlns="http://www.w3.org/2000/svg" x="0px" y="0px" viewBox="0 0 24 24">
<path style="fill:#ffffff;" d="M10.9,12.5c-3.5-1.8-7-3.4-10.6-4.9c2.3-0.5,5.1-0.5,8.3,0L10.9,12.5z M14,0c-2.2,1.9-3.9,4.4-5.3,7.5l2.4,5
	C11.1,7.3,12.1,3.1,14,0z M11.3,12.2l3-3.7c-0.5-2.2-0.6-4.9-0.3-8.2C12.2,3.4,11.3,7.4,11.3,12.2z M23.8,10.4
	c-2.5-1.4-5.6-2-9.3-1.8l-3.1,3.8C15,10.9,19.4,9.8,23.8,10.4z M16.3,13.9c4.3-3,5.5-2.3,7.5-3.3c-3.9-0.5-8,0.2-12.3,2L16.3,13.9z
	 M10.8,12.7C6.2,10.5,2.6,8.8,0.2,7.8c0.5,1.3,4.5,3.9,5.8,5.9L10.8,12.7z M10.7,12.9L6,13.8c-1.3,2.3-2,5.4-2,9.4
	C5.2,18.9,7.5,15.5,10.7,12.9z M11,12.8c-3.3,2.6-5.6,6.1-6.8,10.5c2.2-2.6,4.4-4.4,6.6-5.6L11,12.8z M18.8,24
	c-0.6-3.3-6.3-8.7-7.5-11L11,17.7C13,18.9,15.8,20.7,18.8,24z M18.9,23.7c0-4-0.9-7.2-2.6-9.6l-4.9-1.3C13.9,17,16.7,18.2,18.9,23.7
	z"/>
</svg>
