<svg version="1.1" xmlns="http://www.w3.org/2000/svg" x="0px" y="0px" viewBox="0 0 24 24">
<path style="fill:#ffffff;" d="M12,0C5.4,0,0,5.4,0,12s5.4,12,12,12c6.6,0,12-5.4,12-12S18.6,0,12,0z M17.7,3.9c0.5,0,1,0.4,1,1s-0.4,1-1,1
	c-0.5,0-1-0.4-1-1S17.2,3.9,17.7,3.9z M17.2,11.1c0.3,0,0.6,0.3,0.6,0.6c0,0.3-0.3,0.6-0.6,0.6c-0.3,0-0.6-0.3-0.6-0.6
	C16.6,11.4,16.9,11.1,17.2,11.1z M16.2,13.2c0.3,0,0.6,0.3,0.6,0.6c0,0.3-0.3,0.6-0.6,0.6c-0.3,0-0.6-0.3-0.6-0.6
	C15.6,13.5,15.9,13.2,16.2,13.2z M16,11.2c-0.3,0-0.5-0.3-0.5-0.5c0-0.3,0.3-0.5,0.5-0.5c0.3,0,0.5,0.3,0.5,0.5
	C16.6,11,16.3,11.2,16,11.2z M16.7,14.7c0.4,0,0.7,0.3,0.7,0.7c0,0.4-0.3,0.7-0.7,0.7c-0.4,0-0.7-0.3-0.7-0.7
	C16.1,15,16.4,14.7,16.7,14.7z M15.8,4.8c0.4,0,0.8,0.4,0.8,0.8s-0.4,0.8-0.8,0.8C15.4,6.3,15,6,15,5.6S15.4,4.8,15.8,4.8z
	 M14.6,14.3c-0.3,0-0.5-0.2-0.5-0.5c0-0.3,0.2-0.5,0.5-0.5c0.3,0,0.5,0.2,0.5,0.5C15.1,14.1,14.8,14.3,14.6,14.3z M15.4,15.2
	c0,0.3-0.3,0.6-0.6,0.6c-0.3,0-0.6-0.3-0.6-0.6c0-0.3,0.3-0.6,0.6-0.6C15.1,14.6,15.4,14.9,15.4,15.2z M9.6,12.8
	c-0.2,0-0.4-0.2-0.4-0.4c0-0.2,0.2-0.4,0.4-0.4c0.2,0,0.4,0.2,0.4,0.4C10,12.6,9.8,12.8,9.6,12.8z M9.7,13.9c0,0.2-0.2,0.4-0.5,0.4
	c-0.2,0-0.4-0.2-0.4-0.5c0-0.2,0.2-0.4,0.5-0.4C9.5,13.4,9.7,13.6,9.7,13.9z M9.4,9.7c0.3,0,0.5,0.2,0.5,0.5c0,0.3-0.2,0.5-0.5,0.5
	c-0.3,0-0.5-0.2-0.5-0.5C8.9,9.9,9.2,9.7,9.4,9.7z M8.6,8.8c0-0.3,0.3-0.6,0.6-0.6c0.3,0,0.6,0.3,0.6,0.6c0,0.3-0.3,0.6-0.6,0.6
	C8.9,9.4,8.6,9.1,8.6,8.8z M10,11.7c-0.2,0-0.4-0.2-0.4-0.4s0.2-0.4,0.4-0.4c0.2,0,0.4,0.2,0.4,0.4S10.2,11.7,10,11.7z M10.7,12.5
	c-0.2,0-0.3-0.2-0.3-0.3c0-0.2,0.2-0.3,0.3-0.3c0.2,0,0.3,0.2,0.3,0.3C11,12.3,10.9,12.5,10.7,12.5z M10.9,12.9
	c0,0.2-0.2,0.3-0.3,0.3c-0.2,0-0.3-0.2-0.3-0.3c0-0.2,0.2-0.3,0.3-0.3C10.8,12.6,10.9,12.8,10.9,12.9z M10.3,10.2
	c0-0.2,0.2-0.4,0.4-0.4c0.2,0,0.4,0.2,0.4,0.4c0,0.2-0.2,0.4-0.4,0.4C10.5,10.6,10.3,10.4,10.3,10.2z M11,11.5
	c-0.2,0-0.3-0.2-0.3-0.3c0-0.2,0.2-0.3,0.3-0.3c0.2,0,0.3,0.2,0.3,0.3C11.4,11.3,11.2,11.5,11,11.5z M11.5,13.6
	c-0.2,0-0.3-0.1-0.3-0.3c0-0.2,0.1-0.3,0.3-0.3c0.2,0,0.3,0.1,0.3,0.3C11.8,13.5,11.6,13.6,11.5,13.6z M11.7,14.1
	c0,0.2-0.1,0.3-0.3,0.3c-0.2,0-0.3-0.1-0.3-0.3c0-0.2,0.1-0.3,0.3-0.3C11.6,13.8,11.7,13.9,11.7,14.1z M11.5,12.9
	c-0.2,0-0.3-0.1-0.3-0.3c0-0.2,0.1-0.3,0.3-0.3c0.2,0,0.3,0.1,0.3,0.3C11.8,12.8,11.7,12.9,11.5,12.9z M11.6,12.1
	c-0.2,0-0.3-0.1-0.3-0.3s0.1-0.3,0.3-0.3c0.2,0,0.3,0.1,0.3,0.3S11.8,12.1,11.6,12.1z M12.3,12.6c0.2,0,0.3,0.1,0.3,0.3
	s-0.1,0.3-0.3,0.3c-0.2,0-0.3-0.1-0.3-0.3S12.1,12.6,12.3,12.6z M11.7,11.4c-0.2,0-0.3-0.1-0.3-0.3c0-0.2,0.1-0.3,0.3-0.3
	c0.2,0,0.3,0.1,0.3,0.3C12,11.2,11.9,11.4,11.7,11.4z M11.8,10.5c-0.2,0-0.3-0.2-0.3-0.3c0-0.2,0.2-0.3,0.3-0.3
	c0.2,0,0.3,0.2,0.3,0.3C12.1,10.4,12,10.5,11.8,10.5z M12.2,13.5c0.2,0,0.3,0.2,0.3,0.3c0,0.2-0.2,0.3-0.3,0.3
	c-0.2,0-0.3-0.2-0.3-0.3C11.9,13.6,12,13.5,12.2,13.5z M12.4,12.4c-0.2,0-0.3-0.1-0.3-0.3c0-0.2,0.1-0.3,0.3-0.3
	c0.2,0,0.3,0.1,0.3,0.3C12.7,12.3,12.5,12.4,12.4,12.4z M12.5,10.4c0.2,0,0.3,0.1,0.3,0.3c0,0.2-0.1,0.3-0.3,0.3
	c-0.2,0-0.3-0.1-0.3-0.3C12.2,10.5,12.4,10.4,12.5,10.4z M12.3,9.9c0-0.2,0.1-0.3,0.3-0.3c0.2,0,0.3,0.1,0.3,0.3
	c0,0.2-0.1,0.3-0.3,0.3C12.4,10.2,12.3,10.1,12.3,9.9z M12.5,11.1c0.2,0,0.3,0.1,0.3,0.3c0,0.2-0.1,0.3-0.3,0.3
	c-0.2,0-0.3-0.1-0.3-0.3C12.2,11.2,12.3,11.1,12.5,11.1z M13,12.5c0.2,0,0.3,0.2,0.3,0.3c0,0.2-0.2,0.3-0.3,0.3
	c-0.2,0-0.3-0.2-0.3-0.3C12.6,12.7,12.8,12.5,13,12.5z M13.3,13.4c0.2,0,0.4,0.2,0.4,0.4c0,0.2-0.2,0.4-0.4,0.4
	c-0.2,0-0.4-0.2-0.4-0.4C12.9,13.6,13,13.4,13.3,13.4z M13.3,12.2c-0.2,0-0.3-0.2-0.3-0.3c0-0.2,0.2-0.3,0.3-0.3
	c0.2,0,0.3,0.2,0.3,0.3C13.6,12.1,13.5,12.2,13.3,12.2z M13.4,11.4c-0.2,0-0.3-0.2-0.3-0.3c0-0.2,0.2-0.3,0.3-0.3
	c0.2,0,0.3,0.2,0.3,0.3C13.8,11.2,13.6,11.4,13.4,11.4z M13.6,10.3c-0.2,0-0.4-0.2-0.4-0.4c0-0.2,0.2-0.4,0.4-0.4
	c0.2,0,0.4,0.2,0.4,0.4C14,10.2,13.8,10.4,13.6,10.3z M13.2,7.8c-0.3,0-0.6-0.3-0.6-0.6c0-0.3,0.3-0.6,0.6-0.6
	c0.3,0,0.6,0.3,0.6,0.6C13.8,7.6,13.5,7.8,13.2,7.8z M12.9,8.2c0,0.3-0.2,0.5-0.5,0.5c-0.3,0-0.5-0.2-0.5-0.5c0-0.3,0.2-0.5,0.5-0.5
	C12.6,7.7,12.9,7.9,12.9,8.2z M12,8.8c0.2,0,0.4,0.2,0.4,0.4c0,0.2-0.2,0.4-0.4,0.4c-0.2,0-0.4-0.2-0.4-0.4
	C11.5,8.9,11.7,8.8,12,8.8z M11,8.3c-0.3,0-0.6-0.3-0.6-0.6c0-0.3,0.3-0.6,0.6-0.6c0.3,0,0.6,0.3,0.6,0.6C11.5,8.1,11.3,8.3,11,8.3z
	 M10.7,8.5c0.3,0,0.5,0.2,0.5,0.5c0,0.3-0.2,0.5-0.5,0.5c-0.3,0-0.5-0.2-0.5-0.5C10.2,8.7,10.4,8.5,10.7,8.5z M10.4,13.7
	c0.2,0,0.4,0.2,0.4,0.4c0,0.2-0.2,0.4-0.4,0.4c-0.2,0-0.4-0.2-0.4-0.4C10,13.8,10.2,13.7,10.4,13.7z M10.8,16.2
	c0.3,0,0.6,0.3,0.6,0.6c0,0.3-0.3,0.6-0.6,0.6c-0.3,0-0.6-0.3-0.6-0.6C10.2,16.4,10.5,16.2,10.8,16.2z M11.1,15.8
	c0-0.3,0.2-0.5,0.5-0.5c0.3,0,0.5,0.2,0.5,0.5c0,0.3-0.2,0.5-0.5,0.5C11.4,16.3,11.1,16.1,11.1,15.8z M12,15.2
	c-0.2,0-0.4-0.2-0.4-0.4c0-0.2,0.2-0.4,0.4-0.4c0.2,0,0.4,0.2,0.4,0.4C12.5,15.1,12.3,15.2,12,15.2z M13,15.7c0.3,0,0.6,0.3,0.6,0.6
	c0,0.3-0.3,0.6-0.6,0.6c-0.3,0-0.6-0.3-0.6-0.6C12.5,15.9,12.7,15.7,13,15.7z M13.3,15.5c-0.3,0-0.5-0.2-0.5-0.5
	c0-0.3,0.2-0.5,0.5-0.5c0.3,0,0.5,0.2,0.5,0.5C13.8,15.3,13.6,15.5,13.3,15.5z M13.6,12.7c0-0.2,0.2-0.4,0.4-0.4
	c0.2,0,0.4,0.2,0.4,0.4c0,0.2-0.2,0.4-0.4,0.4C13.8,13.1,13.6,12.9,13.6,12.7z M14.4,12.1c-0.2,0-0.4-0.2-0.4-0.4
	c0-0.2,0.2-0.4,0.4-0.4c0.2,0,0.4,0.2,0.4,0.4C14.9,11.9,14.7,12.1,14.4,12.1z M14.8,10.6c-0.2,0-0.4-0.2-0.4-0.5
	c0-0.2,0.2-0.4,0.5-0.4c0.2,0,0.4,0.2,0.4,0.5C15.2,10.4,15,10.6,14.8,10.6z M14.3,7c-0.4,0-0.7-0.3-0.7-0.7c0-0.4,0.3-0.7,0.7-0.7
	C14.7,5.7,15,6,15,6.3C15,6.7,14.7,7,14.3,7z M13.9,2.3c0.5,0,1,0.4,1,1c0,0.5-0.4,1-1,1c-0.5,0-1-0.4-1-1C13,2.8,13.4,2.3,13.9,2.3
	z M12.5,4.1c0.4,0,0.8,0.4,0.8,0.8c0,0.4-0.4,0.8-0.8,0.8c-0.4,0-0.8-0.4-0.8-0.8C11.7,4.5,12.1,4.1,12.5,4.1z M12.2,6.4
	c0,0.4-0.3,0.7-0.7,0.7c-0.4,0-0.7-0.3-0.7-0.7c0-0.4,0.3-0.7,0.7-0.7C11.9,5.7,12.2,6,12.2,6.4z M10.4,2.3c0.5,0,1,0.4,1,1
	s-0.4,1-1,1c-0.5,0-1-0.4-1-1S9.8,2.3,10.4,2.3z M9.6,4.6c0.4,0,0.8,0.4,0.8,0.8s-0.4,0.8-0.8,0.8c-0.4,0-0.8-0.4-0.8-0.8
	S9.2,4.6,9.6,4.6z M9.3,6.6c0.4,0,0.7,0.3,0.7,0.7c0,0.4-0.3,0.7-0.7,0.7c-0.4,0-0.7-0.3-0.7-0.7C8.6,6.9,8.9,6.6,9.3,6.6z
	 M9.1,11.5c0,0.3-0.2,0.5-0.5,0.5c-0.3,0-0.5-0.2-0.5-0.5c0-0.3,0.2-0.5,0.5-0.5C8.9,11,9.1,11.2,9.1,11.5z M7.8,9.6
	c0.3,0,0.6,0.3,0.6,0.6c0,0.3-0.3,0.6-0.6,0.6c-0.3,0-0.6-0.3-0.6-0.6C7.2,9.9,7.4,9.6,7.8,9.6z M6.6,8.6C6.6,8.3,6.9,8,7.3,8
	c0.4,0,0.7,0.3,0.7,0.7c0,0.4-0.3,0.7-0.7,0.7C6.9,9.3,6.6,9,6.6,8.6z M8,12.8c0.3,0,0.5,0.3,0.5,0.5c0,0.3-0.3,0.5-0.5,0.5
	c-0.3,0-0.5-0.3-0.5-0.5C7.4,13,7.7,12.8,8,12.8z M7.5,3.3c0.5,0,1,0.4,1,1c0,0.5-0.4,1-1,1c-0.5,0-1-0.4-1-1C6.5,3.7,7,3.3,7.5,3.3
	z M7.1,5.9c0.4,0,0.8,0.4,0.8,0.8c0,0.4-0.4,0.8-0.8,0.8c-0.4,0-0.8-0.4-0.8-0.8C6.4,6.2,6.7,5.9,7.1,5.9z M3.9,6.4
	c0-0.5,0.4-0.9,0.9-0.9c0.5,0,0.9,0.4,0.9,0.9c0,0.5-0.4,0.9-0.9,0.9C4.3,7.3,3.9,6.9,3.9,6.4z M4.5,8.9c0-0.4,0.4-0.7,0.8-0.7
	C5.6,8.1,6,8.5,6,8.9c0,0.4-0.4,0.7-0.8,0.7C4.8,9.6,4.5,9.3,4.5,8.9z M5.9,10.2c0.4,0,0.7,0.3,0.7,0.7c0,0.4-0.3,0.7-0.7,0.7
	c-0.4,0-0.7-0.3-0.7-0.7C5.2,10.5,5.5,10.2,5.9,10.2z M6.3,20.1c-0.5,0-1-0.4-1-1c0-0.5,0.4-1,1-1c0.5,0,1,0.4,1,1
	C7.2,19.7,6.8,20.1,6.3,20.1z M6.8,12.9c-0.3,0-0.6-0.3-0.6-0.6c0-0.3,0.3-0.6,0.6-0.6c0.3,0,0.6,0.3,0.6,0.6
	C7.4,12.6,7.1,12.9,6.8,12.9z M8.2,19.2c-0.4,0-0.8-0.4-0.8-0.8s0.4-0.8,0.8-0.8C8.6,17.7,9,18,9,18.4S8.6,19.2,8.2,19.2z M9.7,17
	c0.4,0,0.7,0.3,0.7,0.7c0,0.4-0.3,0.7-0.7,0.7C9.3,18.3,9,18,9,17.7C9,17.3,9.3,17,9.7,17z M10.1,21.7c-0.5,0-1-0.4-1-1
	c0-0.5,0.4-1,1-1c0.5,0,1,0.4,1,1C11,21.2,10.6,21.7,10.1,21.7z M11.5,19.9c-0.4,0-0.8-0.4-0.8-0.8c0-0.4,0.4-0.8,0.8-0.8
	s0.8,0.4,0.8,0.8C12.3,19.5,11.9,19.9,11.5,19.9z M11.8,17.6c0-0.4,0.3-0.7,0.7-0.7c0.4,0,0.7,0.3,0.7,0.7c0,0.4-0.3,0.7-0.7,0.7
	C12.1,18.3,11.8,18,11.8,17.6z M13.6,21.7c-0.5,0-1-0.4-1-1c0-0.5,0.4-1,1-1s1,0.4,1,1C14.6,21.2,14.2,21.7,13.6,21.7z M14.4,19.4
	c-0.4,0-0.8-0.4-0.8-0.8s0.4-0.8,0.8-0.8c0.4,0,0.8,0.4,0.8,0.8S14.8,19.4,14.4,19.4z M14.7,17.4c-0.4,0-0.7-0.3-0.7-0.7
	c0-0.4,0.3-0.7,0.7-0.7c0.4,0,0.7,0.3,0.7,0.7C15.4,17.1,15.1,17.4,14.7,17.4z M14.9,12.5c0-0.3,0.2-0.5,0.5-0.5
	c0.3,0,0.5,0.2,0.5,0.5c0,0.3-0.2,0.5-0.5,0.5C15.1,13,14.9,12.8,14.9,12.5z M16.5,20.7c-0.5,0-1-0.4-1-1c0-0.5,0.4-1,1-1
	c0.5,0,1,0.4,1,1C17.5,20.3,17,20.7,16.5,20.7z M16.9,18.1c-0.4,0-0.8-0.4-0.8-0.8s0.4-0.8,0.8-0.8c0.4,0,0.8,0.4,0.8,0.8
	S17.3,18.1,16.9,18.1z M17.5,13.1c0-0.4,0.3-0.7,0.7-0.7c0.4,0,0.7,0.3,0.7,0.7c0,0.4-0.3,0.7-0.7,0.7
	C17.7,13.8,17.5,13.5,17.5,13.1z M18,15.1c0-0.4,0.4-0.7,0.8-0.7c0.4,0,0.7,0.4,0.7,0.8c0,0.4-0.4,0.7-0.8,0.7
	C18.4,15.9,18,15.5,18,15.1z M19.1,18.5c-0.5,0-0.9-0.4-0.9-0.9c0-0.5,0.4-0.9,0.9-0.9c0.5,0,0.9,0.4,0.9,0.9
	C20,18.1,19.6,18.5,19.1,18.5z"/>
</svg>
