<svg xmlns="http://www.w3.org/2000/svg" x="0px" y="0px" viewBox="0 0 96 96">
<path style="fill-rule:evenodd;clip-rule:evenodd;fill:#FFFFFF;" d="M48,0C21.5,0,0,21.5,0,48c0,26.5,21.5,48,48,48c26.5,0,48-21.5,48-48C96,21.5,74.5,0,48,0z M30.1,28
	c0-9.8,8-17.8,17.8-17.8s17.8,8,17.8,17.8v4c0,0.7-0.6,1.3-1.3,1.3h-6.7c-0.7,0-1.3-0.6-1.3-1.3v-3.7c0-4.7-3.8-8.5-8.5-8.5
	c-4.7,0-8.5,3.8-8.5,8.5v10.9c0,2.4,1,4.5,2.6,6.1l10.2,9.8l0.1,0.1c0.6,0.5,0.4,1.5-0.4,1.7c-1.3,0.3-2.6,0.5-4,0.5
	c-9.8,0-17.8-8-17.8-17.8V28z M65.6,67c0,9.8-8,17.8-17.8,17.8s-17.8-8-17.8-17.8v-4c0-0.7,0.6-1.3,1.3-1.3h6.7
	c0.7,0,1.3,0.6,1.3,1.3v3.7c0,4.7,3.8,8.5,8.5,8.5s8.5-3.8,8.5-8.5V55.8c0-2.4-1-4.5-2.6-6.1L43.5,40l-0.1-0.1
	c-0.6-0.5-0.4-1.5,0.4-1.7c1.3-0.3,2.6-0.5,4-0.5c9.8,0,17.8,8,17.8,17.8V67z"/>
</svg>
