<svg width="24" height="24" viewBox="0 0 24 24" fill="none" xmlns="http://www.w3.org/2000/svg">
<path fill-rule="evenodd" clip-rule="evenodd" d="M22 12C22 6.47715 17.5228 2 12 2C6.47715 2 2 6.47715 2 12C2 17.5228 6.47715 22 12 22C17.5228 22 22 17.5228 22 12ZM10.7776 11.9225L10.0465 11.196C10.0409 11.1906 10.0334 11.1876 10.0255 11.1876C10.0218 11.1876 10.018 11.1884 10.0145 11.1898C10.011 11.1912 10.0078 11.1933 10.0051 11.196L7.9398 13.2466V8.08991C7.93975 8.08411 7.93802 8.07845 7.93483 8.0736C7.93164 8.06874 7.92712 8.06489 7.92179 8.0625H7.91039C7.90258 8.06257 7.89509 8.06555 7.88938 8.07084L4.009 11.9225C4.00344 11.9278 4.00021 11.935 4 11.9427C4.00018 11.9506 4.0034 11.958 4.009 11.9636L4.74006 12.6894C4.74279 12.6922 4.74607 12.6944 4.74969 12.6958C4.7533 12.6972 4.75718 12.6979 4.76107 12.6978C4.76487 12.6979 4.76865 12.6972 4.77217 12.6958C4.77569 12.6943 4.77886 12.6922 4.78148 12.6894L6.84681 10.6388V15.7961C6.84683 15.8018 6.84855 15.8074 6.85175 15.8122C6.85495 15.817 6.8595 15.8207 6.86482 15.8229C6.86857 15.8238 6.87247 15.8238 6.87622 15.8229C6.88007 15.823 6.88388 15.8222 6.8874 15.8206C6.89092 15.8191 6.89406 15.8168 6.89663 15.814L10.7776 11.9612C10.7824 11.9558 10.785 11.949 10.785 11.9418C10.785 11.9347 10.7824 11.9278 10.7776 11.9225ZM12.0205 4.00834L12.7516 4.7348C12.7544 4.73743 12.7567 4.74061 12.7583 4.74414C12.7598 4.74768 12.7606 4.7515 12.7606 4.75536C12.7606 4.75922 12.7598 4.76304 12.7583 4.76658C12.7567 4.77012 12.7544 4.7733 12.7516 4.77592L9.39038 8.11323C9.38492 8.11854 9.3776 8.12153 9.36997 8.12157C9.36216 8.1215 9.35467 8.11852 9.34896 8.11323L8.6179 7.38677C8.61244 7.3813 8.60938 7.37391 8.60938 7.36621C8.60938 7.35851 8.61244 7.35112 8.6179 7.34565L11.9791 4.00834C11.9848 4.00305 11.9923 4.00007 12.0001 4C12.0077 4.00005 12.0151 4.00304 12.0205 4.00834ZM15.3844 7.34798L14.6533 6.62211C14.6478 6.61691 14.6405 6.61393 14.6329 6.61377C14.6251 6.61384 14.6176 6.61682 14.6119 6.62211L11.2507 9.95942C11.2453 9.96489 11.2422 9.97228 11.2422 9.97998C11.2422 9.98768 11.2453 9.99507 11.2507 10.0005L11.9818 10.727C11.9875 10.7323 11.995 10.7353 12.0028 10.7353C12.0104 10.7353 12.0177 10.7323 12.0232 10.727L15.3844 7.38969C15.3872 7.38697 15.3894 7.38373 15.3909 7.38015C15.3924 7.37657 15.3932 7.37272 15.3932 7.36884C15.3932 7.36495 15.3924 7.3611 15.3909 7.35752C15.3894 7.35394 15.3872 7.3507 15.3844 7.34798ZM13.338 5.31523L14.0685 6.04109C14.0713 6.04377 14.0736 6.04698 14.0752 6.05054C14.0767 6.0541 14.0776 6.05794 14.0776 6.06182C14.0777 6.06571 14.0769 6.06957 14.0755 6.07317C14.074 6.07677 14.0718 6.08005 14.0691 6.08281L10.7079 9.42011C10.7024 9.42542 10.6951 9.42841 10.6875 9.42846C10.6797 9.42838 10.6722 9.42541 10.6665 9.42011L9.93541 8.69365C9.92995 8.68819 9.92689 8.6808 9.92689 8.67309C9.92689 8.66539 9.92995 8.658 9.93541 8.65253L13.2966 5.31523C13.3023 5.30994 13.3098 5.30696 13.3176 5.30688C13.3253 5.30693 13.3326 5.30992 13.338 5.31523ZM14.8209 16.3011H12.2178V12.9906C12.2178 12.9849 12.216 12.9793 12.2128 12.9745C12.2096 12.9697 12.2051 12.966 12.1998 12.9638C12.196 12.9629 12.1921 12.9629 12.1884 12.9638C12.1844 12.9638 12.1806 12.9646 12.177 12.9661C12.1733 12.9677 12.1701 12.9699 12.1674 12.9727L8.28698 16.8255C8.28152 16.831 8.27845 16.8384 8.27845 16.8461C8.27845 16.8538 8.28152 16.8612 8.28698 16.8666L9.01624 17.5907C9.02188 17.5961 9.02942 17.5991 9.03725 17.599C9.04103 17.5991 9.04478 17.5983 9.04829 17.5969C9.05179 17.5955 9.05497 17.5934 9.05765 17.5907L11.123 15.54V19.9709C11.123 19.9787 11.1261 19.9861 11.1316 19.9916C11.1371 19.997 11.1446 20.0001 11.1524 20.0001H12.1866C12.1944 20.0001 12.2018 19.997 12.2074 19.9916C12.2129 19.9861 12.216 19.9787 12.216 19.9709V17.3863H14.8191C14.8269 17.3863 14.8344 17.3832 14.8399 17.3777C14.8454 17.3723 14.8485 17.3648 14.8485 17.3571V16.3303C14.8485 16.3228 14.8457 16.3157 14.8405 16.3102C14.8354 16.3048 14.8284 16.3015 14.8209 16.3011ZM16.6305 8.58226L19.9916 11.9225C19.9971 11.928 20.0002 11.9354 20.0002 11.9431C20.0002 11.9508 19.9971 11.9582 19.9916 11.9637L16.6305 15.301C16.6248 15.3063 16.6173 15.3093 16.6094 15.3093C16.6016 15.3093 16.5941 15.3063 16.5884 15.301L13.2272 11.9637C13.2218 11.9581 13.2188 11.9506 13.2188 11.9428C13.2188 11.939 13.2196 11.9353 13.221 11.9318C13.2225 11.9284 13.2246 11.9252 13.2272 11.9225L16.5884 8.58226C16.5941 8.57694 16.6016 8.57397 16.6094 8.57397C16.6173 8.57397 16.6248 8.57694 16.6305 8.58226ZM14.7464 11.9422L16.607 13.7896L18.4677 11.9422L16.607 10.0948L14.7464 11.9422Z" fill="white"/>
</svg>
