<svg width="24" height="24" viewBox="0 0 24 24" fill="none" xmlns="http://www.w3.org/2000/svg">
<path d="M12.0397 2C9.73842 1.99888 7.50007 2.75416 5.66679 4.1504C3.83352 5.54664 2.50617 7.50703 1.88764 9.73191C1.26911 11.9568 1.39344 14.3238 2.24161 16.471C3.08978 18.6183 4.61513 20.4277 6.58451 21.6227C6.9853 21.8669 7.44514 21.9959 7.91396 21.9959H7.94831C8.29085 21.9978 8.63034 21.9315 8.94716 21.8008C9.26399 21.6701 9.55183 21.4776 9.79405 21.2345C10.0363 20.9914 10.228 20.7024 10.3582 20.3844C10.4884 20.0664 10.5545 19.7256 10.5527 19.3818V14.5653C10.5521 14.5386 10.5413 14.5131 10.5225 14.4943C10.5037 14.4753 10.4783 14.4645 10.4516 14.464H8.86761C8.66839 14.4713 8.46972 14.4384 8.28351 14.3669C8.09728 14.2955 7.92732 14.1871 7.78377 14.0483C7.64022 13.9093 7.52605 13.743 7.44806 13.5588C7.37007 13.3746 7.32988 13.1765 7.32988 12.9765C7.32988 12.7763 7.37007 12.5784 7.44806 12.3942C7.52605 12.21 7.64022 12.0435 7.78377 11.9047C7.92732 11.7658 8.09728 11.6574 8.28351 11.586C8.46972 11.5145 8.66839 11.4815 8.86761 11.4889H15.2017C15.4009 11.4815 15.5996 11.5145 15.7858 11.586C15.972 11.6574 16.142 11.7658 16.2856 11.9047C16.4291 12.0435 16.5433 12.21 16.6212 12.3942C16.6992 12.5784 16.7394 12.7763 16.7394 12.9765C16.7394 13.1765 16.6992 13.3746 16.6212 13.5588C16.5433 13.743 16.4291 13.9093 16.2856 14.0483C16.142 14.1871 15.972 14.2955 15.7858 14.3669C15.5996 14.4384 15.4009 14.4713 15.2017 14.464H13.6217C13.595 14.4645 13.5696 14.4753 13.5509 14.4943C13.532 14.5131 13.5212 14.5386 13.5207 14.5653V19.3818C13.5255 20.0754 13.8024 20.7392 14.2913 21.2292C14.7804 21.7193 15.4421 21.9962 16.1332 22H16.1675C16.637 21.9997 17.0973 21.8683 17.4969 21.6207C19.4634 20.4244 20.9859 18.6152 21.8321 16.4692C22.6783 14.3232 22.8018 11.9582 22.1836 9.73515C21.5653 7.51211 20.2395 5.55318 18.4083 4.15725C16.5771 2.76134 14.3412 2.00514 12.0417 2.00406L12.0397 2ZM4.56406 14.6668C4.23062 14.6672 3.90456 14.5683 3.62714 14.3826C3.34972 14.1969 3.13344 13.9327 3.00564 13.6236C2.87786 13.3145 2.84432 12.9743 2.90927 12.6459C2.97423 12.3177 3.13476 12.0162 3.37053 11.7795C3.60632 11.5428 3.90675 11.3817 4.23381 11.3165C4.56086 11.2513 4.89983 11.285 5.20782 11.4132C5.5158 11.5415 5.77895 11.7586 5.96396 12.037C6.14895 12.3155 6.2475 12.6428 6.2471 12.9774C6.24604 13.4238 6.0695 13.8516 5.75584 14.1679C5.44219 14.4843 5.01678 14.6635 4.57214 14.6668H4.56406ZM12.0397 9.63333C11.5225 9.63373 11.0169 9.48016 10.5866 9.19206C10.1564 8.90395 9.82102 8.49422 9.62283 8.01475C9.42464 7.53527 9.37257 7.00757 9.47322 6.49839C9.57387 5.98921 9.82272 5.52145 10.1883 5.15424C10.5538 4.78704 11.0197 4.5369 11.5269 4.43549C12.0341 4.33407 12.5599 4.3859 13.0378 4.58446C13.5156 4.78303 13.924 5.11938 14.2114 5.55098C14.4987 5.98256 14.6522 6.48999 14.6522 7.00911C14.6479 7.70305 14.3713 8.36735 13.8821 8.85786C13.3931 9.34837 12.731 9.62554 12.0397 9.62926V9.63333ZM19.4851 14.6668C19.1517 14.6668 18.8258 14.5675 18.5487 14.3816C18.2715 14.1956 18.0556 13.9313 17.928 13.6222C17.8006 13.313 17.7673 12.9729 17.8325 12.6448C17.8977 12.3166 18.0584 12.0152 18.2942 11.7788C18.5301 11.5423 18.8306 11.3814 19.1575 11.3164C19.4845 11.2513 19.8235 11.2851 20.1313 11.4134C20.4392 11.5418 20.7022 11.7588 20.887 12.0372C21.072 12.3156 21.1705 12.6429 21.1701 12.9774C21.169 13.4255 20.9911 13.8549 20.6752 14.1715C20.3594 14.4882 19.9314 14.6662 19.4851 14.6668Z" fill="white"/>
</svg>
