<svg width="24" height="24" viewBox="0 0 24 24" fill="none" xmlns="http://www.w3.org/2000/svg">
<path fill-rule="evenodd" clip-rule="evenodd" d="M18.3894 6.52886L20.1628 6.29219L21.1681 8.17602L20.0428 9.50629C20.1796 9.9157 20.2874 10.3351 20.3653 10.7611L22 11.3787L21.969 13.5362L20.3569 14.1006C20.2785 14.5255 20.1707 14.944 20.0344 15.3526L21.1565 16.7443L20.0983 18.5971L18.4345 18.2431C18.1628 18.5708 17.8684 18.877 17.5536 19.1594L17.8593 20.9488L16.0569 22L15.2063 21.2131V17.8049C15.9451 17.3246 16.5766 16.684 17.0579 15.9263C17.5392 15.1686 17.8591 14.3116 17.9959 13.4133C18.1327 12.5151 18.0832 11.5966 17.8508 10.7201C17.6184 9.84355 17.2085 9.02951 16.6489 8.33312L18.39 6.52954L18.3894 6.52886ZM7.29761 8.40393C6.75251 9.10275 6.35612 9.91501 6.13485 10.7866C5.91358 11.6582 5.87251 12.569 6.01438 13.4585C6.15625 14.348 6.47779 15.1956 6.9576 15.9449C7.4374 16.6943 8.06444 17.3281 8.79693 17.8042V21.1578L7.85993 21.9831L6.08783 20.8767L6.42574 19.1378C6.11236 18.854 5.81945 18.5464 5.54936 18.2175L3.83723 18.5371L2.83188 16.6526L3.95717 15.3223C3.82032 14.9127 3.71255 14.4931 3.63474 14.0669L2 13.4493L2.03031 11.2917L3.64248 10.7273C3.72079 10.3024 3.82855 9.88392 3.96492 9.47529L2.84349 8.08366L3.90108 6.23083L5.55323 6.58211L7.29761 8.40393Z" fill="white"/>
<path fill-rule="evenodd" clip-rule="evenodd" d="M6.17606 3.92091L7.97847 2.86975L9.25016 4.04632C9.64192 3.9032 10.0433 3.79052 10.4509 3.7092L11.0416 2L13.1052 2.03169L13.6443 3.71729C14.0507 3.7993 14.4509 3.91197 14.8418 4.05441L16.1722 2.88189L17.9436 3.98834L17.6057 5.72719C17.7278 5.83731 17.8469 5.95171 17.963 6.07038L16.236 7.876C15.9447 7.58349 15.6263 7.32196 15.2855 7.09524L14.2789 6.42503V12.7568L13.1555 13.4351L12.0321 14.1134L10.9088 13.4351L9.78539 12.7568V6.42503L8.77875 7.09524C8.41286 7.34012 8.07303 7.62513 7.76501 7.94544L6.0387 6.1405C6.18057 5.99352 6.32825 5.85103 6.48173 5.71303L6.17606 3.92091Z" fill="white"/>
</svg>
