<svg version="1.1" xmlns="http://www.w3.org/2000/svg" x="0px" y="0px" viewBox="0 0 24 24">
<path style="fill-rule:evenodd;clip-rule:evenodd;fill:#FFFFFF;" d="M14.4,23.2c0,0.3,0.3,0.6,0.6,0.5c5.2-1.3,9-6,9-11.6c0-6.6-5.4-12-12-12S0,5.5,0,12.1c0,5.7,4,10.4,9.3,11.7
	c0.3,0.1,0.6-0.2,0.6-0.5v-2.8c0-0.2-0.2-0.4-0.4-0.5c-1.7-0.5-3.1-1.5-4.1-2.9c-1.1-1.5-1.7-3.2-1.7-5.1c0-2.6,1-4.7,2.9-6.3
	c1.6-1.4,3.4-2,5.5-2c2.7,0,4.8,1,6.4,2.9c1.3,1.5,2,3.3,2,5.4c0,2-0.6,3.8-1.7,5.3c-1,1.3-2.3,2.3-4,2.8c-0.2,0.1-0.4,0.3-0.4,0.5
	V23.2z M14.3,13.8c0-0.3-0.2-0.5-0.5-0.5h-3.2c-0.3,0-0.5,0.2-0.5,0.5V14c0,0.4-0.5,0.7-0.7,0.3c-0.4-0.6-0.7-1.4-0.7-2.3
	c0-1,0.3-1.9,1-2.6c0.7-0.7,1.5-1.1,2.5-1.1c0.9,0,1.8,0.4,2.5,1.1c0.7,0.7,1,1.6,1,2.6c0,0.8-0.2,1.6-0.7,2.2
	c-0.2,0.4-0.7,0.1-0.7-0.3V13.8z"/>
</svg>
