<svg xmlns="http://www.w3.org/2000/svg" x="0px" y="0px" viewBox="0 0 96 96">
<path style="fill:#FFFFFF;" d="M48,0C36.7,0,25.8,3.9,17.1,11.2h61.7C70.2,3.9,59.3,0,48,0z M48,96c11.2,0,22-3.9,30.6-11H17.4
	C26,92.1,36.8,96,48,96z M70.9,24.4h18.9c-1.6-2.7-3.4-5.3-5.4-7.7H11.6c-3,3.5-5.5,7.4-7.5,11.6h63.9L70.9,24.4z M47.5,50.8H0
	c0.2,4,0.9,7.9,2.1,11.6h40.9l2.8-4h49c0.6-2.5,0.9-5.1,1.1-7.7H47.5z M58.2,41.4h37.4c-0.4-2.6-0.9-5.2-1.7-7.7H2.1
	C0.9,37.5,0.2,41.4,0,45.3h55.5L58.2,41.4z M11.8,79.6h19l2.8-3.9h53.7c1.7-2.4,3.2-5,4.5-7.7H4.3C6.2,72.1,8.7,76.1,11.8,79.6z"/>
</svg>
