<svg width="24" height="24" viewBox="0 0 24 24" fill="none" xmlns="http://www.w3.org/2000/svg">
<path d="M17.8903 13.3398H20.7429C20.7766 13.3398 20.8101 13.3329 20.8413 13.3194C20.8725 13.3058 20.901 13.2859 20.9248 13.2609C20.9488 13.2358 20.9678 13.2059 20.9805 13.1732C20.9935 13.1404 21.0001 13.1052 21 13.0698V10.9098C21 10.8382 20.973 10.7695 20.9247 10.7189C20.8765 10.6682 20.8111 10.6398 20.7429 10.6398H16.7457L13.5966 3.2136C13.5698 3.1504 13.5262 3.09663 13.4711 3.05876C13.416 3.02088 13.3516 3.00047 13.2857 3H10.7143C10.648 3.00002 10.5832 3.02019 10.5276 3.0581C10.472 3.09603 10.428 3.15003 10.4012 3.2136L7.25429 10.6398H3.25714C3.18894 10.6398 3.12353 10.6682 3.07531 10.7189C3.02709 10.7695 3 10.8382 3 10.9098V13.0698C2.99991 13.1052 3.00652 13.1404 3.01941 13.1732C3.03231 13.2059 3.05124 13.2358 3.07514 13.2609C3.09903 13.2859 3.12741 13.3058 3.15865 13.3194C3.18987 13.3329 3.22335 13.3398 3.25714 13.3398H6.10971L3.024 20.6202C3.00661 20.6611 2.99923 20.7061 3.00254 20.7508C3.00585 20.7956 3.01973 20.8387 3.04294 20.8765C3.06614 20.9141 3.09793 20.9452 3.13542 20.9668C3.17293 20.9883 3.21496 20.9997 3.25771 21H5.55314C5.61941 20.9998 5.68427 20.9797 5.73984 20.9418C5.79542 20.9039 5.83933 20.8498 5.86629 20.7863L12 6.32099L18.1338 20.7863C18.1606 20.8498 18.2046 20.9039 18.2602 20.9418C18.3158 20.9797 18.3806 20.9998 18.4469 21H20.7423C20.7852 21 20.8274 20.9889 20.8651 20.9674C20.9029 20.9459 20.935 20.915 20.9583 20.8772C20.9817 20.8395 20.9958 20.7962 20.9991 20.7513C21.0026 20.7064 20.9952 20.6613 20.9778 20.6202L17.8903 13.3398Z" fill="white"/>
</svg>
