<svg width="24" height="24" viewBox="0 0 24 24" fill="none" xmlns="http://www.w3.org/2000/svg">
<path fill-rule="evenodd" clip-rule="evenodd" d="M12.8954 16.6555C16.2357 17.2261 19.2862 15.1794 19.8436 11.9069L21.4338 2.57148C18.0935 2.00089 15.043 4.04751 14.4856 7.32L14.4253 7.67357L19.0513 9.546L14.1193 11.5423L13.4085 13.6435L12.8954 16.6555ZM12.3951 16.6391L12.3292 17.026C16.1209 17.9345 19.7046 15.677 20.3337 11.9837L22 2.20096C18.2238 1.29617 14.6539 3.53156 14.0034 7.198L12.351 2.18591L12.2478 2.48027L12.3018 2.16206C8.59206 1.37615 5.08973 3.65302 4.47924 7.24757L2 21.8448C5.70978 22.6308 9.21206 20.3539 9.82258 16.7593L10.6286 12.0135L12.2943 16.9372L12.3951 16.6391ZM11.3168 5.13369L10.4692 7.54976L5.53718 9.546L10.2439 11.4511L9.35472 16.6861C8.81233 19.8798 5.81888 21.9479 2.54243 21.4788L4.94705 7.32076C5.48946 4.12712 8.48292 2.05897 11.7594 2.52818L11.3168 5.13369Z" fill="white"/>
</svg>
