<svg width="24" height="24" viewBox="0 0 24 24" fill="none" xmlns="http://www.w3.org/2000/svg">
<path fill-rule="evenodd" clip-rule="evenodd" d="M18.2735 13.7546L11.4977 2H12.9508L19 12.4941L18.2735 13.7546ZM10.7992 2.41228L5 12.4729L5.7266 13.7333L10.8106 4.9134L13.5689 9.6985C13.06 9.6156 12.5377 9.5725 12.0054 9.5725C11.8455 9.5725 11.6866 9.5764 11.5286 9.5841L10.6917 11.0337C11.1179 10.9711 11.5562 10.9397 12.0054 10.9397C12.8768 10.9397 13.7168 11.0743 14.5057 11.3237L16.2419 14.3356H17.695L10.8226 2.41321L10.8112 2.43302L10.7992 2.41228ZM11.5484 7.7992L8.94255 12.32C9.91275 11.9923 10.952 11.8147 12.0327 11.8147C12.6588 11.8144 13.2835 11.8747 13.898 11.9948L14.8715 13.681C13.986 13.358 13.0299 13.1819 12.0327 13.1819C10.471 13.1819 9.04085 13.5612 7.7945 14.3116L7.7807 14.3356H6.32755L10.8219 6.53875L11.5484 7.7992ZM11.9482 22C11.6263 22 11.3213 21.9472 11.0331 21.8417C10.745 21.736 10.5042 21.5788 10.3106 21.3699C10.1193 21.161 10.0045 20.8993 9.96615 20.5849H10.817C10.8711 20.832 11.0027 21.0206 11.2121 21.1509C11.4237 21.279 11.6825 21.343 11.9887 21.343C12.1665 21.343 12.3331 21.316 12.4885 21.2621C12.646 21.2082 12.7732 21.1285 12.87 21.0229C12.9668 20.9151 13.0152 20.7826 13.0152 20.6254C13.0152 20.4479 12.9532 20.3097 12.8294 20.2109C12.7056 20.1098 12.5267 20.0301 12.2926 19.9717L11.3371 19.746C10.9656 19.6629 10.6685 19.518 10.4457 19.3113C10.2228 19.1047 10.1114 18.8093 10.1114 18.4252C10.1114 18.1332 10.1912 17.8816 10.3511 17.6705C10.5131 17.4571 10.7326 17.292 11.0095 17.1752C11.2864 17.0584 11.5982 17 11.9448 17C12.3388 17 12.6719 17.0662 12.9443 17.1988C13.2189 17.3313 13.4271 17.5077 13.5689 17.7278C13.7108 17.9457 13.7828 18.186 13.785 18.4488H12.9544C12.9251 18.159 12.8126 17.9557 12.6167 17.8389C12.4231 17.7199 12.1913 17.6604 11.9212 17.6604C11.6015 17.6604 11.364 17.7289 11.2087 17.8659C11.0534 18.0029 10.9757 18.1635 10.9757 18.3477C10.9757 18.5207 11.0321 18.6577 11.1446 18.7588C11.2594 18.8599 11.4361 18.9384 11.6747 18.9946L12.583 19.2069C13.0377 19.3034 13.3618 19.4719 13.5554 19.7122C13.749 19.9503 13.8458 20.23 13.8458 20.5512C13.8458 20.8343 13.7659 21.0847 13.606 21.3025C13.4462 21.5204 13.2234 21.6911 12.9375 21.8147C12.6516 21.9382 12.3219 22 11.9482 22ZM7.24895 22C6.79875 22 6.43525 21.9259 6.15835 21.7777C5.88375 21.6272 5.6845 21.4115 5.5607 21.1308C5.4369 20.8477 5.375 20.5063 5.375 20.1064V17.0606H6.21575V20.1907C6.21575 20.5681 6.30805 20.8466 6.49265 21.0263C6.6772 21.206 6.92935 21.2958 7.24895 21.2958C7.5686 21.2958 7.823 21.2071 8.01205 21.0296C8.2034 20.8499 8.29905 20.5703 8.29905 20.1907V17.0606H9.1297V20.1537C9.1297 20.7309 8.9845 21.1835 8.6941 21.5114C8.40375 21.8372 7.922 22 7.24895 22ZM14.7792 17.0606V21.9326H16.042C16.9221 21.9326 17.5727 21.7181 17.9936 21.2891C18.4146 20.8578 18.625 20.2514 18.625 19.4697C18.625 18.7217 18.4258 18.1388 18.0273 17.721C17.6289 17.3033 16.984 17.0854 16.0926 17.0674C15.9868 17.0652 15.8642 17.064 15.7246 17.064C15.585 17.0617 15.4465 17.0606 15.3092 17.0606H14.9547H14.7792ZM16.0555 21.2554H15.6131V17.7379H16.0757C16.4269 17.7379 16.7285 17.7952 16.9806 17.9097C17.2327 18.022 17.4263 18.2051 17.5614 18.4589C17.6964 18.7127 17.764 19.0507 17.764 19.473C17.764 19.9088 17.6909 20.257 17.5445 20.5175C17.4005 20.7781 17.2001 20.9667 16.9435 21.0835C16.6869 21.1981 16.3909 21.2554 16.0555 21.2554Z" fill="white"/>
</svg>
