<svg width="24" height="24" viewBox="0 0 24 24" fill="none" xmlns="http://www.w3.org/2000/svg">
<path fill-rule="evenodd" clip-rule="evenodd" d="M12.2485 8.05956C12.251 8.05506 12.2534 8.05064 12.2558 8.04623C12.3935 7.80019 13.1177 7.46525 13.1177 7.46525C13.1177 7.46525 13.1984 8.27819 13.0599 8.52414L13.0452 8.55072C12.9068 8.79668 12.1833 9.13162 12.1833 9.13162C12.1833 9.13162 12.1027 8.31876 12.2404 8.07272C12.2428 8.06831 12.2461 8.06389 12.2485 8.05956ZM10.9483 8.53731C10.9459 8.53297 10.9434 8.52864 10.941 8.52414C10.8033 8.27819 10.8831 7.46525 10.8831 7.46525C10.8831 7.46525 11.6074 7.80019 11.7458 8.04623L11.7605 8.07272C11.8982 8.31876 11.8184 9.13162 11.8184 9.13162C11.8184 9.13162 11.0941 8.79668 10.9556 8.55072C10.9532 8.5463 10.9508 8.54181 10.9483 8.53731ZM11.5577 6.7987C11.5577 6.79387 11.5577 6.78904 11.5577 6.78412C11.5577 6.51359 12.0057 5.8822 12.0057 5.8822C12.0057 5.8822 12.4538 6.51359 12.4538 6.78412V6.81337C12.4538 7.0839 12.0057 7.7152 12.0057 7.7152C12.0057 7.7152 11.5577 7.0839 11.5577 6.81337C11.5577 6.80845 11.5577 6.80362 11.5577 6.7987Z" fill="white"/>
<path d="M6.93221 9.8848C6.74913 9.95794 4.27101 10.978 3.32455 12.9363C3.31883 12.9485 3.31148 12.9597 3.30412 12.9698C3.40792 13.4186 3.5289 14.0638 3.44635 14.3773C3.34092 14.7784 2.93716 15.0168 2.54567 14.9093C2.15335 14.8019 1.92041 14.389 2.02502 13.988C2.10921 13.6693 2.54076 13.1606 2.85216 12.8253C2.84317 12.6549 2.83825 12.4831 2.83825 12.3103C2.83825 7.13946 6.94365 3 11.9996 3C17.0555 3 21.1601 7.13946 21.1601 12.3103C21.1601 12.4826 21.1552 12.6538 21.1462 12.8238C21.4576 13.1592 21.8908 13.6687 21.975 13.988C22.0796 14.389 21.8466 14.8019 21.4543 14.9093C21.0628 15.0168 20.6591 14.7784 20.5536 14.3773C20.4719 14.0642 20.5912 13.4201 20.6959 12.9712C20.6877 12.9607 20.6795 12.9491 20.6738 12.9363C19.7249 10.9733 17.2378 9.95309 17.0653 9.8843C16.4662 12.4845 17.6759 15.1163 19.8875 16.3509C19.9693 16.397 20.0003 16.5029 19.9554 16.5872C19.9096 16.6716 19.8066 16.7026 19.7241 16.6566C18.4384 15.9388 17.4724 14.7754 16.9673 13.4166L16.9648 13.4314C16.937 13.5901 16.906 13.7481 16.87 13.9051C16.8046 14.1909 16.7253 14.4734 16.6305 14.7504C16.5333 15.0335 16.4205 15.3109 16.2905 15.5799C16.2096 15.7466 16.123 15.91 16.0306 16.0697L16.0241 16.0795C16.4466 17.1219 17.192 18.0041 18.1377 18.6076C18.2178 18.6585 18.2423 18.766 18.1924 18.8476C18.1426 18.9291 18.0371 18.954 17.9578 18.9032C17.0179 18.3036 16.2652 17.4452 15.8042 16.4316C15.2427 17.27 14.5758 17.863 13.9603 18.2768C13.9603 18.2792 13.9612 18.2814 13.962 18.2837C14.2153 19.1878 14.6551 20.0132 15.2362 20.715C15.2967 20.7881 15.2877 20.8975 15.2158 20.9592C15.1438 21.0209 15.0367 21.0115 14.9754 20.9384C14.3829 20.2226 13.9301 19.3846 13.6604 18.4675C12.7883 18.9907 12.0821 19.1524 12.0372 19.1624L12.0053 19.1666H11.993C11.9824 19.1662 11.9718 19.1648 11.9612 19.1624C11.917 19.1525 11.2117 18.9909 10.3404 18.4687C10.0707 19.3853 9.61791 20.2229 9.02536 20.9384C8.96487 21.0115 8.85699 21.0209 8.78507 20.9592C8.71314 20.8975 8.70415 20.7881 8.76464 20.715C9.34575 20.0132 9.78547 19.1878 10.0388 18.2837C10.0397 18.2819 10.0397 18.28 10.0405 18.2781C9.4234 17.8637 8.75565 17.2697 8.19333 16.4293C7.73154 17.4439 6.9788 18.3031 6.03807 18.9032C5.95879 18.954 5.85335 18.9291 5.80349 18.8476C5.75363 18.766 5.77815 18.6585 5.85824 18.6076C6.8047 18.0036 7.55092 17.1203 7.97266 16.0769C7.55337 15.3598 7.21337 14.4832 7.0311 13.4141C6.53172 14.7586 5.58118 15.9119 4.31761 16.6318C4.30208 16.6403 4.28818 16.6485 4.27347 16.6566C4.24813 16.6706 4.22116 16.6775 4.19419 16.6779H4.19174C4.13207 16.6781 4.07322 16.6452 4.04216 16.5872C4.02336 16.5519 4.01764 16.5129 4.02337 16.476C4.02745 16.4498 4.03809 16.4247 4.0528 16.4029L4.05607 16.3989C4.06343 16.3884 4.0724 16.3787 4.08221 16.3701L4.11082 16.3504C4.12962 16.3402 4.1476 16.3298 4.16558 16.3196L4.21544 16.2908L4.2849 16.249L4.36338 16.2008C4.37973 16.1903 4.39607 16.1799 4.41323 16.1691L4.44757 16.1468L4.5203 16.098C4.52848 16.0928 4.53583 16.0875 4.54401 16.0821L4.62165 16.0283C4.66497 15.9976 4.70747 15.9663 4.74997 15.9343L4.84887 15.8586L4.89628 15.8206L4.96737 15.7625L5.00497 15.7311C5.02703 15.7124 5.04911 15.6936 5.07117 15.6746C5.11694 15.6348 5.16189 15.5942 5.20602 15.553L5.25834 15.5037C6.41567 14.4017 7.09566 12.835 7.08422 11.1827C7.08177 10.7537 7.03193 10.3188 6.93221 9.8848ZM16.6787 10.0677C16.1622 9.91122 15.6179 9.82754 15.0555 9.82754C14.3232 9.82754 13.6211 9.96939 12.9714 10.2292C12.8365 10.3187 12.7025 10.5213 12.7025 10.6759C12.7025 10.772 12.6526 10.7816 12.6199 10.7816C12.5505 10.7816 12.5088 10.65 12.5088 10.5539C12.5088 10.268 12.5611 10.0735 12.8104 9.92166C12.8226 9.91431 12.8349 9.90862 12.848 9.90461C13.5361 9.62952 14.2799 9.47922 15.0555 9.47922C15.6113 9.47922 16.1508 9.55638 16.6649 9.70132C13.5247 8.17154 12.378 5.38281 11.9996 4.07246C11.6204 5.3829 10.4736 8.17213 7.33269 9.70182C7.8476 9.55654 8.38703 9.47922 8.94362 9.47922C9.72416 9.47922 10.472 9.63119 11.1627 9.90921C11.2068 9.92676 11.2387 9.96053 11.2566 10.0012C11.2607 10.0114 11.264 10.0221 11.2665 10.033C11.3539 10.3343 11.4201 10.6445 11.4626 10.9626C11.5035 11.2766 11.5223 11.5971 11.5157 11.9236C11.5084 12.2481 11.4781 12.5658 11.4242 12.8756C11.3686 13.192 11.2902 13.4994 11.1896 13.7966C11.1823 13.8205 11.1569 13.834 11.134 13.8266C11.1103 13.8192 11.0973 13.7937 11.1046 13.7698C11.1839 13.4724 11.2403 13.1666 11.2738 12.8536C11.3057 12.5501 11.3155 12.2409 11.3008 11.9265C11.2869 11.6134 11.2485 11.3078 11.1888 11.0101C11.1332 10.7337 11.0588 10.4653 10.9673 10.2053C10.3347 9.9607 9.65387 9.82754 8.94362 9.82754H8.92974C8.5979 9.82838 8.27262 9.85822 7.9555 9.91506C7.73891 9.95385 7.5264 10.0052 7.31798 10.0683C7.41443 10.5832 7.44385 11.0974 7.4136 11.6013C7.41115 11.6372 7.40871 11.673 7.40626 11.7086L7.40135 11.7677L7.39399 11.8438L7.38746 11.9118C7.38093 11.972 7.37275 12.0319 7.36458 12.0915C7.36376 12.0993 7.36212 12.1072 7.3613 12.1148C7.35477 12.1599 7.34823 12.2048 7.34087 12.2498C7.31962 12.3742 7.29591 12.4977 7.26812 12.6201C7.26812 12.6236 7.26894 12.6272 7.26894 12.6308C7.73236 17.6149 11.5877 18.7182 11.9996 18.822C12.4107 18.7182 16.266 17.6149 16.7294 12.6308C16.7294 12.6285 16.7302 12.6261 16.7302 12.6238C16.5431 11.8048 16.5169 10.9369 16.6787 10.0677ZM12.8169 16.6957C12.7393 16.8682 12.6142 17.0016 12.463 17.0719C12.3151 17.1461 12.1565 17.1838 11.9971 17.1828C11.8369 17.1837 11.6776 17.1443 11.5305 17.067C11.3792 16.9954 11.255 16.8579 11.1823 16.6812C11.3081 16.7633 11.4454 16.8191 11.5868 16.8462C11.7225 16.8751 11.8598 16.8896 11.998 16.8896C12.1353 16.8907 12.2726 16.8779 12.4083 16.851C12.5505 16.8267 12.6886 16.7742 12.8169 16.6957ZM13.1422 16.3209C13.134 16.2131 12.8937 16.1737 12.6919 16.0776C12.49 15.9816 12.36 15.9698 12.1941 16.0659C12.141 16.1021 12.0797 16.1255 12.0159 16.1343C12.0159 16.1343 12.0045 16.1373 11.9996 16.1373C11.9939 16.1373 11.9824 16.1343 11.9824 16.1343C11.9179 16.1247 11.8574 16.1013 11.8042 16.0659C11.6383 15.9698 11.5051 15.9816 11.3057 16.0776C11.1071 16.1737 10.8643 16.2131 10.8562 16.3209C10.848 16.4287 10.8766 16.5011 11.1332 16.4972C11.3899 16.4933 11.5918 16.4051 11.7193 16.4688C11.7773 16.5098 11.8402 16.5447 11.9072 16.5727C11.9693 16.5885 12.0347 16.5885 12.0977 16.5727C12.1639 16.5444 12.2268 16.5096 12.2865 16.4688C12.4132 16.4051 12.6183 16.4933 12.8668 16.4972C13.116 16.5011 13.1504 16.4295 13.1422 16.3209ZM12.3298 14.8668C12.378 14.93 12.4548 14.9643 12.5325 14.9581C12.6853 14.9475 12.8087 14.8219 12.8194 14.6654C12.8251 14.5851 12.7916 14.507 12.7303 14.4573C12.682 14.496 12.6314 14.5313 12.5791 14.563C12.5488 14.5813 12.5219 14.6029 12.4965 14.6273C12.4728 14.6534 12.4516 14.6818 12.4336 14.712C12.4009 14.7655 12.3666 14.8171 12.3298 14.8668ZM11.6686 14.8668C11.6204 14.93 11.5443 14.9643 11.4659 14.9581C11.313 14.9475 11.1896 14.8219 11.179 14.6654C11.1733 14.5851 11.2068 14.507 11.2681 14.4573C11.3163 14.496 11.367 14.5313 11.4193 14.563C11.4495 14.5813 11.4765 14.6029 11.5018 14.6273C11.5255 14.6534 11.5468 14.6818 11.5648 14.712C11.5975 14.7655 11.6318 14.8171 11.6686 14.8668ZM20.9999 13.1732C20.9737 13.2928 20.9476 13.422 20.9255 13.5519C20.8773 13.8333 20.8381 14.118 20.8822 14.2872C20.9394 14.5026 21.156 14.6306 21.3661 14.5729C21.5769 14.5152 21.702 14.2935 21.6456 14.0781C21.6015 13.9089 21.4282 13.6825 21.2492 13.4631C21.1666 13.362 21.0808 13.2634 20.9999 13.1732ZM3.00008 13.1732C2.91917 13.2634 2.83336 13.362 2.75081 13.4631C2.57182 13.6825 2.39854 13.9089 2.35441 14.0781C2.29801 14.2935 2.42305 14.5152 2.63392 14.5729C2.84397 14.6306 3.06058 14.5026 3.11779 14.2872C3.16193 14.118 3.12269 13.8333 3.07447 13.5519C3.0524 13.422 3.02623 13.2928 3.00008 13.1732ZM12.1655 3.34982C12.1663 3.35476 12.1671 3.35986 12.168 3.36487C12.1859 3.48173 12.879 7.69884 17.1822 9.55696C17.3015 9.60469 19.7126 10.5867 20.8176 12.4801C20.8193 12.4236 20.8193 12.367 20.8193 12.3103C20.8193 7.38839 16.9566 3.44052 12.1655 3.34982ZM11.8329 3.34982C7.04173 3.44052 3.17909 7.38839 3.17909 12.3103C3.17909 12.367 3.17991 12.4236 3.18073 12.4801C4.28656 10.5867 6.69683 9.60469 6.81698 9.55696C11.1193 7.69884 11.8124 3.48173 11.8304 3.36487C11.8312 3.35977 11.832 3.35476 11.8329 3.34982ZM14.3723 11.1841C15.2198 11.1572 15.3694 11.486 15.2631 11.6518C15.1193 11.8766 14.906 12.0478 14.6551 12.1388C16.284 12.194 16.0772 11.2306 16.0772 11.2306C15.9472 10.5873 15.1839 10.6374 15.1839 10.6374C15.8107 11.0236 15.4274 11.1446 15.4274 11.1446C14.3951 10.2518 13.1823 11.371 13.1823 11.371C13.501 11.2924 13.7764 11.2417 14.011 11.213C13.9317 11.2403 13.8623 11.2808 13.8083 11.3307C13.8451 11.3118 13.89 11.3007 13.9383 11.3007C14.0641 11.3007 14.1663 11.3768 14.1663 11.4704C14.1663 11.564 14.0641 11.64 13.9383 11.64C13.8116 11.64 13.7094 11.564 13.7094 11.4704C13.7094 11.4693 13.7094 11.4683 13.7094 11.4672C13.6931 11.5069 13.6833 11.5492 13.6833 11.593C13.6833 11.8241 13.9375 12.0117 14.2497 12.0117C14.5611 12.0117 14.8144 11.8241 14.8144 11.593C14.8144 11.3931 14.6248 11.2257 14.3723 11.1841ZM9.62609 11.1841C8.77853 11.1572 8.62897 11.486 8.73522 11.6518C8.87907 11.8766 9.0932 12.0478 9.34412 12.1388C7.71439 12.194 7.92118 11.2306 7.92118 11.2306C8.05113 10.5873 8.8145 10.6374 8.8145 10.6374C8.18762 11.0236 8.57094 11.1446 8.57094 11.1446C9.60322 10.2518 10.8161 11.371 10.8161 11.371C10.4974 11.2924 10.2227 11.2417 9.98734 11.213C10.0666 11.2403 10.1361 11.2808 10.19 11.3307C10.1533 11.3118 10.1083 11.3007 10.0609 11.3007C9.93423 11.3007 9.83206 11.3768 9.83206 11.4704C9.83206 11.564 9.93423 11.64 10.0609 11.64C10.1868 11.64 10.2889 11.564 10.2889 11.4704C10.2889 11.4693 10.2889 11.4683 10.2889 11.4672C10.3061 11.5069 10.3151 11.5492 10.3151 11.593C10.3151 11.8241 10.0617 12.0117 9.74951 12.0117C9.43729 12.0117 9.18393 11.8241 9.18393 11.593C9.18393 11.3931 9.37354 11.2257 9.62609 11.1841Z" fill="white"/>
</svg>
