<svg width="24" height="24" viewBox="0 0 24 24" fill="none" xmlns="http://www.w3.org/2000/svg">
<path fill-rule="evenodd" clip-rule="evenodd" d="M19.3874 7.12122C19.8684 7.12122 20.2583 7.50111 20.2583 7.96972C20.2583 8.42844 19.8846 8.80219 19.4177 8.81766L18.3537 10.3727L18.342 10.3894C18.1023 10.7279 17.7095 10.9327 17.2875 10.9392L17.2668 10.9394L15.9771 10.9393C16.098 11.2087 16.1909 11.4927 16.2523 11.7878L18.9945 11.7879L19.0086 11.7877C19.1441 11.7834 19.27 11.7178 19.3488 11.6102L19.3568 11.599L20.3813 10.1017C20.3032 9.97448 20.2583 9.82569 20.2583 9.66667C20.2583 9.19806 20.6482 8.81817 21.1291 8.81817C21.6101 8.81817 22 9.19806 22 9.66667C22 10.1301 21.6187 10.5067 21.1451 10.515L20.0814 12.0696L20.0697 12.0864C19.8301 12.4248 19.4373 12.6297 19.0153 12.6362L18.9945 12.6364L16.3394 12.6363C16.3395 12.927 16.3095 13.2108 16.2523 13.4849L18.9945 13.4848C19.4243 13.4848 19.8262 13.6908 20.0697 14.0348L20.0814 14.0516L21.1451 15.6062C21.6187 15.6145 22 15.9911 22 16.4546C22 16.9232 21.6101 17.303 21.1291 17.303C20.6482 17.303 20.2583 16.9232 20.2583 16.4546C20.2583 16.2955 20.3032 16.1467 20.3813 16.0195L19.3568 14.5222C19.2787 14.408 19.1488 14.3379 19.0086 14.3335L18.9945 14.3333L15.9771 14.3334C15.8413 14.6363 15.6702 14.9208 15.4689 15.1819L17.2528 15.1818C17.6827 15.1818 18.0845 15.3878 18.328 15.7318L18.3397 15.7486L19.4034 17.3032C19.877 17.3115 20.2583 17.6881 20.2583 18.1515C20.2583 18.6201 19.8684 19 19.3874 19C18.9065 19 18.5166 18.6201 18.5166 18.1515C18.5166 17.9925 18.5615 17.8437 18.6396 17.7165L17.6151 16.2192C17.537 16.105 17.4071 16.0349 17.2669 16.0305L17.2528 16.0303L14.598 16.0304C13.8703 16.5631 12.9656 16.8788 11.9852 16.8788C11.0048 16.8788 10.1001 16.5631 9.37235 16.0304L6.74717 16.0303L6.73313 16.0305C6.59757 16.0348 6.47174 16.1004 6.39287 16.2079L6.38491 16.2192L5.36042 17.7165C5.43852 17.8437 5.4834 17.9925 5.4834 18.1515C5.4834 18.6201 5.09351 19 4.61256 19C4.1316 19 3.7417 18.6201 3.7417 18.1515C3.7417 17.6881 4.123 17.3115 4.5966 17.3032L5.6603 15.7486L5.67197 15.7318C5.9116 15.3934 6.30443 15.1885 6.72643 15.182L6.74717 15.1818L8.50156 15.1819C8.30022 14.9208 8.12913 14.6363 7.9933 14.3334L5.00549 14.3333L4.99143 14.3335C4.85587 14.3378 4.73001 14.4034 4.65118 14.511L4.6432 14.5222L3.61872 16.0196C3.69682 16.1468 3.7417 16.2955 3.7417 16.4546C3.7417 16.9232 3.35181 17.303 2.87085 17.303C2.3899 17.303 2 16.9232 2 16.4546C2 15.9911 2.3813 15.6145 2.85489 15.6062L3.9186 14.0516L3.93027 14.0348C4.1699 13.6964 4.56274 13.4915 4.98472 13.485L5.00549 13.4848L7.71804 13.4849C7.6643 13.2269 7.63456 12.9603 7.63126 12.6876L7.63096 12.6363L5.00549 12.6364C4.57567 12.6364 4.17383 12.4304 3.93027 12.0864L3.9186 12.0696L2.85489 10.515C2.3813 10.5067 2 10.1301 2 9.66667C2 9.19806 2.3899 8.81817 2.87085 8.81817C3.35181 8.81817 3.7417 9.19806 3.7417 9.66667C3.7417 9.82565 3.69682 9.97444 3.61872 10.1016L4.6432 11.599C4.72135 11.7132 4.85119 11.7832 4.99143 11.7877L5.00549 11.7879L7.71804 11.7878C7.77956 11.4927 7.87248 11.2087 7.9933 10.9393L6.73322 10.9394C6.30339 10.9394 5.90157 10.7334 5.65801 10.3894L5.64635 10.3727L4.58236 8.81766C4.11538 8.80219 3.7417 8.42844 3.7417 7.96972C3.7417 7.50111 4.1316 7.12122 4.61256 7.12122C5.09351 7.12122 5.4834 7.50111 5.4834 7.96972C5.4834 8.13318 5.43596 8.28586 5.35375 8.41537L6.37096 9.90199C6.44909 10.0162 6.57896 10.0863 6.71917 10.0907L6.73322 10.0909L8.50156 10.0908C9.29596 9.06042 10.5607 8.39394 11.9852 8.39394C13.4097 8.39394 14.6745 9.06042 15.4689 10.0908L17.2668 10.0909L17.2808 10.0907C17.4164 10.0864 17.5423 10.0208 17.6211 9.91327L17.629 9.90199L18.6463 8.41537C18.564 8.28586 18.5166 8.13318 18.5166 7.96972C18.5166 7.50111 18.9065 7.12122 19.3874 7.12122ZM11.9852 9.24244C10.0614 9.24244 8.50178 10.7619 8.50178 12.6364C8.50178 14.5108 10.0614 16.0303 11.9852 16.0303C13.909 16.0303 15.4686 14.5108 15.4686 12.6364C15.4686 10.7619 13.909 9.24244 11.9852 9.24244ZM11.9852 10.0909C13.4281 10.0909 14.5978 11.2305 14.5978 12.6364C14.5978 14.0422 13.4281 15.1818 11.9852 15.1818C10.5423 15.1818 9.37265 14.0422 9.37265 12.6364C9.37265 11.2305 10.5423 10.0909 11.9852 10.0909ZM15.0332 5L15.062 5.00023C16.0106 5.01521 16.7749 5.76913 16.7749 6.69695C16.7749 7.63417 15.9951 8.39394 15.0332 8.39394C14.0713 8.39394 13.2915 7.63417 13.2915 6.69695C13.2915 6.23646 13.4798 5.81876 13.7854 5.51302L13.8016 5.49703L15.0332 6.69695V5ZM8.93722 5V6.69695L10.1688 5.49703C10.484 5.80412 10.6789 6.22838 10.6789 6.69695C10.6789 7.63417 9.89913 8.39394 8.93722 8.39394C7.9753 8.39394 7.19552 7.63417 7.19552 6.69695C7.19552 5.76913 7.95978 5.01521 8.90843 5.00023L8.93722 5Z" fill="white"/>
</svg>
