<svg width="24" height="24" viewBox="0 0 24 24" fill="none" xmlns="http://www.w3.org/2000/svg">
<path fill-rule="evenodd" clip-rule="evenodd" d="M17.1555 16.8571C17.9752 17.9205 18.2182 18.2509 18.2242 18.2774C18.2303 18.3038 18.1464 18.3907 18.0378 18.4704C17.9293 18.5501 17.7146 18.6993 17.5609 18.8019C17.4071 18.9044 17.1 19.0855 16.8783 19.2043C16.6567 19.323 16.2642 19.5022 16.0062 19.6025C15.7482 19.7027 15.3424 19.8369 15.1045 19.9008C14.8666 19.9646 14.5306 20.0422 14.3577 20.0732C14.1849 20.1042 14.0329 20.119 14.02 20.1062C14.0071 20.0933 13.9834 19.9573 13.9673 19.8038C13.9381 19.5248 13.9381 19.5248 14.3504 19.4432C14.5772 19.3983 14.9883 19.2911 15.2639 19.2049C15.5396 19.1188 15.9909 18.9421 16.2669 18.8124C16.543 18.6827 16.9008 18.4908 17.0621 18.3861C17.2234 18.2814 17.3492 18.1718 17.3417 18.1427C17.3341 18.1135 17.2252 17.9546 17.0997 17.7895C16.9742 17.6245 16.8133 17.4287 16.7422 17.3546C16.6129 17.2197 16.6129 17.2197 16.388 17.3616C16.2643 17.4396 15.9953 17.5864 15.7903 17.6877C15.5853 17.7891 15.2603 17.9257 15.0681 17.9914C14.8759 18.0572 14.488 18.1572 14.2061 18.2139C13.853 18.2848 13.5123 18.3182 13.1111 18.3211C12.7907 18.3235 12.341 18.2981 12.1118 18.2647C11.8825 18.2313 11.5442 18.1628 11.36 18.1124C11.1758 18.0621 10.9021 17.9725 10.7518 17.9133C10.6015 17.8542 10.3317 17.7314 10.1523 17.6404C9.97292 17.5494 9.6584 17.3647 9.45338 17.23C9.24487 17.0929 8.84258 16.7482 8.54037 16.4476C8.22473 16.1337 7.899 15.7558 7.75694 15.5387C7.62319 15.3344 7.43215 15 7.33241 14.7956C7.23267 14.5913 7.08654 14.2267 7.00767 13.9855C6.92881 13.7444 6.83369 13.3577 6.7963 13.1263C6.75892 12.8949 6.71243 12.6324 6.69301 12.543C6.65769 12.3805 6.65769 12.3805 5.6792 12.3572C4.70071 12.334 4.70071 12.334 4.70071 12.0554C4.70071 11.7767 4.70071 11.7767 5.6792 11.7535L6.65769 11.7302L6.73632 11.1961C6.77956 10.9024 6.8595 10.5078 6.91396 10.3193C6.96843 10.1308 7.0945 9.78808 7.19414 9.55773C7.29377 9.32737 7.47399 8.96954 7.59463 8.76254C7.71527 8.55555 7.92387 8.25034 8.05819 8.0843C8.19251 7.91826 8.43033 7.65766 8.58668 7.50519C8.74303 7.35272 8.87095 7.19893 8.87095 7.16344C8.87095 7.12794 8.76957 6.97054 8.64566 6.81365C8.52176 6.65676 8.30746 6.38209 8.16945 6.20328C8.03144 6.02446 7.78161 5.69989 7.61427 5.482C7.44693 5.26411 7.25405 5.01469 7.18565 4.92773C7.06127 4.76962 7.06127 4.76962 6.79571 4.97384C6.64966 5.08616 6.37278 5.35039 6.18043 5.56101C5.98807 5.77163 5.70985 6.10106 5.56216 6.29307C5.41446 6.48508 5.18259 6.8147 5.0469 7.02555C4.91121 7.23639 4.79116 7.45599 4.78013 7.51354C4.76197 7.6082 4.8461 7.66023 5.66228 8.05917C6.1585 8.30172 6.59596 8.51885 6.6344 8.54169C6.69434 8.5773 6.68581 8.62105 6.57452 8.84899C6.49716 9.00744 6.42189 9.10543 6.38814 9.09162C6.35701 9.07889 5.91245 8.86654 5.40024 8.61974C4.48389 8.17821 4.46774 8.17251 4.39319 8.26428C4.35152 8.31558 4.23053 8.618 4.12433 8.93633C4.01813 9.25466 3.88025 9.76271 3.81793 10.0653C3.7556 10.368 3.68236 10.8185 3.65517 11.0666C3.62798 11.3146 3.60573 11.7681 3.60573 12.0744C3.60573 12.3806 3.63782 12.8778 3.67703 13.1793C3.71624 13.4807 3.81078 13.9782 3.88711 14.2847C3.96344 14.5913 4.04922 14.8995 4.07774 14.9698C4.11521 15.0621 4.16244 15.0975 4.2481 15.0975C4.31328 15.0975 4.5309 15.0348 4.73169 14.9582C4.93248 14.8815 5.26602 14.7542 5.47289 14.6751C5.67975 14.5961 5.85618 14.5386 5.86496 14.5474C5.87373 14.5562 5.96714 14.7616 6.07253 15.0039C6.17791 15.2462 6.35127 15.591 6.45777 15.7702C6.56428 15.9494 6.74595 16.2319 6.86149 16.398C6.97704 16.564 7.19861 16.8437 7.35388 17.0195C7.50915 17.1953 7.81224 17.4932 8.02742 17.6816C8.2426 17.8699 8.59165 18.1375 8.80307 18.2763C9.0145 18.4151 9.37654 18.6233 9.60759 18.739C9.83864 18.8547 10.2688 19.0322 10.5634 19.1334C10.8581 19.2347 11.3335 19.3641 11.6199 19.421C12.1406 19.5244 12.1406 19.5244 12.1104 19.8538C12.0938 20.035 12.0603 20.2982 12.0358 20.4387C12.0114 20.5792 11.9784 20.8337 11.9625 21.0043C11.9334 21.3145 11.9334 21.3145 12.0913 21.3386C12.1781 21.3518 12.4483 21.373 12.6917 21.3856C12.9352 21.3982 13.4067 21.3905 13.7395 21.3683C14.1901 21.3384 14.3536 21.3421 14.3795 21.3827C14.3986 21.4127 14.4146 21.5445 14.415 21.6757C14.4156 21.8819 14.4016 21.9188 14.3109 21.949C14.2532 21.9682 13.7343 21.9901 13.1577 21.9975C12.4543 22.0067 11.9625 21.9904 11.6632 21.9481C11.4179 21.9134 10.967 21.8201 10.6614 21.7406C10.3558 21.6612 9.86458 21.5088 9.56987 21.402C9.27516 21.2952 8.79586 21.0863 8.50476 20.9378C8.21366 20.7892 7.80479 20.5588 7.59616 20.4256C7.38753 20.2924 7.08054 20.0806 6.91397 19.955C6.74739 19.8293 6.4207 19.5535 6.18799 19.3422C5.95529 19.1308 5.60932 18.7777 5.41918 18.5574C5.22904 18.3371 5.06713 18.1292 5.05939 18.0953C5.05164 18.0615 5.14329 17.9537 5.26304 17.8559C5.48077 17.6781 5.48077 17.6781 5.66931 17.9089C5.77302 18.0358 6.09063 18.3712 6.37512 18.6543C6.65961 18.9373 7.09726 19.3204 7.34768 19.5056C7.5981 19.6907 7.98134 19.9469 8.19933 20.0747C8.41731 20.2026 8.78865 20.398 9.02452 20.5089C9.2604 20.6198 9.705 20.7968 10.0125 20.9023C10.32 21.0077 10.7254 21.1278 10.9134 21.1691C11.1882 21.2296 11.2623 21.2327 11.292 21.1849C11.3122 21.1522 11.343 21.0075 11.3602 20.8634C11.3775 20.7192 11.4038 20.4745 11.4186 20.3195C11.4455 20.0378 11.4455 20.0378 10.9495 19.9091C10.6767 19.8384 10.2715 19.7073 10.049 19.6179C9.82653 19.5285 9.52811 19.3967 9.38586 19.3251C9.24361 19.2534 8.99093 19.1151 8.82435 19.0176C8.65778 18.9202 8.46907 18.8019 8.405 18.7548C8.34093 18.7077 8.15222 18.5644 7.98565 18.4363C7.81907 18.3083 7.4973 18.0219 7.27061 17.8C7.04391 17.5781 6.74672 17.2586 6.61017 17.0899C6.47362 16.9213 6.26572 16.6351 6.14816 16.454C6.03061 16.2728 5.85811 15.9719 5.76483 15.7852C5.67155 15.5986 5.57104 15.4193 5.54146 15.3869C5.49857 15.3399 5.34695 15.38 4.79134 15.5857C4.40834 15.7275 4.04922 15.8666 3.99328 15.8947C3.93735 15.9228 3.8613 15.9343 3.82428 15.9201C3.78727 15.906 3.68919 15.7098 3.60632 15.4843C3.52346 15.2588 3.38483 14.7921 3.29824 14.4473C3.21165 14.1024 3.10913 13.5841 3.0704 13.2954C3.03168 13.0067 3 12.4311 3 12.0164C3 11.6016 3.03007 11.0227 3.06682 10.7299C3.10357 10.4371 3.20901 9.9055 3.30112 9.54855C3.39323 9.1916 3.56433 8.65864 3.68135 8.3642C3.79838 8.06976 3.9993 7.6303 4.12784 7.38762C4.25639 7.14495 4.47702 6.76874 4.61812 6.55161C4.75923 6.33448 4.99054 6.01053 5.13214 5.83172C5.27375 5.6529 5.58057 5.31128 5.81397 5.07256C6.04738 4.83384 6.4071 4.49669 6.61335 4.32334C6.81961 4.14999 7.20908 3.86025 7.47884 3.67948C7.7486 3.4987 8.23943 3.21407 8.56957 3.04696C8.8997 2.87985 9.1859 2.74312 9.20556 2.74312C9.22523 2.74312 9.27692 2.81105 9.32043 2.89407C9.36394 2.97709 9.40849 3.09008 9.41941 3.14516C9.43524 3.22494 9.3886 3.27701 9.19006 3.40124C9.05299 3.48701 8.82872 3.61679 8.69168 3.68963C8.55464 3.76248 8.28206 3.91358 8.08595 4.02542C7.88983 4.13726 7.69124 4.25838 7.64462 4.29458C7.56349 4.35759 7.56483 4.36801 7.67623 4.53872C7.74023 4.63679 7.87402 4.82154 7.97355 4.94926C8.07308 5.07698 8.37338 5.46498 8.64087 5.81147C8.90836 6.15797 9.19252 6.5225 9.27233 6.62154C9.41744 6.80161 9.41744 6.80161 9.64509 6.65802C9.7703 6.57905 10.0256 6.43853 10.2123 6.34576C10.3991 6.25299 10.7346 6.11654 10.9579 6.04255C11.1811 5.96856 11.5267 5.87491 11.7259 5.83443C11.925 5.79396 12.2952 5.73964 12.5486 5.71372C12.8664 5.68121 13.173 5.68196 13.5377 5.71615C13.8284 5.7434 14.1921 5.7945 14.3458 5.82971C14.4996 5.86492 14.7005 5.90756 14.7922 5.92446C14.9589 5.95519 14.9589 5.95519 15.1472 5.49867C15.2508 5.24758 15.3492 4.99817 15.3659 4.94443C15.3929 4.85723 15.3622 4.83613 15.0807 4.74862C14.9072 4.69468 14.5451 4.61326 14.276 4.56768C13.9424 4.51115 13.542 4.48481 13.0166 4.48481C12.4194 4.48481 12.1197 4.50808 11.6829 4.58836C11.373 4.64532 10.9019 4.76636 10.6359 4.85734C10.3699 4.94832 10.1136 5.02712 10.0664 5.03246C10.0018 5.03974 9.95687 4.9796 9.88551 4.79057C9.79744 4.55726 9.79617 4.53487 9.86815 4.48241C9.91084 4.45129 10.1493 4.35856 10.3981 4.27633C10.6469 4.1941 11.1022 4.0768 11.41 4.01567C11.7376 3.95058 12.2434 3.8919 12.6305 3.87406C13.0292 3.85568 13.5014 3.8648 13.8204 3.89704C14.1113 3.92643 14.5477 3.99339 14.7902 4.04582C15.0327 4.09826 15.4283 4.20803 15.6692 4.28976C15.9101 4.37149 16.1272 4.47032 16.1517 4.50939C16.1836 4.56035 16.1346 4.73087 15.9782 5.11317C15.8583 5.40619 15.7291 5.71697 15.6911 5.80379C15.6532 5.89061 15.6108 6.01809 15.5969 6.08707C15.5738 6.20222 15.596 6.22493 15.8674 6.36422C16.03 6.44766 16.3348 6.63015 16.5446 6.76976C16.7545 6.90936 17.1057 7.19097 17.3251 7.39557C17.5445 7.60017 17.724 7.79748 17.724 7.83404C17.724 7.8706 17.6688 7.98366 17.6013 8.0853C17.5338 8.18693 17.4447 8.26994 17.4033 8.26977C17.3618 8.2696 17.2044 8.14343 17.0534 7.98941C16.9025 7.83538 16.7557 7.71685 16.7273 7.726C16.6988 7.73516 16.451 8.03375 16.1765 8.38954C15.8639 8.79468 15.6463 9.03642 15.5941 9.03642C15.5482 9.03642 15.3748 8.94354 15.2087 8.83001C15.0426 8.71649 14.7645 8.56402 14.5906 8.49119C14.4167 8.41836 14.1141 8.31792 13.9183 8.26798C13.6649 8.2034 13.4054 8.17719 13.0193 8.17719C12.6222 8.17719 12.3709 8.20351 12.0832 8.27526C11.8669 8.32919 11.5384 8.44258 11.3531 8.52722C11.1679 8.61186 10.892 8.77647 10.7401 8.89301C10.5881 9.00955 10.317 9.26524 10.1376 9.46121C9.92431 9.69429 9.73642 9.96357 9.59443 10.2398C9.47504 10.472 9.33587 10.8083 9.28515 10.9871C9.23281 11.1717 9.18174 11.5331 9.16704 11.8231C9.14651 12.2281 9.16028 12.426 9.23347 12.7779C9.28425 13.0221 9.39976 13.3814 9.49016 13.5764C9.58056 13.7715 9.73139 14.0465 9.82535 14.1876C9.9193 14.3287 10.1152 14.5629 10.2606 14.708C10.4061 14.8532 10.6366 15.0541 10.7728 15.1546C10.9091 15.2551 11.1712 15.4085 11.3553 15.4955C11.5393 15.5825 11.8682 15.6998 12.086 15.7561C12.3835 15.833 12.6154 15.8583 13.0179 15.858C13.4611 15.8577 13.6303 15.8357 13.9964 15.7311C14.2398 15.6615 14.5685 15.5445 14.7267 15.4712C14.8849 15.3979 15.1425 15.2478 15.2992 15.1377C15.5096 14.9898 15.6017 14.9493 15.652 14.9827C15.6894 15.0075 15.8748 15.2232 16.0639 15.462C16.2531 15.7008 16.4786 15.9873 16.565 16.0987C16.6515 16.2101 16.7366 16.2969 16.7542 16.2916C16.7717 16.2862 16.8858 16.1923 17.0076 16.0829C17.1294 15.9734 17.2513 15.8926 17.2785 15.9031C17.3057 15.9137 17.3973 16.0088 17.482 16.1143C17.6361 16.3063 17.6361 16.3063 17.3958 16.5817L17.1555 16.8571ZM16.8365 21.2747C16.8134 21.2747 16.762 21.212 16.7222 21.1355C16.6825 21.0589 16.6378 20.9354 16.6229 20.8611C16.5963 20.7287 16.6073 20.7201 17.165 20.4367C17.4781 20.2776 17.9492 20.0062 18.2119 19.8336C18.4746 19.661 18.8937 19.3477 19.1432 19.1374C19.5834 18.7664 19.5993 18.7576 19.6793 18.8421C19.7246 18.89 19.8117 18.9989 19.8727 19.084C19.9837 19.2388 19.9837 19.2388 19.7741 19.4208C19.6588 19.5209 19.3758 19.7463 19.1451 19.9217C18.9145 20.097 18.558 20.3462 18.353 20.4754C18.148 20.6046 17.7323 20.8373 17.4293 20.9925C17.1264 21.1477 16.8596 21.2747 16.8365 21.2747ZM17.9403 5.99427C17.9067 5.99427 17.7979 5.92411 17.6983 5.83836C17.5481 5.70894 17.525 5.66683 17.5624 5.59048C17.5872 5.53989 17.7842 5.27042 18.0001 4.99166C18.216 4.71289 18.401 4.44236 18.4113 4.39047C18.4265 4.31327 18.3418 4.24384 17.9451 4.00828C17.6784 3.84996 17.2523 3.62375 16.998 3.5056C16.7438 3.38744 16.3156 3.21799 16.0466 3.12903C15.7775 3.04008 15.3464 2.91933 15.0886 2.8607C14.8308 2.80207 14.401 2.72894 14.1334 2.6982C13.8658 2.66745 13.385 2.6284 13.065 2.61143C12.483 2.58056 12.483 2.58056 12.4485 2.34834C12.4295 2.22061 12.4234 2.08999 12.4349 2.05806C12.4502 2.01568 12.6186 2 13.0587 2C13.3904 2 13.9204 2.03323 14.2367 2.07385C14.553 2.11447 15.0933 2.22001 15.4374 2.30839C15.7815 2.39676 16.2637 2.54311 16.5091 2.63362C16.7544 2.72412 17.1671 2.90091 17.4263 3.02648C17.6854 3.15205 18.0766 3.36693 18.2956 3.50399C18.5146 3.64105 18.8576 3.876 19.0578 4.02611C19.258 4.17621 19.5482 4.40866 19.7028 4.54265C19.8574 4.67665 19.9908 4.8187 19.9993 4.85832C20.0078 4.89794 19.9378 5.02397 19.8438 5.13838C19.6728 5.34639 19.6728 5.34639 19.3506 5.06163C19.1664 4.89887 19.0007 4.78745 18.9638 4.80156C18.9283 4.81513 18.7764 4.98916 18.6261 5.18828C18.4759 5.3874 18.2739 5.65021 18.1772 5.7723C18.0805 5.89438 17.9739 5.99427 17.9403 5.99427Z" fill="white"/>
</svg>
