<svg width="24" height="24" viewBox="0 0 24 24" fill="none" xmlns="http://www.w3.org/2000/svg">
<path fill-rule="evenodd" clip-rule="evenodd" d="M22 12C22 6.47754 17.5234 2 12 2C6.47754 2 2 6.47754 2 12C2 17.5229 6.47754 22 12 22C17.5234 22 22 17.5234 22 12ZM17.236 12.7637H13.1672H9.17835C9.09718 12.7637 9.05707 12.7637 9.03725 12.7437C9.01789 12.7241 9.01789 12.6854 9.01789 12.6088V11.4084C9.01789 11.3137 9.04487 11.2802 9.1451 11.2802H17.2427C17.33 11.2802 17.37 11.3137 17.37 11.3948C17.4032 11.8124 17.4032 12.232 17.37 12.6491C17.3637 12.7637 17.3227 12.7637 17.236 12.7637ZM16.9156 9.78298C16.9271 9.81309 16.9271 9.8466 16.9156 9.87719H16.9478C16.9344 9.9175 16.8674 9.9311 16.8674 9.9311H9.14462C9.0174 9.9311 9.0174 9.9039 9.0174 9.80289V7.40879C9.0174 7.32089 9.0309 7.28058 9.13112 7.28058H12.7248C13.1074 7.27718 13.4891 7.31749 13.8625 7.40199C14.6026 7.57875 15.2912 7.93034 15.8704 8.42713C15.9861 8.51406 16.0892 8.61652 16.1783 8.73064C16.3672 8.91955 16.533 9.12982 16.6737 9.35807C16.7672 9.49161 16.8476 9.6339 16.9156 9.78298ZM16.5734 14.1667C16.6872 14.1541 16.8018 14.1541 16.9156 14.1667V14.1677C16.9681 14.1944 16.9213 14.2963 16.9213 14.2963C16.5098 15.1083 15.8574 15.7697 15.0541 16.1907H15.0074C14.8527 16.2835 14.6889 16.3607 14.5193 16.42C14.0528 16.5992 13.5637 16.7079 13.0665 16.7439C12.906 16.7783 12.7422 16.79 12.5783 16.7774H9.15184C9.01789 16.7774 9.01789 16.7502 9.01789 16.6424V14.3017C9.01789 14.1667 9.05162 14.1667 9.15184 14.1667H16.5734ZM7.67302 17.9506V17.9909L7.67109 17.9924V17.9992H12.3157C12.8414 18.0065 13.3652 17.9642 13.8818 17.871C14.4258 17.7637 14.9558 17.5947 15.4613 17.3655C15.6805 17.2632 15.8907 17.1395 16.1029 17.0148C16.1566 16.9832 16.2104 16.9515 16.2646 16.9201C16.5142 16.741 16.7532 16.5467 16.9806 16.3403C17.6032 15.7731 18.085 15.0656 18.3862 14.2764C18.4064 14.188 18.4922 14.1312 18.5804 14.1482H19.8453C19.946 14.1482 19.9792 14.1142 19.9792 13.9996V13.1833C19.986 13.1051 19.986 13.026 19.9792 12.9478C19.9792 12.9273 19.9844 12.907 19.9896 12.8866C20 12.846 20.0104 12.8056 19.9792 12.7652H18.9225C18.7948 12.7652 18.7948 12.7516 18.7948 12.637C18.8314 12.2261 18.8314 11.8138 18.7948 11.403C18.7881 11.2816 18.8151 11.2816 18.9085 11.2816H19.8323C19.9397 11.2816 19.9797 11.2544 19.9797 11.1466V10.0404C19.973 9.89176 19.973 9.89176 19.8192 9.89176H18.6213C18.5279 9.90779 18.4382 9.84417 18.4214 9.74996C18.284 9.38817 18.1091 9.04193 17.8986 8.71802C17.6865 8.39848 17.4475 8.09837 17.1825 7.82108C16.8303 7.46657 16.4347 7.15869 16.0048 6.90374C15.3567 6.52447 14.6479 6.25884 13.9102 6.12141C13.5522 6.05487 13.1903 6.01457 12.826 6H7.80697C7.67302 6 7.67302 6.02719 7.67302 6.135V9.77036C7.67302 9.89856 7.64603 9.89856 7.54581 9.89856H6.10697C6 9.89856 6 9.91847 6 9.99277V11.1796C6 11.2874 6.03325 11.2874 6.11372 11.2874H7.56604C7.67302 11.2874 7.67302 11.3073 7.67302 11.3884V12.6564C7.67302 12.771 7.63929 12.771 7.55255 12.771H6V14.0526C6 14.1604 6.03325 14.1604 6.11372 14.1604H7.56604C7.67302 14.1604 7.67302 14.1735 7.67302 14.2614V15.8464V16.3792V17.9506Z" fill="white"/>
</svg>
