<svg width="24" height="24" viewBox="0 0 24 24" fill="none" xmlns="http://www.w3.org/2000/svg">
<path fill-rule="evenodd" clip-rule="evenodd" d="M6.80894 5.43695C5.78105 4.57121 5.03703 3.75087 5.03703 3.75087C4.96583 3.6732 4.96939 3.5505 5.04325 3.47683C5.11801 3.40325 5.23549 3.40651 5.30578 3.48409C5.30578 3.48409 6.14682 4.41047 7.26903 5.32292C7.27258 5.32264 7.27617 5.32254 7.28062 5.32243C8.25065 5.3203 9.21983 4.90506 9.21983 4.90506C9.31416 4.8645 9.42272 4.91204 9.461 5.011C9.50014 5.10998 9.45477 5.2232 9.36044 5.26374C9.36044 5.26374 8.60041 5.5884 7.73004 5.68391C7.75495 5.70281 7.78077 5.72157 7.80568 5.7403C8.70632 6.40761 9.7173 6.99019 10.5948 7.0542C11.1421 7.094 11.7998 7.12655 12.5162 7.10499C11.2792 6.73931 10.3456 6.1933 10.3456 6.1933C10.2566 6.14112 10.2246 6.02289 10.2753 5.92958C10.3251 5.83627 10.4382 5.80288 10.5272 5.85517C10.5272 5.85517 11.2374 6.27069 12.2305 6.60974C11.8034 6.26026 11.5257 5.94708 11.5257 5.94708C11.4554 5.86864 11.4599 5.74586 11.5355 5.6732C11.6102 5.60047 11.7277 5.60513 11.7971 5.68363C11.7971 5.68363 12.5091 6.48668 13.3875 6.91578C13.3937 6.91865 13.3991 6.92183 13.4053 6.92526C13.5486 6.9527 13.6945 6.97615 13.8405 6.99456C13.8467 6.9954 13.8529 6.99642 13.8592 6.99782C15.2155 6.81568 16.6581 6.37765 17.8987 5.42701C16.3448 6.03951 14.8942 6.18798 14.8942 6.18798C14.7928 6.19841 14.702 6.12047 14.6922 6.01403C14.6815 5.90753 14.7563 5.81264 14.8586 5.80225C14.8586 5.80225 16.9963 5.58381 18.8216 4.57149C18.8242 4.56981 18.8278 4.56824 18.8305 4.56675C18.9773 4.4035 19.1197 4.2302 19.2567 4.0463C19.3199 3.96184 19.4365 3.94658 19.5175 4.01226C19.5976 4.07793 19.6127 4.19978 19.5495 4.28424C18.6302 5.52011 17.4751 6.29663 16.2674 6.77578C17.3567 6.72657 18.139 6.49616 18.139 6.49616C18.2369 6.46715 18.3401 6.52714 18.3677 6.63C18.3953 6.73301 18.3383 6.84014 18.2395 6.86916C18.2395 6.86916 17.0408 7.22385 15.5261 7.1661C15.106 7.52153 14.6583 7.82141 14.2401 8.06616C14.2018 8.08867 14.0799 8.16549 14.0496 8.17508C13.2033 8.64801 12.5225 8.88324 12.5225 8.88324C12.4255 8.91681 12.3204 8.86158 12.2884 8.76008C12.2563 8.65851 12.3098 8.54885 12.4068 8.51525C12.4068 8.51525 12.4192 8.51088 12.4424 8.50223C11.7615 8.57356 11.2952 8.54297 11.2952 8.54297C11.1929 8.53636 11.1154 8.44427 11.1217 8.33759C11.1279 8.2308 11.216 8.1495 11.3183 8.15618C11.3183 8.15618 12.5501 8.23553 13.9117 7.81371C14.2142 7.64291 14.5382 7.44078 14.8568 7.20722C13.3225 7.55177 11.8176 7.52541 10.7078 7.45055C10.682 7.47484 10.6678 7.49381 10.642 7.51082C9.84458 8.03508 8.16613 8.28064 8.16613 8.28064C8.06466 8.29062 7.97388 8.21218 7.96411 8.10568C7.9552 7.99917 8.02994 7.90467 8.13231 7.89473C8.13231 7.89473 8.74282 7.8352 9.49037 7.58775C8.53812 7.62544 7.77009 7.4537 7.77009 7.4537C7.66953 7.43137 7.60544 7.32833 7.6268 7.22367C7.64903 7.11913 7.74695 7.05235 7.84751 7.07464C7.84751 7.07464 8.62177 7.24758 9.56156 7.19697C8.90212 6.94322 8.22041 6.52259 7.5912 6.05656C7.55203 6.02744 7.51288 5.99821 7.47374 5.96892C7.43724 5.97161 7.38828 5.97368 7.35714 5.96948C6.4654 5.85146 4.97117 5.01194 4.97117 5.01194C4.88485 4.95501 4.85814 4.83529 4.91243 4.74469C4.96761 4.65418 5.08241 4.62693 5.16874 4.68386C5.16874 4.68386 5.87447 5.14785 6.80894 5.43695Z" fill="white"/>
<path fill-rule="evenodd" clip-rule="evenodd" d="M16.646 9.1804C16.0426 8.73016 15.4544 8.38117 14.8848 8.11716C15.0058 8.03754 15.1278 7.95364 15.2497 7.86555C16.0667 8.27046 16.9175 8.84457 17.7932 9.63127C17.8519 9.68391 17.8715 9.76686 17.8484 9.83924C17.8635 9.88604 17.8608 9.93868 17.8386 9.98621C17.5485 10.5969 17.2921 11.3163 17.3615 11.9979C17.4087 12.4615 17.5502 12.8821 17.6615 13.3092C17.7816 13.771 17.8688 14.2397 17.795 14.767C17.6988 15.4493 17.4016 16.0284 17.0741 16.594C16.7662 17.1256 16.4315 17.6447 16.2402 18.2405C15.8655 19.4034 16.1681 20.607 16.2874 21.7858C16.2981 21.8921 16.2242 21.9876 16.1227 21.9989C16.0204 22.0102 15.9296 21.933 15.9189 21.8267C15.7935 20.5934 15.4971 19.3338 15.8878 18.1171C16.088 17.4941 16.4351 16.9491 16.7564 16.3933C17.059 15.8716 17.3393 15.3401 17.4274 14.7107C17.4719 14.3969 17.4496 14.1065 17.398 13.8256C16.9308 15.8848 15.3627 18.2191 12.8121 19.629C12.5273 19.7859 12.5727 19.7742 12.206 19.8352H12.0894C11.7797 19.8346 11.4736 19.7642 11.1941 19.629C8.58391 18.3658 7.00246 15.943 6.52542 13.8625C6.47827 14.1319 6.46049 14.4106 6.50231 14.7107C6.59041 15.3401 6.87072 15.8716 7.17331 16.3933C7.4946 16.9491 7.84169 17.4941 8.04193 18.1171C8.43262 19.3338 8.13626 20.5934 8.01166 21.8267C8.00011 21.933 7.90933 22.0102 7.80696 21.9989C7.7055 21.9876 7.63166 21.8921 7.64234 21.7858C7.76246 20.607 8.06417 19.4034 7.6904 18.2405C7.49906 17.6447 7.16353 17.1256 6.85562 16.594C6.5281 16.0284 6.23087 15.4493 6.13564 14.767C6.06177 14.2397 6.1481 13.771 6.26824 13.3092C6.37948 12.8821 6.521 12.4615 6.56814 11.9979C6.63756 11.3163 6.38126 10.5969 6.09114 9.98621C6.0689 9.93868 6.06709 9.88593 6.08136 9.83914C6.06086 9.7746 6.07423 9.70064 6.12141 9.64706C6.12141 9.64706 6.67939 9.01145 7.6619 8.36748C7.72599 8.48897 7.8301 8.58284 7.9538 8.63167C7.5667 8.87835 7.24453 9.12681 6.99533 9.33825C9.72926 8.59901 10.9886 9.51983 11.1639 9.66085L11.1835 9.67691C11.22 9.7109 11.2476 9.76 11.2573 9.80715C11.2778 9.93367 11.7423 12.9224 11.3988 13.8554C11.373 13.9271 11.3063 13.9746 11.2324 13.9744C11.381 13.7652 11.3534 12.92 11.3534 12.6167C11.3543 12.0786 11.0535 10.7724 10.9174 9.9321C10.6815 9.76168 9.31544 8.92059 6.45958 9.88996C6.76394 10.5476 7.01046 11.3141 6.9375 12.0389C6.90455 12.3628 6.8289 12.667 6.74703 12.9666C6.92146 15.0979 8.4958 17.9239 11.3508 19.3036C11.5822 19.415 11.8349 19.473 12.0912 19.4735H12.1491V19.4736L12.206 19.4727C12.4872 19.4073 12.4241 19.4151 12.6546 19.3036C15.5158 17.9202 17.0011 15.0866 17.1711 12.9537L17.1791 12.9544C17.099 12.6588 17.0251 12.3584 16.9931 12.0389C16.9201 11.3251 17.1587 10.571 17.4568 9.92016C17.4336 9.91673 17.4114 9.909 17.3909 9.89738C15.3734 8.75231 13.6985 9.97368 13.4484 10.1764C13.3541 10.4186 13.3185 10.6799 13.347 10.9383C13.347 10.9448 13.3478 10.9513 13.3478 10.9579C13.3478 11.0526 13.2749 11.1331 13.1796 11.1429L13.1601 11.1373C13.0648 11.1379 12.983 11.0654 12.9732 10.9708C12.9376 10.6352 12.9883 10.2961 13.1191 9.98481L13.1378 9.9476L13.1707 9.91971C13.1876 9.90518 14.6792 8.62768 16.646 9.1804ZM19.8196 11.2569C19.7689 11.092 19.7288 10.9217 19.7039 10.7442C19.6292 10.2287 19.7155 9.7705 19.8365 9.319C19.9478 8.90309 20.0893 8.49335 20.1364 8.04202C20.205 7.38576 19.9931 6.6788 19.6701 6.10385C19.6372 6.05744 19.4396 5.78377 19.0783 5.40451C19.1673 5.31634 19.2545 5.22527 19.3408 5.13105C19.7627 5.57486 19.9762 5.88405 19.9762 5.88405L19.9851 5.89903C20.164 6.21676 20.3118 6.57117 20.4061 6.93741C20.415 6.94641 20.4221 6.95656 20.4292 6.96762C21.4767 8.63055 22 10.6209 22 12.759C22 12.8659 21.9173 12.9527 21.8149 12.9527C21.7126 12.9527 21.6289 12.8659 21.6289 12.759C21.6289 10.9883 21.2818 9.32281 20.5191 7.87251C20.5165 7.94342 20.512 8.01391 20.5049 8.08388C20.4559 8.55705 20.3109 8.98737 20.1943 9.42337C20.0866 9.82381 20.0047 10.2295 20.0706 10.6867C20.1587 11.2992 20.4381 11.8164 20.7398 12.3243C21.062 12.8666 21.4091 13.3985 21.6093 14.0064C22.0009 15.194 21.7046 16.4235 21.579 17.6273C21.5684 17.7337 21.4767 17.8106 21.3753 17.799C21.2729 17.7874 21.1999 17.6917 21.2106 17.5854C21.3299 16.4374 21.6316 15.2652 21.2587 14.1327C21.0673 13.5522 20.7327 13.0465 20.4248 12.5286C20.2628 12.2553 20.108 11.9785 19.9807 11.6879C19.1601 12.945 19.0284 14.2214 19.0819 15.5364C19.1397 16.9882 19.42 18.4868 19.3034 20.0589C19.2954 20.1656 19.2064 20.2454 19.105 20.2372C19.0026 20.2289 18.9261 20.1356 18.9341 20.029C19.0489 18.473 18.7695 16.9898 18.7107 15.5528C18.6511 14.0825 18.8193 12.6604 19.8196 11.2569ZM4.03889 11.6715C3.91074 11.968 3.75322 12.2501 3.58769 12.5286C3.27977 13.0465 2.94514 13.5522 2.7538 14.1327C2.38091 15.2652 2.6826 16.4374 2.80185 17.5854C2.81342 17.6917 2.73956 17.7874 2.6381 17.799C2.53576 17.8106 2.44409 17.7337 2.43341 17.6273C2.30793 16.4235 2.01157 15.194 2.40315 14.0064C2.60339 13.3985 2.95048 12.8666 3.27264 12.3243C3.57434 11.8164 3.85379 11.2992 3.94189 10.6867C4.00775 10.2295 3.92587 9.82381 3.81908 9.42337C3.70249 8.98737 3.55654 8.55705 3.50759 8.08388C3.49958 8.00649 3.49424 7.92862 3.49246 7.85039C2.72176 9.30577 2.37022 10.9792 2.37022 12.759C2.37022 12.8659 2.28746 12.9527 2.18512 12.9527C2.08277 12.9527 2 12.8659 2 12.759C2 10.6209 2.5224 8.63055 3.56989 6.96762C3.57879 6.95425 3.58858 6.94224 3.59926 6.93181C3.69093 6.56893 3.83865 6.21641 4.02911 5.895C4.03178 5.89157 4.03355 5.88821 4.03622 5.88496C4.03622 5.88496 4.23023 5.59988 4.61648 5.18408C4.65741 5.24463 4.71081 5.29793 4.774 5.33986C4.78112 5.34452 4.78824 5.349 4.79625 5.35316C4.79625 5.35316 4.83896 5.37728 4.9155 5.41791C4.55952 5.79725 4.36729 6.06776 4.34059 6.10553C3.99529 6.68895 3.80751 7.38632 3.87604 8.04202C3.9232 8.49335 4.06471 8.90309 4.17595 9.319C4.29699 9.7705 4.38331 10.2287 4.30945 10.7442C4.28453 10.9154 4.24626 11.08 4.1982 11.2393C5.21008 12.6483 5.37915 14.0763 5.31955 15.5528C5.2617 16.9898 4.98136 18.473 5.09616 20.029C5.10417 20.1356 5.02763 20.2289 4.92618 20.2372C4.82384 20.2454 4.73484 20.1656 4.72683 20.0589C4.61024 18.4868 4.89058 16.9882 4.94932 15.5364C5.00272 14.2156 4.86833 12.9338 4.03889 11.6715ZM12.999 17.1701C12.9126 17.3365 12.772 17.4652 12.6029 17.5329C12.4374 17.6044 12.2603 17.6408 12.0806 17.6399C11.9017 17.6408 11.7237 17.6028 11.5581 17.5283C11.389 17.4592 11.2493 17.3265 11.1675 17.1562C11.3098 17.2353 11.4629 17.2891 11.6213 17.3152C11.7735 17.3432 11.9275 17.3571 12.0814 17.3571C12.2363 17.3582 12.3903 17.3458 12.5416 17.3199C12.7009 17.2964 12.8557 17.2459 12.999 17.1701ZM13.3113 16.7199C13.3025 16.5925 13.0444 16.546 12.8281 16.4325C12.6118 16.319 12.4721 16.3051 12.2941 16.4185C12.2381 16.4613 12.1722 16.4891 12.1028 16.4995L12.0975 16.4939C12.0939 16.4948 12.0895 16.4948 12.085 16.4939C12.0814 16.4948 12.0779 16.4948 12.0734 16.4939L12.0672 16.4995C11.9987 16.4881 11.9328 16.4605 11.8759 16.4185C11.6979 16.3051 11.5555 16.319 11.3419 16.4325C11.1283 16.546 10.8684 16.5925 10.8595 16.7199C10.8506 16.8474 10.8818 16.9329 11.1568 16.9283C11.4318 16.9236 11.648 16.8195 11.7851 16.8948C11.8483 16.9432 11.9159 16.9844 11.9862 17.0176C12.0539 17.0362 12.1242 17.0362 12.1909 17.0176C12.2621 16.9842 12.3297 16.943 12.3929 16.8948C12.5291 16.8195 12.7489 16.9236 13.0159 16.9283C13.2829 16.9329 13.3202 16.8483 13.3113 16.7199ZM12.6234 15.0977C12.6635 15.0439 12.7009 14.9876 12.7347 14.9293C12.7542 14.8958 12.7765 14.8646 12.8023 14.8363C12.8299 14.8091 12.8593 14.7854 12.8913 14.7656C12.9474 14.7301 13.0017 14.6913 13.0533 14.6493C13.1209 14.7034 13.1574 14.7898 13.1494 14.8781C13.1449 14.9619 13.1111 15.0408 13.0533 15.0995C12.9963 15.1588 12.9216 15.1945 12.8406 15.2C12.7569 15.2062 12.675 15.1677 12.6234 15.0977ZM11.7005 15.0977C11.6489 15.1672 11.5661 15.2049 11.4816 15.1981C11.317 15.1865 11.1844 15.0484 11.1728 14.8763C11.1666 14.7881 11.2031 14.7021 11.2689 14.6474C11.3214 14.6901 11.3757 14.7288 11.4318 14.7637C11.4638 14.7838 11.494 14.8075 11.5208 14.8344C11.5466 14.8632 11.5688 14.8943 11.5884 14.9274C11.624 14.9863 11.6614 15.0431 11.7005 15.0977ZM8.94077 11.1698L8.93367 11.1716C8.48958 11.2963 7.94579 11.2847 7.58716 10.9388C7.57916 10.9311 7.51329 10.8244 7.52575 10.8281C7.65748 10.8673 7.74468 10.8963 7.88174 10.8792C8.18164 10.842 8.46289 10.7215 8.75566 10.6518C9.06892 10.5768 9.37418 10.5964 9.68476 10.6778C10.0666 10.7775 10.4163 10.9867 10.7162 11.2496C10.4724 11.1998 10.2099 11.1488 9.94374 11.1199C9.99447 11.2111 10.0247 11.3179 10.0247 11.4321C10.0247 11.7679 9.76931 12.0401 9.45428 12.0401C9.14014 12.0401 8.88471 11.7679 8.88471 11.4321C8.88471 11.3382 8.90517 11.2493 8.94077 11.1698ZM14.5119 11.1199C14.2458 11.1488 13.9833 11.1998 13.7394 11.2496C14.0394 10.9867 14.3891 10.7775 14.7709 10.6778C15.0815 10.5964 15.3859 10.5768 15.7 10.6518C15.9928 10.7215 16.274 10.842 16.574 10.8792C16.711 10.8963 16.7982 10.8673 16.9299 10.8281C16.9424 10.8244 16.8765 10.9311 16.8685 10.9388C16.509 11.2847 15.9661 11.2963 15.522 11.1716L15.5149 11.1698C15.5505 11.2493 15.5709 11.3382 15.5709 11.4321C15.5709 11.7679 15.3155 12.0401 15.0005 12.0401C14.6863 12.0401 14.4309 11.7679 14.4309 11.4321C14.4309 11.3179 14.4612 11.2111 14.5119 11.1199ZM15.2399 11.1691C15.377 11.1553 15.4971 11.2308 15.5069 11.3376C15.5167 11.4444 15.4126 11.5423 15.2755 11.5561C15.1376 11.5698 15.0183 11.4943 15.0085 11.3875C14.9987 11.2807 15.1028 11.1827 15.2399 11.1691ZM9.6937 11.1691C9.83073 11.1553 9.95 11.2308 9.95978 11.3376C9.96956 11.4444 9.86632 11.5423 9.72926 11.5561C9.59133 11.5698 9.47209 11.4943 9.46228 11.3875C9.4525 11.2807 9.55574 11.1827 9.6937 11.1691ZM6.44713 9.85181L6.44358 9.8558L6.45868 9.8894L6.44713 9.85181ZM11.5216 2.39385C9.33503 2.47198 7.64144 3.26302 6.4489 4.09536C6.34834 4.0003 6.25401 3.90988 6.16856 3.8257C7.49638 2.88052 9.44095 1.97219 11.9906 2.00065C14.9889 1.96735 17.1595 3.22833 18.474 4.32205C18.3503 4.38708 18.2239 4.44837 18.0984 4.50623C16.8943 3.54236 15.0067 2.48463 12.4597 2.39385C12.4401 2.39961 12.4196 2.40222 12.3991 2.4011C12.2612 2.39403 12.1251 2.38975 11.9906 2.38826C11.8563 2.38975 11.7201 2.39403 11.5813 2.4011C11.5608 2.40222 11.5403 2.39961 11.5216 2.39385Z" fill="white"/>
</svg>
