<svg xmlns="http://www.w3.org/2000/svg" viewBox="0 0 24 24" style="enable-background:new 0 0 24 24" xml:space="preserve">
  <path d="M15.2 4.9c0 1.1-1.5 1.9-3.2 1.9-1.8 0-3.2-.8-3.2-1.9S10.2 3 12 3s3.2.8 3.2 1.9zM12 17.2c-1.8 0-3.2.8-3.2 1.9 0 1 1.4 1.9 3.2 1.9s3.2-.8 3.2-1.9c0-1-1.4-1.9-3.2-1.9zm-7.8-6c.9.5 2.4-.3 3.3-1.9s.9-3.2 0-3.8c-.9-.4-2.4.4-3.3 2s-.9 3.2 0 3.7zm15.6 1.6c-.9-.5-2.4.3-3.3 1.9-.9 1.6-.9 3.2 0 3.8.9.5 2.4-.3 3.3-1.9.9-1.7.9-3.3 0-3.8zm-15.6 0c-.9.5-.9 2.2 0 3.8.9 1.6 2.4 2.4 3.3 1.9.9-.5.9-2.2 0-3.8-.9-1.7-2.4-2.5-3.3-1.9zm15.6-1.6c.9-.5.9-2.2 0-3.8-.9-1.6-2.4-2.4-3.3-1.9-.9.5-.9 2.2 0 3.8.9 1.7 2.4 2.5 3.3 1.9z" style="fill:#fff"/>
</svg>
