<svg width="24" height="24" viewBox="0 0 24 24" fill="none" xmlns="http://www.w3.org/2000/svg">
<path fill-rule="evenodd" clip-rule="evenodd" d="M12.2194 4.91418C12.583 4.91418 12.8778 5.21123 12.8778 5.57773V6.90483C12.8778 7.27128 12.583 7.56833 12.2194 7.56833C11.8557 7.56833 11.5608 7.27128 11.5608 6.90483V5.57773C11.5608 5.21123 11.8557 4.91418 12.2194 4.91418Z" fill="white"/>
<path d="M12.216 16.6365C9.12408 16.6365 8.48804 15.1621 8.48804 13.9087C8.48804 13.7981 8.57638 13.6875 8.70005 13.6875H9.61877C9.72483 13.6875 9.81312 13.7613 9.81312 13.8719C9.95451 14.8487 10.3609 15.3279 12.2337 15.3279C13.7178 15.3279 14.3538 14.9777 14.3538 14.1483C14.3538 13.6691 14.1772 13.3189 11.8626 13.0793C9.93684 12.8765 8.73539 12.4341 8.73539 10.8306C8.73539 9.33763 9.93684 8.45288 11.951 8.45288C14.2125 8.45288 15.3256 9.26388 15.467 11.0333C15.467 11.0886 15.4493 11.1439 15.414 11.1992C15.3786 11.2361 15.3256 11.2729 15.2726 11.2729H14.3362C14.2478 11.2729 14.1595 11.1992 14.1419 11.1071C13.9298 10.0933 13.3821 9.76153 11.9333 9.76153C10.3079 9.76153 10.1135 10.3514 10.1135 10.7937C10.1135 11.3282 10.3432 11.4941 12.534 11.789C14.7072 12.0839 15.732 12.5079 15.732 14.093C15.732 15.7151 14.4422 16.6365 12.216 16.6365Z" fill="white"/>
<path fill-rule="evenodd" clip-rule="evenodd" d="M11.3411 2.24034C11.9012 1.91176 12.5953 1.92067 13.1468 2.26353L20.1661 6.62685C20.6844 6.9491 21 7.519 21 8.13275V16.584C21 17.196 20.6862 17.7646 20.1702 18.0874L14.8065 21.4427C14.4975 21.636 14.0915 21.5403 13.8996 21.2289C13.7078 20.9176 13.8027 20.5085 14.1117 20.3152L19.4755 16.9599C19.6046 16.8792 19.683 16.7371 19.683 16.584V8.13275C19.683 7.97935 19.604 7.83685 19.4745 7.7563L12.4553 3.39298C12.3174 3.30726 12.1439 3.30503 12.0039 3.38718L4.53519 7.7691C4.40014 7.84835 4.31708 7.99395 4.31708 8.1514V16.5446C4.31708 16.706 4.40442 16.8547 4.54492 16.9324L11.2575 20.6435C11.4037 20.7243 11.5826 20.6177 11.5826 20.4496V18.3612C11.5826 17.9947 11.8775 17.6977 12.2411 17.6977C12.6048 17.6977 12.8996 17.9947 12.8996 18.3612V20.4496C12.8996 21.6265 11.6479 22.373 10.6239 21.8069L3.91136 18.0959C3.34934 17.7851 3 17.1905 3 16.5446V8.1514C3 7.52155 3.33227 6.9392 3.87245 6.62225L11.3411 2.24034Z" fill="white"/>
</svg>
