<svg width="24" height="24" viewBox="0 0 24 24" fill="none" xmlns="http://www.w3.org/2000/svg">
<g clip-path="url(#clip0_6990_11341)">
<g clip-path="url(#clip1_6990_11341)">
<path fill-rule="evenodd" clip-rule="evenodd" d="M12 24C18.6274 24 24 18.6274 24 12C24 5.37258 18.6274 0 12 0C5.37258 0 0 5.37258 0 12C0 18.6274 5.37258 24 12 24ZM15.4367 6.64993C17.4058 7.32821 18.8459 8.34496 18.563 10.2363C18.3582 11.6209 17.5906 12.2912 16.5717 12.5261C17.9709 13.2546 18.6829 14.3718 18.0046 16.3084C17.1629 18.7137 15.1631 18.9167 12.5037 18.4135L11.8583 21L10.2988 20.6113L10.9357 18.0594C10.5315 17.9591 10.1184 17.8525 9.69289 17.737L9.0537 20.3008L7.49592 19.9122L8.14133 17.3208C7.99576 17.2835 7.84928 17.2453 7.70176 17.2068C7.48014 17.149 7.25619 17.0906 7.02951 17.0338L5 16.5279L5.77423 14.7427C5.77423 14.7427 6.92335 15.0483 6.90781 15.0256C7.34933 15.1349 7.54522 14.847 7.62251 14.6552L8.64238 10.5664C8.68066 10.5756 8.71815 10.585 8.75432 10.594C8.77228 10.5985 8.78992 10.603 8.80717 10.6072C8.74498 10.5824 8.68857 10.5664 8.64504 10.5553L9.37263 7.63648C9.39173 7.30511 9.27757 6.88713 8.64593 6.72944C8.67036 6.713 7.51324 6.44782 7.51324 6.44782L7.92811 4.7821L10.0789 5.31913L10.0771 5.32712C10.4005 5.40752 10.7336 5.48392 11.073 5.56121L11.7122 3L13.2709 3.38867L12.6445 5.89969C13.063 5.99519 13.4841 6.09158 13.8941 6.19374L14.5159 3.69916L16.0755 4.08783L15.4367 6.64993Z" fill="white"/>
<path d="M13.5231 6.42368L13.4228 6.66251L12.3954 13.8614L12.4498 13.9435L15.7007 12.392L13.5231 6.42368Z" fill="white"/>
<path d="M13.5233 6.42377L9.76295 11.5446L12.45 13.9436L12.9488 10.4495L13.5233 6.42377Z" fill="white"/>
<path d="M12.3595 14.5763L12.3158 14.6212L11.9498 17.1856L11.9692 17.3109L15.6121 13.026L12.3595 14.5763Z" fill="white"/>
<path d="M11.9693 17.3108L12.3596 14.5761L9.67236 12.1781L11.9693 17.3108Z" fill="white"/>
<path d="M9.76283 11.5446L12.4499 13.9436L12.9486 10.4495L9.76283 11.5446Z" fill="white"/>
</g>
</g>
<defs>
<clipPath id="clip0_6990_11341">
<rect width="24" height="24" fill="white"/>
</clipPath>
<clipPath id="clip1_6990_11341">
<rect width="24" height="24" rx="12" fill="white"/>
</clipPath>
</defs>
</svg>
