<svg width="24" height="24" viewBox="0 0 24 24" fill="none" xmlns="http://www.w3.org/2000/svg">
<path fill-rule="evenodd" clip-rule="evenodd" d="M4.46365 7.13284C4.88532 7.17993 5.30925 7.20184 5.7333 7.19846C6.28862 7.19846 6.91874 7.17017 7.60631 7.11307C11.7839 6.76879 17.1859 5.47216 19.6492 4.22274C20.2966 3.89241 21.1384 3.38634 20.9807 2.78454C20.8826 2.40072 20.4288 2.17286 19.5546 2.06544C18.7888 1.97196 17.7037 1.9787 16.4119 2.08522C12.2343 2.42949 6.83231 3.72611 4.369 4.97554C3.72163 5.30587 2.87979 5.81195 3.03753 6.41374C3.13563 6.79755 3.58939 7.02543 4.46365 7.13284ZM16.4517 2.62634C17.1756 2.56656 17.7758 2.54274 18.2723 2.54274C19.9777 2.54274 20.4543 2.82679 20.4811 2.92836C20.482 2.93061 20.4599 3.21106 19.4228 3.73735C17.0087 4.96205 11.6898 6.23534 7.56609 6.57507C4.35777 6.83983 3.57081 6.40429 3.53667 6.27308C3.53581 6.27308 3.55784 5.9904 4.59502 5.46409C7.00905 4.23937 12.328 2.96791 16.4517 2.62634ZM4.44591 21.934C4.86759 21.9811 5.29152 22.003 5.71557 21.9997C6.27006 21.9997 6.90013 21.9709 7.58986 21.9179C11.7675 21.5736 17.1695 20.2769 19.6328 19.0275C20.2802 18.6972 21.122 18.1911 20.9642 17.5893C20.864 17.2055 20.4102 16.9776 19.536 16.8702C18.7702 16.7767 17.6851 16.7835 16.3933 16.89C12.2157 17.2343 6.81369 18.5309 4.3504 19.7803C3.70217 20.1089 2.85989 20.6149 3.01979 21.2149C3.11789 21.5988 3.57165 21.8266 4.44591 21.934ZM16.4331 17.4275C17.1569 17.3678 17.7572 17.3439 18.2538 17.3439C19.959 17.3439 20.4357 17.628 20.4625 17.7296C20.4634 17.7296 20.4413 18.0122 19.4042 18.5385C16.9901 19.7633 11.6711 21.036 7.54748 21.3763C4.33701 21.641 3.55264 21.2055 3.51807 21.0742C3.5172 21.072 3.53924 20.7916 4.57642 20.2653C6.99044 19.0405 12.3095 17.7673 16.4331 17.4275Z" fill="white"/>
<path fill-rule="evenodd" clip-rule="evenodd" d="M12.1027 7.47352C13.2364 7.47097 14.3254 7.93389 15.1329 8.76157C15.7449 9.38511 16.1653 10.1833 16.3411 11.0553C16.5168 11.9273 16.4399 12.834 16.1202 13.6606C15.8004 14.4871 15.2522 15.1965 14.5448 15.6991C13.8373 16.2017 13.0025 16.4747 12.1459 16.4838H12.1027C10.9538 16.4898 9.84961 16.0209 9.03317 15.1802C8.21674 14.3395 7.75482 13.196 7.74908 12.0011C7.74338 10.8063 8.1943 9.65799 9.00263 8.80891C9.81096 7.95983 10.9106 7.47945 12.0595 7.47352H12.1027ZM11.9725 14.3831V15.2191H12.5182V14.3892C13.9674 14.3892 14.7008 13.7438 14.7008 12.7803C14.7008 12.0723 14.1339 11.7655 13.7243 11.6599C14.0615 11.5365 14.4536 11.0302 14.2953 10.4271C14.1617 9.91703 13.6954 9.46468 12.5182 9.42434V8.5797H11.9725V9.40963H11.6997V8.5797H11.154V9.40963H9.78989V10.2396H10.2359C10.476 10.2396 10.6084 10.3975 10.6084 10.628V13.087C10.6084 13.3239 10.4703 13.5593 10.2291 13.5593H9.93476L9.79834 14.3831H11.154V15.2191H11.6997V14.3831H11.9725ZM11.6997 13.5593V12.1744C12.7228 12.1744 13.5243 12.2281 13.5243 12.8632C13.5243 13.4555 12.7825 13.5593 11.6997 13.5593ZM13.2215 10.9312C13.2215 11.5796 12.3029 11.6228 11.6997 11.6228V10.2396C12.6546 10.2396 13.2215 10.3779 13.2215 10.9312Z" fill="white"/>
<path d="M5.07178 16.5979V12.8032H5.59722V15.2164L6.71936 13.9575H7.30866L6.39033 14.9764L7.36268 16.5979H6.81758L6.05393 15.3236L5.59722 15.8165V16.5979H5.07178Z" fill="white"/>
</svg>
