<svg width="24" height="24" viewBox="0 0 24 24" fill="none" xmlns="http://www.w3.org/2000/svg">
<path fill-rule="evenodd" clip-rule="evenodd" d="M10.8762 5.63645L15.1651 2H18.6038L12.9642 6.84915L18.6038 14.0781H15.7183L13.1089 10.7139C13.1089 10.7139 13.5768 12.1283 13.6552 12.8056C13.7533 13.6449 13.6386 14.3231 13.3531 15C13.6551 13.114 12.6786 11.6135 11.9329 10.4677C11.4999 9.80235 11.1448 9.25665 11.1631 8.82465C11.2254 7.3711 12.3394 6.35695 13.1599 5.7394C13.1599 5.7394 12.6455 5.2744 11.8433 5.5913C11.0406 5.91025 10.7371 6.29385 10.7371 6.29385C10.7371 6.29385 10.21 6.2642 9.65455 6.6234C9.26604 6.87415 8.7221 7.6325 8.20642 8.35135C7.98591 8.65875 7.77057 8.9589 7.57484 9.20905C6.95657 9.9995 6.63134 9.74605 6.59558 9.7176C6.6174 9.7912 6.90294 10.602 8.04614 9.84245C8.04614 9.84245 8.39798 10.2777 7.75229 10.853C7.75229 10.853 8.66002 10.809 8.70276 9.9983C8.70276 9.9983 8.90679 10.3058 8.95651 11.4888C8.97875 12.0063 8.86405 12.7642 8.63519 13.1478C8.63371 13.1492 8.63266 13.151 8.63149 13.1531C8.63054 13.1548 8.62954 13.1566 8.62822 13.1583C8.28334 13.7311 7.62582 14.0798 6.92085 14.0798H5.66038V2.00041H7.97159L7.97592 6.22715L9.25431 6.2243C9.85425 6.2223 10.4321 6.01285 10.8762 5.63645ZM11.9453 22C11.6051 22 11.2829 21.9472 10.9784 21.8417C10.674 21.7361 10.4195 21.5788 10.215 21.3699C10.0128 21.161 9.89149 20.8993 9.85103 20.5849H10.7501C10.8072 20.832 10.9463 21.0206 11.1675 21.1509C11.3911 21.279 11.6646 21.343 11.9881 21.343C12.176 21.343 12.352 21.316 12.5161 21.2621C12.6826 21.2082 12.817 21.1285 12.9192 21.0229C13.0215 20.9151 13.0726 20.7826 13.0726 20.6254C13.0726 20.4479 13.0072 20.3097 12.8764 20.2109C12.7456 20.1098 12.5565 20.0301 12.3092 19.9717L11.2995 19.746C10.907 19.6629 10.5931 19.518 10.3577 19.3113C10.1222 19.1047 10.0044 18.8093 10.0044 18.4252C10.0044 18.1332 10.0889 17.8816 10.2578 17.6705C10.429 17.4571 10.6609 17.292 10.9534 17.1752C11.246 17.0584 11.5754 17 11.9417 17C12.3579 17 12.7099 17.0662 12.9977 17.1988C13.2879 17.3313 13.5079 17.5077 13.6577 17.7278C13.8076 17.9457 13.8837 18.186 13.886 18.4488H13.0084C12.9775 18.159 12.8586 17.9557 12.6517 17.8389C12.4471 17.7199 12.2021 17.6604 11.9167 17.6604C11.579 17.6604 11.3281 17.7289 11.164 17.8659C10.9998 18.0029 10.9178 18.1635 10.9178 18.3477C10.9178 18.5207 10.9773 18.6577 11.0962 18.7588C11.2175 18.8599 11.4042 18.9385 11.6563 18.9946L12.616 19.2069C13.0964 19.3035 13.4389 19.4719 13.6434 19.7122C13.848 19.9503 13.9503 20.23 13.9503 20.5512C13.9503 20.8343 13.8659 21.0847 13.697 21.3025C13.5281 21.5204 13.2926 21.6911 12.9906 21.8147C12.6885 21.9382 12.3401 22 11.9453 22ZM6.98002 22C6.50434 22 6.12026 21.9259 5.82769 21.7777C5.53755 21.6272 5.32702 21.4115 5.19621 21.1308C5.0654 20.8477 5 20.5063 5 20.1064V17.0606H5.88834V20.1907C5.88834 20.5681 5.98586 20.8466 6.18091 21.0263C6.37591 21.206 6.64233 21.2958 6.98002 21.2958C7.31777 21.2958 7.58657 21.2071 7.78632 21.0296C7.9885 20.8499 8.08956 20.5703 8.08956 20.1907V17.0606H8.96723V20.1537C8.96723 20.7309 8.81381 21.1835 8.50697 21.5114C8.20019 21.8371 7.69117 22 6.98002 22ZM14.9365 17.0606V21.9326H16.2707C17.2007 21.9326 17.8881 21.7181 18.3329 21.2891C18.7776 20.8578 19 20.2513 19 19.4697C19 18.7217 18.7895 18.1388 18.3685 17.721C17.9476 17.3033 17.2661 17.0853 16.3243 17.0674C16.2125 17.0651 16.0829 17.064 15.9354 17.064C15.7879 17.0617 15.6416 17.0606 15.4966 17.0606H15.1219H14.9365ZM16.285 21.2554H15.8177V17.7379H16.3064C16.6775 17.7379 16.9962 17.7952 17.2626 17.9097C17.5289 18.022 17.7335 18.2051 17.8762 18.4589C18.0189 18.7127 18.0903 19.0507 18.0903 19.473C18.0903 19.9088 18.013 20.2569 17.8583 20.5175C17.7061 20.7781 17.4944 20.9667 17.2233 21.0835C16.9522 21.1981 16.6394 21.2554 16.285 21.2554Z" fill="white"/>
</svg>
