<svg width="24" height="24" viewBox="0 0 24 24" fill="none" xmlns="http://www.w3.org/2000/svg">
<path d="M15.076 4.04627C15.076 5.17639 13.4532 6.09254 11.4513 6.09254C9.44947 6.09254 7.82666 5.17639 7.82666 4.04627C7.82666 2.91615 9.44947 2 11.4513 2C13.4532 2 15.076 2.91615 15.076 4.04627Z" fill="white"/>
<path d="M14.3491 20.6939C13.6877 21.19 12.6359 21.5108 11.4513 21.5108C9.44947 21.5108 7.82666 20.5946 7.82666 19.4645C7.82666 18.3344 9.44947 17.4182 11.4513 17.4182C11.8065 17.4182 12.1498 17.4471 12.4743 17.5008C12.59 18.8165 13.3032 19.9665 14.3491 20.6939Z" fill="white"/>
<path d="M20.8416 14.8425C21.0237 13.8104 20.7899 12.9267 20.1413 12.5632C19.5802 12.2487 18.8268 12.3899 18.0964 12.8672C19.2554 13.1537 20.2355 13.8754 20.8416 14.8425Z" fill="white"/>
<path d="M6.40015 8.92505C7.40109 7.24227 7.39456 5.41978 6.38563 4.85432C5.3767 4.28888 3.74739 5.19466 2.74647 6.87739C1.74554 8.56017 1.75204 10.3827 2.76097 10.9481C3.76991 11.5136 5.39925 10.6078 6.40015 8.92505Z" fill="white"/>
<path d="M6.38601 18.6566C7.39494 18.0912 7.40147 16.2687 6.40052 14.5859C5.39958 12.9031 3.77028 11.9974 2.76134 12.5628C1.7524 13.1283 1.74591 14.9508 2.74683 16.6335C3.74776 18.3163 5.37708 19.2221 6.38601 18.6566Z" fill="white"/>
<path d="M20.1555 6.8786C21.1564 8.56138 21.1504 10.3836 20.1422 10.9487C19.1339 11.5137 17.5052 10.6076 16.5043 8.9249C15.5034 7.24212 15.5093 5.41992 16.5176 4.85484C17.5258 4.28977 19.1546 5.19582 20.1555 6.8786Z" fill="white"/>
<path fill-rule="evenodd" clip-rule="evenodd" d="M16.9776 12.7859C14.5121 12.7859 12.5134 14.7272 12.5134 17.1219C12.5134 19.5167 14.5121 21.458 16.9776 21.458C19.4432 21.458 21.4419 19.5167 21.4419 17.1219C21.4419 14.7272 19.4432 12.7859 16.9776 12.7859ZM11.9553 17.1219C11.9553 14.4279 14.2039 12.2439 16.9776 12.2439C19.7514 12.2439 22 14.4279 22 17.1219C22 19.816 19.7514 22 16.9776 22C14.2039 22 11.9553 19.816 11.9553 17.1219Z" fill="white"/>
<path d="M15.7693 14.6235H16.8029V18.7177H19.0107V19.5611H15.7693V14.6235Z" fill="white"/>
</svg>
