<svg width="24" height="24" viewBox="0 0 24 24" fill="none" xmlns="http://www.w3.org/2000/svg">
<path fill-rule="evenodd" clip-rule="evenodd" d="M11.8342 18.9571C11.4277 18.9478 11.1878 18.9427 11.039 18.9397C10.8902 18.9367 10.6545 18.9299 10.5152 18.9246C10.376 18.9192 10.1659 18.9101 10.0485 18.9043C9.93109 18.8985 9.72554 18.887 9.59173 18.8789C9.45792 18.8707 9.25684 18.8573 9.14488 18.8491C9.03292 18.8408 8.83631 18.825 8.70796 18.8139C8.57962 18.8028 8.36513 18.7825 8.23132 18.7688C8.09751 18.7551 7.85622 18.7279 7.6951 18.7084C7.53399 18.6889 7.27928 18.6552 7.12909 18.6336C6.9789 18.612 6.74654 18.576 6.61273 18.5538C6.47893 18.5315 6.27337 18.4951 6.15595 18.4729C6.03853 18.4507 5.83968 18.4103 5.71407 18.3832C5.58845 18.356 5.38514 18.3086 5.26225 18.2778C5.13937 18.247 4.94598 18.1947 4.83249 18.1616C4.71901 18.1284 4.54804 18.0745 4.45256 18.0419C4.35709 18.0092 4.21535 17.9571 4.13758 17.926C4.05981 17.8948 3.94256 17.8443 3.87702 17.8137C3.81148 17.7831 3.70871 17.7311 3.64863 17.6982C3.58855 17.6653 3.49472 17.6076 3.4401 17.5701C3.38549 17.5325 3.31013 17.4757 3.27263 17.4437C3.23514 17.4117 3.17747 17.3517 3.14447 17.3103C3.11147 17.2689 3.0699 17.2043 3.05209 17.1668C3.03427 17.1293 3.01415 17.0673 3.00737 17.0289C2.99754 16.9734 2.99754 16.9451 3.00737 16.8896C3.01415 16.8512 3.03431 16.7892 3.05217 16.7517C3.07003 16.7142 3.11042 16.6509 3.14192 16.6111C3.17343 16.5712 3.23777 16.5061 3.2849 16.4663C3.33203 16.4265 3.41751 16.363 3.47486 16.3252C3.5322 16.2873 3.64615 16.222 3.72807 16.18C3.80999 16.138 3.92637 16.0823 3.98669 16.0561C4.04701 16.03 4.17436 15.9791 4.2697 15.943C4.36503 15.907 4.53687 15.8483 4.65156 15.8126C4.76625 15.7768 4.95393 15.7224 5.06862 15.6916C5.18331 15.6607 5.37546 15.6127 5.49561 15.5848C5.61576 15.5569 5.81237 15.5142 5.93253 15.49C6.05268 15.4658 6.25153 15.4281 6.37441 15.4061C6.4973 15.3841 6.70061 15.3501 6.82623 15.3305C6.95184 15.3108 7.16856 15.2792 7.30783 15.2601C7.4471 15.2411 7.67723 15.2119 7.81923 15.1953C7.96122 15.1787 8.19359 15.1537 8.33559 15.1398C8.47758 15.1258 8.70101 15.1053 8.83209 15.0942C8.96316 15.0831 9.20223 15.065 9.36334 15.0541C9.52445 15.0431 9.78586 15.0274 9.94424 15.0193C10.1026 15.0111 10.3551 14.9999 10.5053 14.9944C10.6555 14.9889 10.8803 14.9815 11.0049 14.9779C11.1722 14.9731 11.2303 14.9683 11.227 14.9596C11.2245 14.9531 11.1911 14.8848 11.1528 14.8078C11.1145 14.7308 11.0481 14.609 11.0052 14.5372C10.9624 14.4654 10.8928 14.357 10.8507 14.2964C10.8085 14.2358 10.7402 14.1434 10.6988 14.0911C10.6575 14.0387 10.5736 13.9403 10.5123 13.8722C10.4511 13.8042 10.3482 13.6993 10.2836 13.6391C10.219 13.579 10.114 13.4876 10.0503 13.4361C9.98649 13.3846 9.88293 13.3059 9.82012 13.2612C9.75731 13.2166 9.6456 13.1433 9.57187 13.0983C9.49814 13.0534 9.35068 12.9727 9.24418 12.9191C9.13768 12.8654 8.97681 12.7918 8.8867 12.7555C8.79659 12.7192 8.64587 12.6643 8.55177 12.6334C8.45768 12.6026 8.31245 12.5596 8.22905 12.5379C8.14564 12.5162 8.00993 12.4844 7.92746 12.4674C7.845 12.4504 7.702 12.4253 7.6097 12.4118C7.5174 12.3982 7.34581 12.3758 7.22839 12.3619C7.11097 12.3481 6.92776 12.3276 6.82126 12.3165C6.71476 12.3053 6.53379 12.2873 6.4191 12.2764C6.30441 12.2654 6.10556 12.2475 5.97721 12.2364C5.84887 12.2254 5.65225 12.2096 5.54029 12.2014C5.42833 12.1931 5.23506 12.1796 5.1108 12.1713C4.98655 12.1631 4.80781 12.1517 4.7136 12.1461C4.6194 12.1405 4.45519 12.1315 4.34869 12.126C4.2422 12.1205 4.05228 12.1114 3.92667 12.1058C3.80106 12.1002 3.55752 12.0908 3.38549 12.0849C3.11217 12.0755 3.06956 12.0719 3.04787 12.0563C3.03111 12.0442 3.02207 12.0271 3.02006 12.0036C3.01809 11.9805 3.02358 11.9606 3.03634 11.9447C3.0556 11.9206 3.0556 11.9206 3.41666 11.9088C3.61524 11.9023 3.8872 11.8919 4.021 11.8858C4.15481 11.8796 4.34696 11.8701 4.44799 11.8646C4.54903 11.8591 4.7043 11.8501 4.79305 11.8445C4.88179 11.839 5.05606 11.8276 5.18032 11.8193C5.30457 11.811 5.49561 11.7974 5.60484 11.789C5.71407 11.7807 5.90621 11.765 6.03183 11.7541C6.15744 11.7433 6.35629 11.7252 6.47371 11.7139C6.59113 11.7027 6.76987 11.6845 6.87091 11.6736C6.97195 11.6626 7.15069 11.6424 7.26811 11.6285C7.38553 11.6147 7.55534 11.592 7.64545 11.5781C7.73557 11.5642 7.8942 11.5346 7.99797 11.5122C8.10173 11.4898 8.27022 11.4473 8.37238 11.4178C8.47454 11.3882 8.622 11.3407 8.70007 11.3122C8.77814 11.2837 8.90457 11.2335 8.98103 11.2006C9.0575 11.1678 9.18932 11.1055 9.27397 11.0622C9.35862 11.019 9.47949 10.9525 9.54256 10.9146C9.60564 10.8767 9.71288 10.8077 9.78088 10.7612C9.84887 10.7146 9.94696 10.6432 9.99885 10.6024C10.0507 10.5616 10.1423 10.4845 10.2024 10.431C10.2625 10.3775 10.3731 10.2695 10.4482 10.1911C10.5233 10.1126 10.631 9.99024 10.6874 9.91911C10.7438 9.84799 10.8269 9.73524 10.872 9.66855C10.9171 9.60187 10.9852 9.49454 11.0234 9.43003C11.0615 9.36553 11.1272 9.24281 11.1694 9.15732C11.2115 9.07182 11.2627 8.96146 11.2832 8.91206C11.3037 8.86266 11.3421 8.76339 11.3687 8.69144C11.3952 8.6195 11.4376 8.48969 11.4629 8.40298C11.4882 8.31627 11.5243 8.17638 11.543 8.09211C11.5618 8.00784 11.5883 7.8712 11.6019 7.78847C11.6156 7.70573 11.6357 7.55681 11.6466 7.45754C11.6576 7.35826 11.6799 7.12811 11.6963 6.9461C11.7127 6.76409 11.7373 6.47302 11.7511 6.29928C11.7648 6.12554 11.7872 5.81416 11.8008 5.60733C11.8144 5.4005 11.8322 5.10718 11.8402 4.9555C11.8483 4.80382 11.8595 4.58044 11.8652 4.4591C11.8709 4.33776 11.8799 4.12792 11.8852 3.99279C11.8905 3.85766 11.8974 3.61849 11.9004 3.4613C11.9035 3.3041 11.9086 3.14668 11.9116 3.11146C11.9161 3.05993 11.9222 3.04281 11.9426 3.02372C11.959 3.00836 11.9799 3 12.002 3C12.026 3 12.0442 3.00823 12.0636 3.02789C12.0913 3.05577 12.0913 3.05577 12.0982 3.30116C12.102 3.43612 12.1093 3.67289 12.1145 3.82733C12.1197 3.98176 12.1284 4.20965 12.1339 4.33375C12.1394 4.45785 12.1485 4.64964 12.1541 4.75995C12.1597 4.87026 12.1709 5.07107 12.1789 5.2062C12.1869 5.34133 12.2002 5.55343 12.2085 5.67753C12.2168 5.80163 12.2302 5.99116 12.2384 6.09871C12.2465 6.20627 12.2601 6.37775 12.2685 6.47979C12.2769 6.58182 12.2925 6.76459 12.3033 6.88593C12.314 7.00727 12.3317 7.1968 12.3425 7.30711C12.3534 7.41742 12.3714 7.57311 12.3826 7.65309C12.3937 7.73306 12.4161 7.86618 12.4322 7.94892C12.4483 8.03165 12.4795 8.16881 12.5015 8.25371C12.5235 8.33861 12.5614 8.46981 12.5859 8.54527C12.6103 8.62073 12.6551 8.74531 12.6854 8.82212C12.7158 8.89892 12.7803 9.04299 12.8288 9.14227C12.8774 9.24155 12.9467 9.37242 12.9829 9.43309C13.0191 9.49376 13.0746 9.58216 13.1061 9.62954C13.1377 9.67692 13.1951 9.75815 13.2337 9.81005C13.2722 9.86195 13.341 9.9495 13.3866 10.0046C13.4321 10.0597 13.5297 10.166 13.6034 10.2409C13.6772 10.3158 13.7844 10.4174 13.8418 10.4668C13.8991 10.5161 13.9974 10.5954 14.0602 10.6429C14.123 10.6904 14.2325 10.7676 14.3035 10.8143C14.3745 10.861 14.4952 10.9345 14.5716 10.9776C14.6481 11.0208 14.7643 11.0816 14.8298 11.1129C14.8953 11.1442 15.0093 11.1951 15.083 11.226C15.1567 11.2569 15.3046 11.3117 15.4116 11.3478C15.5186 11.3838 15.684 11.4335 15.779 11.4582C15.8741 11.4829 16.021 11.5169 16.1054 11.5338C16.1898 11.5507 16.3373 11.5757 16.4331 11.5893C16.5289 11.6029 16.7033 11.6253 16.8208 11.639C16.9382 11.6527 17.146 11.6753 17.2825 11.6891C17.419 11.703 17.6268 11.7231 17.7443 11.734C17.8617 11.7448 18.0717 11.7628 18.211 11.774C18.3502 11.7852 18.5602 11.8012 18.6777 11.8096C18.7951 11.818 18.9984 11.8314 19.1295 11.8394C19.2606 11.8474 19.4572 11.8587 19.5664 11.8645C19.6756 11.8703 19.8521 11.8794 19.9586 11.8846C20.0651 11.8899 20.3198 11.8991 20.5246 11.9051C20.756 11.9118 20.912 11.9205 20.9365 11.928C20.9645 11.9366 20.9787 11.9478 20.9851 11.9663C20.9901 11.9807 20.9913 12.0043 20.9877 12.0188C20.9841 12.0333 20.9711 12.0516 20.9589 12.0595C20.9419 12.0705 20.8626 12.0764 20.619 12.0848C20.4442 12.0908 20.1984 12.1004 20.0728 12.1061C19.9472 12.1118 19.7171 12.1231 19.5614 12.1313C19.4058 12.1395 19.1734 12.1529 19.0451 12.1611C18.9167 12.1693 18.6888 12.1851 18.5387 12.1961C18.3885 12.2071 18.1583 12.2253 18.0273 12.2365C17.8962 12.2477 17.6728 12.2681 17.5308 12.2818C17.3888 12.2956 17.1698 12.3181 17.0442 12.3319C16.9186 12.3457 16.7242 12.3684 16.6122 12.3823C16.5003 12.3963 16.3439 12.4189 16.2647 12.4325C16.1855 12.4461 16.05 12.4732 15.9636 12.4926C15.8772 12.512 15.7292 12.55 15.6348 12.577C15.5403 12.6041 15.401 12.6487 15.3251 12.6762C15.2493 12.7037 15.127 12.7513 15.0532 12.782C14.9795 12.8128 14.8432 12.8762 14.7504 12.923C14.6575 12.9699 14.5135 13.0499 14.4302 13.1009C14.347 13.1519 14.2234 13.2334 14.1556 13.282C14.0877 13.3305 13.9753 13.418 13.9058 13.4763C13.8362 13.5346 13.7258 13.6347 13.6604 13.6988C13.595 13.763 13.498 13.8651 13.4449 13.9257C13.3917 13.9864 13.3151 14.0789 13.2747 14.1313C13.2343 14.1837 13.1651 14.2807 13.1209 14.3469C13.0767 14.4131 13.0108 14.518 12.9745 14.58C12.9382 14.6421 12.881 14.7481 12.8474 14.8157C12.8138 14.8833 12.7843 14.946 12.7819 14.955C12.778 14.9697 12.8002 14.9721 12.9944 14.9777C13.1136 14.9812 13.3341 14.9885 13.4843 14.994C13.6345 14.9995 13.8512 15.0086 13.9659 15.0143C14.0806 15.0199 14.2839 15.0313 14.4177 15.0395C14.5515 15.0477 14.7794 15.0635 14.9241 15.0745C15.0689 15.0856 15.3102 15.1059 15.4604 15.1196C15.6105 15.1333 15.8943 15.1627 16.0909 15.1849C16.2875 15.207 16.5623 15.2409 16.7016 15.2601C16.8409 15.2794 17.0576 15.3111 17.1832 15.3306C17.3088 15.3502 17.4987 15.3817 17.6052 15.4007C17.7117 15.4197 17.8905 15.4534 18.0024 15.4757C18.1144 15.4979 18.2954 15.5364 18.4046 15.5612C18.5138 15.586 18.6903 15.6284 18.7968 15.6555C18.9033 15.6825 19.062 15.7253 19.1493 15.7505C19.2367 15.7758 19.3775 15.8194 19.4621 15.8474C19.5468 15.8755 19.6746 15.9201 19.7462 15.9466C19.8178 15.9731 19.9362 16.0205 20.0093 16.0519C20.0825 16.0833 20.2049 16.1412 20.2814 16.1806C20.3578 16.22 20.4785 16.2912 20.5495 16.3388C20.6205 16.3864 20.7175 16.4623 20.7651 16.5074C20.8127 16.5525 20.8738 16.6228 20.9008 16.6635C20.9277 16.7042 20.9597 16.7637 20.9718 16.7958C20.9839 16.8278 20.9961 16.8871 20.9989 16.9276C21.0017 16.9681 20.9988 17.0248 20.9924 17.0535C20.9861 17.0823 20.9677 17.134 20.9515 17.1684C20.9354 17.2029 20.9025 17.2568 20.8785 17.2882C20.8545 17.3196 20.8064 17.3728 20.7716 17.4062C20.7368 17.4397 20.6748 17.4921 20.6339 17.5226C20.5929 17.553 20.5101 17.6078 20.4498 17.6443C20.3895 17.6809 20.2711 17.7443 20.1867 17.7853C20.1022 17.8263 19.9594 17.8892 19.8693 17.9252C19.7792 17.9612 19.6248 18.0178 19.5262 18.0509C19.4276 18.0841 19.26 18.1365 19.1538 18.1673C19.0476 18.1981 18.8735 18.2454 18.767 18.2724C18.6605 18.2994 18.4595 18.3464 18.3202 18.377C18.1809 18.4076 17.9575 18.453 17.8237 18.4779C17.6899 18.5028 17.4709 18.5412 17.3371 18.5631C17.2033 18.5851 16.9807 18.6191 16.8424 18.6388C16.704 18.6585 16.4806 18.6879 16.3459 18.7042C16.2111 18.7205 15.9958 18.745 15.8675 18.7587C15.7391 18.7724 15.5336 18.7927 15.4107 18.8037C15.2878 18.8148 15.0689 18.8329 14.9241 18.844C14.7794 18.855 14.5493 18.8708 14.4127 18.879C14.2762 18.8872 14.0707 18.8986 13.956 18.9044C13.8413 18.9102 13.6312 18.9192 13.4893 18.9245C13.3473 18.9298 13.1115 18.9365 12.9654 18.9395C12.8193 18.9424 12.5813 18.9477 12.4365 18.9512C12.1789 18.9574 12.1732 18.958 12.1687 18.9787C12.1661 18.9904 12.1573 19.1478 12.1491 19.3284C12.1409 19.5091 12.1297 19.7595 12.1241 19.885C12.1186 20.0105 12.1092 20.2936 12.1034 20.5143C12.0972 20.7472 12.0882 20.9271 12.0821 20.9434C12.0762 20.9589 12.0589 20.978 12.0435 20.9861C12.0282 20.9941 12.0098 21.0003 12.0027 21C11.9956 20.9996 11.98 20.9954 11.9681 20.9905C11.9561 20.9856 11.939 20.9704 11.9301 20.9566C11.9165 20.9357 11.9124 20.8813 11.905 20.6226C11.9002 20.4527 11.8913 20.1806 11.8854 20.0179C11.8794 19.8552 11.8683 19.5912 11.8607 19.4312C11.8531 19.2713 11.844 19.0991 11.8405 19.0487L11.8342 18.9571ZM11.407 17.7994C11.5916 17.8007 11.7255 17.7978 11.7224 17.7927C11.7194 17.7878 11.7259 17.7815 11.7369 17.7786C11.7551 17.7738 11.7563 17.7674 11.7512 17.7047C11.7481 17.667 11.7368 17.5279 11.726 17.3955C11.7152 17.2631 11.6953 17.0352 11.6817 16.8891C11.6681 16.7429 11.65 16.5624 11.6415 16.4879C11.6329 16.4135 11.6153 16.2885 11.6022 16.2102C11.5892 16.1319 11.5651 16.0078 11.5488 15.9344C11.5324 15.861 11.5035 15.7446 11.4846 15.6756C11.4657 15.6067 11.4315 15.4945 11.4087 15.4262C11.3859 15.358 11.3606 15.2862 11.3525 15.2668C11.3379 15.2314 11.3379 15.2314 11.0184 15.2381C10.8427 15.2418 10.5939 15.2493 10.4656 15.2547C10.3372 15.2602 10.1451 15.2692 10.0386 15.2747C9.93208 15.2803 9.76898 15.2895 9.67613 15.2951C9.58329 15.3008 9.41349 15.3122 9.29879 15.3205C9.1841 15.3288 8.98972 15.3444 8.86684 15.3552C8.74396 15.366 8.55405 15.3839 8.44482 15.3951C8.33559 15.4063 8.15014 15.4268 8.03272 15.4406C7.9153 15.4545 7.68068 15.4857 7.51134 15.5101C7.342 15.5345 7.11187 15.5706 6.99994 15.5904C6.88801 15.6102 6.72941 15.6399 6.64749 15.6564C6.56556 15.6728 6.42928 15.7022 6.34462 15.7217C6.25997 15.7412 6.12368 15.7752 6.04176 15.7972C5.95984 15.8193 5.84142 15.8533 5.77861 15.8728C5.71581 15.8924 5.60409 15.931 5.53036 15.9586C5.45663 15.9862 5.34715 16.0327 5.28708 16.0618C5.227 16.091 5.1423 16.1384 5.09886 16.1672C5.05541 16.1959 4.9917 16.2468 4.95728 16.2801C4.92023 16.3161 4.88358 16.3637 4.86746 16.3968C4.8462 16.4406 4.84025 16.4671 4.84032 16.518C4.8404 16.5661 4.84659 16.5959 4.86395 16.6317C4.87689 16.6583 4.91205 16.7069 4.94208 16.7397C4.97211 16.7724 5.03297 16.8235 5.07733 16.8531C5.12169 16.8827 5.20267 16.9294 5.25729 16.9568C5.3119 16.9842 5.40798 17.027 5.47078 17.0519C5.53359 17.0768 5.64754 17.1177 5.724 17.1428C5.80046 17.1678 5.92111 17.204 5.99211 17.2231C6.06311 17.2422 6.19716 17.2761 6.29001 17.2985C6.38285 17.3208 6.54995 17.3574 6.66134 17.3798C6.77273 17.4022 6.95817 17.4362 7.07343 17.4555C7.1887 17.4747 7.39248 17.5061 7.52629 17.5252C7.6601 17.5444 7.90363 17.5759 8.06748 17.5953C8.23132 17.6147 8.48379 17.6418 8.62852 17.6557C8.77325 17.6695 9.00785 17.69 9.14984 17.7011C9.29184 17.7122 9.55548 17.7302 9.73571 17.7411C9.91594 17.7519 10.2332 17.7677 10.4407 17.7762C10.6483 17.7847 10.8784 17.7929 10.9521 17.7945C11.0259 17.796 11.2306 17.7982 11.407 17.7994ZM12.6651 15.2315C12.6014 15.4086 12.567 15.5142 12.5475 15.5804C12.5281 15.6466 12.4989 15.7549 12.4826 15.8211C12.4663 15.8872 12.4415 15.9993 12.4274 16.0701C12.4134 16.1409 12.3908 16.283 12.3773 16.386C12.3638 16.4889 12.3416 16.6928 12.328 16.8389C12.3144 16.9851 12.2942 17.2094 12.2832 17.3374C12.2721 17.4653 12.26 17.6229 12.2564 17.6875L12.2498 17.8049L12.7354 17.7984C13.0026 17.7948 13.3284 17.7873 13.4595 17.7817C13.5905 17.7762 13.7894 17.7671 13.9013 17.7615C14.0133 17.7559 14.1831 17.7466 14.2787 17.7408C14.3743 17.7351 14.5441 17.7238 14.656 17.7158C14.768 17.7078 14.9423 17.6943 15.0433 17.6858C15.1443 17.6773 15.3186 17.6615 15.4306 17.6506C15.5425 17.6398 15.7146 17.6218 15.8129 17.6106C15.9112 17.5994 16.0631 17.5811 16.1505 17.57C16.2379 17.5589 16.3876 17.5386 16.4831 17.5249C16.5787 17.5111 16.7396 17.4865 16.8406 17.4701C16.9417 17.4536 17.1092 17.4243 17.213 17.4048C17.3168 17.3854 17.4923 17.3491 17.6031 17.3242C17.7139 17.2993 17.8869 17.2567 17.9877 17.2294C18.0885 17.2022 18.2459 17.1545 18.3374 17.1235C18.429 17.0925 18.5552 17.0449 18.6179 17.0177C18.6807 16.9906 18.769 16.9479 18.8143 16.923C18.8596 16.8981 18.9326 16.8504 18.9764 16.817C19.0202 16.7837 19.0738 16.7327 19.0954 16.7038C19.117 16.6749 19.1418 16.6301 19.1506 16.6041C19.161 16.5733 19.1651 16.5352 19.1625 16.4939C19.1594 16.4441 19.1513 16.4186 19.1241 16.373C19.1052 16.3413 19.0666 16.2938 19.0383 16.2676C19.01 16.2413 18.9561 16.1994 18.9186 16.1744C18.881 16.1495 18.8059 16.1066 18.7516 16.0791C18.6973 16.0517 18.6015 16.0087 18.5387 15.9836C18.4758 15.9585 18.3619 15.9174 18.2854 15.8922C18.209 15.8671 18.0726 15.8266 17.9823 15.8023C17.892 15.778 17.7379 15.7399 17.6397 15.7177C17.5416 15.6954 17.3786 15.6612 17.2775 15.6417C17.1765 15.6221 17.0134 15.5925 16.9151 15.5757C16.8168 15.559 16.6604 15.5342 16.5675 15.5207C16.4747 15.5071 16.3138 15.4847 16.2101 15.4708C16.1063 15.4569 15.9209 15.4343 15.798 15.4205C15.6751 15.4067 15.4517 15.3842 15.3015 15.3704C15.1513 15.3566 14.9413 15.3385 14.8348 15.3302C14.7283 15.322 14.5361 15.3085 14.4078 15.3002C14.2794 15.292 14.0806 15.2806 13.9659 15.2748C13.8512 15.2691 13.6568 15.26 13.5339 15.2547C13.4111 15.2493 13.1653 15.2419 12.9878 15.2382L12.6651 15.2315Z" fill="white"/>
</svg>
