<svg width="24" height="24" viewBox="0 0 24 24" fill="none" xmlns="http://www.w3.org/2000/svg">
<path fill-rule="evenodd" clip-rule="evenodd" d="M9.86731 2.18989C8.56838 2.43987 6.1976 3.7044 5.15325 4.70413C4.0365 5.77322 3.12246 7.1525 2.52514 8.67067C2.15655 9.6069 2.0011 10.1009 2 11.9735C1.9989 13.7926 2.16003 14.3481 2.49636 15.2523C2.71978 15.8527 2.90252 16.5704 2.90252 16.8471C2.90252 17.5468 3.53045 17.8811 4.01743 17.441C4.47381 17.0287 4.46043 16.8415 3.93496 16.2753C2.92378 15.1859 2.46374 12.1526 2.97858 9.97052C3.96098 5.80598 7.7841 2.72864 11.9751 2.72864C13.8314 2.72864 16.1884 3.5419 17.7359 4.71639L18.3647 5.19366L16.6362 5.28516L14.9076 5.37666V10.5922V15.8077L15.32 15.8663L15.7324 15.9246V10.971V6.01716H17.4512C18.82 6.01716 19.2207 5.95604 19.4192 5.71741C19.6382 5.4537 19.5467 5.30858 18.6626 4.51729C16.3649 2.46073 13.0367 1.58013 9.86731 2.18989ZM6.20163 9.96375C6.20163 12.7216 6.12667 14.7822 6.01908 14.9829C5.65526 15.6615 6.45255 16.3746 7.03521 15.8919C7.34276 15.6371 7.38729 14.9602 7.11457 14.6879C6.99562 14.5691 6.94558 12.978 6.97711 10.305L7.02641 6.10866L7.58836 6.05376C8.1131 6.00271 8.283 6.16887 10.1543 8.56307C11.9894 10.9108 12.7999 11.6252 12.7999 10.8945C12.7999 10.7589 11.8459 9.44129 10.68 7.96648L8.56031 5.28516H7.38088H6.20163V9.96375ZM19.8013 6.60276C19.4496 6.95394 19.5456 7.44933 20.0266 7.76409C20.6631 8.18041 21.0689 9.50094 21.1802 11.5191C21.3343 14.3144 20.4795 16.5778 18.5374 18.5168C16.7243 20.3273 14.5839 21.2002 11.9485 21.204C10.0576 21.2068 8.48828 20.737 6.92157 19.6992L5.74342 18.9187L7.39298 18.8272L9.04253 18.7357L9.09129 13.5659C9.13894 8.48877 9.13326 8.39617 8.77054 8.39617C8.40947 8.39617 8.40104 8.50597 8.40104 13.1542V17.9122H6.68825C5.24727 17.9122 4.92616 17.9666 4.66498 18.2548C4.36879 18.5816 4.39885 18.6373 5.31729 19.4617C6.42927 20.4599 8.23462 21.4136 9.68403 21.7682C11.1692 22.1315 13.4289 22.061 14.9347 21.6042C18.1708 20.623 21.0493 17.5696 21.785 14.338C22.1528 12.7219 22.0396 10.4238 21.515 8.86374C21.258 8.09898 21.0476 7.3269 21.0476 7.14792C21.0476 6.74331 20.7023 6.38316 20.3145 6.38316C20.1532 6.38316 19.9223 6.48198 19.8013 6.60276ZM16.8757 8.24282C16.6026 8.51549 16.5781 9.06302 16.8321 9.21967C16.9459 9.28995 17.0154 10.96 17.0154 13.6225V17.9122H16.395C15.8145 17.9122 15.6464 17.7477 13.7832 15.3529C12.5816 13.8086 11.6646 12.7926 11.471 12.7909C11.2947 12.7895 11.1503 12.8945 11.1503 13.0246C11.1503 13.1546 12.1204 14.4928 13.3061 15.9984L15.4621 18.7357L16.6052 18.7902L17.7485 18.8446V14.1669C17.7485 10.7567 17.8103 9.3906 17.9763 9.12506C18.4006 8.44668 17.4417 7.67771 16.8757 8.24282Z" fill="white"/>
</svg>
