<svg width="24" height="24" viewBox="0 0 24 24" fill="none" xmlns="http://www.w3.org/2000/svg">
<path fill-rule="evenodd" clip-rule="evenodd" d="M12 21C16.9706 21 21 16.9706 21 12C21 7.02944 16.9706 3 12 3C7.02944 3 3 7.02944 3 12C3 16.9706 7.02944 21 12 21ZM15.9091 15.8748C16.4287 15.3553 16.4287 14.5086 15.9091 13.9891C15.3882 13.4696 12.4232 12.3889 12.4232 12.3889C12.4232 12.3889 13.5039 15.3553 14.0234 15.8748C14.5429 16.3944 15.3896 16.3944 15.9091 15.8748ZM10.0438 15.8748C10.5633 15.3525 11.644 12.3889 11.644 12.3889C11.644 12.3889 8.67757 13.4696 8.15806 13.9891C7.63855 14.5086 7.63855 15.3553 8.15806 15.8748C8.67757 16.3944 9.52429 16.3944 10.0438 15.8748ZM15.9091 10.0095C16.4287 9.49 16.4287 8.64327 15.9091 8.12376C15.3882 7.60138 14.5443 7.60138 14.0234 8.12376C13.5039 8.64614 12.4232 11.6097 12.4232 11.6097C12.4232 11.6097 15.3896 10.529 15.9091 10.0095ZM11.644 11.6097C11.644 11.6097 10.5633 8.64327 10.0438 8.12376C9.52286 7.60138 8.67757 7.60138 8.15806 8.12376C7.63855 8.64327 7.63855 9.49 8.15806 10.0095C8.68044 10.529 11.644 11.6097 11.644 11.6097ZM17.8652 13.3332C18.6029 13.3332 19.1984 12.7362 19.1984 12C19.1984 11.2624 18.6014 10.6668 17.8652 10.6668C17.129 10.6668 12.7992 12 12.7992 12C12.7992 12 17.129 13.3332 17.8652 13.3332ZM6.1331 13.3332C6.86932 13.3332 11.1991 12 11.1991 12C11.1991 12 6.86932 10.6668 6.1331 10.6668C5.39545 10.6668 4.79988 11.2638 4.79988 12C4.79988 12.7377 5.39689 13.3332 6.1331 13.3332ZM10.6652 17.8668C10.6652 18.6044 11.2622 19.2 11.9984 19.2C12.7347 19.2 13.3317 18.603 13.3317 17.8668C13.3317 17.1306 11.9984 12.8008 11.9984 12.8008C11.9984 12.8008 10.6652 17.1291 10.6652 17.8668ZM10.6652 6.13325C10.6652 6.86947 11.9984 11.1992 11.9984 11.1992C11.9984 11.1992 13.3317 6.8709 13.3317 6.13325C13.3317 5.3956 12.7347 4.80002 11.9984 4.80002C11.2608 4.80002 10.6652 5.39703 10.6652 6.13325Z" fill="white"/>
</svg>
