<svg width="24" height="24" viewBox="0 0 24 24" fill="none" xmlns="http://www.w3.org/2000/svg">
<path fill-rule="evenodd" clip-rule="evenodd" d="M2.00008 12.0828L2 20L8.5094 16.34L14.7969 12.9738L16.8455 14.0039L18.9355 15.1813V8.84378L11.4091 13.0916L3.71315 17.2861L3.68555 11.8551L3.77426 6.64988L9.37392 9.76366L10.7649 9.03583L6.58135 6.60447L2.00008 4.04129V12.0828ZM15.2258 7.82236L9.25811 11.237L4.90329 8.72016V11.8992V15.332L12.8065 10.8434L20.2258 6.63695L20.2257 17.4772L17.5042 15.8594L14.8871 14.3836L13.2903 15.112L17.6358 17.5592L21.9999 19.9253L22 12.0828V4L15.2258 7.82236ZM7.86231 12.1143L6.19361 12.8576V11.1367L7.86231 12.1143ZM17.8065 12.8576L16.1378 12.1143L17.8065 11.077V12.8576Z" fill="white"/>
</svg>
