<svg width="24" height="24" viewBox="0 0 24 24" fill="none" xmlns="http://www.w3.org/2000/svg">
<path d="M17.6695 15.6704H16.7423L16.6818 15.5537C16.6818 15.5537 16.1778 14.4939 14.928 14.2217C16.1274 13.8814 16.9439 13.1424 17.347 12.2868H18.2743C18.457 11.9022 18.5532 11.4847 18.5565 11.0617C18.5599 10.6499 18.516 10.2391 18.4255 9.83662C18.0324 8.1351 16.7322 6.93918 14.1721 6.70584H14.1519L13.8797 6.6864H5.9273V12.2965H5V15.6801H5.9273V18.4803H9.43484V16.069V15.6704H12.0857C13.2347 15.6704 13.5975 16.3218 14.3333 17.9358C14.414 18.0978 14.4946 18.2728 14.5752 18.4608H19C18.5364 17.3621 17.8711 16.0593 17.6695 15.6704ZM9.43484 9.83662H12.9827C13.7084 9.83662 14.3837 10.3617 14.3837 11.0617C14.3837 11.7617 13.7084 12.2868 12.9827 12.2868H9.43484V9.83662Z" fill="white"/>
<path d="M14.4745 6.05443V5.30579H15.3212V2H12.3176V5.29606H11.4709V5.97665H13.2046C13.629 5.98196 14.0529 6.00791 14.4745 6.05443Z" fill="white"/>
<path d="M10.2312 5.98638V5.30578H11.0778V3.91541H8.07422V5.29606H7.22754V5.98638H9.43489H10.2312Z" fill="white"/>
<path d="M10.1404 11.6062H11.2995V10.5172H10.1404V11.6062Z" fill="white"/>
<path d="M13.9301 18.7428L13.8192 18.5095C12.9322 16.5746 12.7609 16.3607 12.0755 16.3607H10.1403V19.1609H8.56799V19.8123H11.5716V17.3525H12.7408V22H15.7443V19.1512H14.1115L13.9301 18.7428Z" fill="white"/>
</svg>
