<svg width="24" height="24" viewBox="0 0 24 24" fill="none" xmlns="http://www.w3.org/2000/svg">
<g clip-path="url(#clip0_6990_11345)">
<path d="M8.47505 15.525C6.52505 17.475 3.37505 17.475 1.45005 15.525C-0.499951 13.575 -0.499951 10.425 1.45005 8.50005C3.40005 6.55005 6.55005 6.55005 8.47505 8.50005C10.425 10.425 10.425 13.575 8.47505 15.525ZM15.525 8.47505C17.475 6.52505 17.475 3.37505 15.525 1.45005C13.575 -0.499951 10.425 -0.499951 8.50005 1.45005C6.55005 3.40005 6.55005 6.55005 8.50005 8.47505C10.425 10.425 13.575 10.425 15.525 8.47505V8.47505ZM8.47505 15.525C6.52505 17.475 6.52505 20.625 8.47505 22.55C10.425 24.5 13.575 24.5 15.5 22.55C17.45 20.6 17.45 17.45 15.5 15.525C13.575 13.575 10.425 13.575 8.47505 15.525ZM22.55 8.47505C20.6 6.52505 17.45 6.52505 15.525 8.47505C13.575 10.425 13.575 13.575 15.525 15.5C17.475 17.45 20.625 17.45 22.55 15.5C24.475 13.575 24.475 10.425 22.55 8.47505Z" fill="white"/>
</g>
<defs>
<clipPath id="clip0_6990_11345">
<rect width="24" height="24" fill="white"/>
</clipPath>
</defs>
</svg>
