<svg width="24" height="24" viewBox="0 0 24 24" fill="none" xmlns="http://www.w3.org/2000/svg">
<path fill-rule="evenodd" clip-rule="evenodd" d="M12 21C16.97 21 21 16.97 21 12C21 7.03 16.97 3 12 3C7.03 3 3 7.03 3 12C3 16.97 7.03 21 12 21ZM12.0001 3.5C14.2701 3.5 16.4051 4.385 18.0101 5.99C19.6151 7.595 20.5001 9.73 20.5001 12C20.5001 14.27 19.6151 16.405 18.0101 18.01C16.4051 19.615 14.2701 20.5 12.0001 20.5H11.8651C9.64512 20.465 7.56512 19.585 5.99012 18.01C4.38512 16.405 3.50012 14.27 3.50012 12C3.50012 9.73 4.38512 7.595 5.99512 5.99C7.56512 4.415 9.64512 3.535 11.8651 3.5H12.0001ZM7.51512 12.195H3.89512C3.93012 13.555 4.30012 14.835 4.92512 15.955H8.27512C7.79512 14.76 7.54012 13.5 7.51512 12.195ZM12.0601 4.1V7.65V7.655H14.8551C14.2101 6.295 13.2651 5.08 12.0601 4.1ZM15.8201 11.805C15.7951 10.49 15.5201 9.215 15.0301 8.045H12.0651V11.805H15.8201ZM8.87012 7.65H11.6701V4.095C10.4601 5.075 9.51012 6.29 8.87012 7.65ZM11.6701 11.805V8.045H8.70012C8.20512 9.215 7.93512 10.49 7.91012 11.805H11.6701ZM3.89512 11.8H7.51512C7.54012 10.495 7.79512 9.235 8.27512 8.04H4.92512C4.30012 9.16 3.93012 10.44 3.89512 11.8ZM11.6701 12.195H7.91012C7.93512 13.51 8.20512 14.78 8.70012 15.955H11.6701V12.195ZM11.6701 19.9V16.345H8.87512C9.51512 17.705 10.4601 18.92 11.6701 19.9ZM14.8551 16.345H12.0651V19.895C13.2701 18.915 14.2151 17.705 14.8551 16.345ZM12.0601 12.195V15.955H15.0251C15.5201 14.785 15.7901 13.51 15.8151 12.195H12.0601ZM20.1051 12.195H16.2101C16.1851 13.5 15.9301 14.76 15.4451 15.955H19.0751C19.7001 14.835 20.0701 13.555 20.1051 12.195ZM15.4501 8.04C15.9301 9.235 16.1851 10.495 16.2101 11.8H20.1101C20.0801 10.435 19.7051 9.155 19.0801 8.04H15.4501ZM15.2751 7.65H18.8401C17.4751 5.51 15.1301 4.045 12.4351 3.905C13.5151 4.815 14.4151 5.94 15.0551 7.195C15.1351 7.345 15.2051 7.495 15.2751 7.65ZM8.66012 7.195C9.29512 5.95 10.1851 4.83 11.2551 3.925C8.69512 4.16 6.47512 5.59 5.16012 7.65H8.44012C8.51012 7.49501 8.58511 7.34503 8.6601 7.19504L8.66012 7.195ZM8.44512 16.345H5.16012C6.47512 18.41 8.69512 19.84 11.2601 20.07C10.1901 19.165 9.30012 18.045 8.66512 16.8C8.58512 16.65 8.51512 16.5 8.44512 16.345ZM15.0601 16.8C14.4201 18.055 13.5201 19.185 12.4401 20.095C15.1301 19.95 17.4751 18.49 18.8451 16.345H15.2801C15.2101 16.5 15.1351 16.65 15.0601 16.8Z" fill="white"/>
<path d="M15.06 18.235L12 13.355L8.92 18.235L5.625 18.23L10.04 11.31H6.2V5.76001H17.8V11.31H13.96L18.39 18.23L15.06 18.235V18.235Z" fill="white"/>
<path d="M11.315 10.6101H6.9V9.24008H11.315V7.83008H6.9V6.46008H17.1V7.83008H12.685V9.24008H17.1V10.6101H12.685L17.115 17.5601H15.465L12 12.0401L8.53 17.5551H6.88L11.315 10.6101Z" fill="#EE2233"/>
</svg>
