<svg width="24" height="24" viewBox="0 0 24 24" fill="none" xmlns="http://www.w3.org/2000/svg">
<path fill-rule="evenodd" clip-rule="evenodd" d="M20.9689 12.69C20.9862 12.4623 20.995 12.2322 20.995 12C20.995 11.7678 20.9862 11.5377 20.9689 11.31H12.0175V9.92H20.7451C20.7501 9.92 20.7501 9.915 20.7501 9.915C20.6401 9.44 20.4901 8.985 20.3052 8.545L20.3002 8.54H12.0175V7.15H19.5654C19.5704 7.15 19.5754 7.145 19.5704 7.14C19.4413 6.93908 19.3046 6.7432 19.1603 6.55306C18.9519 6.27931 18.7282 6.01787 18.4905 5.77H18.4857H12.0175V4.385H16.7662C16.7712 4.385 16.7762 4.375 16.7712 4.375C15.3918 3.50831 13.7644 3.00384 12.0175 3.00002V3H11.9975L11.977 3.00002C10.6388 3.00301 9.36922 3.29831 8.22859 3.82546C8.2436 3.82006 8.25861 3.81256 8.27362 3.80505H8.57354L8.62353 3.65505C8.63848 3.64944 8.65413 3.64313 8.67021 3.63665C8.69715 3.62579 8.72532 3.61444 8.75349 3.60505L8.81847 3.80505H9.21336L8.89345 4.03505L9.01842 4.41505L8.6985 4.18005L8.37859 4.41505L8.49856 4.03505L8.21561 3.83147C7.87275 3.99059 7.54157 4.17068 7.22375 4.37008C6.59404 4.76516 6.01671 5.23606 5.50454 5.77C5.09983 6.19191 4.73582 6.65317 4.41881 7.14747C4.37337 7.21834 4.32888 7.28988 4.28539 7.36209L4.37471 7.64005H4.7696L4.44969 7.87005L4.57465 8.25005L4.25474 8.01505L3.92983 8.25005L4.05479 7.87005L4.01636 7.84122C3.46758 8.89267 3.12037 10.066 3.02606 11.31L3.02514 11.3223C3.02125 11.3744 3.01781 11.4267 3.01482 11.4791L3.0143 11.4883C3.00481 11.6577 3 11.8283 3 12C3 12.0414 3.00028 12.0828 3.00084 12.124C3.00121 12.1426 3.00176 12.1611 3.00255 12.1797C3.00378 12.2377 3.005 12.2957 3.005 12.355C3.01458 12.4604 3.01957 12.5704 3.02437 12.6762L3.02499 12.69L3.02999 12.69L12.0175 12.69L20.9689 12.69ZM4.12741 7.63505H4.12977L4.1358 7.61998C4.133 7.625 4.1302 7.63002 4.12741 7.63505ZM19.1607 17.4465C19.3048 17.2565 19.4414 17.0608 19.5704 16.86C19.5754 16.855 19.5704 16.85 19.5654 16.85H4.4246C4.42238 16.85 4.42016 16.851 4.41882 16.8525C4.73582 17.3468 5.09984 17.8081 5.50454 18.23H18.4857H18.4905C18.7283 17.982 18.9522 17.7204 19.1607 17.4465ZM3.24493 14.085C3.24493 14.085 3.24493 14.08 3.24993 14.08H20.7451C20.7501 14.08 20.7551 14.08 20.7501 14.085C20.6401 14.555 20.4901 15.015 20.3052 15.455C20.3052 15.46 20.3002 15.46 20.3002 15.46H3.69481L3.68981 15.455C3.50486 15.015 3.3549 14.56 3.24493 14.085ZM7.21883 19.625C7.21383 19.625 7.21883 19.615 7.22383 19.615H16.7712C16.7762 19.615 16.7762 19.625 16.7662 19.625C15.3816 20.49 13.747 20.995 11.9925 20.995C10.238 20.995 8.60344 20.495 7.21883 19.625ZM6.68406 11.67L7.00897 11.435H6.61408L6.48912 11.06L6.36415 11.435H5.96926L6.28917 11.67L6.16421 12.045L6.48912 11.815L6.80903 12.045L6.68406 11.67ZM7.48884 8.57005L7.61381 8.19505L7.72877 8.57005H8.12366L7.80375 8.80505L7.92872 9.18005L7.60881 8.95005L7.2889 9.18005L7.41386 8.80505L7.09395 8.57005H7.48884ZM7.57882 5.14005L7.2589 5.37505L7.37387 4.99505L7.05396 4.76505H7.44885L7.57382 4.38505L7.69878 4.76505H8.09367L7.77376 4.99505L7.89873 5.37505L7.57882 5.14005ZM6.49412 7.26005L6.61908 7.63505H7.00398L6.68406 7.86505L6.80903 8.24505L6.48912 8.01005L6.16921 8.24505L6.29417 7.86505L5.97426 7.63505H6.36915L6.49412 7.26005ZM6.45913 6.10505L6.13922 6.33505L6.25418 5.95505L5.93427 5.72505H6.32916L6.45413 5.35005L6.57909 5.72505H6.97398L6.65407 5.95505L6.77904 6.33505L6.45913 6.10505ZM5.24946 8.57005L5.37443 8.19505L5.49939 8.57005H5.88429L5.56438 8.80505L5.68934 9.18005L5.36943 8.95005L5.04952 9.18005L5.17448 8.80505L4.85457 8.57005H5.24946ZM6.38915 9.52505L6.51411 9.14505L6.62908 9.52505H7.02397L6.70406 9.75505L6.82902 10.135L6.50911 9.90005L6.1892 10.135L6.31417 9.75505L5.99426 9.52505H6.38915ZM3.17504 10.23L3.25502 10.48V10.475H3.64991L3.33 10.705L3.45496 11.085L3.13505 10.85L3.07007 10.9C3.07257 10.875 3.07632 10.8513 3.08007 10.8275C3.08381 10.8038 3.08756 10.78 3.09006 10.755C3.09006 10.7475 3.09131 10.74 3.09256 10.7325C3.09381 10.725 3.09506 10.7175 3.09506 10.71C3.09551 10.706 3.09596 10.7019 3.09642 10.6978C3.101 10.6561 3.10596 10.611 3.11506 10.57C3.11506 10.565 3.11631 10.56 3.11756 10.555C3.1188 10.55 3.12005 10.545 3.12005 10.54C3.13297 10.4496 3.1496 10.3629 3.16674 10.2734C3.1695 10.2591 3.17227 10.2446 3.17504 10.23ZM7.60881 6.30505L7.73377 6.68505V6.69005H8.12366L7.80375 6.92005L7.92872 7.30005L7.60381 7.06505L7.2839 7.30005L7.40886 6.91505L7.08895 6.68505H7.48384L7.60881 6.30505ZM5.36943 7.06505L5.04452 7.30005L5.16949 6.91505L4.84957 6.68505H5.24946L5.36443 6.31005L5.4894 6.69005H5.88429L5.56438 6.92005L5.68934 7.30005L5.36943 7.06505ZM8.62852 9.52505L8.75349 9.14505L8.86846 9.52505H9.26335L8.94344 9.75505L9.0684 10.135L8.74849 9.90005L8.42858 10.135L8.55354 9.75505L8.23363 9.52505H8.62852ZM8.7235 11.06L8.84846 11.435H9.23836L8.91345 11.67L9.03841 12.045L8.7185 11.815L8.39859 12.045L8.52355 11.67L8.20364 11.435H8.59853L8.7235 11.06ZM8.7335 7.26005L8.85846 7.63505H9.24335L8.92344 7.86505L9.04841 8.24505L8.7285 8.01005L8.40859 8.24505L8.53355 7.86505L8.21364 7.63505H8.60853L8.7335 7.26005ZM7.60881 10.1L7.73377 10.48H8.12366L7.80375 10.71L7.92872 11.09L7.60381 10.855L7.2839 11.09L7.40886 10.71L7.08895 10.48H7.48384L7.60881 10.1ZM8.6985 6.10505L8.37859 6.33505L8.49356 5.95505L8.17365 5.72505H8.56854L8.69351 5.35005L8.81847 5.72505H9.21336L8.89345 5.95505L9.01842 6.33505L8.6985 6.10505ZM10.9679 7.26005L11.0928 7.63505H11.4777L11.1578 7.86505L11.2828 8.24505L10.9629 8.01005L10.643 8.24505L10.7679 7.86505L10.448 7.63505H10.8429L10.9679 7.26005ZM10.9629 11.06L11.0878 11.435H11.4727L11.1528 11.67L11.2778 12.045L10.9579 11.815L10.638 12.045L10.7629 11.67L10.443 11.435H10.8379L10.9629 11.06ZM10.9379 4.18005L10.618 4.41505L10.7329 4.03505L10.413 3.80505H10.8079L10.9329 3.42505L11.0578 3.80505H11.4527L11.1328 4.03505L11.2578 4.41505L10.9379 4.18005ZM9.81819 5.14005L9.49828 5.37505L9.61825 4.99505L9.29834 4.76505H9.68823L9.8132 4.38505L9.93816 4.76505H10.3331L10.0131 4.99505L10.1381 5.37505L9.81819 5.14005ZM10.9379 6.10505L10.618 6.33505L10.7329 5.95505L10.413 5.72505H10.8079L10.9329 5.35005L11.0578 5.72505H11.4527L11.1328 5.95505L11.2578 6.33505L10.9379 6.10505ZM9.84319 6.30505L9.96815 6.68505H10.358L10.0331 6.91505L10.1581 7.29505L9.83819 7.06005L9.51828 7.29505L9.64324 6.91505L9.32333 6.68505H9.71822L9.84319 6.30505ZM10.9929 9.14505L11.1178 9.52505H11.5027L11.1828 9.75505L11.3078 10.135L10.9879 9.90005L10.668 10.135L10.7929 9.75505L10.473 9.52505H10.8679L10.9929 9.14505ZM4.14977 9.52505L4.27473 9.14505L4.3997 9.52505H4.78459L4.46468 9.75505L4.58965 10.135L4.26974 9.90005L3.94982 10.135L4.07479 9.75505L3.75488 9.52505H4.14977ZM4.24974 11.06L4.37471 11.435H4.7646L4.44469 11.67L4.56965 12.045L4.24974 11.815L3.92483 12.045L4.0498 11.67L3.72489 11.435H4.12478L4.24974 11.06ZM3.45496 9.17505V9.17005L3.45996 9.18005L3.45496 9.17505ZM9.72822 8.57005L9.85319 8.19505L9.96815 8.57005H10.363L10.0431 8.80505L10.1681 9.18005L9.84819 8.95005L9.52828 9.18005L9.65324 8.80505L9.33333 8.57005H9.72822ZM5.36943 10.1L5.4944 10.48H5.87929L5.55938 10.71L5.68434 11.09L5.36443 10.855L5.03952 11.09L5.16449 10.71L4.84458 10.48H5.24446L5.36943 10.1ZM9.84319 10.1L9.96815 10.48H10.358L10.0331 10.71L10.1581 11.09L9.83819 10.855L9.51828 11.09L9.64324 10.71L9.32333 10.48H9.71822L9.84319 10.1Z" fill="white"/>
<path d="M15.0566 18.235L11.9975 13.36L8.91835 18.235L5.62427 18.23L10.038 11.31H6.19911V5.76001H17.7959V11.31H13.957L18.3907 18.23L15.0566 18.235Z" fill="white"/>
<path d="M6.87891 17.56H8.52845L11.9975 12.045L15.4665 17.56H17.1161L12.6823 10.61H17.0961V9.23996H12.6823V7.82996H17.0961V6.45996H6.8989V7.82996H11.3127V9.23996H6.8989V10.61H11.3127L6.87891 17.56Z" fill="#EE2233"/>
</svg>
