<svg width="24" height="24" viewBox="0 0 24 24" fill="none" xmlns="http://www.w3.org/2000/svg">
<path fill-rule="evenodd" clip-rule="evenodd" d="M4.54237 15.1493C10.3729 7.6561 12 4 12 4L4.54237 15.1493ZM12.0126 4.01883C12.0055 4.00627 12.0014 4 12 4L12.0126 4.01883ZM12.0126 4.01883C12.0255 4.0417 12.048 4.08541 12.0812 4.15003C12.471 4.90676 14.3383 8.53164 19.4576 15.1493L12.0126 4.01883ZM12 6.8959C12 6.8959 10.6102 10.0091 3.9322 16.3801L12 6.8959ZM3.28814 17.5385C10.8475 13.8099 12 9.75568 12 9.75568L3.28814 17.5385ZM12 9.75568C12 9.75568 13.1525 13.8099 20.7119 17.5385L12 9.75568ZM12 12.6516C12 12.6516 11.0509 16.9231 2.64406 18.7692L12 12.6516ZM2 20C11.2881 20 12 15.5475 12 15.5475C12 15.5475 12.7119 20 22 20L12 15.5475L2 20ZM12 6.8959C12 6.8959 13.3898 10.0091 20.0678 16.3801L12 6.8959ZM12 12.6516C12 12.6516 12.9491 16.9231 21.3559 18.7692L12 12.6516Z" fill="white"/>
</svg>
