<svg width="24" height="24" viewBox="0 0 24 24" fill="none" xmlns="http://www.w3.org/2000/svg">
<path fill-rule="evenodd" clip-rule="evenodd" d="M8.3983 19.423C11.6051 15.4423 12.5 13.5 12.5 13.5L8.3983 19.423ZM12.507 13.51C12.5031 13.5034 12.5008 13.5 12.5 13.5L12.507 13.51ZM12.507 13.51C12.514 13.5222 12.5264 13.5454 12.5447 13.5797C12.7591 13.9817 13.786 15.9074 16.6017 19.423L12.507 13.51ZM12.5 15.0385C12.5 15.0385 11.7356 16.6923 8.0627 20.0769L12.5 15.0385ZM7.7085 20.6923C11.8661 18.7116 12.5 16.5577 12.5 16.5577L7.7085 20.6923ZM12.5 16.5577C12.5 16.5577 13.1339 18.7116 17.2915 20.6923L12.5 16.5577ZM12.5 18.0961C12.5 18.0961 11.978 20.3654 7.35425 21.3461L12.5 18.0961ZM7 22C12.1084 22 12.5 19.6346 12.5 19.6346C12.5 19.6346 12.8916 22 18 22L12.5 19.6346L7 22ZM12.5 15.0385C12.5 15.0385 13.2644 16.6923 16.9373 20.0769L12.5 15.0385ZM12.5 18.0961C12.5 18.0961 13.022 20.3654 17.6458 21.3461L12.5 18.0961Z" fill="white"/>
<path d="M19.0063 2.56109C18.7506 2.35714 18.4456 2.07857 17.8897 2.00893C17.3683 1.93929 16.8371 2.29247 16.478 2.52627C16.1189 2.76007 15.4401 3.44654 15.1597 3.65547C14.8794 3.86439 14.1612 4.05839 13.0052 4.75979C11.8493 5.4612 7.31395 8.40605 7.31395 8.40605L8.4945 8.42095L3.23119 11.1619H3.75752L3 11.7439C3 11.7439 3.66898 11.9229 4.22974 11.5648V11.7289C4.22974 11.7289 10.4966 9.2318 11.7066 9.8785L10.9688 10.0973C11.0327 10.0973 12.2231 10.1769 12.2231 10.1769C12.252 10.4262 12.3348 10.666 12.4657 10.8792C12.5967 11.0924 12.7725 11.2739 12.9806 11.4106C13.6988 11.8881 13.7135 12.1518 13.7135 12.1518C13.7135 12.1518 13.3397 12.306 13.3397 12.5C13.3397 12.5 13.8906 12.3308 14.4022 12.3458C14.7269 12.3582 15.0489 12.41 15.3614 12.5C15.3614 12.5 15.322 12.291 14.8252 12.1518C14.3284 12.0125 13.8365 11.4653 13.5955 11.1668C13.4478 10.9768 13.3516 10.7513 13.3162 10.5123C13.2809 10.2734 13.3076 10.0292 13.3938 9.80385C13.5659 9.3512 14.1661 9.10245 15.4057 8.4558C16.8666 7.68975 17.2011 7.12265 17.4077 6.6799C17.6143 6.2372 17.9192 5.3567 18.0914 4.94384C18.3078 4.41158 18.5735 4.12804 18.7948 3.95891C19.0162 3.78977 20 3.41669 20 3.41669C20 3.41669 19.2474 2.75509 19.0063 2.56109Z" fill="white"/>
</svg>
