<svg width="24" height="24" viewBox="0 0 24 24" fill="none" xmlns="http://www.w3.org/2000/svg">
<path d="M12.0002 6.19515C14.1183 6.19515 15.8353 5.25603 15.8353 4.09757C15.8353 2.93912 14.1183 2 12.0002 2C9.8821 2 8.16505 2.93912 8.16505 4.09757C8.16505 5.25603 9.8821 6.19515 12.0002 6.19515Z" fill="white"/>
<path d="M12.0002 22C14.1183 22 15.8353 21.0609 15.8353 19.9024C15.8353 18.744 14.1183 17.8049 12.0002 17.8049C9.8821 17.8049 8.16505 18.744 8.16505 19.9024C8.16505 21.0609 9.8821 22 12.0002 22Z" fill="white"/>
<path d="M6.65566 9.09869C7.7147 7.37374 7.70783 5.50551 6.64031 4.92589C5.57278 4.34627 3.84886 5.27474 2.78981 6.9997C1.73076 8.72465 1.73764 10.5929 2.80516 11.1725C3.87269 11.7521 5.59661 10.8236 6.65566 9.09869Z" fill="white"/>
<path d="M21.2089 17.0002C22.268 15.2752 22.2617 13.4073 21.1949 12.8281C20.1281 12.2489 18.4047 13.1777 17.3457 14.9026C16.2866 16.6275 16.2929 18.4954 17.3597 19.0747C18.4265 19.6539 20.1499 18.7251 21.2089 17.0002Z" fill="white"/>
<path d="M6.64085 19.0742C7.70837 18.4946 7.71524 16.6264 6.6562 14.9014C5.59715 13.1765 3.87323 12.248 2.8057 12.8276C1.73818 13.4072 1.73131 15.2755 2.79035 17.0004C3.8494 18.7254 5.57332 19.6538 6.64085 19.0742Z" fill="white"/>
<path d="M21.1958 11.173C22.2626 10.5937 22.2689 8.72582 21.2098 7.00087C20.1508 5.27592 18.4274 4.34713 17.3606 4.92636C16.2938 5.50559 16.2875 7.3735 17.3466 9.09845C18.4056 10.8234 20.129 11.7522 21.1958 11.173Z" fill="white"/>
<path fill-rule="evenodd" clip-rule="evenodd" d="M12.0119 16C11.9598 15.9995 11.8401 15.9425 11.7459 15.8732C11.6517 15.804 11.5099 15.6653 11.4307 15.565C11.3515 15.4647 11.2445 15.2933 11.1929 15.1841C11.1414 15.0749 11.0805 14.8651 11.0576 14.7178C11.027 14.5205 11.0265 14.3792 11.0559 14.1809C11.0815 14.0083 11.143 13.8162 11.2273 13.6454C11.3041 13.4896 11.437 13.2999 11.5471 13.1885C11.6507 13.0838 11.7968 12.9658 11.8718 12.9263C12.0069 12.8552 12.0092 12.8552 12.1391 12.9253C12.2112 12.9641 12.3583 13.0842 12.4661 13.1922C12.585 13.3113 12.7136 13.4928 12.7932 13.654C12.8798 13.8296 12.9377 14.0135 12.9641 14.1965C12.9941 14.405 12.993 14.5385 12.9597 14.7368C12.9354 14.8816 12.8677 15.0984 12.8092 15.2185C12.7508 15.3386 12.6429 15.5071 12.5695 15.5929C12.4961 15.6788 12.3619 15.8057 12.2714 15.875C12.1789 15.9457 12.0651 16.0005 12.0119 16ZM12.0377 15.6197C12.0714 15.607 12.1592 15.5378 12.2328 15.4661C12.3065 15.3944 12.4157 15.2437 12.4755 15.1313C12.5354 15.0189 12.6035 14.8163 12.6271 14.6811C12.6584 14.5008 12.6595 14.3762 12.631 14.2142C12.6096 14.0927 12.5533 13.9087 12.5059 13.8052C12.4585 13.7018 12.3401 13.5387 12.2427 13.4428C12.1382 13.3399 12.039 13.2727 12.0005 13.279C11.9647 13.2849 11.8593 13.3634 11.7663 13.4534C11.6732 13.5435 11.5547 13.7073 11.5028 13.8174C11.4179 13.9975 11.4085 14.0604 11.4085 14.4459C11.4085 14.8603 11.4124 14.8819 11.5296 15.1082C11.5962 15.2368 11.724 15.4098 11.8136 15.4925C11.9239 15.5944 11.9963 15.6354 12.0377 15.6197ZM10.0439 14.2513C9.93175 14.2528 9.82279 14.2347 9.79855 14.2104C9.77431 14.1861 9.75617 14.077 9.75771 13.9647C9.75923 13.8537 9.77967 13.7106 9.80314 13.6469C9.8266 13.5832 9.89585 13.4603 9.95703 13.3739C10.0235 13.2801 10.1458 13.1748 10.261 13.1123C10.392 13.0412 10.5258 13.0019 10.6788 12.9896C10.8636 12.9747 10.9156 12.9833 10.9698 13.0375C11.0237 13.0916 11.0322 13.1423 11.0164 13.3169C11.0052 13.4407 10.9556 13.6152 10.8983 13.7325C10.8314 13.8695 10.7476 13.9714 10.6383 14.0488C10.5496 14.1117 10.4249 14.1823 10.3613 14.2058C10.2976 14.2293 10.1548 14.2498 10.0439 14.2513ZM13.9723 14.2513C13.8614 14.2498 13.7185 14.2293 13.6549 14.2058C13.5913 14.1823 13.4686 14.113 13.3823 14.0517C13.2886 13.9852 13.1834 13.8626 13.121 13.7473C13.05 13.6161 13.0108 13.4821 12.9985 13.3289C12.9837 13.1438 12.9922 13.0917 13.0464 13.0375C13.1005 12.9833 13.1526 12.9747 13.3374 12.9896C13.4895 13.0018 13.6236 13.041 13.751 13.1104C13.8547 13.1669 13.9876 13.2739 14.0463 13.3482C14.105 13.4225 14.1774 13.5523 14.2072 13.6367C14.2369 13.7211 14.2612 13.8748 14.2612 13.9784C14.2612 14.082 14.2416 14.1864 14.2176 14.2104C14.1934 14.2347 14.0844 14.2528 13.9723 14.2513ZM9.51873 12.9771C9.43878 12.9755 9.28292 12.9547 9.17238 12.9309C9.06184 12.907 8.87881 12.8421 8.76564 12.7867C8.65248 12.7313 8.47851 12.6126 8.37904 12.5231C8.27957 12.4335 8.149 12.2859 8.08888 12.195C7.9916 12.0479 7.98395 12.0171 8.01937 11.9153C8.04126 11.8524 8.16777 11.6922 8.30048 11.5593C8.45471 11.4049 8.62626 11.2765 8.77587 11.2036C8.90462 11.1408 9.12901 11.0703 9.27452 11.0468C9.47336 11.0147 9.61086 11.0143 9.82797 11.045C9.99703 11.069 10.1963 11.1259 10.3084 11.1824C10.4137 11.2354 10.5756 11.334 10.668 11.4015C10.7604 11.4689 10.9052 11.6158 10.9896 11.7278C11.0966 11.8697 11.1383 11.9569 11.1271 12.0156C11.1182 12.0619 11.0503 12.1826 10.9761 12.2838C10.9018 12.3851 10.7782 12.5178 10.7013 12.5788C10.6244 12.6398 10.4559 12.7392 10.3267 12.7997C10.1976 12.8602 9.9957 12.9255 9.87803 12.9448C9.76037 12.9641 9.59868 12.9786 9.51873 12.9771ZM14.5654 12.9589C14.4081 12.9684 14.1985 12.9617 14.0996 12.9439C14.0007 12.9261 13.7993 12.8519 13.6521 12.779C13.4914 12.6995 13.3089 12.5707 13.1959 12.4571C13.0922 12.353 12.9751 12.207 12.9356 12.1328C12.8643 11.9989 12.8643 11.9966 12.9343 11.8665C12.9731 11.7943 13.0931 11.647 13.2008 11.539C13.319 11.4207 13.501 11.2912 13.6593 11.2129C13.8195 11.1336 14.0234 11.0672 14.1825 11.0426C14.3779 11.0123 14.5139 11.013 14.7248 11.0453C14.8922 11.071 15.1019 11.1351 15.2424 11.2036C15.3938 11.2774 15.5659 11.4058 15.7218 11.5613C15.8555 11.6947 15.9758 11.8475 15.9892 11.9008C16.0025 11.9541 16.0037 12.0367 15.9918 12.0843C15.9798 12.1319 15.8923 12.2575 15.7972 12.3634C15.7022 12.4693 15.5359 12.6126 15.4277 12.6819C15.3196 12.7512 15.1457 12.8379 15.0412 12.8747C14.9368 12.9114 14.7227 12.9493 14.5654 12.9589ZM12.8125 11.9977C12.7786 12.1045 12.7162 12.1576 12.6519 12.1845C12.5876 12.2115 12.4682 12.2323 12.3866 12.2306C12.2382 12.2276 12.2382 12.2276 12.2381 12.3765C12.2379 12.4584 12.2103 12.5786 12.1766 12.6437C12.1279 12.7376 12.0926 12.762 12.0051 12.762C11.9091 12.762 11.8854 12.7404 11.8207 12.5938C11.774 12.4882 11.7541 12.387 11.7671 12.322C11.7866 12.224 11.782 12.2195 11.6831 12.2393C11.6256 12.2508 11.5196 12.2408 11.4477 12.217C11.3758 12.1933 11.2926 12.1494 11.2628 12.1196C11.233 12.0897 11.2086 12.0247 11.2086 11.9752C11.2086 11.9044 11.2418 11.8699 11.363 11.8148C11.448 11.7762 11.5706 11.7442 11.6356 11.7438C11.7398 11.7431 11.7538 11.7312 11.7545 11.6429C11.7549 11.5879 11.7868 11.4732 11.8254 11.3882C11.8854 11.2558 11.9113 11.2335 12.0054 11.2335C12.0903 11.2335 12.1278 11.2579 12.1707 11.3409C12.2012 11.3999 12.2261 11.5186 12.2261 11.6047C12.2261 11.7612 12.2261 11.7612 12.3806 11.7616C12.4655 11.7618 12.5876 11.7841 12.6519 11.811C12.7162 11.8379 12.7786 11.891 12.7907 11.9289L12.8125 11.9977ZM9.6106 12.6072C9.95797 12.599 10.0149 12.5875 10.2284 12.482C10.3578 12.418 10.5284 12.2991 10.6077 12.2177C10.6869 12.1363 10.7517 12.0373 10.7517 11.9977C10.7517 11.9582 10.6887 11.8612 10.6117 11.7822C10.5346 11.7032 10.3798 11.5895 10.2675 11.5296C10.1553 11.4697 9.95712 11.4021 9.82712 11.3795C9.65847 11.3501 9.52384 11.349 9.35712 11.3759C9.22861 11.3967 9.03479 11.4571 8.92641 11.5102C8.81803 11.5633 8.66166 11.6785 8.57893 11.7663C8.49619 11.854 8.42317 11.9504 8.41665 11.9805C8.41013 12.0106 8.44929 12.0882 8.50367 12.1529C8.55806 12.2177 8.66607 12.3175 8.74369 12.3747C8.82132 12.4319 8.96205 12.5096 9.05642 12.5474C9.19343 12.6023 9.30508 12.6144 9.6106 12.6072ZM14.4974 12.6066C14.8735 12.597 14.9108 12.589 15.1271 12.4725C15.2535 12.4043 15.413 12.2831 15.4814 12.203C15.5498 12.1229 15.6058 12.0215 15.6058 11.9776C15.6058 11.9299 15.5414 11.8383 15.4456 11.7499C15.3574 11.6685 15.2002 11.5588 15.0963 11.506C14.9923 11.4533 14.808 11.3941 14.6868 11.3745C14.5414 11.3511 14.3862 11.3515 14.231 11.3757C14.1016 11.3959 13.9091 11.4548 13.8032 11.5067C13.6974 11.5585 13.5364 11.6765 13.4454 11.7689C13.3544 11.8613 13.2807 11.9629 13.2815 11.9946C13.2823 12.0264 13.3273 12.1026 13.3814 12.164C13.4356 12.2254 13.5403 12.3208 13.6141 12.376C13.6879 12.4311 13.8269 12.5079 13.923 12.5466C14.066 12.6041 14.1703 12.615 14.4974 12.6066ZM12.027 11.1153C11.9777 11.1247 11.8796 11.0768 11.753 10.9815C11.6445 10.8999 11.5 10.7635 11.4318 10.6785C11.3636 10.5934 11.2595 10.4215 11.2003 10.2964C11.1411 10.1713 11.075 9.95423 11.0533 9.814C11.0241 9.62501 11.0251 9.48709 11.0571 9.28096C11.0823 9.1185 11.1472 8.90744 11.2131 8.77334C11.2752 8.6471 11.3816 8.47868 11.4496 8.39908C11.5177 8.31948 11.6407 8.20092 11.7231 8.13561C11.8054 8.0703 11.9183 8.01018 11.9739 8.002C12.0444 7.99165 12.1244 8.0211 12.2375 8.09906C12.3269 8.16062 12.4677 8.28808 12.5505 8.3823C12.6334 8.47651 12.7495 8.65517 12.8087 8.7793C12.8678 8.90343 12.9356 9.12966 12.9592 9.28202C12.9909 9.48613 12.992 9.62548 12.9632 9.81149C12.9418 9.95033 12.8809 10.1587 12.8279 10.2745C12.775 10.3904 12.6671 10.5707 12.5882 10.6754C12.5093 10.78 12.3681 10.9185 12.2743 10.9831C12.1806 11.0477 12.0693 11.1072 12.027 11.1153ZM10.7426 11.0135C10.6491 11.0127 10.5135 10.9908 10.4411 10.9649C10.3688 10.939 10.2499 10.8809 10.1769 10.8357C10.1039 10.7905 10.0039 10.7007 9.95475 10.6362C9.90561 10.5716 9.84054 10.4483 9.81017 10.3621C9.7798 10.2759 9.75494 10.1206 9.75494 10.017C9.75494 9.91348 9.77457 9.80909 9.79855 9.78507C9.82279 9.76079 9.93175 9.74263 10.0439 9.74416C10.1548 9.74569 10.2976 9.76616 10.3613 9.78966C10.4249 9.81315 10.5496 9.88379 10.6383 9.94663C10.7476 10.0241 10.8314 10.126 10.8983 10.263C10.9556 10.3803 11.0052 10.5547 11.0164 10.6785C11.0318 10.8485 11.0232 10.9045 10.9742 10.9535C10.9333 10.9945 10.8556 11.0146 10.7426 11.0135ZM13.3373 11.0048C13.18 11.0167 13.0965 11.0064 13.0471 10.9691C12.9865 10.9233 12.9806 10.8861 13.0005 10.6728C13.0159 10.5081 13.0561 10.3681 13.1244 10.242C13.1836 10.1325 13.2904 10.009 13.3823 9.94376C13.4686 9.8825 13.5913 9.81315 13.6549 9.78966C13.7185 9.76616 13.8614 9.74569 13.9723 9.74416C14.0844 9.74263 14.1934 9.76079 14.2176 9.78507C14.2416 9.80909 14.2612 9.91262 14.2612 10.0151C14.2612 10.1177 14.2341 10.2811 14.201 10.3784C14.1657 10.4822 14.0794 10.6168 13.9921 10.7041C13.9102 10.7859 13.7791 10.8833 13.7007 10.9205C13.6223 10.9577 13.4588 10.9956 13.3373 11.0048ZM12.0377 10.7431C12.0714 10.7304 12.1592 10.6612 12.2328 10.5895C12.3065 10.5178 12.4157 10.3671 12.4755 10.2547C12.5354 10.1423 12.6035 9.93971 12.6271 9.80446C12.6584 9.62417 12.6595 9.49962 12.631 9.33763C12.6096 9.21611 12.5518 9.02846 12.5025 8.92063C12.4532 8.8128 12.3366 8.65039 12.2435 8.55972C12.1503 8.46906 12.0458 8.39488 12.0112 8.39488C11.9767 8.39488 11.8744 8.46588 11.784 8.55266C11.6935 8.63944 11.572 8.8073 11.514 8.92568C11.4157 9.12624 11.4085 9.17015 11.4085 9.5693C11.4085 9.98372 11.4318 10.0016 11.5296 10.2316C11.5962 10.3603 11.724 10.5332 11.8136 10.6159C11.9239 10.7178 11.9963 10.7588 12.0377 10.7431Z" fill="white"/>
</svg>
