<svg width="24" height="24" viewBox="0 0 24 24" fill="none" xmlns="http://www.w3.org/2000/svg">
<path fill-rule="evenodd" clip-rule="evenodd" d="M18.3894 6.52886L20.1628 6.29219L21.1682 8.17602L20.0429 9.50629C20.1797 9.9157 20.2874 10.3351 20.3653 10.7611L22.0001 11.3787L21.9691 13.5362L20.3569 14.1006C20.2786 14.5255 20.1708 14.944 20.0345 15.3526L21.1566 16.7443L20.0983 18.5971L18.4346 18.2431C18.1629 18.5708 17.8685 18.877 17.5537 19.1594L17.8593 20.9488L16.0569 22L15.2064 21.2131V17.8049C15.9452 17.3246 16.5766 16.684 17.058 15.9263C17.5393 15.1686 17.8591 14.3116 17.996 13.4133C18.1328 12.5151 18.0833 11.5966 17.8509 10.7201C17.6185 9.84355 17.2086 9.02951 16.6489 8.33312L18.3901 6.52954L18.3894 6.52886ZM7.29767 8.40393C6.75257 9.10275 6.35618 9.91501 6.13491 10.7866C5.91364 11.6582 5.87257 12.569 6.01444 13.4585C6.15631 14.348 6.47786 15.1956 6.95766 15.9449C7.43746 16.6943 8.0645 17.3281 8.79699 17.8042V21.1578L7.85999 21.9831L6.08789 20.8767L6.4258 19.1378C6.11242 18.854 5.81951 18.5464 5.54943 18.2175L3.8373 18.5371L2.83194 16.6526L3.95723 15.3223C3.82038 14.9127 3.71261 14.4931 3.6348 14.0669L2.00006 13.4493L2.03037 11.2917L3.64254 10.7273C3.72085 10.3024 3.82861 9.88392 3.96498 9.47529L2.84355 8.08366L3.90114 6.23083L5.55329 6.58211L7.29767 8.40393Z" fill="white"/>
<path fill-rule="evenodd" clip-rule="evenodd" d="M6.17618 3.92091L7.97859 2.86975L9.25028 4.04632C9.64205 3.9032 10.0434 3.79052 10.451 3.7092L11.0417 2L13.1053 2.03169L13.6444 3.71729C14.0509 3.7993 14.4511 3.91197 14.8419 4.05441L16.1723 2.88189L17.9438 3.98834L17.6059 5.72719C17.728 5.83731 17.847 5.95171 17.9631 6.07038L16.2362 7.876C15.9448 7.58349 15.6264 7.32196 15.2856 7.09524L14.279 6.42503V12.7568L13.1556 13.4351L12.0322 14.1134L10.9089 13.4351L9.78551 12.7568V6.42503L8.77887 7.09524C8.41298 7.34012 8.07315 7.62513 7.76514 7.94544L6.03882 6.1405C6.18069 5.99352 6.32837 5.85103 6.48185 5.71303L6.17618 3.92091Z" fill="white"/>
</svg>
