<svg width="24" height="24" viewBox="0 0 24 24" fill="none" xmlns="http://www.w3.org/2000/svg">
<path d="M18.6062 5.63352C18.6062 7.15592 17.7042 8.45938 16.425 9C15.5333 7.41004 15.0375 6.19221 14.9929 6.08113C14.9737 6.03439 14.9296 6.00384 14.8801 6.00384H11.6244C11.6124 5.88209 11.6062 5.75852 11.6062 5.63355C11.6062 3.627 13.1734 2 15.1062 2C17.039 1.99997 18.6062 3.62697 18.6062 5.63352Z" fill="white"/>
<path d="M21.3907 13.5743C21.3585 13.5539 21.3268 13.5321 21.2949 13.5103C20.4798 12.9549 19.7335 12.2993 19.0612 11.6059C19.0591 11.6037 19.0567 11.6012 19.0544 11.599C18.9015 11.4414 18.7525 11.2815 18.607 11.1206C18.6041 11.1173 18.6017 11.1145 18.6002 11.1129C18.5996 11.1121 18.5988 11.1112 18.5982 11.1104C18.4146 10.9064 18.2372 10.7007 18.0663 10.4948C18.0657 10.494 18.0651 10.4932 18.0642 10.4929C17.3632 9.64685 16.7695 8.79472 16.2908 8.03867C16.2731 8.01078 16.2553 7.98263 16.2379 7.95503C15.3917 6.60576 14.9213 5.58167 14.8782 5.48645C14.8589 5.4456 14.8155 5.41882 14.7667 5.41882H9.12074C9.07254 5.41882 9.02939 5.4456 9.01075 5.48673C8.93713 5.65069 7.61287 8.57143 5.29221 11.1631C5.18105 11.2871 5.06808 11.4099 4.95279 11.5319C4.94983 11.5352 4.94657 11.5385 4.94334 11.5419C4.32748 12.1916 3.64804 12.8102 2.90889 13.3469C2.86424 13.3789 2.8193 13.4109 2.77436 13.4426C2.77377 13.4432 2.77317 13.4435 2.77289 13.4437C2.71019 13.4879 2.64723 13.5315 2.58365 13.5743C2.56414 13.5875 2.54522 13.6005 2.5257 13.6135L2.53072 13.6199C2.35865 13.7424 2.18154 13.863 2 13.9795L7.85587 19.4467L9.57365 21.0507L9.60321 21.0783C10.1523 21.5909 10.8571 21.9048 11.6185 21.981C11.6457 21.9837 11.6731 21.9862 11.7 21.9884H11.7018C11.7204 21.9901 11.7394 21.9917 11.758 21.9926C11.776 21.9942 11.794 21.9948 11.8124 21.9956C11.8343 21.997 11.8564 21.9981 11.8783 21.9984C11.8949 21.9992 11.9108 21.9997 11.9274 21.9997C11.9469 22 11.9667 22 11.9868 22C12.2207 22 12.4501 21.9779 12.6737 21.9348C13.3126 21.8123 13.8995 21.5186 14.371 21.0783L20.5042 15.3522L22 13.9557C21.7922 13.8329 21.5896 13.7037 21.3942 13.5709L21.3907 13.5743Z" fill="white" fill-opacity="0.64"/>
<path d="M17.3589 9.94772L14.9721 7.53916C14.9704 7.53758 14.9683 7.53561 14.9628 7.53718C14.9573 7.53916 14.9573 7.54192 14.9573 7.5447V8.64305C14.9573 8.73001 14.901 8.80667 14.8138 8.8383C14.7266 8.86952 14.6301 8.84819 14.5674 8.78376L13.918 8.11701C13.9163 8.11543 13.9146 8.11345 13.9095 8.11463C13.9045 8.11621 13.904 8.11899 13.9036 8.12096L13.6987 9.29836C13.6831 9.39005 13.606 9.46001 13.5078 9.47265C13.4096 9.4849 13.3156 9.43668 13.2737 9.3525L12.3923 7.56327C12.3911 7.5609 12.3893 7.55892 12.3843 7.55892C12.3788 7.55932 12.3775 7.5617 12.3767 7.56445L12.1667 8.17667C12.165 8.18221 12.1629 8.18734 12.1603 8.19247C12.1586 8.19643 12.1569 8.20038 12.1548 8.20394C12.1518 8.21027 12.1485 8.21619 12.1447 8.22212C12.1375 8.23359 12.129 8.24465 12.1193 8.25414L12.1176 8.25612C12.1125 8.26125 12.107 8.26639 12.1015 8.27074C12.0951 8.27627 12.0879 8.28141 12.0808 8.28576C12.0753 8.28932 12.0698 8.29247 12.0638 8.29565L12.0621 8.29683C12.0558 8.29961 12.0494 8.30236 12.0431 8.30512L12.041 8.30592L12.0718 8.16561L12.0579 5.62109H14.7972C14.9157 5.87443 15.2917 6.85818 16.0821 8.10947C16.3298 8.50194 16.6087 8.9209 16.9178 9.3517C17.0583 9.54814 17.2056 9.74732 17.3589 9.94772Z" fill="white"/>
<path d="M12.0719 8.16559L12.041 8.3059C12.041 8.3059 12.041 8.3063 12.0406 8.3059C12.0342 8.30867 12.0279 8.31063 12.0215 8.31261C12.0156 8.31459 12.0097 8.31576 12.0038 8.31696C11.9889 8.32052 11.9737 8.3221 11.9576 8.3225C11.8585 8.32368 11.7751 8.26994 11.7421 8.18376L11.5368 7.65099C11.5355 7.64783 11.5347 7.64545 11.5283 7.64625C11.5224 7.64665 11.5216 7.64903 11.5207 7.65219L11.1207 9.3011C11.0974 9.39754 11.0076 9.46432 10.9022 9.46432H10.8993C10.7922 9.46274 10.7029 9.39397 10.6821 9.29594L10.3798 7.88614C10.3794 7.88416 10.379 7.88141 10.3739 7.88021C10.3688 7.87863 10.3671 7.88139 10.3654 7.88299L9.60936 8.71694C9.54883 8.78334 9.454 8.80548 9.36762 8.77345C9.28084 8.74183 9.2275 8.66516 9.23257 8.57861C9.23806 8.4711 9.23342 8.33396 9.2279 8.1889C9.22324 8.0565 9.21774 7.9071 9.21986 7.7585C9.21986 7.75572 9.21986 7.75336 9.21519 7.75179C9.20969 7.74981 9.20715 7.75179 9.20503 7.75376C8.62083 8.31659 7.18065 9.3671 6.77594 9.65999C6.84789 9.56157 6.91861 9.46317 6.98718 9.36594C8.27074 7.55576 9.03232 5.95507 9.18556 5.62109H12.0579L12.0719 8.16559Z" fill="white"/>
<path d="M12.8952 13.4156C12.8952 13.5633 12.8736 13.712 12.8295 13.8569L12.7429 14.1421C12.4123 15.2299 11.832 16.2377 11.042 17.0951C10.8974 17.2522 10.8217 17.449 10.8217 17.6488C10.8217 17.7595 10.8451 17.8713 10.8929 17.9773L12.6737 21.9348C12.4502 21.9779 12.2208 22 11.9869 22H11.9511C11.9431 22 11.9355 22 11.9275 21.9997C11.9109 21.9997 11.8949 21.9992 11.8784 21.9984C11.8565 21.9981 11.8343 21.997 11.8124 21.9956C11.7941 21.9948 11.7761 21.9942 11.758 21.9926C11.7394 21.9917 11.7205 21.9901 11.7019 21.9884H11.7001C11.6732 21.9862 11.6457 21.9837 11.6185 21.981C10.848 21.9001 10.1266 21.5669 9.57371 21.0507L7.85593 19.4467L2.00006 13.9795C2.1816 13.863 2.35869 13.7424 2.53078 13.6199L2.52575 13.6135C2.54527 13.6005 2.5642 13.5875 2.58372 13.5743C2.64729 13.5315 2.71027 13.4879 2.77294 13.4437C2.77323 13.4435 2.77382 13.4432 2.77442 13.4426C2.81936 13.4109 2.86429 13.3789 2.90894 13.3469C3.6481 12.8102 4.32754 12.1916 4.94339 11.5419C4.94665 11.5385 4.94989 11.5352 4.95284 11.5319C5.06814 11.4099 5.18111 11.2871 5.29226 11.1631C7.61291 8.57145 8.93719 5.65071 9.01081 5.48673C9.02942 5.4456 9.0726 5.41882 9.1208 5.41882H12.0567L12.0579 5.62116H9.18554C9.0324 5.95516 8.27078 7.55589 6.98731 9.36585C6.91871 9.46329 6.84805 9.56156 6.7759 9.66009C7.18066 9.36723 8.62083 8.31663 9.20506 7.75378C9.20713 7.75185 9.2098 7.74992 9.21513 7.75185C9.21984 7.75352 9.21984 7.75571 9.21984 7.75847C9.21777 7.90725 9.22339 8.05658 9.22781 8.1888C9.23343 8.334 9.23817 8.47118 9.23255 8.57856C9.22753 8.66523 9.28075 8.74198 9.36768 8.77345C9.45401 8.80547 9.54893 8.78338 9.60924 8.71687L10.3655 7.88296C10.367 7.88129 10.3688 7.87854 10.3738 7.8802C10.3791 7.88131 10.3794 7.88434 10.3797 7.88627L10.6822 9.29598C10.7029 9.39398 10.7922 9.46272 10.8992 9.46436H10.9022C11.0077 9.46436 11.0973 9.39756 11.1206 9.30123L11.5207 7.65218C11.5215 7.64914 11.5224 7.64667 11.5283 7.64638C11.5346 7.64556 11.5354 7.64776 11.5369 7.65107L11.7421 8.18383C11.7752 8.26996 11.8586 8.32378 11.9576 8.3224C11.9736 8.32214 11.989 8.32047 12.0037 8.31689C12.0097 8.31578 12.0156 8.31469 12.0215 8.31276C12.0277 8.31056 12.0342 8.30863 12.0404 8.30585C12.041 8.3064 12.041 8.30585 12.041 8.30585L11.9399 8.66249C11.5659 9.98138 11.8098 11.3864 12.6113 12.527C12.7988 12.7939 12.8952 13.1028 12.8952 13.4156Z" fill="white" fill-opacity="0.64"/>
</svg>
