<svg width="24" height="24" viewBox="0 0 24 24" fill="none" xmlns="http://www.w3.org/2000/svg">
<path d="M15.1251 2.44388C15.1251 2.11346 15.3832 1.92667 15.6989 2.02721C19.9336 3.37601 23 7.331 23 12C23 16.669 19.9336 20.624 15.6989 21.9728C15.3832 22.0733 15.1251 21.8865 15.1251 21.5561V20.7436C15.1251 20.5006 15.2724 20.2771 15.5012 20.1936C18.8521 18.97 21.25 15.7591 21.25 12C21.25 8.24085 18.8521 5.02995 15.5012 3.80642C15.2926 3.73018 15.1251 3.47803 15.1251 3.25648V2.44388Z" fill="white"/>
<path d="M9.3012 2.02721C9.6169 1.92667 9.87504 2.11346 9.87504 2.44388V3.25648C9.87504 3.47803 9.7075 3.73018 9.49885 3.80642C6.14795 5.02995 3.75 8.24085 3.75 12C3.75 15.7591 6.14795 18.97 9.49885 20.1936C9.7075 20.2697 9.87504 20.522 9.87504 20.7436V21.5561C9.87504 21.8865 9.6169 22.0733 9.3012 21.9728C5.06644 20.624 2 16.669 2 12C2 7.331 5.06644 3.37601 9.3012 2.02721Z" fill="white"/>
<path d="M12.0625 5.02173H12.9374C13.1791 5.02173 13.375 5.21693 13.375 5.45783V6.84743C14.7834 7.09893 15.6818 7.89638 15.9732 9.22528C16.028 9.47528 15.8282 9.71043 15.5716 9.71043H14.6512C14.4549 9.71043 14.2864 9.57773 14.2309 9.39008C13.9818 8.54918 13.3791 8.18448 12.3309 8.18448C11.1721 8.18448 10.5715 8.74088 10.5715 9.52503C10.5715 10.3522 10.9146 10.7659 12.6883 11.0226C15.0918 11.3504 16.3364 12.0351 16.3364 14.0743C16.3364 15.6242 15.1819 16.8782 13.375 17.1643V18.5421C13.375 18.783 13.1791 18.9783 12.9374 18.9783H12.0625C11.8208 18.9783 11.625 18.783 11.625 18.5421V17.165C9.71613 16.9069 8.78088 15.8417 8.52673 14.3899C8.48353 14.143 8.68008 13.9173 8.93148 13.9173H9.92948C10.1391 13.9173 10.3146 14.0667 10.3585 14.271C10.5439 15.1335 11.0466 15.7999 12.5742 15.7999C13.7039 15.7999 14.5054 15.1724 14.5054 14.2312C14.5054 13.2898 14.0331 12.9336 12.3737 12.6626C9.92778 12.3345 8.76898 11.593 8.76898 9.68203C8.76898 8.20568 9.89033 7.05488 11.625 6.80903V5.45783C11.625 5.21693 11.8208 5.02173 12.0625 5.02173Z" fill="white"/>
</svg>
