<svg width="24" height="24" viewBox="0 0 24 24" fill="none" xmlns="http://www.w3.org/2000/svg">
<path fill-rule="evenodd" clip-rule="evenodd" d="M6.35574 4H17.8755C18.1504 4 18.4043 4.14243 18.5414 4.37351L21.8976 10.031C22.0716 10.3244 22.02 10.6947 21.7717 10.9327L12.5337 19.786C12.2344 20.0727 11.753 20.0727 11.4538 19.786L2.22829 10.9446C1.97427 10.7012 1.9267 10.32 2.1135 10.0248L5.70099 4.35536C5.84071 4.13456 6.08865 4 6.35574 4ZM16.3881 6.52587V8.1133H13.1066V9.21387C15.4113 9.33148 17.1404 9.81456 17.1533 10.3936L17.1532 11.6006C17.1404 12.1796 15.4113 12.6626 13.1066 12.7803V15.4813H10.9276V12.7803C8.62291 12.6626 6.89374 12.1796 6.88091 11.6006L6.881 10.3936C6.89382 9.81456 8.62291 9.33148 10.9276 9.21387V8.1133H7.64609V6.52587H16.3881ZM12.0171 11.951C14.4766 11.951 16.5324 11.5426 17.0355 10.9971C16.6089 10.5345 15.0657 10.1705 13.1066 10.0705V11.2228C12.7554 11.2407 12.391 11.2502 12.0171 11.2502C11.6433 11.2502 11.2787 11.2407 10.9276 11.2228V10.0705C8.96848 10.1705 7.4253 10.5345 6.99869 10.9971C7.50178 11.5426 9.55756 11.951 12.0171 11.951Z" fill="white"/>
</svg>
