<svg width="24" height="24" viewBox="0 0 24 24" fill="none" xmlns="http://www.w3.org/2000/svg">
<g clip-path="url(#clip0_6990_11264)">
<g clip-path="url(#clip1_6990_11264)">
<path d="M12.9864 17.8493C12.8453 17.8206 12.6998 17.8193 12.5582 17.8456C12.4165 17.8718 12.2816 17.9251 12.161 18.0023C12.0404 18.0796 11.9366 18.1793 11.8555 18.2958C11.7743 18.4123 11.7175 18.5433 11.6881 18.6812C11.6881 18.6867 11.686 18.6921 11.6846 18.6976C11.6541 18.8349 11.6516 18.9766 11.6771 19.1149C11.7026 19.2531 11.7558 19.385 11.8335 19.5032C11.9113 19.6213 12.012 19.7233 12.1301 19.8033C12.2481 19.8834 12.3812 19.9399 12.5216 19.9697C12.5219 19.9695 12.5223 19.9694 12.5226 19.9694C12.523 19.9694 12.5233 19.9695 12.5237 19.9697H12.554C12.8314 20.0351 13.1241 19.9902 13.3676 19.8448C13.6112 19.6993 13.7857 19.4652 13.8527 19.194C13.8527 19.1899 13.8548 19.1851 13.8562 19.1811V19.1221C13.9053 18.8414 13.8425 18.5531 13.6807 18.3163C13.5189 18.0796 13.2704 17.9124 12.9864 17.8493Z" fill="#181818" fill-opacity="0.7"/>
<circle cx="12" cy="12" r="12" fill="white"/>
<path d="M1 -3.5L12.3098 24.0001L22.5 -3.5" stroke="#181818" stroke-opacity="0.7" stroke-width="5.09735"/>
<circle cx="12" cy="12" r="10" fill="white" fill-opacity="0.8"/>
<path d="M12.5872 3C8.95515 3.01432 6.0143 5.88913 6 9.44003C6.00037 10.1512 6.11813 10.8576 6.34873 11.532C6.43146 11.7531 6.59768 11.9348 6.81322 12.0398C7.02876 12.1447 7.27724 12.165 7.50756 12.0963C7.72986 12.0127 7.91125 11.8494 8.01489 11.6398C8.11853 11.4301 8.13663 11.1897 8.06553 10.9675C7.8704 10.4421 7.7833 9.88419 7.80922 9.32582C7.83675 8.42533 8.1315 7.5521 8.65757 6.81245C9.18364 6.0728 9.91833 5.49864 10.7722 5.1599C11.626 4.82116 12.5622 4.73244 13.4667 4.90455C14.3712 5.07666 15.205 5.50217 15.8666 6.12927C16.5282 6.75637 16.989 7.558 17.1929 8.43656C17.3968 9.31511 17.3351 10.2327 17.0151 11.0775C16.6952 11.9224 16.131 12.6581 15.391 13.195C14.6511 13.7319 13.7675 14.047 12.8477 14.1017C12.8477 14.1017 11.9232 14.1566 11.4632 14.2118C11.2936 14.2355 11.1253 14.2681 10.9593 14.3097C10.9479 14.3208 10.9324 14.3271 10.9162 14.3271C10.9001 14.3271 10.8846 14.3208 10.8732 14.3097C10.8652 14.2993 10.8609 14.2866 10.8609 14.2736C10.8609 14.2605 10.8652 14.2478 10.8732 14.2374L11.0165 13.474L11.8848 9.65551C11.935 9.42656 11.89 9.18751 11.7599 8.99097C11.6297 8.79442 11.425 8.65647 11.1909 8.60746C10.9567 8.55845 10.7122 8.6024 10.5111 8.72963C10.3101 8.85687 10.169 9.05698 10.1189 9.28593C10.1189 9.28593 8.05333 18.6321 8.05333 18.7174C7.99667 18.9356 8.03096 19.1668 8.14868 19.3603C8.26639 19.5538 8.45789 19.6936 8.68105 19.7491C8.68608 19.7505 8.6912 19.7517 8.69639 19.7525H8.74451C8.96737 19.8087 9.20395 19.7761 9.40223 19.6619C9.60051 19.5476 9.74426 19.3611 9.80187 19.1432C9.80413 19.1356 9.806 19.1278 9.80745 19.12C9.80605 19.106 9.80605 19.0918 9.80745 19.0778C9.8329 18.968 10.0934 17.7242 10.0934 17.7242C10.1897 17.266 10.4272 16.8475 10.7739 16.5252C11.1207 16.2028 11.5601 15.992 12.033 15.921C12.2325 15.891 13.0705 15.8361 13.0705 15.8361C16.6883 15.4849 19.3282 12.3316 18.9669 8.79429C18.8075 7.23464 18.0715 5.78545 16.8969 4.71864C15.7223 3.65183 14.1899 3.04072 12.5872 3Z" fill="#181818" fill-opacity="0.7"/>
</g>
</g>
<defs>
<clipPath id="clip0_6990_11264">
<rect width="24" height="24" fill="white"/>
</clipPath>
<clipPath id="clip1_6990_11264">
<rect width="24" height="24" rx="12" fill="white"/>
</clipPath>
</defs>
</svg>
