<svg width="24" height="24" viewBox="0 0 24 24" fill="none" xmlns="http://www.w3.org/2000/svg">
<path d="M20.3717 4.65504C20.3488 4.63644 20.3255 4.61729 20.3018 4.59779C20.0217 4.36764 19.6782 4.08539 19.0901 4.01044C18.5019 3.93049 17.9027 4.32749 17.491 4.60029L17.4698 4.61439C17.2284 4.77424 16.8611 5.11534 16.5336 5.41954C16.3019 5.63479 16.09 5.83159 15.9566 5.93264C15.8275 6.03054 15.6173 6.12569 15.3261 6.25744C14.892 6.45389 14.2779 6.73179 13.4838 7.22189C12.157 8.04069 6.95146 11.4786 6.95146 11.4786L8.30644 11.496L2.26536 14.6959H2.86947L2 15.3753C2 15.3753 2.76784 15.5844 3.41147 15.1663V15.3579C3.41147 15.3579 10.6043 12.4426 11.9932 13.1976L11.1463 13.4531C11.2198 13.4531 12.586 13.546 12.586 13.546C12.6016 13.6826 12.6308 13.8168 12.673 13.9464C13.4374 12.2092 15.1419 11 17.122 11C17.1279 11 17.1337 11 17.1396 11C18.0715 10.369 18.3498 9.87114 18.5368 9.46349C18.6806 9.15014 18.8659 8.64894 19.0335 8.19544C19.1423 7.90094 19.2438 7.62649 19.3216 7.43674C19.57 6.81534 19.8749 6.48434 20.129 6.28689C20.383 6.08944 21.5122 5.65389 21.5122 5.65389C21.5122 5.65389 20.6484 4.88154 20.3717 4.65504Z" fill="white"/>
<path fill-rule="evenodd" clip-rule="evenodd" d="M17.1219 11.5555C14.7272 11.5555 12.7859 13.5454 12.7859 16C12.7859 18.4546 14.7272 20.4445 17.1219 20.4445C19.5167 20.4445 21.458 18.4546 21.458 16C21.458 13.5454 19.5167 11.5555 17.1219 11.5555ZM12.2439 16C12.2439 13.2386 14.4279 11 17.1219 11C19.816 11 22 13.2386 22 16C22 18.7614 19.816 21 17.1219 21C14.4279 21 12.2439 18.7614 12.2439 16Z" fill="white"/>
<path d="M19.561 13.5L17.724 18.5H16.5053L14.683 13.5H15.7102L17.1165 17.3278L18.5339 13.5H19.561Z" fill="white"/>
</svg>
