<svg width="24" height="24" viewBox="0 0 24 24" fill="none" xmlns="http://www.w3.org/2000/svg">
<path d="M15.076 4.04627C15.076 5.17639 13.4532 6.09254 11.4513 6.09254C9.44947 6.09254 7.82666 5.17639 7.82666 4.04627C7.82666 2.91615 9.44947 2 11.4513 2C13.4532 2 15.076 2.91615 15.076 4.04627Z" fill="white"/>
<path d="M14.3491 20.6939C13.6877 21.19 12.6359 21.5108 11.4513 21.5108C9.44947 21.5108 7.82666 20.5946 7.82666 19.4645C7.82666 18.3344 9.44947 17.4182 11.4513 17.4182C11.8065 17.4182 12.1498 17.4471 12.4743 17.5008C12.59 18.8165 13.3032 19.9665 14.3491 20.6939Z" fill="white"/>
<path d="M20.8416 14.8425C21.0237 13.8104 20.7899 12.9267 20.1413 12.5632C19.5802 12.2487 18.8268 12.3899 18.0964 12.8672C19.2554 13.1537 20.2355 13.8754 20.8416 14.8425Z" fill="white"/>
<path d="M6.40015 8.92505C7.40109 7.24227 7.39456 5.41978 6.38563 4.85432C5.3767 4.28888 3.74739 5.19466 2.74647 6.87739C1.74554 8.56017 1.75204 10.3827 2.76097 10.9481C3.76991 11.5136 5.39925 10.6078 6.40015 8.92505Z" fill="white"/>
<path d="M6.38601 18.6566C7.39494 18.0912 7.40147 16.2687 6.40052 14.5859C5.39958 12.9031 3.77028 11.9974 2.76134 12.5628C1.7524 13.1283 1.74591 14.9508 2.74683 16.6335C3.74776 18.3163 5.37708 19.2221 6.38601 18.6566Z" fill="white"/>
<path d="M20.1555 6.8786C21.1564 8.56138 21.1504 10.3836 20.1422 10.9487C19.1339 11.5137 17.5052 10.6076 16.5043 8.9249C15.5034 7.24212 15.5093 5.41992 16.5176 4.85484C17.5258 4.28977 19.1546 5.19582 20.1555 6.8786Z" fill="white"/>
<path fill-rule="evenodd" clip-rule="evenodd" d="M16.9776 12.7859C14.5121 12.7859 12.5134 14.7272 12.5134 17.1219C12.5134 19.5167 14.5121 21.458 16.9776 21.458C19.4432 21.458 21.4419 19.5167 21.4419 17.1219C21.4419 14.7272 19.4432 12.7859 16.9776 12.7859ZM11.9553 17.1219C11.9553 14.4279 14.2039 12.2439 16.9776 12.2439C19.7514 12.2439 22 14.4279 22 17.1219C22 19.816 19.7514 22 16.9776 22C14.2039 22 11.9553 19.816 11.9553 17.1219Z" fill="white"/>
<path d="M17 19.5C16.3615 19.5 15.8701 19.369 15.5258 19.1071C15.1815 18.8393 15.0063 18.4821 15 18.0357H15.6573C15.6698 18.2619 15.7762 18.4673 15.9765 18.6518C16.1831 18.8363 16.5243 18.9286 17 18.9286C17.4444 18.9286 17.7762 18.8423 17.9953 18.6696C18.2207 18.4911 18.3333 18.2768 18.3333 18.0268C18.3333 17.7946 18.2394 17.6161 18.0516 17.4911C17.8701 17.3601 17.6041 17.2768 17.2535 17.2411L16.6901 17.1875C16.2394 17.1399 15.8732 17.0089 15.5915 16.7946C15.3161 16.5744 15.1784 16.2738 15.1784 15.8929C15.1784 15.6131 15.2535 15.369 15.4038 15.1607C15.554 14.9524 15.7637 14.7917 16.0329 14.6786C16.3083 14.5595 16.6307 14.5 17 14.5C17.5321 14.5 17.964 14.619 18.2958 14.8571C18.6338 15.0952 18.8059 15.4345 18.8122 15.875H18.1549C18.1487 15.6488 18.0485 15.4583 17.8545 15.3036C17.6604 15.1488 17.3756 15.0714 17 15.0714C16.6119 15.0714 16.3208 15.1518 16.1268 15.3125C15.939 15.4732 15.8451 15.6696 15.8451 15.9018C15.8451 16.0982 15.9171 16.2619 16.061 16.3929C16.205 16.5179 16.4304 16.5952 16.7371 16.625L17.3005 16.6786C17.8013 16.7321 18.2081 16.869 18.5211 17.0893C18.8404 17.3095 19 17.625 19 18.0357C19 18.3155 18.9155 18.5685 18.7465 18.7946C18.5837 19.0149 18.3521 19.1875 18.0516 19.3125C17.7512 19.4375 17.4006 19.5 17 19.5Z" fill="white"/>
</svg>
