<svg width="24" height="24" viewBox="0 0 24 24" fill="none" xmlns="http://www.w3.org/2000/svg">
<path d="M20.3717 4.65504C20.3488 4.63644 20.3255 4.61729 20.3018 4.59779C20.0217 4.36764 19.6782 4.08539 19.0901 4.01044C18.5019 3.93049 17.9027 4.32749 17.491 4.60029L17.4698 4.61439C17.2284 4.77424 16.8611 5.11534 16.5336 5.41954C16.3019 5.63479 16.09 5.83159 15.9566 5.93264C15.8275 6.03054 15.6173 6.12569 15.3261 6.25744C14.892 6.45389 14.2779 6.73179 13.4838 7.22189C12.157 8.04069 6.95146 11.4786 6.95146 11.4786L8.30644 11.496L2.26536 14.6959H2.86947L2 15.3753C2 15.3753 2.76784 15.5844 3.41147 15.1663V15.3579C3.41147 15.3579 10.6043 12.4426 11.9932 13.1976L11.1463 13.4531C11.2198 13.4531 12.5861 13.546 12.5861 13.546C12.6016 13.6826 12.6308 13.8168 12.673 13.9464C13.4374 12.2092 15.1419 11 17.122 11C17.1279 11 17.1337 11 17.1396 11C18.0715 10.369 18.3498 9.87114 18.5368 9.46349C18.6806 9.15014 18.8659 8.64894 19.0335 8.19544C19.1423 7.90094 19.2438 7.62649 19.3216 7.43674C19.57 6.81534 19.8749 6.48434 20.129 6.28689C20.383 6.08944 21.5122 5.65389 21.5122 5.65389C21.5122 5.65389 20.6484 4.88154 20.3717 4.65504Z" fill="white"/>
<path fill-rule="evenodd" clip-rule="evenodd" d="M17.1219 11.5555C14.7272 11.5555 12.7859 13.5454 12.7859 16C12.7859 18.4546 14.7272 20.4445 17.1219 20.4445C19.5167 20.4445 21.458 18.4546 21.458 16C21.458 13.5454 19.5167 11.5555 17.1219 11.5555ZM12.2439 16C12.2439 13.2386 14.4279 11 17.1219 11C19.816 11 22 13.2386 22 16C22 18.7614 19.816 21 17.1219 21C14.4279 21 12.2439 18.7614 12.2439 16Z" fill="white"/>
<path d="M17.1836 18.5C16.8017 18.5 16.4644 18.4401 16.1718 18.3205C15.8792 18.1961 15.6486 18.0212 15.48 17.7955C15.3114 17.5654 15.2245 17.2868 15.2196 16.9599H16.2239C16.2338 17.1855 16.3206 17.3766 16.4843 17.5331C16.6529 17.6851 16.8836 17.761 17.1761 17.761C17.4291 17.761 17.6299 17.7058 17.7787 17.5953C17.9275 17.4802 18.0019 17.3283 18.0019 17.1395C18.0019 16.9415 17.9349 16.7873 17.8011 16.6768C17.672 16.5663 17.4985 16.4765 17.2802 16.4075C17.062 16.3384 16.829 16.2647 16.581 16.1864C16.1792 16.0575 15.8718 15.8918 15.6585 15.6893C15.4502 15.4866 15.346 15.2173 15.346 14.8812C15.3411 14.5958 15.413 14.3518 15.5618 14.1492C15.7156 13.942 15.9238 13.7831 16.1867 13.6726C16.4496 13.5575 16.7521 13.5 17.0943 13.5C17.4415 13.5 17.7465 13.5575 18.0094 13.6726C18.2772 13.7877 18.4855 13.9488 18.6342 14.156C18.7879 14.3632 18.8698 14.6096 18.8797 14.895H17.8606C17.8556 14.7247 17.7837 14.5751 17.6448 14.4461C17.5109 14.3126 17.3224 14.2458 17.0794 14.2458C16.8711 14.2412 16.695 14.2896 16.5512 14.3909C16.4124 14.4876 16.3429 14.6303 16.3429 14.819C16.3429 14.9802 16.3975 15.1091 16.5066 15.2058C16.6157 15.2978 16.7645 15.3761 16.953 15.4406C17.1414 15.505 17.3572 15.5742 17.6001 15.6478C17.858 15.7307 18.0937 15.8274 18.3069 15.9379C18.5201 16.0483 18.6913 16.1957 18.8202 16.3798C18.9491 16.5594 19.0137 16.7919 19.0137 17.0774C19.0137 17.3306 18.9442 17.5654 18.8054 17.7818C18.6665 17.9982 18.4606 18.1731 18.1878 18.3066C17.9151 18.4356 17.5803 18.5 17.1836 18.5Z" fill="white"/>
</svg>
