<svg width="24" height="24" viewBox="0 0 24 24" fill="none" xmlns="http://www.w3.org/2000/svg">
<path d="M11.34 2.17238C11.7495 1.94254 12.2524 1.94254 12.6618 2.17238L20.3399 6.52385C20.7496 6.7542 21.0017 7.1828 21 7.6462V16.351C21.0039 16.8111 20.7592 17.2389 20.3568 17.4752L12.6693 21.8248C12.2609 22.0584 11.7559 22.0584 11.3475 21.8248L3.66006 17.4752C3.25117 17.2431 2.99957 16.8145 3.00003 16.351V7.6462C2.99675 7.18435 3.24572 6.7561 3.65256 6.52385L11.34 2.17238ZM9.02616 6.6006L5.72745 8.4837C5.63092 8.539 5.57147 8.64065 5.57147 8.75065V15.6981C5.57116 15.8225 5.63843 15.9376 5.74792 15.9998L11.7862 19.4369C11.9319 19.5211 12.1123 19.5211 12.258 19.4369L15.3691 17.6745C15.4059 17.6531 15.4285 17.6142 15.4285 17.5721C15.4285 17.53 15.4059 17.4911 15.3691 17.4697L9.28804 14.0179C9.23794 13.9887 9.20858 13.9344 9.21192 13.8772V6.7048C9.21218 6.66115 9.18852 6.62075 9.15 6.59915C9.11153 6.57755 9.06417 6.5781 9.02616 6.6006Z" fill="white"/>
</svg>
